<?xml version="1.0" encoding="UTF-8" standalone="no"?>
<svg width="1365px" height="400px" viewBox="0 0 1365 400" version="1.1" xmlns="http://www.w3.org/2000/svg" xmlns:xlink="http://www.w3.org/1999/xlink" xmlns:sketch="http://www.bohemiancoding.com/sketch/ns">
    <!-- Generator: Sketch 3.3.2 (12043) - http://www.bohemiancoding.com/sketch -->
    <title>left</title>
    <desc>Created with Sketch.</desc>
    <defs></defs>
    <g id="Page-1" stroke="none" stroke-width="1" fill="none" fill-rule="evenodd" sketch:type="MSPage">
        <g id="illustration-donate" sketch:type="MSArtboardGroup" transform="translate(0.000000, -105.000000)">
            <g id="land" sketch:type="MSLayerGroup" transform="translate(46.905497, 438.384480)">
                <path d="M106.764706,8.75220459 L601.034752,8.75220459 C603.354668,8.75220459 605.235331,6.87132676 605.235331,4.55114638 C605.235331,2.23096601 603.354668,0.350088183 601.034752,0.350088183 L106.764706,0.350088183 C104.44479,0.350088183 102.564127,2.23096601 102.564127,4.55114638 C102.564127,6.87132676 104.44479,8.75220459 106.764706,8.75220459 L106.764706,8.75220459 Z" id="Shape" fill="#F2F2F2" sketch:type="MSShapeGroup"></path>
                <path d="M893.514026,8.95326279 L1287.48763,8.95326279 C1289.33679,8.95326279 1290.83583,7.07238496 1290.83583,4.75220459 C1290.83583,2.43202421 1289.33679,0.551146384 1287.48763,0.551146384 L893.514026,0.551146384 C891.664864,0.551146384 890.165821,2.43202421 890.165821,4.75220459 C890.165821,7.07238496 891.664864,8.95326279 893.514026,8.95326279 L893.514026,8.95326279 Z" id="Shape" fill="#F2F2F2" sketch:type="MSShapeGroup"></path>
                <path d="M462.702002,36.0590829 L630.438803,36.0590829 C632.758718,36.0590829 634.639381,34.1782051 634.639381,31.8580247 C634.639381,29.5378443 632.758718,27.6569665 630.438803,27.6569665 L462.702002,27.6569665 C460.382086,27.6569665 458.501423,29.5378443 458.501423,31.8580247 C458.501423,34.1782051 460.382086,36.0590829 462.702002,36.0590829 L462.702002,36.0590829 Z" id="Shape" fill="#E0E0E0" sketch:type="MSShapeGroup"></path>
                <path d="M1140.702,36.0590829 L1308.4388,36.0590829 C1310.75872,36.0590829 1312.63938,34.1782051 1312.63938,31.8580247 C1312.63938,29.5378443 1310.75872,27.6569665 1308.4388,27.6569665 L1140.702,27.6569665 C1138.38209,27.6569665 1136.50142,29.5378443 1136.50142,31.8580247 C1136.50142,34.1782051 1138.38209,36.0590829 1140.702,36.0590829 L1140.702,36.0590829 Z" id="Shape" fill="#E0E0E0" sketch:type="MSShapeGroup"></path>
                <path d="M206.129977,59.1184484 L289.139828,59.1184484 C291.459743,59.1184484 293.340406,57.2375706 293.340406,54.9173902 C293.340406,52.5972098 291.459743,50.716332 289.139828,50.716332 L206.129977,50.716332 C203.810061,50.716332 201.929398,52.5972098 201.929398,54.9173902 C201.929398,57.2375706 203.810061,59.1184484 206.129977,59.1184484 L206.129977,59.1184484 Z" id="Shape" fill="#E0E0E0" sketch:type="MSShapeGroup"></path>
                <path d="M335.284451,36.0590829 L362.65219,36.0590829 C364.972105,36.0590829 366.852768,34.1782051 366.852768,31.8580247 C366.852768,29.5378443 364.972105,27.6569665 362.65219,27.6569665 L335.284451,27.6569665 C332.964536,27.6569665 331.083873,29.5378443 331.083873,31.8580247 C331.083873,34.1782051 332.964536,36.0590829 335.284451,36.0590829 L335.284451,36.0590829 Z" id="Shape" fill="#CACACA" sketch:type="MSShapeGroup"></path>
                <path d="M418.595927,61.2654321 L480.967232,61.2654321 C483.287147,61.2654321 485.16781,59.3845543 485.16781,57.0643739 C485.16781,54.7441935 483.287147,52.8633157 480.967232,52.8633157 L418.595927,52.8633157 C416.276011,52.8633157 414.395348,54.7441935 414.395348,57.0643739 C414.395348,59.3845543 416.276011,61.2654321 418.595927,61.2654321 L418.595927,61.2654321 Z" id="Shape" fill="#CACACA" sketch:type="MSShapeGroup"></path>
                <path d="M717.378475,61.2654321 L779.74978,61.2654321 C782.069695,61.2654321 783.950358,59.3845543 783.950358,57.0643739 C783.950358,54.7441935 782.069695,52.8633157 779.74978,52.8633157 L717.378475,52.8633157 C715.058559,52.8633157 713.177896,54.7441935 713.177896,57.0643739 C713.177896,59.3845543 715.058559,61.2654321 717.378475,61.2654321 L717.378475,61.2654321 Z" id="Shape" fill="#CACACA" sketch:type="MSShapeGroup"></path>
                <path d="M43.3442392,57.0643739 L105.715544,57.0643739 C108.03546,57.0643739 109.916123,55.1834961 109.916123,52.8633157 C109.916123,50.5431353 108.03546,48.6622575 105.715544,48.6622575 L43.3442392,48.6622575 C41.0243237,48.6622575 39.1436606,50.5431353 39.1436606,52.8633157 C39.1436606,55.1834961 41.0243237,57.0643739 43.3442392,57.0643739 L43.3442392,57.0643739 Z" id="Shape" fill="#CACACA" sketch:type="MSShapeGroup"></path>
                <path d="M506.107981,36.0590829 L560.777242,36.0590829 C563.097158,36.0590829 564.977821,34.1782051 564.977821,31.8580247 C564.977821,29.5378443 563.097158,27.6569665 560.777242,27.6569665 L506.107981,27.6569665 C503.788065,27.6569665 501.907402,29.5378443 501.907402,31.8580247 C501.907402,34.1782051 503.788065,36.0590829 506.107981,36.0590829 L506.107981,36.0590829 Z" id="Shape" fill="#FFFFFF" sketch:type="MSShapeGroup"></path>
                <path d="M1189.10798,36.0590829 L1243.77724,36.0590829 C1246.09716,36.0590829 1247.97782,34.1782051 1247.97782,31.8580247 C1247.97782,29.5378443 1246.09716,27.6569665 1243.77724,27.6569665 L1189.10798,27.6569665 C1186.78807,27.6569665 1184.9074,29.5378443 1184.9074,31.8580247 C1184.9074,34.1782051 1186.78807,36.0590829 1189.10798,36.0590829 L1189.10798,36.0590829 Z" id="Shape" fill="#FFFFFF" sketch:type="MSShapeGroup"></path>
                <path d="M249.535956,59.1184484 L304.205217,59.1184484 C306.525132,59.1184484 308.405796,57.2375706 308.405796,54.9173902 C308.405796,52.5972098 306.525132,50.716332 304.205217,50.716332 L249.535956,50.716332 C247.21604,50.716332 245.335377,52.5972098 245.335377,54.9173902 C245.335377,57.2375706 247.21604,59.1184484 249.535956,59.1184484 L249.535956,59.1184484 Z" id="Shape" fill="#F2F2F2" sketch:type="MSShapeGroup"></path>
                <path d="M94.4512787,36.0590829 L262.188079,36.0590829 C264.507995,36.0590829 266.388658,34.1782051 266.388658,31.8580247 C266.388658,29.5378443 264.507995,27.6569665 262.188079,27.6569665 L94.4512787,27.6569665 C92.1313632,27.6569665 90.2507001,29.5378443 90.2507001,31.8580247 C90.2507001,34.1782051 92.1313632,36.0590829 94.4512787,36.0590829 L94.4512787,36.0590829 Z" id="Shape" fill="#D6D6D6" sketch:type="MSShapeGroup"></path>
                <path d="M10.0896586,8.75220459 L177.826459,8.75220459 C180.146375,8.75220459 182.027038,6.87132676 182.027038,4.55114638 C182.027038,2.23096601 180.146375,0.350088183 177.826459,0.350088183 L10.0896586,0.350088183 C7.76974314,0.350088183 5.88908004,2.23096601 5.88908004,4.55114638 C5.88908004,6.87132676 7.76974314,8.75220459 10.0896586,8.75220459 L10.0896586,8.75220459 Z" id="Shape" fill="#EAEAEA" sketch:type="MSShapeGroup"></path>
                <path d="M578.979749,8.75220459 L681.194427,8.75220459 C683.514342,8.75220459 685.395005,6.87132676 685.395005,4.55114638 C685.395005,2.23096601 683.514342,0.350088183 681.194427,0.350088183 L578.979749,0.350088183 C576.659834,0.350088183 574.779171,2.23096601 574.779171,4.55114638 C574.779171,6.87132676 576.659834,8.75220459 578.979749,8.75220459 L578.979749,8.75220459 Z" id="Shape" fill="#CFCFCF" sketch:type="MSShapeGroup"></path>
                <path d="M4.20057859,8.75220459 L105.715544,8.75220459 C108.03546,8.75220459 109.916123,6.87132676 109.916123,4.55114638 C109.916123,2.23096601 108.03546,0.350088183 105.715544,0.350088183 L4.20057859,0.350088183 C1.8806631,0.350088183 0,2.23096601 0,4.55114638 C0,6.87132676 1.8806631,8.75220459 4.20057859,8.75220459 L4.20057859,8.75220459 Z" id="Shape" fill="#CACACA" sketch:type="MSShapeGroup"></path>
            </g>
            <g id="PIG" sketch:type="MSLayerGroup" transform="translate(362.000000, 212.000000)">
                <path d="M181.64314,183.966694 L182.04644,184.139017 L182.469233,184.255601 C190.934548,186.589893 199.308206,181.026333 201.279827,172.280663 L201.420343,171.657366 L201.436803,171.018639 L202.102093,145.203577 L189.106408,144.868661 L168.937375,164.400757 L163.829445,176.355215 L181.64314,183.966694 Z" id="Shape" fill="#CDCDCD" sketch:type="MSShapeGroup"></path>
                <path d="M65.3079343,144.868661 L52.3122492,145.203577 L52.9775388,171.018639 L52.9939997,171.657366 L53.1345155,172.280663 C55.1061361,181.026333 63.4797939,186.589893 71.9451097,184.255601 L72.3679027,184.139017 L72.7712023,183.966694 L90.5848973,176.355215 L85.4769672,164.400757 L65.3079343,144.868661 Z" id="Shape" fill="#CDCDCD" sketch:type="MSShapeGroup"></path>
                <path d="M194.340361,17.209486 C194.280966,12.5745218 193.645606,8.82692038 191.878165,5.76001356 C188.86929,0.538939107 183.18691,-1.17614281 177.073085,1.3317745 L159.421705,12.3946859 L166.378143,23.3768518 L180.34263,35.3752927 L193.323246,36.0849341 L194.340361,17.209486 Z" id="Shape" fill="#CACACA" sketch:type="MSShapeGroup"></path>
                <g id="Shape-+-Shape" transform="translate(34.782128, 0.746141)" sketch:type="MSShapeGroup">
                    <path d="M179.716027,62.8543908 C167.059117,25.9948328 132.28277,0.746140667 92.6828913,0.746140667 C41.8726944,0.746140667 0.682891332,41.9359437 0.682891332,92.7461407 C0.682891332,143.556338 41.8726944,184.746141 92.6828913,184.746141 C130.251075,184.746141 163.613275,162.017803 177.730301,127.88956 L165.71746,122.920491 C153.594187,152.228788 124.945289,171.746141 92.6828913,171.746141 C49.0523961,171.746141 13.6828913,136.376636 13.6828913,92.7461407 C13.6828913,49.1156454 49.0523961,13.7461407 92.6828913,13.7461407 C126.68819,13.7461407 156.553715,35.4294255 167.420711,67.0763815 L179.716027,62.8543908 L179.716027,62.8543908 Z" id="Shape" fill="#CACACA"></path>
                    <path d="M182.106302,117.750131 C189.514261,117.750131 197.421177,109.469377 197.421177,99.2572666 L197.421177,85.3396173 C197.421177,75.1271612 191.13556,66.3778851 180.923197,66.3778851 C169.75129,27.6876998 133.966879,0.746140667 92.7528093,0.746140667 C89.1629584,0.746140667 86.2528093,3.65628979 86.2528093,7.24614067 C86.2528093,10.8359915 89.1629584,13.7461407 92.7528093,13.7461407 C129.659522,13.7461407 159.438089,39.7658207 169.154154,74.178178 L170.687851,80.364088 L178.930002,79.8467493 C181.962101,79.8467493 184.421177,82.3063006 184.421177,85.3396173 L184.421177,99.2572666 C184.421177,102.289436 181.960277,104.750135 178.930002,104.750135 L170.921908,104.253781 C170.921908,104.253781 162.897027,128.605084 162.544431,129.212636 C160.742514,132.317491 161.798754,136.295216 164.903609,138.097133 C167.852378,139.808465 172.16637,138.664132 174.136253,135.885009 C174.240524,135.737903 181.263416,120.596379 182.106302,117.750131 Z" id="Shape" fill="#E0E0E0"></path>
                </g>
                <ellipse id="Oval-4" fill="#CACACA" sketch:type="MSShapeGroup" cx="168.578046" cy="68.135262" rx="9.05612245" ry="9.04811715"></ellipse>
                <path d="M82.4468132,158.628213 C82.2925676,158.512861 81.9730507,158.268965 81.5122767,157.909091 C80.7273886,157.296078 79.8484731,156.591686 78.8997177,155.808728 C76.1894163,153.572058 73.4804829,151.168781 70.9708456,148.70922 C68.3216494,146.112885 66.06095,143.612732 64.3187562,141.303625 C58.6044443,133.729867 54.0266603,123.986504 51.9994344,116.350734 C51.0782738,112.881081 47.518816,110.815119 44.0491629,111.73628 C40.5795099,112.657441 38.5135485,116.216898 39.4347091,119.686551 C41.8790873,128.893571 47.1751589,140.165739 53.9411562,149.133403 C56.1158714,152.015774 58.7944384,154.978055 61.8715542,157.993771 C64.6700103,160.736388 67.6483197,163.378647 70.6252611,165.835361 C71.6670406,166.695087 72.6364791,167.472027 73.5103701,168.154553 C74.0448635,168.572003 74.436252,168.870761 74.6611559,169.038955 C77.5360029,171.188905 81.6094055,170.601259 83.7593554,167.726413 C85.9093053,164.851566 85.3216601,160.778163 82.4468132,158.628213 L82.4468132,158.628213 Z" id="Shape" fill="#CACACA" sketch:type="MSShapeGroup"></path>
                <path d="M52.6346032,119.415939 C49.481627,108.500918 48.6828913,101.057455 48.6828913,92.0918844 L48.6828913,92.0918843 C48.6828913,88.5020335 45.7727422,85.5918843 42.1828913,85.5918843 C38.5930405,85.5918843 35.6828913,88.5020335 35.6828913,92.0918843 L35.6828913,92.0918844 C35.6828913,102.176607 36.6046986,110.766982 40.1452419,123.023689 C41.1414944,126.472531 44.7449553,128.460747 48.1937972,127.464495 C51.6426391,126.468242 53.6308557,122.864781 52.6346032,119.415939 L52.6346032,119.415939 Z" id="Shape" fill="#EAEAEA" sketch:type="MSShapeGroup"></path>
                <path d="M127.263122,172.746141 C118.459464,172.746141 109.861297,171.302865 101.715065,168.508359 C96.5393916,166.732881 86.8386802,161.811712 81.7624546,158.134209 C78.8553229,156.028119 74.7913038,156.677492 72.685214,159.584624 C70.5791242,162.491755 71.228497,166.555774 74.1356287,168.661864 C80.2888891,173.119632 91.1393932,178.624091 97.4968059,180.804955 C106.99621,184.063658 117.01943,185.746141 127.263122,185.746141 C130.852973,185.746141 133.763122,182.835992 133.763122,179.246141 C133.763122,175.65629 130.852973,172.746141 127.263122,172.746141 L127.263122,172.746141 Z" id="Shape" fill="#EAEAEA" sketch:type="MSShapeGroup"></path>
                <path d="M42.7523729,59.5428678 C42.7523729,59.5428678 35.0123827,52.6046354 27.907158,50.1790983 C27.907158,50.1790983 21.6359178,39.3670866 15.0402147,35.8111784 C8.44451156,32.2552702 4.18621078,35.7581999 3.64421859,37.4747526 C3.1022264,39.1913053 1.88323226,43.8104463 8.29363265,46.9947721 C14.704033,50.1790979 12.7299119,50.4354459 12.7299119,50.4354459 C12.7299119,50.4354459 2.11663075,58.3853977 0.991142418,66.8355924 C-0.134345912,75.2857872 5.00164086,80.1302696 10.381035,82.7906706 C15.7604291,85.4510715 24.3942187,83.1451622 27.0817186,77.7520963 C29.7692184,72.3590305 30.8207323,66.5650846 30.8207323,66.5650846 C30.8207323,66.5650846 36.781668,70.8883262 37.6620409,73.0982877 C38.5424137,75.3082493 42.7523729,59.5428678 42.7523729,59.5428678 Z M18.7345506,62.755026 C18.7345506,62.755026 19.0143358,68.6068327 17.4208299,70.1080534 C15.8273241,71.6092741 13.9943163,69.7655241 14.5643846,67.5672819 C15.1344529,65.3690397 18.7345506,62.755026 18.7345506,62.755026 Z" id="Path-117" fill="#CACACA" sketch:type="MSShapeGroup"></path>
            </g>
            <g id="PIG" sketch:type="MSLayerGroup" transform="translate(1143.881343, 305.000000) scale(-1, 1) rotate(-9.000000) translate(-1143.881343, -305.000000) translate(1027.381343, 212.000000)">
                <path d="M181.64314,183.966694 L182.04644,184.139017 L182.469233,184.255601 C190.934548,186.589893 199.308206,181.026333 201.279827,172.280663 L201.420343,171.657366 L201.436803,171.018639 L202.102093,145.203577 L189.106408,144.868661 L168.937375,164.400757 L163.829445,176.355215 L181.64314,183.966694 Z" id="Shape" fill="#CDCDCD" sketch:type="MSShapeGroup"></path>
                <path d="M65.3079343,144.868661 L52.3122492,145.203577 L52.9775388,171.018639 L52.9939997,171.657366 L53.1345155,172.280663 C55.1061361,181.026333 63.4797939,186.589893 71.9451097,184.255601 L72.3679027,184.139017 L72.7712023,183.966694 L90.5848973,176.355215 L85.4769672,164.400757 L65.3079343,144.868661 Z" id="Shape" fill="#CDCDCD" sketch:type="MSShapeGroup"></path>
                <path d="M194.340361,17.209486 C194.280966,12.5745218 193.645606,8.82692038 191.878165,5.76001356 C188.86929,0.538939107 183.18691,-1.17614281 177.073085,1.3317745 L159.421705,12.3946859 L166.378143,23.3768518 L180.34263,35.3752927 L193.323246,36.0849341 L194.340361,17.209486 Z" id="Shape" fill="#CACACA" sketch:type="MSShapeGroup"></path>
                <g id="Shape-+-Shape" transform="translate(34.782128, 0.746141)" sketch:type="MSShapeGroup">
                    <path d="M179.716027,62.8543908 C167.059117,25.9948328 132.28277,0.746140667 92.6828913,0.746140667 C41.8726944,0.746140667 0.682891332,41.9359437 0.682891332,92.7461407 C0.682891332,143.556338 41.8726944,184.746141 92.6828913,184.746141 C130.251075,184.746141 163.613275,162.017803 177.730301,127.88956 L165.71746,122.920491 C153.594187,152.228788 124.945289,171.746141 92.6828913,171.746141 C49.0523961,171.746141 13.6828913,136.376636 13.6828913,92.7461407 C13.6828913,49.1156454 49.0523961,13.7461407 92.6828913,13.7461407 C126.68819,13.7461407 156.553715,35.4294255 167.420711,67.0763815 L179.716027,62.8543908 L179.716027,62.8543908 Z" id="Shape" fill="#CACACA"></path>
                    <path d="M182.106302,117.750131 C189.514261,117.750131 197.421177,109.469377 197.421177,99.2572666 L197.421177,85.3396173 C197.421177,75.1271612 191.13556,66.3778851 180.923197,66.3778851 C169.75129,27.6876998 133.966879,0.746140667 92.7528093,0.746140667 C89.1629584,0.746140667 86.2528093,3.65628979 86.2528093,7.24614067 C86.2528093,10.8359915 89.1629584,13.7461407 92.7528093,13.7461407 C129.659522,13.7461407 159.438089,39.7658207 169.154154,74.178178 L170.687851,80.364088 L178.930002,79.8467493 C181.962101,79.8467493 184.421177,82.3063006 184.421177,85.3396173 L184.421177,99.2572666 C184.421177,102.289436 181.960277,104.750135 178.930002,104.750135 L170.921908,104.253781 C170.921908,104.253781 162.897027,128.605084 162.544431,129.212636 C160.742514,132.317491 161.798754,136.295216 164.903609,138.097133 C167.852378,139.808465 172.16637,138.664132 174.136253,135.885009 C174.240524,135.737903 181.263416,120.596379 182.106302,117.750131 Z" id="Shape" fill="#E0E0E0"></path>
                </g>
                <ellipse id="Oval-4" fill="#CACACA" sketch:type="MSShapeGroup" cx="168.578046" cy="68.135262" rx="9.05612245" ry="9.04811715"></ellipse>
                <path d="M82.4468132,158.628213 C82.2925676,158.512861 81.9730507,158.268965 81.5122767,157.909091 C80.7273886,157.296078 79.8484731,156.591686 78.8997177,155.808728 C76.1894163,153.572058 73.4804829,151.168781 70.9708456,148.70922 C68.3216494,146.112885 66.06095,143.612732 64.3187562,141.303625 C58.6044443,133.729867 54.0266603,123.986504 51.9994344,116.350734 C51.0782738,112.881081 47.518816,110.815119 44.0491629,111.73628 C40.5795099,112.657441 38.5135485,116.216898 39.4347091,119.686551 C41.8790873,128.893571 47.1751589,140.165739 53.9411562,149.133403 C56.1158714,152.015774 58.7944384,154.978055 61.8715542,157.993771 C64.6700103,160.736388 67.6483197,163.378647 70.6252611,165.835361 C71.6670406,166.695087 72.6364791,167.472027 73.5103701,168.154553 C74.0448635,168.572003 74.436252,168.870761 74.6611559,169.038955 C77.5360029,171.188905 81.6094055,170.601259 83.7593554,167.726413 C85.9093053,164.851566 85.3216601,160.778163 82.4468132,158.628213 L82.4468132,158.628213 Z" id="Shape" fill="#CACACA" sketch:type="MSShapeGroup"></path>
                <path d="M52.6346032,119.415939 C49.481627,108.500918 48.6828913,101.057455 48.6828913,92.0918844 L48.6828913,92.0918843 C48.6828913,88.5020335 45.7727422,85.5918843 42.1828913,85.5918843 C38.5930405,85.5918843 35.6828913,88.5020335 35.6828913,92.0918843 L35.6828913,92.0918844 C35.6828913,102.176607 36.6046986,110.766982 40.1452419,123.023689 C41.1414944,126.472531 44.7449553,128.460747 48.1937972,127.464495 C51.6426391,126.468242 53.6308557,122.864781 52.6346032,119.415939 L52.6346032,119.415939 Z" id="Shape" fill="#EAEAEA" sketch:type="MSShapeGroup"></path>
                <path d="M127.263122,172.746141 C118.459464,172.746141 109.861297,171.302865 101.715065,168.508359 C96.5393916,166.732881 86.8386802,161.811712 81.7624546,158.134209 C78.8553229,156.028119 74.7913038,156.677492 72.685214,159.584624 C70.5791242,162.491755 71.228497,166.555774 74.1356287,168.661864 C80.2888891,173.119632 91.1393932,178.624091 97.4968059,180.804955 C106.99621,184.063658 117.01943,185.746141 127.263122,185.746141 C130.852973,185.746141 133.763122,182.835992 133.763122,179.246141 C133.763122,175.65629 130.852973,172.746141 127.263122,172.746141 L127.263122,172.746141 Z" id="Shape" fill="#EAEAEA" sketch:type="MSShapeGroup"></path>
                <path d="M42.7523729,59.5428678 C42.7523729,59.5428678 35.0123827,52.6046354 27.907158,50.1790983 C27.907158,50.1790983 21.6359178,39.3670866 15.0402147,35.8111784 C8.44451156,32.2552702 4.18621078,35.7581999 3.64421859,37.4747526 C3.1022264,39.1913053 1.88323226,43.8104463 8.29363265,46.9947721 C14.704033,50.1790979 12.7299119,50.4354459 12.7299119,50.4354459 C12.7299119,50.4354459 2.11663075,58.3853977 0.991142418,66.8355924 C-0.134345912,75.2857872 5.00164086,80.1302696 10.381035,82.7906706 C15.7604291,85.4510715 24.3942187,83.1451622 27.0817186,77.7520963 C29.7692184,72.3590305 30.8207323,66.5650846 30.8207323,66.5650846 C30.8207323,66.5650846 36.781668,70.8883262 37.6620409,73.0982877 C38.5424137,75.3082493 42.7523729,59.5428678 42.7523729,59.5428678 Z M18.7345506,62.755026 C18.7345506,62.755026 19.0143358,68.6068327 17.4208299,70.1080534 C15.8273241,71.6092741 13.9943163,69.7655241 14.5643846,67.5672819 C15.1344529,65.3690397 18.7345506,62.755026 18.7345506,62.755026 Z" id="Path-117" fill="#CACACA" sketch:type="MSShapeGroup"></path>
            </g>
            <g id="PIG" sketch:type="MSLayerGroup" transform="translate(196.309328, 305.000000) rotate(8.000000) translate(-196.309328, -305.000000) translate(79.809328, 212.000000)">
                <path d="M181.64314,183.966694 L182.04644,184.139017 L182.469233,184.255601 C190.934548,186.589893 199.308206,181.026333 201.279827,172.280663 L201.420343,171.657366 L201.436803,171.018639 L202.102093,145.203577 L189.106408,144.868661 L168.937375,164.400757 L163.829445,176.355215 L181.64314,183.966694 Z" id="Shape" fill="#CDCDCD" sketch:type="MSShapeGroup"></path>
                <path d="M65.3079343,144.868661 L52.3122492,145.203577 L52.9775388,171.018639 L52.9939997,171.657366 L53.1345155,172.280663 C55.1061361,181.026333 63.4797939,186.589893 71.9451097,184.255601 L72.3679027,184.139017 L72.7712023,183.966694 L90.5848973,176.355215 L85.4769672,164.400757 L65.3079343,144.868661 Z" id="Shape" fill="#CDCDCD" sketch:type="MSShapeGroup"></path>
                <path d="M194.340361,17.209486 C194.280966,12.5745218 193.645606,8.82692038 191.878165,5.76001356 C188.86929,0.538939107 183.18691,-1.17614281 177.073085,1.3317745 L159.421705,12.3946859 L166.378143,23.3768518 L180.34263,35.3752927 L193.323246,36.0849341 L194.340361,17.209486 Z" id="Shape" fill="#CACACA" sketch:type="MSShapeGroup"></path>
                <g id="Shape-+-Shape" transform="translate(34.782128, 0.746141)" sketch:type="MSShapeGroup">
                    <path d="M179.716027,62.8543908 C167.059117,25.9948328 132.28277,0.746140667 92.6828913,0.746140667 C41.8726944,0.746140667 0.682891332,41.9359437 0.682891332,92.7461407 C0.682891332,143.556338 41.8726944,184.746141 92.6828913,184.746141 C130.251075,184.746141 163.613275,162.017803 177.730301,127.88956 L165.71746,122.920491 C153.594187,152.228788 124.945289,171.746141 92.6828913,171.746141 C49.0523961,171.746141 13.6828913,136.376636 13.6828913,92.7461407 C13.6828913,49.1156454 49.0523961,13.7461407 92.6828913,13.7461407 C126.68819,13.7461407 156.553715,35.4294255 167.420711,67.0763815 L179.716027,62.8543908 L179.716027,62.8543908 Z" id="Shape" fill="#CACACA"></path>
                    <path d="M182.106302,117.750131 C189.514261,117.750131 197.421177,109.469377 197.421177,99.2572666 L197.421177,85.3396173 C197.421177,75.1271612 191.13556,66.3778851 180.923197,66.3778851 C169.75129,27.6876998 133.966879,0.746140667 92.7528093,0.746140667 C89.1629584,0.746140667 86.2528093,3.65628979 86.2528093,7.24614067 C86.2528093,10.8359915 89.1629584,13.7461407 92.7528093,13.7461407 C129.659522,13.7461407 159.438089,39.7658207 169.154154,74.178178 L170.687851,80.364088 L178.930002,79.8467493 C181.962101,79.8467493 184.421177,82.3063006 184.421177,85.3396173 L184.421177,99.2572666 C184.421177,102.289436 181.960277,104.750135 178.930002,104.750135 L170.921908,104.253781 C170.921908,104.253781 162.897027,128.605084 162.544431,129.212636 C160.742514,132.317491 161.798754,136.295216 164.903609,138.097133 C167.852378,139.808465 172.16637,138.664132 174.136253,135.885009 C174.240524,135.737903 181.263416,120.596379 182.106302,117.750131 Z" id="Shape" fill="#E0E0E0"></path>
                </g>
                <ellipse id="Oval-4" fill="#CACACA" sketch:type="MSShapeGroup" cx="168.578046" cy="68.135262" rx="9.05612245" ry="9.04811715"></ellipse>
                <path d="M82.4468132,158.628213 C82.2925676,158.512861 81.9730507,158.268965 81.5122767,157.909091 C80.7273886,157.296078 79.8484731,156.591686 78.8997177,155.808728 C76.1894163,153.572058 73.4804829,151.168781 70.9708456,148.70922 C68.3216494,146.112885 66.06095,143.612732 64.3187562,141.303625 C58.6044443,133.729867 54.0266603,123.986504 51.9994344,116.350734 C51.0782738,112.881081 47.518816,110.815119 44.0491629,111.73628 C40.5795099,112.657441 38.5135485,116.216898 39.4347091,119.686551 C41.8790873,128.893571 47.1751589,140.165739 53.9411562,149.133403 C56.1158714,152.015774 58.7944384,154.978055 61.8715542,157.993771 C64.6700103,160.736388 67.6483197,163.378647 70.6252611,165.835361 C71.6670406,166.695087 72.6364791,167.472027 73.5103701,168.154553 C74.0448635,168.572003 74.436252,168.870761 74.6611559,169.038955 C77.5360029,171.188905 81.6094055,170.601259 83.7593554,167.726413 C85.9093053,164.851566 85.3216601,160.778163 82.4468132,158.628213 L82.4468132,158.628213 Z" id="Shape" fill="#CACACA" sketch:type="MSShapeGroup"></path>
                <path d="M52.6346032,119.415939 C49.481627,108.500918 48.6828913,101.057455 48.6828913,92.0918844 L48.6828913,92.0918843 C48.6828913,88.5020335 45.7727422,85.5918843 42.1828913,85.5918843 C38.5930405,85.5918843 35.6828913,88.5020335 35.6828913,92.0918843 L35.6828913,92.0918844 C35.6828913,102.176607 36.6046986,110.766982 40.1452419,123.023689 C41.1414944,126.472531 44.7449553,128.460747 48.1937972,127.464495 C51.6426391,126.468242 53.6308557,122.864781 52.6346032,119.415939 L52.6346032,119.415939 Z" id="Shape" fill="#EAEAEA" sketch:type="MSShapeGroup"></path>
                <path d="M127.263122,172.746141 C118.459464,172.746141 109.861297,171.302865 101.715065,168.508359 C96.5393916,166.732881 86.8386802,161.811712 81.7624546,158.134209 C78.8553229,156.028119 74.7913038,156.677492 72.685214,159.584624 C70.5791242,162.491755 71.228497,166.555774 74.1356287,168.661864 C80.2888891,173.119632 91.1393932,178.624091 97.4968059,180.804955 C106.99621,184.063658 117.01943,185.746141 127.263122,185.746141 C130.852973,185.746141 133.763122,182.835992 133.763122,179.246141 C133.763122,175.65629 130.852973,172.746141 127.263122,172.746141 L127.263122,172.746141 Z" id="Shape" fill="#EAEAEA" sketch:type="MSShapeGroup"></path>
                <path d="M42.7523729,59.5428678 C42.7523729,59.5428678 35.0123827,52.6046354 27.907158,50.1790983 C27.907158,50.1790983 21.6359178,39.3670866 15.0402147,35.8111784 C8.44451156,32.2552702 4.18621078,35.7581999 3.64421859,37.4747526 C3.1022264,39.1913053 1.88323226,43.8104463 8.29363265,46.9947721 C14.704033,50.1790979 12.7299119,50.4354459 12.7299119,50.4354459 C12.7299119,50.4354459 2.11663075,58.3853977 0.991142418,66.8355924 C-0.134345912,75.2857872 5.00164086,80.1302696 10.381035,82.7906706 C15.7604291,85.4510715 24.3942187,83.1451622 27.0817186,77.7520963 C29.7692184,72.3590305 30.8207323,66.5650846 30.8207323,66.5650846 C30.8207323,66.5650846 36.781668,70.8883262 37.6620409,73.0982877 C38.5424137,75.3082493 42.7523729,59.5428678 42.7523729,59.5428678 Z M18.7345506,62.755026 C18.7345506,62.755026 19.0143358,68.6068327 17.4208299,70.1080534 C15.8273241,71.6092741 13.9943163,69.7655241 14.5643846,67.5672819 C15.1344529,65.3690397 18.7345506,62.755026 18.7345506,62.755026 Z" id="Path-117" fill="#CACACA" sketch:type="MSShapeGroup"></path>
            </g>
            <g id="Group" sketch:type="MSLayerGroup" transform="translate(392.000000, 122.000000)">
                <ellipse id="Oval-17" fill="#CACACA" sketch:type="MSShapeGroup" cx="417.092917" cy="78.887122" rx="14.3966501" ry="14.468227"></ellipse>
                <ellipse id="Oval-17" fill="#CCCCCC" sketch:type="MSShapeGroup" cx="215.981036" cy="53.5677248" rx="7.19832503" ry="7.23411351"></ellipse>
                <ellipse id="Oval-17" fill="#F2F2F2" sketch:type="MSShapeGroup" cx="590.561644" cy="25.2341135" rx="7.19832503" ry="7.23411351"></ellipse>
                <ellipse id="Oval-17" fill="#CCCCCC" sketch:type="MSShapeGroup" cx="142.956706" cy="26.4397991" rx="7.19832503" ry="7.23411351"></ellipse>
                <ellipse id="Oval-17" fill="#F2F2F2" sketch:type="MSShapeGroup" cx="239.975453" cy="82.5041788" rx="7.19832503" ry="7.23411351"></ellipse>
                <ellipse id="Oval-17" fill="#F2F2F2" sketch:type="MSShapeGroup" cx="478.878541" cy="73.4615369" rx="7.19832503" ry="7.23411351"></ellipse>
                <ellipse id="Oval-17" fill="#F2F2F2" sketch:type="MSShapeGroup" cx="305.960099" cy="11.9715721" rx="5.99860419" ry="6.02842792"></ellipse>
                <ellipse id="Oval-17" fill="#E0E0E0" sketch:type="MSShapeGroup" cx="393.45542" cy="9.91889502" rx="9.24084712" ry="9.28679057"></ellipse>
                <ellipse id="Oval-17" fill="#CCCCCC" sketch:type="MSShapeGroup" cx="287.964287" cy="93.3553491" rx="11.9972084" ry="12.0568558"></ellipse>
                <ellipse id="Oval-17" fill="#F2F2F2" sketch:type="MSShapeGroup" cx="358.306596" cy="103.000834" rx="8.39804587" ry="8.43979909"></ellipse>
                <ellipse id="Oval-17" fill="#CACACA" sketch:type="MSShapeGroup" cx="346.909248" cy="42.1137117" rx="15.5963709" ry="15.6739126"></ellipse>
                <ellipse id="Oval-17" fill="#F2F2F2" sketch:type="MSShapeGroup" cx="524.026713" cy="42.7165545" rx="8.99790629" ry="9.04264189"></ellipse>
                <ellipse id="Oval-17" fill="#F2F2F2" sketch:type="MSShapeGroup" cx="76.4217746" cy="43.9222401" rx="8.99790629" ry="9.04264189"></ellipse>
                <ellipse id="Oval-17" fill="#F2F2F2" sketch:type="MSShapeGroup" cx="535.26542" cy="73.4615369" rx="8.99790629" ry="9.04264189"></ellipse>
                <ellipse id="Oval-17" fill="#CCCCCC" sketch:type="MSShapeGroup" cx="457.883426" cy="42.7165545" rx="8.99790629" ry="9.04264189"></ellipse>
                <ellipse id="Oval-17" fill="#F2F2F2" sketch:type="MSShapeGroup" cx="268.768753" cy="38.4966549" rx="14.3966501" ry="14.468227"></ellipse>
                <ellipse id="Oval-17" fill="#CACACA" sketch:type="MSShapeGroup" cx="15.1356821" cy="18" rx="14.3966501" ry="14.468227"></ellipse>
            </g>
            <g id="Group" sketch:type="MSLayerGroup" transform="translate(756.000000, 305.000000)">
                <path d="M61.5924819,52.9233841 L32.0966141,22.9933614 C30.3042543,21.1746195 27.3791989,21.1555235 25.56332,22.9507093 C23.7474411,24.7458951 23.7283752,27.6755624 25.520735,29.4943043 L55.0166028,59.4243269 C56.8089626,61.2430688 59.734018,61.2621648 61.5498969,59.4669791 C63.3657758,57.6717933 63.3848417,54.742126 61.5924819,52.9233841 L61.5924819,52.9233841 Z" id="Shape" fill="#CACACA" sketch:type="MSShapeGroup"></path>
                <path d="M146.229184,138.407237 L117.44406,108.121283 C115.684854,106.270353 112.760622,106.198245 110.912606,107.960225 C109.06459,109.722205 108.992596,112.651047 110.751802,114.501976 L139.536926,144.787931 C141.296132,146.638861 144.220363,146.710969 146.068379,144.948989 C147.916395,143.187009 147.98839,140.258167 146.229184,138.407237 L146.229184,138.407237 Z" id="Shape" fill="#CACACA" sketch:type="MSShapeGroup"></path>
                <path d="M167.281345,79.3094479 L143.94917,79.3094479 C141.397706,79.3094479 139.329336,81.3810795 139.329336,83.9365665 C139.329336,86.4920536 141.397706,88.5636852 143.94917,88.5636852 L167.281345,88.5636852 C169.83281,88.5636852 171.90118,86.4920536 171.90118,83.9365665 C171.90118,81.3810795 169.83281,79.3094479 167.281345,79.3094479 L167.281345,79.3094479 Z" id="Shape" fill="#CACACA" sketch:type="MSShapeGroup"></path>
                <path d="M90.6433853,162.985232 L90.6433853,142.309448 C90.6433853,139.753961 88.5750149,137.682329 86.0235506,137.682329 C83.4720863,137.682329 81.4037159,139.753961 81.4037159,142.309448 L81.4037159,162.985232 C81.4037159,165.540719 83.4720863,167.612351 86.0235506,167.612351 C88.5750149,167.612351 90.6433853,165.540719 90.6433853,162.985232 L90.6433853,162.985232 Z" id="Shape" fill="#CACACA" sketch:type="MSShapeGroup"></path>
                <path d="M90.6433853,25.5954014 L90.6433853,4.91961739 C90.6433853,2.36413032 88.5750149,0.292498741 86.0235506,0.292498741 C83.4720863,0.292498741 81.4037159,2.36413032 81.4037159,4.91961739 L81.4037159,25.5954014 C81.4037159,28.1508885 83.4720863,30.2225201 86.0235506,30.2225201 C88.5750149,30.2225201 90.6433853,28.1508885 90.6433853,25.5954014 L90.6433853,25.5954014 Z" id="Shape" fill="#CACACA" sketch:type="MSShapeGroup"></path>
                <path d="M27.9755602,79.3094479 L4.64338531,79.3094479 C2.09192105,79.3094479 0.0235506006,81.3810795 0.0235506006,83.9365665 C0.0235506006,86.4920536 2.09192105,88.5636852 4.64338531,88.5636852 L27.9755602,88.5636852 C30.5270245,88.5636852 32.5953949,86.4920536 32.5953949,83.9365665 C32.5953949,81.3810795 30.5270245,79.3094479 27.9755602,79.3094479 L27.9755602,79.3094479 Z" id="Shape" fill="#CACACA" sketch:type="MSShapeGroup"></path>
                <path d="M139.97171,23.6838303 L111.009445,52.6917591 C109.205288,54.4987613 109.205288,57.4284908 111.009445,59.235493 C112.813603,61.0424952 115.738721,61.0424952 117.542878,59.235493 L146.505143,30.2275642 C148.309301,28.420562 148.309301,25.4908325 146.505143,23.6838303 C144.700985,21.8768281 141.775868,21.8768281 139.97171,23.6838303 L139.97171,23.6838303 Z" id="Shape" fill="#CACACA" sketch:type="MSShapeGroup"></path>
                <path d="M55.0774181,108.388232 L25.2261784,137.574673 C23.4004164,139.359775 23.3651766,142.289292 25.1474682,144.117932 C26.9297597,145.946573 29.8546649,145.981868 31.6804269,144.196767 L61.5316666,115.010325 C63.3574286,113.225224 63.3926684,110.295707 61.6103768,108.467066 C59.8280853,106.638425 56.9031801,106.60313 55.0774181,108.388232 L55.0774181,108.388232 Z" id="Shape" fill="#CACACA" sketch:type="MSShapeGroup"></path>
                <ellipse id="Oval-13" fill="#EAEAEA" sketch:type="MSShapeGroup" cx="143.084074" cy="27.1435267" rx="4.78767281" ry="4.79522137"></ellipse>
                <ellipse id="Oval-13" fill="#EAEAEA" sketch:type="MSShapeGroup" cx="143.084074" cy="141.953516" rx="4.78767281" ry="4.79522137"></ellipse>
                <ellipse id="Oval-13" fill="#EAEAEA" sketch:type="MSShapeGroup" cx="28.4533027" cy="25.8879007" rx="4.78767281" ry="4.79522137"></ellipse>
                <ellipse id="Oval-13" fill="#EAEAEA" sketch:type="MSShapeGroup" cx="28.4533027" cy="141.209935" rx="4.78767281" ry="4.79522137"></ellipse>
                <ellipse id="Oval-52" fill="#EAEAEA" sketch:type="MSShapeGroup" cx="85.9955081" cy="84.0317167" rx="11.0165289" ry="11.0338983"></ellipse>
            </g>
        </g>
    </g>
</svg>