<?xml version="1.0" encoding="UTF-8" standalone="no"?>
<svg width="180px" height="150px" viewBox="0 0 180 150" version="1.1" xmlns="http://www.w3.org/2000/svg" xmlns:xlink="http://www.w3.org/1999/xlink" xmlns:sketch="http://www.bohemiancoding.com/sketch/ns">
    <!-- Generator: Sketch 3.4.4 (17249) - http://www.bohemiancoding.com/sketch -->
    <title>footer-title</title>
    <desc>Created with Sketch.</desc>
    <defs>
        <path id="path-1" d="M0,0.124090909 L54.836925,0.124090909 L54.836925,18 L0,18"></path>
        <path id="path-3" d="M0,0.124090909 L54.836925,0.124090909 L54.836925,18 L0,18"></path>
        <path id="path-5" d="M0,0.124090909 L54.836925,0.124090909 L54.836925,18 L0,18"></path>
        <path id="path-7" d="M0,0.059625 L60.1629444,0.059625 L60.1629444,18 L0,18 L0,0.059625 Z"></path>
        <path id="path-9" d="M0,0.059625 L60.1629444,0.059625 L60.1629444,18 L0,18 L0,0.059625 Z"></path>
    </defs>
    <g id="footer-design" stroke="none" stroke-width="1" fill="none" fill-rule="evenodd" sketch:type="MSPage">
        <g id="Desktop" sketch:type="MSArtboardGroup" transform="translate(-769.000000, -663.000000)">
            <g id="Logo" sketch:type="MSLayerGroup" transform="translate(16.000000, 359.000000)">
                <g id="蔡英文-+-LIGHT-UP-TAIWAN-+-點亮台灣-+-蔡英文-+-LIGHT-UP-TAIWAN-+-點亮台灣" transform="translate(753.000000, 304.000000)">
                    <g id="蔡英文-+-LIGHT-UP-TAIWAN-+-點亮台灣" transform="translate(6.000000, 6.000000)">
                        <g id="LIGHT-UP-TAIWAN" transform="translate(0.000000, 60.944162)" fill="#FFFFFF" sketch:type="MSShapeGroup">
                            <path d="M0.440381743,10.2442234 L0.440381743,0.464436548 L2.3519751,0.464436548 L2.3519751,8.54058883 L6.79295851,8.54058883 L6.79295851,10.2442234 L0.440381743,10.2442234" id="Fill-32"></path>
                            <path d="M12.4758465,0.464436548 L14.3874398,0.464436548 L14.3874398,10.2435228 L12.4758465,10.2435228 L12.4758465,0.464436548 Z" id="Fill-33"></path>
                            <path d="M26.8331328,9.21377665 C26.0491411,10.024264 25.1136805,10.3261827 24.0688257,10.3261827 C22.9966224,10.3261827 22.1165602,9.94160406 21.4293402,9.2551066 C20.4391826,8.26598985 20.4665311,7.04360406 20.4665311,5.3539797 C20.4665311,3.66435533 20.4391826,2.44196954 21.4293402,1.4535533 C22.1165602,0.76635533 22.9692739,0.38177665 24.0688257,0.38177665 C26.3380539,0.38177665 27.4930041,1.86545178 27.7538672,3.51374619 L25.8289502,3.51374619 C25.6087593,2.59327919 25.0449585,2.08541117 24.0688257,2.08541117 C23.5463983,2.08541117 23.1200415,2.29136041 22.8451535,2.60728934 C22.474195,3.01918782 22.3781245,3.47241624 22.3781245,5.3539797 C22.3781245,7.23624365 22.474195,7.70278173 22.8451535,8.1146802 C23.1200415,8.43060914 23.5463983,8.62324873 24.0688257,8.62324873 C24.6466515,8.62324873 25.1136805,8.41729949 25.4306432,8.07335025 C25.7462033,7.71679188 25.8703237,7.2768731 25.8703237,6.76900508 L25.8703237,6.39773604 L24.0688257,6.39773604 L24.0688257,4.80478173 L27.7678921,4.80478173 L27.7678921,6.23311675 C27.7678921,7.64744162 27.5203527,8.49925888 26.8331328,9.21377665" id="Fill-34"></path>
                            <path d="M39.0600373,10.2442234 L39.0600373,6.15045685 L35.7466556,6.15045685 L35.7466556,10.2442234 L33.8357635,10.2442234 L33.8357635,0.464436548 L35.7466556,0.464436548 L35.7466556,4.46153299 L39.0600373,4.46153299 L39.0600373,0.464436548 L40.9716307,0.464436548 L40.9716307,10.2442234 L39.0600373,10.2442234" id="Fill-35"></path>
                            <path d="M51.1228506,2.16737056 L51.1228506,10.2442234 L49.2119585,10.2442234 L49.2119585,2.16737056 L46.6545187,2.16737056 L46.6545187,0.464436548 L53.6809917,0.464436548 L53.6809917,2.16737056 L51.1228506,2.16737056" id="Fill-36"></path>
                            <path d="M70.1314938,10.3261827 C68.1245311,10.3261827 66.5291992,8.96649746 66.5291992,6.89229442 L66.5291992,0.464436548 L68.4400913,0.464436548 L68.4400913,6.82364467 C68.4400913,7.95006091 69.0999627,8.62324873 70.1314938,8.62324873 C71.1630249,8.62324873 71.8362199,7.95006091 71.8362199,6.82364467 L71.8362199,0.464436548 L73.7344896,0.464436548 L73.7344896,6.89229442 C73.7344896,8.96649746 72.1391577,10.3261827 70.1314938,10.3261827" id="Fill-37"></path>
                            <path d="M83.789639,6.56305584 L81.9060954,6.56305584 L81.9060954,10.2442234 L79.9945021,10.2442234 L79.9945021,0.464436548 L83.789639,0.464436548 C85.8113278,0.464436548 87.0209751,1.85214213 87.0209751,3.51374619 C87.0209751,5.17535025 85.8113278,6.56305584 83.789639,6.56305584 L83.789639,6.56305584 Z M83.6935685,2.16737056 L81.9060954,2.16737056 L81.9060954,4.84611168 L83.6935685,4.84611168 C84.5596058,4.84611168 85.110083,4.31022335 85.110083,3.51374619 C85.110083,2.71656853 84.5596058,2.16737056 83.6935685,2.16737056 L83.6935685,2.16737056 Z" id="Fill-38"></path>
                            <path d="M103.81649,2.16737056 L103.81649,10.2442234 L101.904896,10.2442234 L101.904896,2.16737056 L99.3474564,2.16737056 L99.3474564,0.464436548 L106.373228,0.464436548 L106.373228,2.16737056 L103.81649,2.16737056" id="Fill-39"></path>
                            <path d="M116.798635,10.2442234 L116.220809,8.51326904 L112.741934,8.51326904 L112.151485,10.2442234 L110.157145,10.2442234 L113.718768,0.464436548 L115.217328,0.464436548 L118.791573,10.2442234 L116.798635,10.2442234 L116.798635,10.2442234 Z M114.516083,3.3491269 L113.278386,6.90630457 L115.712407,6.90630457 L114.516083,3.3491269 L114.516083,3.3491269 Z" id="Fill-40"></path>
                            <path d="M124.130851,0.464436548 L126.042444,0.464436548 L126.042444,10.2435228 L124.130851,10.2435228 L124.130851,0.464436548 Z" id="Fill-41"></path>
                            <path d="M140.798739,10.2442234 L139.204108,10.2442234 L137.40261,4.31022335 L135.601112,10.2442234 L134.006481,10.2442234 L131.393643,0.464436548 L133.387983,0.464436548 L134.899867,6.63170558 L136.688041,0.464436548 L138.11788,0.464436548 L139.905353,6.63170558 L141.43056,0.464436548 L143.4249,0.464436548 L140.798739,10.2442234" id="Fill-42"></path>
                            <path d="M154.125195,10.2442234 L153.548071,8.51326904 L150.069195,8.51326904 L149.478046,10.2442234 L147.483705,10.2442234 L151.046029,0.464436548 L152.543888,0.464436548 L156.118834,10.2442234 L154.125195,10.2442234 L154.125195,10.2442234 Z M151.842643,3.3491269 L150.605647,6.90630457 L153.038967,6.90630457 L151.842643,3.3491269 L151.842643,3.3491269 Z" id="Fill-43"></path>
                            <path d="M167.246888,10.2442234 L163.369705,4.2415736 L163.369705,10.2442234 L161.458112,10.2442234 L161.458112,0.464436548 L163.163539,0.464436548 L167.040722,6.45307614 L167.040722,0.464436548 L168.952315,0.464436548 L168.952315,10.2442234 L167.246888,10.2442234" id="Fill-44"></path>
                        </g>
                        <g id="點亮台灣" transform="translate(129.029046, 0.000000)" fill="#FFFFFF" sketch:type="MSShapeGroup">
                            <path d="M0.264369295,13.112802 L0.379373444,14.0038477 L9.74169295,12.7975736 L9.6266888,11.9065279 L5.75792116,12.4052893 L5.75792116,10.7450863 L9.52290456,10.7450863 L9.52290456,9.84633503 L5.75792116,9.84633503 L5.75792116,8.0502335 L9.35390456,8.0502335 L9.35390456,1.70713706 L1.26224066,1.70713706 L1.26224066,8.0502335 L4.85892531,8.0502335 L4.85892531,9.84633503 L1.09394191,9.84633503 L1.09394191,10.7450863 L4.85892531,10.7450863 L4.85892531,12.5208731 L0.264369295,13.112802 L0.264369295,13.112802 Z M5.75792116,2.60518782 L8.45490871,2.60518782 L8.45490871,7.15218274 L5.75792116,7.15218274 L5.75792116,2.60518782 Z M2.16123651,2.60518782 L4.85822407,2.60518782 L4.85822407,7.15218274 L2.16123651,7.15218274 L2.16123651,2.60518782 Z" id="Fill-1"></path>
                            <path d="M3.47466805,3.60691371 L2.63597925,3.93124873 L3.49851037,6.15115736 L4.33649793,5.82682234 L3.47466805,3.60691371" id="Fill-2"></path>
                            <path d="M7.1183361,6.15115736 L7.98016598,3.93124873 L7.14147718,3.60691371 L6.2796473,5.82682234 L7.1183361,6.15115736" id="Fill-3"></path>
                            <path d="M0.0546970954,18.8807817 L0.830273859,19.3347107 C1.97190041,17.389401 2.16754772,15.2787716 2.16895021,15.2577563 L1.27275934,15.1870051 C1.27135685,15.2052183 1.07781328,17.1365178 0.0546970954,18.8807817" id="Fill-4"></path>
                            <path d="M3.56021992,15.4041624 C3.8119668,16.2608832 4.00200415,17.521797 4.08124481,18.8625685 L4.97883817,18.8093299 C4.89539004,17.4041117 4.69273029,16.0703452 4.42345228,15.1512792 L3.56021992,15.4041624" id="Fill-5"></path>
                            <path d="M5.91570124,15.1400711 C6.20882158,16.0171066 6.46828216,17.3186497 6.59310373,18.5368325 L7.48719087,18.4457665 C7.3546556,17.1470254 7.08607884,15.8048528 6.76841494,14.855665 L5.91570124,15.1400711" id="Fill-6"></path>
                            <path d="M8.3420083,14.7589949 C8.60217012,15.504335 8.9366639,16.5410863 9.21155187,17.9589137 L10.0944191,17.7879898 C9.8083112,16.3134213 9.46119502,15.2367411 9.19121577,14.4626802 L8.3420083,14.7589949" id="Fill-7"></path>
                            <path d="M17.3936763,5.66500508 L17.3936763,4.76625381 L14.0220913,4.76625381 L14.0220913,1.65109645 L13.1230954,1.65109645 L13.1230954,10.7163655 L11.0810705,10.7163655 L11.0810705,17.5372081 L16.9722282,17.5372081 L16.9722282,10.7163655 L14.0220913,10.7163655 L14.0220913,5.66500508 L17.3936763,5.66500508 L17.3936763,5.66500508 Z M11.9800664,11.6151168 L16.0732324,11.6151168 L16.0732324,16.6391574 L11.9800664,16.6391574 L11.9800664,11.6151168 Z" id="Fill-8"></path>
                            <path d="M38.0081701,2.70886294 L31.2923485,2.70886294 L31.2923485,0.640964467 L30.3926515,0.640964467 L30.3926515,2.70886294 L23.6768299,2.70886294 L23.6768299,3.60691371 L38.0081701,3.60691371 L38.0081701,2.70886294" id="Fill-9"></path>
                            <path d="M27.0203651,8.69610152 L34.7571992,8.69610152 L34.7571992,4.89794924 L27.0203651,4.89794924 L27.0203651,8.69610152 Z M27.919361,5.796 L33.8575021,5.796 L33.8575021,7.79805076 L27.919361,7.79805076 L27.919361,5.796 Z" id="Fill-10"></path>
                            <path d="M23.9804689,11.0491066 L37.9050871,11.0491066 L37.9050871,12.8802335 L38.804083,12.8802335 L38.804083,10.1510558 L23.081473,10.1510558 L23.081473,12.8802335 L23.9804689,12.8802335 L23.9804689,11.0491066" id="Fill-11"></path>
                            <path d="M22.5015436,18.3154721 L22.7006971,19.1918071 C28.3877925,17.8993706 29.0862324,13.9078782 29.1226971,12.2511777 L28.2237012,12.2315635 C28.1837303,14.0269645 27.3885187,17.2051675 22.5015436,18.3154721" id="Fill-12"></path>
                            <path d="M38.6631328,16.0255127 L38.2276598,17.200264 C38.1666515,17.3613807 38.0109751,17.4699594 37.8384689,17.4699594 L33.8126224,17.4699594 C33.5412407,17.4699594 33.3203485,17.248599 33.3203485,16.976802 L33.3203485,12.186731 L32.4213527,12.186731 L32.4213527,16.976802 C32.4213527,17.7438579 33.0454606,18.3680102 33.8126224,18.3680102 L37.8384689,18.3680102 C38.3826349,18.3680102 38.8770124,18.0261624 39.0698548,17.5147919 L39.506029,16.3372386 L38.6631328,16.0255127" id="Fill-13"></path>
                            <path d="M15.6658091,37.4351269 C14.2871618,35.3118883 12.6518589,33.1942538 11.867166,32.3732589 L11.2164108,32.9932081 C11.5565145,33.349066 12.0691245,33.9697157 12.6483527,34.7248629 L3.75516598,35.8456751 L7.18214938,29.3750863 L6.38693776,28.9554822 L2.66543154,35.9836751 L0.172506224,36.2975025 L0.284705394,37.1885482 L13.2689544,35.5514619 C13.8103154,36.2890964 14.3790249,37.1030863 14.9112697,37.9233807 L15.6658091,37.4351269" id="Fill-14"></path>
                            <path d="M2.70119502,47.380934 L3.60019087,47.380934 L3.60019087,46.1648528 L12.1224191,46.1648528 L12.1224191,47.380934 L13.0221162,47.380934 L13.0221162,40.0459188 L2.70119502,40.0459188 L2.70119502,47.380934 L2.70119502,47.380934 Z M3.60019087,40.9439695 L12.1224191,40.9439695 L12.1224191,45.2661015 L3.60019087,45.2661015 L3.60019087,40.9439695 Z" id="Fill-15"></path>
                            <path d="M22.6396888,29.9845279 L24.9502905,32.3298274 L25.5828133,31.7084772 L23.2722116,29.3624772 L22.6396888,29.9845279" id="Fill-16"></path>
                            <path d="M24.9355643,36.3815635 L22.6249627,34.0355635 L21.9924398,34.6576142 L24.3037427,37.0036142 L24.9355643,36.3815635" id="Fill-17"></path>
                            <path d="M24.1263278,40.2133401 C23.7721992,41.582132 23.1796473,43.8734924 21.8760332,47.2261218 L22.7035021,47.5469543 C24.0253485,44.1466904 24.6501577,41.7320406 24.9860539,40.4347005 C25.0603859,40.1474924 25.1220954,39.9079188 25.1760913,39.7166802 L24.3219751,39.4764061 C24.2665768,39.6725482 24.2027635,39.9177259 24.1263278,40.2133401" id="Fill-18"></path>
                            <path d="M25.7553195,39.1513706 L26.4053734,39.2942741 C26.6816639,38.041066 26.8695975,36.7717462 26.8717012,36.7591371 L26.2132324,36.662467 C26.2111286,36.6750761 26.0267012,37.9205787 25.7553195,39.1513706" id="Fill-19"></path>
                            <path d="M27.7419461,36.8123756 L27.7650871,36.9980102 C27.813473,37.3699797 27.9144523,38.1440406 27.9474108,39.0736142 L28.6135934,39.0490964 C28.5778299,38.089401 28.4747469,37.2943249 28.4256598,36.9118477 L28.4032199,36.7381218 L27.7419461,36.8123756" id="Fill-20"></path>
                            <path d="M29.2762697,36.6932893 C29.3982863,36.9917056 29.7720498,38.2890457 29.8491867,38.9608325 L30.5111618,38.8844772 C30.4242075,38.134934 30.0322116,36.7829543 29.8926639,36.4418071 L29.2762697,36.6932893" id="Fill-21"></path>
                            <path d="M35.4374066,36.6680711 C35.1877635,38.1118173 35.0033361,38.735269 34.8925394,39.0035635 L35.5075311,39.2571472 C35.6898548,38.8151269 35.8812946,38.0053401 36.0930705,36.7815533 L36.1099004,36.6883858 L35.4563402,36.5573909 L35.4374066,36.6680711" id="Fill-22"></path>
                            <path d="M37.1694813,39.004264 L37.8349627,38.9797462 C37.8146266,38.4438579 37.7199585,37.6382741 37.5530622,36.5847107 L36.8959959,36.6883858 C37.0586846,37.7160305 37.151249,38.4949949 37.1694813,39.004264" id="Fill-23"></path>
                            <path d="M39.107722,36.3927716 L38.4759004,36.6036244 C38.6245643,37.0470457 38.872805,37.7895838 39.133668,38.914599 L39.7816183,38.7646904 C39.5137427,37.6088528 39.2598921,36.847401 39.107722,36.3927716" id="Fill-24"></path>
                            <path d="M26.2868631,36.0467208 L29.5792075,35.3146904 L29.8765353,36.0425178 L30.4929295,35.7910355 L29.6612531,33.7588629 L29.0448589,34.0103452 L29.3232531,34.6905381 L27.2531784,35.1507716 C28.8548216,33.2467919 30.0244979,31.2601523 30.079195,31.1669848 L29.5055768,30.8307411 C29.4992656,30.8412487 29.2447137,31.2720609 28.8225643,31.9123249 L27.03439,32.2765888 C27.8120705,30.7494822 28.5203278,29.2006599 28.5280415,29.1831472 L27.922166,28.9078477 C27.913751,28.9260609 27.0561286,30.8027208 26.1971037,32.4524162 L26.2055187,32.4566193 L26.3359502,33.0975838 L28.2875145,32.7003959 C27.7124938,33.5220914 26.974083,34.5007005 26.1627427,35.3875431 L26.1676515,35.3924467 L26.1424066,35.3980508 L26.2868631,36.0467208" id="Fill-25"></path>
                            <path d="M35.4942075,36.0467208 L38.7865519,35.3146904 L39.0845809,36.0425178 L39.7009751,35.7910355 L38.8692988,33.7588629 L38.2529046,34.0103452 L38.5312988,34.6905381 L36.4605228,35.1507716 C38.062166,33.2467919 39.2325436,31.2601523 39.2872407,31.1669848 L38.7129212,30.8307411 C38.70661,30.8412487 38.4527593,31.2720609 38.0299087,31.9123249 L36.2417344,32.2765888 C37.0194149,30.7494822 37.7276722,29.2006599 37.7353859,29.1831472 L37.1302116,28.9078477 C37.1210954,28.9260609 36.2641743,30.8027208 35.4044481,32.4524162 L35.4128631,32.4566193 L35.5439959,33.0975838 L37.4955602,32.7003959 C36.9205394,33.5220914 36.1821286,34.5007005 35.3700871,35.3875431 L35.3749959,35.3924467 L35.3504523,35.3980508 L35.4942075,36.0467208" id="Fill-26"></path>
                            <path d="M35.1590124,30.542132 L33.1478423,30.542132 L33.1478423,28.8518071 L32.482361,28.8518071 L32.482361,30.542132 L30.4992407,30.542132 L30.4992407,31.2069137 L35.1590124,31.2069137 L35.1590124,30.542132" id="Fill-27"></path>
                            <path d="M31.1787469,32.1483959 L34.4654813,32.1483959 L34.4654813,32.8131777 L31.1787469,32.8131777 L31.1787469,32.1483959 Z" id="Fill-28"></path>
                            <path d="M31.1787469,33.7140305 L34.4654813,33.7140305 L34.4654813,34.3788122 L31.1787469,34.3788122 L31.1787469,33.7140305 Z" id="Fill-29"></path>
                            <path d="M31.2902448,38.728264 L34.3687095,38.728264 L34.3687095,35.7083756 L31.2902448,35.7083756 L31.2902448,38.728264 Z M31.9557261,36.3738579 L33.7032282,36.3738579 L33.7032282,38.0641827 L31.9557261,38.0641827 L31.9557261,36.3738579 Z" id="Fill-30"></path>
                            <path d="M38.3251328,43.9484467 L28.1753154,43.9484467 L28.4495021,42.7856041 C28.460722,42.7393706 28.5020954,42.7071472 28.5490788,42.7071472 L37.9913402,42.7071472 L37.9913402,39.8616853 L27.1017095,39.8616853 L27.1017095,40.6154315 L37.2360996,40.6154315 L37.2360996,41.953401 L27.9523195,41.953401 C27.9046349,41.953401 27.8639627,41.9863249 27.8527427,42.0325584 L27.2475685,44.5922132 C27.2342448,44.6482538 27.2770207,44.7014924 27.3338216,44.7014924 L37.8419751,44.7014924 L37.3581162,46.7259594 C37.3286639,46.7490761 37.309029,46.7644873 37.2788755,46.7883046 L33.6892033,46.7883046 L33.6892033,47.5413503 L37.2788755,47.5413503 C37.6659627,47.5413503 38.0025602,47.2765584 38.0923195,46.9003858 L38.666639,44.4997462 C38.6995975,44.3659492 38.7185311,44.209736 38.6336805,44.1018579 C38.6336805,44.1018579 38.563556,43.9484467 38.3251328,43.9484467" id="Fill-31"></path>
                        </g>
                        <g id="英仁" transform="translate(36.000000, 119.000000)">
                            <g id="Page-1-Copy-10">
                                <g id="Page-1">
                                    <path d="M19.729765,3.83882727 L24.298065,3.83882727 L24.298065,5.46700909 C24.298065,5.51964545 24.341515,5.56246364 24.394315,5.56246364 L25.38844,5.56246364 C25.441515,5.56246364 25.48469,5.51964545 25.48469,5.46700909 L25.48469,3.83882727 L29.82584,3.83882727 L29.82584,5.46700909 C29.82584,5.51964545 29.869015,5.56246364 29.92209,5.56246364 L30.916215,5.56246364 C30.96929,5.56246364 31.012465,5.51964545 31.012465,5.46700909 L31.012465,3.83882727 L35.581315,3.83882727 C35.63439,3.83882727 35.677565,3.79600909 35.677565,3.74337273 L35.677565,2.75855455 C35.677565,2.70591818 35.63439,2.6631 35.581315,2.6631 L31.012465,2.6631 L31.012465,1.03491818 C31.012465,0.982281818 30.96929,0.939463636 30.916215,0.939463636 L29.92209,0.939463636 C29.869015,0.939463636 29.82584,0.982281818 29.82584,1.03491818 L29.82584,2.6631 L25.48469,2.6631 L25.48469,1.03491818 C25.48469,0.982281818 25.441515,0.939463636 25.38844,0.939463636 L24.394315,0.939463636 C24.341515,0.939463636 24.298065,0.982281818 24.298065,1.03491818 L24.298065,2.6631 L19.729765,2.6631 C19.67669,2.6631 19.633515,2.70591818 19.633515,2.75855455 L19.633515,3.74337273 C19.633515,3.79600909 19.67669,3.83882727 19.729765,3.83882727" id="Fill-1" fill="#FFFFFF" sketch:type="MSShapeGroup"></path>
                                    <path d="M31.3897375,11.1506727 L28.2555625,11.1506727 L28.2558375,11.1304909 L28.2676625,8.51203636 L31.2228125,8.51203636 C31.3149375,8.51203636 31.3897375,8.58621818 31.3897375,8.67758182 L31.3897375,11.1506727 Z M27.0359375,8.53221818 L27.0323625,11.1506727 L23.8990125,11.1506727 L23.8990125,8.67758182 C23.8990125,8.58621818 23.9738125,8.51203636 24.0656625,8.51203636 L27.0362125,8.51203636 L27.0359375,8.53221818 Z M35.5812875,11.1506727 L32.6313625,11.1506727 L32.6313625,7.4814 C32.6313625,7.37121818 32.5408875,7.28176364 32.4297875,7.28176364 L28.2731625,7.28176364 L28.2734375,7.26130909 L28.2814125,5.77221818 C28.2814125,5.69449091 28.2181625,5.63094545 28.1397875,5.63067273 L27.1822375,5.62958182 L27.1819625,5.62958182 C27.1442875,5.62958182 27.1088125,5.64430909 27.0821375,5.67049091 C27.0551875,5.69721818 27.0403375,5.7324 27.0403375,5.77003636 L27.0378625,7.28176364 L22.8589625,7.28176364 C22.7478625,7.28176364 22.6573875,7.37121818 22.6573875,7.4814 L22.6573875,11.1506727 L19.7294625,11.1506727 C19.6612625,11.1506727 19.6059875,11.2054909 19.6059875,11.2731273 L19.6059875,12.2582182 C19.6059875,12.3258545 19.6612625,12.3809455 19.7294625,12.3809455 L26.6575375,12.3809455 L26.6426875,12.4104 C25.9224625,13.8296727 24.2331375,15.7125818 20.2758875,16.6234909 C20.2085125,16.6387636 20.1656125,16.7047636 20.1801875,16.7702182 L20.3960625,17.7304909 C20.4032125,17.7626727 20.4230125,17.7902182 20.4518875,17.8082182 C20.4807625,17.8262182 20.5151375,17.8316727 20.5489625,17.8243091 C24.9173375,16.8206727 26.8514125,14.6751273 27.7047375,13.0518545 L27.7234375,13.0161273 L27.7413125,13.0524 C28.3705125,14.3265818 30.0911875,16.6054909 34.5475625,17.5529455 C34.5800125,17.5589455 34.6143875,17.5537636 34.6429875,17.5349455 C34.6715875,17.5166727 34.6908375,17.4888545 34.6974375,17.4564 L34.8968125,16.4925818 C34.9100125,16.4271273 34.8665625,16.3624909 34.7997375,16.3483091 C30.6087375,15.4543091 29.2114625,13.2962182 28.8052875,12.4095818 L28.7918125,12.3809455 L35.5812875,12.3809455 C35.6494875,12.3809455 35.7050375,12.3258545 35.7050375,12.2582182 L35.7050375,11.2731273 C35.7050375,11.2054909 35.6494875,11.1506727 35.5812875,11.1506727 L35.5812875,11.1506727 Z" id="Fill-3" fill="#FFFFFF" sketch:type="MSShapeGroup"></path>
                                    <path d="M11.0314325,2.13384545 L11.0314325,0.467209091 L9.8706575,0.467209091 L9.8706575,2.13384545 L6.3088575,2.13384545 L6.3088575,0.467209091 L5.1480825,0.467209091 L5.1480825,2.13384545 L0.0399575,2.13384545 L0.0399575,3.28502727 L5.1480825,3.28502727 L5.1480825,4.62057273 L6.3088575,4.62057273 L6.3088575,3.28502727 L9.8706575,3.28502727 L9.8706575,4.62057273 L11.0314325,4.62057273 L11.0314325,3.28502727 L16.1395575,3.28502727 L16.1395575,2.13384545 L11.0314325,2.13384545 Z" id="Fill-5" fill="#FFFFFF" sketch:type="MSShapeGroup"></path>
                                    <g id="Group-9">
                                        <mask id="mask-2" sketch:name="Clip 8" fill="white">
                                            <use xlink:href="#path-1"></use>
                                        </mask>
                                        <g id="Clip-8"></g>
                                        <path d="M7.814455,6.38607273 L8.05178,5.75552727 C8.05233,5.75443636 8.07983,5.68516364 8.051505,5.64343636 C8.03638,5.62107273 8.00558,5.60934545 7.96103,5.60934545 L3.793955,5.60934545 L3.81073,5.57934545 C3.98288,5.27089091 4.12643,4.97225455 4.23753,4.69216364 C4.25348,4.65125455 4.25513,4.6188 4.24193,4.59589091 C4.225705,4.56752727 4.19133,4.56125455 4.191055,4.56125455 L3.23873,4.27543636 C3.22058,4.27870909 3.14798,4.29507273 3.127905,4.34607273 C2.960705,4.7658 2.25918,6.27425455 0.24343,8.05134545 C0.21868,8.07289091 0.20603,8.09525455 0.20548,8.11761818 C0.20493,8.14843636 0.22693,8.17025455 0.227205,8.17052727 L0.88748,8.92489091 C0.888305,8.92570909 0.90673,8.94834545 0.93533,8.95052727 C0.95513,8.95216364 0.97823,8.94316364 1.001055,8.92352727 C1.807355,8.22207273 2.506405,7.47589091 3.07813,6.70516364 L3.08418,6.69698182 L6.139705,6.69698182 C6.19553,6.69698182 6.24558,6.72534545 6.27363,6.7728 C6.301405,6.81998182 6.30168,6.87670909 6.274455,6.92416364 C5.95683,7.48325455 5.564405,8.06007273 5.13953,8.59243636 L5.125505,8.61016364 L5.109005,8.59407273 L4.119555,7.60243636 L3.29483,8.41243636 L4.361005,9.48098182 L4.347255,9.49516364 C4.131105,9.72125455 3.905055,9.94107273 3.675705,10.1486182 L3.660855,10.1617091 L3.647105,10.1480727 L2.57598,9.07461818 L1.75098,9.88461818 L2.763255,10.8986182 L2.744555,10.9125273 C1.90498,11.5384364 0.996105,12.0530727 0.043505,12.4425273 C0.00803,12.4569818 -0.009295,12.4968 0.005005,12.5308909 L0.38533,13.4649818 C0.39303,13.4838 0.40788,13.4985273 0.42713,13.5064364 C0.44693,13.5148909 0.468105,13.5148909 0.48653,13.5069818 C5.915305,11.2875273 7.79603,6.43489091 7.814455,6.38607273" id="Fill-7" fill="#FFFFFF" sketch:type="MSShapeGroup" mask="url(#mask-2)"></path>
                                    </g>
                                    <path d="M11.835505,9.05558182 C11.831105,9.05585455 11.82698,9.05612727 11.82258,9.05612727 C11.78243,9.05612727 11.74503,9.0384 11.720005,9.00785455 C11.209605,8.37021818 10.777305,7.67312727 10.435755,6.9354 C10.41788,6.89749091 10.420905,6.85549091 10.44373,6.82003636 C10.467655,6.78294545 10.50918,6.76085455 10.55483,6.76085455 L12.90443,6.76085455 C12.94953,6.76085455 12.99023,6.78349091 13.013605,6.8214 C13.036705,6.85958182 13.03808,6.90567273 13.017455,6.94521818 L11.93698,8.98903636 C11.91718,9.02667273 11.87923,9.05149091 11.835505,9.05558182 M12.766105,9.90049091 L14.862155,5.93394545 C14.899005,5.86467273 14.896255,5.7834 14.855555,5.71658182 C14.81458,5.64949091 14.743355,5.6094 14.664155,5.6094 L8.837455,5.6094 C8.80418,5.6094 8.780805,5.61867273 8.767605,5.63694545 C8.74313,5.67103636 8.75688,5.73430909 8.764305,5.75558182 L8.96258,6.3624 C9.336855,7.50785455 10.915905,11.3786727 15.528205,13.1576727 L15.94703,12.0853091 C14.504105,11.6244 13.06118,10.3063091 12.785355,10.0455818 C12.74603,10.0082182 12.73888,9.95285455 12.766105,9.90049091" id="Fill-10" fill="#FFFFFF" sketch:type="MSShapeGroup"></path>
                                    <path d="M6.16715,9.97120909 L6.16715,10.9718455 C6.16715,11.0133 6.20125,11.0471182 6.24305,11.0471182 L10.071325,11.0471182 C10.113125,11.0471182 10.147225,11.0133 10.147225,10.9718455 L10.147225,9.97120909 C10.147225,9.92975455 10.113125,9.89593636 10.071325,9.89593636 L6.24305,9.89593636 C6.20125,9.89593636 6.16715,9.92975455 6.16715,9.97120909" id="Fill-12" fill="#FFFFFF" sketch:type="MSShapeGroup"></path>
                                    <g id="Group-16">
                                        <mask id="mask-4" sketch:name="Clip 15" fill="white">
                                            <use xlink:href="#path-3"></use>
                                        </mask>
                                        <g id="Clip-15"></g>
                                        <path d="M12.381325,13.5500182 L12.381325,12.5493818 C12.381325,12.5079273 12.347225,12.4741091 12.305425,12.4741091 L4.1283,12.4741091 C4.0865,12.4741091 4.0524,12.5079273 4.0524,12.5493818 L4.0524,13.5500182 C4.0524,13.5914727 4.0865,13.6252909 4.1283,13.6252909 L7.65325,13.6252909 L7.65325,16.6722 C7.65325,16.7698364 7.5735,16.8489273 7.47505,16.8489273 L6.654175,16.8489273 C6.57855,16.8489273 6.51695,16.9100182 6.51695,16.9850182 L6.51695,17.8637455 C6.51695,17.9390182 6.57855,18.0001091 6.654175,18.0001091 L8.302525,18.0001091 C8.5844,18.0001091 8.814025,17.7723818 8.814025,17.4925636 L8.814025,13.6252909 L12.305425,13.6252909 C12.347225,13.6252909 12.381325,13.5914727 12.381325,13.5500182" id="Fill-14" fill="#FFFFFF" sketch:type="MSShapeGroup" mask="url(#mask-4)"></path>
                                    </g>
                                    <path d="M11.408265,14.6939455 C11.392315,14.6838545 11.374165,14.6786727 11.35574,14.6786727 C11.34859,14.6786727 11.341715,14.6794909 11.334565,14.6811273 C11.30899,14.6865818 11.28699,14.7018545 11.272965,14.7236727 L10.754315,15.5309455 C10.72544,15.5759455 10.738915,15.6362182 10.78429,15.6651273 L14.339215,17.9118545 C14.384315,17.9396727 14.44509,17.9265818 14.474515,17.8818545 L14.993165,17.0745818 C15.02204,17.0293091 15.008565,16.9693091 14.96319,16.9404 L11.408265,14.6939455 Z" id="Fill-17" fill="#FFFFFF" sketch:type="MSShapeGroup"></path>
                                    <path d="M4.5978625,14.5102636 C4.5832875,14.4887182 4.5612875,14.4739909 4.5357125,14.4690818 C4.5291125,14.4677182 4.5227875,14.4671727 4.5161875,14.4671727 C4.4969375,14.4671727 4.4782375,14.4726273 4.4620125,14.4832636 L0.8229375,16.8911727 C0.8009375,16.9056273 0.7863625,16.9277182 0.7811375,16.9530818 C0.7759125,16.9784455 0.7811375,17.0043545 0.7957125,17.0259 L1.3311375,17.8219909 C1.3457125,17.8438091 1.3677125,17.8582636 1.3935625,17.8634455 C1.4191375,17.8680818 1.4455375,17.8634455 1.4669875,17.8489909 L5.1060625,15.4410818 C5.1277875,15.4266273 5.1426375,15.4048091 5.1478625,15.3791727 C5.1528125,15.3538091 5.1478625,15.3279 5.1332875,15.3066273 L4.5978625,14.5102636 Z" id="Fill-19" fill="#FFFFFF" sketch:type="MSShapeGroup"></path>
                                    <path d="M54.72203,3.74389091 L39.622605,3.74389091 C39.55963,3.74389091 39.508205,3.79489091 39.508205,3.85761818 L39.508205,4.87134545 C39.508205,4.93407273 39.55963,4.98507273 39.622605,4.98507273 L54.72203,4.98507273 C54.78528,4.98507273 54.836705,4.93407273 54.836705,4.87134545 L54.836705,3.85761818 C54.836705,3.79489091 54.78528,3.74389091 54.72203,3.74389091" id="Fill-21" fill="#FFFFFF" sketch:type="MSShapeGroup"></path>
                                    <g id="Group-25">
                                        <mask id="mask-6" sketch:name="Clip 24" fill="white">
                                            <use xlink:href="#path-5"></use>
                                        </mask>
                                        <g id="Clip-24"></g>
                                        <path d="M46.6615875,2.37474545 L47.6829375,2.37474545 C47.7536125,2.37474545 47.8113625,2.31747273 47.8113625,2.24765455 L47.8113625,0.251290909 C47.8113625,0.180927273 47.7536125,0.123927273 47.6829375,0.123927273 L46.6615875,0.123927273 C46.5909125,0.123927273 46.5331625,0.180927273 46.5331625,0.251290909 L46.5331625,2.24765455 C46.5331625,2.31747273 46.5909125,2.37474545 46.6615875,2.37474545" id="Fill-23" fill="#FFFFFF" sketch:type="MSShapeGroup" mask="url(#mask-6)"></path>
                                    </g>
                                    <path d="M54.585245,16.3864909 C52.125095,15.3277636 49.93472,13.8771273 48.07517,12.0741273 L48.061145,12.0604909 L48.074345,12.0460364 C49.30442,10.7047636 50.39452,9.1884 51.314395,7.53867273 C51.33117,7.50867273 51.334745,7.47349091 51.32512,7.44021818 C51.31522,7.40721818 51.29322,7.37967273 51.26297,7.36358182 L50.36592,6.87867273 C50.30487,6.84567273 50.22787,6.86830909 50.194045,6.92912727 C49.339895,8.45967273 48.32872,9.87130909 47.187745,11.1253091 L47.17262,11.1419455 L47.157495,11.1253091 C46.01652,9.87158182 45.00507,8.45994545 44.15092,6.92912727 C44.12782,6.88712727 44.084095,6.8634 44.038995,6.8634 C44.018645,6.8634 43.99802,6.86830909 43.979045,6.87867273 L43.08227,7.36358182 C43.051745,7.37967273 43.029745,7.40721818 43.019845,7.44021818 C43.01022,7.47349091 43.01407,7.50867273 43.030845,7.53894545 C43.950445,9.1884 45.040545,10.7047636 46.270895,12.0460364 L46.28382,12.0604909 L46.27007,12.0741273 C44.410245,13.8771273 42.21987,15.3280364 39.759445,16.3864909 C39.695645,16.4140364 39.66567,16.4879455 39.69262,16.5512182 L40.093295,17.4836727 C40.107045,17.5153091 40.13207,17.5398545 40.16452,17.5524 C40.19697,17.5652182 40.232445,17.5649455 40.264345,17.5513091 C42.87107,16.4298545 45.19042,14.8944 47.15832,12.9874909 L47.17262,12.9735818 L47.18692,12.9874909 C49.154545,14.8944 51.473895,16.4298545 54.08062,17.5513091 C54.112245,17.5649455 54.147445,17.5652182 54.18017,17.5526727 C54.21262,17.5398545 54.23792,17.5153091 54.25167,17.4836727 L54.652345,16.5512182 C54.67957,16.4879455 54.649595,16.4140364 54.585245,16.3864909" id="Fill-26" fill="#FFFFFF" sketch:type="MSShapeGroup"></path>
                                </g>
                            </g>
                            <path d="M62.185,8.475 L63.94,8.475 L61.96,12.57 L60.97,12.57 L62.185,8.475 Z" id="，" fill="#FFFFFF" sketch:type="MSShapeGroup"></path>
                            <g id="Page-1" transform="translate(73.000000, 0.000000)">
                                <path d="M38.4372296,16.61625 C33.8339889,16.729875 31.503563,16.756875 29.9932481,16.531875 C29.0714704,16.3935 28.3598037,16.151625 27.5747111,15.832125 C26.7873593,15.510375 25.9853222,14.904 25.190063,14.029875 L25.1414889,13.97475 L25.1697296,13.905 C26.214637,11.36475 26.5106,8.767125 26.5603037,8.27325 L26.6077481,7.78275 C26.611137,7.745625 26.5998407,7.71075 26.5749889,7.68375 C26.550137,7.65675 26.5151185,7.641 26.4789704,7.641 L24.2987852,7.641 C24.2377852,7.641 24.1858222,7.615125 24.1564519,7.569 C24.1282111,7.520625 24.1282111,7.459875 24.1575815,7.40025 L26.4202296,2.41425 C26.4383037,2.374875 26.4337852,2.331 26.410063,2.293875 C26.3840815,2.255625 26.3456741,2.235375 26.3004889,2.235375 L21.987563,2.235375 L21.987563,3.39075 L24.7382111,3.3885 L24.6704333,3.55275 L22.3705074,8.61525 C22.3546926,8.654625 22.3580815,8.699625 22.3818037,8.735625 C22.4066556,8.77275 22.4461926,8.794125 22.4902481,8.794125 L25.2126556,8.794125 C25.2770444,8.794125 25.3143222,8.821125 25.3335259,8.843625 C25.3775815,8.895375 25.3696741,8.964 25.3685444,8.971875 C25.1652111,10.364625 24.8048593,11.779875 24.3756,12.855375 L24.3292852,12.9735 L24.1722667,12.7485 C23.5249889,11.826 23.0494148,10.929375 22.8381741,10.441125 L21.8983222,10.836 C22.2112296,11.58525 22.8811,12.724875 23.7814148,14.038875 L23.8390259,14.128875 L23.8232111,14.162625 C23.3103593,15.23025 22.6563037,16.131375 21.9344704,16.768125 L22.6856741,17.6445 C23.3849148,17.033625 24.0163778,16.209 24.5631185,15.1965 L24.6399333,15.051375 L24.7528963,15.1695 C25.5492852,15.985125 26.3716556,16.569 27.1962852,16.905375 C28.0977296,17.274375 28.8173037,17.51625 29.8294519,17.667 C30.7433222,17.80425 31.9644519,17.865 33.7876741,17.865 L33.8486741,17.865 C34.1118778,17.863875 34.3908963,17.86275 34.6846,17.861625 C35.773563,17.85825 37.0071185,17.854875 38.4666,17.818875 L38.4383593,16.61625 L38.4372296,16.61625 Z" id="Fill-1" fill="#FFFFFF" sketch:type="MSShapeGroup"></path>
                                <path d="M33.0361315,5.93865 L35.5134093,5.93865 L35.5134093,7.33815 C35.5134093,7.4394 35.4309463,7.52265 35.3292796,7.52265 L33.0361315,7.52265 L33.0361315,5.93865 Z M33.0361315,3.298275 L35.3292796,3.298275 C35.4309463,3.298275 35.5134093,3.381525 35.5134093,3.482775 L35.5134093,4.78665 L33.0361315,4.78665 L33.0361315,3.298275 Z M27.3337611,12.83265 L27.3348907,13.9869 L31.8104833,13.98465 L31.8782611,13.98465 L31.8782611,15.7599 L33.0372611,15.75765 L33.0361315,13.98465 L37.8370574,13.98465 L37.8359278,12.8304 L33.0361315,12.83265 L33.0361315,11.4579 L37.1174833,11.4579 L37.1152241,10.30365 L33.0361315,10.3059 L33.0361315,8.67465 L36.5040944,8.67465 C36.5967241,8.67465 36.6724093,8.6004 36.6724093,8.50815 L36.6724093,5.93865 L38.6289278,5.93865 L38.6266685,4.78665 L36.6724093,4.78665 L36.6724093,2.312775 C36.6724093,2.220525 36.5967241,2.146275 36.5040944,2.146275 L33.0361315,2.146275 L33.0361315,0.3069 L31.8760019,0.30915 L31.8782611,2.146275 L28.395613,2.146275 L28.3978722,3.300525 L31.8782611,3.298275 L31.8782611,4.78665 L27.3337611,4.78665 L27.3348907,5.9409 L31.8782611,5.93865 L31.8782611,7.52265 L28.395613,7.52265 L28.3978722,8.6769 L31.8782611,8.67465 L31.8782611,10.3059 L28.0262241,10.3059 L28.0284833,11.46015 L31.8782611,11.4579 L31.8782611,12.83265 L27.3337611,12.83265 Z" id="Fill-3" fill="#FFFFFF" sketch:type="MSShapeGroup"></path>
                                <path d="M58.7893148,4.3399125 L58.782537,4.3331625 L51.2377407,4.3331625 L51.230963,5.5999125 L58.782537,5.6066625 L58.7893148,4.3399125 Z" id="Fill-5" fill="#FFFFFF" sketch:type="MSShapeGroup"></path>
                                <path d="M60.1560537,14.3107875 L49.8651278,14.3107875 L49.85835,15.5775375 L60.1560537,15.5842875 L60.1628315,14.3175375 L60.1560537,14.3107875 Z" id="Fill-7" fill="#FFFFFF" sketch:type="MSShapeGroup"></path>
                                <path d="M46.0301481,4.13415 C45.8561852,4.7034 45.6212222,5.255775 45.332037,5.7744 L43.471537,9.0684 L44.4678704,9.6264 C44.4656111,9.63315 44.4644815,9.6354 44.4644815,9.6354 C44.4656111,9.6354 44.4678704,9.6309 44.4712593,9.62415 L45.7274074,7.3449 L45.7274074,17.837775 L46.9756481,17.82315 C46.9643519,17.824275 46.9677407,5.323275 46.9677407,5.323275 L46.9677407,5.26365 C46.9688704,5.237775 46.9688704,5.217525 46.9677407,5.206275 C46.9666111,5.177025 46.9722593,5.1489 46.9767778,5.12865 L48.0499259,1.493775 L46.9406296,1.1799 L46.0301481,4.13415 Z" id="Fill-9" fill="#FFFFFF" sketch:type="MSShapeGroup"></path>
                                <g id="Group-13">
                                    <mask id="mask-8" sketch:name="Clip 12" fill="white">
                                        <use xlink:href="#path-7"></use>
                                    </mask>
                                    <g id="Clip-12"></g>
                                    <path d="M3.91394074,6.84945 L4.82668148,2.1177 C4.83571852,2.060325 4.81877407,2.0007 4.7814963,1.9557 C4.74195926,1.9107 4.68660741,1.884825 4.62673704,1.884825 L0.143237037,1.884825 C0.064162963,1.884825 -0.000225925926,1.94895 -0.000225925926,2.0277 L-0.000225925926,17.9262 C-0.000225925926,17.9397 0.0122,17.952075 0.0257555556,17.952075 L1.13618148,17.952075 C1.15086667,17.952075 1.16216296,17.940825 1.16216296,17.9262 L1.16216296,3.19545 C1.16216296,3.111075 1.23107037,3.04245 1.31579259,3.04245 L3.37736667,3.04245 C3.44627407,3.04245 3.48468148,3.070575 3.50501481,3.093075 C3.54794074,3.1437 3.54116296,3.212325 3.53777407,3.23145 L2.77527407,6.8562 L3.3864037,10.923075 C3.38753333,10.9737 3.38753333,11.080575 3.26214444,11.080575 L1.95968148,11.080575 C1.94612593,11.080575 1.9337,11.091825 1.9337,11.10645 L1.9337,12.1617 C1.9337,12.167325 1.93482963,12.171825 1.93482963,12.176325 C1.93595926,12.1797 1.93708889,12.1842 1.93708889,12.1887 L4.12744074,12.1887 C4.28784815,12.1887 4.41323704,12.13695 4.50021852,12.0357 C4.59962593,11.919825 4.62786667,11.755575 4.61092222,11.6532 L4.61092222,11.652075 L3.91281111,6.8562 L3.91394074,6.84945 Z" id="Fill-11" fill="#FFFFFF" sketch:type="MSShapeGroup" mask="url(#mask-8)"></path>
                                </g>
                                <path id="Fill-14" fill="#FFFFFF" sketch:type="MSShapeGroup"></path>
                                <g id="Group-18">
                                    <mask id="mask-10" sketch:name="Clip 17" fill="white">
                                        <use xlink:href="#path-9"></use>
                                    </mask>
                                    <g id="Clip-17"></g>
                                    <path d="M11.2731389,10.2063375 L11.2731389,8.6583375 L14.2576204,8.6583375 L14.2576204,10.0342125 C14.2576204,10.1287125 14.1796759,10.2063375 14.0836574,10.2063375 L11.2731389,10.2063375 Z M11.2731389,6.1799625 L14.0836574,6.1799625 C14.1796759,6.1799625 14.2576204,6.2575875 14.2576204,6.3532125 L14.2576204,7.5344625 L11.2731389,7.5344625 L11.2731389,6.1799625 Z M10.0395833,7.5344625 L7.04267593,7.5344625 L7.04267593,6.3532125 C7.04267593,6.2575875 7.11949074,6.1799625 7.21550926,6.1799625 L10.0395833,6.1799625 L10.0395833,7.5344625 Z M10.0395833,10.2063375 L7.21550926,10.2063375 C7.11949074,10.2063375 7.04267593,10.1287125 7.04267593,10.0342125 L7.04267593,8.8315875 C7.04267593,8.7359625 7.11949074,8.6583375 7.21550926,8.6583375 L10.0395833,8.6583375 L10.0395833,10.2063375 Z M17.0071389,15.9247125 C15.0980648,14.7097125 13.2285278,12.6869625 12.5236389,11.4337125 L12.4276204,11.2728375 L15.2076389,11.2728375 C15.3059167,11.2728375 15.3861204,11.1918375 15.3861204,11.0950875 L15.3861204,5.2833375 C15.3861204,5.1854625 15.3059167,5.1055875 15.2076389,5.1055875 L11.2731389,5.1055875 L11.2731389,3.3472125 L15.9215648,3.3472125 L15.9306019,2.2323375 L11.2731389,2.2233375 L11.2731389,0.0689625 L10.04975,0.0599625 L10.0395833,2.2233375 L5.43182407,2.2233375 L5.42278704,3.3382125 L10.0395833,3.3472125 L10.0395833,5.1055875 L6.09152778,5.1055875 C5.99325,5.1055875 5.9130463,5.1854625 5.9130463,5.2833375 L5.9130463,11.0950875 C5.9130463,11.1918375 5.99325,11.2728375 6.09152778,11.2728375 L8.9099537,11.2728375 L8.80489815,11.4370875 C7.91926852,12.7634625 6.3174537,14.7603375 4.71563889,16.0259625 C4.70773148,16.0327125 4.70434259,16.0405875 4.70434259,16.0462125 C4.70321296,16.0540875 4.70547222,16.0630875 4.71112037,16.0687125 L5.38437963,16.8798375 C5.39228704,16.8888375 5.4024537,16.8910875 5.40810185,16.8910875 C5.41036111,16.8955875 5.42278704,16.8910875 5.43069444,16.8843375 C7.78823148,14.9414625 9.26465741,12.7668375 9.93452778,11.6429625 L10.0395833,11.4674625 L10.0395833,17.9902125 L11.2629722,18.0003375 L11.2731389,11.4382125 L11.3804537,11.6463375 C12.1271389,13.1020875 14.1006019,15.4038375 16.2864352,16.8010875 C16.2988611,16.8089625 16.3180648,16.8078375 16.3304907,16.7943375 L17.0150463,15.9708375 C17.0218241,15.9607125 17.0218241,15.9505875 17.0218241,15.9460875 C17.0206944,15.9404625 17.0173056,15.9314625 17.0071389,15.9247125 L17.0071389,15.9247125 Z" id="Fill-16" fill="#FFFFFF" sketch:type="MSShapeGroup" mask="url(#mask-10)"></path>
                                </g>
                            </g>
                        </g>
                    </g>
                </g>
            </g>
        </g>
    </g>
</svg>