<?xml version="1.0" encoding="UTF-8" standalone="no"?>
<svg width="194px" height="31px" viewBox="0 0 194 31" version="1.1" xmlns="http://www.w3.org/2000/svg" xmlns:xlink="http://www.w3.org/1999/xlink" xmlns:sketch="http://www.bohemiancoding.com/sketch/ns">
    <!-- Generator: Sketch 3.3.2 (12043) - http://www.bohemiancoding.com/sketch -->
    <title>今日就捐款</title>
    <desc>Created with Sketch.</desc>
    <defs></defs>
    <g id="Page-1" stroke="none" stroke-width="1" fill="none" fill-rule="evenodd" sketch:type="MSPage">
        <path d="M29.688,14.232 C24.408,11.16 19.928,7.672 15.736,2.808 C15.992,2.456 16.408,2.008 16.76,1.592 L15.32,0.696 C10.744,6.968 6.264,10.488 0.12,14.328 L1.112,15.768 C6.616,12.088 11.192,8.376 14.776,3.992 C18.84,8.568 23.448,12.472 28.632,15.768 L29.688,14.232 Z M17.816,14.424 C16.024,12.216 15.032,10.968 13.24,8.92 L12.056,9.944 C13.848,11.992 14.744,13.304 16.376,15.544 L17.816,14.424 Z M15.224,30.264 C18.648,25.976 21.176,22.296 24.696,16.472 L4.568,16.472 L4.568,18.168 L21.848,18.168 C19.64,21.752 17.368,25.048 13.848,29.144 L15.224,30.264 Z M65.3608874,29.432 L65.3608874,3.544 L46.5768874,3.544 L46.5768874,29.432 L48.3048874,29.432 L48.3048874,27.288 L63.6648874,27.288 L63.6648874,29.432 L65.3608874,29.432 Z M63.6648874,13.944 L48.3048874,13.944 L48.3048874,5.208 L63.6648874,5.208 L63.6648874,13.944 Z M63.6648874,25.656 L48.3048874,25.656 L48.3048874,15.64 L63.6648874,15.64 L63.6648874,25.656 Z M110.153775,7.064 C108.713775,5.112 107.881775,4.088 106.185775,1.944 L105.033775,2.808 C106.569775,4.76 107.433775,6.008 108.905775,8.088 L110.153775,7.064 Z M111.017775,11.32 L111.017775,9.784 L103.241775,9.784 C103.337775,7.224 103.369775,4.408 103.369775,0.824 L101.897775,0.824 C101.897775,4.408 101.865775,7.224 101.737775,9.784 L97.1617748,9.784 L97.1617748,11.32 L101.673775,11.32 C101.321775,19 98.9537748,24.632 93.7377748,28.888 L94.8577748,30.072 C100.265775,25.56 102.921775,19.48 103.145775,11.32 L111.017775,11.32 Z M98.5697748,6.808 L98.5697748,5.272 L91.1777748,5.272 L91.7857748,4.92 C90.7937748,3.224 90.1537748,2.136 89.1617748,0.504 L87.8497748,1.272 C88.7137748,2.776 89.3857748,3.896 90.1217748,5.272 L82.6337748,5.272 L82.6337748,6.808 L98.5697748,6.808 Z M111.177775,26.904 C111.305775,25.912 111.369775,24.856 111.401775,23.864 L109.769775,23 C109.737775,24.408 109.737775,25.496 109.609775,26.552 C109.513775,27.544 109.193775,27.832 108.137775,27.864 C107.465775,27.896 106.825775,27.896 106.185775,27.864 C105.161775,27.832 105.065775,27.672 105.065775,26.648 L105.065775,13.72 L103.529775,13.72 L103.529775,26.648 C103.529775,28.536 103.689775,29.304 106.025775,29.4 C106.665775,29.432 107.593775,29.432 108.233775,29.4 C110.185775,29.304 110.921775,28.888 111.177775,26.904 L111.177775,26.904 Z M97.1297748,23.64 C96.1057748,21.944 95.4017748,20.92 94.1857748,19.192 L93.0017748,20.024 C94.1217748,21.752 94.8897748,22.84 95.8177748,24.536 L97.1297748,23.64 Z M96.4897748,17.656 L96.4897748,9.4 L84.7777748,9.4 L84.7777748,17.656 L89.8657748,17.656 L89.8657748,26.904 C89.8657748,27.8 89.5777748,27.992 88.6817748,27.992 C88.0097748,27.992 86.6977748,27.832 85.7057748,27.704 L85.9617748,29.4 C86.6977748,29.496 87.8817748,29.592 88.6817748,29.592 C90.7617748,29.592 91.3697748,29.08 91.3697748,26.904 L91.3697748,17.656 L96.4897748,17.656 Z M83.1457748,26.616 C84.7137748,24.44 85.8977748,22.552 87.4017748,20.12 L86.1217748,19.288 C84.7137748,21.72 83.4657748,23.544 81.8977748,25.624 L83.1457748,26.616 Z M94.9537748,16.216 L86.2497748,16.216 L86.2497748,10.84 L94.9537748,10.84 L94.9537748,16.216 Z M149.442662,9.4 L149.442662,2.232 L135.842662,2.232 L135.842662,9.4 L149.442662,9.4 Z M147.906662,29.592 C149.826662,29.592 150.562662,28.984 150.562662,26.968 L150.562662,11.736 L134.850662,11.736 L134.850662,30.2 L136.418662,30.2 L136.418662,23.128 L148.962662,23.128 L148.962662,26.968 C148.962662,27.768 148.706662,27.992 147.842662,27.992 C146.850662,27.992 145.730662,27.832 144.450662,27.672 L144.610662,29.368 C145.634662,29.496 146.914662,29.592 147.906662,29.592 L147.906662,29.592 Z M134.242662,8.92 L134.242662,7.448 L129.794662,7.448 L129.794662,0.888 L128.258662,0.888 L128.258662,7.448 L123.330662,7.448 L123.330662,8.92 L128.258662,8.92 L128.258662,16.44 C126.562662,16.984 124.802662,17.464 122.882662,17.944 L123.330662,19.512 C125.122662,19.032 126.690662,18.584 128.258662,17.976 L128.258662,26.968 C128.258662,27.832 127.938662,28.024 127.138662,28.024 C126.402662,28.024 125.474662,27.896 124.322662,27.736 L124.514662,29.4 C125.410662,29.528 126.274662,29.592 127.138662,29.592 C129.186662,29.592 129.794662,29.048 129.794662,26.968 L129.794662,17.432 C131.234662,16.952 132.642662,16.472 134.018662,15.8 L133.858662,14.424 C132.482662,14.968 131.170662,15.448 129.794662,15.928 L129.794662,8.92 L134.242662,8.92 Z M147.874662,7.928 L137.378662,7.928 L137.378662,3.704 L147.874662,3.704 L147.874662,7.928 Z M148.962662,16.664 L136.418662,16.664 L136.418662,13.272 L148.962662,13.272 L148.962662,16.664 Z M148.962662,21.656 L136.418662,21.656 L136.418662,18.136 L148.962662,18.136 L148.962662,21.656 Z M190.77955,13.464 C191.80355,11.064 192.31555,9.496 193.08355,7.032 L183.54755,7.032 C184.02755,5.272 184.53955,3.288 184.92355,1.08 L183.51555,0.824 C182.84355,4.696 181.72355,9.016 179.00355,14.296 L180.18755,15.096 C181.46755,12.696 182.17155,10.968 183.09955,8.44 L191.13155,8.44 C190.61955,9.976 190.23555,11.096 189.46755,12.792 L190.77955,13.464 Z M179.73955,5.656 L179.73955,4.248 L172.95555,4.248 L172.95555,0.856 L171.48355,0.856 L171.48355,4.248 L164.21955,4.248 L164.21955,5.656 L171.48355,5.656 L171.48355,8.984 L165.43555,8.984 L165.43555,10.36 L178.58755,10.36 L178.58755,8.984 L172.95555,8.984 L172.95555,5.656 L179.73955,5.656 Z M193.43555,28.728 C189.49955,25.4 187.67555,22.52 185.88355,16.344 C186.10755,14.776 186.26755,12.76 186.36355,10.296 L184.95555,10.264 C184.69955,18.616 182.71555,23.608 177.21155,28.952 L178.26755,30.008 C181.49955,27.032 184.02755,23.032 185.17955,19.032 C187.06755,24.216 188.31555,26.2 192.47555,30.008 L193.43555,28.728 Z M177.81955,14.456 L177.81955,13.016 L166.10755,13.016 L166.10755,14.456 L177.81955,14.456 Z M178.33155,25.112 C177.43555,23.48 176.44355,21.848 175.38755,20.088 L174.20355,20.824 C175.13155,22.456 175.99555,24.088 176.98755,25.912 L178.33155,25.112 Z M179.35555,18.584 L179.35555,17.112 L164.28355,17.112 L164.28355,18.584 L171.38755,18.584 L171.38755,27.096 C171.38755,27.864 171.16355,28.024 170.29955,28.024 C169.62755,28.024 168.73155,27.832 167.96355,27.736 L168.05955,29.304 C168.79555,29.4 169.49955,29.464 170.23555,29.464 C172.12355,29.464 172.82755,29.048 172.82755,27.096 L172.82755,18.584 L179.35555,18.584 Z M165.21155,27.448 C166.84355,24.984 167.99555,23.032 169.27555,20.536 L168.05955,19.864 C166.71555,22.328 165.59555,24.12 163.96355,26.52 L165.21155,27.448 Z" id="今日就捐款" fill="#313131" sketch:type="MSShapeGroup"></path>
    </g>
</svg>