<?xml version="1.0" encoding="UTF-8" standalone="no"?>
<svg width="692px" height="670px" viewBox="0 0 692 670" version="1.1" xmlns="http://www.w3.org/2000/svg" xmlns:xlink="http://www.w3.org/1999/xlink" xmlns:sketch="http://www.bohemiancoding.com/sketch/ns">
    <!-- Generator: Sketch 3.3.2 (12043) - http://www.bohemiancoding.com/sketch -->
    <title>donate-form-bg</title>
    <desc>Created with Sketch.</desc>
    <defs></defs>
    <g id="Page-1" stroke="none" stroke-width="1" fill="none" fill-rule="evenodd" sketch:type="MSPage">
        <g id="Group" sketch:type="MSLayerGroup" transform="translate(-106.167659, -129.000000)" fill-opacity="0.1">
            <g transform="translate(106.368056, 131.395833)" sketch:type="MSShapeGroup">
                <ellipse id="Oval-1-Copy-2" fill="#7AB835" cx="74.1894841" cy="442.455357" rx="13.4077381" ry="13.4077381"></ellipse>
                <ellipse id="Oval-1-Copy-3" fill="#7AB835" cx="437.092262" cy="608.71131" rx="13.4077381" ry="13.4077381"></ellipse>
                <ellipse id="Oval-1-Copy-4" fill="#3B9948" cx="228.825397" cy="597.09127" rx="13.4077381" ry="13.4077381"></ellipse>
                <ellipse id="Oval-1-Copy-5" fill="#7AB835" cx="542.119544" cy="547.482639" rx="10.2792659" ry="10.2792659"></ellipse>
                <ellipse id="Oval-1-Copy-6" fill="#3B9948" cx="641.78373" cy="301.227183" rx="13.4077381" ry="13.4077381"></ellipse>
                <ellipse id="Oval-1-Copy-7" fill="#3B9948" cx="49.1617063" cy="314.634921" rx="13.4077381" ry="13.4077381"></ellipse>
                <ellipse id="Oval-1-Copy-8" fill="#ACCC18" cx="167.149802" cy="95.6418651" rx="13.4077381" ry="13.4077381"></ellipse>
                <ellipse id="Oval-1-Copy-9" fill="#3B9948" cx="238.657738" cy="50.0555556" rx="13.4077381" ry="13.4077381"></ellipse>
                <ellipse id="Oval-1-Copy-10" fill="#ACCC18" cx="546.141865" cy="109.049603" rx="13.4077381" ry="13.4077381"></ellipse>
                <ellipse id="Oval-1-Copy-11" fill="#7AB835" cx="379.885913" cy="31.2847222" rx="13.4077381" ry="13.4077381"></ellipse>
                <ellipse id="Oval-1-Copy-18" fill="#3B9948" cx="104.580357" cy="151.954365" rx="8.93849206" ry="8.93849206"></ellipse>
                <ellipse id="Oval-1-Copy-19" fill="#ACCC18" cx="641.78373" cy="364.690476" rx="8.93849206" ry="8.93849206"></ellipse>
                <ellipse id="Oval-1-Copy-20" fill="#7AB835" cx="49.1617063" cy="373.628968" rx="8.93849206" ry="8.93849206"></ellipse>
                <ellipse id="Oval-1-Copy-62" fill="#7AB835" cx="184.132937" cy="575.638889" rx="8.93849206" ry="8.93849206"></ellipse>
                <ellipse id="Oval-1-Copy-21" fill="#ACCC18" cx="522.007937" cy="562.231151" rx="8.93849206" ry="8.93849206"></ellipse>
                <ellipse id="Oval-1-Copy-22" fill="#ACCC18" cx="144.803571" cy="535.415675" rx="8.93849206" ry="8.93849206"></ellipse>
                <ellipse id="Oval-1-Copy-23" fill="#3B9948" cx="309.271825" cy="632.845238" rx="8.93849206" ry="8.93849206"></ellipse>
                <ellipse id="Oval-1-Copy-24" fill="#3B9948" cx="626.588294" cy="420.109127" rx="8.93849206" ry="8.93849206"></ellipse>
                <ellipse id="Oval-1-Copy-25" fill="#ACCC18" cx="69.7202381" cy="227.931548" rx="8.93849206" ry="8.93849206"></ellipse>
                <ellipse id="Oval-1-Copy-26" fill="#7AB835" cx="614.074405" cy="202.90377" rx="8.93849206" ry="8.93849206"></ellipse>
                <ellipse id="Oval-1-Copy-27" fill="#3B9948" cx="504.130952" cy="73.2956349" rx="8.93849206" ry="8.93849206"></ellipse>
                <ellipse id="Oval-1-Copy-28" fill="#ACCC18" cx="336.981151" cy="31.2847222" rx="8.93849206" ry="8.93849206"></ellipse>
                <ellipse id="Oval-1-Copy-29" fill="#7AB835" cx="337.875" cy="608.71131" rx="4.46924603" ry="4.46924603"></ellipse>
                <ellipse id="Oval-1-Copy-30" fill="#ACCC18" cx="528.264881" cy="134.077381" rx="4.46924603" ry="4.46924603"></ellipse>
                <ellipse id="Oval-1-Copy-31" fill="#3B9948" cx="4.46924603" cy="305.696429" rx="4.46924603" ry="4.46924603"></ellipse>
                <ellipse id="Oval-1-Copy-32" fill="#7AB835" cx="550.611111" cy="542.566468" rx="4.46924603" ry="4.46924603"></ellipse>
                <ellipse id="Oval-1-Copy-33" fill="#7AB835" cx="513.069444" cy="95.6418651" rx="4.46924603" ry="4.46924603"></ellipse>
                <ellipse id="Oval-1-Copy-34" fill="#ACCC18" cx="623.906746" cy="332.511905" rx="4.46924603" ry="4.46924603"></ellipse>
                <ellipse id="Oval-1-Copy-35" fill="#ACCC18" cx="31.2847222" cy="420.109127" rx="4.46924603" ry="4.46924603"></ellipse>
                <ellipse id="Oval-1-Copy-36" fill="#3B9948" cx="185.026786" cy="35.7539683" rx="4.46924603" ry="4.46924603"></ellipse>
                <ellipse id="Oval-1-Copy-37" fill="#3B9948" cx="456.756944" cy="52.7371032" rx="4.46924603" ry="4.46924603"></ellipse>
                <ellipse id="Oval-1-Copy-38" fill="#7AB835" cx="397.762897" cy="646.252976" rx="4.46924603" ry="4.46924603"></ellipse>
                <ellipse id="Oval-1-Copy-39" fill="#ACCC18" cx="140.334325" cy="91.172619" rx="4.46924603" ry="4.46924603"></ellipse>
                <ellipse id="Oval-1-Copy-40" fill="#ACCC18" cx="80.4464286" cy="406.701389" rx="4.46924603" ry="4.46924603"></ellipse>
                <ellipse id="Oval-1-Copy-41" fill="#3B9948" cx="530.946429" cy="522.007937" rx="4.46924603" ry="4.46924603"></ellipse>
                <ellipse id="Oval-1-Copy-42" fill="#3B9948" cx="532.734127" cy="31.2847222" rx="4.46924603" ry="4.46924603"></ellipse>
                <ellipse id="Oval-1-Copy-43" fill="#3B9948" cx="75.9771825" cy="206.479167" rx="4.46924603" ry="4.46924603"></ellipse>
                <ellipse id="Oval-1-Copy-44" fill="#ACCC18" cx="50.0555556" cy="358.433532" rx="4.46924603" ry="4.46924603"></ellipse>
                <ellipse id="Oval-1-Copy-45" fill="#ACCC18" cx="650.722222" cy="437.986111" rx="4.46924603" ry="4.46924603"></ellipse>
                <ellipse id="Oval-1-Copy-46" fill="#3B9948" cx="655.191468" cy="236.87004" rx="4.46924603" ry="4.46924603"></ellipse>
                <ellipse id="Oval-1-Copy-47" fill="#ACCC18" cx="309.271825" cy="4.46924603" rx="4.46924603" ry="4.46924603"></ellipse>
                <ellipse id="Oval-1-Copy-48" fill="#3B9948" cx="128.714286" cy="530.946429" rx="4.46924603" ry="4.46924603"></ellipse>
                <ellipse id="Oval-1-Copy-49" fill="#7AB835" cx="171.619048" cy="566.700397" rx="4.46924603" ry="4.46924603"></ellipse>
                <ellipse id="Oval-1-Copy-50" fill="#7AB835" cx="291.394841" cy="40.2232143" rx="4.46924603" ry="4.46924603"></ellipse>
                <ellipse id="Oval-1-Copy-51" fill="#ACCC18" cx="362.008929" cy="623.906746" rx="4.46924603" ry="4.46924603"></ellipse>
                <ellipse id="Oval-1-Copy-52" fill="#ACCC18" cx="587.258929" cy="147.485119" rx="4.46924603" ry="4.46924603"></ellipse>
                <ellipse id="Oval-1-Copy-53" fill="#ACCC18" cx="490.723214" cy="589.046627" rx="4.46924603" ry="4.46924603"></ellipse>
                <ellipse id="Oval-1-Copy-54" fill="#7AB835" cx="89.3849206" cy="181.451389" rx="4.46924603" ry="4.46924603"></ellipse>
                <ellipse id="Oval-1-Copy-55" fill="#ACCC18" cx="119.775794" cy="129.608135" rx="4.46924603" ry="4.46924603"></ellipse>
                <ellipse id="Oval-1-Copy-56" fill="#7AB835" cx="205.585317" cy="67.0386905" rx="4.46924603" ry="4.46924603"></ellipse>
                <ellipse id="Oval-1-Copy-57" fill="#ACCC18" cx="452.287698" cy="40.2232143" rx="4.46924603" ry="4.46924603"></ellipse>
                <ellipse id="Oval-1-Copy-58" fill="#7AB835" cx="100.111111" cy="483.572421" rx="4.46924603" ry="4.46924603"></ellipse>
                <ellipse id="Oval-1-Copy-59" fill="#3B9948" cx="255.640873" cy="619.4375" rx="4.46924603" ry="4.46924603"></ellipse>
                <ellipse id="Oval-1-Copy-60" fill="#7AB835" cx="602.454365" cy="474.633929" rx="4.46924603" ry="4.46924603"></ellipse>
                <ellipse id="Oval-1-Copy-61" fill="#3B9948" cx="611.392857" cy="455.863095" rx="4.46924603" ry="4.46924603"></ellipse>
            </g>
            <g id="Group-Copy" transform="translate(445.461345, 450.509018) rotate(56.000000) translate(-445.461345, -450.509018) translate(114.737139, 136.321022)" sketch:type="MSShapeGroup">
                <ellipse id="Oval-1-Copy-2" fill="#7AB835" cx="69.4613032" cy="433.562942" rx="13.4077381" ry="13.4077381"></ellipse>
                <ellipse id="Oval-1-Copy-3" fill="#7AB835" cx="409.604867" cy="601.002159" rx="13.4077381" ry="13.4077381"></ellipse>
                <ellipse id="Oval-1-Copy-4" fill="#3B9948" cx="225.25" cy="584.577381" rx="13.4077381" ry="13.4077381"></ellipse>
                <ellipse id="Oval-1-Copy-5" fill="#7AB835" cx="580.087653" cy="490.873567" rx="10.2792659" ry="10.2792659"></ellipse>
                <ellipse id="Oval-1-Copy-6" fill="#3B9948" cx="635.403835" cy="316.806342" rx="13.4077381" ry="13.4077381"></ellipse>
                <ellipse id="Oval-1-Copy-7" fill="#3B9948" cx="50.0555556" cy="314.634921" rx="13.4077381" ry="13.4077381"></ellipse>
                <ellipse id="Oval-1-Copy-8" fill="#ACCC18" cx="158.203867" cy="81.4576087" rx="13.4077381" ry="13.4077381"></ellipse>
                <ellipse id="Oval-1-Copy-9" fill="#3B9948" cx="238.657738" cy="44.6924603" rx="13.4077381" ry="13.4077381"></ellipse>
                <ellipse id="Oval-1-Copy-10" fill="#ACCC18" cx="555.704362" cy="110.583972" rx="13.4077381" ry="13.4077381"></ellipse>
                <ellipse id="Oval-1-Copy-11" fill="#7AB835" cx="371.922213" cy="18.8411686" rx="13.4077381" ry="13.4077381"></ellipse>
                <ellipse id="Oval-1-Copy-18" fill="#3B9948" cx="133.499784" cy="104.010885" rx="8.93849206" ry="8.93849206"></ellipse>
                <ellipse id="Oval-1-Copy-19" fill="#ACCC18" cx="631.785828" cy="361.656605" rx="8.93849206" ry="8.93849206"></ellipse>
                <ellipse id="Oval-1-Copy-20" fill="#7AB835" cx="55.2427976" cy="377.127807" rx="8.93849206" ry="8.93849206"></ellipse>
                <ellipse id="Oval-1-Copy-62" fill="#7AB835" cx="191.811305" cy="570.784384" rx="8.93849206" ry="8.93849206"></ellipse>
                <ellipse id="Oval-1-Copy-21" fill="#ACCC18" cx="522.901786" cy="562.231151" rx="8.93849206" ry="8.93849206"></ellipse>
                <ellipse id="Oval-1-Copy-22" fill="#ACCC18" cx="145.697421" cy="535.415675" rx="8.93849206" ry="8.93849206"></ellipse>
                <ellipse id="Oval-1-Copy-23" fill="#3B9948" cx="314.510148" cy="608.821198" rx="8.93849206" ry="8.93849206"></ellipse>
                <ellipse id="Oval-1-Copy-24" fill="#3B9948" cx="616.755952" cy="420.109127" rx="8.93849206" ry="8.93849206"></ellipse>
                <ellipse id="Oval-1-Copy-26" fill="#7AB835" cx="613.644002" cy="195.968684" rx="8.93849206" ry="8.93849206"></ellipse>
                <ellipse id="Oval-1-Copy-27" fill="#3B9948" cx="505.024802" cy="73.2956349" rx="8.93849206" ry="8.93849206"></ellipse>
                <ellipse id="Oval-1-Copy-28" fill="#ACCC18" cx="337.875" cy="31.2847222" rx="8.93849206" ry="8.93849206"></ellipse>
                <ellipse id="Oval-1-Copy-29" fill="#7AB835" cx="287.819444" cy="597.985119" rx="4.46924603" ry="4.46924603"></ellipse>
                <ellipse id="Oval-1-Copy-30" fill="#ACCC18" cx="529.15873" cy="134.077381" rx="4.46924603" ry="4.46924603"></ellipse>
                <ellipse id="Oval-1-Copy-31" fill="#3B9948" cx="5.36309524" cy="305.696429" rx="4.46924603" ry="4.46924603"></ellipse>
                <ellipse id="Oval-1-Copy-32" fill="#7AB835" cx="551.50496" cy="542.566468" rx="4.46924603" ry="4.46924603"></ellipse>
                <ellipse id="Oval-1-Copy-33" fill="#7AB835" cx="513.963294" cy="95.6418651" rx="4.46924603" ry="4.46924603"></ellipse>
                <ellipse id="Oval-1-Copy-34" fill="#ACCC18" cx="624.800595" cy="332.511905" rx="4.46924603" ry="4.46924603"></ellipse>
                <ellipse id="Oval-1-Copy-35" fill="#ACCC18" cx="32.1785714" cy="420.109127" rx="4.46924603" ry="4.46924603"></ellipse>
                <ellipse id="Oval-1-Copy-36" fill="#3B9948" cx="185.920635" cy="35.7539683" rx="4.46924603" ry="4.46924603"></ellipse>
                <ellipse id="Oval-1-Copy-38" fill="#7AB835" cx="380.598714" cy="593.101956" rx="4.46924603" ry="4.46924603"></ellipse>
                <ellipse id="Oval-1-Copy-39" fill="#ACCC18" cx="141.228175" cy="91.172619" rx="4.46924603" ry="4.46924603"></ellipse>
                <ellipse id="Oval-1-Copy-40" fill="#ACCC18" cx="75.6880681" cy="397.498041" rx="4.46924603" ry="4.46924603"></ellipse>
                <ellipse id="Oval-1-Copy-41" fill="#3B9948" cx="531.840278" cy="522.007937" rx="4.46924603" ry="4.46924603"></ellipse>
                <ellipse id="Oval-1-Copy-42" fill="#3B9948" cx="533.627976" cy="31.2847222" rx="4.46924603" ry="4.46924603"></ellipse>
                <ellipse id="Oval-1-Copy-43" fill="#3B9948" cx="50.0555556" cy="205.585317" rx="4.46924603" ry="4.46924603"></ellipse>
                <ellipse id="Oval-1-Copy-44" fill="#ACCC18" cx="81.3402778" cy="283.350198" rx="4.46924603" ry="4.46924603"></ellipse>
                <ellipse id="Oval-1-Copy-45" fill="#ACCC18" cx="651.616071" cy="437.986111" rx="4.46924603" ry="4.46924603"></ellipse>
                <ellipse id="Oval-1-Copy-46" fill="#3B9948" cx="656.085317" cy="236.87004" rx="4.46924603" ry="4.46924603"></ellipse>
                <ellipse id="Oval-1-Copy-47" fill="#ACCC18" cx="310.165675" cy="4.46924603" rx="4.46924603" ry="4.46924603"></ellipse>
                <ellipse id="Oval-1-Copy-48" fill="#3B9948" cx="76.8710317" cy="517.53869" rx="4.46924603" ry="4.46924603"></ellipse>
                <ellipse id="Oval-1-Copy-49" fill="#7AB835" cx="172.512897" cy="566.700397" rx="4.46924603" ry="4.46924603"></ellipse>
                <ellipse id="Oval-1-Copy-51" fill="#ACCC18" cx="362.902778" cy="623.906746" rx="4.46924603" ry="4.46924603"></ellipse>
                <ellipse id="Oval-1-Copy-52" fill="#ACCC18" cx="588.152778" cy="147.485119" rx="4.46924603" ry="4.46924603"></ellipse>
                <ellipse id="Oval-1-Copy-53" fill="#ACCC18" cx="491.617063" cy="589.046627" rx="4.46924603" ry="4.46924603"></ellipse>
                <ellipse id="Oval-1-Copy-54" fill="#7AB835" cx="90.2787698" cy="181.451389" rx="4.46924603" ry="4.46924603"></ellipse>
                <ellipse id="Oval-1-Copy-55" fill="#ACCC18" cx="120.669643" cy="129.608135" rx="4.46924603" ry="4.46924603"></ellipse>
                <ellipse id="Oval-1-Copy-56" fill="#7AB835" cx="207.373016" cy="73.2956349" rx="4.46924603" ry="4.46924603"></ellipse>
                <ellipse id="Oval-1-Copy-57" fill="#ACCC18" cx="453.181548" cy="40.2232143" rx="4.46924603" ry="4.46924603"></ellipse>
                <ellipse id="Oval-1-Copy-59" fill="#3B9948" cx="256.534722" cy="619.4375" rx="4.46924603" ry="4.46924603"></ellipse>
                <ellipse id="Oval-1-Copy-60" fill="#7AB835" cx="603.348214" cy="474.633929" rx="4.46924603" ry="4.46924603"></ellipse>
                <ellipse id="Oval-1-Copy-61" fill="#3B9948" cx="612.286706" cy="455.863095" rx="4.46924603" ry="4.46924603"></ellipse>
            </g>
            <g id="Group-Copy-2" transform="translate(436.167237, 457.202780) rotate(94.000000) translate(-436.167237, -457.202780) translate(105.889955, 130.947820)" sketch:type="MSShapeGroup">
                <circle id="Oval-1-Copy-18" fill="#3B9948" cx="122.42643" cy="100.526477" r="8.93849206"></circle>
                <circle id="Oval-1-Copy-19" fill="#ACCC18" cx="620.445958" cy="367.97244" r="8.93849206"></circle>
                <circle id="Oval-1-Copy-20" fill="#7AB835" cx="49.1617063" cy="374.522817" r="8.93849206"></circle>
                <circle id="Oval-1-Copy-62" fill="#7AB835" cx="174.396936" cy="596.599837" r="8.93849206"></circle>
                <circle id="Oval-1-Copy-21" fill="#ACCC18" cx="520.199735" cy="537.266517" r="8.93849206"></circle>
                <circle id="Oval-1-Copy-22" fill="#ACCC18" cx="130.804976" cy="528.328082" r="8.93849206"></circle>
                <circle id="Oval-1-Copy-23" fill="#3B9948" cx="300.910162" cy="603.858707" r="8.93849206"></circle>
                <circle id="Oval-1-Copy-24" fill="#3B9948" cx="601.264848" cy="430.088003" r="8.93849206"></circle>
                <circle id="Oval-1-Copy-26" fill="#7AB835" cx="606.923611" cy="219.886905" r="8.93849206"></circle>
                <circle id="Oval-1-Copy-27" fill="#3B9948" cx="503.881545" cy="70.6227968" r="8.93849206"></circle>
                <circle id="Oval-1-Copy-28" fill="#ACCC18" cx="208.518055" cy="40.2655543" r="8.93849206"></circle>
                <circle id="Oval-1-Copy-29" fill="#7AB835" cx="286.925595" cy="598.878968" r="4.46924603"></circle>
                <circle id="Oval-1-Copy-30" fill="#ACCC18" cx="528.264881" cy="134.97123" r="4.46924603"></circle>
                <circle id="Oval-1-Copy-31" fill="#3B9948" cx="4.46924603" cy="306.590278" r="4.46924603"></circle>
                <circle id="Oval-1-Copy-32" fill="#7AB835" cx="541.02727" cy="521.729688" r="4.46924603"></circle>
                <circle id="Oval-1-Copy-33" fill="#7AB835" cx="513.069444" cy="96.5357143" r="4.46924603"></circle>
                <circle id="Oval-1-Copy-34" fill="#ACCC18" cx="623.906746" cy="333.405754" r="4.46924603"></circle>
                <circle id="Oval-1-Copy-35" fill="#ACCC18" cx="31.2847222" cy="421.002976" r="4.46924603"></circle>
                <circle id="Oval-1-Copy-36" fill="#3B9948" cx="185.026786" cy="36.6478175" r="4.46924603"></circle>
                <circle id="Oval-1-Copy-37" fill="#3B9948" cx="397.762897" cy="63.4632937" r="4.46924603"></circle>
                <circle id="Oval-1-Copy-38" fill="#7AB835" cx="397.762897" cy="647.146825" r="4.46924603"></circle>
                <circle id="Oval-1-Copy-39" fill="#ACCC18" cx="140.334325" cy="92.0664683" r="4.46924603"></circle>
                <circle id="Oval-1-Copy-41" fill="#3B9948" cx="530.946429" cy="522.901786" r="4.46924603"></circle>
                <circle id="Oval-1-Copy-42" fill="#3B9948" cx="532.734127" cy="32.1785714" r="4.46924603"></circle>
                <circle id="Oval-1-Copy-43" fill="#3B9948" cx="49.1617063" cy="206.479167" r="4.46924603"></circle>
                <circle id="Oval-1-Copy-44" fill="#ACCC18" cx="35.3077815" cy="317.865534" r="4.46924603"></circle>
                <circle id="Oval-1-Copy-45" fill="#ACCC18" cx="650.722222" cy="438.87996" r="4.46924603"></circle>
                <circle id="Oval-1-Copy-46" fill="#3B9948" cx="655.191468" cy="237.763889" r="4.46924603"></circle>
                <circle id="Oval-1-Copy-47" fill="#ACCC18" cx="309.271825" cy="5.36309524" r="4.46924603"></circle>
                <circle id="Oval-1-Copy-48" fill="#3B9948" cx="75.9771825" cy="518.43254" r="4.46924603"></circle>
                <circle id="Oval-1-Copy-49" fill="#7AB835" cx="171.619048" cy="567.594246" r="4.46924603"></circle>
                <circle id="Oval-1-Copy-50" fill="#7AB835" cx="291.394841" cy="41.1170635" r="4.46924603"></circle>
                <circle id="Oval-1-Copy-51" fill="#ACCC18" cx="362.008929" cy="624.800595" r="4.46924603"></circle>
                <circle id="Oval-1-Copy-52" fill="#ACCC18" cx="587.258929" cy="148.378968" r="4.46924603"></circle>
                <circle id="Oval-1-Copy-53" fill="#ACCC18" cx="490.723214" cy="589.940476" r="4.46924603"></circle>
                <circle id="Oval-1-Copy-54" fill="#7AB835" cx="89.3849206" cy="182.345238" r="4.46924603"></circle>
                <circle id="Oval-1-Copy-56" fill="#7AB835" cx="206.479167" cy="74.1894841" r="4.46924603"></circle>
                <circle id="Oval-1-Copy-57" fill="#ACCC18" cx="452.287698" cy="41.1170635" r="4.46924603"></circle>
                <circle id="Oval-1-Copy-58" fill="#7AB835" cx="100.111111" cy="484.46627" r="4.46924603"></circle>
                <circle id="Oval-1-Copy-60" fill="#7AB835" cx="602.454365" cy="475.527778" r="4.46924603"></circle>
                <circle id="Oval-1-Copy-61" fill="#3B9948" cx="611.392857" cy="456.756944" r="4.46924603"></circle>
            </g>
            <g id="Group-Copy-3" transform="translate(436.167237, 457.202780) rotate(78.000000) translate(-436.167237, -457.202780) translate(105.889955, 130.947820)" sketch:type="MSShapeGroup">
                <circle id="Oval-1-Copy-18" fill="#3B9948" cx="101.729235" cy="127.569095" r="8.93849206"></circle>
                <circle id="Oval-1-Copy-19" fill="#ACCC18" cx="629.522134" cy="350.184586" r="8.93849206"></circle>
                <circle id="Oval-1-Copy-20" fill="#7AB835" cx="49.1617063" cy="374.522817" r="8.93849206"></circle>
                <circle id="Oval-1-Copy-62" fill="#7AB835" cx="197.980372" cy="573.140428" r="8.93849206"></circle>
                <circle id="Oval-1-Copy-21" fill="#ACCC18" cx="525.85572" cy="549.321778" r="8.93849206"></circle>
                <circle id="Oval-1-Copy-22" fill="#ACCC18" cx="144.803571" cy="536.309524" r="8.93849206"></circle>
                <circle id="Oval-1-Copy-23" fill="#3B9948" cx="362.038999" cy="604.74709" r="8.93849206"></circle>
                <circle id="Oval-1-Copy-24" fill="#3B9948" cx="615.862103" cy="421.002976" r="8.93849206"></circle>
                <circle id="Oval-1-Copy-25" fill="#ACCC18" cx="40.5402661" cy="327.096283" r="8.93849206"></circle>
                <circle id="Oval-1-Copy-26" fill="#7AB835" cx="606.923611" cy="219.886905" r="8.93849206"></circle>
                <circle id="Oval-1-Copy-27" fill="#3B9948" cx="504.130952" cy="74.1894841" r="8.93849206"></circle>
                <circle id="Oval-1-Copy-28" fill="#ACCC18" cx="336.981151" cy="32.1785714" r="8.93849206"></circle>
                <circle id="Oval-1-Copy-29" fill="#7AB835" cx="286.925595" cy="598.878968" r="4.46924603"></circle>
                <circle id="Oval-1-Copy-30" fill="#ACCC18" cx="528.264881" cy="134.97123" r="4.46924603"></circle>
                <circle id="Oval-1-Copy-31" fill="#3B9948" cx="4.46924603" cy="306.590278" r="4.46924603"></circle>
                <circle id="Oval-1-Copy-32" fill="#7AB835" cx="550.611111" cy="543.460317" r="4.46924603"></circle>
                <circle id="Oval-1-Copy-33" fill="#7AB835" cx="513.069444" cy="96.5357143" r="4.46924603"></circle>
                <circle id="Oval-1-Copy-34" fill="#ACCC18" cx="623.906746" cy="333.405754" r="4.46924603"></circle>
                <circle id="Oval-1-Copy-35" fill="#ACCC18" cx="31.2847222" cy="421.002976" r="4.46924603"></circle>
                <circle id="Oval-1-Copy-36" fill="#3B9948" cx="185.026786" cy="36.6478175" r="4.46924603"></circle>
                <circle id="Oval-1-Copy-37" fill="#3B9948" cx="397.762897" cy="63.4632937" r="4.46924603"></circle>
                <circle id="Oval-1-Copy-38" fill="#7AB835" cx="397.762897" cy="647.146825" r="4.46924603"></circle>
                <circle id="Oval-1-Copy-39" fill="#ACCC18" cx="140.334325" cy="92.0664683" r="4.46924603"></circle>
                <circle id="Oval-1-Copy-40" fill="#ACCC18" cx="57.1017836" cy="409.943727" r="4.46924603"></circle>
                <circle id="Oval-1-Copy-41" fill="#3B9948" cx="530.946429" cy="522.901786" r="4.46924603"></circle>
                <circle id="Oval-1-Copy-42" fill="#3B9948" cx="532.734127" cy="32.1785714" r="4.46924603"></circle>
                <circle id="Oval-1-Copy-43" fill="#3B9948" cx="49.1617063" cy="206.479167" r="4.46924603"></circle>
                <circle id="Oval-1-Copy-44" fill="#ACCC18" cx="80.4464286" cy="284.244048" r="4.46924603"></circle>
                <circle id="Oval-1-Copy-45" fill="#ACCC18" cx="650.722222" cy="438.87996" r="4.46924603"></circle>
                <circle id="Oval-1-Copy-46" fill="#3B9948" cx="655.191468" cy="237.763889" r="4.46924603"></circle>
                <circle id="Oval-1-Copy-47" fill="#ACCC18" cx="309.271825" cy="5.36309524" r="4.46924603"></circle>
                <circle id="Oval-1-Copy-48" fill="#3B9948" cx="75.9771825" cy="518.43254" r="4.46924603"></circle>
                <circle id="Oval-1-Copy-49" fill="#7AB835" cx="171.619048" cy="567.594246" r="4.46924603"></circle>
                <circle id="Oval-1-Copy-50" fill="#7AB835" cx="291.394841" cy="41.1170635" r="4.46924603"></circle>
                <circle id="Oval-1-Copy-51" fill="#ACCC18" cx="362.008929" cy="624.800595" r="4.46924603"></circle>
                <circle id="Oval-1-Copy-52" fill="#ACCC18" cx="587.258929" cy="148.378968" r="4.46924603"></circle>
                <circle id="Oval-1-Copy-53" fill="#ACCC18" cx="490.723214" cy="589.940476" r="4.46924603"></circle>
                <circle id="Oval-1-Copy-54" fill="#7AB835" cx="89.3849206" cy="182.345238" r="4.46924603"></circle>
                <circle id="Oval-1-Copy-55" fill="#ACCC18" cx="119.775794" cy="130.501984" r="4.46924603"></circle>
                <circle id="Oval-1-Copy-56" fill="#7AB835" cx="206.479167" cy="74.1894841" r="4.46924603"></circle>
                <circle id="Oval-1-Copy-59" fill="#3B9948" cx="255.640873" cy="620.331349" r="4.46924603"></circle>
                <circle id="Oval-1-Copy-60" fill="#7AB835" cx="602.454365" cy="475.527778" r="4.46924603"></circle>
                <circle id="Oval-1-Copy-61" fill="#3B9948" cx="611.392857" cy="456.756944" r="4.46924603"></circle>
            </g>
        </g>
    </g>
</svg>