<?xml version="1.0" encoding="utf-8"?>
<!-- Generator: Adobe Illustrator 19.1.0, SVG Export Plug-In . SVG Version: 6.00 Build 0)  -->
<!DOCTYPE svg PUBLIC "-//W3C//DTD SVG 1.1 Basic//EN" "http://www.w3.org/Graphics/SVG/1.1/DTD/svg11-basic.dtd">
<svg version="1.1" baseProfile="basic" id="Layer_1"
	 xmlns="http://www.w3.org/2000/svg" xmlns:xlink="http://www.w3.org/1999/xlink" x="0px" y="0px" viewBox="0 0 1000 1000"
	 xml:space="preserve">
<g>
	<g>

			<path id="path0" fill="none" stroke="#FFFFFF" stroke-width="14.0981" stroke-linecap="round" stroke-linejoin="round" stroke-miterlimit="10" d="
			M37.1,380c22.1-85.4,68.1-165.7,137.5-230.1C249.6,80.4,340.8,39.5,435,26.8"/>

			<path id="path1" fill="none" stroke="#FFFFFF" stroke-width="14.0981" stroke-linecap="round" stroke-linejoin="round" stroke-miterlimit="10" d="
			M626.1,960.7c-85,23.4-177.5,23.6-268-4.5c-97.6-30.3-178.6-89.1-236.5-164.3"/>

			<path id="path2" opacity="0.57" fill="none" stroke="#00913A" stroke-width="14.0981" stroke-linecap="round" stroke-linejoin="round" stroke-miterlimit="10" d="
			M366,41.4c87-25.5,182.3-26.5,275.4,2.4c97.5,30.3,178.3,88.9,236.3,164"/>

			<path id="path3" fill="none" stroke="#FFFFFF" stroke-width="14.0981" stroke-linecap="round" stroke-linejoin="round" stroke-miterlimit="10" d="
			M365.2,958.5c-84.7-24.7-163.4-73.2-225.7-144.7C72.4,736.7,34.4,644.2,24.6,549.7"/>

			<path id="path4" fill="none" stroke="#FFFFFF" stroke-width="14.0981" stroke-linecap="round" stroke-linejoin="round" stroke-miterlimit="10" d="
			M626.8,39.6c87.5,24,169,73.2,233.1,146.8c67,77,105,169.3,114.9,263.7"/>

			<path id="path5" fill="none" stroke="#FFFFFF" stroke-width="14.0981" stroke-linecap="round" stroke-linejoin="round" stroke-miterlimit="10" d="
			M38.8,626.5c-23.4-85-23.6-177.5,4.5-268c30.3-97.6,89.1-178.6,164.3-236.5"/>

			<path id="path6" opacity="0.57" fill="none" stroke="#00A0E8" stroke-width="14.0981" stroke-linecap="round" stroke-linejoin="round" stroke-miterlimit="10" d="
			M958.1,366.3c25.5,87,26.5,182.3-2.4,275.4c-30.3,97.5-88.9,178.3-164,236.3"/>

			<path id="path7" fill="none" stroke="#FFFFFF" stroke-width="14.0981" stroke-linecap="round" stroke-linejoin="round" stroke-miterlimit="10" d="
			M963.7,612.7c-21.3,88.2-67.9,171.2-139.4,237.6c-74.8,69.4-165.9,110.3-259.9,123.1"/>
	</g>
	<g>

			<path id="path8" opacity="0.57" fill="none" stroke="#F29600" stroke-width="14.0981" stroke-linecap="round" stroke-linejoin="round" stroke-miterlimit="10" d="
			M37.1,380c22.1-85.4,68.1-165.7,137.5-230.1C249.6,80.4,340.8,39.5,435,26.8"/>

			<path id="path9" opacity="0.57" fill="none" stroke="#E50013" stroke-width="14.0981" stroke-linecap="round" stroke-linejoin="round" stroke-miterlimit="10" d="
			M626.1,960.7c-85,23.4-177.5,23.6-268-4.5c-97.6-30.3-178.6-89.1-236.5-164.3"/>

			<path id="path10" opacity="0.57" fill="none" stroke="#00913A" stroke-width="14.0981" stroke-linecap="round" stroke-linejoin="round" stroke-miterlimit="10" d="
			M366,41.4c87-25.5,182.3-26.5,275.4,2.4c97.5,30.3,178.3,88.9,236.3,164"/>

			<path id="path11" opacity="0.63" fill="none" stroke="#C30F23" stroke-width="14.0981" stroke-linecap="round" stroke-linejoin="round" stroke-miterlimit="10" d="
			M365.2,958.5c-84.7-24.7-163.4-73.2-225.7-144.7C72.4,736.7,34.4,644.2,24.6,549.7"/>

			<path id="path12" opacity="0.77" fill="none" stroke="#00913A" stroke-width="14.0981" stroke-linecap="round" stroke-linejoin="round" stroke-miterlimit="10" d="
			M626.8,39.6c87.5,24,169,73.2,233.1,146.8c67,77,105,169.3,114.9,263.7"/>

			<path id="path13" opacity="0.57" fill="none" stroke="#FFF000" stroke-width="14.0981" stroke-linecap="round" stroke-linejoin="round" stroke-miterlimit="10" d="
			M38.8,626.5c-23.4-85-23.6-177.5,4.5-268c30.3-97.6,89.1-178.6,164.3-236.5"/>

			<path id="path14" opacity="0.57" fill="none" stroke="#00A0E8" stroke-width="14.0981" stroke-linecap="round" stroke-linejoin="round" stroke-miterlimit="10" d="
			M958.1,366.3c25.5,87,26.5,182.3-2.4,275.4c-30.3,97.5-88.9,178.3-164,236.3"/>

			<path id="path15" opacity="0.76" fill="none" stroke="#00A0E8" stroke-width="14.0981" stroke-linecap="round" stroke-linejoin="round" stroke-miterlimit="10" d="
			M963.7,612.7c-21.3,88.2-67.9,171.2-139.4,237.6c-74.8,69.4-165.9,110.3-259.9,123.1"/>
	</g>
</g>
</svg>
