<?xml version="1.0" encoding="UTF-8" standalone="no"?>
<svg width="250px" height="284px" viewBox="0 0 250 284" version="1.1" xmlns="http://www.w3.org/2000/svg" xmlns:xlink="http://www.w3.org/1999/xlink" xmlns:sketch="http://www.bohemiancoding.com/sketch/ns">
    <!-- Generator: Sketch 3.3.2 (12043) - http://www.bohemiancoding.com/sketch -->
    <title>Imported Layers</title>
    <desc>Created with Sketch.</desc>
    <defs></defs>
    <g id="Page-1" stroke="none" stroke-width="1" fill="none" fill-rule="evenodd" sketch:type="MSPage">
        <g id="Imported-Layers" sketch:type="MSLayerGroup" transform="translate(0.000000, -0.099057)">
            <path d="M140.867335,233.988208 L140.867335,225.245873 L142.573703,225.245873 L142.573703,232.465212 L146.540094,232.465212 L146.540094,233.988208 L140.867335,233.988208" id="Fill-1" fill="#1A1918" sketch:type="MSShapeGroup"></path>
            <path d="M152.860259,225.245873 L154.567217,225.245873 L154.567217,233.987618 L152.860259,233.987618 L152.860259,225.245873 Z" id="Fill-2" fill="#1A1918" sketch:type="MSShapeGroup"></path>
            <path d="M166.929245,233.067217 C166.229363,233.791274 165.394458,234.061321 164.461675,234.061321 C163.503538,234.061321 162.717571,233.71816 162.104363,233.104363 C161.219929,232.219929 161.244104,231.126769 161.244104,229.617335 C161.244104,228.106722 161.219929,227.013561 162.104363,226.129717 C162.717571,225.51592 163.478774,225.17217 164.461675,225.17217 C166.487028,225.17217 167.518868,226.498231 167.751769,227.971698 L166.033019,227.971698 C165.836675,227.149175 165.333137,226.694575 164.461675,226.694575 C163.994693,226.694575 163.614387,226.879127 163.368514,227.160967 C163.037146,227.529481 162.951061,227.934552 162.951061,229.617335 C162.951061,231.298939 163.037146,231.716392 163.368514,232.084906 C163.614387,232.367335 163.994693,232.539505 164.461675,232.539505 C164.977005,232.539505 165.394458,232.354953 165.676887,232.047759 C165.959316,231.728774 166.069575,231.335495 166.069575,230.881486 L166.069575,230.550118 L164.461675,230.550118 L164.461675,229.12559 L167.764151,229.12559 L167.764151,230.402712 C167.764151,231.667453 167.543042,232.428656 166.929245,233.067217" id="Fill-3" fill="#1A1918" sketch:type="MSShapeGroup"></path>
            <path d="M179.09434,233.988208 L179.09434,230.329009 L176.135613,230.329009 L176.135613,233.988208 L174.428656,233.988208 L174.428656,225.245873 L176.135613,225.245873 L176.135613,228.818986 L179.09434,228.818986 L179.09434,225.245873 L180.801297,225.245873 L180.801297,233.988208 L179.09434,233.988208" id="Fill-4" fill="#1A1918" sketch:type="MSShapeGroup"></path>
            <path d="M191.112028,226.768278 L191.112028,233.988208 L189.405071,233.988208 L189.405071,226.768278 L187.121462,226.768278 L187.121462,225.245873 L193.395047,225.245873 L193.395047,226.768278 L191.112028,226.768278" id="Fill-5" fill="#1A1918" sketch:type="MSShapeGroup"></path>
            <path d="M143.948703,258.10967 C142.15625,258.10967 140.731722,256.894458 140.731722,255.040094 L140.731722,249.293632 L142.438679,249.293632 L142.438679,254.978774 C142.438679,255.985849 143.028302,256.587264 143.948703,256.587264 C144.869693,256.587264 145.471108,255.985849 145.471108,254.978774 L145.471108,249.293632 L147.166274,249.293632 L147.166274,255.040094 C147.166274,256.894458 145.741745,258.10967 143.948703,258.10967" id="Fill-6" fill="#1A1918" sketch:type="MSShapeGroup"></path>
            <path d="M157.39092,254.745283 L155.708726,254.745283 L155.708726,258.035967 L154.001769,258.035967 L154.001769,249.293632 L157.39092,249.293632 C159.195755,249.293632 160.275943,250.534198 160.275943,252.019458 C160.275943,253.505307 159.195755,254.745283 157.39092,254.745283 L157.39092,254.745283 Z M157.304835,250.816627 L155.708726,250.816627 L155.708726,253.210495 L157.304835,253.210495 C158.07783,253.210495 158.569575,252.731722 158.569575,252.019458 C158.569575,251.307783 158.07783,250.816627 157.304835,250.816627 L157.304835,250.816627 Z" id="Fill-7" fill="#1A1918" sketch:type="MSShapeGroup"></path>
            <path d="M144.206958,274.864387 L144.206958,282.084316 L142.5,282.084316 L142.5,274.864387 L140.216392,274.864387 L140.216392,273.341981 L146.490566,273.341981 L146.490566,274.864387 L144.206958,274.864387" id="Fill-8" fill="#1A1918" sketch:type="MSShapeGroup"></path>
            <path d="M157.045991,282.084316 L156.53066,280.537146 L153.424528,280.537146 L152.896226,282.084316 L151.116156,282.084316 L154.295991,273.341981 L155.634434,273.341981 L158.826651,282.084316 L157.045991,282.084316 L157.045991,282.084316 Z M155.008255,275.920401 L153.902712,279.100825 L156.076061,279.100825 L155.008255,275.920401 L155.008255,275.920401 Z" id="Fill-9" fill="#1A1918" sketch:type="MSShapeGroup"></path>
            <path d="M165.45342,273.341981 L167.160377,273.341981 L167.160377,282.083726 L165.45342,282.083726 L165.45342,273.341981 Z" id="Fill-10" fill="#1A1918" sketch:type="MSShapeGroup"></path>
            <path d="M182.01533,282.084316 L180.590802,282.084316 L178.982311,276.780071 L177.37441,282.084316 L175.949882,282.084316 L173.616745,273.341981 L175.397406,273.341981 L176.748231,278.854953 L178.34434,273.341981 L179.620873,273.341981 L181.216981,278.854953 L182.580189,273.341981 L184.360259,273.341981 L182.01533,282.084316" id="Fill-11" fill="#1A1918" sketch:type="MSShapeGroup"></path>
            <path d="M195.160967,282.084316 L194.645047,280.537146 L191.538915,280.537146 L191.011203,282.084316 L189.230542,282.084316 L192.410377,273.341981 L193.748821,273.341981 L196.941038,282.084316 L195.160967,282.084316 L195.160967,282.084316 Z M193.122642,275.920401 L192.017689,279.100825 L194.191038,279.100825 L193.122642,275.920401 L193.122642,275.920401 Z" id="Fill-12" fill="#1A1918" sketch:type="MSShapeGroup"></path>
            <path d="M208.123821,282.084316 L204.660967,276.71875 L204.660967,282.084316 L202.954599,282.084316 L202.954599,273.341981 L204.477005,273.341981 L207.939858,278.695755 L207.939858,273.341981 L209.646226,273.341981 L209.646226,282.084316 L208.123821,282.084316" id="Fill-13" fill="#1A1918" sketch:type="MSShapeGroup"></path>
            <path d="M249.464033,248.323113 L245.850825,248.323113 L245.850825,247.049528 C245.850825,246.985849 245.799528,246.933962 245.735849,246.933962 L244.941627,246.933962 C244.877948,246.933962 244.826061,246.985849 244.826061,247.049528 L244.826061,248.323113 L241.433373,248.323113 L241.433373,247.049528 C241.433373,246.985849 241.382075,246.933962 241.318396,246.933962 L240.523585,246.933962 C240.460495,246.933962 240.408608,246.985849 240.408608,247.049528 L240.408608,248.323113 L236.795991,248.323113 C236.732311,248.323113 236.680425,248.37441 236.680425,248.43809 L236.680425,249.231722 C236.680425,249.295401 236.732311,249.347288 236.795991,249.347288 L240.408608,249.347288 L240.408608,250.620873 C240.408608,250.684552 240.460495,250.735849 240.523585,250.735849 L241.318396,250.735849 C241.382075,250.735849 241.433373,250.684552 241.433373,250.620873 L241.433373,249.347288 L244.826061,249.347288 L244.826061,250.620873 C244.826061,250.684552 244.877948,250.735849 244.941627,250.735849 L245.735849,250.735849 C245.799528,250.735849 245.850825,250.684552 245.850825,250.620873 L245.850825,249.347288 L249.464033,249.347288 C249.527712,249.347288 249.579009,249.295401 249.579009,249.231722 L249.579009,248.43809 C249.579009,248.37441 249.527712,248.323113 249.464033,248.323113" id="Fill-14" fill="#1A1918" sketch:type="MSShapeGroup"></path>
            <path d="M249.464033,255.404481 L247.340802,255.404481 L247.340802,252.464033 C247.340802,252.366156 247.261203,252.286557 247.163325,252.286557 L243.64033,252.286557 L243.646226,250.866745 C243.646816,250.794811 243.589033,250.736439 243.517099,250.736439 L242.751769,250.735259 C242.680425,250.735259 242.622052,250.793042 242.622052,250.864976 L242.620283,252.286557 L239.212264,252.286557 C239.114387,252.286557 239.034788,252.366156 239.034788,252.464033 L239.034788,255.404481 L236.795991,255.404481 C236.732311,255.404481 236.680425,255.455778 236.680425,255.519458 L236.680425,256.31309 C236.680425,256.376769 236.732311,256.428656 236.795991,256.428656 L242.306014,256.428656 C241.747052,257.538325 240.412146,259.076061 237.228774,259.814858 C237.166274,259.829009 237.126179,259.89033 237.139741,259.952241 C237.182783,260.143868 237.269458,260.533019 237.3125,260.726415 C237.326651,260.790094 237.39092,260.829009 237.454599,260.814858 C240.955778,260.003538 242.502358,258.267099 243.183962,256.960495 C243.658019,257.929245 245.022406,259.821344 248.634434,260.596108 C248.697524,260.60967 248.760613,260.568396 248.773585,260.505307 L248.932783,259.728774 C248.945755,259.666863 248.904481,259.606132 248.842571,259.59316 C245.492335,258.872642 244.382665,257.129717 244.063679,256.428656 L249.464033,256.428656 C249.527712,256.428656 249.579009,256.376769 249.579009,256.31309 L249.579009,255.519458 C249.579009,255.455778 249.527712,255.404481 249.464033,255.404481 L249.464033,255.404481 Z M246.198703,253.310731 C246.263561,253.310731 246.316038,253.363208 246.316038,253.427476 L246.316038,255.404481 L243.626179,255.404481 L243.635613,253.310731 L246.198703,253.310731 L246.198703,253.310731 Z M240.059552,253.427476 C240.059552,253.363208 240.112028,253.310731 240.176887,253.310731 L242.618514,253.310731 L242.615566,255.404481 L240.059552,255.404481 L240.059552,253.427476 L240.059552,253.427476 Z" id="Fill-15" fill="#1A1918" sketch:type="MSShapeGroup"></path>
            <path d="M245.459316,226.076061 L245.459316,224.732901 L244.498821,224.732901 L244.498821,226.076061 L241.685142,226.076061 L241.685142,224.732901 L240.724646,224.732901 L240.724646,226.076061 L236.642689,226.076061 L236.642689,227.036557 L240.724646,227.036557 L240.724646,228.112618 L241.685142,228.112618 L241.685142,227.036557 L244.498821,227.036557 L244.498821,228.112618 L245.459316,228.112618 L245.459316,227.036557 L249.541274,227.036557 L249.541274,226.076061 L245.459316,226.076061" id="Fill-16" fill="#1A1918" sketch:type="MSShapeGroup"></path>
            <path d="M242.887382,229.524764 L243.076651,229.016509 C243.076651,229.016509 243.133844,228.876769 242.989387,228.876769 L239.68691,228.876769 C239.872052,228.541274 239.977594,228.290094 240.028302,228.159788 C240.072524,228.04717 239.978774,228.03184 239.978774,228.03184 L239.216392,227.801297 C239.216392,227.801297 239.133255,227.8125 239.111439,227.868514 C238.979363,228.20342 238.409788,229.426887 236.810731,230.848467 C236.738797,230.912146 236.79717,230.96875 236.79717,230.96875 L237.323703,231.575472 C237.323703,231.575472 237.370283,231.635024 237.4375,231.576061 C238.173939,230.930425 238.709316,230.316627 239.099646,229.785967 L241.533608,229.785967 C241.615566,229.785967 241.667453,229.873231 241.627358,229.944575 C241.419811,230.3125 241.121462,230.78184 240.721698,231.286557 L239.919222,230.475825 L239.237028,231.151533 L240.089033,232.012972 C239.922759,232.188679 239.744693,232.364387 239.553066,232.538915 L238.685731,231.662146 L238.002948,232.337854 L238.810142,233.153302 C238.195165,233.615566 237.481722,234.043632 236.655071,234.384434 C236.618514,234.399175 236.600825,234.440448 236.615566,234.477005 L236.919811,235.229363 C236.935731,235.269458 236.982311,235.288915 237.021816,235.272406 C241.368514,233.480542 242.872642,229.564269 242.887382,229.524764" id="Fill-17" fill="#1A1918" sketch:type="MSShapeGroup"></path>
            <path d="M246.84375,232.35908 L248.518868,229.162146 C248.586675,229.032429 248.492925,228.876769 248.346108,228.876769 L243.689269,228.876769 C243.567217,228.876769 243.615566,229.016509 243.615566,229.016509 L243.773585,229.504717 C244.074292,230.431014 245.340802,233.56309 249.045991,234.997052 L249.392689,234.101415 C248.239976,233.736439 247.087854,232.676887 246.856132,232.456368 C246.82842,232.429835 246.826061,232.392689 246.84375,232.35908 L246.84375,232.35908 Z M246.005896,231.621462 C245.525354,231.01592 245.197524,230.424528 244.981722,229.954599 C244.955778,229.897995 244.99941,229.837264 245.06191,229.837264 L246.939858,229.837264 C247.004127,229.837264 247.045401,229.905071 247.01533,229.961675 L246.152123,231.60908 C246.123231,231.663915 246.044222,231.669811 246.005896,231.621462 L246.005896,231.621462 Z" id="Fill-18" fill="#1A1918" sketch:type="MSShapeGroup"></path>
            <path d="M241.539505,232.408019 L241.539505,233.214033 C241.539505,233.257075 241.573703,233.291274 241.616156,233.291274 L244.675708,233.291274 C244.71816,233.291274 244.752358,233.257075 244.752358,233.214033 L244.752358,232.408019 C244.752358,232.365566 244.71816,232.330778 244.675708,232.330778 L241.616156,232.330778 C241.573703,232.330778 241.539505,232.365566 241.539505,232.408019" id="Fill-19" fill="#1A1918" sketch:type="MSShapeGroup"></path>
            <path d="M246.461085,235.369104 C246.503538,235.369104 246.537736,235.334316 246.537736,235.291863 L246.537736,234.485849 C246.537736,234.442807 246.503538,234.408608 246.461085,234.408608 L239.926297,234.408608 C239.883844,234.408608 239.849057,234.442807 239.849057,234.485849 L239.849057,235.291863 C239.849057,235.334316 239.883844,235.369104 239.926297,235.369104 L242.727005,235.369104 L242.727005,237.807783 C242.727005,237.877358 242.670401,237.933962 242.600825,237.933962 L241.944575,237.933962 C241.875,237.933962 241.818396,237.990566 241.818396,238.060142 L241.818396,238.768278 C241.818396,238.837854 241.875,238.893868 241.944575,238.893868 L243.261792,238.893868 C243.496462,238.893868 243.68691,238.704009 243.68691,238.46934 L243.68691,235.369104 L246.461085,235.369104" id="Fill-20" fill="#1A1918" sketch:type="MSShapeGroup"></path>
            <path d="M248.59375,238.010024 L245.752948,236.199882 C245.708726,236.17158 245.650354,236.184552 245.622052,236.228774 L245.207547,236.879127 C245.179835,236.923349 245.192807,236.981722 245.236439,237.010024 L248.07783,238.820165 C248.121462,238.848467 248.179835,238.835495 248.208137,238.791274 L248.622642,238.14092 C248.650943,238.096698 248.637972,238.038325 248.59375,238.010024" id="Fill-21" fill="#1A1918" sketch:type="MSShapeGroup"></path>
            <path d="M240.314858,236.056604 C240.285967,236.012972 240.227005,236.001179 240.183962,236.030071 L237.275354,237.971108 C237.231722,238 237.219929,238.058373 237.248821,238.102005 L237.676887,238.743514 C237.705778,238.787146 237.764741,238.798939 237.808373,238.770047 L240.716392,236.829009 C240.760024,236.800118 240.771816,236.741745 240.742925,236.698113 L240.314858,236.056604" id="Fill-22" fill="#1A1918" sketch:type="MSShapeGroup"></path>
            <path d="M249.279481,270.81191 L237.212264,270.81191 C237.146226,270.81191 237.09316,270.864976 237.09316,270.931014 L237.09316,271.747642 C237.09316,271.813679 237.146226,271.866745 237.212264,271.866745 L249.279481,271.866745 C249.344929,271.866745 249.397995,271.813679 249.397995,271.747642 L249.397995,270.931014 C249.397995,270.864976 249.344929,270.81191 249.279481,270.81191" id="Fill-23" fill="#1A1918" sketch:type="MSShapeGroup"></path>
            <path d="M242.837264,269.752358 L243.653892,269.752358 C243.71934,269.752358 243.772406,269.698703 243.772406,269.633255 L243.772406,268.024764 C243.772406,267.959316 243.71934,267.90566 243.653892,267.90566 L242.837264,267.90566 C242.771816,267.90566 242.71875,267.959316 242.71875,268.024764 L242.71875,269.633255 C242.71875,269.698703 242.771816,269.752358 242.837264,269.752358" id="Fill-24" fill="#1A1918" sketch:type="MSShapeGroup"></path>
            <path d="M249.176297,280.655071 C247.198703,279.79717 245.462854,278.634434 243.978774,277.183373 C244.961085,276.103184 245.827241,274.891509 246.570165,273.547759 C246.602005,273.489976 246.580778,273.416274 246.522406,273.384434 L245.805425,272.993514 C245.748231,272.962854 245.677476,272.98408 245.646226,273.040684 C244.956368,274.287146 244.153892,275.413325 243.245873,276.419222 C242.337854,275.413325 241.534788,274.287146 240.845519,273.040684 C240.813679,272.98408 240.742925,272.962854 240.685731,272.993514 L239.96875,273.384434 C239.910967,273.416274 239.889151,273.489976 239.92158,273.547759 C240.664505,274.891509 241.53066,276.103184 242.512972,277.183373 C241.028302,278.634434 239.292453,279.79717 237.314858,280.655071 C237.255307,280.681014 237.227594,280.74941 237.252948,280.808962 L237.573113,281.560731 C237.599057,281.621462 237.670401,281.649764 237.731132,281.623821 C239.829599,280.713443 241.670991,279.481132 243.245873,277.942807 C244.820165,279.481132 246.661557,280.713443 248.760024,281.623821 C248.820755,281.649764 248.892099,281.621462 248.918042,281.560731 L249.238208,280.808962 C249.264151,280.74941 249.235849,280.681014 249.176297,280.655071" id="Fill-25" fill="#1A1918" sketch:type="MSShapeGroup"></path>
            <path d="M9.65507075,279.554245 L9.73466981,280.170401 L16.2010613,279.336085 L16.1214623,278.719929 L13.4492925,279.064858 L13.4492925,277.916863 L16.0501179,277.916863 L16.0501179,277.295401 L13.4492925,277.295401 L13.4492925,276.053656 L15.9339623,276.053656 L15.9339623,271.667453 L10.3443396,271.667453 L10.3443396,276.053656 L12.8284198,276.053656 L12.8284198,277.295401 L10.228184,277.295401 L10.228184,277.916863 L12.8284198,277.916863 L12.8284198,279.144458 L9.65507075,279.554245 L9.65507075,279.554245 Z M13.4492925,272.288325 L15.3125,272.288325 L15.3125,275.432193 L13.4492925,275.432193 L13.4492925,272.288325 Z M10.9652123,272.288325 L12.8284198,272.288325 L12.8284198,275.432193 L10.9652123,275.432193 L10.9652123,272.288325 Z" id="Fill-26" fill="#1A1918" sketch:type="MSShapeGroup"></path>
            <path d="M11.8726415,272.981132 L11.2930425,273.205778 L11.8885613,274.739976 L12.4681604,274.51592 L11.8726415,272.981132" id="Fill-27" fill="#1A1918" sketch:type="MSShapeGroup"></path>
            <path d="M14.3891509,274.739976 L14.9846698,273.205778 L14.4050708,272.981132 L13.8101415,274.51592 L14.3891509,274.739976" id="Fill-28" fill="#1A1918" sketch:type="MSShapeGroup"></path>
            <path d="M9.51002358,283.542453 L10.0454009,283.856722 C10.834316,282.511203 10.9693396,281.051297 10.9705189,281.037146 L10.3514151,280.988208 C10.3502358,281.001179 10.2169811,282.336085 9.51002358,283.542453" id="Fill-29" fill="#1A1918" sketch:type="MSShapeGroup"></path>
            <path d="M11.9316038,281.137972 C12.1055425,281.731132 12.2364387,282.602594 12.2912736,283.530071 L12.9115566,283.492925 C12.8537736,282.521226 12.714033,281.599057 12.5277123,280.963443 L11.9316038,281.137972" id="Fill-30" fill="#1A1918" sketch:type="MSShapeGroup"></path>
            <path d="M13.5589623,280.955778 C13.7612028,281.56191 13.9404481,282.462264 14.026533,283.304835 L14.6444575,283.241745 C14.5524764,282.34375 14.3667453,281.415684 14.1474057,280.759434 L13.5589623,280.955778" id="Fill-31" fill="#1A1918" sketch:type="MSShapeGroup"></path>
            <path d="M15.2346698,280.692217 C15.4145047,281.207547 15.6450472,281.924528 15.8354953,282.905071 L16.4451651,282.787146 C16.2470519,281.767689 16.0076651,281.022995 15.8207547,280.487618 L15.2346698,280.692217" id="Fill-32" fill="#1A1918" sketch:type="MSShapeGroup"></path>
            <path d="M21.4870283,274.403892 L21.4870283,273.783019 L19.1580189,273.783019 L19.1580189,271.628538 L18.5371462,271.628538 L18.5371462,277.897406 L17.1267689,277.897406 L17.1267689,282.613208 L21.1957547,282.613208 L21.1957547,277.897406 L19.1580189,277.897406 L19.1580189,274.403892 L21.4870283,274.403892 L21.4870283,274.403892 Z M17.7476415,278.518278 L20.5748821,278.518278 L20.5748821,281.992335 L17.7476415,281.992335 L17.7476415,278.518278 Z" id="Fill-33" fill="#1A1918" sketch:type="MSShapeGroup"></path>
            <path d="M48.3537736,272.360259 L43.7146226,272.360259 L43.7146226,270.929835 L43.09375,270.929835 L43.09375,272.360259 L38.4545991,272.360259 L38.4545991,272.981132 L48.3537736,272.981132 L48.3537736,272.360259" id="Fill-34" fill="#1A1918" sketch:type="MSShapeGroup"></path>
            <path d="M40.7635613,276.5 L46.1073113,276.5 L46.1073113,273.873821 L40.7635613,273.873821 L40.7635613,276.5 Z M41.3850236,274.494693 L45.4870283,274.494693 L45.4870283,275.879127 L41.3850236,275.879127 L41.3850236,274.494693 Z" id="Fill-35" fill="#1A1918" sketch:type="MSShapeGroup"></path>
            <path d="M38.6645047,278.127358 L48.2824292,278.127358 L48.2824292,279.393278 L48.9038915,279.393278 L48.9038915,277.505896 L38.0430425,277.505896 L38.0430425,279.393278 L38.6645047,279.393278 L38.6645047,278.127358" id="Fill-36" fill="#1A1918" sketch:type="MSShapeGroup"></path>
            <path d="M37.6426887,283.151533 L37.7800708,283.757075 C41.7081368,282.863797 42.1910377,280.103774 42.2158019,278.958137 L41.5949292,278.945165 C41.5678066,280.186321 41.0182783,282.383844 37.6426887,283.151533" id="Fill-37" fill="#1A1918" sketch:type="MSShapeGroup"></path>
            <path d="M48.8060142,281.568396 L48.5053066,282.380307 C48.4634434,282.491745 48.3555425,282.566627 48.2364387,282.566627 L45.4557783,282.566627 C45.2682783,282.566627 45.1161557,282.413915 45.1161557,282.225825 L45.1161557,278.913915 L44.4946934,278.913915 L44.4946934,282.225825 C44.4946934,282.756486 44.9257075,283.18809 45.4557783,283.18809 L48.2364387,283.18809 C48.6120283,283.18809 48.9540094,282.951651 49.0872642,282.597877 L49.3885613,281.783608 L48.8060142,281.568396" id="Fill-38" fill="#1A1918" sketch:type="MSShapeGroup"></path>
            <path d="M77.2553066,276.803656 C76.303066,275.335495 75.1733491,273.871462 74.6314858,273.303656 L74.1821934,273.732311 C74.4168632,273.978184 74.7706368,274.407429 75.1709906,274.929245 L69.0283019,275.704599 L71.3950472,271.230542 L70.8461085,270.939858 L68.2753538,275.799528 L66.5536557,276.017099 L66.6308962,276.633255 L75.5996462,275.501179 C75.973467,276.011203 76.3661557,276.574292 76.7340802,277.141509 L77.2553066,276.803656" id="Fill-39" fill="#1A1918" sketch:type="MSShapeGroup"></path>
            <path d="M68.3001179,283.680425 L68.9209906,283.680425 L68.9209906,282.839623 L74.807783,282.839623 L74.807783,283.680425 L75.4292453,283.680425 L75.4292453,278.60908 L68.3001179,278.60908 L68.3001179,283.680425 L68.3001179,283.680425 Z M68.9209906,279.229953 L74.807783,279.229953 L74.807783,282.21875 L68.9209906,282.21875 L68.9209906,279.229953 Z" id="Fill-40" fill="#1A1918" sketch:type="MSShapeGroup"></path>
            <path d="M93.9581368,271.651533 L95.5542453,273.273585 L95.990566,272.84375 L94.3944575,271.221698 L93.9581368,271.651533" id="Fill-41" fill="#1A1918" sketch:type="MSShapeGroup"></path>
            <path d="M95.5436321,276.074882 L93.9475236,274.45283 L93.5106132,274.883255 L95.1073113,276.505307 L95.5436321,276.074882" id="Fill-42" fill="#1A1918" sketch:type="MSShapeGroup"></path>
            <path d="M94.9846698,278.724646 C94.7399764,279.670991 94.3307783,281.255307 93.4304245,283.573703 L94.0017689,283.795401 C94.9150943,281.443986 95.3466981,279.774764 95.5784198,278.877948 C95.629717,278.679245 95.6727594,278.513561 95.7099057,278.381486 L95.1196934,278.215212 C95.0819575,278.350825 95.0377358,278.520637 94.9846698,278.724646" id="Fill-43" fill="#1A1918" sketch:type="MSShapeGroup"></path>
            <path d="M96.1102594,277.990566 L96.5589623,278.089033 C96.75,277.222877 96.879717,276.344929 96.8808962,276.336085 L96.4262972,276.269458 C96.4251179,276.277712 96.2977594,277.139741 96.1102594,277.990566" id="Fill-44" fill="#1A1918" sketch:type="MSShapeGroup"></path>
            <path d="M97.4823113,276.373231 L97.4982311,276.501179 C97.5318396,276.758844 97.6014151,277.293632 97.6244104,277.936321 L98.084316,277.919811 C98.0595519,277.255896 97.9882075,276.706368 97.9540094,276.442217 L97.9392689,276.321344 L97.4823113,276.373231" id="Fill-45" fill="#1A1918" sketch:type="MSShapeGroup"></path>
            <path d="M98.5418632,276.290684 C98.6261792,276.497052 98.884434,277.394458 98.9380896,277.858491 L99.3950472,277.805425 C99.3354953,277.287146 99.0642689,276.352594 98.9675708,276.116745 L98.5418632,276.290684" id="Fill-46" fill="#1A1918" sketch:type="MSShapeGroup"></path>
            <path d="M102.797759,276.273585 C102.62559,277.271816 102.498231,277.70283 102.42158,277.887972 L102.846108,278.063679 C102.972288,277.757665 103.104363,277.198113 103.25059,276.351415 L103.262382,276.287146 L102.810731,276.196934 L102.797759,276.273585" id="Fill-47" fill="#1A1918" sketch:type="MSShapeGroup"></path>
            <path d="M103.994104,277.888561 L104.454009,277.871462 C104.439858,277.501179 104.37441,276.943986 104.259434,276.215802 L103.805425,276.287146 C103.918042,276.997642 103.981132,277.536557 103.994104,277.888561" id="Fill-48" fill="#1A1918" sketch:type="MSShapeGroup"></path>
            <path d="M105.333137,276.083137 L104.896816,276.228774 C104.99941,276.535377 105.170991,277.048939 105.350825,277.826651 L105.798349,277.722877 C105.613208,276.923939 105.43809,276.397406 105.333137,276.083137" id="Fill-49" fill="#1A1918" sketch:type="MSShapeGroup"></path>
            <path d="M96.4770047,275.84375 L98.7511792,275.337264 L98.9569575,275.840802 L99.3826651,275.666863 L98.8083726,274.261792 L98.3826651,274.435731 L98.5748821,274.90566 L97.1444575,275.224057 C98.2505896,273.907429 99.0589623,272.533608 99.0966981,272.46934 L98.7004717,272.237028 C98.6957547,272.244104 98.5206368,272.541863 98.2287736,272.98467 L96.9935142,273.237028 C97.5306604,272.180425 98.0194575,271.10967 98.0253538,271.097877 L97.6067217,270.907429 C97.6008255,270.919811 97.0088443,272.217571 96.4150943,273.357901 L96.4209906,273.361439 L96.5112028,273.804245 L97.8590802,273.529481 C97.4622642,274.097877 96.9516509,274.774175 96.3915094,275.387972 L96.3944575,275.39092 L96.3773585,275.395047 L96.4770047,275.84375" id="Fill-50" fill="#1A1918" sketch:type="MSShapeGroup"></path>
            <path d="M102.837264,275.84375 L105.111439,275.337264 L105.316627,275.840802 L105.742335,275.666863 L105.168042,274.261792 L104.742335,274.435731 L104.934552,274.90566 L103.504717,275.224057 C104.610849,273.907429 105.419222,272.533608 105.456958,272.46934 L105.060142,272.237028 C105.056014,272.244104 104.880307,272.541863 104.589033,272.98467 L103.353774,273.236439 C103.89033,272.180425 104.379717,271.10967 104.385613,271.097877 L103.966981,270.907429 C103.961085,270.919811 103.369104,272.217571 102.775354,273.357901 L102.78066,273.360849 L102.871462,273.804245 L104.21934,273.529481 C103.821934,274.097877 103.31191,274.774175 102.751179,275.387972 L102.754717,275.39092 L102.737618,275.395047 L102.837264,275.84375" id="Fill-51" fill="#1A1918" sketch:type="MSShapeGroup"></path>
            <path d="M102.605542,272.037146 L101.216392,272.037146 L101.216392,270.868514 L100.757075,270.868514 L100.757075,272.037146 L99.3867925,272.037146 L99.3867925,272.497052 L102.605542,272.497052 L102.605542,272.037146" id="Fill-52" fill="#1A1918" sketch:type="MSShapeGroup"></path>
            <path d="M99.8561321,273.147995 L102.126179,273.147995 L102.126179,273.607901 L99.8561321,273.607901 L99.8561321,273.147995 Z" id="Fill-53" fill="#1A1918" sketch:type="MSShapeGroup"></path>
            <path d="M99.8561321,274.230542 L102.126179,274.230542 L102.126179,274.690448 L99.8561321,274.690448 L99.8561321,274.230542 Z" id="Fill-54" fill="#1A1918" sketch:type="MSShapeGroup"></path>
            <path d="M99.9333726,277.698113 L102.059552,277.698113 L102.059552,275.610259 L99.9333726,275.610259 L99.9333726,277.698113 Z M100.392689,276.069575 L101.599646,276.069575 L101.599646,277.238208 L100.392689,277.238208 L100.392689,276.069575 Z" id="Fill-55" fill="#1A1918" sketch:type="MSShapeGroup"></path>
            <path d="M104.792453,281.307193 L97.78125,281.307193 L97.9711085,280.503538 C97.9787736,280.471698 98.0070755,280.448703 98.0400943,280.448703 L104.56191,280.448703 L104.56191,278.481722 L97.0400943,278.481722 L97.0400943,279.002358 L104.040094,279.002358 L104.040094,279.928066 L97.6273585,279.928066 C97.5949292,279.928066 97.5660377,279.950472 97.5589623,279.982311 L97.1409198,281.752358 C97.1314858,281.791274 97.160967,281.82783 97.2004717,281.82783 L104.458726,281.82783 L104.12441,283.227594 C104.104363,283.244104 104.090212,283.254717 104.070165,283.270637 L101.590212,283.270637 L101.590212,283.791863 L104.070165,283.791863 C104.337264,283.791863 104.569575,283.608491 104.631486,283.348467 L105.028302,281.68809 C105.051297,281.596108 105.064269,281.488208 105.005896,281.413325 C105.005896,281.413325 104.957547,281.307193 104.792453,281.307193" id="Fill-56" fill="#1A1918" sketch:type="MSShapeGroup"></path>
            <path d="M60.5990566,190.321934 C62.2193396,190.321934 63.7647406,189.382665 64.4622642,187.805425 C65.3808962,185.725825 64.4823113,183.307193 62.4581368,182.314858 C61.3761792,181.836675 60.303066,181.334906 59.2387972,180.813679 C59.2216981,180.805425 59.2051887,180.79658 59.1880896,180.788325 C58.2694575,180.337854 57.3567217,179.87441 56.4522406,179.392099 C55.9976415,179.150354 55.5507075,178.896816 55.1008255,178.647995 C54.6426887,178.393868 54.1821934,178.144458 53.7275943,177.881486 C52.8466981,177.37441 51.9775943,176.850236 51.1161557,176.314858 C51.0931604,176.300118 51.0695755,176.286557 51.0465802,176.272406 C50.0418632,175.646816 49.0495283,175.004127 48.0725236,174.340212 C46.1568396,173.148585 43.6291274,173.668632 42.3525943,175.550118 C41.0442217,177.479363 41.5459906,180.104363 43.4752358,181.413325 C44.4958726,182.106132 45.5271226,182.777712 46.5689858,183.429835 C46.5978774,183.447524 46.6273585,183.464623 46.65625,183.482311 C47.5978774,184.070755 48.5495283,184.639151 49.5076651,185.193396 C50,185.476415 50.4988208,185.74941 50.9958726,186.024175 C51.4941038,186.301297 51.9911557,186.580189 52.4929245,186.847877 C53.4675708,187.364976 54.4504717,187.869104 55.4445755,188.354363 C55.4793632,188.371462 55.5135613,188.389741 55.5477594,188.40625 C56.6521226,188.943986 57.7676887,189.462264 58.8950472,189.960495 C59.4498821,190.205778 60.0288915,190.321934 60.5990566,190.321934" id="Fill-57" fill="#A7CD6A" sketch:type="MSShapeGroup"></path>
            <path d="M42.3525943,23.415684 C43.1692217,24.6191038 44.4976415,25.2676887 45.8496462,25.2676887 C46.6650943,25.2676887 47.4899764,25.03125 48.2158019,24.5383255 C56.660967,18.807783 65.9139151,14.598467 75.6356132,12.0129717 C84.2712264,9.7057783 93.2393868,8.69044811 102.295401,9.03183962 C104.64092,9.11674528 106.584906,7.30188679 106.672759,4.97287736 C106.758844,2.69221698 105.017689,0.770636792 102.758844,0.607900943 C101.498821,0.560731132 100.235259,0.535377358 98.96875,0.535377358 C89.7777123,0.535377358 80.7423349,1.80660377 72.0589623,4.25471698 C63.1338443,6.78183962 54.5483491,10.5630896 46.5341981,15.5713443 C45.4587264,16.2435142 44.3991745,16.9351415 43.3537736,17.6444575 C41.5288915,18.9799528 41.0731132,21.5288915 42.3525943,23.415684" id="Fill-58" fill="#50B584" sketch:type="MSShapeGroup"></path>
            <path d="M155.584906,175.550118 C154.277123,173.622052 151.653302,173.117335 149.721698,174.427476 C142.165094,179.555425 133.961085,183.462264 125.353184,186.080189 C115.793042,189.001769 105.778302,190.318396 95.6426887,189.933962 C93.2924528,189.833726 91.3525943,191.664505 91.2647406,193.992925 C91.1786557,196.274175 92.9204009,198.196344 95.1804245,198.357901 C96.4398585,198.40566 97.7028302,198.430425 98.96875,198.430425 C105.14033,198.430425 111.242335,197.862028 117.215802,196.748821 C117.358491,196.722288 117.50059,196.693396 117.642689,196.665684 C118.630307,196.477594 119.613797,196.272995 120.59316,196.054835 C120.901533,195.985849 121.209316,195.912736 121.516509,195.840802 C122.313679,195.655071 123.107311,195.459316 123.899175,195.254127 C124.353774,195.135613 124.807783,195.013561 125.260613,194.888561 C125.885024,194.716981 126.507665,194.537146 127.128538,194.353184 C127.71816,194.178066 128.306604,193.99941 128.893278,193.8125 C129.354953,193.666274 129.814858,193.514151 130.274764,193.360849 C130.992925,193.120283 131.709906,192.876179 132.422759,192.619693 C132.725825,192.510613 133.027712,192.396816 133.329599,192.284788 C134.174528,191.970519 135.017099,191.650943 135.853774,191.313679 C135.994693,191.257075 136.133844,191.198113 136.273585,191.14092 C141.491156,189.009434 146.551887,186.426297 151.403302,183.395047 C152.481722,182.721108 153.543632,182.027123 154.590802,181.316038 C156.410377,179.979363 156.863208,177.434552 155.584906,175.550118" id="Fill-59" fill="#53B475" sketch:type="MSShapeGroup"></path>
            <path d="M20.535967,156.82842 C21.3514151,156.82842 22.1757075,156.591981 22.9021226,156.099646 C24.8313679,154.790684 25.3337264,152.165684 24.0247642,150.236439 C18.5996462,142.241745 14.5524764,133.519458 11.9416274,124.364976 C9.33195755,115.258844 8.15507075,105.763561 8.51768868,96.15625 C8.60554245,93.8266509 6.78832547,91.8667453 4.45872642,91.7783019 C2.16863208,91.6987028 0.256485849,93.4339623 0.09375,95.6916274 C0.045990566,96.9522406 0.0212264151,98.2163915 0.0212264151,99.4829009 C0.0212264151,108.821344 1.33372642,117.998821 3.86025943,126.810731 C6.38679245,135.585495 10.1273585,144.028892 15.0566038,151.917453 C15.7211085,152.979953 16.4038915,154.027712 17.1037736,155.060731 C17.9239387,156.206958 19.2163915,156.82842 20.535967,156.82842" id="Fill-60" fill="#81C063" sketch:type="MSShapeGroup"></path>
            <path d="M10.6462264,64.9770047 C11.2004717,65.2216981 11.7794811,65.3378538 12.3502358,65.3378538 C13.9386792,65.3372642 15.4516509,64.4304245 16.1668632,62.9074292 C16.6338443,61.8525943 17.1226415,60.8060142 17.6308962,59.7676887 C17.6533019,59.7222877 17.6768868,59.678066 17.6987028,59.6326651 C18.1362028,58.7429245 18.5849057,57.8584906 19.0518868,56.9817217 C19.3101415,56.495283 19.5807783,56.0170991 19.8472877,55.535967 C20.084316,55.1102594 20.3160377,54.6821934 20.5601415,54.2600236 C21.6786557,52.3160377 22.8661557,50.4192217 24.1214623,48.5713443 C25.3001179,46.6586085 24.7794811,44.1409198 22.9021226,42.8673349 C20.9722877,41.557783 18.3472877,42.0613208 17.0389151,43.9899764 C16.3431604,45.0147406 15.6680425,46.0507075 15.0135613,47.0972877 C15.0129717,47.098467 15.0117925,47.0996462 15.0112028,47.1008255 C14.4050708,48.0701651 13.8207547,49.0501179 13.2505896,50.0365566 C12.9829009,50.5011792 12.7258255,50.9722877 12.4658019,51.4416274 C12.1727594,51.9669811 11.8791274,52.4917453 11.5961085,53.021816 C11.0925708,53.9711085 10.6025943,54.9286557 10.1285377,55.896816 C10.0996462,55.9563679 10.0683962,56.0153302 10.0389151,56.0754717 C9.50353774,57.1751179 8.9870283,58.2865566 8.49115566,59.4097877 C7.54893868,61.5424528 8.51356132,64.0341981 10.6462264,64.9770047" id="Fill-61" fill="#53B475" sketch:type="MSShapeGroup"></path>
            <path d="M133.475236,11.1603774 C132.556604,13.2399764 133.454009,15.6568396 135.477005,16.6503538 C136.560731,17.1285377 137.634434,17.6308962 138.700472,18.1533019 C138.713443,18.1597877 138.726415,18.1662736 138.739387,18.1727594 C139.662146,18.625 140.57842,19.0902123 141.486439,19.5748821 C141.939858,19.8154481 142.385024,20.0683962 142.834316,20.3160377 C143.293042,20.5713443 143.754127,20.8213443 144.209316,21.084316 C145.091392,21.5919811 145.961675,22.1167453 146.824292,22.6533019 C146.846698,22.6668632 146.869104,22.6798349 146.89092,22.6933962 C147.895047,23.3183962 148.886792,23.9610849 149.863797,24.6244104 C151.779481,25.817217 154.308373,25.2983491 155.584906,23.415684 C156.893868,21.4864387 156.391509,18.8614387 154.462264,17.5524764 C153.443986,16.8614387 152.414505,16.1910377 151.375,15.540684 C151.333726,15.5147406 151.291274,15.4899764 151.25,15.4646226 C150.320165,14.884434 149.380896,14.3231132 148.435142,13.7759434 C147.932783,13.4864387 147.422759,13.2075472 146.914505,12.9268868 C146.427476,12.65625 145.941038,12.3826651 145.449882,12.1208726 C144.465212,11.598467 143.472877,11.089033 142.46816,10.5990566 C142.443396,10.5866745 142.419222,10.5737028 142.394458,10.5619104 C141.288915,10.0235849 140.170991,9.50412736 139.041863,9.0053066 C136.911557,8.0625 134.417453,9.02771226 133.475236,11.1603774" id="Fill-62" fill="#53B475" sketch:type="MSShapeGroup"></path>
            <path d="M175.035967,42.8673349 C173.106722,44.1757075 172.604363,46.8012972 173.913325,48.7305425 C179.256486,56.6043632 183.263561,65.1851415 185.877948,74.1892689 C188.571344,83.4209906 189.788325,93.0583726 189.420401,102.810142 C189.333137,105.139151 191.150354,107.099646 193.479953,107.1875 C193.533608,107.189269 193.587854,107.190448 193.641509,107.190448 C195.841981,107.190448 197.670991,105.491156 197.841981,103.297759 C197.89033,102.029481 197.916274,100.757665 197.916274,99.4829009 C197.916274,90.057783 196.580189,80.7965802 194.007075,71.9097877 C191.481132,63.2228774 187.764741,54.8637972 182.880896,47.0483491 C182.212264,45.9775943 181.523585,44.9227594 180.817807,43.8826651 C179.485849,42.0459906 176.928066,41.5831368 175.035967,42.8673349" id="Fill-63" fill="#54B36C" sketch:type="MSShapeGroup"></path>
            <path d="M184.674528,148.951651 C184.966981,148.443986 185.248231,147.929835 185.53184,147.416274 C185.799528,146.933962 186.070165,146.45283 186.329599,145.966392 C186.853184,144.979363 187.364387,143.98408 187.855542,142.977005 C187.866745,142.954599 187.878538,142.932193 187.889151,142.909788 C188.428066,141.803656 188.946934,140.685731 189.446344,139.556604 C190.387972,137.423939 189.423939,134.932193 187.291274,133.989387 C185.214033,133.069575 182.794222,133.96875 181.801297,135.991745 C181.322524,137.075472 180.820165,138.149764 180.298349,139.215212 C180.292453,139.227005 180.286557,139.238797 180.28066,139.25059 C179.827241,140.175118 179.360849,141.09316 178.87559,142.002948 C178.638561,142.449882 178.389151,142.888561 178.145047,143.330778 C177.886203,143.79717 177.632075,144.26592 177.364387,144.728184 C176.863208,145.599057 176.344929,146.458137 175.816038,147.310142 C175.794811,147.34375 175.775354,147.377358 175.754717,147.410967 C175.130896,148.411557 174.490566,149.400354 173.829599,150.373821 C172.633255,152.288915 173.151533,154.821344 175.035967,156.099646 C175.761792,156.591981 176.586085,156.82842 177.402123,156.82842 C178.754127,156.82842 180.082547,156.179835 180.899175,154.977005 C181.589033,153.959316 182.258844,152.931014 182.908608,151.893278 C182.939269,151.84434 182.967571,151.794811 182.998231,151.746462 C183.573703,150.823113 184.130896,149.89092 184.674528,148.951651" id="Fill-64" fill="#54B36C" sketch:type="MSShapeGroup"></path>
            <path d="M173.909198,48.7358491 C172.600236,46.8066038 173.106722,44.1757075 175.035967,42.8673349 C176.928066,41.5831368 179.485849,42.0459906 180.817807,43.8826651 C173.73408,33.4398585 164.810731,24.5566038 154.489976,17.5731132 C156.395637,18.8885613 156.887382,21.4964623 155.584906,23.415684 C154.308373,25.2983491 151.779481,25.817217 149.863797,24.6244104 C159.294222,31.026533 167.439858,39.1715802 173.909198,48.7358491" id="Fill-65" fill="#89C693" sketch:type="MSShapeGroup"></path>
            <path d="M193.641509,107.190448 C193.587854,107.190448 193.533608,107.189269 193.479953,107.1875 C191.150354,107.099646 189.329009,105.117925 189.416274,102.788915 C189.001179,114.335495 186.408019,125.558373 181.801297,135.991745 C182.794222,133.96875 185.214033,133.069575 187.291274,133.989387 C189.414505,134.927476 190.377948,137.401533 189.457547,139.527712 C194.504717,128.146816 197.363797,115.896226 197.841981,103.297759 C197.670991,105.491156 195.841981,107.190448 193.641509,107.190448" id="Fill-66" fill="#89C693" sketch:type="MSShapeGroup"></path>
            <path d="M177.402123,156.82842 C176.586085,156.82842 175.761792,156.591981 175.035967,156.099646 C173.151533,154.821344 172.633255,152.288915 173.829599,150.373821 C167.409198,159.831958 159.260613,167.983491 149.660377,174.462264 C149.691038,174.442217 149.630307,174.482901 149.660377,174.462264 C151.591981,173.152123 154.277123,173.622052 155.584906,175.550118 C156.863208,177.434552 156.410377,179.979363 154.590802,181.316038 C165.025354,174.23408 173.902123,165.314858 180.880896,155 C180.063679,156.1875 178.744693,156.82842 177.402123,156.82842" id="Fill-67" fill="#89C693" sketch:type="MSShapeGroup"></path>
            <path d="M91.2647406,193.992925 C91.3520047,191.676887 93.271816,189.847877 95.6049528,189.926887 C84.0819575,189.504127 72.8708726,186.912736 62.4581368,182.314858 C64.4823113,183.307193 65.3808962,185.725825 64.4622642,187.805425 C63.7647406,189.382665 62.2193396,190.321934 60.5990566,190.321934 C60.0383255,190.321934 59.4699292,190.208726 58.9239387,189.971698 C70.3130896,195.022995 82.5725236,197.882665 95.1804245,198.357901 C92.9204009,198.196344 91.1786557,196.274175 91.2647406,193.992925" id="Fill-68" fill="#88C8AB" sketch:type="MSShapeGroup"></path>
            <path d="M42.3525943,175.550118 C43.6291274,173.668632 46.1568396,173.148585 48.0725236,174.340212 C38.4705189,167.821344 30.2016509,159.492925 23.6774764,149.701651 C23.7954009,149.878538 23.9050708,150.060142 24.0247642,150.236439 C25.3337264,152.165684 24.8313679,154.790684 22.9021226,156.099646 C22.1757075,156.591981 21.3514151,156.82842 20.535967,156.82842 C19.2163915,156.82842 17.9239387,156.206958 17.1037736,155.060731 C24.1910377,165.514151 33.1208726,174.40566 43.4510613,181.395047 C41.5430425,180.080189 41.0495283,177.471108 42.3525943,175.550118" id="Fill-69" fill="#E8E979" sketch:type="MSShapeGroup"></path>
            <path d="M8.51768868,96.15625 L8.50825472,96.7470519 C8.85908019,84.9793632 11.4669811,73.5283019 16.1668632,62.9074292 C15.4516509,64.4304245 13.9386792,65.3372642 12.3502358,65.3378538 C11.7794811,65.3378538 11.2004717,65.2216981 10.6462264,64.9770047 C8.52417453,64.0389151 7.56014151,61.567217 8.47877358,59.442217 C3.42865566,70.8295991 0.568985849,83.0866745 0.09375,95.6916274 C0.256485849,93.4339623 2.16863208,91.6987028 4.45872642,91.7783019 C6.78832547,91.8667453 8.60554245,93.8266509 8.51768868,96.15625" id="Fill-70" fill="#89C693" sketch:type="MSShapeGroup"></path>
            <path d="M45.8496462,25.2676887 C44.4976415,25.2676887 43.1692217,24.6191038 42.3525943,23.415684 C41.0731132,21.5288915 41.5288915,18.9799528 43.3537736,17.6444575 C32.9150943,24.7287736 24.0347877,33.651533 17.0536557,43.9705189 C18.3661557,42.0589623 20.9787736,41.5625 22.9021226,42.8673349 C24.7794811,44.1409198 25.3001179,46.6586085 24.1214623,48.5713443 C30.6356132,38.9805425 38.9569575,30.7205189 48.7376179,24.2004717 C48.5648585,24.3154481 48.3879717,24.4215802 48.2158019,24.5383255 C47.4899764,25.03125 46.6650943,25.2676887 45.8496462,25.2676887" id="Fill-71" fill="#88C8AB" sketch:type="MSShapeGroup"></path>
            <path d="M139.027123,9 C127.639151,3.94929245 115.365566,1.08313679 102.758844,0.607900943 C105.017689,0.770636792 106.758844,2.69221698 106.672759,4.97287736 C106.584906,7.30188679 104.64092,9.11674528 102.295401,9.03183962 L101.70342,9.02240566 C113.446934,9.37205189 124.875,11.9693396 135.477005,16.6503538 C133.454009,15.6568396 132.556604,13.2399764 133.475236,11.1603774 C134.413325,9.03773585 136.903302,8.07841981 139.027123,9" id="Fill-72" fill="#88C8AB" sketch:type="MSShapeGroup"></path>
        </g>
    </g>
</svg>