<?xml version="1.0" encoding="UTF-8" standalone="no"?>
<svg width="230px" height="70px" viewBox="0 0 230 70" version="1.1" xmlns="http://www.w3.org/2000/svg" xmlns:xlink="http://www.w3.org/1999/xlink" xmlns:sketch="http://www.bohemiancoding.com/sketch/ns">
    <!-- Generator: Sketch 3.3.2 (12043) - http://www.bohemiancoding.com/sketch -->
    <title>hlogo</title>
    <desc>Created with Sketch.</desc>
    <defs></defs>
    <g id="Page-1" stroke="none" stroke-width="1" fill="none" fill-rule="evenodd" sketch:type="MSPage">
        <g id="hlogo" sketch:type="MSLayerGroup" transform="translate(0.000000, 0.074074)">
            <g id="Page-1" sketch:type="MSShapeGroup">
                <g id="水平" transform="translate(0.425926, 0.156918)">
                    <g id="Group" transform="translate(88.200590, 4.244182)" fill="#1A1918">
                        <path d="M0.718495575,7.54454277 L0.787699115,8.08188791 L6.42710915,7.35457227 L6.35790561,6.81722714 L4.0280531,7.11778761 L4.0280531,6.11705015 L6.29548672,6.11705015 L6.29548672,5.57495575 L4.0280531,5.57495575 L4.0280531,4.49212389 L6.19439528,4.49212389 L6.19439528,0.666932153 L1.31961652,0.666932153 L1.31961652,4.49212389 L3.4859587,4.49212389 L3.4859587,5.57495575 L1.21852508,5.57495575 L1.21852508,6.11705015 L3.4859587,6.11705015 L3.4859587,7.18766962 L0.718495575,7.54454277 L0.718495575,7.54454277 Z M4.0280531,1.20834809 L5.65297935,1.20834809 L5.65297935,3.9500295 L4.0280531,3.9500295 L4.0280531,1.20834809 L4.0280531,1.20834809 Z M1.86171092,1.20834809 L3.48663717,1.20834809 L3.48663717,3.9500295 L1.86171092,3.9500295 L1.86171092,1.20834809 L1.86171092,1.20834809 Z" id="Fill-14"></path>
                        <path d="M2.65212389,1.81286135 L2.14734513,2.00825958 L2.66637169,3.34687315 L3.17182891,3.15079646 L2.65212389,1.81286135" id="Fill-15"></path>
                        <path d="M4.84696165,3.34687315 L5.3659882,2.00825958 L4.86120944,1.81286135 L4.34218289,3.15079646 L4.84696165,3.34687315" id="Fill-16"></path>
                        <path d="M0.592300885,11.0230384 L1.05908555,11.2964601 C1.74705015,10.1233923 1.86510325,8.85058996 1.86578171,8.83837756 L1.32572272,8.79563419 C1.32504425,8.80648968 1.20902655,9.9707375 0.592300885,11.0230384" id="Fill-17"></path>
                        <path d="M2.70368732,8.92589971 C2.85566371,9.44289082 2.96964601,10.2034513 3.01781711,11.0121829 L3.55855457,10.9796165 C3.50834809,10.1322124 3.38622419,9.32823011 3.2240708,8.7739233 L2.70368732,8.92589971" id="Fill-18"></path>
                        <path d="M4.12303835,8.76713864 C4.29943953,9.29566373 4.45616519,10.080649 4.53079646,10.8154277 L5.06949852,10.760472 C4.98943953,9.97752216 4.82728614,9.16811212 4.63663717,8.59548674 L4.12303835,8.76713864" id="Fill-19"></path>
                        <path d="M5.58445428,8.53713864 C5.74117994,8.98696165 5.94268437,9.61182889 6.10823009,10.4673746 L6.64014749,10.3642478 C6.46713865,9.47477879 6.25884956,8.82548674 6.0960177,8.35870206 L5.58445428,8.53713864" id="Fill-20"></path>
                        <path d="M11.0366077,3.05309735 L11.0366077,2.51168142 L9.00595871,2.51168142 L9.00595871,0.633008849 L8.46454277,0.633008849 L8.46454277,6.10008849 L7.23448378,6.10008849 L7.23448378,10.2122714 L10.7828614,10.2122714 L10.7828614,6.10008849 L9.00595871,6.10008849 L9.00595871,3.05309735 L11.0366077,3.05309735 L11.0366077,3.05309735 Z M7.77589971,6.64150442 L10.2414455,6.64150442 L10.2414455,9.67085549 L7.77589971,9.67085549 L7.77589971,6.64150442 L7.77589971,6.64150442 Z" id="Fill-21"></path>
                        <path d="M24.1330384,1.27076696 L20.0873452,1.27076696 L20.0873452,0.0237463127 L19.5459292,0.0237463127 L19.5459292,1.27076696 L15.500236,1.27076696 L15.500236,1.81286135 L24.1330384,1.81286135 L24.1330384,1.27076696" id="Fill-22"></path>
                        <path d="M17.5139233,4.88156342 L22.1743068,4.88156342 L22.1743068,2.59106195 L17.5139233,2.59106195 L17.5139233,4.88156342 L17.5139233,4.88156342 Z M18.0553392,3.13247788 L21.6322124,3.13247788 L21.6322124,4.33946902 L18.0553392,4.33946902 L18.0553392,3.13247788 L18.0553392,3.13247788 Z" id="Fill-23"></path>
                        <path d="M15.6827434,6.30023599 L24.0706195,6.30023599 L24.0706195,7.40410029 L24.6127138,7.40410029 L24.6127138,5.75882006 L15.1413275,5.75882006 L15.1413275,7.40410029 L15.6827434,7.40410029 L15.6827434,6.30023599" id="Fill-24"></path>
                        <path d="M14.7919174,10.6824484 L14.9120059,11.210295 C18.3375812,10.4307375 18.7582301,8.02421829 18.7806195,7.02483776 L18.2385251,7.01330384 C18.2147788,8.09613569 17.7357817,10.0128024 14.7919174,10.6824484" id="Fill-25"></path>
                        <path d="M24.5272272,9.30109147 L24.2653392,10.00941 C24.2287021,10.1064307 24.1343953,10.1722419 24.03059,10.1722419 L21.6050738,10.1722419 C21.4422419,10.1722419 21.3092625,10.0385841 21.3092625,9.87507377 L21.3092625,6.98616519 L20.7678466,6.98616519 L20.7678466,9.87507377 C20.7678466,10.3371092 21.1437169,10.7136579 21.6050738,10.7136579 L24.03059,10.7136579 C24.3582891,10.7136579 24.6561357,10.5074042 24.7721534,10.1987021 L25.0347198,9.48902652 L24.5272272,9.30109147" id="Fill-26"></path>
                        <path d="M37.9228614,5.29780236 C37.0924188,4.01753687 36.1072862,2.74066371 35.6350738,2.24538348 L35.2429204,2.61989675 C35.4478171,2.83429204 35.7565191,3.20812685 36.1052508,3.66337758 L30.7487611,4.33980826 L32.8126548,0.437949852 L32.3336579,0.184882006 L30.0920059,4.42258112 L28.5905605,4.61187315 L28.6584071,5.14921829 L36.4790855,4.16205015 C36.8054277,4.60712389 37.1480531,5.09765487 37.4682891,5.59225664 L37.9228614,5.29780236" id="Fill-27"></path>
                        <path d="M30.1137169,11.2954425 L30.6551328,11.2954425 L30.6551328,10.5620206 L35.7890855,10.5620206 L35.7890855,11.2954425 L36.3305015,11.2954425 L36.3305015,6.87252212 L30.1137169,6.87252212 L30.1137169,11.2954425 L30.1137169,11.2954425 Z M30.6551328,7.41393805 L35.7890855,7.41393805 L35.7890855,10.0206047 L30.6551328,10.0206047 L30.6551328,7.41393805 L30.6551328,7.41393805 Z" id="Fill-28"></path>
                        <path d="M42.1239233,0.805 L43.5161357,2.21960177 L43.8967552,1.84508849 L42.5045428,0.430486725 L42.1239233,0.805" id="Fill-29"></path>
                        <path d="M43.5066371,4.66275812 L42.1151032,3.24815634 L41.7338053,3.62334809 L43.1260177,5.03794985 L43.5066371,4.66275812" id="Fill-30"></path>
                        <path d="M43.0194985,6.9729351 C42.8064601,7.79862831 42.4489085,9.18066373 41.6639233,11.2018142 L42.1619174,11.395177 C42.9584366,9.34485247 43.3349852,7.88886431 43.5371682,7.10659292 C43.5819469,6.93358407 43.6192625,6.7890708 43.6518289,6.67373156 L43.1375516,6.52853982 C43.1036283,6.64727138 43.0656342,6.79517699 43.0194985,6.9729351" id="Fill-31"></path>
                        <path d="M44.0005605,6.33314159 L44.3920354,6.41930678 C44.5589381,5.66349558 44.6722419,4.89818584 44.6729204,4.89004425 L44.2766962,4.83237463 C44.2753392,4.83983776 44.1640708,5.59089971 44.0005605,6.33314159" id="Fill-32"></path>
                        <path d="M45.1973746,4.92261062 L45.2109439,5.03387905 C45.240118,5.25845133 45.3011799,5.72523599 45.3215339,6.28564897 L45.7218289,6.27140118 C45.7007965,5.69266962 45.6383776,5.2129941 45.6092035,4.98231563 L45.5956342,4.87783186 L45.1973746,4.92261062" id="Fill-33"></path>
                        <path d="M46.1214455,4.85069322 C46.1947198,5.03048672 46.4199705,5.81275812 46.4667847,6.21780236 L46.8657227,6.17166667 C46.8134809,5.71980826 46.5766962,4.9049705 46.4925664,4.69871682 L46.1214455,4.85069322" id="Fill-34"></path>
                        <path d="M49.8326548,4.83576696 C49.6827138,5.70623894 49.5714455,6.08210915 49.5049558,6.24358407 L49.8747198,6.39691741 C49.9846313,6.13028024 50.0999705,5.64178466 50.2275222,4.90361357 L50.2376991,4.84797935 L49.8441888,4.76927728 L49.8326548,4.83576696" id="Fill-35"></path>
                        <path d="M50.8761357,6.24426254 L51.2771092,6.22933629 C51.2648968,5.90638643 51.2079056,5.42060472 51.1074926,4.78556047 L50.7119469,4.84797935 C50.809646,5.46741888 50.8652802,5.93691741 50.8761357,6.24426254" id="Fill-36"></path>
                        <path d="M52.0437758,4.66954277 L51.6631563,4.79641593 C51.7527138,5.06441003 51.9019764,5.51151918 52.0593805,6.18998525 L52.4494985,6.09974926 C52.2880236,5.4029646 52.1353687,4.94364307 52.0437758,4.66954277" id="Fill-37"></path>
                        <path d="M44.3207965,4.46057522 L46.3039528,4.01957227 L46.4830678,4.45853982 L46.8541888,4.30656342 L46.3534809,3.08125368 L45.9823599,3.23323009 L46.149941,3.6430236 L44.9029204,3.92051622 C45.8676991,2.77255162 46.5726254,1.57438053 46.6051918,1.51806785 L46.2591741,1.31588495 C46.2557817,1.32199115 46.1024484,1.58184366 45.8480236,1.96789085 L44.7712979,2.18771386 C45.2394395,1.26635693 45.6661947,0.332787611 45.6709439,0.321932153 L45.3059292,0.155707965 C45.3011799,0.167241888 44.7841888,1.2989233 44.2665191,2.29287611 L44.2719469,2.29626844 L44.350649,2.68231563 L45.5264307,2.44281711 C45.1797345,2.93877581 44.7346608,3.52836283 44.2461652,4.06367257 L44.2488791,4.06638643 L44.2332743,4.06977876 L44.3207965,4.46057522" id="Fill-38"></path>
                        <path d="M49.8672566,4.46057522 L51.850413,4.01957227 L52.029528,4.45853982 L52.400649,4.30656342 L51.899941,3.08125368 L51.5288201,3.23323009 L51.6964011,3.6430236 L50.4493805,3.92051622 C51.4141593,2.77255162 52.1190855,1.57438053 52.1516519,1.51806785 L51.8056342,1.31588495 C51.8022419,1.32199115 51.6489085,1.58184366 51.3944838,1.96789085 L50.3177581,2.18771386 C50.7858997,1.26635693 51.2126548,0.332787611 51.2174042,0.321932153 L50.8523894,0.155707965 C50.8469616,0.167241888 50.330649,1.2989233 49.8129794,2.29287611 L49.8184071,2.29558997 L49.8971092,2.68231563 L51.0722124,2.44281711 C50.7261947,2.93877581 50.2811209,3.52836283 49.7926254,4.06367257 L49.7953392,4.06638643 L49.780413,4.06977876 L49.8672566,4.46057522" id="Fill-39"></path>
                        <path d="M49.6650738,1.14151918 L48.4540118,1.14151918 L48.4540118,0.122463127 L48.0530384,0.122463127 L48.0530384,1.14151918 L46.8582596,1.14151918 L46.8582596,1.54249262 L49.6650738,1.54249262 L49.6650738,1.14151918" id="Fill-40"></path>
                        <path id="Fill-41" d="M47.2673746,2.11036873 L49.2471386,2.11036873 L49.2471386,2.51134219 L47.2673746,2.51134219 L47.2673746,2.11036873 L47.2673746,2.11036873 Z"></path>
                        <path id="Fill-42" d="M47.2673746,3.05411505 L49.2471386,3.05411505 L49.2471386,3.45508849 L47.2673746,3.45508849 L47.2673746,3.05411505 L47.2673746,3.05411505 Z"></path>
                        <path d="M47.3345428,6.07803835 L49.1887905,6.07803835 L49.1887905,4.2570354 L47.3345428,4.2570354 L47.3345428,6.07803835 L47.3345428,6.07803835 Z M47.7355162,4.65800885 L48.7878171,4.65800885 L48.7878171,5.6770649 L47.7355162,5.6770649 L47.7355162,4.65800885 L47.7355162,4.65800885 Z" id="Fill-43"></path>
                        <path d="M51.5722419,9.22544251 L45.4579056,9.22544251 L45.6234513,8.52458703 C45.630236,8.49676991 45.6553392,8.47709439 45.6838348,8.47709439 L51.3714159,8.47709439 L51.3714159,6.76125368 L44.8120059,6.76125368 L44.8120059,7.21582596 L50.9161652,7.21582596 L50.9161652,8.02252212 L45.3242478,8.02252212 C45.2957522,8.02252212 45.270649,8.04219764 45.2638643,8.07001475 L44.899528,9.61352509 C44.8913865,9.64744839 44.9171682,9.68001477 44.9517699,9.68001477 L51.2811799,9.68001477 L50.990118,10.9005752 C50.9717994,10.9141445 50.9602655,10.9236431 50.9419469,10.9378908 L48.7796755,10.9378908 L48.7796755,11.3924632 L50.9419469,11.3924632 C51.1753392,11.3924632 51.3782006,11.2323452 51.4317994,11.0057375 L51.7778171,9.55789082 C51.7981711,9.47715341 51.8090265,9.38284659 51.7581416,9.31771383 C51.7581416,9.31771383 51.7160767,9.22544251 51.5722419,9.22544251" id="Fill-44"></path>
                    </g>
                    <g id="Group-Copy-2" transform="translate(88.200590, 54.450672)" fill="#1A1918">
                        <path d="M23.6431858,1.75926254 L20.8764011,1.75926254 L20.8764011,0.783628318 C20.8764011,0.734778761 20.8370502,0.695427728 20.7882006,0.695427728 L20.180295,0.695427728 C20.1314455,0.695427728 20.0920944,0.734778761 20.0920944,0.783628318 L20.0920944,1.75926254 L17.4935693,1.75926254 L17.4935693,0.783628318 C17.4935693,0.734778761 17.4542183,0.695427728 17.4060472,0.695427728 L16.7974632,0.695427728 C16.7486135,0.695427728 16.7092625,0.734778761 16.7092625,0.783628318 L16.7092625,1.75926254 L13.9424778,1.75926254 C13.8943068,1.75926254 13.8542773,1.79861357 13.8542773,1.84746313 L13.8542773,2.45536873 C13.8542773,2.50353982 13.8943068,2.54289085 13.9424778,2.54289085 L16.7092625,2.54289085 L16.7092625,3.51852508 C16.7092625,3.56737463 16.7486135,3.60672566 16.7974632,3.60672566 L17.4060472,3.60672566 C17.4542183,3.60672566 17.4935693,3.56737463 17.4935693,3.51852508 L17.4935693,2.54289085 L20.0920944,2.54289085 L20.0920944,3.51852508 C20.0920944,3.56737463 20.1314455,3.60672566 20.180295,3.60672566 L20.7882006,3.60672566 C20.8370502,3.60672566 20.8764011,3.56737463 20.8764011,3.51852508 L20.8764011,2.54289085 L23.6431858,2.54289085 C23.6920354,2.54289085 23.7313865,2.50353982 23.7313865,2.45536873 L23.7313865,1.84746313 C23.7313865,1.79861357 23.6920354,1.75926254 23.6431858,1.75926254" id="Fill-45"></path>
                        <path d="M23.6431858,7.18156342 L22.0175812,7.18156342 L22.0175812,4.92973452 C22.0175812,4.85510325 21.9565191,4.7940413 21.8812095,4.7940413 L19.1836283,4.7940413 L19.1883776,3.70713865 C19.1890561,3.65218289 19.1442773,3.60740413 19.0893215,3.60740413 L18.5031268,3.60672566 C18.4488495,3.6060472 18.4040708,3.65082596 18.4040708,3.70578171 L18.4027138,4.7940413 L15.7933333,4.7940413 C15.7180236,4.7940413 15.6576401,4.85510325 15.6576401,4.92973452 L15.6576401,7.18156342 L13.9424778,7.18156342 C13.8943068,7.18156342 13.8542773,7.22091445 13.8542773,7.26976401 L13.8542773,7.87766962 C13.8542773,7.92651918 13.8943068,7.96587021 13.9424778,7.96587021 L18.1618584,7.96587021 C17.7344248,8.81598817 16.7119764,9.9931268 14.2742478,10.5589675 C14.2267552,10.569823 14.1955457,10.6166371 14.2064011,10.6641298 C14.2389675,10.8113569 14.3054572,11.1085251 14.3380236,11.2571092 C14.3488791,11.3052802 14.3984071,11.3358112 14.4472566,11.3242773 C17.1278761,10.7034809 18.3124778,9.37368731 18.8342183,8.37294985 C19.1971976,9.11519176 20.2420354,10.5637169 23.0081416,11.1566962 C23.0563127,11.1675516 23.1044838,11.1363421 23.1146608,11.0874926 L23.2367847,10.4931563 C23.2462831,10.4456637 23.2150738,10.399528 23.1675812,10.389351 C20.6016224,9.83707964 19.7521829,8.50253687 19.5079351,7.96587021 L23.6431858,7.96587021 C23.6920354,7.96587021 23.7313865,7.92651918 23.7313865,7.87766962 L23.7313865,7.26976401 C23.7313865,7.22091445 23.6920354,7.18156342 23.6431858,7.18156342 L23.6431858,7.18156342 L23.6431858,7.18156342 Z M21.1430384,5.57834809 C21.1925664,5.57834809 21.2325958,5.61837758 21.2325958,5.66790561 L21.2325958,7.18156342 L19.1727728,7.18156342 L19.180236,5.57834809 L21.1430384,5.57834809 L21.1430384,5.57834809 Z M16.4419469,5.66790561 C16.4419469,5.61837758 16.4819764,5.57834809 16.5315044,5.57834809 L18.4013569,5.57834809 L18.3993215,7.18156342 L16.4419469,7.18156342 L16.4419469,5.66790561 L16.4419469,5.66790561 Z" id="Fill-46"></path>
                        <path d="M7.03094395,1.61746313 L7.03094395,0.589587021 L6.29616519,0.589587021 L6.29616519,1.61746313 L4.14135693,1.61746313 L4.14135693,0.589587021 L3.40589971,0.589587021 L3.40589971,1.61746313 L0.28020649,1.61746313 L0.28020649,2.35292035 L3.40589971,2.35292035 L3.40589971,3.17725664 L4.14135693,3.17725664 L4.14135693,2.35292035 L6.29616519,2.35292035 L6.29616519,3.17725664 L7.03094395,3.17725664 L7.03094395,2.35292035 L10.1573156,2.35292035 L10.1573156,1.61746313 L7.03094395,1.61746313" id="Fill-47"></path>
                        <path d="M5.0620354,4.25873156 L5.20722714,3.86929204 C5.20722714,3.86929204 5.25064897,3.76209439 5.140059,3.76209439 L2.61141593,3.76209439 C2.75321534,3.50563421 2.8339528,3.31294985 2.87262537,3.21321534 C2.90654867,3.12705015 2.83463127,3.11551622 2.83463127,3.11551622 L2.25115044,2.93843658 C2.25115044,2.93843658 2.18737463,2.94725664 2.17041298,2.99067847 C2.06932153,3.24646018 1.63306785,4.18342183 0.408436579,5.27235989 C0.353480826,5.32120944 0.398259587,5.3639528 0.398259587,5.3639528 L0.801268437,5.82870206 C0.801268437,5.82870206 0.837227138,5.87415929 0.888790559,5.82938053 C1.45259587,5.33477876 1.86306785,4.86460177 2.16159292,4.45820059 L4.02533923,4.45820059 C4.08775812,4.45820059 4.12778761,4.52536873 4.09725664,4.57964601 C3.93849558,4.86188791 3.70985251,5.22079646 3.40318584,5.60752212 L2.78917404,4.98672566 L2.26675516,5.50439528 L2.91943953,6.16386431 C2.79188791,6.29820059 2.65551622,6.43321534 2.50896755,6.56687315 L1.84474926,5.89519174 L1.32165191,6.41286135 L1.93973452,7.03705015 C1.46887905,7.39120944 0.922713864,7.71890855 0.289705015,7.97943953 C0.261887905,7.99097345 0.248318584,8.02286135 0.259174042,8.05067847 L0.492566371,8.62669621 C0.504778761,8.65722717 0.540058997,8.67215341 0.570589971,8.6592625 C3.89846608,7.28740413 5.05050148,4.28926254 5.0620354,4.25873156" id="Fill-48"></path>
                        <path d="M8.09138643,6.42846608 L9.37436581,3.98123894 C9.42660767,3.88150442 9.35401183,3.76209439 9.24206487,3.76209439 L5.6760472,3.76209439 C5.58241888,3.76209439 5.61973452,3.86929204 5.61973452,3.86929204 L5.74050148,4.24312685 C5.97050148,4.95212389 6.94070796,7.35117994 9.77805312,8.44893805 L10.0433333,7.76300885 C9.16064896,7.48348082 8.2779646,6.6720354 8.10088495,6.50309735 C8.07985251,6.48274336 8.07781711,6.45424778 8.09138643,6.42846608 L8.09138643,6.42846608 L8.09138643,6.42846608 Z M7.45023599,5.8639823 C7.08182891,5.39991151 6.83079646,4.94737463 6.66525074,4.58778761 C6.64557522,4.54436579 6.67949852,4.49755162 6.72699115,4.49755162 L8.16533923,4.49755162 C8.21418879,4.49755162 8.24539823,4.54979351 8.22300885,4.59321534 L7.56218289,5.85448378 C7.53979351,5.89654867 7.47941003,5.90129794 7.45023599,5.8639823 L7.45023599,5.8639823 L7.45023599,5.8639823 Z" id="Fill-49"></path>
                        <path d="M4.02941003,6.46646018 L4.02941003,7.08386431 C4.02941003,7.11643068 4.05587021,7.14289085 4.08843658,7.14289085 L6.43117994,7.14289085 C6.46374632,7.14289085 6.49020649,7.11643068 6.49020649,7.08386431 L6.49020649,6.46646018 C6.49020649,6.43389381 6.46374632,6.40743363 6.43117994,6.40743363 L4.08843658,6.40743363 C4.05587021,6.40743363 4.02941003,6.43389381 4.02941003,6.46646018" id="Fill-50"></path>
                        <path d="M7.79828908,8.73389384 C7.83085545,8.73389384 7.85731563,8.70743362 7.85731563,8.67486724 L7.85731563,8.05746313 C7.85731563,8.02489675 7.83085545,7.99843658 7.79828908,7.99843658 L2.79460177,7.99843658 C2.7620354,7.99843658 2.73557522,8.02489675 2.73557522,8.05746313 L2.73557522,8.67486724 C2.73557522,8.70743362 2.7620354,8.73389384 2.79460177,8.73389384 L4.93923304,8.73389384 L4.93923304,10.6010325 C4.93923304,10.6546313 4.89581121,10.6980531 4.84221239,10.6980531 L4.34014749,10.6980531 C4.28654867,10.6980531 4.24380531,10.7407965 4.24380531,10.7943953 L4.24380531,11.3364897 C4.24380531,11.38941 4.28654867,11.4328318 4.34014749,11.4328318 L5.34902655,11.4328318 C5.52882006,11.4328318 5.6740118,11.2869616 5.6740118,11.1078466 L5.6740118,8.73389384 L7.79828908,8.73389384" id="Fill-51"></path>
                        <path d="M9.43135691,10.7564011 L7.25619469,9.36961648 C7.22227138,9.34858409 7.17749262,9.35808258 7.15646018,9.39200587 L6.83893805,9.89 C6.81722714,9.9239233 6.82740413,9.96870208 6.86064897,9.99041297 L9.03648968,11.3765191 C9.06973447,11.3982301 9.11451326,11.3880531 9.13622415,11.3541298 L9.45374631,10.8561357 C9.4754572,10.8222124 9.46528021,10.7774336 9.43135691,10.7564011" id="Fill-52"></path>
                        <path d="M3.09176991,9.26038352 C3.070059,9.22713864 3.02460177,9.21764015 2.99135693,9.24002954 L0.764631268,10.7258702 C0.731386431,10.7482596 0.722566371,10.7930384 0.744277286,10.8262831 L1.0719764,11.3174926 C1.09436579,11.3507375 1.13914455,11.360236 1.17238938,11.3378466 L3.39979351,9.85200587 C3.43303835,9.82961648 3.44185841,9.78483778 3.41946902,9.7515929 L3.09176991,9.26038352" id="Fill-53"></path>
                        <path d="M36.619528,2.61684366 L27.3794985,2.61684366 C27.329292,2.61684366 27.2885841,2.65755162 27.2885841,2.70775812 L27.2885841,3.33330384 C27.2885841,3.38351032 27.329292,3.42421829 27.3794985,3.42421829 L36.619528,3.42421829 C36.6697345,3.42421829 36.7104425,3.38351032 36.7104425,3.33330384 L36.7104425,2.70775812 C36.7104425,2.65755162 36.6697345,2.61684366 36.619528,2.61684366" id="Fill-54"></path>
                        <path d="M31.6864011,1.80539823 L32.3119469,1.80539823 C32.3621534,1.80539823 32.4028614,1.76469027 32.4028614,1.71448378 L32.4028614,0.482389381 C32.4028614,0.432182891 32.3621534,0.391474926 32.3119469,0.391474926 L31.6864011,0.391474926 C31.6368732,0.391474926 31.5954867,0.432182891 31.5954867,0.482389381 L31.5954867,1.71448378 C31.5954867,1.76469027 31.6368732,1.80539823 31.6864011,1.80539823" id="Fill-55"></path>
                        <path d="M36.5408259,10.1539233 C35.0264897,9.49716818 33.6973746,8.60702064 32.5609439,7.49569322 C33.3126844,6.66864307 33.9762242,5.74050148 34.5447788,4.7119469 C34.569882,4.66784661 34.5529204,4.61085545 34.5088201,4.58643068 L33.959941,4.28722714 C33.9158407,4.26348082 33.8615634,4.27976401 33.8371386,4.32318584 C33.309292,5.27846608 32.6946018,6.14011799 31.9991741,6.91085545 C31.3044248,6.14011799 30.6897345,5.27846608 30.1612095,4.32318584 C30.1374632,4.27976401 30.0831858,4.26348082 30.0390855,4.28722714 L29.4902065,4.58643068 C29.4461062,4.61085545 29.4291445,4.66784661 29.4542478,4.7119469 C30.0228024,5.74050148 30.6863421,6.66864307 31.4380826,7.49569322 C30.3016519,8.60702064 28.9725368,9.49716818 27.4582006,10.1539233 C27.4120649,10.1735989 27.3910325,10.2265191 27.410708,10.2719764 L27.6556342,10.8473156 C27.6759882,10.8941298 27.7302655,10.9158407 27.7770796,10.8954867 C29.3836873,10.1987021 30.7935399,9.25495577 31.9991741,8.07713865 C33.2054867,9.25495577 34.6153392,10.1987021 36.2219469,10.8954867 C36.2687611,10.9158407 36.3230384,10.8941298 36.3433923,10.8473156 L36.5883186,10.2719764 C36.6079941,10.2265191 36.5862831,10.1735989 36.5408259,10.1539233" id="Fill-56"></path>
                    </g>
                    <g id="Logo" transform="translate(0.000000, 0.851852)">
                        <path d="M20.9347492,64.5750442 C21.4829498,64.5750442 22.0053687,64.2575222 22.2407965,63.7242478 C22.5515339,63.0213569 22.2475812,62.2031268 21.5636873,61.8679646 C21.1973156,61.7058112 20.8350148,61.5361947 20.4747492,61.360472 C20.4693215,61.3577581 20.4638938,61.3543658 20.4577876,61.3516519 C20.1470502,61.1989971 19.8383481,61.0422714 19.5330384,60.8794395 C19.3790265,60.7980236 19.2277286,60.7118584 19.0757522,60.6277286 C18.9210619,60.5422419 18.7650148,60.4574336 18.6116814,60.3685545 C18.3138348,60.1975812 18.020059,60.019823 17.7283186,59.8386725 C17.7208555,59.8339233 17.7127138,59.8298525 17.7052508,59.8244248 C17.3653392,59.6134219 17.0294985,59.3956342 16.6990855,59.1717404 C16.0518289,58.7687315 15.1969616,58.9444543 14.7654572,59.5808555 C14.3230973,60.2328614 14.4927138,61.120295 15.1453982,61.5626548 C15.490059,61.7974042 15.8387905,62.0246902 16.1909145,62.2445133 C16.2010915,62.2506195 16.21059,62.2567257 16.2200885,62.2628318 C16.5389675,62.4616224 16.8605605,62.6536283 17.1848672,62.8408849 C17.3510915,62.9365487 17.5200295,63.0288201 17.6876106,63.1217699 C17.8565487,63.2153982 18.0241298,63.309705 18.1944248,63.4006195 C18.5234809,63.5756637 18.8559292,63.7459587 19.1917699,63.9101475 C19.2039823,63.9155752 19.2155162,63.9216814 19.2270502,63.9277876 C19.6002065,64.1089381 19.9774336,64.2846608 20.3587315,64.4529204 C20.5459882,64.5356932 20.7420649,64.5750442 20.9347492,64.5750442" id="Fill-57" fill="#A7CD6A"></path>
                        <path d="M14.7654572,8.14091445 C15.0415929,8.54799413 15.4907375,8.76713864 15.9480236,8.76713864 C16.2234809,8.76713864 16.5023304,8.68707964 16.7479351,8.52085549 C19.6035989,6.58315634 22.7320059,5.15973452 26.0191741,4.28519174 C28.9386135,3.50563421 31.9713569,3.16233038 35.0332743,3.27766962 C35.8264011,3.30616519 36.4838348,2.69283186 36.5136873,1.90513275 C36.5421829,1.13371682 35.9539528,0.484424778 35.19,0.429469027 C34.7639233,0.413185841 34.3364897,0.404365781 33.9083776,0.404365781 C30.8010029,0.404365781 27.7458702,0.834513275 24.809469,1.66224188 C21.7923304,2.51643068 18.8891741,3.79533923 16.1793805,5.48879056 C15.8157227,5.7160767 15.4574926,5.95014749 15.1040118,6.18964601 C14.4866077,6.64150442 14.3325958,7.50315634 14.7654572,8.14091445" id="Fill-58" fill="#50B584"></path>
                        <path d="M53.0512979,59.5808555 C52.6089381,58.9288495 51.7221829,58.7578761 51.0688201,59.2009145 C48.5137169,60.9350738 45.7401475,62.2560472 42.829528,63.140767 C39.5966371,64.1286135 36.2110915,64.5743658 32.7834809,64.4441003 C31.9889971,64.410177 31.3335989,65.0289381 31.3037463,65.8166371 C31.2745723,66.5873746 31.8634809,67.2373452 32.6274336,67.2923009 C33.0535103,67.3085841 33.4802655,67.3167257 33.9083776,67.3167257 C35.9953392,67.3167257 38.0585545,67.1247198 40.0783481,66.7481711 C40.1265191,66.739351 40.1740118,66.7291741 40.2221829,66.720354 C40.5559882,66.6565781 40.8884366,66.5873746 41.2202065,66.5134219 C41.3246902,66.490354 41.4284956,66.4652508 41.5323009,66.4415044 C41.8016519,66.3784071 42.0703245,66.3119174 42.3376401,66.2427138 C42.4916519,66.2026844 42.6449852,66.1612979 42.7983186,66.119233 C43.0093215,66.0608849 43.219646,66.0005015 43.4299705,65.9380826 C43.6294395,65.8790561 43.8282301,65.8186725 44.0263421,65.7555752 C44.1823894,65.7060472 44.3377581,65.6544838 44.4938053,65.6029204 C44.7360177,65.5215044 44.9789085,65.4387315 45.219764,65.3518879 C45.3222124,65.3152508 45.4246608,65.2765781 45.5264307,65.2385841 C45.8120649,65.1327434 46.0970206,65.0241888 46.379941,64.9102065 C46.4274336,64.8912095 46.4742478,64.8715339 46.5217404,64.8518584 C48.2857522,64.1313275 49.9975222,63.2581416 51.6373746,62.2329794 C52.0017109,62.0050148 52.3612979,61.7702655 52.7154572,61.5300885 C53.3301475,61.0782301 53.4834809,60.2172566 53.0512979,59.5808555" id="Fill-59" fill="#53B475"></path>
                        <path d="M7.38849558,53.2500885 C7.66463127,53.2500885 7.94348082,53.170708 8.18908555,53.0038053 C8.84109147,52.5614455 9.01070796,51.6733333 8.5683481,51.0213275 C6.73377581,48.3183186 5.3659882,45.3690265 4.48262537,42.2738643 C3.60061947,39.1949852 3.20235989,35.9844838 3.32516224,32.7359882 C3.35501475,31.9482891 2.74032448,31.2854277 1.95262537,31.2555752 C1.17849558,31.2284366 0.531917404,31.8153098 0.476961652,32.5785841 C0.460678466,33.0053392 0.452536873,33.4320944 0.452536873,33.8608849 C0.452536873,37.0184661 0.896253684,40.1210915 1.75044248,43.1009145 C2.60463127,46.0678466 3.86929204,48.9221534 5.53628318,51.589882 C5.76085545,51.949469 5.99153392,52.3036283 6.22831858,52.6523599 C6.50581121,53.0404425 6.94274336,53.2500885 7.38849558,53.2500885" id="Fill-60" fill="#81C063"></path>
                        <path d="M4.04501475,22.1933038 C4.23227138,22.2760767 4.42834809,22.3154277 4.62103245,22.3154277 C5.15837758,22.3154277 5.669941,22.0087611 5.91147492,21.4938053 C6.06955752,21.1369322 6.23442478,20.7834513 6.40675516,20.4320059 C6.41421829,20.4170796 6.42235989,20.4021534 6.42982301,20.3865487 C6.57772862,20.0859882 6.72902655,19.7867847 6.88710915,19.490295 C6.9739528,19.3254277 7.06622419,19.1639528 7.15578171,19.0017994 C7.23651918,18.8572862 7.31454277,18.7127728 7.39731563,18.5696165 C7.77522124,17.9128614 8.17687315,17.2710325 8.60091449,16.6468437 C8.99985247,15.999587 8.82345133,15.1487905 8.18908555,14.7179646 C7.53640118,14.2749262 6.64896755,14.4452212 6.20660767,15.0972272 C5.97117994,15.4439233 5.74321534,15.7940118 5.52135693,16.1481711 C5.52135693,16.1488495 5.52135693,16.1488495 5.52067847,16.149528 C5.31578171,16.4772272 5.11834809,16.8083186 4.92566371,17.1421239 C4.83474926,17.2988495 4.74790561,17.4582891 4.66038348,17.6170502 C4.56132743,17.7948082 4.46159292,17.9718879 4.3659292,18.1510029 C4.19563421,18.4725958 4.03008849,18.7962242 3.8699705,19.1232448 C3.85979351,19.1435989 3.84961652,19.1632743 3.83943953,19.1836283 C3.65828908,19.5554277 3.4839233,19.9312979 3.31634219,20.3112389 C2.99746313,21.0324484 3.32380531,21.8751032 4.04501475,22.1933038" id="Fill-61" fill="#53B475"></path>
                        <path d="M45.5752802,3.99752212 C45.2652212,4.70041298 45.5684956,5.5179646 46.2523894,5.85312685 C46.6187611,6.01528024 46.9817404,6.18489675 47.3426844,6.36129794 C47.3467552,6.3640118 47.3515044,6.3660472 47.3555752,6.36808259 C47.6676696,6.52141593 47.9770502,6.67814159 48.2843953,6.84233038 C48.4377286,6.92374632 48.5883481,7.00923304 48.7403245,7.09268437 C48.8950148,7.17952802 49.0510619,7.26365781 49.2050738,7.35253687 C49.5035989,7.52418879 49.7973746,7.7019469 50.0891151,7.88309735 C50.0965781,7.88784661 50.1040413,7.89191741 50.1115044,7.89666667 C50.4514159,8.10834809 50.7865781,8.32545723 51.1169912,8.55002954 C51.7649262,8.95303835 52.6197935,8.77731563 53.0512979,8.14091445 C53.4943363,7.48890855 53.3240413,6.60079646 52.6720354,6.15843658 C52.3273746,5.92504425 51.9793215,5.69775812 51.6278761,5.4779351 C51.6143068,5.46979351 51.5993805,5.46097345 51.5858112,5.45215339 C51.2710029,5.2560767 50.9534809,5.06678466 50.6339233,4.88156342 C50.4643068,4.78386431 50.2919764,4.68955752 50.119646,4.59457227 C49.9547788,4.50297935 49.79059,4.41070796 49.6243658,4.32182891 C49.2919174,4.14542773 48.9560767,3.97309735 48.6161652,3.80755162 C48.6080236,3.80348082 48.599882,3.79873156 48.5917404,3.79466077 C48.2172272,3.61283186 47.84,3.43710915 47.4580236,3.26884956 C46.7374926,2.9499705 45.8941593,3.27631268 45.5752802,3.99752212" id="Fill-62" fill="#53B475"></path>
                        <path d="M59.6283481,14.7179646 C58.9756637,15.1603245 58.8060472,16.0477581 59.2484071,16.7004425 C61.0551622,19.3627434 62.410059,22.2638643 63.2941003,25.3081416 C64.2046018,28.429764 64.6164307,31.6884366 64.4915929,34.9857817 C64.4624188,35.7734809 65.0764307,36.4356637 65.8641298,36.4655162 C65.8824484,36.4661947 65.900767,36.4668732 65.9190855,36.4668732 C66.6633629,36.4668732 67.2814455,35.8922124 67.3391151,35.150649 C67.3553982,34.7218584 67.3642183,34.2917109 67.3642183,33.8608849 C67.3642183,30.6741298 66.9123599,27.5423304 66.0425664,24.5380826 C65.1883776,21.6003245 63.9318584,18.7738348 62.280472,16.1318879 C62.0545428,15.769587 61.8218289,15.4127138 61.5830088,15.0612685 C61.1325074,14.440472 60.2681416,14.2837463 59.6283481,14.7179646" id="Fill-63" fill="#54B36C"></path>
                        <path d="M62.8870206,50.5871092 C62.9860767,50.4154572 63.0810619,50.2417699 63.1767257,50.0680826 C63.2676401,49.9045723 63.359233,49.7424188 63.4467552,49.5775516 C63.6238348,49.2437463 63.7968437,48.9072272 63.9630678,48.5666371 C63.9664601,48.5591741 63.970531,48.5517109 63.9739233,48.5442478 C64.1564307,48.170413 64.3321534,47.7925074 64.500413,47.410531 C64.819292,46.6893215 64.4929498,45.8466667 63.7717404,45.5277876 C63.069528,45.2170502 62.2512979,45.5210029 61.9154572,46.2048968 C61.7539823,46.5712685 61.5836873,46.9349262 61.4072862,47.2951918 C61.4052508,47.2992625 61.4032153,47.3026548 61.4011799,47.3067257 C61.2485251,47.6194985 61.0904425,47.930236 60.9262537,48.2375812 C60.8461947,48.3888791 60.7620649,48.5367847 60.679292,48.6867257 C60.5917699,48.8441298 60.5062831,49.0028908 60.4153687,49.1589381 C60.2457522,49.4533923 60.070708,49.7437758 59.8915929,50.0321239 C59.8848082,50.0436579 59.8780236,50.0551918 59.8712389,50.0660472 C59.660236,50.4046018 59.4438053,50.7384071 59.22059,51.0681416 C58.8155457,51.7153982 58.9912685,52.5716224 59.6283481,53.0038053 C59.8739528,53.170708 60.1521239,53.2500885 60.4282596,53.2500885 C60.8855457,53.2500885 61.3346902,53.0309439 61.6108259,52.6245428 C61.8442183,52.2805605 62.0701475,51.9325074 62.2899705,51.5817404 C62.3001475,51.5654572 62.3103245,51.5484956 62.3205015,51.5322124 C62.5145428,51.220118 62.7031563,50.9046313 62.8870206,50.5871092" id="Fill-64" fill="#54B36C"></path>
                        <path d="M59.2470502,16.7024778 C58.8046902,16.0497935 58.9756637,15.1603245 59.6283481,14.7179646 C60.2681416,14.2837463 61.1325074,14.440472 61.5830088,15.0612685 C59.1880236,11.530531 56.1708849,8.52696165 52.6808555,6.16589971 C53.3253982,6.61029498 53.4916224,7.49162242 53.0512979,8.14091445 C52.6197935,8.77731563 51.7649262,8.95303835 51.1169912,8.55002954 C54.3057817,10.7143363 57.0596755,13.4682301 59.2470502,16.7024778" id="Fill-65" fill="#89C693"></path>
                        <path d="M65.9190855,36.4668732 C65.900767,36.4668732 65.8824484,36.4661947 65.8641298,36.4655162 C65.0764307,36.4356637 64.4610619,35.7660177 64.490236,34.9783186 C64.3497935,38.8828908 63.4732153,42.6775516 61.9154572,46.2048968 C62.2512979,45.5210029 63.069528,45.2170502 63.7717404,45.5277876 C64.4895575,45.8453098 64.8158997,46.6818584 64.5044838,47.400354 C66.2108259,43.5527728 67.1776401,39.410059 67.3391151,35.150649 C67.2814455,35.8922124 66.6633629,36.4668732 65.9190855,36.4668732" id="Fill-66" fill="#89C693"></path>
                        <path d="M60.4282596,53.2500885 C60.1521239,53.2500885 59.8739528,53.170708 59.6283481,53.0038053 C58.9912685,52.5716224 58.8155457,51.7153982 59.22059,51.0681416 C57.0494985,54.2657522 54.2942478,57.0223599 51.0484661,59.2124484 C51.0586431,59.2056637 51.0382891,59.2199115 51.0484661,59.2124484 C51.7011505,58.76941 52.6089381,58.9288495 53.0512979,59.5808555 C53.4834809,60.2172566 53.3301475,61.0782301 52.7154572,61.5300885 C56.2434809,59.1357817 59.2450148,56.12 61.6047198,52.6320059 C61.3279056,53.0336579 60.8821534,53.2500885 60.4282596,53.2500885" id="Fill-67" fill="#89C693"></path>
                        <path d="M31.3037463,65.8166371 C31.3329204,65.0330088 31.9822124,64.4149262 32.7712685,64.4413865 C28.8748378,64.2989085 25.0842478,63.4223304 21.5636873,61.8679646 C22.2475812,62.2031268 22.5515339,63.0213569 22.2407965,63.7242478 C22.0053687,64.2575222 21.4829498,64.5750442 20.9347492,64.5750442 C20.7454572,64.5750442 20.5527728,64.5370502 20.3682301,64.4569912 C24.2192035,66.1646902 28.3646313,67.1315044 32.6274336,67.2923009 C31.8634809,67.2373452 31.2745723,66.5873746 31.3037463,65.8166371" id="Fill-68" fill="#88C8AB"></path>
                        <path d="M14.7654572,59.5808555 C15.1969616,58.9444543 16.0518289,58.7687315 16.6990855,59.1717404 C13.4526254,56.9674042 10.6566667,54.1510915 8.45097345,50.8408555 C8.49100295,50.9005605 8.52831856,50.9616224 8.5683481,51.0213275 C9.01070796,51.6733333 8.84109147,52.5614455 8.18908555,53.0038053 C7.94348082,53.170708 7.66463127,53.2500885 7.38849558,53.2500885 C6.94274336,53.2500885 6.50581121,53.0404425 6.22831858,52.6523599 C8.62466079,56.1871682 11.6438348,59.1934513 15.1365781,61.5565487 C14.4913569,61.1121534 14.3251328,60.2301475 14.7654572,59.5808555" id="Fill-69" fill="#E8E979"></path>
                        <path d="M3.32516224,32.7359882 L3.32176991,32.9354572 C3.44050148,28.9569322 4.32250738,25.0849262 5.91147492,21.4938053 C5.669941,22.0087611 5.15837758,22.3154277 4.62103245,22.3154277 C4.42834809,22.3154277 4.23227138,22.2760767 4.04501475,22.1933038 C3.32719764,21.8764601 3.00153392,21.04059 3.31227138,20.3220944 C1.60457227,24.1723894 0.637758112,28.3171386 0.476961652,32.5785841 C0.531917404,31.8153098 1.17849558,31.2284366 1.95262537,31.2555752 C2.74032448,31.2854277 3.35501475,31.9482891 3.32516224,32.7359882" id="Fill-70" fill="#89C693"></path>
                        <path d="M15.9480236,8.76713864 C15.4907375,8.76713864 15.0415929,8.54799413 14.7654572,8.14091445 C14.3325958,7.50315634 14.4866077,6.64150442 15.1040118,6.18964601 C11.5746313,8.58463125 8.57174043,11.6017699 6.21135693,15.0911209 C6.65507375,14.4445428 7.53843658,14.2769616 8.18908555,14.7179646 C8.82345133,15.1487905 8.99985247,15.999587 8.60091449,16.6468437 C10.8038938,13.4037758 13.6174926,10.610531 16.9243363,8.40619469 C16.8659882,8.44554572 16.8062831,8.48150442 16.7479351,8.52085549 C16.5023304,8.68707964 16.2234809,8.76713864 15.9480236,8.76713864" id="Fill-71" fill="#88C8AB"></path>
                        <path d="M47.4532743,3.26681416 C43.6023009,1.55911505 39.4521239,0.590265487 35.19,0.429469027 C35.9539528,0.484424778 36.5421829,1.13371682 36.5136873,1.90513275 C36.4838348,2.69283186 35.8264011,3.30616519 35.0332743,3.27766962 L34.8331268,3.27427728 C38.8035103,3.39233038 42.6680531,4.27094395 46.2523894,5.85312685 C45.5684956,5.5179646 45.2652212,4.70041298 45.5752802,3.99752212 C45.8928024,3.27970502 46.7347788,2.95539823 47.4532743,3.26681416" id="Fill-72" fill="#88C8AB"></path>
                    </g>
                    <path d="M94.4255161,31.8844056 L94.4255161,30.6224587 L91.1383484,30.6224587 L91.1383484,24.6383879 L89.7237462,24.6383879 L89.7237462,31.8844056 L94.4255161,31.8844056 L94.4255161,31.8844056 Z M101.060915,31.8844056 L101.060915,24.6383879 L99.6463125,24.6383879 L99.6463125,31.8844056 L101.060915,31.8844056 L101.060915,31.8844056 Z M111.980826,28.9127241 L111.980826,27.854317 L109.243215,27.854317 L109.243215,29.0450251 L110.576401,29.0450251 L110.576401,29.3096268 C110.576401,29.6861755 110.484809,30.0118392 110.250738,30.276441 C110.026844,30.5308657 109.680826,30.6835206 109.243215,30.6835206 C108.85649,30.6835206 108.55118,30.5410427 108.337463,30.306972 C108.072862,30.0016622 107.991445,29.6454675 107.991445,28.2613968 C107.991445,26.8773259 108.072862,26.5313082 108.337463,26.2259985 C108.55118,25.9919277 108.85649,25.8392728 109.243215,25.8392728 C109.965781,25.8392728 110.383038,26.2056445 110.54587,26.8976799 L111.970649,26.8976799 C111.777286,25.676441 110.932596,24.5773259 109.243215,24.5773259 C108.418879,24.5773259 107.808259,24.8521047 107.309587,25.3406003 C106.587021,26.0631667 106.576844,26.8773259 106.576844,28.2613968 C106.576844,29.6454675 106.587021,30.4596268 107.309587,31.1821932 C107.808259,31.6706887 108.418879,31.9454675 109.243215,31.9454675 C110.016667,31.9454675 110.688348,31.7521047 111.288791,31.1211312 C111.817994,30.5715738 111.980826,29.9609543 111.980826,28.9127241 L111.980826,28.9127241 L111.980826,28.9127241 Z M122.778614,31.8844056 L122.778614,24.6383879 L121.364011,24.6383879 L121.364011,27.5998923 L118.911357,27.5998923 L118.911357,24.6383879 L117.496755,24.6383879 L117.496755,31.8844056 L118.911357,31.8844056 L118.911357,28.8516622 L121.364011,28.8516622 L121.364011,31.8844056 L122.778614,31.8844056 L122.778614,31.8844056 Z M133.199852,25.9003348 L133.199852,24.6383879 L127.99941,24.6383879 L127.99941,25.9003348 L129.89233,25.9003348 L129.89233,31.8844056 L131.306932,31.8844056 L131.306932,25.9003348 L133.199852,25.9003348 L133.199852,25.9003348 Z M150.073304,29.4012197 L150.073304,24.6383879 L148.668879,24.6383879 L148.668879,29.3503348 C148.668879,30.1848481 148.170206,30.6835206 147.406932,30.6835206 C146.643658,30.6835206 146.155162,30.1848481 146.155162,29.3503348 L146.155162,24.6383879 L144.740561,24.6383879 L144.740561,29.4012197 C144.740561,30.9379454 145.921092,31.9454675 147.406932,31.9454675 C148.892773,31.9454675 150.073304,30.9379454 150.073304,29.4012197 L150.073304,29.4012197 L150.073304,29.4012197 Z M160.921976,26.8976799 C160.921976,25.666264 160.036579,24.6383879 158.530384,24.6383879 L155.721534,24.6383879 L155.721534,31.8844056 L157.136135,31.8844056 L157.136135,29.156972 L158.530384,29.156972 C160.036579,29.156972 160.921976,28.1290958 160.921976,26.8976799 L160.921976,26.8976799 L160.921976,26.8976799 Z M159.507375,26.8976799 C159.507375,27.4879454 159.100295,27.8848481 158.459145,27.8848481 L157.136135,27.8848481 L157.136135,25.9003348 L158.459145,25.9003348 C159.100295,25.9003348 159.507375,26.3074144 159.507375,26.8976799 L159.507375,26.8976799 L159.507375,26.8976799 Z M177.276401,25.9003348 L177.276401,24.6383879 L172.075958,24.6383879 L172.075958,25.9003348 L173.968879,25.9003348 L173.968879,31.8844056 L175.383481,31.8844056 L175.383481,25.9003348 L177.276401,25.9003348 L177.276401,25.9003348 Z M187.382153,31.8844056 L184.736135,24.6383879 L183.626844,24.6383879 L180.991003,31.8844056 L182.466667,31.8844056 L182.904277,30.6021047 L185.479056,30.6021047 L185.90649,31.8844056 L187.382153,31.8844056 L187.382153,31.8844056 Z M185.102508,29.4113968 L183.30118,29.4113968 L184.217109,26.7755561 L185.102508,29.4113968 L185.102508,29.4113968 Z M193.763127,31.8844056 L193.763127,24.6383879 L192.348525,24.6383879 L192.348525,31.8844056 L193.763127,31.8844056 L193.763127,31.8844056 Z M207.644543,24.6383879 L206.168879,24.6383879 L205.039233,29.2078569 L203.716224,24.6383879 L202.657817,24.6383879 L201.334809,29.2078569 L200.215339,24.6383879 L198.739675,24.6383879 L200.673304,31.8844056 L201.853835,31.8844056 L203.187021,27.4879454 L204.520206,31.8844056 L205.700738,31.8844056 L207.644543,24.6383879 L207.644543,24.6383879 Z M218.014897,31.8844056 L215.368879,24.6383879 L214.259587,24.6383879 L211.623746,31.8844056 L213.09941,31.8844056 L213.537021,30.6021047 L216.111799,30.6021047 L216.539233,31.8844056 L218.014897,31.8844056 L218.014897,31.8844056 Z M215.735251,29.4113968 L213.933923,29.4113968 L214.849852,26.7755561 L215.735251,29.4113968 L215.735251,29.4113968 Z M228.527728,31.8844056 L228.527728,24.6383879 L227.113127,24.6383879 L227.113127,29.0755561 L224.243215,24.6383879 L222.981268,24.6383879 L222.981268,31.8844056 L224.39587,31.8844056 L224.39587,27.4370604 L227.265781,31.8844056 L228.527728,31.8844056 L228.527728,31.8844056 Z" id="LIGHT-UP-TAIWAN" fill="#2E2E31"></path>
                </g>
            </g>
        </g>
    </g>
</svg>