<?xml version="1.0" encoding="UTF-8" standalone="no"?>
<svg width="72px" height="72px" viewBox="0 0 72 72" version="1.1" xmlns="http://www.w3.org/2000/svg" xmlns:xlink="http://www.w3.org/1999/xlink" xmlns:sketch="http://www.bohemiancoding.com/sketch/ns">
    <!-- Generator: Sketch 3.3.2 (12043) - http://www.bohemiancoding.com/sketch -->
    <title>icon-webatm</title>
    <desc>Created with Sketch.</desc>
    <defs></defs>
    <g id="Page-1" stroke="none" stroke-width="1" fill="none" fill-rule="evenodd" sketch:type="MSPage">
        <g id="web-atm" sketch:type="MSLayerGroup" transform="translate(4.000000, 15.000000)" fill="#000000">
            <g id="web-atm-icon" sketch:type="MSShapeGroup">
                <path d="M12.8281248,0 L42.6251352,0 C44.6703688,0 46.3283582,1.65991093 46.3283582,3.71224053 L46.3283582,36.7088121 C46.3283582,38.7590259 44.669668,40.4210526 42.6251352,40.4210526 L12.8281248,40.4210526 C10.7828912,40.4210526 9.12490181,38.7611417 9.12490181,36.7088121 L9.12490181,3.71224053 C9.12490181,1.6620267 10.783592,0 12.8281248,0 Z M11.9038492,36.7088121 C11.9038492,37.2269073 12.3182017,37.6421053 12.8281248,37.6421053 L42.6251352,37.6421053 C43.1337063,37.6421053 43.5494108,37.2254429 43.5494108,36.7088121 L43.5494108,17.5 L46.3274193,17.4439831 L46.3300171,11 L43.5494108,11 L43.5494108,3.71224053 C43.5494108,3.19414532 43.1350583,2.77894737 42.6251352,2.77894737 L12.8281248,2.77894737 C12.3195537,2.77894737 11.9038492,3.19560972 11.9038492,3.71224053 L11.9038492,36.7088121 Z" id="Shape"></path>
                <g id="card" transform="translate(38.167321, 4.511962)">
                    <path d="M0.72034564,12.9425837 L0.72034564,30.3971292 L21.5047215,30.3971292 C23.8993884,30.3971292 25.8326787,28.2015927 25.8326787,25.4932612 L25.8326787,5.90386795 C25.8326787,3.18554583 23.8949863,1 21.5047215,1 L0.72034564,1 L0.72034564,6.51196172 L25.8326787,6.51196172 L25.8326787,12.9425837 L0.72034564,12.9425837 Z" id="Shape"></path>
                </g>
                <path d="M37.9632364,2.29665072 L37.9632364,36.2870813 L37.9632364,37.676555 L40.7421838,37.676555 L40.7421838,36.2870813 L40.7421838,2.29665072 L40.7421838,0.907177033 L37.9632364,0.907177033 L37.9632364,2.29665072 L37.9632364,2.29665072 Z" id="Shape"></path>
                <path d="M7.27227023,12.861244 L7.27227023,25.722488 C7.27227023,26.7456682 8.10172164,27.5751196 9.12490181,27.5751196 C10.148082,27.5751196 10.9775334,26.7456682 10.9775334,25.722488 L10.9775334,12.861244 C10.9775334,11.8380639 10.148082,11.0086124 9.12490181,11.0086124 C8.10172164,11.0086124 7.27227023,11.8380639 7.27227023,12.861244 L7.27227023,12.861244 Z" id="Shape"></path>
                <rect id="Rectangle-30" x="29.5868028" y="5.51196172" width="5.58051846" height="5.51196172"></rect>
                <path d="M5.22272025,17.9025731 C4.5663404,17.8941496 3.71214321,18.0296518 2.83869727,18.460579 C1.2691415,19.2349422 0.294736849,20.7252626 0.294736842,22.8709524 C0.294736837,24.2608616 0.29603142,27.1925387 0.298272425,31.2072905 C0.298785793,32.1197823 0.298785793,32.1197823 0.299307204,33.0216665 C0.300306933,34.7407334 0.30137807,36.4966581 0.302449207,38.1952964 C0.303591753,39.9880818 0.303591753,39.9880818 0.303877397,40.4219674 C0.304382596,41.1893523 0.926880564,41.8110312 1.69426552,41.810526 C2.46165048,41.8100208 3.08332936,41.1875228 3.08282416,40.4201379 C3.08253854,39.9862847 3.08253854,39.9862847 3.08139602,38.193544 C3.08032491,36.4949482 3.0792538,34.7390678 3.0782541,33.0200504 C3.07773271,32.1181959 3.07773271,32.1181959 3.07721936,31.2057393 C3.07497868,27.1915638 3.07368421,24.2601386 3.07368421,22.8709524 C3.07368421,21.808664 3.4262207,21.2694709 4.0682335,20.9527245 C4.30432345,20.8362461 4.57059968,20.7580265 4.84157587,20.7150413 C5.00958971,20.6883891 5.1380699,20.68054 5.19976396,20.6813193 C5.19575473,20.681262 9.12490181,20.6815204 9.12490181,20.6815204 C9.89228693,20.6815204 10.5143755,20.0594319 10.5143755,19.2920468 C10.5143755,18.5246616 9.89228693,17.9025731 9.12490181,17.9025731 L5.22272025,17.9025731 Z" id="Shape"></path>
            </g>
        </g>
    </g>
</svg>