<?xml version="1.0" encoding="UTF-8" standalone="no"?>
<svg width="72px" height="72px" viewBox="0 0 72 72" version="1.1" xmlns="http://www.w3.org/2000/svg" xmlns:xlink="http://www.w3.org/1999/xlink" xmlns:sketch="http://www.bohemiancoding.com/sketch/ns">
    <!-- Generator: Sketch 3.3.2 (12043) - http://www.bohemiancoding.com/sketch -->
    <title>icon-market</title>
    <desc>Created with Sketch.</desc>
    <defs></defs>
    <g id="Page-1" stroke="none" stroke-width="1" fill="none" fill-rule="evenodd" sketch:type="MSPage">
        <g id="shop" sketch:type="MSLayerGroup" transform="translate(9.000000, 10.000000)" fill="#000000">
            <g id="shop-icon" sketch:type="MSShapeGroup">
                <g id="Group">
                    <path d="M47.6131034,22.7732627 C45.4927888,22.7732627 43.6116336,21.72648 42.4590129,20.1216309 C41.3063922,21.72648 39.4260517,22.7732627 37.3062026,22.7732627 C35.1858879,22.7732627 33.3057802,21.72648 32.1530431,20.1216309 C31.0004224,21.72648 29.1199655,22.7732627 27.0001164,22.7732627 C24.8801509,22.7732627 22.999694,21.72648 21.8470733,20.1216309 C20.6944526,21.72648 18.8139957,22.7732627 16.6940302,22.7732627 C14.5740647,22.7732627 12.6936078,21.72648 11.5409871,20.1216309 C10.3883664,21.72648 8.50790948,22.7732627 6.38806034,22.7732627 C2.98547845,22.7732627 0.223797414,20.1368996 0.0516724138,16.7501539 C0.0462025862,16.7036484 0.0432931034,16.6560939 0.0432931034,16.6080731 L0.0432931034,16.4198364 C0.0432931034,16.213417 0.0956637931,16.0194691 0.187719828,15.8501144 L3.09894828,3.33441239 C3.17831897,1.54249208 4.65831466,0.109561928 6.46603448,0.109561928 L47.5339655,0.109561928 C49.3411034,0.109561928 50.82075,1.54144309 50.9012845,3.33219784 L53.924819,16.1454653 C53.9463491,16.2353294 53.9568233,16.3274081 53.9568233,16.4198364 C53.9568233,19.9231373 51.1111164,22.7732627 47.6131034,22.7732627 L47.6131034,22.7732627 Z" id="Shape"></path>
                    <path d="M5.54046983,52.5735244 C4.88269397,52.5735244 4.34967672,52.0397014 4.34967672,51.3809311 L4.34967672,25.6793345 C4.34967672,25.0205643 4.88281034,24.4867413 5.54046983,24.4867413 C6.19812931,24.4867413 6.73126293,25.0205643 6.73126293,25.6793345 L6.73126293,50.1882213 L13.3862974,50.1882213 L13.3862974,31.0362135 C13.3862974,30.3775598 13.919431,29.8437368 14.5770905,29.8437368 L26.342806,29.8437368 C27.0004655,29.8437368 27.5335991,30.3775598 27.5335991,31.0362135 L27.5335991,50.1882213 L47.2687371,50.1882213 L47.2687371,25.4388811 C47.2687371,24.7802274 47.8018707,24.2462878 48.4595302,24.2462878 C49.1171897,24.2462878 49.6502069,24.7802274 49.6502069,25.4388811 L49.6502069,51.3808146 C49.6503233,52.0395848 49.117306,52.5735244 48.4596466,52.5735244 L5.54046983,52.5735244 Z" id="Shape"></path>
                    <path d="M42.4208405,41.3891164 L33.1428491,41.3891164 C32.4850733,41.3891164 31.952056,40.8552934 31.952056,40.1966397 L31.952056,30.9049723 C31.952056,30.2463186 32.4850733,29.712379 33.1428491,29.712379 L42.4208405,29.712379 C43.0786164,29.712379 43.6116336,30.2463186 43.6116336,30.9049723 L43.6116336,40.1966397 C43.61175,40.8551768 43.0786164,41.3891164 42.4208405,41.3891164 L42.4208405,41.3891164 Z" id="Shape"></path>
                </g>
            </g>
        </g>
    </g>
</svg>