<?xml version="1.0" encoding="UTF-8" standalone="no"?>
<svg width="72px" height="72px" viewBox="0 0 72 72" version="1.1" xmlns="http://www.w3.org/2000/svg" xmlns:xlink="http://www.w3.org/1999/xlink" xmlns:sketch="http://www.bohemiancoding.com/sketch/ns">
    <!-- Generator: Sketch 3.3.2 (12043) - http://www.bohemiancoding.com/sketch -->
    <title>icon-atm</title>
    <desc>Created with Sketch.</desc>
    <defs></defs>
    <g id="Page-1" stroke="none" stroke-width="1" fill="none" fill-rule="evenodd" sketch:type="MSPage">
        <g id="ATM" sketch:type="MSLayerGroup" transform="translate(11.000000, 11.000000)">
            <g id="ATM-icon">
                <g id="ATM">
                    <path d="M0,39.9685865 L1.22541671e-16,5.99527165 C5.48637749e-17,2.68417455 2.6880479,0 6.00031854,0 L44.9996815,0 C48.3135659,0 51,2.68813057 51,5.98846107 L51,39.9203518 L0,39.9685865 Z M6.5513834,7.9826087 L25.6007905,7.9826087 C26.8105667,7.9826087 27.7173913,8.84579464 27.7173913,9.97826087 L27.7173913,31.9304348 C27.7173913,33.0625417 26.8046855,33.926087 25.6007905,33.926087 L6.5513834,33.926087 C5.34160724,33.926087 4.43478261,33.062901 4.43478261,31.9304348 L4.43478261,9.97826087 C4.43478261,8.84615392 5.34748846,7.9826087 6.5513834,7.9826087 Z M42.4869565,28.5160957 L46.4869565,28.5160957 L46.4869565,32.5160957 L42.4869565,32.5160957 L42.4869565,28.5160957 Z M42.4869565,22.9726174 L46.4869565,22.9726174 L46.4869565,26.9726174 L42.4869565,26.9726174 L42.4869565,22.9726174 Z M42.4869565,17.4291391 L46.4869565,17.4291391 L46.4869565,21.4291391 L42.4869565,21.4291391 L42.4869565,17.4291391 Z M36.9434783,28.5160957 L40.9434783,28.5160957 L40.9434783,32.5160957 L36.9434783,32.5160957 L36.9434783,28.5160957 Z M36.9434783,22.9726174 L40.9434783,22.9726174 L40.9434783,26.9726174 L36.9434783,26.9726174 L36.9434783,22.9726174 Z M36.9434783,17.4291391 L40.9434783,17.4291391 L40.9434783,21.4291391 L36.9434783,21.4291391 L36.9434783,17.4291391 Z M31.4,28.5160957 L35.4,28.5160957 L35.4,32.5160957 L31.4,32.5160957 L31.4,28.5160957 Z M31.4,22.9726174 L35.4,22.9726174 L35.4,26.9726174 L31.4,26.9726174 L31.4,22.9726174 Z M31.4,17.4291391 L35.4,17.4291391 L35.4,21.4291391 L31.4,21.4291391 L31.4,17.4291391 Z M31.0434783,12.75 C31.0434783,11.8315264 31.7304558,11.0869565 32.5885084,11.0869565 L45.0201873,11.0869565 C45.8734838,11.0869565 46.5652174,11.825123 46.5652174,12.75 C46.5652174,13.6684736 45.8782399,14.4130435 45.0201873,14.4130435 L32.5885084,14.4130435 C31.7352118,14.4130435 31.0434783,13.674877 31.0434783,12.75 Z" id="Rectangle-16" fill="#000000" sketch:type="MSShapeGroup"></path>
                    <g id="Group" transform="translate(31.000000, 17.320443)"></g>
                    <path d="M7.5,23.448913 L24.5,23.448913 C24.7761424,23.448913 25,23.2255421 25,22.95 C25,22.6744579 24.7761424,22.451087 24.5,22.451087 L7.5,22.451087 C7.22385763,22.451087 7,22.6744579 7,22.95 C7,23.2255421 7.22385763,23.448913 7.5,23.448913 L7.5,23.448913 Z" id="Shape" fill="#000000" sketch:type="MSShapeGroup"></path>
                    <g id="Rectangle-18-+-Line" transform="translate(31.043478, 11.086957)"></g>
                    <path d="M10.132,13.4706522 L11.196,13.4706522 L13.396,19.1702348 L12.324,19.1702348 L11.788,17.6615217 L9.508,17.6615217 L8.972,19.1702348 L7.94,19.1702348 L10.132,13.4706522 Z M9.78,16.9031739 L11.524,16.9031739 L10.668,14.452513 L10.644,14.452513 L9.78,16.9031739 Z M12.76,13.4706522 L17.384,13.4706522 L17.384,14.3327739 L15.568,14.3327739 L15.568,19.1702348 L14.568,19.1702348 L14.568,14.3327739 L12.76,14.3327739 L12.76,13.4706522 Z M18.132,13.4706522 L19.54,13.4706522 L21.116,17.9329304 L21.132,17.9329304 L22.668,13.4706522 L24.06,13.4706522 L24.06,19.1702348 L23.108,19.1702348 L23.108,14.7718174 L23.092,14.7718174 L21.508,19.1702348 L20.684,19.1702348 L19.1,14.7718174 L19.084,14.7718174 L19.084,19.1702348 L18.132,19.1702348 L18.132,13.4706522 Z" fill="#000000" sketch:type="MSShapeGroup"></path>
                </g>
                <path d="M48.7826087,39.9130435 L48.7826087,44.3478261 C48.8989525,46.5911781 46.7655642,48.7826087 44.3478261,48.7826087 L6.65217391,48.7826087 C4.23858378,48.7826087 2.10684647,46.5950189 2.2173913,44.3478261 L2.2173913,39.9130435 L1.10869565,41.0217391 L49.8913043,41.0217391 L48.7826087,39.9130435 L48.7826087,39.9130435 Z M51,38.8043478 L1.10869565,38.8043478 L0,38.8043478 L0,39.9130435 L0,44.3478261 C0,47.8188748 3.02013658,51 6.65217391,51 L44.3478261,51 C47.9786607,51 51,47.8144875 51,44.3478261 L51,39.9130435 L51,38.8043478 Z" id="Shape" fill="#000000" sketch:type="MSShapeGroup"></path>
            </g>
        </g>
    </g>
</svg>