<?xml version="1.0" encoding="UTF-8" standalone="no"?>
<svg width="72px" height="72px" viewBox="0 0 72 72" version="1.1" xmlns="http://www.w3.org/2000/svg" xmlns:xlink="http://www.w3.org/1999/xlink" xmlns:sketch="http://www.bohemiancoding.com/sketch/ns">
    <!-- Generator: Sketch 3.3.2 (12043) - http://www.bohemiancoding.com/sketch -->
    <title>icon-creditcard</title>
    <desc>Created with Sketch.</desc>
    <defs></defs>
    <g id="Page-1" stroke="none" stroke-width="1" fill="none" fill-rule="evenodd" sketch:type="MSPage">
        <g id="card" sketch:type="MSLayerGroup" transform="translate(9.000000, 16.000000)" fill="#000000">
            <g id="Shape" sketch:type="MSShapeGroup">
                <path d="M54,7.77777778 L54,6.67258074 C54,2.97382213 51.4980847,0 48.4118157,0 L5.58818431,0 C2.49623138,0 0,2.98741615 0,6.67258074 L0,7.77777778 L54,7.77777778 Z M54,16.6666667 L54,33.3274193 C54,37.0125838 51.5037686,40 48.4118157,40 L5.58818431,40 C2.50191534,40 0,37.0261779 0,33.3274193 L0,16.6666667 L54,16.6666667 L54,16.6666667 Z M6.51724138,28.8888889 L20.4836678,28.8888889 L20.4836678,26.7832728 L6.51724138,26.7832728 L6.51724138,28.8888889 Z M6.51724138,23.9538511 L13.5004546,23.9538511 L13.5004546,21.848235 L6.51724138,21.848235 L6.51724138,23.9538511 Z M45.5423458,25.9295428 C44.8930698,25.9295428 44.2866033,26.1650984 43.7586207,26.5455428 C44.8217208,27.3170984 45.5423458,28.7330984 45.5423458,30.3739873 C45.5423458,32.0166539 44.8217208,33.4308762 43.7586207,34.2042095 C44.2866033,34.583765 44.8930698,34.8184317 45.5423458,34.8184317 C47.5115783,34.8184317 49.1097959,32.8290984 49.1097959,30.3739873 C49.1097959,27.9188762 47.5115783,25.9295428 45.5423458,25.9295428 Z M41.9748956,30.3739873 C41.9748956,28.7330984 42.6955205,27.3170984 43.7586207,26.5455428 C43.2306381,26.1650984 42.6313064,25.9295428 41.9748956,25.9295428 C40.0056631,25.9295428 38.4074454,27.9188762 38.4074454,30.3739873 C38.4074454,32.8290984 40.0056631,34.8184317 41.9748956,34.8184317 C42.6313064,34.8184317 43.2306381,34.583765 43.7586207,34.2042095 C42.6955205,33.4308762 41.9748956,32.0166539 41.9748956,30.3739873 Z"></path>
            </g>
        </g>
    </g>
</svg>