<?xml version="1.0" encoding="UTF-8" standalone="no"?>
<svg width="96px" height="96px" viewBox="0 0 96 96" version="1.1" xmlns="http://www.w3.org/2000/svg" xmlns:xlink="http://www.w3.org/1999/xlink" xmlns:sketch="http://www.bohemiancoding.com/sketch/ns">
    <!-- Generator: Sketch 3.3.2 (12043) - http://www.bohemiancoding.com/sketch -->
    <title>icon-nameless</title>
    <desc>Created with Sketch.</desc>
    <defs></defs>
    <g id="Page-1" stroke="none" stroke-width="1" fill="none" fill-rule="evenodd" sketch:type="MSPage">
        <path d="M63.2382002,41.809104 C67.0017578,37.9131051 69.1514627,32.6983602 69.1514627,27.1507281 C69.1514627,15.4885478 59.6629149,6 47.9998951,6 C36.3377148,6 26.8500066,15.4885478 26.8500066,27.1507281 C26.8500066,32.6983602 28.9999213,37.9131051 32.76138,41.809104 C20.1706415,46.7717696 12,57.4663518 12,69.5541913 L12,88.5845992 C12,89.9862521 13.1344615,91.1184048 14.5340155,91.1184048 L81.4661944,91.1184048 C82.8657484,91.1184048 84,89.9860422 84,88.5845992 L84,69.5541913 C84,57.4663518 75.8289387,46.7726092 63.2382002,41.809104 L63.2382002,41.809104 Z M78.931969,86.0526827 L17.065932,86.0526827 L17.065932,69.5544012 C17.065932,58.4127509 25.7027417,48.6400105 38.558153,45.2351568 C39.5282697,44.9776204 40.2547029,44.1739473 40.4121212,43.1851502 C40.5691198,42.1932048 40.1279286,41.2044077 39.2856356,40.6591106 C34.6711793,37.6746688 31.9159386,32.6240588 31.9159386,27.1536665 C31.9159386,18.2857668 39.1296865,11.0711793 47.9977961,11.0711793 C56.8665355,11.0711793 64.0807031,18.2857668 64.0807031,27.1536665 C64.0807031,32.6248983 61.3250426,37.6744589 56.7103765,40.6589007 C55.868923,41.2044077 55.4266824,42.1940443 55.5841007,43.1849403 C55.7423587,44.1747868 56.4690017,44.9795094 57.4391185,45.2349469 C70.2949495,48.6400105 78.9302899,58.4114915 78.9302899,69.5541913 L78.9302899,86.0524728 L78.931969,86.0524728 L78.931969,86.0526827 Z M39.0181274,58.7901306 C39.0181274,57.5898683 39.403469,56.3738312 40.1741638,55.141983 C40.9448586,53.9101348 42.069298,52.8899271 43.5475159,52.0813293 C45.0257337,51.2727316 46.7502953,50.8684387 48.7212524,50.8684387 C50.5532318,50.8684387 52.1704031,51.2064023 53.5728149,51.8823395 C54.9752267,52.5582767 56.0586052,53.4774112 56.8229828,54.6397705 C57.5873604,55.8021298 57.9695435,57.0655449 57.9695435,58.4300537 C57.9695435,59.5039727 57.7516044,60.4452169 57.3157196,61.2538147 C56.8798349,62.0624125 56.3618347,62.7604493 55.7617035,63.3479462 C55.1615723,63.935443 54.0845109,64.9240653 52.5304871,66.3138428 C52.1009195,66.7055073 51.7566389,67.0497879 51.4976349,67.3466949 C51.2386309,67.6436019 51.0459601,67.9152362 50.9196167,68.1616058 C50.7932733,68.4079755 50.6953586,68.6543414 50.6258698,68.9007111 C50.5563809,69.1470807 50.4521491,69.5798004 50.3131714,70.1988831 C50.0731189,71.5128545 49.3213869,72.1698303 48.0579529,72.1698303 C47.4009672,72.1698303 46.8482231,71.9550498 46.399704,71.5254822 C45.9511849,71.0959146 45.7269287,70.45789 45.7269287,69.6113892 C45.7269287,68.5501046 45.8911727,67.6309701 46.2196655,66.8539581 C46.5481584,66.0769462 46.9840366,65.394702 47.5273132,64.8072052 C48.0705899,64.2197084 48.8033706,63.5216715 49.7256775,62.7130737 C50.5342753,62.0055507 51.1186048,61.4717578 51.4786835,61.1116791 C51.8387622,60.7516004 52.1419818,60.3504661 52.3883514,59.9082642 C52.6347211,59.4660622 52.7579041,58.9859645 52.7579041,58.4679565 C52.7579041,57.4572093 52.3820381,56.6044041 51.6302948,55.9095154 C50.8785515,55.2146267 49.9088804,54.8671875 48.7212524,54.8671875 C47.331475,54.8671875 46.3081088,55.2177852 45.651123,55.9189911 C44.9941373,56.620197 44.4382347,57.6530388 43.9833984,59.0175476 C43.5538309,60.4452281 42.7389281,61.1590576 41.5386658,61.1590576 C40.8311427,61.1590576 40.2341791,60.9095331 39.747757,60.4104767 C39.2613348,59.9114202 39.0181274,59.3713103 39.0181274,58.7901306 L39.0181274,58.7901306 Z M48.2664185,79.5608826 C47.4957237,79.5608826 46.8229551,79.3113581 46.2480927,78.8123016 C45.6732302,78.3132452 45.3858032,77.6152083 45.3858032,76.7181702 C45.3858032,75.9222067 45.6637545,75.2525967 46.2196655,74.7093201 C46.7755765,74.1660434 47.4578207,73.8944092 48.2664185,73.8944092 C49.0623819,73.8944092 49.7319919,74.1660434 50.2752686,74.7093201 C50.8185452,75.2525967 51.0901794,75.9222067 51.0901794,76.7181702 C51.0901794,77.602574 50.805911,78.2974523 50.2373657,78.8028259 C49.6688204,79.3081995 49.0118445,79.5608826 48.2664185,79.5608826 L48.2664185,79.5608826 Z" id="Shape" fill="#000000" sketch:type="MSShapeGroup"></path>
    </g>
</svg>