<?xml version="1.0" encoding="UTF-8" standalone="no"?>
<svg width="96px" height="96px" viewBox="0 0 96 96" version="1.1" xmlns="http://www.w3.org/2000/svg" xmlns:xlink="http://www.w3.org/1999/xlink" xmlns:sketch="http://www.bohemiancoding.com/sketch/ns">
    <!-- Generator: Sketch 3.3.2 (12043) - http://www.bohemiancoding.com/sketch -->
    <title>icon-name</title>
    <desc>Created with Sketch.</desc>
    <defs></defs>
    <g id="Page-1" stroke="none" stroke-width="1" fill="none" fill-rule="evenodd" sketch:type="MSPage">
        <path d="M63.2382002,41.809104 C67.0017578,37.9131051 69.1514627,32.6983602 69.1514627,27.1507281 C69.1514627,15.4885478 59.6629149,6 47.9998951,6 C36.3377148,6 26.8500066,15.4885478 26.8500066,27.1507281 C26.8500066,32.6983602 28.9999213,37.9131051 32.76138,41.809104 C20.1706415,46.7717696 12,57.4663518 12,69.5541913 L12,88.5845992 C12,89.9862521 13.1344615,91.1184048 14.5340155,91.1184048 L81.4661944,91.1184048 C82.8657484,91.1184048 84,89.9860422 84,88.5845992 L84,69.5541913 C84,57.4663518 75.8289387,46.7726092 63.2382002,41.809104 L63.2382002,41.809104 Z M78.931969,86.0526827 L17.065932,86.0526827 L17.065932,69.5544012 C17.065932,58.4127509 25.7027417,48.6400105 38.558153,45.2351568 C39.5282697,44.9776204 40.2547029,44.1739473 40.4121212,43.1851502 C40.5691198,42.1932048 40.1279286,41.2044077 39.2856356,40.6591106 C34.6711793,37.6746688 31.9159386,32.6240588 31.9159386,27.1536665 C31.9159386,18.2857668 39.1296865,11.0711793 47.9977961,11.0711793 C56.8665355,11.0711793 64.0807031,18.2857668 64.0807031,27.1536665 C64.0807031,32.6248983 61.3250426,37.6744589 56.7103765,40.6589007 C55.868923,41.2044077 55.4266824,42.1940443 55.5841007,43.1849403 C55.7423587,44.1747868 56.4690017,44.9795094 57.4391185,45.2349469 C70.2949495,48.6400105 78.9302899,58.4114915 78.9302899,69.5541913 L78.9302899,86.0524728 L78.931969,86.0524728 L78.931969,86.0526827 Z" id="Shape" fill="#000000" sketch:type="MSShapeGroup"></path>
    </g>
</svg>