<?xml version="1.0" encoding="UTF-8" standalone="no"?>
<svg width="72px" height="72px" viewBox="0 0 72 72" version="1.1" xmlns="http://www.w3.org/2000/svg" xmlns:xlink="http://www.w3.org/1999/xlink" xmlns:sketch="http://www.bohemiancoding.com/sketch/ns">
    <!-- Generator: Sketch 3.3.2 (12043) - http://www.bohemiancoding.com/sketch -->
    <title>icon-barcode</title>
    <desc>Created with Sketch.</desc>
    <defs></defs>
    <g id="Page-1" stroke="none" stroke-width="1" fill="none" fill-rule="evenodd" sketch:type="MSPage">
        <g id="barcode" sketch:type="MSLayerGroup" transform="translate(7.000000, 13.000000)" fill="#000000">
            <g id="barcode-icon" sketch:type="MSShapeGroup">
                <path d="M9.83333333,8.80851064 L14.75,8.80851064 L14.75,38.1702128 L9.83333333,38.1702128 L9.83333333,8.80851064 Z M16.7166667,8.80851064 L18.6833333,8.80851064 L18.6833333,38.1702128 L16.7166667,38.1702128 L16.7166667,8.80851064 Z M27.5333333,8.80851064 L28.5166667,8.80851064 L28.5166667,38.1702128 L27.5333333,38.1702128 L27.5333333,8.80851064 Z M21.6333333,8.80851064 L25.5666667,8.80851064 L25.5666667,38.1702128 L21.6333333,38.1702128 L21.6333333,8.80851064 Z M45.2333333,8.80851064 L50.15,8.80851064 L50.15,38.1702128 L45.2333333,38.1702128 L45.2333333,8.80851064 Z M30.4833333,8.80851064 L35.4,8.80851064 L35.4,38.1702128 L30.4833333,38.1702128 L30.4833333,8.80851064 Z M37.3666667,8.80851064 L39.3333333,8.80851064 L39.3333333,38.1702128 L37.3666667,38.1702128 L37.3666667,8.80851064 Z M42.2833333,8.80851064 L43.2666667,8.80851064 L43.2666667,38.1702128 L42.2833333,38.1702128 L42.2833333,8.80851064 Z" id="Rectangle-10"></path>
                <path d="M56.05,2.93617021 L56.05,10.2765957 C56.05,11.0873968 56.71038,11.7446809 57.525,11.7446809 C58.33962,11.7446809 59,11.0873968 59,10.2765957 L59,1.46808511 L59,0 L57.525,0 L48.675,0 C47.86038,0 47.2,0.657284091 47.2,1.46808511 C47.2,2.27888612 47.86038,2.93617021 48.675,2.93617021 L56.05,2.93617021 Z" id="Shape"></path>
                <path d="M8.85,2.93617021 L8.85,10.2765957 C8.85,11.0873968 9.51037999,11.7446809 10.325,11.7446809 C11.13962,11.7446809 11.8,11.0873968 11.8,10.2765957 L11.8,1.46808511 L11.8,0 L10.325,0 L1.475,0 C0.660379994,0 0,0.657284091 0,1.46808511 C0,2.27888612 0.660379994,2.93617021 1.475,2.93617021 L8.85,2.93617021 Z" id="Shape" transform="translate(5.900000, 5.872340) scale(-1, 1) translate(-5.900000, -5.872340) "></path>
                <path d="M56.05,37.1914894 L56.05,44.5319149 C56.05,45.3427159 56.71038,46 57.525,46 C58.33962,46 59,45.3427159 59,44.5319149 L59,35.7234043 L59,34.2553191 L57.525,34.2553191 L48.675,34.2553191 C47.86038,34.2553191 47.2,34.9126032 47.2,35.7234043 C47.2,36.5342053 47.86038,37.1914894 48.675,37.1914894 L56.05,37.1914894 Z" id="Shape" transform="translate(53.100000, 40.127660) rotate(-270.000000) translate(-53.100000, -40.127660) "></path>
                <path d="M8.85,37.1914894 L8.85,44.5319149 C8.85,45.3427159 9.51037999,46 10.325,46 C11.13962,46 11.8,45.3427159 11.8,44.5319149 L11.8,35.7234043 L11.8,34.2553191 L10.325,34.2553191 L1.475,34.2553191 C0.660379994,34.2553191 0,34.9126032 0,35.7234043 C0,36.5342053 0.660379994,37.1914894 1.475,37.1914894 L8.85,37.1914894 Z" id="Shape" transform="translate(5.900000, 40.127660) scale(-1, 1) rotate(-270.000000) translate(-5.900000, -40.127660) "></path>
            </g>
        </g>
    </g>
</svg>