<?xml version="1.0" encoding="UTF-8" standalone="no"?>
<svg width="144px" height="80px" viewBox="0 0 144 80" version="1.1" xmlns="http://www.w3.org/2000/svg" xmlns:xlink="http://www.w3.org/1999/xlink" xmlns:sketch="http://www.bohemiancoding.com/sketch/ns">
    <!-- Generator: Sketch 3.3.2 (12043) - http://www.bohemiancoding.com/sketch -->
    <title>Imported Layers</title>
    <desc>Created with Sketch.</desc>
    <defs></defs>
    <g id="Page-1" stroke="none" stroke-width="1" fill="none" fill-rule="evenodd" sketch:type="MSPage">
        <g id="Imported-Layers" sketch:type="MSLayerGroup" fill="#1A1918">
            <path d="M112.184211,11.84 C112.233684,11.8505263 112.283158,11.86 112.332632,11.8694737 C112.405263,11.8915789 112.435789,11.88 112.509474,11.84 C112.667368,11.7294737 112.683158,11.4831579 112.715789,11.2505263 C112.821053,11.1757895 112.822105,11.1431579 113.010526,11.1326316 C113.291579,11.4010526 113.505263,11.8421053 113.807368,12.0768421 C114.693684,12.7621053 115.731579,13.3042105 115.990526,14.6136842 C116.181053,15.5778947 115.989474,17.3315789 115.753684,18.0063158 C115.655789,18.1831579 115.557895,18.36 115.458947,18.5368421 L115.458947,19.0978947 C115.357895,19.4768421 115.156842,20.12 114.957895,20.5136842 C114.773684,20.8778947 113.884211,22.1705263 114.190526,22.6378947 C114.210526,22.6568421 114.230526,22.6768421 114.249474,22.6968421 C114.842105,22.8873684 115.507368,21.4821053 115.725263,21.0442105 C116.017895,20.4547368 116.533684,19.8273684 116.815789,19.1863158 C117.128421,18.4768421 117.204211,17.7842105 117.435789,17.0031579 C117.514737,16.8947368 117.593684,16.7863158 117.671579,16.6789474 C117.691579,16.2463158 117.711579,15.8126316 117.730526,15.38 C117.691579,15.0852632 117.652632,14.7905263 117.612632,14.4957895 C117.634737,14.3757895 117.715789,14.1610526 117.671579,13.9642105 C117.561053,13.4715789 117.330526,12.7263158 117.052632,12.3421053 C116.875789,12.1747368 116.697895,12.0073684 116.521053,11.84 C116.346316,11.6052632 116.256842,11.3021053 116.02,11.1326316 C115.674737,10.8852632 115.284211,10.7652632 114.928421,10.5126316 C114.007368,9.86105263 113.785263,9.5 112.421053,9.18526316 C112.305263,9.33578947 112.124211,9.45052632 111.918947,9.50947368 C111.814737,10.2347368 112.117895,10.3926316 112.184211,10.8968421 C112.232632,11.2526316 112.078947,11.5305263 112.184211,11.84" id="Fill-1" sketch:type="MSShapeGroup"></path>
            <path d="M140.917895,54.8231579 C140.102105,54.9147368 139.081053,54.6915789 138.351579,54.6747368 C136.396842,54.6305263 134.387368,54.54 132.746316,54.1736842 C132.383158,54.1536842 132.018947,54.1347368 131.654737,54.1147368 C129.033684,53.4284211 126.747368,52.0726316 124.781053,50.7221053 C123.512632,49.9452632 122.244211,49.1684211 120.975789,48.3915789 C119.975789,47.6631579 119.028421,46.7242105 118.055789,45.9431579 C117.238947,45.2873684 114.562105,43.1389474 114.337895,42.1673684 C114.069474,41.0010526 115.069474,40.1126316 115.4,39.2757895 C115.601053,38.7673684 115.801053,38.2421053 116.02,37.7715789 C116.358947,37.0421053 116.455789,36.3336842 116.786316,35.5589474 C116.936842,35.2073684 117.274737,34.9231579 117.406316,34.5263158 C118.133684,32.3284211 118.972632,30.4536842 119.795789,28.3905263 C120.027368,27.8094737 120.107368,27.1852632 120.415789,26.6789474 C120.74,26.2463158 121.064211,25.8136842 121.388421,25.3810526 C121.577895,25.0715789 121.692632,24.7305263 121.978947,24.5252632 C123.081053,23.7368421 124.355789,23.0242105 125.666316,22.4610526 C126.384211,22.1515789 127.042105,21.9884211 127.702105,21.6347368 C128.087368,21.4273684 129.278947,20.92 128.911579,20.2189474 C128.784211,19.9336842 128.448421,19.7652632 128.026316,19.7757895 C127.808421,19.9042105 127.489474,19.84 127.201053,19.9231579 C127.023158,20.0221053 126.846316,20.12 126.669474,20.2189474 C126.305263,20.2968421 125.942105,20.3757895 125.577895,20.4547368 C125.107368,20.6031579 124.535789,20.9936842 124.073684,21.1915789 C123.867368,21.2221053 123.66,21.2515789 123.453684,21.28 C122.864211,21.5757895 122.273684,21.8705263 121.684211,22.1652632 C120.891579,22.5115789 120.261053,22.7115789 119.412632,23.0210526 C118.149474,23.4821053 116.877895,24.2536842 115.725263,24.8210526 C114.732632,25.3084211 113.833684,25.6547368 112.804211,26.0894737 C112.401053,26.3347368 111.997895,26.5810526 111.594737,26.8263158 C111.3,26.9252632 111.004211,27.0231579 110.709474,27.1221053 C110.365263,27.3178947 110.021053,27.5147368 109.676842,27.7115789 C109.421053,27.8094737 109.165263,27.9084211 108.910526,28.0063158 C108.18,28.3473684 107.332632,28.8536842 106.58,29.1568421 C105.624211,29.5421053 104.763158,30.1778947 103.835789,30.4852632 C103.249474,30.6789474 102.728421,30.76 102.243158,31.0452632 C101.810526,31.3105263 101.377895,31.5768421 100.945263,31.8421053 C100.378947,32.1284211 99.3757895,32.1473684 98.9389474,32.5789474 C98.8368421,33.0810526 99.1326316,33.5705263 99.5284211,33.6410526 C99.7452632,33.6115789 99.9621053,33.5821053 100.177895,33.5526316 C100.413684,33.5726316 100.649474,33.5926316 100.886316,33.6115789 C101.234737,33.5410526 101.373684,33.2936842 101.652632,33.1694737 C102.508421,32.7894737 103.270526,32.5368421 104.16,32.1663158 C104.376842,32.0284211 104.592632,31.8905263 104.809474,31.7536842 C105.369474,31.5368421 105.930526,31.3210526 106.491579,31.1042105 C106.687368,30.9768421 106.884211,30.8484211 107.081053,30.7210526 C108.395789,30.1789474 109.598947,29.7052632 110.915789,29.1273684 C111.26,28.9021053 111.604211,28.6757895 111.948421,28.4494737 C112.471579,28.2336842 112.994737,28.1568421 113.452632,27.8589474 C113.62,27.7210526 113.787368,27.5842105 113.954737,27.4463158 C114.122105,27.4063158 114.289474,27.3673684 114.455789,27.3284211 C115.027368,27.0084211 115.708421,26.78 116.344211,26.4431579 C116.561053,26.2957895 116.776842,26.1484211 116.993684,26.0010526 C117.18,25.9515789 117.367368,25.9021053 117.553684,25.8526316 C117.76,25.6957895 117.967368,25.5389474 118.173684,25.3810526 C118.34,25.3610526 118.507368,25.3421053 118.674737,25.3221053 C118.994737,25.2094737 118.985263,24.9568421 119.501053,24.9684211 L119.530526,24.9684211 C119.56,25.0073684 119.589474,25.0463158 119.618947,25.0863158 C119.574737,25.4578947 119.277895,25.6431579 119.116842,25.9126316 C118.543158,26.8715789 118.004211,27.9442105 117.583158,29.0094737 C117.553684,29.2063158 117.524211,29.4031579 117.494737,29.6 C117.337895,29.8947368 117.18,30.1894737 117.023158,30.4852632 C117.003158,30.6621053 116.983158,30.8389474 116.964211,31.0157895 C116.816842,31.2610526 116.668421,31.5073684 116.521053,31.7536842 C116.033684,32.8515789 115.747368,33.9231579 115.311579,35.0273684 C114.630526,36.7568421 113.588421,38.4252632 113.069474,40.2789474 C112.971579,40.3178947 112.872632,40.3578947 112.774737,40.3968421 C112.510526,40.1905263 112.450526,39.8673684 112.244211,39.6 C112.106316,39.5115789 111.968421,39.4231579 111.830526,39.3347368 C111.535789,38.8831579 111.241053,38.4305263 110.945263,37.9778947 C110.72,37.7715789 110.493684,37.5652632 110.267368,37.3589474 C109.773684,36.6589474 109.189474,36.2526316 108.585263,35.6768421 C108.395789,35.4957895 107.118947,34.3621053 106.786316,34.5852632 C106.683158,34.6547368 106.698947,34.8252632 106.697895,34.9978947 C106.688421,35.9494737 107.089474,36.1821053 107.523158,36.7389474 C108.655789,38.1936842 109.7,39.8010526 110.797895,41.2821053 C111.048421,41.6189474 111.991579,42.06 111.86,42.6978947 C111.722105,42.9631579 111.585263,43.2294737 111.447368,43.4947368 C110.936842,44.46 110.393684,45.3115789 109.883158,46.2378947 C109.844211,46.3852632 109.805263,46.5336842 109.765263,46.6810526 C109.394737,47.3494737 108.811579,47.9031579 108.378947,48.5094737 C108.109474,48.8884211 107.965263,49.2842105 107.701053,49.66 C107.083158,50.5357895 106.301053,51.3210526 105.665263,52.1673684 C105.348421,52.5905263 105.075789,53 104.750526,53.4063158 C104.465263,53.6821053 104.18,53.9578947 103.894737,54.2326316 C103.58,54.5863158 103.265263,54.9410526 102.950526,55.2947368 C102.714737,55.4715789 102.478947,55.6484211 102.243158,55.8263158 C102.203158,55.8157895 102.164211,55.8063158 102.125263,55.7957895 C101.521053,55.4957895 101.836842,54.2284211 101.210526,53.9084211 C101.056842,54.0547368 101.145263,54.2 101.092632,54.4684211 C100.915789,55.3673684 100.876842,56.8821053 101.711579,57.1536842 C102.695789,57.4736842 103.922105,56.3947368 104.455789,55.9736842 C104.938947,55.5915789 105.372632,55.0178947 105.753684,54.5273684 C106.057895,54.2231579 106.363158,53.9178947 106.668421,53.6136842 C107.262105,52.8726316 107.783158,52.1136842 108.349474,51.3421053 C108.585263,51.1252632 108.822105,50.9094737 109.057895,50.6926316 C109.244211,50.3778947 109.431579,50.0631579 109.617895,49.7484211 C109.952632,49.3263158 110.286316,48.9031579 110.621053,48.48 C111.304211,47.4305263 111.752632,46.3778947 112.391579,45.2936842 C112.518947,45.1663158 112.647368,45.0389474 112.774737,44.9105263 C112.916842,44.6989474 112.904211,44.4642105 113.069474,44.2915789 L113.157895,44.2915789 C113.488421,44.4715789 113.584211,44.8621053 113.836842,45.1168421 C114.043158,45.2747368 114.249474,45.4315789 114.455789,45.5894737 C115.151579,46.1305263 115.701053,46.9357895 116.403158,47.4768421 C116.875789,47.7915789 117.347368,48.1063158 117.818947,48.4210526 C118.46,48.9073684 118.881053,49.6463158 119.56,50.1031579 C120.287368,50.5452632 121.015789,50.9873684 121.743158,51.4305263 C122.082105,51.5694737 122.316842,51.5621053 122.598947,51.7252632 C122.888421,51.8936842 123.046316,52.2189474 123.306316,52.4042105 C123.708421,52.6884211 124.207368,52.7747368 124.633684,53.0526316 C125.472632,53.5989474 126.411579,54.4189474 127.407368,54.7642105 C127.663158,54.8126316 127.918947,54.8621053 128.173684,54.9115789 C129.009474,55.2884211 130.022105,55.8505263 130.917895,56.1210526 L132.186316,56.1210526 C132.542105,56.2231579 133.046316,56.48 133.454737,56.5631579 C133.743158,56.6221053 133.916842,56.4010526 134.163158,56.3863158 C134.408421,56.4652632 134.654737,56.5442105 134.9,56.6221053 C135.431579,56.6421053 135.962105,56.6621053 136.493684,56.6810526 C136.718947,56.6515789 136.945263,56.6221053 137.171579,56.5926316 C137.309474,56.6715789 137.447368,56.7505263 137.585263,56.8284211 C137.898947,56.7694737 138.213684,56.7105263 138.528421,56.6515789 C139.142105,56.7821053 140.08,56.9210526 140.888421,56.7989474 C142.116842,56.6147368 142.772632,57.8389474 143.307368,56.4747368 C143.806316,55.2063158 142.182105,54.68 140.917895,54.8231579" id="Fill-2" sketch:type="MSShapeGroup"></path>
            <path d="M10.5547368,18.2715789 C11.2831579,18.0684211 12.4315789,17.5031579 13.2684211,17.5042105 C13.7852632,18.0242105 13.5,18.7747368 13.7115789,19.6578947 C13.8968421,20.4284211 14.24,21.4210526 14.7736842,21.8705263 C15.3894737,22.3894737 16.7505263,21.8031579 16.9568421,21.34 C17.1684211,20.8631579 17.0294737,20.3336842 17.2810526,19.9526316 C17.4684211,19.6694737 17.8578947,19.5757895 17.9894737,19.2157895 C18.0978947,18.9157895 18.0336842,18.5147368 17.96,18.2715789 C17.56,18 17.0263158,18.4957895 16.8389474,18.8610526 C16.6263158,19.2747368 16.8842105,19.72 16.4252632,19.9526316 C16.3568421,19.9631579 16.2873684,19.9726316 16.2189474,19.9821053 C16.0326316,19.7757895 15.8263158,19.4915789 15.7473684,19.1863158 C15.7768421,19.0189474 15.8063158,18.8515789 15.8357895,18.6842105 C15.7621053,18.2589474 15.4894737,17.1157895 15.8063158,16.6494737 C16.0326316,16.3147368 16.4515789,16.4031579 16.8978947,16.2652632 C17.3989474,16.0389474 17.9,15.8126316 18.4021053,15.5863158 C18.7063158,15.5084211 19.0115789,15.4294737 19.3168421,15.3505263 C21.5747368,14.4347368 23.8789474,13.4094737 26.2789474,12.6368421 C26.7652632,12.48 27.2757895,12.1168421 27.7242105,11.9578947 C27.8915789,11.9284211 28.0589474,11.8989474 28.2252632,11.8694737 C28.3926316,11.7957895 28.4315789,11.6673684 28.6684211,11.6336842 C28.8,11.6978947 28.9694737,11.7673684 28.9042105,12.0168421 C28.7473684,12.2136842 28.5894737,12.4105263 28.4326316,12.6073684 C28.0747368,13.1726316 27.9042105,13.8263158 27.5768421,14.3778947 C27.1568421,15.0842105 26.8284211,15.84 26.4263158,16.5894737 C26.3084211,16.6884211 26.1905263,16.7863158 26.0715789,16.8852632 C26.0621053,16.9831579 26.0526316,17.0821053 26.0431579,17.18 C25.8168421,17.4747368 25.5905263,17.7705263 25.3642105,18.0652632 C24.96,18.6905263 24.7042105,19.2757895 24.3021053,19.9231579 C23.9115789,20.5526316 23.4568421,21.2810526 23.0042105,21.9 C22.7484211,22.2147368 22.4926316,22.5294737 22.2368421,22.8442105 L22.2368421,23.08 C22.3,23.1936842 22.3852632,23.2315789 22.5021053,23.2863158 C23.1094737,23.2242105 24.8768421,21.0126316 25.2757895,20.4842105 C25.5505263,20.2084211 25.8263158,19.9336842 26.1021053,19.6578947 C26.3473684,19.2547368 26.5936842,18.8515789 26.8389474,18.4484211 C27.2221053,17.9147368 27.8368421,17.4894737 28.2252632,16.9736842 C28.7747368,16.2463158 29.2726316,15.3957895 29.76,14.6431579 C30.5231579,13.4631579 31.1147368,12.2073684 31.9431579,11.1326316 C32.1915789,10.8094737 32.2336842,10.3410526 32.5915789,10.1294737 C32.8378947,10.0505263 33.0831579,9.97157895 33.3294737,9.89368421 C34.3610526,9.46 35.4705263,9.23578947 36.6042105,8.83157895 C37.7442105,8.42526316 39.0621053,7.92631579 40.2031579,7.56315789 C40.4684211,7.54315789 40.7336842,7.52315789 40.9989474,7.50421053 C41.9684211,7.19157895 44.0210526,6.82736842 44.4221053,6.02842105 C44.5052632,5.81263158 44.3768421,5.71473684 44.3031579,5.58631579 C43.8968421,4.87157895 43.2063158,4.57473684 42.0610526,4.84842105 C40.78,5.15578947 39.3715789,5.61157895 38.1378947,5.99894737 C37.4515789,6.21473684 36.7189474,6.05894737 36.1021053,6.35263158 C35.7136842,6.53894737 35.3852632,6.82210526 35.04,7.03157895 C34.5978947,7.20842105 34.1557895,7.38526316 33.7126316,7.56315789 C33.5042105,7.55263158 33.4221053,7.50631579 33.3294737,7.38526316 C33.2863158,7.08842105 33.4757895,6.94736842 33.5357895,6.70736842 C33.4052632,6.3 33.8431579,4.55578947 33.9484211,3.96315789 C34.1989474,2.56210526 32.9526316,0.798947368 32.1789474,0.423157895 C31.7031579,0.192631579 30.9357895,0.171578947 30.3494737,0.128421053 C29.2536842,0.729473684 28.0610526,1.17473684 28.0778947,2.87157895 C28.1178947,2.88210526 28.1568421,2.89157895 28.1957895,2.90210526 C28.4989474,2.72315789 28.9052632,2.49684211 29.2873684,2.4 C29.4252632,2.39052632 29.5631579,2.38 29.7010526,2.37052632 C30.0684211,2.21157895 30.3252632,1.83368421 30.7336842,1.66210526 C31.5557895,1.73052632 31.9168421,2.74210526 31.7368421,3.81578947 C31.5968421,4.64526316 31.5210526,5.72842105 31.1757895,6.44210526 C31.0968421,6.52 31.0189474,6.59894737 30.94,6.67789474 C30.9105263,6.93368421 30.8810526,7.18947368 30.8515789,7.44526316 C30.7610526,7.72736842 30.6031579,8.18947368 30.4378947,8.47684211 C30.0905263,9.08315789 27.8673684,9.70526316 27.0747368,9.98210526 C26.6326316,10.1978947 26.1905263,10.4147368 25.7473684,10.6305263 C25,10.8863158 24.2526316,11.1421053 23.5052632,11.3978947 C23.1315789,11.5947368 22.7578947,11.7915789 22.3842105,11.9873684 C21.8926316,12.1652632 21.4010526,12.3421053 20.9094737,12.5189474 C20.6347368,12.6757895 20.3589474,12.8336842 20.0831579,12.9905263 C19.8768421,13.0305263 19.6705263,13.0694737 19.4642105,13.1084211 C18.9684211,13.36 15.9726316,14.58 15.5105263,14.4957895 C15.0126316,13.6252632 15.1484211,11.4 15.1863158,10.2473684 L15.1863158,8.15263158 L15.1863158,6.61894737 C15.1126316,6.38736842 14.9021053,6.21157895 14.98,5.88105263 C15.1105263,5.59263158 15.3831579,5.50736842 15.54,5.26210526 C15.4210526,5.06105263 14.3884211,4.40210526 14.0357895,4.55368421 C13.4536842,4.77578947 13.5431579,5.79473684 13.4168421,6.56 C13.0957895,8.50315789 12.8221053,10.8568421 13.18,12.8136842 C13.2915789,13.42 13.3989474,14.9042105 13.0915789,15.2915789 C12.7842105,15.68 12.2,15.6389474 11.7052632,15.8526316 C10.3694737,16.4305263 7.11263158,17.0652632 5.18526316,16.7673684 C4.08526316,16.5968421 2.99473684,16.7747368 2.50105263,16.0294737 C2.21578947,15.5989474 2.92842105,15.3715789 2.97368421,14.8789474 C2.77684211,14.7410526 2.58,14.6031579 2.38315789,14.4663158 C1.90210526,14.2915789 0.603157895,14.5694737 0.435789474,14.8494737 C-0.00526315789,15.5894737 0.692631579,17.0147368 0.967368421,17.3863158 C2.41368421,19.3494737 7.88315789,19.0168421 10.5547368,18.2715789" id="Fill-3" sketch:type="MSShapeGroup"></path>
            <path d="M47.8442105,40.1905263 C47.5652632,39.0557895 45.4747368,38.0063158 44.5694737,37.3589474 C43.3368421,36.4778947 42.0642105,35.6315789 40.8221053,34.7326316 C40.2789474,34.3389474 39.8789474,33.6368421 39.3768421,33.2873684 C38.6536842,32.7831579 37.9273684,31.9031579 37.5768421,31.0452632 C37.0705263,29.8021053 39.2484211,29.5715789 39.9378947,29.1568421 C42.0852632,27.8684211 44.5189474,25.8242105 45.4536842,23.3452632 C45.8168421,22.3831579 44.8189474,20.9757895 44.3621053,20.6610526 C44.1073684,20.4252632 43.8515789,20.1894737 43.5957895,19.9526316 C42.4010526,19.1715789 39.6515789,18.6294737 37.8136842,18.6547368 C37.3178947,18.9484211 36.5410526,18.6821053 35.8957895,18.8610526 C34.1905263,19.3357895 32.9736842,20.2526316 31.5589474,20.9263158 C31.2189474,21.0884211 30.3526316,21.3326316 30.1431579,21.5757895 C29.9,21.8589474 29.6557895,22.7 29.5831579,23.08 L29.5831579,23.7294737 C29.4947368,24.0747368 29.0389474,24.14 29.14,24.5842105 C29.1894737,24.6336842 29.2389474,24.6831579 29.2873684,24.7326316 L29.5831579,24.7326316 C29.9021053,24.5810526 29.9642105,24.1915789 30.2315789,24.0242105 C30.4431579,23.8926316 30.7557895,23.9568421 30.94,23.8178947 C31.4042105,23.4652632 31.5989474,22.8147368 32.12,22.4905263 C35.1810526,20.5789474 40.9663158,19.6557895 43.4484211,22.7263158 C43.1126316,24.5715789 39.8726316,26.9747368 38.4031579,27.8589474 C37.7126316,28.2757895 36.1242105,28.9968421 35.8368421,29.7178947 C35.3726316,30.8810526 36.7452632,32.8136842 37.1642105,33.4347368 C37.5768421,34.0347368 37.9905263,34.6347368 38.4031579,35.2347368 C40.1052632,36.5631579 42.0273684,37.6768421 43.7136842,39.0105263 C44.2610526,39.4431579 45.6705263,40.1231579 45.9557895,40.6621053 C45.8705263,41.7115789 44.1473684,41.6442105 43.2115789,41.7831579 C43.1926316,41.8231579 43.1726316,41.8621053 43.1526316,41.9010526 C43.1094737,42.0378947 43.1947368,42.1515789 43.2410526,42.2852632 C44.6210526,43.1421053 46.5421053,41.68 47.5484211,41.4 C47.6,40.9852632 47.9673684,40.6957895 47.8442105,40.1905263" id="Fill-4" sketch:type="MSShapeGroup"></path>
            <path d="M17.8115789,37.9189474 C18.1031579,37.1557895 18.5147368,36.3189474 18.7263158,35.5 C18.8494737,35.0231579 18.8073684,34.54 18.7852632,34.0547368 L18.7852632,32.6673684 C18.5063158,31.2042105 17.1842105,29.5263158 15.8947368,29.0978947 C15.8652632,29.0589474 15.8357895,29.02 15.8063158,28.98 C15.8578947,28.6421053 16.1052632,28.5947368 16.2484211,28.3610526 C16.4252632,27.9673684 16.6021053,27.5736842 16.7789474,27.1810526 C16.9905263,26.8578947 17.4336842,26.5347368 17.5463158,26.1189474 C17.6263158,25.8252632 17.3042105,24.9126316 17.4873684,24.4073684 C17.5978947,24.1042105 17.8894737,24.0315789 17.8410526,23.5821053 C17.6505263,23.4505263 17.2894737,23.4252632 16.9568421,23.4336842 C16.4915789,23.7873684 16.5242105,24.3157895 16.2484211,24.88 C15.5547368,26.3 14.4242105,27.5673684 13.6821053,29.0094737 C13.4010526,29.5568421 12.4663158,29.7231579 11.9410526,30.0421053 C11.1389474,30.5305263 10.3610526,31.1473684 9.72842105,31.8126316 C9.66947368,31.94 9.61052632,32.0684211 9.55157895,32.1957895 C9.35157895,32.4326316 8.71368421,32.54 8.46,32.8452632 C8.20842105,33.1473684 7.79473684,34.02 8.01789474,34.5557895 C8.17473684,34.7526316 8.33263158,34.9494737 8.48947368,35.1463158 C8.55894737,35.3621053 8.62736842,35.5789474 8.69578947,35.7947368 C9.12842105,36.3915789 9.81473684,35.7010526 10.4663158,35.9126316 C10.7221053,36.0410526 10.9778947,36.1684211 11.2336842,36.2968421 C11.5968421,36.3947368 11.9610526,36.4926316 12.3252632,36.5915789 C13.0073684,36.8589474 13.7768421,37.3378947 14.4484211,37.6242105 C14.7978947,37.7726316 15.0315789,37.7684211 15.2452632,38.0368421 C15.4357895,38.8515789 14.8389474,39.5284211 14.5084211,40.0431579 C14.3147368,40.3442105 13.7484211,41.4231579 13.4757895,41.5473684 C13.2884211,41.5873684 13.1021053,41.6263158 12.9147368,41.6652632 C12.64,41.5378947 12.3642105,41.4094737 12.0884211,41.2821053 C11.8631579,41.2726316 11.6368421,41.2621053 11.4105263,41.2526316 C11.2821053,41.1736842 11.1547368,41.0947368 11.0273684,41.0168421 C9.94,40.4578947 8.70842105,40.2063158 7.54526316,39.7484211 C7.15368421,39.5936842 6.88947368,39.1915789 6.45473684,39.0989474 C6.05789474,39.0147368 5.85789474,39.3557895 5.59894737,39.4526316 C5.28421053,40.1863158 6.26105263,40.5410526 6.54315789,40.8989474 C7.04421053,41.5347368 7.51473684,41.8463158 8.34210526,42.1673684 C8.52947368,42.2063158 8.71578947,42.2452632 8.90315789,42.2852632 C9.16105263,42.4052632 9.53578947,42.6810526 9.78736842,42.7568421 L10.6136842,42.7568421 C10.82,42.9042105 11.0273684,43.0515789 11.2336842,43.2 C11.4,43.16 11.5673684,43.1210526 11.7347368,43.0821053 C11.9115789,43.1210526 12.0884211,43.16 12.2663158,43.2 C12.2957895,43.2389474 12.3252632,43.2778947 12.3547368,43.3178947 C12.2831579,43.6705263 11.4431579,44.4578947 11.2042105,44.7926316 C10.6589474,45.5547368 10.0231579,46.0652632 9.37473684,46.7105263 C8.57684211,47.5052632 7.79684211,48.5473684 6.63157895,48.9526316 C6.27368421,49.0757895 5.62631579,49.2357895 5.15578947,49.1294737 C4.71789474,49.0294737 4.55578947,48.6284211 4.00526316,48.7157895 C3.36105263,49.9063158 5.50736842,50.7 6.66105263,50.4273684 C7.85473684,50.1452632 8.89684211,49.4578947 9.75789474,48.8042105 C10.3063158,48.3894737 10.6431579,47.6357895 11.4989474,47.5357895 C11.7747368,46.7463158 12.2768421,46.3484211 12.9147368,45.9136842 C13.2926316,45.6568421 13.6178947,45.1305263 13.8884211,44.7631579 C14.2831579,44.2284211 14.64,43.6557895 15.0389474,43.1115789 C15.2547368,42.8852632 15.4715789,42.6589474 15.6873684,42.4326316 C15.8547368,42.0094737 16.0221053,41.5873684 16.1894737,41.1642105 C16.5789474,40.5336842 17.2526316,39.9421053 17.5168421,39.2168421 C17.6147368,38.7842105 17.7136842,38.3515789 17.8115789,37.9189474 L17.8115789,37.9189474 Z M16.8389474,34.3494737 C16.7147368,35.0726316 16.7263158,36.0284211 16.16,36.2968421 C16.0905263,36.3063158 16.0221053,36.3157895 15.9536842,36.3263158 C15.5768421,35.9757895 15.0642105,35.4631579 14.5084211,35.3231579 L13.7115789,35.3231579 C13.5431579,35.2547368 13.4031579,35.0757895 13.1505263,35.0273684 C12.4442105,34.8936842 11.4315789,34.9663158 11.1452632,34.4378947 C10.9684211,33.9494737 11.8484211,33.4073684 12.1178947,33.1989474 C12.6663158,32.7757895 12.9957895,32.2557895 13.4168421,31.6947368 C13.5684211,31.4915789 13.8473684,31.4810526 14.0652632,31.34 C14.4094737,31.0252632 14.7536842,30.7105263 15.0978947,30.3957895 C16.6536842,30.5052632 17.1326316,32.6347368 16.8389474,34.3494737 L16.8389474,34.3494737 Z" id="Fill-5" sketch:type="MSShapeGroup"></path>
            <path d="M40.7042105,61.0473684 C39.8484211,60.3673684 39.1505263,59.4894737 38.2557895,58.8347368 C37.3557895,58.1768421 36.3294737,57.7610526 35.3357895,57.1831579 C35.1684211,57.0252632 35.0010526,56.8684211 34.8336842,56.7105263 C34.1768421,56.2557895 32.7947368,55.6221053 32.4442105,54.9410526 C32.2642105,54.5905263 32.56,53.4631579 32.6505263,52.9347368 C32.8147368,51.9831579 32.9315789,50.9810526 33.1231579,50.1326316 C33.1421053,49.8568421 33.1621053,49.5810526 33.1821053,49.3063158 C33.3821053,48.6136842 33.7073684,47.9473684 33.6831579,47.1526316 C33.6642105,46.52 34.3,45.5189474 33.6831579,45.0873684 C32.5821053,44.3178947 31.4589474,45.9705263 30.7336842,45.8252632 C30.6442105,45.7684211 30.6842105,45.82 30.6442105,45.7073684 C31.1178947,45.0926316 32.0347368,44.3084211 32.6505263,43.8189474 C32.9315789,43.5968421 33.0252632,43.2547368 33.2410526,42.9631579 C33.4568421,42.7673684 33.6736842,42.5705263 33.8894737,42.3736842 C34.0557895,42.1473684 34.0736842,41.8978947 34.2147368,41.6357895 C34.3421053,41.5178947 34.4694737,41.4 34.5978947,41.2821053 C34.9831579,40.7294737 35.4494737,40.1978947 35.7189474,39.5705263 C35.9189474,39.1063158 35.7168421,38.5821053 35.6010526,38.2136842 C35.5810526,37.9578947 35.5621053,37.7021053 35.5421053,37.4473684 C35.3221053,36.7989474 33.6978947,36.2494737 32.68,36.2663158 C32.3526316,36.4210526 31.9473684,36.3021053 31.5589474,36.3557895 C31.1305263,36.4147368 30.7789474,36.5168421 30.2905263,36.6505263 C28.9389474,37.02 27.6073684,37.6515789 26.3378947,38.1547368 C25.5810526,38.3810526 24.8231579,38.6073684 24.0663158,38.8336842 C23.7221053,39.0305263 23.3778947,39.2273684 23.0336842,39.4231579 C22.66,39.5610526 22.2863158,39.6989474 21.9126316,39.8368421 C21.7063158,40.0136842 21.4989474,40.1905263 21.2926316,40.3673684 C20.4368421,40.92 19.4347368,40.7947368 19.0505263,41.8421053 C19.1021053,42.3526316 19.8768421,43.0736842 20.5852632,42.7273684 C20.86,42.5115789 21.1357895,42.2947368 21.4115789,42.0789474 C21.6178947,42.0189474 21.8242105,41.9610526 22.0305263,41.9010526 C22.1094737,41.7642105 22.1873684,41.6263158 22.2663158,41.4884211 C22.5126316,41.4494737 22.7578947,41.4094737 23.0042105,41.3705263 C23.1315789,41.2326316 23.26,41.0947368 23.3873684,40.9578947 C23.6726316,40.8789474 23.9578947,40.8 24.2431579,40.7210526 C24.5189474,40.5547368 24.7936842,40.3873684 25.0694737,40.22 C25.3147368,40.2 25.5610526,40.1810526 25.8063158,40.1610526 C25.9442105,40.0231579 26.0821053,39.8852632 26.22,39.7484211 C26.5052632,39.7284211 26.7905263,39.7084211 27.0747368,39.6894737 C27.2621053,39.5905263 27.4484211,39.4926316 27.6357895,39.3936842 C27.8621053,39.3842105 28.0884211,39.3747368 28.3147368,39.3642105 C28.4031579,39.2863158 28.4915789,39.2073684 28.58,39.1284211 C28.8947368,39.0305263 29.2094737,38.9315789 29.5231579,38.8336842 C29.7547368,38.7642105 30.0631579,38.9 30.2905263,38.8042105 C30.4378947,38.6757895 30.5852632,38.5484211 30.7336842,38.42 C31.6652632,38.5515789 32.3778947,38.3736842 33.1526316,37.9484211 C33.6052632,37.9968421 33.8315789,38.2978947 34.0378947,38.5978947 C33.9157895,39.6831579 33.0442105,40.2484211 32.5621053,40.9873684 C32.2736842,41.4294737 32.0821053,41.8810526 31.7663158,42.2852632 C31.5989474,42.4326316 31.4315789,42.58 31.2642105,42.7273684 C28.5831579,46.2557895 25.1873684,49.0821053 21.5294737,51.6368421 C20.9747368,52.0242105 20.4642105,52.3631579 19.9063158,52.7578947 C19.5326316,53.1021053 19.1589474,53.4463158 18.7852632,53.7905263 C18.3842105,54.0726316 18.0863158,54.2421053 17.7821053,54.6168421 C17.5031579,54.96 16.6578947,55.3315789 17.0157895,56.0915789 C17.1757895,56.4326316 17.76,56.4421053 18.0778947,56.2389474 C18.8989474,55.7126316 19.7221053,55.0768421 20.5263158,54.4978947 C21.3778947,53.8852632 22.1210526,53.1652632 22.9747368,52.5810526 C23.5842105,52.1873684 24.1936842,51.7936842 24.8031579,51.4010526 C24.9410526,51.2631579 25.0789474,51.1252632 25.2168421,50.9873684 C25.4431579,50.8694737 25.6694737,50.7515789 25.8947368,50.6336842 C25.9831579,50.5063158 26.0726316,50.3778947 26.1610526,50.2505263 C27.7673684,49.1157895 29.5978947,48.3389474 31.3821053,47.3884211 C31.4515789,47.3989474 31.52,47.4084211 31.5884211,47.4178947 C31.6084211,47.4473684 31.6284211,47.4768421 31.6473684,47.5063158 C31.7515789,48.1094737 31.3294737,48.7631579 31.1757895,49.3357895 C30.86,50.5063158 30.7515789,51.9273684 30.4673684,53.1705263 C30.3231579,53.8073684 30.4084211,55.0094737 29.76,55.0589474 C29.1684211,54.4610526 29.56,53.6873684 28.6684211,53.1410526 C27.8315789,52.6294737 26.6315789,53.3842105 26.5147368,53.9378947 C26.5642105,54.1442105 26.6126316,54.3505263 26.6621053,54.5568421 C26.7210526,54.5968421 26.78,54.6357895 26.8389474,54.6747368 C27.1810526,54.6515789 27.3894737,54.5 27.5768421,54.3210526 L27.6947368,54.3210526 C28.3821053,55.2368421 27.1147368,56.9768421 26.7210526,57.7431579 C26.3178947,58.5789474 25.9147368,59.4147368 25.5115789,60.2505263 C24.3536842,62.2 22.4957895,64.4536842 20.6442105,65.7084211 C20.1042105,65.6568421 20.0284211,65.3042105 19.4642105,65.2957895 C19.4442105,65.3052632 19.4242105,65.3157895 19.4052632,65.3252632 C19.06,66.6452632 20.1547368,67.2715789 21.3515789,66.9178947 C22.2663158,66.6484211 23.1052632,65.8505263 23.8010526,65.2957895 C23.9578947,65.0894737 24.1147368,64.8821053 24.2726316,64.6757895 C24.4494737,64.4894737 24.6852632,64.4863158 24.8926316,64.3221053 C25.1273684,64.1357895 25.1631579,63.8126316 25.3347368,63.5547368 C25.6326316,63.1073684 26.0926316,62.7621053 26.3968421,62.3452632 C26.6031579,62.0621053 26.6463158,61.7505263 26.8389474,61.4305263 C26.9968421,61.3126316 27.1536842,61.1947368 27.3115789,61.0768421 C27.6084211,60.6273684 27.6557895,60.1126316 27.9305263,59.6315789 C28.0684211,59.4547368 28.2063158,59.2778947 28.3442105,59.1 C28.3736842,58.9336842 28.4031579,58.7663158 28.4326316,58.5989474 C28.5642105,58.2821053 28.8768421,58.0031579 29.0221053,57.6252632 C29.2631579,57 29.3705263,56.3863158 29.7010526,55.8557895 C29.9084211,55.9042105 30.0115789,56.0305263 30.1136842,56.18 C30.2505263,56.9421053 30.1147368,58.0652632 29.9663158,58.6284211 C29.9863158,58.8547368 30.0052632,59.0810526 30.0252632,59.3073684 C29.9757895,59.7105263 29.9273684,60.1136842 29.8778947,60.5168421 C29.8094737,62.0010526 29.74,63.4863158 29.6715789,64.9715789 C29.6905263,65.3936842 29.7105263,65.8168421 29.7305263,66.24 C29.7694737,67.2526316 29.8094737,68.2652632 29.8484211,69.2778947 C30.0326316,70.4284211 30.2010526,71.92 29.9957895,73.1431579 C29.9326316,73.5178947 30.0284211,73.8136842 30.0842105,74.1157895 C30.2473684,75.0010526 30.0452632,76.1473684 29.9073684,76.8305263 C29.7821053,77.4536842 30.0884211,77.9105263 29.3463158,77.9221053 C28.9242105,77.5578947 28.5010526,77.1936842 28.0778947,76.8305263 C27.6189474,76.1378947 27.5336842,75.3231579 27.1936842,74.5 C26.6315789,73.1442105 26.1305263,71.4305263 25.6884211,69.9568421 C25.62,69.5042105 25.5505263,69.0515789 25.4821053,68.6 C25.2768421,67.6978947 25.0452632,66.4873684 24.7736842,65.6789474 C24.7147368,65.6494737 24.6557895,65.62 24.5968421,65.5905263 L24.5673684,65.5905263 C24.2726316,66.1168421 24.5810526,67.5663158 24.7147368,68.1568421 C24.7252632,68.4821053 24.7347368,68.8063158 24.7442105,69.1305263 C25.64,72.5136842 25.7631579,76.4484211 27.9305263,78.5410526 C28.3284211,78.9252632 28.7263158,79.5884211 29.2873684,79.78 C29.7010526,79.8094737 30.1136842,79.8389474 30.5263158,79.8684211 C30.8052632,79.9052632 31.1042105,79.9652632 31.3231579,79.8094737 C31.7021053,79.5410526 32.0989474,77.3263158 31.9726316,76.5652632 C31.9115789,76.2010526 31.8105263,75.6715789 31.8842105,75.2073684 C32.6231579,70.5505263 31.2568421,66.0957895 32.12,61.4010526 C32.0905263,61.1947368 32.0610526,60.9884211 32.0315789,60.7821053 C32.0705263,60.5652632 32.1094737,60.3494737 32.1494737,60.1326316 C32.3210526,59.1473684 31.7852632,57.6894737 32.4736842,57.2126316 C32.7642105,57.2526316 34.1094737,58.4010526 34.4210526,58.6284211 C35.8663158,59.6852632 37.6936842,60.4126316 38.8168421,61.7852632 C39.0126316,62.0010526 39.2094737,62.2178947 39.4063158,62.4336842 C39.8968421,63.1989474 40.0178947,64.1463158 41.1178947,64.2926316 C42.4894737,63.6905263 41.5252632,61.6989474 40.7042105,61.0473684" id="Fill-6" sketch:type="MSShapeGroup"></path>
            <path d="M58.2873684,27.6231579 C58.4936842,27.5347368 58.7,27.4463158 58.9063158,27.3578947 L60.2631579,27.3578947 C60.9231579,27.2505263 61.52,27.1336842 62.0926316,27.0336842 L63.1252632,27.0336842 C63.5084211,26.9347368 63.8926316,26.8368421 64.2757895,26.7378947 C64.4915789,26.7284211 64.7084211,26.7189474 64.9242105,26.7084211 C64.9936842,26.6305263 65.0621053,26.5515789 65.1315789,26.4726316 C65.2684211,26.4926316 65.4063158,26.5115789 65.5442105,26.5315789 C66.1842105,26.6484211 66.6252632,26.5505263 66.9894737,26.2663158 C67.0136842,26.2473684 68.0957895,24.7642105 68.1105263,24.7326316 C68.1989474,24.4768421 68.2873684,24.2210526 68.3757895,23.9652632 C68.6884211,23.46 69.2515789,23.1505263 69.4968421,22.5494737 C69.6031579,22.2894737 69.4494737,22.04 69.5263158,21.7231579 C69.6052632,21.5557895 69.6842105,21.3884211 69.7631579,21.2221053 C69.9642105,21.1410526 70.1715789,21.2305263 70.4115789,21.1621053 C70.5884211,21.0347368 70.7652632,20.9073684 70.9431579,20.7789474 C71.3778947,20.5442105 71.6915789,20.54 72.2410526,20.3663158 C72.4663158,20.1894737 72.6926316,20.0115789 72.9189474,19.8347368 C73.1357895,19.8452632 73.3515789,19.8547368 73.5684211,19.8642105 C74.4610526,19.5852632 74.7073684,18.7526316 75.9873684,18.7726316 C76.3242105,19.1178947 75.1326316,22.0915789 74.8957895,22.6673684 C74.7978947,23.06 74.6989474,23.4536842 74.6010526,23.8473684 C74.5126316,24.0431579 74.4242105,24.24 74.3357895,24.4368421 L74.3357895,24.8505263 C74.1778947,25.0757895 74.0210526,25.3021053 73.8631579,25.5284211 C73.6957895,25.9126316 73.5294737,26.2957895 73.3621053,26.6789474 C72.5136842,29.0378947 71.4357895,31.4010526 68.8778947,32.0778947 C68.8578947,32.1757895 68.8378947,32.2747368 68.8189474,32.3726316 C69.4315789,32.6873684 70.4526316,32.2842105 70.8547368,32.0484211 C72.6031579,31.0189474 73.1410526,29.7610526 74.2168421,28.0947368 C75.0873684,26.7473684 75.7547368,25.3157895 76.3410526,23.6705263 C76.5305263,23.1389474 76.9831579,22.6789474 77.1673684,22.1357895 C77.2357895,21.8021053 77.3052632,21.4673684 77.3736842,21.1326316 C77.4821053,20.9852632 77.5905263,20.8378947 77.6978947,20.6905263 C77.9052632,20.1010526 78.1115789,19.5105263 78.3178947,18.92 C78.5042105,18.6947368 78.6915789,18.4684211 78.8789474,18.2421053 C79.0042105,18.0452632 78.9905263,17.7852632 79.1736842,17.6515789 C79.5505263,17.3778947 80.0357895,17.2726316 80.4421053,17.0326316 C80.5989474,16.9147368 80.7568421,16.7968421 80.9136842,16.6789474 C81.2452632,16.5821053 81.4357895,16.8473684 81.7694737,16.7378947 C81.9168421,16.6294737 82.0642105,16.5210526 82.2115789,16.4126316 C82.8221053,16.1842105 83.2305263,16.1915789 83.9526316,16.0589474 C84.3884211,15.9789474 84.4673684,15.5863158 84.8378947,15.4989474 C85.1210526,15.4305263 85.2831579,15.6126316 85.5157895,15.6463158 C86.2705263,15.2578947 86.1347368,13.5368421 84.9557895,13.7578947 C83.6389474,14.0052632 82.4052632,14.4589474 81.0905263,14.7905263 C80.7768421,14.8694737 80.4673684,15.2894737 79.9989474,15.1147368 C79.9105263,15.0557895 79.8221053,14.9968421 79.7336842,14.9378947 C79.7778947,14.5873684 79.9852632,14.2284211 80.0873684,13.9347368 C80.1473684,13.5515789 80.2063158,13.1673684 80.2652632,12.7842105 C80.4873684,12.0652632 80.82,11.2810526 80.9726316,10.5421053 C80.9536842,10.3357895 80.9336842,10.1294737 80.9136842,9.92315789 C81.0515789,9.65684211 81.1894737,9.39157895 81.3273684,9.12631579 L81.3273684,8.44736842 C81.4,8.03263158 81.5821053,7.54421053 81.6515789,7.17894737 C81.6221053,7.01157895 81.5926316,6.84526316 81.5631579,6.67789474 C81.5936842,6.47894737 81.6915789,6.04421053 81.74,5.73368421 C82.0105263,4.00421053 81.4957895,1.02631579 80.2357895,0.836842105 C79.7073684,1.03052632 79.3084211,1.05263158 79.4389474,1.86947368 C79.4589474,2.06526316 79.4778947,2.26210526 79.4978947,2.45894737 C79.4484211,2.62947368 79.3305263,2.66105263 79.3210526,2.93157895 C79.4778947,3.04947368 79.6357895,3.16736842 79.7926316,3.28526316 C79.94,4.03578947 79.6421053,5.40421053 79.4978947,6.08736842 C79.4884211,6.57894737 79.4778947,7.07157895 79.4684211,7.56315789 C79.3705263,7.79894737 79.2715789,8.03473684 79.1736842,8.27052632 C78.9084211,9.16315789 78.94,9.98315789 78.6715789,10.8968421 C78.4642105,11.6042105 78.1673684,12.4810526 77.9936842,13.1673684 C77.7642105,14.0747368 77.5936842,15.9178947 76.9610526,16.3536842 C76.5336842,16.6484211 75.9810526,16.6557895 75.4568421,16.8557895 C74.6010526,17.18 73.7705263,17.5336842 72.8894737,17.8884211 C72.6736842,18.0252632 72.4568421,18.1631579 72.2410526,18.3010526 C71.6557895,18.5305263 71.2157895,18.6284211 70.7063158,18.92 C70.5589474,19.0284211 70.4115789,19.1368421 70.2642105,19.2452632 C68.7315789,19.8715789 67.2252632,20.5473684 65.78,21.2515789 C65.6621053,21.2315789 65.5442105,21.2115789 65.4263158,21.1915789 C65.0157895,20.5747368 65.2031579,19.8494737 65.0126316,18.98 C64.7810526,17.9168421 64.6747368,16.7168421 64.3936842,15.6757895 C64.3063158,15.3536842 64.4063158,14.9452632 64.3052632,14.5547368 C64.2442105,14.3178947 64.0021053,14.2136842 64.0694737,13.9052632 L64.0694737,13.8463158 C64.26,13.7431579 64.4978947,13.8073684 64.7178947,13.7578947 C65.3894737,12.5115789 62.9536842,11.2326316 62.5347368,12.7547368 L62.5347368,14.1115789 C62.5157895,14.7705263 62.4957895,15.4294737 62.4757895,16.0884211 C62.6052632,16.8515789 62.8684211,17.6105263 63.0073684,18.2715789 C63.0263158,18.7336842 63.0463158,19.1957895 63.0663158,19.6578947 C63.18,20.0747368 63.6515789,21.8831579 63.4789474,22.2242105 C63.2673684,22.6431579 62.5315789,22.8168421 62.1221053,23.0505263 C61.3547368,23.5031579 60.5884211,23.9557895 59.8210526,24.4073684 C59.5757895,24.5747368 59.3252632,24.8957895 59.0831579,25.0273684 C58.8768421,25.0663158 58.6705263,25.1063158 58.4642105,25.1452632 C58.1578947,25.2747368 58.0336842,25.5873684 57.7852632,25.7642105 C57.12,26.2389474 56.7157895,26.0221053 56.9,27.24 C57.2294737,27.4021053 57.7157895,27.7463158 58.2873684,27.6231579 L58.2873684,27.6231579 Z M65.9863158,23.08 C65.9863158,23.08 67.5957895,22.2642105 67.6389474,22.2536842 C68.0242105,22.1610526 68.2115789,22.2905263 68.4347368,22.0768421 C68.4642105,22.0968421 68.4936842,22.1168421 68.5242105,22.1357895 L68.5242105,22.1947368 C67.8136842,23.0863158 67.6726316,24.2368421 66.5178947,24.7031579 C65.8347368,24.64 65.5926316,23.5842105 65.9863158,23.08 L65.9863158,23.08 Z M61.2073684,26.06 C61.7989474,25.2505263 61.7336842,25.1726316 62.9189474,24.9389474 C62.9673684,24.7915789 63.0168421,24.6431579 63.0663158,24.4957895 C63.1905263,24.2821053 63.4926316,24.2010526 63.6852632,24.0536842 L63.8326316,24.0536842 L63.8326316,24.0831579 C64.2147368,24.4105263 64.1821053,24.9052632 64.4526316,25.3515789 C64.6494737,25.5673684 64.8463158,25.7842105 65.0421053,26.0010526 C65.0231579,26.0789474 65.0031579,26.1578947 64.9831579,26.2368421 C64.6494737,26.2852632 64.3147368,26.3347368 63.98,26.3842105 C63.7410526,26.3389474 63.6178947,26.1063158 63.3021053,26.1484211 C62.7252632,26.2252632 61.9136842,26.4210526 61.2957895,26.2368421 C61.2663158,26.1873684 61.2368421,26.1378947 61.2073684,26.0894737 L61.2073684,26.06 L61.2073684,26.06 Z" id="Fill-7" sketch:type="MSShapeGroup"></path>
            <path d="M66.96,32.3136842 C66.9210526,32.3926316 66.8810526,32.4715789 66.8421053,32.5494737 L66.8421053,32.6968421 C66.8715789,32.7463158 66.9010526,32.7957895 66.9305263,32.8452632 L67.0484211,32.8452632 C67.0978947,32.7863158 67.1473684,32.7273684 67.1957895,32.6673684 C67.2326316,32.5757895 67.2157895,32.5347368 67.1663158,32.4610526 C67.1094737,32.3610526 67.08,32.3505263 66.96,32.3136842" id="Fill-8" sketch:type="MSShapeGroup"></path>
            <path d="M82.36,45.3231579 C83.0378947,45.0578947 83.7168421,44.7926316 84.3947368,44.5273684 C84.8326316,44.4210526 85.1968421,44.4431579 85.5452632,44.2326316 C85.7178947,44.1273684 85.9084211,43.8315789 85.8410526,43.4947368 C85.6747368,42.6673684 84.7631579,42.5789474 83.8936842,42.8452632 C83.3526316,43.0715789 82.8115789,43.2978947 82.2705263,43.5242105 C80.8410526,43.9368421 79.2957895,43.7378947 78.1410526,43.1705263 C77.7610526,42.9831579 77.3884211,42.92 77.1378947,42.6094737 L77.1378947,42.58 C77.6778947,41.8557895 78.0084211,41.0905263 78.4357895,40.22 C78.6421053,39.9252632 78.8484211,39.6294737 79.0557895,39.3347368 C79.92,37.8757895 80.7557895,36.1526316 81.2978947,34.4378947 C81.8578947,32.6631579 81.3136842,30.5221053 79.3210526,30.5147368 C79.0557895,30.5336842 78.7894737,30.5536842 78.5242105,30.5736842 C78.2684211,30.6810526 78.0126316,30.7894737 77.7578947,30.8978947 C77.5610526,30.9273684 77.3642105,30.9568421 77.1673684,30.9863158 C75.2073684,31.6378947 72.0652632,33.6978947 70.9126316,35.1757895 C70.7757895,35.2642105 70.6378947,35.3526316 70.5,35.4410526 C69.5021053,36.6189474 68.5221053,37.7210526 67.6094737,39.0105263 C67.3136842,39.4284211 67.12,40.3189474 66.6947368,40.6031579 C66.3589474,40.2494737 66.4578947,39.3673684 66.3410526,38.8042105 C66.2526316,38.5484211 66.1631579,38.2926316 66.0747368,38.0368421 C66.0852632,37.7315789 66.0947368,37.4273684 66.1042105,37.1221053 C66.0652632,36.7589474 66.0263158,36.3947368 65.9863158,36.0305263 C65.9968421,35.8242105 66.0063158,35.6178947 66.0157895,35.4115789 C65.8873684,34.9010526 65.8021053,34.12 65.78,33.4347368 C65.9905263,33.2231579 66.2157895,33.0894737 66.3410526,32.7863158 C66.2705263,31.9389474 65.2221053,31.3210526 64.6589474,32.1368421 C64.3747368,32.5484211 64.3715789,33.4642105 64.2757895,34.0252632 L64.2757895,35.6768421 C64.1789474,37.2768421 64.3494737,38.7663158 64.5705263,40.22 C64.6094737,41.2231579 64.6494737,42.2263158 64.6884211,43.2294737 C64.6684211,43.5242105 64.6494737,43.8189474 64.6294737,44.1136842 C64.6978947,44.5368421 64.7673684,44.96 64.8357895,45.3821053 C65.0315789,46.64 64.7421053,49.0810526 66.4294737,48.6273684 C66.6821053,48.5105263 66.9252632,48.1989474 67.0484211,47.9494737 C67.0178947,47.3989474 66.6936842,46.9684211 66.8126316,46.2673684 C67.0536842,44.8463158 67.1789474,43.42 67.6389474,42.1968421 C68.9,38.8389474 71.4347368,36.1557895 74.3357895,34.4084211 C75.6357895,33.6252632 77.3452632,32.4021053 79.38,32.4315789 C79.9242105,33.2789474 79.0336842,34.2042105 78.7894737,34.88 C78.5094737,35.6589474 78.0336842,36.3926316 77.7273684,37.0926316 C77.1684211,38.3726316 76.4,40.4136842 75.4273684,41.2526316 C75.2421053,41.2210526 73.3642105,39.4694737 73.2442105,39.2757895 C72.9915789,38.8726316 72.8726316,38.5631579 72.4178947,38.3610526 C71.3084211,38.3894737 71.4084211,39.7073684 71.1494737,40.6326316 C70.82,41.8084211 70.4684211,43.3431579 70.2347368,44.6157895 C70.0326316,45.7126316 70.1557895,47.1378947 69.7031579,47.9789474 C69.3410526,48.6526316 68.3084211,49.2115789 67.6978947,49.66 C66.5336842,50.5157895 65.2568421,51.3978947 63.8915789,52.0494737 C62.6189474,52.6589474 61.2347368,53.2284211 60.1452632,54.0557895 C59.6778947,54.4105263 57.0673684,55.3894737 57.7263158,56.3273684 C58.3252632,57.18 59.8442105,55.9936842 60.3221053,55.8263158 C60.4894737,55.8063158 60.6568421,55.7863158 60.8242105,55.7663158 C62.1389474,55.1810526 63.5189474,54.3557895 64.6884211,53.6136842 C65.3547368,53.1894737 66.1063158,52.8989474 66.7536842,52.4631579 C67.1315789,52.2084211 68.4557895,51.3073684 68.9073684,51.5189474 C69.0431579,52.3063158 68.3115789,53.8326316 68.1694737,54.5273684 C67.9084211,55.8073684 67.5178947,56.7852632 67.1663158,57.92 C67.1473684,58.1463158 67.1273684,58.3726316 67.1073684,58.5989474 C66.6978947,60.0947368 66.3073684,61.7357895 65.6915789,63.0242105 C65.4768421,63.4736842 65.4684211,63.94 65.2494737,64.3515789 C65.0915789,64.5378947 64.9347368,64.7252632 64.7768421,64.9115789 C64.2715789,65.7231579 64.6905263,66.4621053 65.1610526,66.8589474 C66.4652632,66.6621053 67.2157895,64.2705263 67.6684211,63.1126316 C67.9073684,62.5 68.3231579,61.7705263 68.5242105,61.1357895 C68.6421053,60.5852632 68.76,60.0347368 68.8778947,59.4842105 C69.1389474,58.6136842 69.5178947,57.5252632 69.8515789,56.6810526 C69.8905263,56.4157895 69.9294737,56.1505263 69.9694737,55.8852632 C70.0378947,55.8157895 70.1073684,55.7473684 70.1757895,55.6778947 C70.1957895,55.3242105 70.2147368,54.9705263 70.2347368,54.6168421 C70.3821053,54.38 70.5294737,54.1442105 70.6768421,53.9084211 C70.6968421,53.6621053 70.7168421,53.4168421 70.7357895,53.1705263 C70.9705263,52.22 71.3357895,50.36 71.8863158,49.7778947 C72.0368421,49.62 72.2863158,49.7042105 72.5063158,49.6010526 C73.1884211,49.2821053 73.9294737,48.9536842 74.66,48.5978947 C77.1094737,47.4073684 79.6821053,46.2515789 82.36,45.3231579 L82.36,45.3231579 Z M72.3884211,45.3231579 C72.3484211,45.3336842 72.3094737,45.3431579 72.2705263,45.3526316 C72.1357895,45.2684211 72.0494737,45.2084211 72.0052632,45.0284211 C71.9557895,44.7715789 72.3231579,44.4873684 72.3884211,44.2021053 C72.6326316,43.1389474 72.28,41.54 73.0368421,40.8989474 L73.2442105,40.8989474 C73.5515789,41.1915789 74.5673684,42.1042105 74.6010526,42.5505263 C74.0221053,43.1589474 73.0326316,45.0063158 72.3884211,45.3231579 L72.3884211,45.3231579 Z M72.9778947,47.4473684 C73.08,46.9652632 73.4284211,46.8210526 73.7157895,46.5336842 C74.1705263,46.0757895 74.4684211,45.5515789 74.8663158,45.0284211 C75.0631579,44.8610526 75.26,44.6947368 75.4568421,44.5273684 C75.7473684,44.1305263 75.7073684,43.9505263 76.1642105,43.7010526 C76.6147368,43.7042105 78.6768421,44.7168421 78.6421053,44.94 C78.5557895,45.08 77.4526316,45.5021053 77.2263158,45.5894737 C75.8,46.1347368 74.5789474,46.9957895 73.0073684,47.4768421 C72.9978947,47.4673684 72.9884211,47.4578947 72.9778947,47.4473684 L72.9778947,47.4473684 Z" id="Fill-9" sketch:type="MSShapeGroup"></path>
            <path d="M88.9673684,67.7736842 C88.86,67.3189474 88.5410526,67.0715789 88.3778947,66.7115789 C88.3578947,66.5442105 88.3378947,66.3768421 88.3189474,66.2105263 C88.2305263,65.9610526 87.8368421,65.5736842 87.6105263,65.4431579 C87.3705263,65.4905263 87.3094737,65.6484211 87.08,65.7378947 C86.3052632,65.1347368 85.7473684,64.2084211 85.1326316,63.4368421 C84.7789474,63.1126316 84.4242105,62.7884211 84.0705263,62.4631579 C83.1863158,61.1968421 82.0136842,60.1547368 80.8547368,59.1589474 C80.7273684,58.9726316 80.5989474,58.7852632 80.4715789,58.5989474 C80.1757895,58.2094737 79.7663158,57.8715789 79.38,57.5663158 C78.9094737,57.1947368 78.6315789,56.6515789 78.2589474,56.18 C77.4642105,55.1747368 76.0936842,54.8 74.3947368,54.7642105 C74.3157895,54.8231579 74.2368421,54.8821053 74.1578947,54.9410526 C74.0842105,55.0178947 74.0736842,55.0484211 74.0694737,55.2063158 C74.6778947,55.84 75.8747368,55.8778947 76.4294737,56.5631579 C76.8368421,57.0663158 77.3578947,57.4873684 77.7578947,57.9789474 C78.3378947,58.7263158 78.9178947,59.4736842 79.4978947,60.2210526 C79.9178947,60.6968421 80.5157895,61.0494737 80.9136842,61.5494737 C82.0284211,62.9473684 83.1073684,64.3421053 84.3357895,65.62 C85.1347368,66.4505263 86.5842105,68.9052632 87.7284211,69.16 C88.3747368,69.3042105 89.1389474,68.4968421 88.9673684,67.7736842" id="Fill-10" sketch:type="MSShapeGroup"></path>
        </g>
    </g>
</svg>