<?xml version="1.0" encoding="UTF-8" standalone="no"?>
<svg width="250px" height="70px" viewBox="0 0 250 70" version="1.1" xmlns="http://www.w3.org/2000/svg" xmlns:xlink="http://www.w3.org/1999/xlink" xmlns:sketch="http://www.bohemiancoding.com/sketch/ns">
    <!-- Generator: Sketch 3.3.3 (12072) - http://www.bohemiancoding.com/sketch -->
    <title>index-daebyday-title</title>
    <desc>Created with Sketch.</desc>
    <defs></defs>
    <g id="Page-1" stroke="none" stroke-width="1" fill="none" fill-rule="evenodd" sketch:type="MSPage">
        <g id="index-daebyday-title" sketch:type="MSLayerGroup" transform="translate(0.000000, 1.000000)" fill="#FFFFFF">
            <path d="M14.35,18.05 L15.35,16.7 C18.083347,17.9166728 20.5416558,19.2499927 22.725,20.7 L21.6,22.25 C19.5499898,20.7499925 17.1333472,19.3500065 14.35,18.05 L14.35,18.05 Z M7.575,2.05 L15.825,2.05 L15.825,0 L17.625,0 L17.625,2.05 L22.95,2.05 L22.95,3.875 L17.625,3.875 L17.625,6.15 L15.825,6.15 L15.825,3.875 L7.575,3.875 L7.575,6.15 L5.775,6.15 L5.775,3.875 L0.3,3.875 L0.3,2.05 L5.775,2.05 L5.775,0 L7.575,0 L7.575,2.05 Z M0,11.8 C4.66669,10.3833262 8.7166495,8.06668275 12.15,4.85 L13.825,5.725 C13.558332,5.94166775 13.3000012,6.1666655 13.05,6.4 C16.2000158,8.666678 19.6999808,10.4416602 23.55,11.725 L22.65,13.35 C18.6666468,11.949993 15.0333497,10.0000125 11.75,7.5 C8.483317,10.1500133 4.85002,12.1166602 0.85,13.4 L0,11.8 Z M12.65,15.375 L12.65,23.15 L10.85,23.15 L10.85,16.325 C8.18332,18.925013 5.150017,20.9416595 1.75,22.375 L0.725,20.825 C4.07501675,19.5083268 7.00832075,17.6916782 9.525,15.375 L3.425,15.375 L3.425,13.575 L10.85,13.575 L10.85,10.65 L12.65,10.65 L12.65,13.575 L19.925,13.575 L19.925,15.375 L12.65,15.375 Z M48.275,1.375 L48.275,23.15 L46.45,23.15 L46.45,21.35 L32.55,21.35 L32.55,23.15 L30.725,23.15 L30.725,1.375 L48.275,1.375 Z M46.45,12.25 L32.55,12.25 L32.55,19.525 L46.45,19.525 L46.45,12.25 Z M32.55,10.45 L46.45,10.45 L46.45,3.175 L32.55,3.175 L32.55,10.45 Z M57.9499999,1.575 L76.7999999,1.575 L76.7999999,3.375 L68.4499999,9.075 L68.4499999,11.15 L78.6499999,11.15 L78.6499999,12.95 L68.4499999,12.95 L68.4499999,21.05 C68.4499999,22.4166735 67.7666734,23.1 66.3999999,23.1 L60.9749999,23.1 L60.5749999,21.3 L65.7749999,21.3 C66.3583362,21.3 66.6499999,21.0166695 66.6499999,20.45 L66.6499999,12.95 L55.8999999,12.95 L55.8999999,11.15 L66.6499999,11.15 L66.6499999,7.525 L67.5249999,7.525 L74.0249999,3.375 L57.9499999,3.375 L57.9499999,1.575 Z M94.5999999,10.225 L97.5249999,10.225 L94.2249999,17.05 L92.5749999,17.05 L94.5999999,10.225 Z M131.675,1.375 L131.675,23.15 L129.85,23.15 L129.85,21.35 L115.95,21.35 L115.95,23.15 L114.125,23.15 L114.125,1.375 L131.675,1.375 Z M129.85,12.25 L115.95,12.25 L115.95,19.525 L129.85,19.525 L129.85,12.25 Z M115.95,10.45 L129.85,10.45 L129.85,3.175 L115.95,3.175 L115.95,10.45 Z M159.475,1.375 L159.475,23.15 L157.65,23.15 L157.65,21.35 L143.75,21.35 L143.75,23.15 L141.925,23.15 L141.925,1.375 L159.475,1.375 Z M157.65,12.25 L143.75,12.25 L143.75,19.525 L157.65,19.525 L157.65,12.25 Z M143.75,10.45 L157.65,10.45 L157.65,3.175 L143.75,3.175 L143.75,10.45 Z M186.875,0.775 L186.875,9.825 L170.225,9.825 L170.225,0.775 L186.875,0.775 Z M185.075,6.05 L172.025,6.05 L172.025,8.2 L185.075,8.2 L185.075,6.05 Z M172.025,4.55 L185.075,4.55 L185.075,2.4 L172.025,2.4 L172.025,4.55 Z M166.9,11.575 L190.05,11.575 L190.05,13.275 L179.75,13.275 L179.75,16.225 L188.575,16.225 L188.575,17.825 L179.75,17.825 L179.75,20.725 C179.866667,20.7416668 179.983332,20.75 180.1,20.75 L190.25,20.75 L190.025,22.475 L179.775,22.475 C178.858328,22.475 177.958337,22.4333338 177.075,22.35 C174.874989,22.149999 172.966674,21.1583423 171.35,19.375 C171.299999,19.4750005 171.25,19.5666662 171.2,19.65 C170.466663,20.783339 169.316674,21.8999945 167.75,23 L166.575,21.325 C167.975007,20.4083287 169.004163,19.483338 169.6625,18.55 C170.320836,17.616662 170.874997,16.2083427 171.325,14.325 L173,14.75 C172.733332,15.950006 172.425001,16.9916622 172.075,17.875 C173.541674,19.5250082 175.258323,20.4249992 177.225,20.575 C177.458334,20.5916668 177.699998,20.6083332 177.95,20.625 L177.95,13.275 L166.9,13.275 L166.9,11.575 Z M205.925,1.075 L217.1,1.075 L217.1,2.875 L212.725,8.2 L212.725,10.85 L218.05,10.85 L218.05,12.65 L212.725,12.65 L212.725,21.05 C212.725,22.4166735 212.041673,23.1 210.675,23.1 L207.1,23.1 L206.725,21.3 L210.05,21.3 C210.633336,21.3 210.925,21.0166695 210.925,20.45 L210.925,12.65 L204.95,12.65 L204.95,10.85 L210.925,10.85 L210.925,7.325 L211.325,7.325 L214.875,2.875 L205.925,2.875 L205.925,1.075 Z M195.525,14.125 C196.358337,11.6083207 197.024997,8.9666805 197.525,6.2 L194.9,6.2 L194.9,4.4 L197.8,4.4 C198.000001,2.999993 198.158332,1.5500075 198.275,0.05 L200.125,0.05 C199.941665,1.56667425 199.750001,3.01665975 199.55,4.4 L204.375,4.4 C204.375,9.1666905 203.758339,12.949986 202.525,15.75 C202.291665,16.2333358 202.033334,16.708331 201.75,17.175 C202.866672,18.175005 203.974994,19.241661 205.075,20.375 L203.65,21.65 C202.799995,20.6666618 201.841672,19.6666718 200.775,18.65 C199.558327,20.2833415 197.975009,21.7499935 196.025,23.05 L194.775,21.625 C196.725009,20.3749937 198.29166,18.983341 199.475,17.45 C198.258327,16.3499945 196.941673,15.2416722 195.525,14.125 L195.525,14.125 Z M199.25,6.2 C198.766664,8.91668025 198.16667,11.3916555 197.45,13.625 C198.433338,14.3750037 199.424995,15.1666625 200.425,16 C200.591667,15.6833318 200.758332,15.3666683 200.925,15.05 C201.925005,12.849989 202.491666,9.9000185 202.625,6.2 L199.25,6.2 Z M242.875,1.375 L242.875,23.15 L241.05,23.15 L241.05,21.35 L227.15,21.35 L227.15,23.15 L225.325,23.15 L225.325,1.375 L242.875,1.375 Z M241.05,12.25 L227.15,12.25 L227.15,19.525 L241.05,19.525 L241.05,12.25 Z M227.15,10.45 L241.05,10.45 L241.05,3.175 L227.15,3.175 L227.15,10.45 Z" id="茶日子，日日是好日" sketch:type="MSShapeGroup"></path>
            <path d="M21.45,44.5 L21.45,57.4 L18.375,57.4 L18.375,55.875 L12.375,55.875 L12.375,63.55 L9.275,63.55 L9.275,55.875 L3.075,55.875 L3.075,57.4 L0,57.4 L0,44.5 L9.275,44.5 L9.275,40.1 L12.375,40.1 L12.375,44.5 L21.45,44.5 Z M9.275,47.475 L3.075,47.475 L3.075,52.9 L9.275,52.9 L9.275,47.475 Z M18.375,47.475 L12.375,47.475 L12.375,52.9 L18.375,52.9 L18.375,47.475 Z M44.45,49.15 C44.716668,53.2333538 46.7916472,57.2666468 50.675,61.25 L48.55,63.675 C45.9999872,60.941653 44.1750055,58.1333478 43.075,55.25 C41.808327,58.450016 39.7583475,61.249988 36.925,63.65 L34.8,61.15 C39.2500222,57.5666488 41.475,52.8666958 41.475,47.05 L41.475,40.1 L44.55,40.1 L44.55,47.05 C44.55,47.6666698 44.516667,48.2916635 44.45,48.925 C44.4333332,48.991667 44.4333332,49.0666663 44.45,49.15 L44.45,49.15 Z M47.3,44.175 L50.025,44.825 C49.5083307,47.5916805 48.816671,50.074989 47.95,52.275 L45.375,51.425 C46.2083375,49.291656 46.8499977,46.8750135 47.3,44.175 L47.3,44.175 Z M33.375,53.775 L33.375,63.55 L30.4,63.55 L30.4,54.675 C29.6166627,56.541676 28.658339,58.2583255 27.525,59.825 L26.5,55.95 C27.9500072,54.2499915 29.108329,52.2083453 29.975,49.825 L26.875,49.825 L26.875,46.85 L30.4,46.85 L30.4,43.85 C29.5166622,43.9500005 28.6166712,44.033333 27.7,44.1 L26.8,41.35 C29.733348,41.149999 32.5416532,40.7666695 35.225,40.2 L36.675,42.725 C35.608328,42.9750013 34.508339,43.199999 33.375,43.4 L33.375,46.85 L35.975,46.85 L35.975,49.825 L33.375,49.825 L33.375,52.475 L34.4,51.5 C35.466672,52.566672 36.3916627,53.6249948 37.175,54.675 L35.15,56.6 C34.6666642,55.6833288 34.0750035,54.7416715 33.375,53.775 L33.375,53.775 Z M37.225,51.825 C37.158333,49.2583205 36.8833357,46.7833453 36.4,44.4 L39.05,44.05 C39.6333362,46.5666793 39.9999992,49.0999873 40.15,51.65 L37.225,51.825 Z M55.4249999,63.55 L55.4249999,40.95 L63.5749999,40.95 L63.5749999,43.625 L61.7249999,49.55 C63.0250064,51.3166755 63.7083329,53.0499915 63.7749999,54.75 C63.7583332,56.3666748 63.4416697,57.474997 62.8249999,58.075 C62.2083302,58.6583363 61.0833414,58.95 59.4499999,58.95 L58.5249999,56.2 C60.2083417,56.2500003 61.0583332,55.7666718 61.0749999,54.75 C61.0583332,53.3666598 60.3750067,51.67501 59.0249999,49.675 L60.8249999,43.625 L58.2999999,43.625 L58.2999999,63.55 L55.4249999,63.55 Z M64.5999999,40.975 L76.4499999,40.975 L76.4499999,53.05 L71.5249999,53.05 C71.9083352,54.1500055 72.3249977,55.1166625 72.7749999,55.95 C73.8916722,55.216663 75.0249942,54.3583383 76.1749999,53.375 L77.8499999,55.625 C76.6166604,56.5416713 75.4166724,57.3249968 74.2499999,57.975 C75.2500049,59.0083385 76.6416577,59.9749955 78.4249999,60.875 L76.3499999,63.4 C74.0499884,61.9499928 72.3750052,60.4500078 71.3249999,58.9 C70.4083287,57.5166598 69.6416697,55.5666793 69.0249999,53.05 L67.4749999,53.05 L67.4749999,59.875 L71.1749999,59.05 L71.3749999,61.825 C68.3416514,62.5083368 66.1416734,63.0249983 64.7749999,63.375 L63.9749999,60.7 C64.3750019,60.4666655 64.5833332,60.0916693 64.5999999,59.575 L64.5999999,40.975 Z M67.4749999,45.775 L73.5749999,45.775 L73.5749999,43.575 L67.4749999,43.575 L67.4749999,45.775 Z M73.5749999,48.35 L67.4749999,48.35 L67.4749999,50.45 L73.5749999,50.45 L73.5749999,48.35 Z M103.175,40.8 L103.175,47.275 L85.1749999,47.275 L85.1749999,40.8 L103.175,40.8 Z M100.3,44.75 L88.0499999,44.75 L88.0499999,45.675 L100.3,45.675 L100.3,44.75 Z M88.0499999,43.325 L100.3,43.325 L100.3,42.4 L88.0499999,42.4 L88.0499999,43.325 Z M82.3749999,48.125 L106.025,48.125 L106.025,49.925 L82.3749999,49.925 L82.3749999,48.125 Z M103.675,50.75 L103.675,57.25 L95.7249999,57.25 L95.7249999,58.125 L104.65,58.125 L104.65,59.825 L95.7249999,59.825 L95.7249999,60.9 L106.025,60.9 L106.025,62.9 L82.2749999,62.9 L82.2749999,60.9 L92.7249999,60.9 L92.7249999,59.825 L83.5499999,59.825 L83.5499999,58.125 L92.7249999,58.125 L92.7249999,57.25 L84.6749999,57.25 L84.6749999,50.75 L103.675,50.75 Z M92.7249999,55.625 L92.7249999,54.7 L87.5499999,54.7 L87.5499999,55.625 L92.7249999,55.625 Z M95.7249999,54.7 L95.7249999,55.625 L100.8,55.625 L100.8,54.7 L95.7249999,54.7 Z M92.7249999,53.3 L92.7249999,52.375 L87.5499999,52.375 L87.5499999,53.3 L92.7249999,53.3 Z M95.7249999,52.375 L95.7249999,53.3 L100.8,53.3 L100.8,52.375 L95.7249999,52.375 Z M110.275,41.325 L116.375,41.325 L116.375,40.1 L119.275,40.1 L119.275,41.325 L124.875,41.325 L124.875,40.1 L127.75,40.1 L127.75,41.325 L133.625,41.325 L133.625,43.625 L127.75,43.625 L127.75,44.5 L124.875,44.5 L124.875,43.625 L119.275,43.625 L119.275,44.5 L116.375,44.5 L116.375,43.625 L110.275,43.625 L110.275,41.325 Z M120.7,52.95 L133.425,52.95 L133.425,55.05 L128.75,55.05 C130.016673,55.9000043 131.808322,56.7166628 134.125,57.5 L132.7,60.05 C131.516661,59.516664 130.475004,58.983336 129.575,58.45 L129.575,60.55 C129.575,62.483343 128.608343,63.45 126.675,63.45 L122.65,63.45 L122.125,60.95 L125.6,60.95 C126.383337,60.95 126.775,60.550004 126.775,59.75 L126.775,59.2 L121.375,59.2 C120.891664,60.0333375 120.358336,60.6999975 119.775,61.2 C118.558327,62.2500053 116.583347,63.1499963 113.85,63.9 L112.725,61.25 C114.958344,60.849998 116.549995,60.2750038 117.5,59.525 C117.616667,59.4249995 117.733333,59.3166673 117.85,59.2 L114.875,59.2 L114.875,58.425 C113.741661,59.0750033 112.525006,59.6249978 111.225,60.075 L109.875,57.55 C111.92501,56.9166635 113.691659,56.0833385 115.175,55.05 L110.475,55.05 L110.475,52.95 L117.525,52.95 C117.775001,52.6333318 118.016665,52.3250015 118.25,52.025 L112.775,52.025 L112.775,44.85 L131.175,44.85 L131.175,52.025 L121.3,52.025 C121.099999,52.3250015 120.900001,52.6333318 120.7,52.95 L120.7,52.95 Z M119.85,55.925 L122.625,55.925 C122.524999,56.325002 122.416667,56.6833318 122.3,57 L127.325,57 C126.458329,56.3499968 125.775002,55.7000033 125.275,55.05 L119.1,55.05 C118.449997,55.7500035 117.74167,56.399997 116.975,57 L119.4,57 C119.550001,56.666665 119.699999,56.3083353 119.85,55.925 L119.85,55.925 Z M128.3,49.2 L115.65,49.2 L115.65,50.125 L128.3,50.125 L128.3,49.2 Z M115.65,47.675 L128.3,47.675 L128.3,46.75 L115.65,46.75 L115.65,47.675 Z M146.325,57.65 L148.25,56.15 C149.066671,57.1166715 149.75833,58.033329 150.325,58.9 L148.1,60.6 C147.733331,59.7833293 147.141671,58.8000058 146.325,57.65 L146.325,57.65 Z M138.95,49.675 L149.4,49.675 L149.4,52.075 L138.95,52.075 L138.95,49.675 Z M149.75,48.225 L138.575,48.225 L138.575,45.925 L142.925,45.925 L142.925,44.25 L138.075,44.25 L138.075,41.875 L142.925,41.875 L142.925,40.1 L145.8,40.1 L145.8,41.875 L150.575,41.875 L150.575,44.25 L145.8,44.25 L145.8,45.925 L149.8,45.925 L149.8,48.125 C151.033339,45.658321 151.899997,42.958348 152.4,40.025 L155.2,40.15 C155.033332,41.150005 154.833334,42.1249953 154.6,43.075 L161.375,43.075 L161.375,45.975 L160.075,50.975 L157.475,50.325 L158.65,45.975 L153.75,45.975 C153.18333,47.5416745 152.491671,49.091659 151.675,50.625 L149.475,48.8 C149.558334,48.599999 149.649999,48.4083343 149.75,48.225 L149.75,48.225 Z M148.5,61.4 C151.93335,58.799987 153.65,54.8250268 153.65,49.475 L153.65,47.725 L156.55,47.725 L156.55,49.475 C156.55,50.2416705 156.508334,50.991663 156.425,51.725 C157.558339,55.7583535 159.358321,58.8583225 161.825,61.025 L160,63.75 C158.083324,61.7666568 156.558339,59.3916805 155.425,56.625 C154.391661,59.558348 152.683345,61.9499908 150.3,63.8 L148.5,61.4 Z M137.975,53.475 L150.475,53.475 L150.475,55.875 L145.9,55.875 L145.9,61.325 C145.9,62.8083408 145.216673,63.55 143.85,63.55 L140.975,63.55 L140.475,60.775 L140.025,61.975 L137.675,61.175 L139.45,56.525 L141.775,57.475 L140.5,60.675 L142.15,60.675 C142.733336,60.675 143.025,60.3833363 143.025,59.8 L143.025,55.875 L137.975,55.875 L137.975,53.475 Z M179.45,40.1 L179.45,60.975 C179.45,62.6916753 178.600008,63.55 176.9,63.55 L172.1,63.55 L171.575,60.275 L175.15,60.275 C175.833336,60.275 176.175,59.9333368 176.175,59.25 L176.175,40.1 L179.45,40.1 Z M186.575,57.725 C185.524994,53.6916465 184.175008,49.8916845 182.525,46.325 L185.175,45.375 C186.858341,48.8916843 188.31666,52.7249793 189.55,56.875 L186.575,57.725 Z M165.775,57.15 C167.475008,53.4666483 168.758329,49.6333533 169.625,45.65 L172.475,46.25 C171.708329,50.3333538 170.508341,54.2499813 168.875,58 L165.775,57.15 Z M209.25,46.65 C207.766659,51.4333573 205.891678,54.9333223 203.625,57.15 L202.225,55.45 C201.70833,55.5500005 201.191669,55.6583328 200.675,55.775 L200.675,63.55 L197.875,63.55 L197.875,56.325 C196.558326,56.5416678 195.191673,56.7416658 193.775,56.925 L193.35,53.85 C194.900007,53.649999 196.408326,53.450001 197.875,53.25 L197.875,48.125 L196.15,48.125 C195.966665,49.325006 195.741668,50.5083275 195.475,51.675 L193.425,50.6 C194.075003,47.7666525 194.424999,44.8916813 194.475,41.975 L196.575,42.375 C196.558333,43.2750045 196.533333,44.1666623 196.5,45.05 L197.875,45.05 L197.875,40.1 L200.675,40.1 L200.675,45.05 L202.375,45.05 L202.375,46.375 C203.458338,44.7916588 204.349996,42.66668 205.05,40 L208,40.475 C207.616664,41.6250058 207.233335,42.7249948 206.85,43.775 L216.425,43.775 C216.425,45.2250073 216.425,47.7874816 216.425,51.4625 C216.425,55.1375184 216.35,57.7499923 216.2,59.3 C216.049999,60.8500078 215.650003,61.9458301 215,62.5875 C214.349996,63.2291699 213.258341,63.55 211.725,63.55 L209.175,63.55 L208.65,60.475 L211.725,60.475 C212.325003,60.475 212.754165,60.1791696 213.0125,59.5875 C213.270834,58.9958304 213.424999,58.0833395 213.475,56.85 C213.525,55.6166605 213.55,53.600014 213.55,50.8 L213.55,46.65 L212.85,46.65 C211.916662,51.7000253 210.908338,55.2749895 209.825,57.375 C208.658327,59.5583443 206.775013,61.683323 204.175,63.75 L202.05,61.475 C204.266677,60.0416595 206.049993,58.1750115 207.4,55.875 C208.616672,53.7583228 209.591663,50.6833535 210.325,46.65 L209.25,46.65 Z M202.85,53.725 C204.450008,51.8916575 205.716662,49.5333478 206.65,46.65 L205.5,46.65 C204.716662,48.1000073 203.875004,49.3166618 202.975,50.3 L201.55,48.125 L200.675,48.125 L200.675,52.775 C201.375003,52.6583328 202.066663,52.5416673 202.75,52.425 L202.85,53.725 Z" id="中秋限量募款小物" sketch:type="MSShapeGroup"></path>
        </g>
    </g>
</svg>