<?xml version="1.0" encoding="UTF-8" standalone="no"?>
<svg width="388px" height="64px" viewBox="0 0 388 64" version="1.1" xmlns="http://www.w3.org/2000/svg" xmlns:xlink="http://www.w3.org/1999/xlink" xmlns:sketch="http://www.bohemiancoding.com/sketch/ns">
    <!-- Generator: Sketch 3.3.3 (12072) - http://www.bohemiancoding.com/sketch -->
    <title>index-tablemat-title</title>
    <desc>Created with Sketch.</desc>
    <defs></defs>
    <g id="Page-1" stroke="none" stroke-width="1" fill="none" fill-rule="evenodd" sketch:type="MSPage">
        <g id="index-tablemat-title" sketch:type="MSLayerGroup" fill="#FFFFFF">
            <g id="Page-1" sketch:type="MSShapeGroup">
                <g id="拓印希望，溫暖生活-+-印花樂×蔡英文-點亮台灣餐具組">
                    <path d="M40.8075,23.009 L40.8075,2.233 L49.946,2.233 L49.946,16.688 C49.946,18.2560078 49.1701745,19.04 47.6185,19.04 L44.9235,19.04 L44.556,17.6435 L47.7165,17.6435 C48.2881696,17.6435 48.574,17.3658361 48.574,16.8105 L48.574,3.6295 L42.204,3.6295 L42.204,23.009 L40.8075,23.009 L40.8075,23.009 Z M30.2725,18.991 L30.2725,2.478 C33.3105152,2.2656656 35.9809885,1.6695049 38.284,0.6895 L38.97,1.988 C36.7813224,2.77200392 34.3476801,3.35999804 31.669,3.752 L31.669,9.3625 L38.9945,9.3625 L38.9945,10.661 L31.669,10.661 L31.669,18.795 C34.2823464,18.402998 36.7731549,17.9538359 39.1415,17.4475 L39.264,18.7705 C36.0299839,19.5871707 32.4693528,20.2404975 28.582,20.7305 L28.386,19.285 C29.0066698,19.1869995 29.6354969,19.0890005 30.2725,18.991 L30.2725,18.991 L30.2725,18.991 Z M69.1445001,4.7075 C65.9104839,5.93250613 62.5621841,6.72466487 59.0995001,7.084 L58.7075001,5.7365 C61.614848,5.44249853 64.4323198,4.86267099 67.1600001,3.997 C64.7916549,3.16399583 62.349846,2.42900318 59.8345001,1.792 L60.5450001,0.567 C63.5013482,1.38367075 66.3514864,2.29016168 69.0955001,3.2865 C71.1045101,2.48616266 73.0481574,1.51433905 74.9265001,0.371 L76.0535001,1.302 C74.3384915,2.31467173 72.6235087,3.21299608 70.9085001,3.997 C72.8685099,4.76467051 74.754991,5.55682925 76.5680001,6.3735 L75.6370001,7.5495 C73.5299896,6.50416144 71.3658445,5.55683758 69.1445001,4.7075 L69.1445001,4.7075 L69.1445001,4.7075 Z M78.8465001,10.0485 L64.4650001,10.0485 C63.6156625,11.3715066 62.6193391,12.5801612 61.4760001,13.6745 L67.7480001,13.6745 L67.7480001,11.3225 L69.1445001,11.3225 L69.1445001,13.6745 L76.8865001,13.6745 L76.8865001,18.942 C76.8865001,20.5100078 76.1025079,21.294 74.5345001,21.294 L72.5255001,21.294 L72.1580001,19.9955 L74.6570001,19.9955 C75.2123362,19.9955 75.4900001,19.7178361 75.4900001,19.1625 L75.4900001,14.973 L69.1445001,14.973 L69.1445001,22.911 L67.7480001,22.911 L67.7480001,14.973 L61.9660001,14.973 L61.9660001,21.392 L60.5695001,21.392 L60.5695001,14.532 C59.5241615,15.3813376 58.3726731,16.1571632 57.1150001,16.8595 L56.2575001,15.7325 C59.246515,14.1808256 61.5086591,12.2861779 63.0440001,10.0485 L56.4535001,10.0485 L56.4535001,8.652 L63.8525001,8.652 C64.2445021,7.86799608 64.5711655,7.043171 64.8325001,6.1775 L66.1310001,6.5205 C65.8696655,7.25550367 65.5675018,7.96599657 65.2245001,8.652 L78.8465001,8.652 L78.8465001,10.0485 L78.8465001,10.0485 Z M85.0355001,13.3315 C91.9772015,13.4458339 98.6656346,13.1028373 105.101,12.3025 L105.689,13.5765 C102.487651,13.9848354 99.2781829,14.2788324 96.0605001,14.4585 L96.0605001,16.933 L104.9295,16.933 L104.9295,18.2315 L96.0605001,18.2315 L96.0605001,20.657 L106.5465,20.657 L106.5465,21.9555 L83.8595001,21.9555 L83.8595001,20.657 L94.6885001,20.657 L94.6885001,18.2315 L85.8685001,18.2315 L85.8685001,16.933 L94.6885001,16.933 L94.6885001,14.532 C91.5851513,14.6953342 88.4736824,14.7443337 85.3540001,14.679 L85.0355001,13.3315 L85.0355001,13.3315 Z M94.8600001,1.2285 L105.15,1.2285 L105.15,9.6075 C105.15,10.94684 104.537506,11.6165 103.3125,11.6165 L99.3680001,11.6165 L98.9760001,10.318 L103.092,10.318 C103.549336,10.318 103.778,10.0975022 103.778,9.6565 L103.778,8.309 L95.9380001,8.309 C95.578665,9.87700784 94.909005,11.1101622 93.9290001,12.0085 L92.7775001,11.2 C94.1658404,9.90966021 94.8600001,7.97417957 94.8600001,5.3935 L94.8600001,1.2285 L94.8600001,1.2285 Z M96.1340001,7.133 L103.778,7.133 L103.778,5.5405 L96.2565001,5.5405 C96.2401667,6.07950269 96.1993338,6.61033072 96.1340001,7.133 L96.1340001,7.133 L96.1340001,7.133 Z M103.778,2.527 L96.2565001,2.527 L96.2565001,4.34 L103.778,4.34 L103.778,2.527 L103.778,2.527 Z M93.5370001,4.291 L87.2650001,4.291 L87.2650001,8.456 C87.2650001,8.91333562 87.4854979,9.142 87.9265001,9.142 L92.3855001,9.142 L92.3855001,10.514 L87.8775001,10.514 C86.5381601,10.514 85.8685001,9.84434003 85.8685001,8.505 L85.8685001,4.291 L83.9575001,4.291 L83.9575001,2.919 L88.6370001,2.919 C88.4899994,2.21666315 88.2858348,1.47350392 88.0245001,0.6895 L89.4455001,0.518 C89.674168,1.33467075 89.8538328,2.13499608 89.9845001,2.919 L93.5370001,2.919 L93.5370001,4.291 L93.5370001,4.291 Z M122.6825,10.465 L125.255,10.465 L122.119,16.9085 L120.698,16.9085 L122.6825,10.465 L122.6825,10.465 Z M143.9635,5.173 C142.852828,4.16032827 141.513508,3.07417247 139.9455,1.9145 L140.8765,0.8365 C142.869177,2.37184101 144.216663,3.4661634 144.919,4.1195 L143.9635,5.173 L143.9635,5.173 Z M143.2775,11.396 C142.232162,10.4159951 140.958174,9.35433905 139.4555,8.211 L140.3865,7.1575 C142.29751,8.64384076 143.58783,9.7136634 144.2575,10.367 L143.2775,11.396 L143.2775,11.396 Z M139.8475,22.5435 C140.762171,20.0608209 141.652329,17.1371835 142.518,13.7725 L143.841,14.238 C142.681328,18.5173547 141.79117,21.4573253 141.1705,23.058 L139.8475,22.5435 L139.8475,22.5435 Z M159.6925,1.5225 L159.6925,10.955 L146.732,10.955 L146.732,1.5225 L159.6925,1.5225 L159.6925,1.5225 Z M158.3205,2.821 L148.1285,2.821 L148.1285,9.6565 L158.3205,9.6565 L158.3205,2.821 L158.3205,2.821 Z M153.6165,5.4425 C154.776173,6.04683635 155.862329,6.74916266 156.875,7.5495 L156.14,8.6275 C155.110995,7.77816242 154.049339,7.0268366 152.955,6.3735 C152.23633,7.25550441 151.338006,8.0231634 150.26,8.6765 L149.5005,7.5495 C151.36251,6.50416144 152.611997,5.14034175 153.249,3.458 L154.4495,3.752 C154.237166,4.35633635 153.959502,4.91983072 153.6165,5.4425 L153.6165,5.4425 L153.6165,5.4425 Z M146.0705,13.307 L160.55,13.307 L160.55,20.657 L162.2405,20.657 L162.2405,21.9555 L143.8655,21.9555 L143.8655,20.657 L146.0705,20.657 L146.0705,13.307 L146.0705,13.307 Z M147.4425,14.581 L147.4425,20.657 L150.407,20.657 L150.407,14.581 L147.4425,14.581 L147.4425,14.581 Z M151.7055,14.581 L151.7055,20.657 L154.817,20.657 L154.817,14.581 L151.7055,14.581 L151.7055,14.581 Z M156.1155,14.581 L156.1155,20.657 L159.178,20.657 L159.178,14.581 L156.1155,14.581 L156.1155,14.581 Z M168.013,21.294 L168.013,2.086 L173.893,2.086 L173.893,19.9465 L172.521,19.9465 L172.521,18.4275 L169.4095,18.4275 L169.4095,21.294 L168.013,21.294 L168.013,21.294 Z M169.4095,11.3225 L169.4095,17.129 L172.521,17.129 L172.521,11.3225 L169.4095,11.3225 L169.4095,11.3225 Z M169.4095,3.3845 L169.4095,10.0485 L172.521,10.0485 L172.521,3.3845 L169.4095,3.3845 L169.4095,3.3845 Z M175.657,3.4335 L175.2895,2.1595 C179.87919,1.96349902 184.297312,1.45717075 188.544,0.6405 L189.2055,1.9145 C184.762811,2.74750417 180.24669,3.25383243 175.657,3.4335 L175.657,3.4335 L175.657,3.4335 Z M189.7445,12.2045 L179.969,12.2045 C179.822,12.9558371 179.658668,13.6744966 179.479,14.3605 L188.2745,14.3605 L188.2745,15.6345 C187.408829,17.3985088 186.257341,18.8521609 184.82,19.9955 C186.306341,20.7305037 188.086657,21.3021646 190.161,21.7105 L189.475,23.058 C187.171989,22.5679975 185.195675,21.8330049 183.546,20.853 C181.863659,21.8983386 179.879178,22.5924983 177.5925,22.9355 L176.8085,21.7105 C178.882844,21.3838317 180.687659,20.8040042 182.223,19.971 C181.161328,19.1706627 180.271171,18.239672 179.5525,17.178 L180.753,16.737 C181.455337,17.6843381 182.345495,18.5173297 183.4235,19.236 C184.795507,18.2886619 185.906163,17.0881739 186.7555,15.6345 L179.0625,15.6345 C178.980833,15.9121681 178.899167,16.1653322 178.8175,16.394 C177.902829,18.4356769 176.302178,20.5834887 174.0155,22.8375 L172.8885,21.6615 C175.109845,19.5708229 176.653329,17.5863427 177.519,15.708 C177.927336,14.7279951 178.270332,13.5601734 178.548,12.2045 L174.9955,12.2045 L174.9955,10.906 L178.7685,10.906 C178.899168,10.1056627 178.997167,9.25633783 179.0625,8.358 L175.4855,8.358 L175.4855,7.084 L177.764,7.084 C177.371998,6.26732925 176.91467,5.426171 176.392,4.5605 L177.617,4.1195 C178.23767,5.11583832 178.768498,6.1039951 179.2095,7.084 L182.0515,7.084 C181.871833,6.16932876 181.594169,5.2220049 181.2185,4.242 L182.5415,4.046 C182.917169,5.05867173 183.227499,6.07132827 183.4725,7.084 L185.555,7.084 C186.17567,5.97332778 186.771831,4.72384027 187.3435,3.3355 L188.6665,3.8255 C188.209165,4.88717198 187.67017,5.97332778 187.0495,7.084 L189.4505,7.084 L189.4505,8.358 L180.3855,8.358 C180.320167,9.24000441 180.230334,10.0893292 180.116,10.906 L189.7445,10.906 L189.7445,12.2045 L189.7445,12.2045 Z M195.027,10.71 C197.346345,7.57398432 198.857163,4.38084959 199.5595,1.1305 L200.8825,1.4245 C200.572165,2.7311732 200.15567,4.02149363 199.633,5.2955 L206.248,5.2955 L206.248,0.42 L207.6445,0.42 L207.6445,5.2955 L216.195,5.2955 L216.195,6.692 L207.6445,6.692 L207.6445,12.474 L215.3375,12.474 L215.3375,13.8705 L207.6445,13.8705 L207.6445,20.4365 L217.1505,20.4365 L217.1505,21.8085 L195.811,21.8085 L195.811,20.4365 L206.248,20.4365 L206.248,13.8705 L198.408,13.8705 L198.408,12.474 L206.248,12.474 L206.248,6.692 L199.0205,6.692 C198.20383,8.40700858 197.207506,10.0893251 196.0315,11.739 L195.027,10.71 L195.027,10.71 Z M229.5135,2.1105 C234.397191,1.94716585 239.084811,1.45717075 243.5765,0.6405 L244.2135,1.9145 C242.008489,2.29016855 239.811678,2.61683195 237.623,2.8945 L237.623,7.5005 L245.2425,7.5005 L245.2425,8.897 L237.623,8.897 L237.623,13.062 L243.748,13.062 L243.748,22.911 L242.376,22.911 L242.376,21.441 L231.694,21.441 L231.694,22.911 L230.2975,22.911 L230.2975,13.062 L236.251,13.062 L236.251,8.897 L228.7785,8.897 L228.7785,7.5005 L236.251,7.5005 L236.251,3.0415 C234.14399,3.2538344 232.037011,3.40083293 229.93,3.4825 L229.5135,2.1105 L229.5135,2.1105 Z M242.376,14.434 L231.694,14.434 L231.694,20.0445 L242.376,20.0445 L242.376,14.434 L242.376,14.434 Z M227.4065,5.467 C226.312162,4.38899461 224.981008,3.22933954 223.413,1.988 L224.344,0.959 C226.35301,2.57600809 227.708664,3.73566315 228.411,4.438 L227.4065,5.467 L227.4065,5.467 Z M223.1435,22.4455 C224.172506,19.9954877 225.193329,17.1290164 226.206,13.846 L227.5045,14.3605 C226.16516,18.5581877 225.152504,21.4328256 224.4665,22.9845 L223.1435,22.4455 L223.1435,22.4455 Z M226.353,11.7635 C225.307662,10.7344949 224.033675,9.60750612 222.531,8.3825 L223.511,7.3535 C225.42201,8.93784126 226.704164,10.0729966 227.3575,10.759 L226.353,11.7635 Z M2.421,2.5435 C8.79103185,2.46183293 14.9159706,1.94733807 20.796,1 L21.384,2.176 C18.590986,2.63333562 15.798014,3.00083195 13.005,3.2785 L13.005,7.9335 L21.678,7.9335 L21.678,9.3055 L13.005,9.3055 L13.005,13.5685 L23.001,13.5685 L23.001,14.965 L13.005,14.965 L13.005,20.1835 C13.005,21.7351744 12.2210078,22.511 10.653,22.511 L6.537,22.511 L6.1695,21.139 L10.7755,21.139 C11.3308361,21.139 11.6085,20.8531695 11.6085,20.2815 L11.6085,14.965 L1,14.965 L1,13.5685 L11.6085,13.5685 L11.6085,9.3055 L2.323,9.3055 L2.323,7.9335 L11.6085,7.9335 L11.6085,3.4255 C8.68481872,3.68683464 5.74484812,3.84199976 2.7885,3.891 L2.421,2.5435 Z" id="拓印希望，溫暖生活"></path>
                    <path d="M12.8135,63.107 L12.8135,42.0125 L22.54,42.0125 L22.54,57.031 C22.54,58.5990078 21.7560078,59.383 20.188,59.383 L17.199,59.383 L16.6845,57.129 L19.551,57.129 C20.1063361,57.129 20.384,56.8513361 20.384,56.296 L20.384,44.242 L14.9695,44.242 L14.9695,63.107 L12.8135,63.107 L12.8135,63.107 Z M2.401,58.501 L2.401,42.135 C5.0143464,41.8736654 7.6848197,41.2856712 10.4125,40.371 L11.4905,42.4045 C9.39982288,43.1231703 7.08867933,43.6703315 4.557,44.046 L4.557,48.995 L11.2945,48.995 L11.2945,51.053 L4.557,51.053 L4.557,58.1825 C6.97434542,57.7578312 9.27732239,57.308669 11.466,56.835 L11.6375,58.893 C8.38715042,59.758671 4.81835277,60.4691639 0.931,61.0245 L0.588,58.795 C1.19233636,58.6969995 1.79666365,58.5990005 2.401,58.501 L2.401,58.501 L2.401,58.501 Z M39.705,60.3875 L39.705,47.4025 L41.959,47.4025 L41.959,53.258 C44.1966779,52.0166605 46.5486544,50.530342 49.015,48.799 L50.387,50.5875 C47.8389873,52.3678422 45.0296821,54.025659 41.959,55.561 L41.959,59.726 C41.959,60.3466698 42.2693303,60.657 42.89,60.657 L47.888,60.657 C48.5576701,60.657 48.8925,60.32217 48.8925,59.6525 L48.8925,56.4185 L50.9505,56.9575 L50.9505,60.216 C50.9505,61.8820083 50.1746745,62.715 48.623,62.715 L42.057,62.715 C40.4889922,62.715 39.705,61.9391744 39.705,60.3875 L39.705,60.3875 L39.705,60.3875 Z M28.2145,54.8505 C31.1871816,52.7598229 33.3268268,50.1056828 34.6335,46.888 L36.7405,47.5985 C36.1524971,48.7418391 35.5318366,49.8279949 34.8785,50.857 L34.8785,63.009 L32.6245,63.009 L32.6245,53.8215 C31.5301612,55.0628395 30.354173,56.1734951 29.0965,57.1535 L28.2145,54.8505 L28.2145,54.8505 Z M43.4535,44.536 L36.3975,44.536 L36.3975,46.447 L34.168,46.447 L34.168,44.536 L28.6555,44.536 L28.6555,42.478 L34.168,42.478 L34.168,40.322 L36.3975,40.322 L36.3975,42.478 L43.4535,42.478 L43.4535,40.322 L45.683,40.322 L45.683,42.478 L51.1465,42.478 L51.1465,44.536 L45.683,44.536 L45.683,46.643 L43.4535,46.643 L43.4535,44.536 L43.4535,44.536 Z M56.3555001,54.973 L66.5965001,54.973 L66.5965001,53.16 L64.2445001,53.16 L64.2445001,43.164 C62.8398264,45.9080137 61.2636755,48.5213209 59.5160001,51.004 C60.2346704,50.9059995 61.0023293,50.8080005 61.8190001,50.71 C61.6883328,50.1383305 61.5495008,49.5503364 61.4025001,48.946 L62.8235001,48.554 C63.3625028,50.3180088 63.7463323,51.9349927 63.9750001,53.405 L62.2845001,53.846 C62.2518333,53.4049978 62.1946672,52.8986695 62.1130001,52.327 C60.3653247,52.6210015 58.7565074,52.9313317 57.2865001,53.258 L56.5760001,51.445 C57.2130033,51.2653324 57.7029984,50.8978361 58.0460001,50.3425 C58.6993367,49.3624951 59.3526635,48.3253388 60.0060001,47.231 C58.976995,47.3943342 58.0296711,47.5658324 57.1640001,47.7455 L56.5025001,45.908 C57.090503,45.7773327 57.5151655,45.4833356 57.7765001,45.026 C58.560504,43.6703266 59.2954967,42.126842 59.9815001,40.3955 L61.7455001,40.812 C61.0268298,42.4780083 60.2020048,44.078659 59.2710001,45.614 C59.8100028,45.5486663 60.3979969,45.4915002 61.0350001,45.4425 C61.5576694,44.5114953 62.0721642,43.5315051 62.5785001,42.5025 L64.2445001,43.115 L64.2445001,42.184 L66.4250001,42.184 L66.8415001,40.1015 L68.8995001,40.322 L68.4830001,42.184 L71.0065001,42.184 L71.0065001,45.712 C71.4965025,45.5649993 71.8476657,45.2873354 72.0600001,44.879 C72.7786704,43.5069931 73.4401637,41.9635086 74.0445001,40.2485 L75.8085001,40.567 C75.1714969,42.2493417 74.4365043,43.858159 73.6035001,45.3935 C74.1588362,45.3118329 74.7549969,45.2383337 75.3920001,45.173 C75.9146694,44.2256619 76.4291642,43.2375051 76.9355001,42.2085 L78.6260001,42.8455 C77.204993,45.6711808 75.6125089,48.3334875 73.8485001,50.8325 C74.6651708,50.7181661 75.5226623,50.6120005 76.4210001,50.514 C76.2576659,49.8769968 76.0698345,49.1991703 75.8575001,48.4805 L77.2785001,48.0395 C77.9318367,49.9341761 78.397332,51.6899919 78.6750001,53.307 L77.0580001,53.797 C76.9926664,53.3069976 76.902834,52.7761695 76.7885001,52.2045 C74.9101574,52.4495012 73.1870079,52.7189985 71.6190001,53.013 L71.0065001,51.3715 L71.0065001,53.16 L68.7525001,53.16 L68.7525001,54.973 L78.7485001,54.973 L78.7485001,56.933 L70.2470001,56.933 C73.2523485,58.5990083 76.1923191,59.7586634 79.0670001,60.412 L78.2340001,62.568 C74.8529832,61.4899946 71.6925148,59.9628432 68.7525001,57.9865 L68.7525001,63.107 L66.5965001,63.107 L66.5965001,57.9865 C63.7054856,60.1588442 60.5368507,61.7023288 57.0905001,62.617 L56.1595001,60.5345 C59.3935163,59.8484966 62.34982,58.6480086 65.0285001,56.933 L56.3555001,56.933 L56.3555001,54.973 L56.3555001,54.973 Z M71.0065001,46.202 L71.0065001,51.2 C71.594503,51.0203324 72.0599984,50.6773359 72.4030001,50.171 C73.0563367,49.1746617 73.7096635,48.1211722 74.3630001,47.0105 C73.3666618,47.1901676 72.4275045,47.377999 71.5455001,47.574 L71.0065001,46.202 L71.0065001,46.202 Z M66.1310001,46.741 L69.1445001,46.741 L69.1445001,44.0705 L66.1310001,44.0705 L66.1310001,46.741 L66.1310001,46.741 Z M69.1445001,48.505 L66.1310001,48.505 L66.1310001,51.298 L69.1445001,51.298 L69.1445001,48.505 L69.1445001,48.505 Z M95.4480001,58.842 L92.0940001,55.436 L88.6360001,58.92 L86.8160001,57.152 L90.3000001,53.694 L86.9460001,50.314 L88.6620001,48.572 L92.0420001,51.952 L95.4740001,48.52 L97.2680001,50.288 L93.7840001,53.746 L97.1640001,57.126 L95.4480001,58.842 L95.4480001,58.842 Z M113.518418,44.928 L111.362418,44.928 L111.362418,43.4825 L105.237418,43.4825 L105.237418,41.6205 L111.362418,41.6205 L111.362418,40.322 L113.518418,40.322 L113.518418,41.6205 L119.692418,41.6205 L119.692418,40.322 L121.848418,40.322 L121.848418,41.6205 L127.924418,41.6205 L127.924418,43.4825 L121.848418,43.4825 L121.848418,44.928 L119.692418,44.928 L119.692418,43.4825 L113.518418,43.4825 L113.518418,44.928 L113.518418,44.928 Z M120.280418,59.4075 L121.358418,57.7905 C123.726763,58.7541715 125.866409,59.807661 127.777418,60.951 L126.503418,62.7395 C124.755743,61.5308273 122.68143,60.4201717 120.280418,59.4075 L120.280418,59.4075 L120.280418,59.4075 Z M109.157418,55.316 L124.298418,55.316 L124.298418,57.178 L118.026418,57.178 L118.026418,60.8285 C118.026418,62.2821739 117.356758,63.009 116.017418,63.009 L112.881418,63.009 L112.342418,61.147 L115.037418,61.147 C115.592754,61.147 115.870418,60.8693361 115.870418,60.314 L115.870418,57.178 L109.157418,57.178 L109.157418,55.316 L109.157418,55.316 Z M105.359918,60.853 C107.744597,60.1506632 109.729077,59.1216734 111.313418,57.766 L112.611918,59.1625 C110.847909,60.7305078 108.732764,61.9309958 106.266418,62.764 L105.359918,60.853 L105.359918,60.853 Z M112.489418,53.111 C110.77441,54.5646739 108.593932,55.7079958 105.947918,56.541 L104.894418,54.679 C106.184758,54.2706646 107.344413,53.8133359 108.373418,53.307 C107.965083,52.7843307 107.499588,52.2535027 106.976918,51.7145 L108.250918,50.7345 C108.904255,51.4695037 109.435083,52.0656644 109.843418,52.523 C110.251754,52.2779988 110.64375,52.0166681 111.019418,51.739 C110.496749,51.1673305 109.925088,50.5711698 109.304418,49.9505 L110.529418,48.897 C111.231755,49.6156703 111.795249,50.211831 112.219918,50.6855 C112.987589,49.8851627 113.600083,49.052171 114.057418,48.1865 L109.696418,48.1865 C108.602079,49.5095066 107.360759,50.6609951 105.972418,51.641 L104.894418,50.1465 C107.099429,48.6274924 108.838912,46.7246781 110.112918,44.438 L111.680918,45.271 C111.419584,45.7120022 111.166419,46.1203315 110.921418,46.496 L116.041918,46.496 L116.041918,48.1865 C115.584583,49.3951727 114.914923,50.5221614 114.032918,51.5675 L119.961918,51.5675 C118.736912,49.9668253 117.585424,47.7128479 116.507418,44.8055 L118.173418,44.2665 C119.365758,47.2065147 120.647911,49.3951595 122.019918,50.8325 C123.03259,49.8851619 123.939081,48.9051717 124.739418,47.8925 L120.255918,47.8925 L120.255918,46.202 L127.017918,46.202 L127.017918,47.8925 C126.478916,48.7908378 125.253928,50.1628241 123.342918,52.0085 C124.633258,52.9558381 126.274742,53.8214961 128.267418,54.6055 L127.017918,56.59 C124.192237,55.332327 122.068925,53.9195078 120.647918,52.3515 L120.647918,53.4295 L113.077418,53.4295 L113.077418,52.5475 C112.881417,52.743501 112.685419,52.9313324 112.489418,53.111 L112.489418,53.111 L112.489418,53.111 Z M144.329918,56.737 C142.647577,60.003683 139.103279,62.0616624 133.696918,62.911 L132.667918,60.8775 C137.388275,60.1914966 140.53241,58.6235122 142.100418,56.1735 L133.035418,56.1735 L133.035418,54.0175 L135.632418,54.0175 L135.632418,48.0885 L143.276418,48.0885 L143.276418,45.9815 L145.432418,45.9815 L145.432418,48.0885 L152.806918,48.0885 L152.806918,54.0175 L155.526418,54.0175 L155.526418,56.1735 L146.363418,56.1735 C148.437762,58.3621776 151.59823,59.9464951 155.844918,60.9265 L154.619918,63.009 C149.932228,61.7676605 146.502263,59.6770147 144.329918,56.737 L144.329918,56.737 L144.329918,56.737 Z M145.432418,51.9105 C145.416085,52.6455037 145.350752,53.34783 145.236418,54.0175 L150.650918,54.0175 L150.650918,50.0485 L145.432418,50.0485 L145.432418,51.9105 L145.432418,51.9105 Z M143.006918,54.0175 C143.170252,53.3804968 143.260085,52.6781705 143.276418,51.9105 L143.276418,50.0485 L137.763918,50.0485 L137.763918,54.0175 L143.006918,54.0175 L143.006918,54.0175 Z M140.458918,42.331 L147.955918,42.331 L147.955918,40.322 L150.111918,40.322 L150.111918,42.331 L155.526418,42.331 L155.526418,44.487 L150.111918,44.487 L150.111918,46.643 L147.955918,46.643 L147.955918,44.487 L140.458918,44.487 L140.458918,46.643 L138.302918,46.643 L138.302918,44.487 L132.937418,44.487 L132.937418,42.331 L138.302918,42.331 L138.302918,40.322 L140.458918,40.322 L140.458918,42.331 L140.458918,42.331 Z M172.446418,57.6435 C169.882072,59.570843 166.239775,61.3674917 161.519418,63.0335 L160.392418,60.9265 C164.867774,59.4564926 168.281407,57.855842 170.633418,56.1245 C170.519084,55.9774993 170.404752,55.8468339 170.290418,55.7325 C167.873073,53.2008207 165.994758,49.8361877 164.655418,45.6385 L160.931418,45.6385 L160.931418,43.4825 L170.878418,43.4825 C170.715084,42.5024951 170.470087,41.481672 170.143418,40.42 L172.372918,40.1995 C172.66692,41.3428391 172.903751,42.4371614 173.083418,43.4825 L183.030418,43.4825 L183.030418,45.6385 L179.183918,45.6385 C178.08958,50.3425235 176.439929,53.8296553 174.234918,56.1 C176.58693,57.7986752 179.673899,59.3911592 183.495918,60.8775 L182.099418,62.96 C178.081398,61.3429919 174.863764,59.570843 172.446418,57.6435 L172.446418,57.6435 L172.446418,57.6435 Z M176.978918,45.6385 L166.835918,45.6385 C168.044591,49.2808515 169.784074,52.1799892 172.054418,54.336 C172.168752,54.4176671 172.283084,54.5238327 172.397418,54.6545 C174.455429,52.5474895 175.98258,49.5421862 176.978918,45.6385 L176.978918,45.6385 L176.978918,45.6385 Z M220.398418,51.102 L220.398418,63.009 L218.340418,63.009 L218.340418,61.6615 L212.631918,61.6615 L212.631918,63.009 L210.573918,63.009 L210.573918,51.102 L214.175418,51.102 L214.175418,40.322 L216.331418,40.322 L216.331418,44.242 L221.353918,44.242 L221.353918,46.398 L216.331418,46.398 L216.331418,51.102 L220.398418,51.102 L220.398418,51.102 Z M212.631918,53.16 L212.631918,59.6035 L218.340418,59.6035 L218.340418,53.16 L212.631918,53.16 L212.631918,53.16 Z M201.361918,47.5005 C201.214918,46.5694953 200.978087,45.4833395 200.651418,44.242 L201.851918,44.046 C202.24392,45.5976744 202.488918,46.6838302 202.586918,47.3045 L201.361918,47.5005 L201.361918,47.5005 Z M205.257418,47.2065 C205.55142,46.2918288 205.83725,45.2138395 206.114918,43.9725 L207.290918,44.3155 C206.91525,45.9161747 206.629419,47.0104971 206.433418,47.5985 L205.257418,47.2065 L205.257418,47.2065 Z M209.152918,41.1795 L209.152918,50.318 L204.840918,50.318 L204.840918,51.9105 L209.299918,51.9105 L209.299918,53.6745 L204.840918,53.6745 L204.840918,55.6345 C206.42526,55.5364995 207.952411,55.4221673 209.422418,55.2915 L209.593918,56.9575 C206.163901,57.4638359 202.407272,57.7823327 198.323918,57.913 L198.250418,55.953 C199.900093,55.9039998 201.508911,55.8386671 203.076918,55.757 L203.076918,53.6745 L198.666918,53.6745 L198.666918,51.9105 L203.076918,51.9105 L203.076918,50.318 L198.862918,50.318 L198.862918,41.1795 L209.152918,41.1795 L209.152918,41.1795 Z M203.076918,48.554 L203.076918,42.968 L200.430918,42.968 L200.430918,48.554 L203.076918,48.554 L203.076918,48.554 Z M204.840918,42.968 L204.840918,48.554 L207.560418,48.554 L207.560418,42.968 L204.840918,42.968 L204.840918,42.968 Z M198.029918,62.9355 C198.536254,61.5308263 198.895584,60.0771742 199.107918,58.5745 L200.700418,58.795 C200.520751,60.330341 200.177754,61.8166595 199.671418,63.254 L198.029918,62.9355 L198.029918,62.9355 Z M204.326418,58.648 L205.796418,58.354 C206.400755,59.6606732 206.882583,60.9346605 207.241918,62.176 L205.575918,62.519 C205.330917,61.3103273 204.914421,60.0200069 204.326418,58.648 L204.326418,58.648 L204.326418,58.648 Z M207.143918,58.158 L208.564918,57.6925 C209.250922,58.9338395 209.814416,60.1506607 210.255418,61.343 L208.687418,61.784 C208.344417,60.6406609 207.829922,59.4320064 207.143918,58.158 L207.143918,58.158 L207.143918,58.158 Z M201.533418,58.844 L203.052418,58.746 C203.460754,60.1833405 203.746584,61.5553268 203.909918,62.862 L202.219418,62.9355 C202.154085,61.6941605 201.92542,60.3303408 201.533418,58.844 L201.533418,58.844 L201.533418,58.844 Z M245.256419,45.3445 L245.256419,50.563 L229.821419,50.563 L229.821419,45.3445 L245.256419,45.3445 L245.256419,45.3445 Z M243.124919,47.035 L231.952919,47.035 L231.952919,48.897 L243.124919,48.897 L243.124919,47.035 L243.124919,47.035 Z M226.856919,52.1555 L248.147419,52.1555 L248.147419,56.59 L245.991419,56.59 L245.991419,54.0175 L228.988419,54.0175 L228.988419,56.59 L226.856919,56.59 L226.856919,52.1555 L226.856919,52.1555 Z M246.652919,58.06 L248.808919,58.5745 L248.808919,60.167 C248.808919,61.8330083 248.024926,62.666 246.456919,62.666 L241.924419,62.666 C240.356411,62.666 239.572419,61.8901744 239.572419,60.3385 L239.572419,55.267 L241.728419,55.267 L241.728419,59.775 C241.728419,60.3956698 242.038749,60.706 242.659419,60.706 L245.648419,60.706 C246.318089,60.706 246.652919,60.37117 246.652919,59.7015 L246.652919,58.06 L246.652919,58.06 Z M232.491919,55.267 L234.647919,55.267 L234.647919,56.688 C234.631585,60.2323511 231.993778,62.3474966 226.734419,63.0335 L225.925919,61 C230.28694,60.5099975 232.475585,59.0726786 232.491919,56.688 L232.491919,55.267 L232.491919,55.267 Z M248.661919,43.9725 L226.268919,43.9725 L226.268919,42.086 L236.534419,42.086 C236.436418,41.5469973 236.305753,40.9753364 236.142419,40.371 L238.371919,40.2485 C238.518919,40.8691698 238.633251,41.4816636 238.714919,42.086 L248.661919,42.086 L248.661919,43.9725 L248.661919,43.9725 Z M256.786419,52.327 L273.593419,52.327 L273.593419,63.009 L271.339419,63.009 L271.339419,61.6615 L259.040419,61.6615 L259.040419,63.009 L256.786419,63.009 L256.786419,52.327 L256.786419,52.327 Z M271.339419,54.385 L259.040419,54.385 L259.040419,59.6035 L271.339419,59.6035 L271.339419,54.385 L271.339419,54.385 Z M257.006919,47.0105 C258.966928,45.0341568 260.910576,42.7230132 262.837919,40.077 L264.822419,41.057 C262.976743,43.5233457 260.975929,45.818156 258.819919,47.9415 C262.674605,47.7944993 266.921229,47.6556673 271.559919,47.525 C270.596247,46.3163273 269.550924,45.1158393 268.423919,43.9235 L270.114419,42.8455 C272.580764,45.3608459 274.69591,47.8924873 276.459919,50.4405 L274.524419,51.6165 C274.09975,50.94683 273.650588,50.2935032 273.176919,49.6565 C266.627219,49.7871673 260.641112,50.089331 255.218419,50.563 L254.777419,48.162 C255.594089,48.0313327 256.337249,47.6475032 257.006919,47.0105 L257.006919,47.0105 L257.006919,47.0105 Z M292.473419,43.5805 L297.373419,43.5805 L297.373419,44.977 L292.473419,44.977 L292.473419,43.5805 L292.473419,43.5805 Z M292.571419,45.8835 L297.373419,45.8835 L297.373419,47.2555 L292.571419,47.2555 L292.571419,45.8835 L292.571419,45.8835 Z M297.275419,48.211 L297.275419,52.0085 L292.620419,52.0085 L292.620419,48.211 L297.275419,48.211 L297.275419,48.211 Z M295.976919,49.5095 L293.918919,49.5095 L293.918919,50.71 L295.976919,50.71 L295.976919,49.5095 L295.976919,49.5095 Z M297.740919,42.674 L292.203919,42.674 L292.203919,41.2775 L294.016919,41.2775 C293.902585,40.885498 293.771919,40.4853354 293.624919,40.077 L295.535919,39.8075 C295.699253,40.281169 295.838085,40.7711641 295.952419,41.2775 L297.740919,41.2775 L297.740919,42.674 L297.740919,42.674 Z M284.265919,44.5115 C283.465581,43.7111627 282.485591,42.8536712 281.325919,41.939 L282.746919,40.42 C284.233259,41.6286727 285.229583,42.5024973 285.735919,43.0415 L284.265919,44.5115 L284.265919,44.5115 Z M284.118919,51.0775 C283.351248,50.2281624 282.403924,49.3053383 281.276919,48.309 L282.795919,46.8635 C284.233259,48.1701732 285.196916,49.1011639 285.686919,49.6565 L284.118919,51.0775 L284.118919,51.0775 Z M281.619919,62.6415 C282.420256,59.9628199 283.155249,56.8431845 283.824919,53.2825 L285.833919,53.797 C284.902914,58.3866896 284.167921,61.5389914 283.628919,63.254 L281.619919,62.6415 L281.619919,62.6415 Z M287.597919,52.866 L302.591919,52.866 L302.591919,56.933 L290.219419,56.933 L290.023419,58.2315 L303.253419,58.2315 L303.253419,60.2895 C303.253419,62.0698422 302.363261,62.96 300.582919,62.96 L294.482419,62.96 L293.943419,61.196 L300.092919,61.196 C300.762589,61.196 301.097419,60.86117 301.097419,60.1915 L301.097419,59.6035 L287.695919,59.6035 L288.283919,55.5365 L300.435919,55.5365 L300.435919,54.2625 L287.597919,54.2625 L287.597919,52.866 L287.597919,52.866 Z M304.159919,41.792 C303.000246,43.523342 301.742592,45.1484924 300.386919,46.6675 C301.056589,46.5858329 301.775248,46.5205002 302.542919,46.4715 C302.395918,46.0304978 302.240753,45.5813356 302.077419,45.124 L303.375919,44.9035 C303.849588,46.1285061 304.225251,47.3044944 304.502919,48.4315 L303.032919,48.652 C302.983918,48.3906654 302.934919,48.1375012 302.885919,47.8925 C301.236244,48.0721676 299.717259,48.2763322 298.328919,48.505 L297.765419,46.9615 C298.304421,46.8144993 298.769917,46.504169 299.161919,46.0305 C299.488587,45.6058312 299.831583,45.1811688 300.190919,44.7565 C299.488582,44.8381671 298.835255,44.9361661 298.230919,45.0505 L297.667419,43.4825 C298.157421,43.3518327 298.516751,43.1068351 298.745419,42.7475 C299.284421,41.9471627 299.782583,41.0406717 300.239919,40.028 L301.734419,40.371 C301.244416,41.3836717 300.705422,42.3391622 300.117419,43.2375 C300.509421,43.1884998 300.94225,43.1476668 301.415919,43.115 C301.856921,42.4779968 302.306083,41.8083368 302.763419,41.106 L304.159919,41.792 L304.159919,41.792 Z M298.304419,49.093 L299.700919,49.142 C299.717252,50.203672 299.611086,51.2163285 299.382419,52.18 L297.765419,52.0085 C298.075753,51.1591624 298.255418,50.1873388 298.304419,49.093 L298.304419,49.093 L298.304419,49.093 Z M300.729919,52.0085 C300.729919,51.0284951 300.648253,50.0975044 300.484919,49.2155 L301.783419,49.0685 C302.012086,49.9995047 302.150918,50.9468285 302.199919,51.9105 L300.729919,52.0085 L300.729919,52.0085 Z M303.155419,51.788 C303.041085,50.8406619 302.86142,49.9423376 302.616419,49.093 L303.865919,48.7745 C304.192587,49.6891712 304.437584,50.6119953 304.600919,51.543 L303.155419,51.788 L303.155419,51.788 Z M292.032419,41.6695 C290.93808,43.4171754 289.729425,45.0668256 288.406419,46.6185 C289.059755,46.5368329 289.737582,46.4551671 290.439919,46.3735 C290.325585,45.9651646 290.186753,45.5486688 290.023419,45.124 L291.321919,44.9035 C291.795588,46.0795059 292.171251,47.2228278 292.448919,48.3335 L290.978919,48.554 C290.929918,48.3253322 290.880919,48.0803346 290.831919,47.819 C289.198577,48.0476678 287.712259,48.2926654 286.372919,48.554 L285.784919,47.0105 C286.323921,46.8471659 286.78125,46.528669 287.156919,46.055 C287.483587,45.6139978 287.818417,45.1730022 288.161419,44.732 C287.459082,44.8463339 286.805755,44.9688327 286.201419,45.0995 L285.588919,43.556 C286.078921,43.4089993 286.454584,43.1313354 286.715919,42.723 C287.271255,41.9389961 287.802083,41.0406717 288.308419,40.028 L289.778419,40.3955 C289.272083,41.4081717 288.708588,42.347329 288.087919,43.213 C288.463587,43.1639998 288.871916,43.1231668 289.312919,43.0905 C289.737587,42.4371634 290.170416,41.7593368 290.611419,41.057 L292.032419,41.6695 L292.032419,41.6695 Z M286.005419,49.0685 L287.499919,49.142 C287.450918,50.2363388 287.287587,51.2653285 287.009919,52.229 L285.417419,51.9595 C285.744087,51.1264958 285.940085,50.1628388 286.005419,49.0685 L286.005419,49.0685 L286.005419,49.0685 Z M288.308419,51.984 C288.341085,51.0039951 288.283919,50.0730044 288.136919,49.191 L289.435419,49.093 C289.615086,50.0240047 289.721252,50.9713285 289.753919,51.935 L288.308419,51.984 L288.308419,51.984 Z M290.709419,51.5675 C290.627752,50.701829 290.480753,49.8770039 290.268419,49.093 L291.517919,48.799 C291.81192,49.6483376 292.024251,50.505829 292.154919,51.3715 L290.709419,51.5675 L290.709419,51.5675 Z M320.761419,42.674 L316.547419,42.674 L316.547419,43.8255 L319.854919,43.8255 L319.854919,45.2955 C317.388573,48.3825154 314.056606,50.2771632 309.858919,50.9795 L309.050419,49.3625 C310.618426,49.0358317 312.055745,48.5866695 313.362419,48.015 C312.741749,47.4759973 312.072089,46.9288361 311.353419,46.3735 C311.075751,46.7165017 310.773587,47.0349985 310.446919,47.329 L309.025919,46.2265 C310.316258,45.164828 311.304415,43.8990073 311.990419,42.429 L313.729919,42.5515 C313.533918,42.9925022 313.329753,43.4171646 313.117419,43.8255 L314.685419,43.8255 L314.685419,40.322 L316.547419,40.322 L316.547419,41.2775 L320.761419,41.2775 L320.761419,42.674 L320.761419,42.674 Z M317.502919,45.2955 L312.602919,45.2955 C313.56659,46.0631705 314.350582,46.7001641 314.954919,47.2065 C315.86959,46.6511639 316.718915,46.0141703 317.502919,45.2955 L317.502919,45.2955 L317.502919,45.2955 Z M327.278419,58.55 L315.199919,58.55 L315.199919,61.049 L321.422919,60.3385 L321.618919,62.1025 C317.8459,62.5271688 315.101927,62.8783319 313.386919,63.156 L312.553919,61.3675 C312.929587,61.1388322 313.125585,60.7713359 313.141919,60.265 L313.141919,52.8905 C312.063913,53.2988354 310.961424,53.6744983 309.834419,54.0175 L309.099419,52.229 C313.754442,51.0203273 317.739735,49.2563449 321.055419,46.937 L322.549919,47.525 L322.157919,46.9125 C322.941923,46.6838322 323.693248,46.4061683 324.411919,46.0795 C323.546248,45.5731641 322.615257,45.0750024 321.618919,44.585 L322.745919,43.311 C323.954591,43.8826695 325.122413,44.4706636 326.249419,45.075 C327.131423,44.4379968 327.931748,43.686671 328.650419,42.821 L321.716919,42.821 L321.716919,41.1305 L330.757419,41.1305 L330.757419,42.821 C329.957081,44.1113398 329.05059,45.1974956 328.037919,46.0795 C329.328258,46.8145037 330.54508,47.5658295 331.688419,48.3335 L330.291919,49.9015 C329.19758,49.0194956 327.890926,48.1293378 326.371919,47.231 C325.391914,47.8190029 324.330258,48.2354988 323.186919,48.4805 L322.598919,47.623 C322.386584,47.7700007 322.18242,47.9251658 321.986419,48.0885 C325.073434,49.7708417 328.487067,51.1019951 332.227419,52.082 L331.418919,53.9195 C330.046912,53.527498 328.723925,53.0783359 327.449919,52.572 L327.449919,58.452 C328.054255,58.0273312 328.634083,57.5945022 329.189419,57.1535 L330.561419,58.403 C329.679414,59.0073364 328.650425,59.6361634 327.474419,60.2895 C328.862759,60.5998349 330.316411,60.9673312 331.835419,61.392 L330.732919,63.009 C326.829232,61.7186602 322.999104,60.6488376 319.242419,59.7995 L320.173419,58.7215 C321.774093,58.9828346 323.489076,59.3258312 325.318419,59.7505 C325.988089,59.358498 326.641415,58.9583354 327.278419,58.55 L327.278419,58.55 L327.278419,58.55 Z M323.333919,51.5185 L317.796919,51.5185 L317.796919,50.7345 C316.686246,51.3225029 315.567424,51.8696641 314.440419,52.376 L326.935419,52.376 C325.694079,51.8696641 324.493591,51.3225029 323.333919,50.7345 L323.333919,51.5185 L323.333919,51.5185 Z M318.360419,50.416 L322.745919,50.416 C321.945581,49.9749978 321.194256,49.5421688 320.491919,49.1175 C319.789582,49.5748356 319.079089,50.0076646 318.360419,50.416 L318.360419,50.416 L318.360419,50.416 Z M315.199919,54.826 L325.391919,54.826 L325.391919,53.7725 L315.199919,53.7725 L315.199919,54.826 L315.199919,54.826 Z M325.391919,56.1245 L315.199919,56.1245 L315.199919,57.178 L325.391919,57.178 L325.391919,56.1245 L325.391919,56.1245 Z M338.073419,63.0825 L336.995419,61.196 C339.674099,60.4773297 342.213907,59.6035051 344.614919,58.5745 L345.962419,60.1425 C343.692074,61.2695056 341.062434,62.2494958 338.073419,63.0825 L338.073419,63.0825 L338.073419,63.0825 Z M350.372419,60.0935 L351.891419,58.648 C354.178097,59.3013366 356.726071,60.1833278 359.535419,61.294 L358.040919,63.0825 C355.443906,61.9228275 352.887765,60.9265042 350.372419,60.0935 L350.372419,60.0935 L350.372419,60.0935 Z M359.657919,58.1825 L336.970919,58.1825 L336.970919,56.2225 L339.935419,56.2225 L339.935419,41.3265 L356.742419,41.3265 L356.742419,56.2225 L359.657919,56.2225 L359.657919,58.1825 L359.657919,58.1825 Z M342.091419,52.719 L354.586419,52.719 L354.586419,50.661 L342.091419,50.661 L342.091419,52.719 L342.091419,52.719 Z M354.586419,54.385 L342.091419,54.385 L342.091419,56.2225 L354.586419,56.2225 L354.586419,54.385 L354.586419,54.385 Z M342.091419,48.995 L354.586419,48.995 L354.586419,46.937 L342.091419,46.937 L342.091419,48.995 L342.091419,48.995 Z M342.091419,45.2465 L354.586419,45.2465 L354.586419,43.1885 L342.091419,43.1885 L342.091419,45.2465 L342.091419,45.2465 Z M374.127919,44.1195 C372.282243,47.2881825 370.23243,50.2771526 367.978419,53.0865 C369.187091,52.8741656 370.493745,52.670001 371.898419,52.474 C371.686084,51.7716632 371.449253,51.0366705 371.187919,50.269 L372.731419,49.7055 C373.499089,51.6165096 374.078917,53.3968251 374.470919,55.0465 L372.657919,55.6835 C372.592585,55.291498 372.519086,54.858669 372.437419,54.385 C369.824072,54.8260022 367.455763,55.2914976 365.332419,55.7815 L364.401419,53.7235 C365.136422,53.4621654 365.765249,52.99667 366.287919,52.327 C367.006589,51.3633285 367.725248,50.3588386 368.443919,49.3135 C367.251579,49.4605007 366.14909,49.6401656 365.136419,49.8525 L364.352419,47.7455 C365.054756,47.5658324 365.561084,47.2065027 365.871419,46.6675 C366.998424,44.7238236 368.043747,42.5270122 369.007419,40.077 L371.040919,40.5915 C370.028247,42.9435118 368.876759,45.1893226 367.586419,47.329 C368.305089,47.2473329 369.072748,47.1820002 369.889419,47.133 C370.673423,45.9079939 371.449248,44.6176734 372.216919,43.262 L374.127919,44.1195 L374.127919,44.1195 Z M364.254419,62.323 C364.744421,60.7223253 365.062918,58.7705115 365.209919,56.4675 L367.071919,56.6145 C367.039252,59.0481788 366.761588,61.1469912 366.238919,62.911 L364.254419,62.323 L364.254419,62.323 Z M368.860419,61.98 C368.811419,60.1343241 368.607254,58.345842 368.247919,56.6145 L370.011919,56.394 C370.436588,58.2070091 370.697918,60.0363241 370.795919,61.882 L368.860419,61.98 L368.860419,61.98 Z M385.593919,41.3755 L385.593919,60.0445 L387.455919,60.0445 L387.455919,62.2005 L373.098919,62.2005 L373.098919,60.2405 L372.437419,60.363 C372.208751,58.9093261 371.873921,57.5291732 371.432919,56.2225 L372.951919,55.806 C373.474588,57.1943403 373.874751,58.6071595 374.152419,60.0445 L375.107919,60.0445 L375.107919,41.3755 L385.593919,41.3755 L385.593919,41.3755 Z M383.437919,55.9285 L377.263919,55.9285 L377.263919,60.0445 L383.437919,60.0445 L383.437919,55.9285 L383.437919,55.9285 Z M383.437919,49.9015 L377.263919,49.9015 L377.263919,53.8705 L383.437919,53.8705 L383.437919,49.9015 L383.437919,49.9015 Z M383.437919,43.5315 L377.263919,43.5315 L377.263919,47.8435 L383.437919,47.8435 L383.437919,43.5315 L383.437919,43.5315 Z" id="印花樂×蔡英文-點亮台灣餐具組"></path>
                </g>
            </g>
        </g>
    </g>
</svg>