<?xml version="1.0" encoding="UTF-8" standalone="no"?>
<svg width="165px" height="64px" viewBox="0 0 165 64" version="1.1" xmlns="http://www.w3.org/2000/svg" xmlns:xlink="http://www.w3.org/1999/xlink" xmlns:sketch="http://www.bohemiancoding.com/sketch/ns">
    <!-- Generator: Sketch 3.3.3 (12072) - http://www.bohemiancoding.com/sketch -->
    <title>index-equality-title</title>
    <desc>Created with Sketch.</desc>
    <defs></defs>
    <g id="Page-1" stroke="none" stroke-width="1" fill="none" fill-rule="evenodd" sketch:type="MSPage">
        <g id="index-equality-title" sketch:type="MSLayerGroup" fill="#FFFFFF">
            <g id="Page-1" sketch:type="MSShapeGroup">
                <g id="index-equality-title">
                    <g id="Page-1">
                        <g id="index-equality-title">
                            <g id="Page-1">
                                <g id="生而平權-+-EQUALITY">
                                    <path d="M0,10.241 C2.2866781,7.15398456 3.78932974,4.00984934 4.508,0.8085 L6.174,1.176 C5.86366512,2.41733954 5.47166903,3.62599412 4.998,4.802 L11.1475,4.802 L11.1475,0 L12.9115,0 L12.9115,4.802 L21.3885,4.802 L21.3885,6.566 L12.9115,6.566 L12.9115,11.9805 L20.531,11.9805 L20.531,13.7445 L12.9115,13.7445 L12.9115,19.8205 L22.344,19.8205 L22.344,21.5845 L0.8085,21.5845 L0.8085,19.8205 L11.1475,19.8205 L11.1475,13.7445 L3.4055,13.7445 L3.4055,11.9805 L11.1475,11.9805 L11.1475,6.566 L4.2385,6.566 C3.42182925,8.26467516 2.43367246,9.9306585 1.274,11.564 L0,10.241 L0,10.241 Z M28.3301666,1.6415 L50.8211666,1.6415 L50.8211666,3.4055 L39.6001666,3.4055 L38.4486666,7.2765 L49.1551666,7.2765 L49.1551666,20.286 C49.1551666,21.8540078 48.3711744,22.638 46.8031666,22.638 L44.8921666,22.638 L44.5001666,20.874 L46.5336666,20.874 C47.0890027,20.874 47.3666666,20.5963361 47.3666666,20.041 L47.3666666,9.0405 L43.2996666,9.0405 L43.2996666,22.1235 L41.5356666,22.1235 L41.5356666,9.0405 L37.5666666,9.0405 L37.5666666,22.1235 L35.8026666,22.1235 L35.8026666,9.0405 L31.7356666,9.0405 L31.7356666,22.687 L29.9471666,22.687 L29.9471666,7.2765 L36.6846666,7.2765 L37.8116666,3.4055 L28.3301666,3.4055 L28.3301666,1.6415 L28.3301666,1.6415 Z M62.2463332,11.417 C61.3969956,9.7836585 60.3108398,7.97067663 58.9878332,5.978 L60.5313332,5.096 C62.213675,7.69301298 63.3161639,9.52232802 63.8388332,10.584 L62.2463332,11.417 L62.2463332,11.417 Z M75.6968332,4.9735 L77.3138332,5.733 C76.3338283,7.64400956 75.1496735,9.56315703 73.7613332,11.4905 L72.1688332,10.7065 C73.3611725,9.08949191 74.5371607,7.17851102 75.6968332,4.9735 L75.6968332,4.9735 L75.6968332,4.9735 Z M56.7093332,13.0095 L67.1463332,13.0095 L67.1463332,3.1115 L57.7628332,3.1115 L57.7628332,1.3475 L78.1468332,1.3475 L78.1468332,3.1115 L68.9103332,3.1115 L68.9103332,13.0095 L79.2003332,13.0095 L79.2003332,14.798 L68.9103332,14.798 L68.9103332,22.687 L67.1463332,22.687 L67.1463332,14.798 L56.7093332,14.798 L56.7093332,13.0095 L56.7093332,13.0095 Z M89.8169998,6.37 L89.8169998,22.687 L88.0529998,22.687 L88.0529998,10.7065 C87.4159966,12.8135105 86.5503386,14.7816575 85.4559998,16.611 L84.6474998,14.602 C86.1991742,12.3316553 87.2526637,9.58768275 87.8079998,6.37 L84.9904998,6.37 L84.9904998,4.606 L88.0529998,4.606 L88.0529998,0 L89.8169998,0 L89.8169998,4.606 L91.9729998,4.606 L91.9729998,6.37 L89.8169998,6.37 L89.8169998,6.37 Z M90.0129998,9.604 L90.8704998,8.5015 C91.6218369,9.43250465 92.2588305,10.3471622 92.7814998,11.2455 L91.7279998,12.642 C91.303331,11.6619951 90.7316701,10.6493386 90.0129998,9.604 L90.0129998,9.604 L90.0129998,9.604 Z M99.2004998,4.8755 L99.2004998,9.2365 L93.0264998,9.2365 L93.0264998,4.8755 L99.2004998,4.8755 L99.2004998,4.8755 Z M97.6324998,6.272 L94.6189998,6.272 L94.6189998,7.8645 L97.6324998,7.8645 L97.6324998,6.272 L97.6324998,6.272 Z M101.4545,4.41 L101.4545,0 L103.2185,0 L103.2185,1.4945 L107.6775,1.4945 L107.6775,2.9645 L103.2185,2.9645 L103.2185,4.41 L101.4545,4.41 L101.4545,4.41 Z M106.967,4.8755 L106.967,9.2365 L100.695,9.2365 L100.695,4.8755 L106.967,4.8755 L106.967,4.8755 Z M105.3745,6.272 L102.263,6.272 L102.263,7.8645 L105.3745,7.8645 L105.3745,6.272 L105.3745,6.272 Z M98.3429998,0 L98.3429998,4.41 L96.5789998,4.41 L96.5789998,2.9645 L91.9729998,2.9645 L91.9729998,1.4945 L96.5789998,1.4945 L96.5789998,0 L98.3429998,0 L98.3429998,0 Z M107.4815,21.6825 L95.3784998,21.6825 L95.3784998,22.687 L93.6144998,22.687 L93.6144998,14.5775 C93.0591637,15.2145032 92.463003,15.8188305 91.8259998,16.3905 L90.9684998,14.9695 C92.7651755,13.3034917 94.1779947,11.4333437 95.2069998,9.359 L96.7994998,9.947 C96.5544986,10.3880022 96.309501,10.804498 96.0644998,11.1965 L100.499,11.1965 L100.009,9.751 L101.7975,9.4325 L102.2875,11.1965 L107.3835,11.1965 L107.3835,12.593 L101.9445,12.593 L101.9445,14.259 L106.722,14.259 L106.722,15.6555 L101.9445,15.6555 L101.9445,17.2235 L106.82,17.2235 L106.82,18.62 L101.9445,18.62 L101.9445,20.286 L107.4815,20.286 L107.4815,21.6825 L107.4815,21.6825 Z M95.3784998,17.2235 L100.254,17.2235 L100.254,15.6555 L95.3784998,15.6555 L95.3784998,17.2235 L95.3784998,17.2235 Z M100.254,18.62 L95.3784998,18.62 L95.3784998,20.286 L100.254,20.286 L100.254,18.62 L100.254,18.62 Z M95.3784998,14.259 L100.254,14.259 L100.254,12.593 L95.3784998,12.593 L95.3784998,14.259 L95.3784998,14.259 Z" id="生而平權"></path>
                                    <g id="EQUALITY" transform="translate(0.000000, 41.000000)">
                                        <path d="M0.5269,20.3148 L0.5269,0.4488 L13.6169,0.4488 L13.6169,3.9061 L4.4077,3.9061 L4.4077,8.5646 L12.2463,8.5646 L12.2463,12.02575 L4.4077,12.02575 L4.4077,16.85365 L13.6169,16.85365 L13.6169,20.3148 L0.5269,20.3148" id="Fill-1"></path>
                                        <path d="M35.42715,21.15025 L33.67155,19.3908 C32.55505,20.11845 31.2114,20.4842 29.65215,20.4842 C27.3922,20.4842 25.66355,19.70265 24.26215,18.3051 C22.2563,16.2954 22.3102,13.81215 22.3102,10.3818 C22.3102,6.9476 22.2563,4.46435 24.26215,2.45465 C25.66355,1.06095 27.3922,0.2794 29.65215,0.2794 C31.9121,0.2794 33.6138,1.06095 35.0075,2.45465 C37.0172,4.46435 36.99025,6.9476 36.99025,10.3818 C36.99025,13.36555 37.0172,15.56775 35.7621,17.4119 L37.4638,19.1136 L35.42715,21.15025 L35.42715,21.15025 Z M32.13155,4.79545 C31.57715,4.15635 30.7109,3.7367 29.65215,3.7367 C28.58955,3.7367 27.69635,4.15635 27.1381,4.79545 C26.3835,5.63475 26.191,6.5549 26.191,10.3818 C26.191,14.20485 26.3835,15.125 27.1381,15.96045 C27.69635,16.6034 28.58955,17.0192 29.65215,17.0192 C30.1257,17.0192 30.5723,16.9114 30.9342,16.6573 L29.2017,14.9556 L31.2653,12.91895 L32.74755,14.4012 C33.0517,13.5311 33.10945,12.38765 33.10945,10.3818 C33.10945,6.5549 32.88615,5.63475 32.13155,4.79545 L32.13155,4.79545 L32.13155,4.79545 Z" id="Fill-2"></path>
                                        <path d="M53.49905,20.4842 C49.4219,20.4842 46.18405,17.7199 46.18405,13.50415 L46.18405,0.4488 L50.06485,0.4488 L50.06485,13.36555 C50.06485,15.6563 51.40465,17.0192 53.49905,17.0192 C55.59345,17.0192 56.95635,15.6563 56.95635,13.36555 L56.95635,0.4488 L60.80635,0.4488 L60.80635,13.50415 C60.80635,17.7199 57.57235,20.4842 53.49905,20.4842" id="Fill-3"></path>
                                        <path d="M82.0083,20.3148 L80.83405,16.79975 L73.77315,16.79975 L72.5758,20.3148 L68.52945,20.3148 L75.7559,0.4488 L78.7974,0.4488 L86.05465,20.3148 L82.0083,20.3148 L82.0083,20.3148 Z M77.37675,6.30465 L74.86655,13.5311 L79.8061,13.5311 L77.37675,6.30465 L77.37675,6.30465 Z" id="Fill-4"></path>
                                        <path d="M94.0819,20.3148 L94.0819,0.4488 L97.9627,0.4488 L97.9627,16.85365 L106.97555,16.85365 L106.97555,20.3148 L94.0819,20.3148" id="Fill-5"></path>
                                        <path d="M115.69965,0.4488 L119.58045,0.4488 L119.58045,20.3148 L115.69965,20.3148 L115.69965,0.4488 L115.69965,0.4488 Z" id="Fill-6"></path>
                                        <path d="M137.37515,3.9061 L137.37515,20.3148 L133.49435,20.3148 L133.49435,3.9061 L128.3084,3.9061 L128.3084,0.4488 L142.56495,0.4488 L142.56495,3.9061 L137.37515,3.9061" id="Fill-7"></path>
                                        <path d="M158.88125,12.16435 L158.88125,20.3148 L155.03125,20.3148 L155.03125,12.16435 L149.05605,0.4488 L153.2718,0.4488 L156.9832,8.4568 L160.63685,0.4488 L164.8526,0.4488 L158.88125,12.16435" id="Fill-8"></path>
                                    </g>
                                </g>
                            </g>
                        </g>
                    </g>
                </g>
            </g>
        </g>
    </g>
</svg>