<?xml version="1.0" encoding="UTF-8" standalone="no"?>
<svg width="210px" height="70px" viewBox="0 0 210 70" version="1.1" xmlns="http://www.w3.org/2000/svg" xmlns:xlink="http://www.w3.org/1999/xlink" xmlns:sketch="http://www.bohemiancoding.com/sketch/ns">
    <!-- Generator: Sketch 3.3.3 (12072) - http://www.bohemiancoding.com/sketch -->
    <title>index-donate-title</title>
    <desc>Created with Sketch.</desc>
    <defs></defs>
    <g id="Page-1" stroke="none" stroke-width="1" fill="none" fill-rule="evenodd" sketch:type="MSPage">
        <g id="index-donate-title" sketch:type="MSLayerGroup" fill="#1A1918">
            <g id="Page-1" sketch:type="MSShapeGroup">
                <g id="office-donate">
                    <g id="Page-1">
                        <g id="office-donate">
                            <g id="Page-1">
                                <g id="office-donate">
                                    <g id="Imported-Layers">
                                        <g id="Group">
                                            <path d="M0.138,25.005 L0.138,22.825 L8.686,14.583 C10.117,13.187 11.002,11.689 11.002,10.02 C11.002,7.738 9.3,5.967 6.848,5.967 C4.565,5.967 2.658,7.567 2.658,10.088 L0.206,10.088 C0.206,6.443 3.033,3.787 6.848,3.787 C10.832,3.787 13.455,6.512 13.455,9.985 C13.455,12.437 12.126,14.243 10.321,16.014 L3.373,22.825 L14.067,22.825 L14.067,25.005 L0.138,25.005" id="Fill-1"></path>
                                            <path d="M29.799,23.302 C28.641,24.494 27.04,25.209 24.997,25.209 C22.953,25.209 21.352,24.494 20.194,23.302 C18.491,21.565 18.151,19.215 18.151,16.627 C18.151,14.038 18.491,11.654 20.194,9.951 C21.352,8.76 22.953,8.044 24.997,8.044 C27.04,8.044 28.641,8.76 29.799,9.951 C31.501,11.654 31.842,14.038 31.842,16.627 C31.842,19.215 31.501,21.565 29.799,23.302 L29.799,23.302 L29.799,23.302 Z M28.061,11.45 C27.244,10.633 26.188,10.224 24.997,10.224 C23.805,10.224 22.783,10.633 21.965,11.45 C20.739,12.676 20.603,14.72 20.603,16.627 C20.603,18.5 20.705,20.544 21.965,21.804 C22.783,22.621 23.805,23.029 24.997,23.029 C26.188,23.029 27.244,22.621 28.061,21.804 C29.288,20.544 29.39,18.5 29.39,16.627 C29.39,14.72 29.288,12.676 28.061,11.45 L28.061,11.45 L28.061,11.45 Z" id="Fill-2"></path>
                                            <path d="M40.285,25.005 L40.285,7.397 L35.755,11.382 L35.755,8.589 L40.285,4.673 L42.737,4.673 L42.737,25.005 L40.285,25.005" id="Fill-3"></path>
                                            <path d="M55.71,25.209 C51.248,25.209 48.456,22.212 48.456,17.717 C48.456,15.741 49,13.766 50.227,11.62 L56.698,0.211 L59.286,0.211 L53.156,10.735 C54.144,10.224 54.961,10.088 56.119,10.088 C60.24,10.088 62.93,13.187 62.93,17.513 C62.93,21.94 60.138,25.209 55.71,25.209 L55.71,25.209 L55.71,25.209 Z M55.676,12.131 C52.781,12.131 50.908,14.31 50.908,17.648 C50.908,20.952 52.781,23.132 55.676,23.132 C58.571,23.132 60.478,20.952 60.478,17.648 C60.478,14.651 58.809,12.131 55.676,12.131 L55.676,12.131 L55.676,12.131 Z" id="Fill-4"></path>
                                            <path d="M77.68,15.226 C75.96,16.701 73.79,17.869 71.169,18.731 L70.277,17.115 C71.627,16.651 72.857,16.138 73.966,15.574 C73.516,14.994 73.026,14.373 72.496,13.71 L73.605,12.864 C74.28,13.693 74.81,14.373 75.196,14.903 C75.694,14.604 76.161,14.281 76.595,13.934 C76.048,13.287 75.429,12.607 74.738,11.895 L75.703,11 C76.506,11.846 77.133,12.533 77.583,13.064 C78.483,12.169 79.166,11.199 79.633,10.155 L74.979,10.155 C73.886,11.53 72.648,12.732 71.266,13.76 L70.374,12.517 C72.56,11.009 74.288,9.053 75.558,6.65 L76.836,7.346 C76.546,7.827 76.265,8.291 75.992,8.738 L81.272,8.738 L81.272,10.155 C80.79,11.497 80.043,12.74 79.03,13.884 L85.492,13.884 C84.206,12.276 83.009,9.89 81.899,6.725 L83.202,6.277 C84.391,9.393 85.677,11.68 87.06,13.138 C87.075,13.154 87.1,13.18 87.132,13.213 C88.257,12.152 89.262,11.05 90.146,9.906 L85.396,9.906 L85.396,8.39 L92.099,8.39 L92.099,9.906 C91.568,10.868 90.315,12.334 88.337,14.307 C89.591,15.284 91.207,16.18 93.184,16.991 L92.171,18.632 C89.342,17.322 87.228,15.872 85.83,14.281 L85.782,14.231 L85.782,15.499 L78.331,15.499 L78.331,14.58 C78.122,14.795 77.905,15.011 77.68,15.226 L77.68,15.226 L77.68,15.226 Z M78.572,6.998 L76.836,6.998 L76.836,5.382 L70.711,5.382 L70.711,3.791 L76.836,3.791 L76.836,2.325 L78.572,2.325 L78.572,3.791 L85.034,3.791 L85.034,2.325 L86.77,2.325 L86.77,3.791 L92.943,3.791 L92.943,5.382 L86.77,5.382 L86.77,6.998 L85.034,6.998 L85.034,5.382 L78.572,5.382 L78.572,6.998 L78.572,6.998 Z M70.832,23.33 C73.163,22.617 75.124,21.573 76.715,20.197 L77.776,21.416 C76.024,22.974 73.942,24.15 71.531,24.945 L70.832,23.33 L70.832,23.33 Z M74.473,17.662 L89.375,17.662 L89.375,19.278 L83.009,19.278 L83.009,23.38 C83.009,24.622 82.454,25.244 81.345,25.244 L78.065,25.244 L77.68,23.752 L80.598,23.752 C81.047,23.752 81.272,23.52 81.272,23.057 L81.272,19.278 L74.473,19.278 L74.473,17.662 L74.473,17.662 Z M85.54,21.516 L86.384,20.223 C88.699,21.184 90.797,22.253 92.678,23.43 L91.665,24.896 C89.945,23.685 87.903,22.56 85.54,21.516 L85.54,21.516 L85.54,21.516 Z" id="Fill-5"></path>
                                            <path d="M109.58,18.682 C108.037,22.195 104.517,24.391 99.019,25.269 L98.151,23.504 C103.021,22.758 106.212,21.026 107.724,18.309 L98.537,18.309 L98.537,16.519 L101.165,16.519 L101.165,10.329 L108.712,10.329 L108.712,8.067 L110.448,8.067 L110.448,10.329 L117.803,10.329 L117.803,16.519 L120.576,16.519 L120.576,18.309 L111.22,18.309 C113.277,20.646 116.46,22.36 120.769,23.454 L119.756,25.244 C115.126,23.901 111.734,21.714 109.58,18.682 L109.58,18.682 L109.58,18.682 Z M105.554,4.561 L113.318,4.561 L113.318,2.325 L115.078,2.325 L115.078,4.561 L120.576,4.561 L120.576,6.352 L115.078,6.352 L115.078,8.738 L113.318,8.738 L113.318,6.352 L105.554,6.352 L105.554,8.738 L103.817,8.738 L103.817,6.352 L98.344,6.352 L98.344,4.561 L103.817,4.561 L103.817,2.325 L105.554,2.325 L105.554,4.561 L105.554,4.561 Z M108.399,16.519 C108.592,15.79 108.696,15.011 108.712,14.182 L108.712,12.044 L102.925,12.044 L102.925,16.519 L108.399,16.519 L108.399,16.519 Z M110.448,14.182 C110.432,15.011 110.36,15.79 110.231,16.519 L116.066,16.519 L116.066,12.044 L110.448,12.044 L110.448,14.182 L110.448,14.182 Z" id="Fill-6"></path>
                                            <path d="M137.72,19.526 C135.115,21.681 131.49,23.561 126.845,25.169 L125.809,23.43 C130.453,21.855 133.974,20.156 136.369,18.333 C136.192,18.151 136.032,17.985 135.887,17.836 C133.443,15.201 131.522,11.729 130.124,7.421 L126.556,7.421 L126.556,5.631 L136.369,5.631 C136.209,4.637 135.976,3.593 135.67,2.499 L137.382,2.325 C137.688,3.435 137.936,4.537 138.13,5.631 L148.016,5.631 L148.016,7.421 L144.157,7.421 C143.097,12.243 141.393,15.872 139.046,18.309 C141.393,20.165 144.527,21.93 148.449,23.603 L147.172,25.294 C143.281,23.537 140.131,21.614 137.72,19.526 L137.72,19.526 L137.72,19.526 Z M142.494,7.421 L131.813,7.421 C133.098,11.232 134.883,14.298 137.165,16.618 C137.342,16.801 137.519,16.982 137.695,17.165 C137.744,17.099 137.792,17.041 137.84,16.991 C139.946,14.787 141.497,11.597 142.494,7.421 L142.494,7.421 L142.494,7.421 Z" id="Fill-7"></path>
                                            <path d="M157.805,19.228 C157.805,21.747 156.671,23.81 154.404,25.418 L153.392,23.901 C155.305,22.725 156.262,21.167 156.262,19.228 L156.262,18.358 L154.598,18.358 L154.598,11.994 L163.134,11.994 L163.134,18.358 L161.301,18.358 L161.301,21.714 L164.17,20.148 L164.363,21.838 C162.257,22.981 160.754,23.868 159.854,24.498 L159.155,22.883 C159.524,22.65 159.718,22.277 159.733,21.764 L159.733,18.358 L157.805,18.358 L157.805,19.228 L157.805,19.228 Z M163.977,10.205 L153.705,10.205 L153.705,8.689 L156.213,8.689 L155.586,5.83 L154.188,5.83 L154.188,4.313 L158.215,4.313 C158.118,3.667 157.957,2.996 157.732,2.3 L159.469,2.126 C159.646,2.856 159.79,3.584 159.902,4.313 L163.519,4.313 L163.519,5.83 L162.266,5.83 L161.494,8.689 L163.977,8.689 L163.977,10.205 L163.977,10.205 Z M156.262,16.842 L161.494,16.842 L161.494,13.486 L156.262,13.486 L156.262,16.842 L156.262,16.842 Z M160.649,5.83 L157.202,5.83 L157.757,8.689 L159.927,8.689 L160.649,5.83 L160.649,5.83 Z M174.804,11.994 L174.804,18.358 L172.513,18.358 L172.513,23.106 C172.513,23.338 172.617,23.454 172.826,23.454 L174.442,23.454 C174.65,23.454 174.756,23.338 174.756,23.106 L174.756,20.769 L176.227,21.167 L176.227,23.528 C176.227,24.606 175.696,25.145 174.635,25.145 L172.537,25.145 C171.477,25.145 170.946,24.606 170.946,23.528 L170.946,18.358 L169.017,18.358 L169.017,19.029 C169.017,21.946 167.603,24.084 164.773,25.442 L163.689,24.075 C166.212,22.966 167.474,21.283 167.474,19.029 L167.474,18.358 L165.714,18.358 L165.714,11.994 L174.804,11.994 L174.804,11.994 Z M176.13,10.205 L164.918,10.205 L164.918,8.689 L167.329,8.689 L166.774,5.83 L165.304,5.83 L165.304,4.313 L169.668,4.313 C169.539,3.667 169.362,3.005 169.138,2.325 L170.85,2.101 C171.074,2.847 171.251,3.584 171.38,4.313 L175.647,4.313 L175.647,5.83 L174.129,5.83 L173.405,8.689 L176.13,8.689 L176.13,10.205 L176.13,10.205 Z M167.377,16.842 L173.164,16.842 L173.164,13.486 L167.377,13.486 L167.377,16.842 L167.377,16.842 Z M172.537,5.83 L168.39,5.83 L168.872,8.689 L171.838,8.689 L172.537,5.83 L172.537,5.83 Z" id="Fill-8"></path>
                                            <path d="M185.727,11.025 L185.727,20.596 C185.839,20.646 185.96,20.703 186.089,20.769 C186.555,21.067 187.19,21.478 187.993,22 C188.797,22.522 190.164,22.783 192.093,22.783 L204.076,22.783 L203.594,24.474 L192.093,24.474 C190.083,24.474 188.637,24.191 187.752,23.628 C186.868,23.065 186.258,22.658 185.92,22.41 C185.598,22.178 185.269,22.054 184.932,22.037 C184.497,22.153 183.685,23.065 182.496,24.772 L181.098,23.404 C181.692,22.791 182.352,22.12 183.074,21.391 C183.38,21.06 183.685,20.803 183.991,20.62 L183.991,12.716 L181.628,12.716 L181.628,11.025 L185.727,11.025 L185.727,11.025 Z M184.979,7.644 C184.224,6.418 183.283,5.06 182.158,3.567 L183.533,2.623 C184.963,4.546 185.92,5.913 186.402,6.725 L184.979,7.644 L184.979,7.644 Z M203.474,18.06 L187.198,18.06 L187.198,16.568 L191.272,16.568 L191.272,14.481 L188.042,14.481 L188.042,12.964 L191.272,12.964 L191.272,11.124 C189.971,11.323 188.95,11.53 188.211,11.746 L187.535,10.08 C187.921,9.849 188.122,9.476 188.139,8.962 L188.139,3.294 L194.479,3.294 L194.479,7.719 L189.682,7.719 L189.682,9.782 L194.624,9.235 L194.817,10.627 C194.143,10.693 193.516,10.769 192.936,10.851 L192.936,12.964 L197.59,12.964 L197.59,10.926 L197.349,10.926 C196.481,10.926 196.047,10.47 196.047,9.559 L196.047,3.294 L202.485,3.294 L202.485,7.719 L197.59,7.719 L197.59,9.185 C197.59,9.401 197.702,9.509 197.928,9.509 L202.727,9.509 L202.727,10.926 L199.254,10.926 L199.254,12.964 L202.63,12.964 L202.63,14.481 L199.254,14.481 L199.254,16.568 L203.474,16.568 L203.474,18.06 L203.474,18.06 Z M188.234,21.714 L187.415,20.223 C189.311,19.709 191.112,19.088 192.816,18.358 L193.78,19.502 C192.012,20.363 190.164,21.102 188.234,21.714 L188.234,21.714 L188.234,21.714 Z M189.682,6.302 L192.937,6.302 L192.937,4.711 L189.682,4.711 L189.682,6.302 L189.682,6.302 Z M192.936,16.568 L197.589,16.568 L197.589,14.48 L192.936,14.48 L192.936,16.568 L192.936,16.568 Z M196.649,19.8 L197.47,18.433 C199.624,19.029 201.528,19.717 203.185,20.496 L202.268,22.013 C200.901,21.267 199.028,20.529 196.649,19.8 L196.649,19.8 L196.649,19.8 Z M197.59,6.302 L200.942,6.302 L200.942,4.711 L197.59,4.711 L197.59,6.302 L197.59,6.302 Z" id="Fill-9"></path>
                                        </g>
                                        <g id="Group" transform="translate(0.000000, 41.000000)">
                                            <path d="M0.748,17.873 C2.388,14.211 3.626,10.398 4.462,6.437 L7.211,7.034 C6.471,11.095 5.314,14.989 3.738,18.719 L0.748,17.873 L0.748,17.873 Z M13.939,0.919 L13.939,21.677 C13.939,23.384 13.119,24.237 11.479,24.237 L6.849,24.237 L6.343,20.98 L9.791,20.98 C10.45,20.98 10.78,20.642 10.78,19.962 L10.78,0.919 L13.939,0.919 L13.939,0.919 Z M20.811,18.445 C19.798,14.435 18.496,10.655 16.905,7.108 L19.461,6.164 C21.084,9.661 22.491,13.473 23.681,17.6 L20.811,18.445 L20.811,18.445 Z" id="Fill-10"></path>
                                            <path d="M38.56,16.705 L38.56,23.94 L35.979,23.94 L35.979,23.218 L32.627,23.218 L32.627,24.237 L30.047,24.237 L30.047,16.531 C29.773,16.647 29.517,16.755 29.275,16.853 L28.287,14.418 C29.83,13.904 31.189,13.308 32.362,12.628 C31.815,12.314 31.277,12.023 30.747,11.758 C30.441,12.106 30.111,12.437 29.758,12.752 L28.383,10.664 C29.927,9.554 31.116,7.888 31.952,5.667 L34.339,5.916 C34.195,6.247 34.05,6.603 33.905,6.984 L38.752,6.984 L38.752,9.272 C38.302,10.382 37.643,11.401 36.775,12.329 C37.964,12.992 39.122,13.696 40.248,14.442 L38.56,16.705 L38.56,16.705 Z M37.209,5.046 L31.132,5.046 L31.132,6.86 L28.721,6.86 L28.721,2.684 L32.844,2.684 C32.748,2.137 32.619,1.582 32.458,1.019 L35.231,0.794 C35.376,1.425 35.505,2.054 35.618,2.684 L39.596,2.684 L39.596,6.363 L37.209,6.363 L37.209,5.046 L37.209,5.046 Z M31.421,15.983 L37.619,15.983 C36.735,15.321 35.794,14.683 34.798,14.069 C33.817,14.749 32.691,15.388 31.421,15.983 L31.421,15.983 L31.421,15.983 Z M36.027,9.272 L32.7,9.272 C32.539,9.504 32.386,9.744 32.242,9.992 C32.997,10.324 33.737,10.689 34.46,11.087 C35.071,10.523 35.593,9.918 36.027,9.272 L36.027,9.272 L36.027,9.272 Z M32.627,20.832 L35.979,20.832 L35.979,18.37 L32.627,18.37 L32.627,20.832 L32.627,20.832 Z M40.079,1.565 L51.195,1.565 L51.195,4.226 L46.541,4.226 L46.3,5.841 L50.448,5.841 L50.448,19.663 L47.554,19.663 C49.017,20.542 50.335,21.47 51.509,22.447 L49.7,24.461 C48.607,23.434 47.289,22.439 45.746,21.478 L47.265,19.663 L42.972,19.663 L44.974,21.056 C43.768,22.183 42.313,23.293 40.609,24.387 L38.752,22.522 C40.215,21.644 41.565,20.691 42.804,19.663 L40.489,19.663 L40.489,5.841 L43.478,5.841 L43.744,4.226 L40.079,4.226 L40.079,1.565 L40.079,1.565 Z M43.093,9.719 L47.843,9.719 L47.843,8.302 L43.093,8.302 L43.093,9.719 L43.093,9.719 Z M43.093,13.498 L47.843,13.498 L47.843,12.006 L43.093,12.006 L43.093,13.498 L43.093,13.498 Z M43.093,17.202 L47.843,17.202 L47.843,15.785 L43.093,15.785 L43.093,17.202 L43.093,17.202 Z" id="Fill-11"></path>
                                            <path d="M66.363,13.696 L78.637,13.696 L78.637,15.785 L74.128,15.785 C75.35,16.63 77.078,17.442 79.313,18.222 L77.938,20.757 C76.796,20.227 75.792,19.696 74.924,19.166 L74.924,21.254 C74.924,23.177 73.991,24.138 72.126,24.138 L68.244,24.138 L67.738,21.652 L71.09,21.652 C71.845,21.652 72.223,21.254 72.223,20.459 L72.223,19.912 L67.014,19.912 C66.548,20.74 66.034,21.403 65.471,21.9 C64.297,22.944 62.392,23.84 59.756,24.585 L58.671,21.95 C60.825,21.553 62.36,20.98 63.276,20.235 C63.389,20.136 63.501,20.028 63.614,19.912 L60.745,19.912 L60.745,19.141 C59.651,19.787 58.478,20.334 57.224,20.782 L55.922,18.272 C57.899,17.642 59.603,16.812 61.034,15.785 L56.5,15.785 L56.5,13.696 L63.301,13.696 C63.542,13.382 63.775,13.075 64,12.777 L58.719,12.777 L58.719,5.643 L76.467,5.643 L76.467,12.777 L66.942,12.777 C66.749,13.075 66.556,13.382 66.363,13.696 L66.363,13.696 L66.363,13.696 Z M56.308,2.137 L62.191,2.137 L62.191,0.919 L64.989,0.919 L64.989,2.137 L70.39,2.137 L70.39,0.919 L73.164,0.919 L73.164,2.137 L78.83,2.137 L78.83,4.424 L73.164,4.424 L73.164,5.294 L70.39,5.294 L70.39,4.424 L64.989,4.424 L64.989,5.294 L62.191,5.294 L62.191,4.424 L56.308,4.424 L56.308,2.137 L56.308,2.137 Z M61.492,8.451 L73.694,8.451 L73.694,7.531 L61.492,7.531 L61.492,8.451 L61.492,8.451 Z M61.492,10.888 L73.694,10.888 L73.694,9.968 L61.492,9.968 L61.492,10.888 L61.492,10.888 Z M65.543,16.655 L68.22,16.655 C68.123,17.053 68.019,17.409 67.907,17.724 L72.753,17.724 C71.917,17.078 71.258,16.432 70.776,15.785 L64.82,15.785 C64.193,16.481 63.509,17.127 62.77,17.724 L65.109,17.724 C65.254,17.393 65.398,17.036 65.543,16.655 L65.543,16.655 L65.543,16.655 Z" id="Fill-12"></path>
                                            <path d="M83.942,14.219 L95.999,14.219 L95.999,16.606 L91.586,16.606 L91.586,22.024 C91.586,23.5 90.927,24.237 89.609,24.237 L86.836,24.237 L86.353,21.478 L85.919,22.671 L83.653,21.876 L85.365,17.252 L87.607,18.196 L86.377,21.379 L87.969,21.379 C88.532,21.379 88.813,21.089 88.813,20.509 L88.813,16.606 L83.942,16.606 L83.942,14.219 L83.942,14.219 Z M95.3,8.998 L84.521,8.998 L84.521,6.711 L88.717,6.711 L88.717,5.046 L84.039,5.046 L84.039,2.684 L88.717,2.684 L88.717,0.919 L91.49,0.919 L91.49,2.684 L96.096,2.684 L96.096,5.046 L91.49,5.046 L91.49,6.711 L95.348,6.711 L95.348,8.898 C96.538,6.446 97.374,3.762 97.856,0.844 L100.557,0.969 C100.396,1.963 100.203,2.933 99.978,3.877 L106.513,3.877 L106.513,6.761 L105.259,11.732 L102.751,11.087 L103.885,6.761 L99.158,6.761 C98.611,8.318 97.944,9.86 97.157,11.385 L95.035,9.57 C95.115,9.371 95.204,9.181 95.3,8.998 L95.3,8.998 L95.3,8.998 Z M84.882,10.44 L94.962,10.44 L94.962,12.826 L84.882,12.826 L84.882,10.44 L84.882,10.44 Z M91.996,18.37 L93.853,16.879 C94.641,17.84 95.308,18.752 95.854,19.613 L93.708,21.304 C93.354,20.492 92.784,19.514 91.996,18.37 L91.996,18.37 L91.996,18.37 Z M94.094,22.1 C97.406,19.514 99.061,15.561 99.061,10.241 L99.061,8.501 L101.859,8.501 L101.859,10.241 C101.859,11.004 101.819,11.75 101.738,12.478 C102.832,16.489 104.568,19.572 106.947,21.727 L105.186,24.437 C103.338,22.464 101.867,20.102 100.774,17.352 C99.777,20.269 98.129,22.647 95.831,24.486 L94.094,22.1 L94.094,22.1 Z" id="Fill-13"></path>
                                        </g>
                                    </g>
                                </g>
                            </g>
                        </g>
                    </g>
                </g>
            </g>
        </g>
    </g>
</svg>