<?xml version="1.0" encoding="UTF-8" standalone="no"?>
<svg width="292px" height="66px" viewBox="0 0 292 66" version="1.1" xmlns="http://www.w3.org/2000/svg" xmlns:xlink="http://www.w3.org/1999/xlink" xmlns:sketch="http://www.bohemiancoding.com/sketch/ns">
    <!-- Generator: Sketch 3.4.3 (16618) - http://www.bohemiancoding.com/sketch -->
    <title>index-donate-title</title>
    <desc>Created with Sketch.</desc>
    <defs></defs>
    <g id="Page-1" stroke="none" stroke-width="1" fill="none" fill-rule="evenodd" sketch:type="MSPage">
        <g id="Group" sketch:type="MSLayerGroup" transform="translate(1.000000, 1.000000)" fill="#1A1918">
            <path d="M0.138,25.005 L0.138,22.825 L8.686,14.583 C10.117,13.187 11.002,11.689 11.002,10.02 C11.002,7.738 9.3,5.967 6.848,5.967 C4.565,5.967 2.658,7.567 2.658,10.088 L0.206,10.088 C0.206,6.443 3.033,3.787 6.848,3.787 C10.832,3.787 13.455,6.512 13.455,9.985 C13.455,12.437 12.126,14.243 10.321,16.014 L3.373,22.825 L14.067,22.825 L14.067,25.005 L0.138,25.005" id="Fill-1" sketch:type="MSShapeGroup"></path>
            <path d="M29.799,23.302 C28.641,24.494 27.04,25.209 24.997,25.209 C22.953,25.209 21.352,24.494 20.194,23.302 C18.491,21.565 18.151,19.215 18.151,16.627 C18.151,14.038 18.491,11.654 20.194,9.951 C21.352,8.76 22.953,8.044 24.997,8.044 C27.04,8.044 28.641,8.76 29.799,9.951 C31.501,11.654 31.842,14.038 31.842,16.627 C31.842,19.215 31.501,21.565 29.799,23.302 L29.799,23.302 L29.799,23.302 L29.799,23.302 Z M28.061,11.45 C27.244,10.633 26.188,10.224 24.997,10.224 C23.805,10.224 22.783,10.633 21.965,11.45 C20.739,12.676 20.603,14.72 20.603,16.627 C20.603,18.5 20.705,20.544 21.965,21.804 C22.783,22.621 23.805,23.029 24.997,23.029 C26.188,23.029 27.244,22.621 28.061,21.804 C29.288,20.544 29.39,18.5 29.39,16.627 C29.39,14.72 29.288,12.676 28.061,11.45 L28.061,11.45 L28.061,11.45 L28.061,11.45 Z" id="Fill-2" sketch:type="MSShapeGroup"></path>
            <path d="M40.285,25.005 L40.285,7.397 L35.755,11.382 L35.755,8.589 L40.285,4.673 L42.737,4.673 L42.737,25.005 L40.285,25.005" id="Fill-3" sketch:type="MSShapeGroup"></path>
            <path d="M55.71,25.209 C51.248,25.209 48.456,22.212 48.456,17.717 C48.456,15.741 49,13.766 50.227,11.62 L56.698,0.211 L59.286,0.211 L53.156,10.735 C54.144,10.224 54.961,10.088 56.119,10.088 C60.24,10.088 62.93,13.187 62.93,17.513 C62.93,21.94 60.138,25.209 55.71,25.209 L55.71,25.209 L55.71,25.209 L55.71,25.209 Z M55.676,12.131 C52.781,12.131 50.908,14.31 50.908,17.648 C50.908,20.952 52.781,23.132 55.676,23.132 C58.571,23.132 60.478,20.952 60.478,17.648 C60.478,14.651 58.809,12.131 55.676,12.131 L55.676,12.131 L55.676,12.131 L55.676,12.131 Z" id="Fill-4" sketch:type="MSShapeGroup"></path>
        </g>
        <g id="Group" sketch:type="MSLayerGroup" transform="translate(0.000000, 40.000000)" fill="#1A1918">
            <path d="M0.748,17.873 C2.388,14.211 3.626,10.398 4.462,6.437 L7.211,7.034 C6.471,11.095 5.314,14.989 3.738,18.719 L0.748,17.873 L0.748,17.873 L0.748,17.873 Z M13.939,0.919 L13.939,21.677 C13.939,23.384 13.119,24.237 11.479,24.237 L6.849,24.237 L6.343,20.98 L9.791,20.98 C10.45,20.98 10.78,20.642 10.78,19.962 L10.78,0.919 L13.939,0.919 L13.939,0.919 L13.939,0.919 Z M20.811,18.445 C19.798,14.435 18.496,10.655 16.905,7.108 L19.461,6.164 C21.084,9.661 22.491,13.473 23.681,17.6 L20.811,18.445 L20.811,18.445 L20.811,18.445 Z" id="Fill-10" sketch:type="MSShapeGroup"></path>
            <path d="M38.56,16.705 L38.56,23.94 L35.979,23.94 L35.979,23.218 L32.627,23.218 L32.627,24.237 L30.047,24.237 L30.047,16.531 C29.773,16.647 29.517,16.755 29.275,16.853 L28.287,14.418 C29.83,13.904 31.189,13.308 32.362,12.628 C31.815,12.314 31.277,12.023 30.747,11.758 C30.441,12.106 30.111,12.437 29.758,12.752 L28.383,10.664 C29.927,9.554 31.116,7.888 31.952,5.667 L34.339,5.916 C34.195,6.247 34.05,6.603 33.905,6.984 L38.752,6.984 L38.752,9.272 C38.302,10.382 37.643,11.401 36.775,12.329 C37.964,12.992 39.122,13.696 40.248,14.442 L38.56,16.705 L38.56,16.705 L38.56,16.705 Z M37.209,5.046 L31.132,5.046 L31.132,6.86 L28.721,6.86 L28.721,2.684 L32.844,2.684 C32.748,2.137 32.619,1.582 32.458,1.019 L35.231,0.794 C35.376,1.425 35.505,2.054 35.618,2.684 L39.596,2.684 L39.596,6.363 L37.209,6.363 L37.209,5.046 L37.209,5.046 L37.209,5.046 Z M31.421,15.983 L37.619,15.983 C36.735,15.321 35.794,14.683 34.798,14.069 C33.817,14.749 32.691,15.388 31.421,15.983 L31.421,15.983 L31.421,15.983 L31.421,15.983 Z M36.027,9.272 L32.7,9.272 C32.539,9.504 32.386,9.744 32.242,9.992 C32.997,10.324 33.737,10.689 34.46,11.087 C35.071,10.523 35.593,9.918 36.027,9.272 L36.027,9.272 L36.027,9.272 L36.027,9.272 Z M32.627,20.832 L35.979,20.832 L35.979,18.37 L32.627,18.37 L32.627,20.832 L32.627,20.832 L32.627,20.832 Z M40.079,1.565 L51.195,1.565 L51.195,4.226 L46.541,4.226 L46.3,5.841 L50.448,5.841 L50.448,19.663 L47.554,19.663 C49.017,20.542 50.335,21.47 51.509,22.447 L49.7,24.461 C48.607,23.434 47.289,22.439 45.746,21.478 L47.265,19.663 L42.972,19.663 L44.974,21.056 C43.768,22.183 42.313,23.293 40.609,24.387 L38.752,22.522 C40.215,21.644 41.565,20.691 42.804,19.663 L40.489,19.663 L40.489,5.841 L43.478,5.841 L43.744,4.226 L40.079,4.226 L40.079,1.565 L40.079,1.565 L40.079,1.565 Z M43.093,9.719 L47.843,9.719 L47.843,8.302 L43.093,8.302 L43.093,9.719 L43.093,9.719 L43.093,9.719 Z M43.093,13.498 L47.843,13.498 L47.843,12.006 L43.093,12.006 L43.093,13.498 L43.093,13.498 L43.093,13.498 Z M43.093,17.202 L47.843,17.202 L47.843,15.785 L43.093,15.785 L43.093,17.202 L43.093,17.202 L43.093,17.202 Z" id="Fill-11" sketch:type="MSShapeGroup"></path>
            <path d="M66.363,13.696 L78.637,13.696 L78.637,15.785 L74.128,15.785 C75.35,16.63 77.078,17.442 79.313,18.222 L77.938,20.757 C76.796,20.227 75.792,19.696 74.924,19.166 L74.924,21.254 C74.924,23.177 73.991,24.138 72.126,24.138 L68.244,24.138 L67.738,21.652 L71.09,21.652 C71.845,21.652 72.223,21.254 72.223,20.459 L72.223,19.912 L67.014,19.912 C66.548,20.74 66.034,21.403 65.471,21.9 C64.297,22.944 62.392,23.84 59.756,24.585 L58.671,21.95 C60.825,21.553 62.36,20.98 63.276,20.235 C63.389,20.136 63.501,20.028 63.614,19.912 L60.745,19.912 L60.745,19.141 C59.651,19.787 58.478,20.334 57.224,20.782 L55.922,18.272 C57.899,17.642 59.603,16.812 61.034,15.785 L56.5,15.785 L56.5,13.696 L63.301,13.696 C63.542,13.382 63.775,13.075 64,12.777 L58.719,12.777 L58.719,5.643 L76.467,5.643 L76.467,12.777 L66.942,12.777 C66.749,13.075 66.556,13.382 66.363,13.696 L66.363,13.696 L66.363,13.696 L66.363,13.696 Z M56.308,2.137 L62.191,2.137 L62.191,0.919 L64.989,0.919 L64.989,2.137 L70.39,2.137 L70.39,0.919 L73.164,0.919 L73.164,2.137 L78.83,2.137 L78.83,4.424 L73.164,4.424 L73.164,5.294 L70.39,5.294 L70.39,4.424 L64.989,4.424 L64.989,5.294 L62.191,5.294 L62.191,4.424 L56.308,4.424 L56.308,2.137 L56.308,2.137 L56.308,2.137 Z M61.492,8.451 L73.694,8.451 L73.694,7.531 L61.492,7.531 L61.492,8.451 L61.492,8.451 L61.492,8.451 Z M61.492,10.888 L73.694,10.888 L73.694,9.968 L61.492,9.968 L61.492,10.888 L61.492,10.888 L61.492,10.888 Z M65.543,16.655 L68.22,16.655 C68.123,17.053 68.019,17.409 67.907,17.724 L72.753,17.724 C71.917,17.078 71.258,16.432 70.776,15.785 L64.82,15.785 C64.193,16.481 63.509,17.127 62.77,17.724 L65.109,17.724 C65.254,17.393 65.398,17.036 65.543,16.655 L65.543,16.655 L65.543,16.655 L65.543,16.655 Z" id="Fill-12" sketch:type="MSShapeGroup"></path>
            <path d="M83.942,14.219 L95.999,14.219 L95.999,16.606 L91.586,16.606 L91.586,22.024 C91.586,23.5 90.927,24.237 89.609,24.237 L86.836,24.237 L86.353,21.478 L85.919,22.671 L83.653,21.876 L85.365,17.252 L87.607,18.196 L86.377,21.379 L87.969,21.379 C88.532,21.379 88.813,21.089 88.813,20.509 L88.813,16.606 L83.942,16.606 L83.942,14.219 L83.942,14.219 L83.942,14.219 Z M95.3,8.998 L84.521,8.998 L84.521,6.711 L88.717,6.711 L88.717,5.046 L84.039,5.046 L84.039,2.684 L88.717,2.684 L88.717,0.919 L91.49,0.919 L91.49,2.684 L96.096,2.684 L96.096,5.046 L91.49,5.046 L91.49,6.711 L95.348,6.711 L95.348,8.898 C96.538,6.446 97.374,3.762 97.856,0.844 L100.557,0.969 C100.396,1.963 100.203,2.933 99.978,3.877 L106.513,3.877 L106.513,6.761 L105.259,11.732 L102.751,11.087 L103.885,6.761 L99.158,6.761 C98.611,8.318 97.944,9.86 97.157,11.385 L95.035,9.57 C95.115,9.371 95.204,9.181 95.3,8.998 L95.3,8.998 L95.3,8.998 L95.3,8.998 Z M84.882,10.44 L94.962,10.44 L94.962,12.826 L84.882,12.826 L84.882,10.44 L84.882,10.44 L84.882,10.44 Z M91.996,18.37 L93.853,16.879 C94.641,17.84 95.308,18.752 95.854,19.613 L93.708,21.304 C93.354,20.492 92.784,19.514 91.996,18.37 L91.996,18.37 L91.996,18.37 L91.996,18.37 Z M94.094,22.1 C97.406,19.514 99.061,15.561 99.061,10.241 L99.061,8.501 L101.859,8.501 L101.859,10.241 C101.859,11.004 101.819,11.75 101.738,12.478 C102.832,16.489 104.568,19.572 106.947,21.727 L105.186,24.437 C103.338,22.464 101.867,20.102 100.774,17.352 C99.777,20.269 98.129,22.647 95.831,24.486 L94.094,22.1 L94.094,22.1 L94.094,22.1 Z" id="Fill-13" sketch:type="MSShapeGroup"></path>
        </g>
        <path d="M81.76,8.256 L80.032,8.256 L80.032,6.696 L73.936,6.696 L73.936,5.16 L80.032,5.16 L80.032,3.744 L81.76,3.744 L81.76,5.16 L88.192,5.16 L88.192,3.744 L89.92,3.744 L89.92,5.16 L96.064,5.16 L96.064,6.696 L89.92,6.696 L89.92,8.256 L88.192,8.256 L88.192,6.696 L81.76,6.696 L81.76,8.256 Z M88.696,22.272 L89.536,21.024 C91.8400115,21.9520046 93.9279906,22.9839943 95.8,24.12 L94.792,25.536 C93.0799914,24.3679942 91.0480118,23.280005 88.696,22.272 L88.696,22.272 Z M77.68,18.552 L92.512,18.552 L92.512,20.112 L86.176,20.112 L86.176,24.072 C86.176,25.272006 85.6240055,25.872 84.52,25.872 L81.256,25.872 L80.872,24.432 L83.776,24.432 C84.2240022,24.432 84.448,24.2080022 84.448,23.76 L84.448,20.112 L77.68,20.112 L77.68,18.552 Z M74.056,24.024 C76.3760116,23.3359966 78.3279921,22.3280066 79.912,21 L80.968,22.176 C79.2239913,23.6800075 77.152012,24.8159962 74.752,25.584 L74.056,24.024 Z M80.872,16.2 C79.1599914,17.6240071 77.000013,18.7519958 74.392,19.584 L73.504,18.024 C74.8480067,17.5759978 76.0719945,17.0800027 77.176,16.536 C76.7279978,15.9759972 76.2400026,15.3760032 75.712,14.736 L76.816,13.92 C77.4880034,14.720004 78.0159981,15.3759974 78.4,15.888 C78.8960025,15.5999986 79.3599978,15.2880017 79.792,14.952 C79.2479973,14.3279969 78.6320034,13.6720034 77.944,12.984 L78.904,12.12 C79.704004,12.9360041 80.3279978,13.5999974 80.776,14.112 C81.6720045,13.2479957 82.3519977,12.312005 82.816,11.304 L78.184,11.304 C77.0959946,12.6320066 75.8640069,13.791995 74.488,14.784 L73.6,13.584 C75.7760109,12.1279927 77.4959937,10.2400116 78.76,7.92 L80.032,8.592 C79.7439986,9.05600232 79.4640014,9.50399784 79.192,9.936 L84.448,9.936 L84.448,11.304 C83.9679976,12.6000065 83.224005,13.7999945 82.216,14.904 L88.648,14.904 C87.3679936,13.3519922 86.1760055,11.0480153 85.072,7.992 L86.368,7.56 C87.5520059,10.568015 88.8319931,12.775993 90.208,14.184 C90.2240001,14.2000001 90.2479998,14.2239998 90.28,14.256 C91.4000056,13.2319949 92.3999956,12.1680055 93.28,11.064 L88.552,11.064 L88.552,9.6 L95.224,9.6 L95.224,11.064 C94.6959974,11.9920046 93.4480098,13.4079905 91.48,15.312 C92.7280062,16.2560047 94.3359902,17.1199961 96.304,17.904 L95.296,19.488 C92.4799859,18.2239937 90.376007,16.8240077 88.984,15.288 L88.936,15.24 L88.936,16.464 L81.52,16.464 L81.52,15.576 C81.311999,15.784001 81.0960011,15.991999 80.872,16.2 L80.872,16.2 Z M112.024,19.536 C110.487992,22.928017 106.984027,25.0479958 101.512,25.896 L100.648,24.192 C105.496024,23.4719964 108.671992,21.8000131 110.176,19.176 L101.032,19.176 L101.032,17.448 L103.648,17.448 L103.648,11.472 L111.16,11.472 L111.16,9.288 L112.888,9.288 L112.888,11.472 L120.208,11.472 L120.208,17.448 L122.968,17.448 L122.968,19.176 L113.656,19.176 C115.70401,21.4320113 118.871979,23.0879947 123.16,24.144 L122.152,25.872 C117.543977,24.5759935 114.168011,22.4640146 112.024,19.536 L112.024,19.536 Z M112.888,15.192 C112.872,15.992004 112.800001,16.7439965 112.672,17.448 L118.48,17.448 L118.48,13.128 L112.888,13.128 L112.888,15.192 Z M110.848,17.448 C111.040001,16.7439965 111.144,15.992004 111.16,15.192 L111.16,13.128 L105.4,13.128 L105.4,17.448 L110.848,17.448 Z M108.016,5.904 L115.744,5.904 L115.744,3.744 L117.496,3.744 L117.496,5.904 L122.968,5.904 L122.968,7.632 L117.496,7.632 L117.496,9.936 L115.744,9.936 L115.744,7.632 L108.016,7.632 L108.016,9.936 L106.288,9.936 L106.288,7.632 L100.84,7.632 L100.84,5.904 L106.288,5.904 L106.288,3.744 L108.016,3.744 L108.016,5.904 Z M139.432,20.352 C136.839987,22.4320104 133.232023,24.2479922 128.608,25.8 L127.576,24.12 C132.200023,22.5999924 135.703988,20.9600088 138.088,19.2 C137.911999,19.0239991 137.752001,18.8640007 137.608,18.72 C135.175988,16.1759873 133.264007,12.8240208 131.872,8.664 L128.32,8.664 L128.32,6.936 L138.088,6.936 C137.927999,5.9759952 137.696002,4.96800528 137.392,3.912 L139.096,3.744 C139.400002,4.81600536 139.647999,5.87999472 139.84,6.936 L149.68,6.936 L149.68,8.664 L145.84,8.664 C144.783995,13.3200233 143.088012,16.8239882 140.752,19.176 C143.088012,20.968009 146.20798,22.6719919 150.112,24.288 L148.84,25.92 C144.967981,24.2239915 141.832012,22.3680101 139.432,20.352 L139.432,20.352 Z M144.184,8.664 L133.552,8.664 C134.832006,12.3440184 136.607989,15.3039888 138.88,17.544 C139.056001,17.7200009 139.231999,17.8959991 139.408,18.072 C139.456,18.0079997 139.504,17.9520002 139.552,17.904 C141.64801,15.7759894 143.191995,12.6960202 144.184,8.664 L144.184,8.664 Z M161.376,25.968 L161.376,4.92 L167.808,4.92 L167.808,6.552 L166.08,12.36 C167.280006,14.1360089 167.935999,15.9519907 168.048,17.808 C168.032,19.3280076 167.736003,20.287998 167.16,20.688 C166.567997,21.1040021 165.616007,21.2720004 164.304,21.192 L163.704,19.488 C165.016007,19.488 165.791999,19.3600013 166.032,19.104 C166.272001,18.8319986 166.392,18.400003 166.392,17.808 C166.263999,16.0639913 165.584006,14.288009 164.352,12.48 L166.152,6.552 L163.08,6.552 L163.08,25.968 L161.376,25.968 Z M181.728,9.48 L181.728,18.432 L177.792,18.432 C179.488008,20.4960103 181.29599,22.1759935 183.216,23.472 L182.376,25.104 C180.135989,23.3439912 178.184008,21.3120115 176.52,19.008 L176.52,25.968 L174.792,25.968 L174.792,18.96 C172.999991,21.5040127 170.792013,23.5839919 168.168,25.2 L167.208,23.64 C169.656012,22.2959933 171.735991,20.5600106 173.448,18.432 L169.488,18.432 L169.488,9.48 L174.792,9.48 L174.792,7.272 L168.6,7.272 L168.6,5.712 L174.792,5.712 L174.792,3.744 L176.52,3.744 L176.52,5.712 L182.76,5.712 L182.76,7.272 L176.52,7.272 L176.52,9.48 L181.728,9.48 Z M171.144,13.272 L174.792,13.272 L174.792,11.016 L171.144,11.016 L171.144,13.272 Z M174.792,14.712 L171.144,14.712 L171.144,16.872 L174.792,16.872 L174.792,14.712 Z M176.52,13.272 L180.096,13.272 L180.096,11.016 L176.52,11.016 L176.52,13.272 Z M180.096,14.712 L176.52,14.712 L176.52,16.872 L180.096,16.872 L180.096,14.712 Z M209.304,21 L202.224,21 L202.224,22.968 L200.472,22.968 L200.472,21 L194.472,21 L194.472,19.536 L200.472,19.536 L200.472,17.52 L195.312,17.52 L195.312,16.08 L200.472,16.08 L200.472,14.064 L195.888,14.064 L195.888,12.6 L200.472,12.6 L200.472,10.488 L194.472,10.488 L194.472,9.048 L200.472,9.048 L200.472,7.032 L195.792,7.032 L195.792,5.568 L200.472,5.568 L200.472,3.744 L202.224,3.744 L202.224,5.568 L207.84,5.568 L207.84,9.048 L209.856,9.048 L209.856,10.488 L207.84,10.488 L207.84,14.064 L202.224,14.064 L202.224,16.08 L208.536,16.08 L208.536,17.52 L202.224,17.52 L202.224,19.536 L209.304,19.536 L209.304,21 Z M206.112,7.032 L202.224,7.032 L202.224,9.048 L206.112,9.048 L206.112,7.032 Z M206.112,10.488 L202.224,10.488 L202.224,12.6 L206.112,12.6 L206.112,10.488 Z M193.872,12.432 C193.84,15.7120164 193.496003,18.1839917 192.84,19.848 C192.647999,20.2800022 192.416001,20.7439975 192.144,21.24 C193.376006,22.6000068 194.711993,23.383999 196.152,23.592 C197.064005,23.7040006 197.975995,23.76 198.888,23.76 L209.952,23.76 L209.736,25.416 L198.576,25.416 C197.711996,25.416 196.856004,25.3760004 196.008,25.296 C194.247991,25.0239986 192.656007,24.1120078 191.232,22.56 C190.479996,23.5840051 189.520006,24.6799942 188.352,25.848 L187.368,24.408 C188.536006,23.2719943 189.479996,22.2320047 190.2,21.288 C189.255995,20.0239937 188.384004,18.4560094 187.584,16.584 L189,15.984 C189.656003,17.5200077 190.359996,18.8239946 191.112,19.896 C191.240001,19.6559988 191.352,19.4240011 191.448,19.2 C191.928002,18.0319942 192.208,16.3200113 192.288,14.064 L188.184,14.064 L188.184,12.432 L192.096,6.84 L187.824,6.84 L187.824,5.208 L194.088,5.208 L194.088,6.84 L190.152,12.432 L193.872,12.432 Z M222.408,7.32 L236.208,7.32 L236.208,9.048 L222.408,9.048 L222.408,7.32 Z M221.472,22.488 L236.952,22.488 L236.952,24.24 L221.472,24.24 L221.472,22.488 Z M214.152,14.736 C216.344011,11.7119849 218.135993,8.01602184 219.528,3.648 L221.232,4.056 C220.639997,5.67200808 220.016003,7.22399256 219.36,8.712 L219.36,25.872 L217.632,25.872 L217.632,12.288 C216.847996,13.7440073 216.032004,15.1279934 215.184,16.44 L214.152,14.736 Z M262.536,13.08 L262.536,19.224 L260.256,19.224 L260.256,23.808 C260.256,24.0320011 260.359999,24.144 260.568,24.144 L262.176,24.144 C262.384001,24.144 262.488,24.0320011 262.488,23.808 L262.488,21.552 L263.952,21.936 L263.952,24.216 C263.952,25.2560052 263.424005,25.776 262.368,25.776 L260.28,25.776 C259.223995,25.776 258.696,25.2560052 258.696,24.216 L258.696,19.224 L256.776,19.224 L256.776,19.872 C256.776,22.6880141 255.368014,24.7519934 252.552,26.064 L251.472,24.744 C253.984013,23.6719946 255.24,22.0480109 255.24,19.872 L255.24,19.224 L253.488,19.224 L253.488,13.08 L262.536,13.08 Z M260.904,14.52 L255.144,14.52 L255.144,17.76 L260.904,17.76 L260.904,14.52 Z M251.76,11.352 L241.536,11.352 L241.536,9.888 L244.032,9.888 L243.408,7.128 L242.016,7.128 L242.016,5.664 L246.024,5.664 C245.928,5.03999688 245.768001,4.39200336 245.544,3.72 L247.272,3.552 C247.448001,4.25600352 247.591999,4.95999648 247.704,5.664 L251.304,5.664 L251.304,7.128 L250.056,7.128 L249.288,9.888 L251.76,9.888 L251.76,11.352 Z M248.448,7.128 L245.016,7.128 L245.568,9.888 L247.728,9.888 L248.448,7.128 Z M263.856,11.352 L252.696,11.352 L252.696,9.888 L255.096,9.888 L254.544,7.128 L253.08,7.128 L253.08,5.664 L257.424,5.664 C257.295999,5.03999688 257.120001,4.40000328 256.896,3.744 L258.6,3.528 C258.824001,4.2480036 258.999999,4.95999648 259.128,5.664 L263.376,5.664 L263.376,7.128 L261.864,7.128 L261.144,9.888 L263.856,9.888 L263.856,11.352 Z M260.28,7.128 L256.152,7.128 L256.632,9.888 L259.584,9.888 L260.28,7.128 Z M245.616,20.064 C245.616,22.4960122 244.488011,24.4879922 242.232,26.04 L241.224,24.576 C243.12801,23.4399943 244.08,21.9360094 244.08,20.064 L244.08,19.224 L242.424,19.224 L242.424,13.08 L250.92,13.08 L250.92,19.224 L249.096,19.224 L249.096,22.464 L251.952,20.952 L252.144,22.584 C250.04799,23.6880055 248.552004,24.543997 247.656,25.152 L246.96,23.592 C247.328002,23.3679989 247.52,23.0080025 247.536,22.512 L247.536,19.224 L245.616,19.224 L245.616,20.064 Z M249.288,14.52 L244.08,14.52 L244.08,17.76 L249.288,17.76 L249.288,14.52 Z M283.68,20.616 L284.496,19.296 C286.640011,19.8720029 288.535992,20.5359962 290.184,21.288 L289.272,22.752 C287.911993,22.0319964 286.048012,21.3200035 283.68,20.616 L283.68,20.616 Z M275.304,22.464 L274.488,21.024 C276.376009,20.5279975 278.167992,19.9280035 279.864,19.224 L280.824,20.328 C279.063991,21.1600042 277.22401,21.871997 275.304,22.464 L275.304,22.464 Z M290.472,18.936 L274.272,18.936 L274.272,17.496 L278.328,17.496 L278.328,15.48 L275.112,15.48 L275.112,14.016 L278.328,14.016 L278.328,12.24 C277.031994,12.432001 276.016004,12.631999 275.28,12.84 L274.608,11.232 C274.992002,11.0079989 275.192,10.6480025 275.208,10.152 L275.208,4.68 L281.52,4.68 L281.52,8.952 L276.744,8.952 L276.744,10.944 L281.664,10.416 L281.856,11.76 C281.183997,11.8240003 280.560003,11.8959996 279.984,11.976 L279.984,14.016 L284.616,14.016 L284.616,12.048 L284.376,12.048 C283.511996,12.048 283.08,11.6080044 283.08,10.728 L283.08,4.68 L289.488,4.68 L289.488,8.952 L284.616,8.952 L284.616,10.368 C284.616,10.576001 284.727999,10.68 284.952,10.68 L289.728,10.68 L289.728,12.048 L286.272,12.048 L286.272,14.016 L289.632,14.016 L289.632,15.48 L286.272,15.48 L286.272,17.496 L290.472,17.496 L290.472,18.936 Z M284.616,7.584 L287.952,7.584 L287.952,6.048 L284.616,6.048 L284.616,7.584 Z M276.744,7.584 L279.984,7.584 L279.984,6.048 L276.744,6.048 L276.744,7.584 Z M284.616,15.48 L279.984,15.48 L279.984,17.496 L284.616,17.496 L284.616,15.48 Z M272.064,8.88 C271.311996,7.69599408 270.376006,6.3840072 269.256,4.944 L270.624,4.032 C272.048007,5.88800928 272.999998,7.20799608 273.48,7.992 L272.064,8.88 Z M272.808,12.144 L272.808,21.384 C272.920001,21.4320002 273.039999,21.4879997 273.168,21.552 C273.632002,21.8400014 274.263996,22.2359975 275.064,22.74 C275.864004,23.2440025 277.22399,23.496 279.144,23.496 L291.072,23.496 L290.592,25.128 L279.144,25.128 C277.14399,25.128 275.704004,24.8560027 274.824,24.312 C273.943996,23.7679973 273.336002,23.3760012 273,23.136 C272.679998,22.9119989 272.352002,22.7920001 272.016,22.776 C271.583998,22.8880006 270.776006,23.7679918 269.592,25.416 L268.2,24.096 C268.792003,23.503997 269.447996,22.8560035 270.168,22.152 C270.472002,21.8319984 270.775998,21.5840009 271.08,21.408 L271.08,13.776 L268.728,13.776 L268.728,12.144 L272.808,12.144 Z" id="蔡英文-陳建仁競選" fill="#1A1918" sketch:type="MSShapeGroup"></path>
    </g>
</svg>