<?xml version="1.0" encoding="UTF-8" standalone="no"?>
<svg width="246px" height="104px" viewBox="0 0 246 104" version="1.1" xmlns="http://www.w3.org/2000/svg" xmlns:xlink="http://www.w3.org/1999/xlink" xmlns:sketch="http://www.bohemiancoding.com/sketch/ns">
    <!-- Generator: Sketch 3.3.3 (12072) - http://www.bohemiancoding.com/sketch -->
    <title>index-tablemat-title-mobile</title>
    <desc>Created with Sketch.</desc>
    <defs></defs>
    <g id="Page-1" stroke="none" stroke-width="1" fill="none" fill-rule="evenodd" sketch:type="MSPage">
        <g id="拓印希望，溫暖生活-+-印花樂×蔡英文-點亮台灣餐具組" sketch:type="MSLayerGroup" fill="#FFFFFF">
            <path d="M40.8075,23.009 L40.8075,2.233 L49.946,2.233 L49.946,16.688 C49.946,18.2560078 49.1701745,19.04 47.6185,19.04 L44.9235,19.04 L44.556,17.6435 L47.7165,17.6435 C48.2881696,17.6435 48.574,17.3658361 48.574,16.8105 L48.574,3.6295 L42.204,3.6295 L42.204,23.009 L40.8075,23.009 Z M30.2725,18.991 L30.2725,2.478 C33.3105152,2.2656656 35.9809885,1.6695049 38.284,0.6895 L38.97,1.988 C36.7813224,2.77200392 34.3476801,3.35999804 31.669,3.752 L31.669,9.3625 L38.9945,9.3625 L38.9945,10.661 L31.669,10.661 L31.669,18.795 C34.2823464,18.402998 36.7731549,17.9538359 39.1415,17.4475 L39.264,18.7705 C36.0299839,19.5871707 32.4693528,20.2404975 28.582,20.7305 L28.386,19.285 C29.0066698,19.1869995 29.6354969,19.0890005 30.2725,18.991 L30.2725,18.991 Z M69.1445001,4.7075 C65.9104839,5.93250613 62.5621841,6.72466487 59.0995001,7.084 L58.7075001,5.7365 C61.614848,5.44249853 64.4323198,4.86267099 67.1600001,3.997 C64.7916549,3.16399583 62.349846,2.42900318 59.8345001,1.792 L60.5450001,0.567 C63.5013482,1.38367075 66.3514864,2.29016168 69.0955001,3.2865 C71.1045101,2.48616266 73.0481574,1.51433905 74.9265001,0.371 L76.0535001,1.302 C74.3384915,2.31467173 72.6235087,3.21299608 70.9085001,3.997 C72.8685099,4.76467051 74.754991,5.55682925 76.5680001,6.3735 L75.6370001,7.5495 C73.5299896,6.50416144 71.3658445,5.55683758 69.1445001,4.7075 L69.1445001,4.7075 Z M78.8465001,10.0485 L64.4650001,10.0485 C63.6156625,11.3715066 62.6193391,12.5801612 61.4760001,13.6745 L67.7480001,13.6745 L67.7480001,11.3225 L69.1445001,11.3225 L69.1445001,13.6745 L76.8865001,13.6745 L76.8865001,18.942 C76.8865001,20.5100078 76.1025079,21.294 74.5345001,21.294 L72.5255001,21.294 L72.1580001,19.9955 L74.6570001,19.9955 C75.2123362,19.9955 75.4900001,19.7178361 75.4900001,19.1625 L75.4900001,14.973 L69.1445001,14.973 L69.1445001,22.911 L67.7480001,22.911 L67.7480001,14.973 L61.9660001,14.973 L61.9660001,21.392 L60.5695001,21.392 L60.5695001,14.532 C59.5241615,15.3813376 58.3726731,16.1571632 57.1150001,16.8595 L56.2575001,15.7325 C59.246515,14.1808256 61.5086591,12.2861779 63.0440001,10.0485 L56.4535001,10.0485 L56.4535001,8.652 L63.8525001,8.652 C64.2445021,7.86799608 64.5711655,7.043171 64.8325001,6.1775 L66.1310001,6.5205 C65.8696655,7.25550367 65.5675018,7.96599657 65.2245001,8.652 L78.8465001,8.652 L78.8465001,10.0485 Z M85.0355001,13.3315 C91.9772015,13.4458339 98.6656346,13.1028373 105.101,12.3025 L105.689,13.5765 C102.487651,13.9848354 99.2781829,14.2788324 96.0605001,14.4585 L96.0605001,16.933 L104.9295,16.933 L104.9295,18.2315 L96.0605001,18.2315 L96.0605001,20.657 L106.5465,20.657 L106.5465,21.9555 L83.8595001,21.9555 L83.8595001,20.657 L94.6885001,20.657 L94.6885001,18.2315 L85.8685001,18.2315 L85.8685001,16.933 L94.6885001,16.933 L94.6885001,14.532 C91.5851513,14.6953342 88.4736824,14.7443337 85.3540001,14.679 L85.0355001,13.3315 Z M94.8600001,1.2285 L105.15,1.2285 L105.15,9.6075 C105.15,10.94684 104.537506,11.6165 103.3125,11.6165 L99.3680001,11.6165 L98.9760001,10.318 L103.092,10.318 C103.549336,10.318 103.778,10.0975022 103.778,9.6565 L103.778,8.309 L95.9380001,8.309 C95.578665,9.87700784 94.909005,11.1101622 93.9290001,12.0085 L92.7775001,11.2 C94.1658404,9.90966021 94.8600001,7.97417957 94.8600001,5.3935 L94.8600001,1.2285 Z M96.1340001,7.133 L103.778,7.133 L103.778,5.5405 L96.2565001,5.5405 C96.2401667,6.07950269 96.1993338,6.61033072 96.1340001,7.133 L96.1340001,7.133 Z M103.778,2.527 L96.2565001,2.527 L96.2565001,4.34 L103.778,4.34 L103.778,2.527 Z M93.5370001,4.291 L87.2650001,4.291 L87.2650001,8.456 C87.2650001,8.91333562 87.4854979,9.142 87.9265001,9.142 L92.3855001,9.142 L92.3855001,10.514 L87.8775001,10.514 C86.5381601,10.514 85.8685001,9.84434003 85.8685001,8.505 L85.8685001,4.291 L83.9575001,4.291 L83.9575001,2.919 L88.6370001,2.919 C88.4899994,2.21666315 88.2858348,1.47350392 88.0245001,0.6895 L89.4455001,0.518 C89.674168,1.33467075 89.8538328,2.13499608 89.9845001,2.919 L93.5370001,2.919 L93.5370001,4.291 Z M122.6825,10.465 L125.255,10.465 L122.119,16.9085 L120.698,16.9085 L122.6825,10.465 Z M143.9635,5.173 C142.852828,4.16032827 141.513508,3.07417247 139.9455,1.9145 L140.8765,0.8365 C142.869177,2.37184101 144.216663,3.4661634 144.919,4.1195 L143.9635,5.173 Z M143.2775,11.396 C142.232162,10.4159951 140.958174,9.35433905 139.4555,8.211 L140.3865,7.1575 C142.29751,8.64384076 143.58783,9.7136634 144.2575,10.367 L143.2775,11.396 Z M139.8475,22.5435 C140.762171,20.0608209 141.652329,17.1371835 142.518,13.7725 L143.841,14.238 C142.681328,18.5173547 141.79117,21.4573253 141.1705,23.058 L139.8475,22.5435 Z M159.6925,1.5225 L159.6925,10.955 L146.732,10.955 L146.732,1.5225 L159.6925,1.5225 Z M158.3205,2.821 L148.1285,2.821 L148.1285,9.6565 L158.3205,9.6565 L158.3205,2.821 Z M153.6165,5.4425 C154.776173,6.04683635 155.862329,6.74916266 156.875,7.5495 L156.14,8.6275 C155.110995,7.77816242 154.049339,7.0268366 152.955,6.3735 C152.23633,7.25550441 151.338006,8.0231634 150.26,8.6765 L149.5005,7.5495 C151.36251,6.50416144 152.611997,5.14034175 153.249,3.458 L154.4495,3.752 C154.237166,4.35633635 153.959502,4.91983072 153.6165,5.4425 L153.6165,5.4425 Z M146.0705,13.307 L160.55,13.307 L160.55,20.657 L162.2405,20.657 L162.2405,21.9555 L143.8655,21.9555 L143.8655,20.657 L146.0705,20.657 L146.0705,13.307 Z M147.4425,14.581 L147.4425,20.657 L150.407,20.657 L150.407,14.581 L147.4425,14.581 Z M151.7055,14.581 L151.7055,20.657 L154.817,20.657 L154.817,14.581 L151.7055,14.581 Z M156.1155,14.581 L156.1155,20.657 L159.178,20.657 L159.178,14.581 L156.1155,14.581 Z M168.013,21.294 L168.013,2.086 L173.893,2.086 L173.893,19.9465 L172.521,19.9465 L172.521,18.4275 L169.4095,18.4275 L169.4095,21.294 L168.013,21.294 Z M169.4095,11.3225 L169.4095,17.129 L172.521,17.129 L172.521,11.3225 L169.4095,11.3225 Z M169.4095,3.3845 L169.4095,10.0485 L172.521,10.0485 L172.521,3.3845 L169.4095,3.3845 Z M175.657,3.4335 L175.2895,2.1595 C179.87919,1.96349902 184.297312,1.45717075 188.544,0.6405 L189.2055,1.9145 C184.762811,2.74750417 180.24669,3.25383243 175.657,3.4335 L175.657,3.4335 Z M189.7445,12.2045 L179.969,12.2045 C179.822,12.9558371 179.658668,13.6744966 179.479,14.3605 L188.2745,14.3605 L188.2745,15.6345 C187.408829,17.3985088 186.257341,18.8521609 184.82,19.9955 C186.306341,20.7305037 188.086657,21.3021646 190.161,21.7105 L189.475,23.058 C187.171989,22.5679975 185.195675,21.8330049 183.546,20.853 C181.863659,21.8983386 179.879178,22.5924983 177.5925,22.9355 L176.8085,21.7105 C178.882844,21.3838317 180.687659,20.8040042 182.223,19.971 C181.161328,19.1706627 180.271171,18.239672 179.5525,17.178 L180.753,16.737 C181.455337,17.6843381 182.345495,18.5173297 183.4235,19.236 C184.795507,18.2886619 185.906163,17.0881739 186.7555,15.6345 L179.0625,15.6345 C178.980833,15.9121681 178.899167,16.1653322 178.8175,16.394 C177.902829,18.4356769 176.302178,20.5834887 174.0155,22.8375 L172.8885,21.6615 C175.109845,19.5708229 176.653329,17.5863427 177.519,15.708 C177.927336,14.7279951 178.270332,13.5601734 178.548,12.2045 L174.9955,12.2045 L174.9955,10.906 L178.7685,10.906 C178.899168,10.1056627 178.997167,9.25633783 179.0625,8.358 L175.4855,8.358 L175.4855,7.084 L177.764,7.084 C177.371998,6.26732925 176.91467,5.426171 176.392,4.5605 L177.617,4.1195 C178.23767,5.11583832 178.768498,6.1039951 179.2095,7.084 L182.0515,7.084 C181.871833,6.16932876 181.594169,5.2220049 181.2185,4.242 L182.5415,4.046 C182.917169,5.05867173 183.227499,6.07132827 183.4725,7.084 L185.555,7.084 C186.17567,5.97332778 186.771831,4.72384027 187.3435,3.3355 L188.6665,3.8255 C188.209165,4.88717198 187.67017,5.97332778 187.0495,7.084 L189.4505,7.084 L189.4505,8.358 L180.3855,8.358 C180.320167,9.24000441 180.230334,10.0893292 180.116,10.906 L189.7445,10.906 L189.7445,12.2045 Z M195.027,10.71 C197.346345,7.57398432 198.857163,4.38084959 199.5595,1.1305 L200.8825,1.4245 C200.572165,2.7311732 200.15567,4.02149363 199.633,5.2955 L206.248,5.2955 L206.248,0.42 L207.6445,0.42 L207.6445,5.2955 L216.195,5.2955 L216.195,6.692 L207.6445,6.692 L207.6445,12.474 L215.3375,12.474 L215.3375,13.8705 L207.6445,13.8705 L207.6445,20.4365 L217.1505,20.4365 L217.1505,21.8085 L195.811,21.8085 L195.811,20.4365 L206.248,20.4365 L206.248,13.8705 L198.408,13.8705 L198.408,12.474 L206.248,12.474 L206.248,6.692 L199.0205,6.692 C198.20383,8.40700858 197.207506,10.0893251 196.0315,11.739 L195.027,10.71 Z M229.5135,2.1105 C234.397191,1.94716585 239.084811,1.45717075 243.5765,0.6405 L244.2135,1.9145 C242.008489,2.29016855 239.811678,2.61683195 237.623,2.8945 L237.623,7.5005 L245.2425,7.5005 L245.2425,8.897 L237.623,8.897 L237.623,13.062 L243.748,13.062 L243.748,22.911 L242.376,22.911 L242.376,21.441 L231.694,21.441 L231.694,22.911 L230.2975,22.911 L230.2975,13.062 L236.251,13.062 L236.251,8.897 L228.7785,8.897 L228.7785,7.5005 L236.251,7.5005 L236.251,3.0415 C234.14399,3.2538344 232.037011,3.40083293 229.93,3.4825 L229.5135,2.1105 Z M242.376,14.434 L231.694,14.434 L231.694,20.0445 L242.376,20.0445 L242.376,14.434 Z M227.4065,5.467 C226.312162,4.38899461 224.981008,3.22933954 223.413,1.988 L224.344,0.959 C226.35301,2.57600809 227.708664,3.73566315 228.411,4.438 L227.4065,5.467 Z M223.1435,22.4455 C224.172506,19.9954877 225.193329,17.1290164 226.206,13.846 L227.5045,14.3605 C226.16516,18.5581877 225.152504,21.4328256 224.4665,22.9845 L223.1435,22.4455 Z M226.353,11.7635 C225.307662,10.7344949 224.033675,9.60750612 222.531,8.3825 L223.511,7.3535 C225.42201,8.93784126 226.704164,10.0729966 227.3575,10.759 L226.353,11.7635 Z M2.6705,2.7965 C9.04053185,2.71483292 15.1654706,2.20033807 21.0455,1.253 L21.6335,2.429 C18.840486,2.88633562 16.047514,3.25383195 13.2545,3.5315 L13.2545,8.1865 L21.9275,8.1865 L21.9275,9.5585 L13.2545,9.5585 L13.2545,13.8215 L23.2505,13.8215 L23.2505,15.218 L13.2545,15.218 L13.2545,20.4365 C13.2545,21.9881744 12.4705078,22.764 10.9025,22.764 L6.7865,22.764 L6.419,21.392 L11.025,21.392 C11.5803361,21.392 11.858,21.1061695 11.858,20.5345 L11.858,15.218 L1.2495,15.218 L1.2495,13.8215 L11.858,13.8215 L11.858,9.5585 L2.5725,9.5585 L2.5725,8.1865 L11.858,8.1865 L11.858,3.6785 C8.93431872,3.93983464 5.99434812,4.09499976 3.038,4.144 L2.6705,2.7965 Z" id="拓印希望，溫暖生活" sketch:type="MSShapeGroup"></path>
            <path d="M12.8135,63.107 L12.8135,42.0125 L22.54,42.0125 L22.54,57.031 C22.54,58.5990078 21.7560078,59.383 20.188,59.383 L17.199,59.383 L16.6845,57.129 L19.551,57.129 C20.1063361,57.129 20.384,56.8513361 20.384,56.296 L20.384,44.242 L14.9695,44.242 L14.9695,63.107 L12.8135,63.107 Z M2.401,58.501 L2.401,42.135 C5.0143464,41.8736654 7.6848197,41.2856712 10.4125,40.371 L11.4905,42.4045 C9.39982288,43.1231703 7.08867933,43.6703315 4.557,44.046 L4.557,48.995 L11.2945,48.995 L11.2945,51.053 L4.557,51.053 L4.557,58.1825 C6.97434542,57.7578312 9.27732239,57.308669 11.466,56.835 L11.6375,58.893 C8.38715042,59.758671 4.81835277,60.4691639 0.931,61.0245 L0.588,58.795 C1.19233636,58.6969995 1.79666365,58.5990005 2.401,58.501 L2.401,58.501 Z M39.705,60.3875 L39.705,47.4025 L41.959,47.4025 L41.959,53.258 C44.1966779,52.0166605 46.5486544,50.530342 49.015,48.799 L50.387,50.5875 C47.8389873,52.3678422 45.0296821,54.025659 41.959,55.561 L41.959,59.726 C41.959,60.3466698 42.2693303,60.657 42.89,60.657 L47.888,60.657 C48.5576701,60.657 48.8925,60.32217 48.8925,59.6525 L48.8925,56.4185 L50.9505,56.9575 L50.9505,60.216 C50.9505,61.8820083 50.1746745,62.715 48.623,62.715 L42.057,62.715 C40.4889922,62.715 39.705,61.9391744 39.705,60.3875 L39.705,60.3875 Z M28.2145,54.8505 C31.1871816,52.7598229 33.3268268,50.1056828 34.6335,46.888 L36.7405,47.5985 C36.1524971,48.7418391 35.5318366,49.8279949 34.8785,50.857 L34.8785,63.009 L32.6245,63.009 L32.6245,53.8215 C31.5301612,55.0628395 30.354173,56.1734951 29.0965,57.1535 L28.2145,54.8505 Z M43.4535,44.536 L36.3975,44.536 L36.3975,46.447 L34.168,46.447 L34.168,44.536 L28.6555,44.536 L28.6555,42.478 L34.168,42.478 L34.168,40.322 L36.3975,40.322 L36.3975,42.478 L43.4535,42.478 L43.4535,40.322 L45.683,40.322 L45.683,42.478 L51.1465,42.478 L51.1465,44.536 L45.683,44.536 L45.683,46.643 L43.4535,46.643 L43.4535,44.536 Z M56.3555001,54.973 L66.5965001,54.973 L66.5965001,53.16 L64.2445001,53.16 L64.2445001,43.164 C62.8398264,45.9080137 61.2636755,48.5213209 59.5160001,51.004 C60.2346704,50.9059995 61.0023293,50.8080005 61.8190001,50.71 C61.6883328,50.1383305 61.5495008,49.5503364 61.4025001,48.946 L62.8235001,48.554 C63.3625028,50.3180088 63.7463323,51.9349927 63.9750001,53.405 L62.2845001,53.846 C62.2518333,53.4049978 62.1946672,52.8986695 62.1130001,52.327 C60.3653247,52.6210015 58.7565074,52.9313317 57.2865001,53.258 L56.5760001,51.445 C57.2130033,51.2653324 57.7029984,50.8978361 58.0460001,50.3425 C58.6993367,49.3624951 59.3526635,48.3253388 60.0060001,47.231 C58.976995,47.3943342 58.0296711,47.5658324 57.1640001,47.7455 L56.5025001,45.908 C57.090503,45.7773327 57.5151655,45.4833356 57.7765001,45.026 C58.560504,43.6703266 59.2954967,42.126842 59.9815001,40.3955 L61.7455001,40.812 C61.0268298,42.4780083 60.2020048,44.078659 59.2710001,45.614 C59.8100028,45.5486663 60.3979969,45.4915002 61.0350001,45.4425 C61.5576694,44.5114953 62.0721642,43.5315051 62.5785001,42.5025 L64.2445001,43.115 L64.2445001,42.184 L66.4250001,42.184 L66.8415001,40.1015 L68.8995001,40.322 L68.4830001,42.184 L71.0065001,42.184 L71.0065001,45.712 C71.4965025,45.5649993 71.8476657,45.2873354 72.0600001,44.879 C72.7786704,43.5069931 73.4401637,41.9635086 74.0445001,40.2485 L75.8085001,40.567 C75.1714969,42.2493417 74.4365043,43.858159 73.6035001,45.3935 C74.1588362,45.3118329 74.7549969,45.2383337 75.3920001,45.173 C75.9146694,44.2256619 76.4291642,43.2375051 76.9355001,42.2085 L78.6260001,42.8455 C77.204993,45.6711808 75.6125089,48.3334875 73.8485001,50.8325 C74.6651708,50.7181661 75.5226623,50.6120005 76.4210001,50.514 C76.2576659,49.8769968 76.0698345,49.1991703 75.8575001,48.4805 L77.2785001,48.0395 C77.9318367,49.9341761 78.397332,51.6899919 78.6750001,53.307 L77.0580001,53.797 C76.9926664,53.3069976 76.902834,52.7761695 76.7885001,52.2045 C74.9101574,52.4495012 73.1870079,52.7189985 71.6190001,53.013 L71.0065001,51.3715 L71.0065001,53.16 L68.7525001,53.16 L68.7525001,54.973 L78.7485001,54.973 L78.7485001,56.933 L70.2470001,56.933 C73.2523485,58.5990083 76.1923191,59.7586634 79.0670001,60.412 L78.2340001,62.568 C74.8529832,61.4899946 71.6925148,59.9628432 68.7525001,57.9865 L68.7525001,63.107 L66.5965001,63.107 L66.5965001,57.9865 C63.7054856,60.1588442 60.5368507,61.7023288 57.0905001,62.617 L56.1595001,60.5345 C59.3935163,59.8484966 62.34982,58.6480086 65.0285001,56.933 L56.3555001,56.933 L56.3555001,54.973 Z M71.0065001,46.202 L71.0065001,51.2 C71.594503,51.0203324 72.0599984,50.6773359 72.4030001,50.171 C73.0563367,49.1746617 73.7096635,48.1211722 74.3630001,47.0105 C73.3666618,47.1901676 72.4275045,47.377999 71.5455001,47.574 L71.0065001,46.202 Z M66.1310001,46.741 L69.1445001,46.741 L69.1445001,44.0705 L66.1310001,44.0705 L66.1310001,46.741 Z M69.1445001,48.505 L66.1310001,48.505 L66.1310001,51.298 L69.1445001,51.298 L69.1445001,48.505 Z M95.4480001,58.842 L92.0940001,55.436 L88.6360001,58.92 L86.8160001,57.152 L90.3000001,53.694 L86.9460001,50.314 L88.6620001,48.572 L92.0420001,51.952 L95.4740001,48.52 L97.2680001,50.288 L93.7840001,53.746 L97.1640001,57.126 L95.4480001,58.842 Z M113.518418,44.928 L111.362418,44.928 L111.362418,43.4825 L105.237418,43.4825 L105.237418,41.6205 L111.362418,41.6205 L111.362418,40.322 L113.518418,40.322 L113.518418,41.6205 L119.692418,41.6205 L119.692418,40.322 L121.848418,40.322 L121.848418,41.6205 L127.924418,41.6205 L127.924418,43.4825 L121.848418,43.4825 L121.848418,44.928 L119.692418,44.928 L119.692418,43.4825 L113.518418,43.4825 L113.518418,44.928 Z M120.280418,59.4075 L121.358418,57.7905 C123.726763,58.7541715 125.866409,59.807661 127.777418,60.951 L126.503418,62.7395 C124.755743,61.5308273 122.68143,60.4201717 120.280418,59.4075 L120.280418,59.4075 Z M109.157418,55.316 L124.298418,55.316 L124.298418,57.178 L118.026418,57.178 L118.026418,60.8285 C118.026418,62.2821739 117.356758,63.009 116.017418,63.009 L112.881418,63.009 L112.342418,61.147 L115.037418,61.147 C115.592754,61.147 115.870418,60.8693361 115.870418,60.314 L115.870418,57.178 L109.157418,57.178 L109.157418,55.316 Z M105.359918,60.853 C107.744597,60.1506632 109.729077,59.1216734 111.313418,57.766 L112.611918,59.1625 C110.847909,60.7305078 108.732764,61.9309958 106.266418,62.764 L105.359918,60.853 Z M112.489418,53.111 C110.77441,54.5646739 108.593932,55.7079958 105.947918,56.541 L104.894418,54.679 C106.184758,54.2706646 107.344413,53.8133359 108.373418,53.307 C107.965083,52.7843307 107.499588,52.2535027 106.976918,51.7145 L108.250918,50.7345 C108.904255,51.4695037 109.435083,52.0656644 109.843418,52.523 C110.251754,52.2779988 110.64375,52.0166681 111.019418,51.739 C110.496749,51.1673305 109.925088,50.5711698 109.304418,49.9505 L110.529418,48.897 C111.231755,49.6156703 111.795249,50.211831 112.219918,50.6855 C112.987589,49.8851627 113.600083,49.052171 114.057418,48.1865 L109.696418,48.1865 C108.602079,49.5095066 107.360759,50.6609951 105.972418,51.641 L104.894418,50.1465 C107.099429,48.6274924 108.838912,46.7246781 110.112918,44.438 L111.680918,45.271 C111.419584,45.7120022 111.166419,46.1203315 110.921418,46.496 L116.041918,46.496 L116.041918,48.1865 C115.584583,49.3951727 114.914923,50.5221614 114.032918,51.5675 L119.961918,51.5675 C118.736912,49.9668253 117.585424,47.7128479 116.507418,44.8055 L118.173418,44.2665 C119.365758,47.2065147 120.647911,49.3951595 122.019918,50.8325 C123.03259,49.8851619 123.939081,48.9051717 124.739418,47.8925 L120.255918,47.8925 L120.255918,46.202 L127.017918,46.202 L127.017918,47.8925 C126.478916,48.7908378 125.253928,50.1628241 123.342918,52.0085 C124.633258,52.9558381 126.274742,53.8214961 128.267418,54.6055 L127.017918,56.59 C124.192237,55.332327 122.068925,53.9195078 120.647918,52.3515 L120.647918,53.4295 L113.077418,53.4295 L113.077418,52.5475 C112.881417,52.743501 112.685419,52.9313324 112.489418,53.111 L112.489418,53.111 Z M144.329918,56.737 C142.647577,60.003683 139.103279,62.0616624 133.696918,62.911 L132.667918,60.8775 C137.388275,60.1914966 140.53241,58.6235122 142.100418,56.1735 L133.035418,56.1735 L133.035418,54.0175 L135.632418,54.0175 L135.632418,48.0885 L143.276418,48.0885 L143.276418,45.9815 L145.432418,45.9815 L145.432418,48.0885 L152.806918,48.0885 L152.806918,54.0175 L155.526418,54.0175 L155.526418,56.1735 L146.363418,56.1735 C148.437762,58.3621776 151.59823,59.9464951 155.844918,60.9265 L154.619918,63.009 C149.932228,61.7676605 146.502263,59.6770147 144.329918,56.737 L144.329918,56.737 Z M145.432418,51.9105 C145.416085,52.6455037 145.350752,53.34783 145.236418,54.0175 L150.650918,54.0175 L150.650918,50.0485 L145.432418,50.0485 L145.432418,51.9105 Z M143.006918,54.0175 C143.170252,53.3804968 143.260085,52.6781705 143.276418,51.9105 L143.276418,50.0485 L137.763918,50.0485 L137.763918,54.0175 L143.006918,54.0175 Z M140.458918,42.331 L147.955918,42.331 L147.955918,40.322 L150.111918,40.322 L150.111918,42.331 L155.526418,42.331 L155.526418,44.487 L150.111918,44.487 L150.111918,46.643 L147.955918,46.643 L147.955918,44.487 L140.458918,44.487 L140.458918,46.643 L138.302918,46.643 L138.302918,44.487 L132.937418,44.487 L132.937418,42.331 L138.302918,42.331 L138.302918,40.322 L140.458918,40.322 L140.458918,42.331 Z M172.446418,57.6435 C169.882072,59.570843 166.239775,61.3674917 161.519418,63.0335 L160.392418,60.9265 C164.867774,59.4564926 168.281407,57.855842 170.633418,56.1245 C170.519084,55.9774993 170.404752,55.8468339 170.290418,55.7325 C167.873073,53.2008207 165.994758,49.8361877 164.655418,45.6385 L160.931418,45.6385 L160.931418,43.4825 L170.878418,43.4825 C170.715084,42.5024951 170.470087,41.481672 170.143418,40.42 L172.372918,40.1995 C172.66692,41.3428391 172.903751,42.4371614 173.083418,43.4825 L183.030418,43.4825 L183.030418,45.6385 L179.183918,45.6385 C178.08958,50.3425235 176.439929,53.8296553 174.234918,56.1 C176.58693,57.7986752 179.673899,59.3911592 183.495918,60.8775 L182.099418,62.96 C178.081398,61.3429919 174.863764,59.570843 172.446418,57.6435 L172.446418,57.6435 Z M176.978918,45.6385 L166.835918,45.6385 C168.044591,49.2808515 169.784074,52.1799892 172.054418,54.336 C172.168752,54.4176671 172.283084,54.5238327 172.397418,54.6545 C174.455429,52.5474895 175.98258,49.5421862 176.978918,45.6385 L176.978918,45.6385 Z M22.9235,91.102 L22.9235,103.009 L20.8655,103.009 L20.8655,101.6615 L15.157,101.6615 L15.157,103.009 L13.099,103.009 L13.099,91.102 L16.7005,91.102 L16.7005,80.322 L18.8565,80.322 L18.8565,84.242 L23.879,84.242 L23.879,86.398 L18.8565,86.398 L18.8565,91.102 L22.9235,91.102 Z M15.157,93.16 L15.157,99.6035 L20.8655,99.6035 L20.8655,93.16 L15.157,93.16 Z M3.887,87.5005 C3.73999927,86.5694953 3.5031683,85.4833395 3.1765,84.242 L4.377,84.046 C4.76900196,85.5976744 5.01399951,86.6838302 5.112,87.3045 L3.887,87.5005 Z M7.7825,87.2065 C8.07650147,86.2918288 8.36233195,85.2138395 8.64,83.9725 L9.816,84.3155 C9.44033146,85.9161747 9.15450098,87.0104971 8.9585,87.5985 L7.7825,87.2065 Z M11.678,81.1795 L11.678,90.318 L7.366,90.318 L7.366,91.9105 L11.825,91.9105 L11.825,93.6745 L7.366,93.6745 L7.366,95.6345 C8.95034126,95.5364995 10.4774927,95.4221673 11.9475,95.2915 L12.119,96.9575 C8.68898285,97.4638359 4.93235375,97.7823327 0.849,97.913 L0.7755,95.953 C2.42517492,95.9039998 4.03399216,95.8386671 5.602,95.757 L5.602,93.6745 L1.192,93.6745 L1.192,91.9105 L5.602,91.9105 L5.602,90.318 L1.388,90.318 L1.388,81.1795 L11.678,81.1795 Z M5.602,88.554 L5.602,82.968 L2.956,82.968 L2.956,88.554 L5.602,88.554 Z M7.366,82.968 L7.366,88.554 L10.0855,88.554 L10.0855,82.968 L7.366,82.968 Z M0.555,102.9355 C1.06133587,101.530826 1.42066561,100.077174 1.633,98.5745 L3.2255,98.795 C3.04583244,100.330341 2.70283587,101.816659 2.1965,103.254 L0.555,102.9355 Z M6.8515,98.648 L8.3215,98.354 C8.92583636,99.6606732 9.40766487,100.93466 9.767,102.176 L8.101,102.519 C7.85599878,101.310327 7.43950294,100.020007 6.8515,98.648 L6.8515,98.648 Z M9.669,98.158 L11.09,97.6925 C11.7760034,98.9338395 12.3394978,100.150661 12.7805,101.343 L11.2125,101.784 C10.8694983,100.640661 10.3550034,99.4320064 9.669,98.158 L9.669,98.158 Z M4.0585,98.844 L5.5775,98.746 C5.98583538,100.183341 6.27166585,101.555327 6.435,102.862 L4.7445,102.9355 C4.67916634,101.69416 4.45050196,100.330341 4.0585,98.844 L4.0585,98.844 Z M47.7815,85.3445 L47.7815,90.563 L32.3465,90.563 L32.3465,85.3445 L47.7815,85.3445 Z M45.65,87.035 L34.478,87.035 L34.478,88.897 L45.65,88.897 L45.65,87.035 Z M29.382,92.1555 L50.6725,92.1555 L50.6725,96.59 L48.5165,96.59 L48.5165,94.0175 L31.5135,94.0175 L31.5135,96.59 L29.382,96.59 L29.382,92.1555 Z M49.178,98.06 L51.334,98.5745 L51.334,100.167 C51.334,101.833008 50.5500079,102.666 48.982,102.666 L44.4495,102.666 C42.8814922,102.666 42.0975,101.890174 42.0975,100.3385 L42.0975,95.267 L44.2535,95.267 L44.2535,99.775 C44.2535,100.39567 44.5638303,100.706 45.1845,100.706 L48.1735,100.706 C48.8431701,100.706 49.178,100.37117 49.178,99.7015 L49.178,98.06 Z M35.017,95.267 L37.173,95.267 L37.173,96.688 C37.1566666,100.232351 34.5188597,102.347497 29.2595,103.0335 L28.451,101 C32.8120219,100.509998 35.0006666,99.0726786 35.017,96.688 L35.017,95.267 Z M51.187,83.9725 L28.794,83.9725 L28.794,82.086 L39.0595,82.086 C38.9614996,81.5469973 38.8308342,80.9753364 38.6675,80.371 L40.897,80.2485 C41.0440008,80.8691698 41.158333,81.4816636 41.24,82.086 L51.187,82.086 L51.187,83.9725 Z M59.3115001,92.327 L76.1185001,92.327 L76.1185001,103.009 L73.8645001,103.009 L73.8645001,101.6615 L61.5655001,101.6615 L61.5655001,103.009 L59.3115001,103.009 L59.3115001,92.327 Z M73.8645001,94.385 L61.5655001,94.385 L61.5655001,99.6035 L73.8645001,99.6035 L73.8645001,94.385 Z M59.5320001,87.0105 C61.4920099,85.0341568 63.4356571,82.7230132 65.3630001,80.077 L67.3475001,81.057 C65.5018242,83.5233457 63.5010109,85.818156 61.3450001,87.9415 C65.199686,87.7944993 69.4463102,87.6556673 74.0850001,87.525 C73.1213286,86.3163273 72.0760057,85.1158393 70.9490001,83.9235 L72.6395001,82.8455 C75.1058458,85.3608459 77.2209913,87.8924873 78.9850001,90.4405 L77.0495001,91.6165 C76.6248313,90.94683 76.1756691,90.2935032 75.7020001,89.6565 C69.1523007,89.7871673 63.1661939,90.089331 57.7435001,90.563 L57.3025001,88.162 C58.1191708,88.0313327 58.8623301,87.6475032 59.5320001,87.0105 L59.5320001,87.0105 Z M94.9985001,83.5805 L99.8985001,83.5805 L99.8985001,84.977 L94.9985001,84.977 L94.9985001,83.5805 Z M95.0965001,85.8835 L99.8985001,85.8835 L99.8985001,87.2555 L95.0965001,87.2555 L95.0965001,85.8835 Z M99.8005001,88.211 L99.8005001,92.0085 L95.1455001,92.0085 L95.1455001,88.211 L99.8005001,88.211 Z M98.5020001,89.5095 L96.4440001,89.5095 L96.4440001,90.71 L98.5020001,90.71 L98.5020001,89.5095 Z M100.266,82.674 L94.7290001,82.674 L94.7290001,81.2775 L96.5420001,81.2775 C96.4276662,80.885498 96.2970009,80.4853354 96.1500001,80.077 L98.0610001,79.8075 C98.2243343,80.281169 98.3631662,80.7711641 98.4775001,81.2775 L100.266,81.2775 L100.266,82.674 Z M86.7910001,84.5115 C85.9906628,83.7111627 85.0106726,82.8536712 83.8510001,81.939 L85.2720001,80.42 C86.7583409,81.6286727 87.7546643,82.5024973 88.2610001,83.0415 L86.7910001,84.5115 Z M86.6440001,91.0775 C85.8763296,90.2281624 84.9290058,89.3053383 83.8020001,88.309 L85.3210001,86.8635 C86.7583407,88.1701732 87.7219977,89.1011639 88.2120001,89.6565 L86.6440001,91.0775 Z M84.1450001,102.6415 C84.9453375,99.9628199 85.6803301,96.8431845 86.3500001,93.2825 L88.3590001,93.797 C87.4279955,98.3866896 86.6930028,101.538991 86.1540001,103.254 L84.1450001,102.6415 Z M90.1230001,92.866 L105.117,92.866 L105.117,96.933 L92.7445001,96.933 L92.5485001,98.2315 L105.7785,98.2315 L105.7785,100.2895 C105.7785,102.069842 104.888342,102.96 103.108,102.96 L97.0075001,102.96 L96.4685001,101.196 L102.618,101.196 C103.28767,101.196 103.6225,100.86117 103.6225,100.1915 L103.6225,99.6035 L90.2210001,99.6035 L90.8090001,95.5365 L102.961,95.5365 L102.961,94.2625 L90.1230001,94.2625 L90.1230001,92.866 Z M106.685,81.792 C105.525328,83.523342 104.267674,85.1484924 102.912,86.6675 C103.58167,86.5858329 104.30033,86.5205002 105.068,86.4715 C104.920999,86.0304978 104.765834,85.5813356 104.6025,85.124 L105.901,84.9035 C106.374669,86.1285061 106.750332,87.3044944 107.028,88.4315 L105.558,88.652 C105.509,88.3906654 105.46,88.1375012 105.411,87.8925 C103.761325,88.0721676 102.24234,88.2763322 100.854,88.505 L100.2905,86.9615 C100.829503,86.8144993 101.294998,86.504169 101.687,86.0305 C102.013668,85.6058312 102.356665,85.1811688 102.716,84.7565 C102.013663,84.8381671 101.360336,84.9361661 100.756,85.0505 L100.1925,83.4825 C100.682503,83.3518327 101.041832,83.1068351 101.2705,82.7475 C101.809503,81.9471627 102.307665,81.0406717 102.765,80.028 L104.2595,80.371 C103.769498,81.3836717 103.230503,82.3391622 102.6425,83.2375 C103.034502,83.1884998 103.467331,83.1476668 103.941,83.115 C104.382002,82.4779968 104.831165,81.8083368 105.2885,81.106 L106.685,81.792 Z M100.8295,89.093 L102.226,89.142 C102.242334,90.203672 102.136168,91.2163285 101.9075,92.18 L100.2905,92.0085 C100.600835,91.1591624 100.7805,90.1873388 100.8295,89.093 L100.8295,89.093 Z M103.255,92.0085 C103.255,91.0284951 103.173334,90.0975044 103.01,89.2155 L104.3085,89.0685 C104.537168,89.9995047 104.676,90.9468285 104.725,91.9105 L103.255,92.0085 Z M105.6805,91.788 C105.566166,90.8406619 105.386501,89.9423376 105.1415,89.093 L106.391,88.7745 C106.717668,89.6891712 106.962666,90.6119953 107.126,91.543 L105.6805,91.788 Z M94.5575001,81.6695 C93.4631613,83.4171754 92.2545068,85.0668256 90.9315001,86.6185 C91.5848367,86.5368329 92.2626633,86.4551671 92.9650001,86.3735 C92.8506662,85.9651646 92.7118343,85.5486688 92.5485001,85.124 L93.8470001,84.9035 C94.3206692,86.0795059 94.6963321,87.2228278 94.9740001,88.3335 L93.5040001,88.554 C93.4549999,88.3253322 93.4060004,88.0803346 93.3570001,87.819 C91.7236586,88.0476678 90.2373402,88.2926654 88.8980001,88.554 L88.3100001,87.0105 C88.8490028,86.8471659 89.3063316,86.528669 89.6820001,86.055 C90.0086684,85.6139978 90.3434984,85.1730022 90.6865001,84.732 C89.9841633,84.8463339 89.3308365,84.9688327 88.7265001,85.0995 L88.1140001,83.556 C88.6040026,83.4089993 88.9796655,83.1313354 89.2410001,82.723 C89.7963363,81.9389961 90.3271643,81.0406717 90.8335001,80.028 L92.3035001,80.3955 C91.7971643,81.4081717 91.2336699,82.347329 90.6130001,83.213 C90.9886687,83.1639998 91.3969979,83.1231668 91.8380001,83.0905 C92.2626689,82.4371634 92.6954979,81.7593368 93.1365001,81.057 L94.5575001,81.6695 Z M88.5305001,89.0685 L90.0250001,89.142 C89.9759999,90.2363388 89.8126682,91.2653285 89.5350001,92.229 L87.9425001,91.9595 C88.2691684,91.1264958 88.4651665,90.1628388 88.5305001,89.0685 L88.5305001,89.0685 Z M90.8335001,91.984 C90.866167,91.0039951 90.8090009,90.0730044 90.6620001,89.191 L91.9605001,89.093 C92.1401677,90.0240047 92.2463333,90.9713285 92.2790001,91.935 L90.8335001,91.984 Z M93.2345001,91.5675 C93.1528331,90.701829 93.0058345,89.8770039 92.7935001,89.093 L94.0430001,88.799 C94.3370016,89.6483376 94.5493328,90.505829 94.6800001,91.3715 L93.2345001,91.5675 Z M123.2865,82.674 L119.0725,82.674 L119.0725,83.8255 L122.38,83.8255 L122.38,85.2955 C119.913655,88.3825154 116.581688,90.2771632 112.384,90.9795 L111.5755,89.3625 C113.143508,89.0358317 114.580827,88.5866695 115.8875,88.015 C115.26683,87.4759973 114.59717,86.9288361 113.8785,86.3735 C113.600832,86.7165017 113.298668,87.0349985 112.972,87.329 L111.551,86.2265 C112.84134,85.164828 113.829497,83.8990073 114.5155,82.429 L116.255,82.5515 C116.058999,82.9925022 115.854835,83.4171646 115.6425,83.8255 L117.2105,83.8255 L117.2105,80.322 L119.0725,80.322 L119.0725,81.2775 L123.2865,81.2775 L123.2865,82.674 Z M120.028,85.2955 L115.128,85.2955 C116.091672,86.0631705 116.875664,86.7001641 117.48,87.2065 C118.394671,86.6511639 119.243996,86.0141703 120.028,85.2955 L120.028,85.2955 Z M129.8035,98.55 L117.725,98.55 L117.725,101.049 L123.948,100.3385 L124.144,102.1025 C120.370981,102.527169 117.627009,102.878332 115.912,103.156 L115.079,101.3675 C115.454669,101.138832 115.650667,100.771336 115.667,100.265 L115.667,92.8905 C114.588995,93.2988354 113.486506,93.6744983 112.3595,94.0175 L111.6245,92.229 C116.279523,91.0203273 120.264817,89.2563449 123.5805,86.937 L125.075,87.525 L124.683,86.9125 C125.467004,86.6838322 126.21833,86.4061683 126.937,86.0795 C126.071329,85.5731641 125.140339,85.0750024 124.144,84.585 L125.271,83.311 C126.479673,83.8826695 127.647495,84.4706636 128.7745,85.075 C129.656505,84.4379968 130.45683,83.686671 131.1755,82.821 L124.242,82.821 L124.242,81.1305 L133.2825,81.1305 L133.2825,82.821 C132.482163,84.1113398 131.575672,85.1974956 130.563,86.0795 C131.85334,86.8145037 133.070161,87.5658295 134.2135,88.3335 L132.817,89.9015 C131.722661,89.0194956 130.416008,88.1293378 128.897,87.231 C127.916995,87.8190029 126.855339,88.2354988 125.712,88.4805 L125.124,87.623 C124.911666,87.7700007 124.707501,87.9251658 124.5115,88.0885 C127.598516,89.7708417 131.012148,91.1019951 134.7525,92.082 L133.944,93.9195 C132.571993,93.527498 131.249007,93.0783359 129.975,92.572 L129.975,98.452 C130.579337,98.0273312 131.159164,97.5945022 131.7145,97.1535 L133.0865,98.403 C132.204496,99.0073364 131.175506,99.6361634 129.9995,100.2895 C131.38784,100.599835 132.841493,100.967331 134.3605,101.392 L133.258,103.009 C129.354314,101.71866 125.524186,100.648838 121.7675,99.7995 L122.6985,98.7215 C124.299175,98.9828346 126.014158,99.3258312 127.8435,99.7505 C128.51317,99.358498 129.166497,98.9583354 129.8035,98.55 L129.8035,98.55 Z M125.859,91.5185 L120.322,91.5185 L120.322,90.7345 C119.211328,91.3225029 118.092506,91.8696641 116.9655,92.376 L129.4605,92.376 C128.219161,91.8696641 127.018673,91.3225029 125.859,90.7345 L125.859,91.5185 Z M120.8855,90.416 L125.271,90.416 C124.470663,89.9749978 123.719337,89.5421688 123.017,89.1175 C122.314663,89.5748356 121.60417,90.0076646 120.8855,90.416 L120.8855,90.416 Z M117.725,94.826 L127.917,94.826 L127.917,93.7725 L117.725,93.7725 L117.725,94.826 Z M127.917,96.1245 L117.725,96.1245 L117.725,97.178 L127.917,97.178 L127.917,96.1245 Z M140.5985,103.0825 L139.5205,101.196 C142.19918,100.47733 144.738988,99.6035051 147.14,98.5745 L148.4875,100.1425 C146.217156,101.269506 143.587515,102.249496 140.5985,103.0825 L140.5985,103.0825 Z M152.8975,100.0935 L154.4165,98.648 C156.703178,99.3013366 159.251153,100.183328 162.0605,101.294 L160.566,103.0825 C157.968987,101.922828 155.412846,100.926504 152.8975,100.0935 L152.8975,100.0935 Z M162.183,98.1825 L139.496,98.1825 L139.496,96.2225 L142.4605,96.2225 L142.4605,81.3265 L159.2675,81.3265 L159.2675,96.2225 L162.183,96.2225 L162.183,98.1825 Z M144.6165,92.719 L157.1115,92.719 L157.1115,90.661 L144.6165,90.661 L144.6165,92.719 Z M157.1115,94.385 L144.6165,94.385 L144.6165,96.2225 L157.1115,96.2225 L157.1115,94.385 Z M144.6165,88.995 L157.1115,88.995 L157.1115,86.937 L144.6165,86.937 L144.6165,88.995 Z M144.6165,85.2465 L157.1115,85.2465 L157.1115,83.1885 L144.6165,83.1885 L144.6165,85.2465 Z M176.653,84.1195 C174.807324,87.2881825 172.757512,90.2771526 170.5035,93.0865 C171.712173,92.8741656 173.018827,92.670001 174.4235,92.474 C174.211166,91.7716632 173.974335,91.0366705 173.713,90.269 L175.2565,89.7055 C176.024171,91.6165096 176.603998,93.3968251 176.996,95.0465 L175.183,95.6835 C175.117667,95.291498 175.044167,94.858669 174.9625,94.385 C172.349154,94.8260022 169.980844,95.2914976 167.8575,95.7815 L166.9265,93.7235 C167.661504,93.4621654 168.290331,92.99667 168.813,92.327 C169.531671,91.3633285 170.25033,90.3588386 170.969,89.3135 C169.776661,89.4605007 168.674172,89.6401656 167.6615,89.8525 L166.8775,87.7455 C167.579837,87.5658324 168.086165,87.2065027 168.3965,86.6675 C169.523506,84.7238236 170.568829,82.5270122 171.5325,80.077 L173.566,80.5915 C172.553329,82.9435118 171.40184,85.1893226 170.1115,87.329 C170.830171,87.2473329 171.59783,87.1820002 172.4145,87.133 C173.198504,85.9079939 173.97433,84.6176734 174.742,83.262 L176.653,84.1195 Z M166.7795,102.323 C167.269503,100.722325 167.588,98.7705115 167.735,96.4675 L169.597,96.6145 C169.564333,99.0481788 169.28667,101.146991 168.764,102.911 L166.7795,102.323 Z M171.3855,101.98 C171.3365,100.134324 171.132335,98.345842 170.773,96.6145 L172.537,96.394 C172.961669,98.2070091 173.223,100.036324 173.321,101.882 L171.3855,101.98 Z M188.119,81.3755 L188.119,100.0445 L189.981,100.0445 L189.981,102.2005 L175.624,102.2005 L175.624,100.2405 L174.9625,100.363 C174.733832,98.9093261 174.399002,97.5291732 173.958,96.2225 L175.477,95.806 C175.99967,97.1943403 176.399832,98.6071595 176.6775,100.0445 L177.633,100.0445 L177.633,81.3755 L188.119,81.3755 Z M185.963,95.9285 L179.789,95.9285 L179.789,100.0445 L185.963,100.0445 L185.963,95.9285 Z M185.963,89.9015 L179.789,89.9015 L179.789,93.8705 L185.963,93.8705 L185.963,89.9015 Z M185.963,83.5315 L179.789,83.5315 L179.789,87.8435 L185.963,87.8435 L185.963,83.5315 Z" id="印花樂×蔡英文-點亮台灣餐具組" sketch:type="MSShapeGroup"></path>
        </g>
    </g>
</svg>