<?xml version="1.0" encoding="UTF-8" standalone="no"?>
<svg width="220px" height="71px" viewBox="0 0 220 71" version="1.1" xmlns="http://www.w3.org/2000/svg" xmlns:xlink="http://www.w3.org/1999/xlink" xmlns:sketch="http://www.bohemiancoding.com/sketch/ns">
    <!-- Generator: Sketch 3.3.3 (12072) - http://www.bohemiancoding.com/sketch -->
    <title>index-smartcards-title</title>
    <desc>Created with Sketch.</desc>
    <defs></defs>
    <g id="Page-1" stroke="none" stroke-width="1" fill="none" fill-rule="evenodd" sketch:type="MSPage">
        <g id="index-smartcards-title" sketch:type="MSLayerGroup" transform="translate(0.000000, 2.000000)" fill="#1A1919">
            <g id="Page-1" sketch:type="MSShapeGroup">
                <g id="index-smartcards-title">
                    <g id="Page-1">
                        <g id="南北攜手一卡共遊-+-募款小物">
                            <path d="M0.4,41.325 L6.5,41.325 L6.5,40.1 L9.4,40.1 L9.4,41.325 L15,41.325 L15,40.1 L17.875,40.1 L17.875,41.325 L23.75,41.325 L23.75,43.625 L17.875,43.625 L17.875,44.5 L15,44.5 L15,43.625 L9.4,43.625 L9.4,44.5 L6.5,44.5 L6.5,43.625 L0.4,43.625 L0.4,41.325 L0.4,41.325 Z M10.825,52.95 L23.55,52.95 L23.55,55.05 L18.875,55.05 C20.141673,55.9000042 21.9333218,56.7166627 24.25,57.5 L22.825,60.05 C21.6416608,59.516664 20.6000045,58.983336 19.7,58.45 L19.7,60.55 C19.7,62.483343 18.733343,63.45 16.8,63.45 L12.775,63.45 L12.25,60.95 L15.725,60.95 C16.5083373,60.95 16.9,60.550004 16.9,59.75 L16.9,59.2 L11.5,59.2 C11.0166642,60.0333375 10.4833363,60.6999975 9.9,61.2 C8.68332725,62.2500053 6.708347,63.1499963 3.975,63.9 L2.85,61.25 C5.0833445,60.849998 6.67499525,60.2750037 7.625,59.525 C7.74166725,59.4249995 7.85833275,59.3166672 7.975,59.2 L5,59.2 L5,58.425 C3.866661,59.0750032 2.6500065,59.6249977 1.35,60.075 L0,57.55 C2.05001025,56.9166635 3.81665925,56.0833385 5.3,55.05 L0.6,55.05 L0.6,52.95 L7.65,52.95 C7.90000125,52.6333317 8.1416655,52.3250015 8.375,52.025 L2.9,52.025 L2.9,44.85 L21.3,44.85 L21.3,52.025 L11.425,52.025 C11.224999,52.3250015 11.025001,52.6333317 10.825,52.95 L10.825,52.95 L10.825,52.95 Z M9.975,55.925 L12.75,55.925 C12.6499995,56.325002 12.5416672,56.6833317 12.425,57 L17.45,57 C16.583329,56.3499967 15.9000025,55.7000032 15.4,55.05 L9.225,55.05 C8.57499675,55.7500035 7.8666705,56.399997 7.1,57 L9.525,57 C9.67500075,56.666665 9.82499925,56.3083352 9.975,55.925 L9.975,55.925 L9.975,55.925 Z M18.425,49.2 L5.775,49.2 L5.775,50.125 L18.425,50.125 L18.425,49.2 L18.425,49.2 Z M5.775,47.675 L18.425,47.675 L18.425,46.75 L5.775,46.75 L5.775,47.675 L5.775,47.675 Z M36.45,57.65 L38.375,56.15 C39.1916707,57.1166715 39.8833305,58.033329 40.45,58.9 L38.225,60.6 C37.8583315,59.7833292 37.2666707,58.8000057 36.45,57.65 L36.45,57.65 L36.45,57.65 Z M29.075,49.675 L39.525,49.675 L39.525,52.075 L29.075,52.075 L29.075,49.675 L29.075,49.675 Z M39.875,48.225 L28.7,48.225 L28.7,45.925 L33.05,45.925 L33.05,44.25 L28.2,44.25 L28.2,41.875 L33.05,41.875 L33.05,40.1 L35.925,40.1 L35.925,41.875 L40.7,41.875 L40.7,44.25 L35.925,44.25 L35.925,45.925 L39.925,45.925 L39.925,48.125 C41.1583395,45.658321 42.0249975,42.958348 42.525,40.025 L45.325,40.15 C45.1583325,41.150005 44.9583345,42.1249952 44.725,43.075 L51.5,43.075 L51.5,45.975 L50.2,50.975 L47.6,50.325 L48.775,45.975 L43.875,45.975 C43.3083305,47.5416745 42.6166707,49.091659 41.8,50.625 L39.6,48.8 C39.6833337,48.599999 39.7749995,48.4083342 39.875,48.225 L39.875,48.225 L39.875,48.225 Z M38.625,61.4 C42.0583505,58.799987 43.775,54.8250267 43.775,49.475 L43.775,47.725 L46.675,47.725 L46.675,49.475 C46.675,50.2416705 46.6333337,50.991663 46.55,51.725 C47.683339,55.7583535 49.483321,58.8583225 51.95,61.025 L50.125,63.75 C48.2083237,61.7666567 46.683339,59.3916805 45.55,56.625 C44.5166615,59.558348 42.8083452,61.9499907 40.425,63.8 L38.625,61.4 L38.625,61.4 Z M28.1,53.475 L40.6,53.475 L40.6,55.875 L36.025,55.875 L36.025,61.325 C36.025,62.8083407 35.3416735,63.55 33.975,63.55 L31.1,63.55 L30.6,60.775 L30.15,61.975 L27.8,61.175 L29.575,56.525 L31.9,57.475 L30.625,60.675 L32.275,60.675 C32.8583362,60.675 33.15,60.3833362 33.15,59.8 L33.15,55.875 L28.1,55.875 L28.1,53.475 L28.1,53.475 Z M69.5749999,40.1 L69.5749999,60.975 C69.5749999,62.6916752 68.7250084,63.55 67.0249999,63.55 L62.2249999,63.55 L61.6999999,60.275 L65.2749999,60.275 C65.9583367,60.275 66.2999999,59.9333367 66.2999999,59.25 L66.2999999,40.1 L69.5749999,40.1 L69.5749999,40.1 Z M76.6999999,57.725 C75.6499947,53.6916465 74.3000082,49.8916845 72.6499999,46.325 L75.2999999,45.375 C76.9833417,48.8916842 78.4416604,52.7249792 79.6749999,56.875 L76.6999999,57.725 L76.6999999,57.725 Z M55.8999999,57.15 C57.6000084,53.4666482 58.8833289,49.6333532 59.7499999,45.65 L62.5999999,46.25 C61.8333294,50.3333538 60.6333414,54.2499812 58.9999999,58 L55.8999999,57.15 L55.8999999,57.15 Z M99.3749999,46.65 C97.8916591,51.4333573 96.0166779,54.9333222 93.7499999,57.15 L92.3499999,55.45 C91.8333306,55.5500005 91.3166691,55.6583327 90.7999999,55.775 L90.7999999,63.55 L87.9999999,63.55 L87.9999999,56.325 C86.6833266,56.5416678 85.3166736,56.7416657 83.8999999,56.925 L83.4749999,53.85 C85.0250076,53.649999 86.5333259,53.450001 87.9999999,53.25 L87.9999999,48.125 L86.2749999,48.125 C86.0916656,49.325006 85.8666679,50.5083275 85.5999999,51.675 L83.5499999,50.6 C84.2000031,47.7666525 84.5499996,44.8916812 84.5999999,41.975 L86.6999999,42.375 C86.6833331,43.2750045 86.6583334,44.1666623 86.6249999,45.05 L87.9999999,45.05 L87.9999999,40.1 L90.7999999,40.1 L90.7999999,45.05 L92.4999999,45.05 L92.4999999,46.375 C93.5833386,44.7916587 94.4749964,42.66668 95.1749999,40 L98.1249999,40.475 C97.7416646,41.6250057 97.3583351,42.7249947 96.9749999,43.775 L106.55,43.775 L106.55,51.4625 C106.55,55.1375184 106.475001,57.7499923 106.325,59.3 C106.174999,60.8500077 105.775003,61.9458301 105.125,62.5875 C104.474997,63.2291699 103.383341,63.55 101.85,63.55 L99.2999999,63.55 L98.7749999,60.475 L101.85,60.475 C102.450003,60.475 102.879165,60.1791696 103.1375,59.5875 C103.395834,58.9958304 103.55,58.0833395 103.6,56.85 C103.65,55.6166605 103.675,53.600014 103.675,50.8 L103.675,46.65 L102.975,46.65 C102.041662,51.7000252 101.033339,55.2749895 99.9499999,57.375 C98.7833274,59.5583442 96.9000129,61.683323 94.2999999,63.75 L92.1749999,61.475 C94.3916776,60.0416595 96.1749931,58.1750115 97.5249999,55.875 C98.7416726,53.7583227 99.7166629,50.6833535 100.45,46.65 L99.3749999,46.65 L99.3749999,46.65 Z M92.9749999,53.725 C94.5750079,51.8916575 95.8416619,49.5333477 96.7749999,46.65 L95.6249999,46.65 C94.8416626,48.1000072 94.0000044,49.3166617 93.0999999,50.3 L91.6749999,48.125 L90.7999999,48.125 L90.7999999,52.775 C91.5000034,52.6583327 92.1916631,52.5416672 92.8749999,52.425 L92.9749999,53.725 L92.9749999,53.725 Z" id="募款小物"></path>
                            <path d="M17.3,18.025 L17.3,16.475 L11.725,16.475 L11.725,13.95 L16.875,13.95 L16.875,12.425 L14.05,12.425 C14.525,11.5 15.025,10.425 15.5,9.375 L13.825,9 C13.5,9.975 12.925,11.375 12.4,12.425 L7.925,12.425 L9.275,12 C9.05,11.2 8.425,9.975 7.825,9.1 L6.35,9.475 C6.925,10.35 7.5,11.6 7.725,12.425 L5.1,12.425 L5.1,13.95 L9.95,13.95 L9.95,16.475 L4.575,16.475 L4.575,18.025 L9.95,18.025 L9.95,22.425 L11.725,22.425 L11.725,18.025 L17.3,18.025 L17.3,18.025 Z M21.85,4.325 L21.85,2.575 L11.875,2.575 C11.975,1.8 12.075,1 12.15,0.275 L10.15,0.05 C10.125,0.8 10.05,1.675 9.975,2.575 L0,2.575 L0,4.325 L9.8,4.325 C9.7,5.275 9.6,6.2 9.475,6.975 L1.35,6.975 L1.35,22.9 L3.175,22.9 L3.175,8.7 L18.65,8.7 L18.65,20.75 C18.65,21.15 18.525,21.275 18.075,21.3 C17.65,21.325 16.125,21.325 14.55,21.25 C14.8,21.725 15.1,22.425 15.225,22.925 C17.225,22.925 18.65,22.925 19.45,22.625 C20.25,22.35 20.525,21.85 20.525,20.75 L20.525,6.975 L11.25,6.975 C11.375,6.175 11.525,5.25 11.65,4.325 L21.85,4.325 L21.85,4.325 Z M34.4166665,6.4 L28.0166665,6.4 L28.0166665,8.225 L34.4166665,8.225 L34.4166665,15.225 C31.7416665,16.25 29.0666665,17.3 27.2416665,17.875 L28.1166665,19.75 C29.9166665,19 32.1666665,18.05 34.4166665,17.075 L34.4166665,22.675 L36.2916665,22.675 L36.2916665,0.55 L34.4166665,0.55 L34.4166665,6.4 L34.4166665,6.4 Z M43.6416665,20.525 C42.5666665,20.525 42.3416665,20.275 42.3416665,18.975 L42.3416665,10.75 C44.9666665,9.275 47.8166665,7.6 49.8916665,5.95 L48.5166665,4.35 C47.0166665,5.775 44.6666665,7.425 42.3416665,8.825 L42.3416665,0.575 L40.4666665,0.575 L40.4666665,18.95 C40.4666665,21.6 41.1166665,22.35 43.4416665,22.35 L47.4416665,22.35 C49.8666665,22.35 50.3666665,20.725 50.5916665,16.2 C50.0666665,16.075 49.2666665,15.7 48.8166665,15.325 C48.6416665,19.45 48.4666665,20.525 47.3166665,20.525 L43.6416665,20.525 L43.6416665,20.525 Z M62.683333,10.6 C61.858333,10.875 61.033333,11.15 60.208333,11.4 L60.208333,6.8 L62.883333,6.8 L62.883333,5.1 L60.208333,5.1 L60.208333,0.1 L58.483333,0.1 L58.483333,5.1 L55.358333,5.1 L55.358333,6.8 L58.483333,6.8 L58.483333,11.925 C57.183333,12.325 55.983333,12.7 55.033333,12.95 L55.508333,14.75 L58.483333,13.775 L58.483333,20.75 C58.483333,21.125 58.358333,21.2 58.058333,21.2 C57.758333,21.225 56.783333,21.225 55.708333,21.2 C55.958333,21.7 56.183333,22.475 56.258333,22.9 C57.808333,22.925 58.758333,22.85 59.358333,22.575 C59.983333,22.275 60.208333,21.75 60.208333,20.75 L60.208333,13.225 L62.933333,12.325 L62.683333,10.6 L62.683333,10.6 Z M73.283333,17.175 C72.708333,17.175 72.633333,17.1 72.633333,16.7 L72.633333,16.05 L75.783333,16.05 L75.783333,17.1 C75.708333,17.15 75.583333,17.175 75.283333,17.175 L73.283333,17.175 L73.283333,17.175 Z M64.933333,16.05 L67.733333,16.05 C67.308333,17.025 66.258333,17.65 64.933333,18.025 L64.933333,16.05 L64.933333,16.05 Z M71.983333,19.25 L71.983333,20.6 L68.533333,20.6 L68.533333,19.25 L71.983333,19.25 L71.983333,19.25 Z M77.408333,14.775 L63.333333,14.775 L63.333333,22.9 L64.933333,22.9 L64.933333,18.2 C65.208333,18.45 65.533333,18.825 65.683333,19 C66.208333,18.825 66.683333,18.6 67.133333,18.35 L67.133333,22.375 L68.533333,22.375 L68.533333,21.6 L73.408333,21.6 L73.408333,18.275 L67.258333,18.275 C68.158333,17.725 68.833333,17.025 69.158333,16.05 L71.208333,16.05 L71.208333,16.7 C71.208333,17.95 71.608333,18.2 73.133333,18.2 L75.533333,18.2 L75.783333,18.2 L75.783333,21.325 C75.783333,21.525 75.708333,21.6 75.433333,21.6 C75.183333,21.625 74.458333,21.625 73.508333,21.6 C73.708333,22.025 73.883333,22.525 73.958333,22.925 C75.258333,22.925 76.158333,22.925 76.708333,22.7 C77.258333,22.475 77.408333,22.1 77.408333,21.325 L77.408333,14.775 L77.408333,14.775 Z M66.033333,11.525 L69.958333,11.525 L69.958333,12.65 L66.033333,12.65 L66.033333,11.525 L66.033333,11.525 Z M66.983333,4.475 L70.508333,4.475 C70.308333,4.975 70.033333,5.575 69.758333,6.125 L66.508333,6.125 C66.808333,5.625 67.108333,5.1 67.358333,4.575 L66.983333,4.475 L66.983333,4.475 Z M69.958333,8.325 L66.033333,8.325 L66.033333,7.3 L69.958333,7.3 L69.958333,8.325 L69.958333,8.325 Z M69.958333,10.45 L66.033333,10.45 L66.033333,9.375 L69.958333,9.375 L69.958333,10.45 L69.958333,10.45 Z M71.683333,12.65 L71.683333,11.525 L76.308333,11.525 L76.308333,10.45 L71.683333,10.45 L71.683333,9.375 L76.308333,9.375 L76.308333,8.325 L71.683333,8.325 L71.683333,7.3 L77.083333,7.3 L77.083333,6.125 L71.508333,6.125 C71.758333,5.675 72.008333,5.175 72.283333,4.65 L71.583333,4.475 L77.008333,4.475 L77.008333,0.775 L75.308333,0.775 L75.308333,3.15 L71.183333,3.15 L71.183333,0.075 L69.433333,0.075 L69.433333,3.15 L65.333333,3.15 L65.333333,0.775 L63.683333,0.775 L63.683333,4.475 L65.633333,4.475 C64.758333,6.15 63.383333,7.725 61.908333,8.8 C62.283333,9.05 62.908333,9.575 63.183333,9.85 C63.583333,9.525 63.983333,9.175 64.383333,8.775 L64.383333,13.825 L77.733333,13.825 L77.733333,12.65 L71.683333,12.65 L71.683333,12.65 Z M105.875,12.95 L95.6249995,12.95 L95.6249995,8.9 L104.475,8.9 L104.475,7.125 L95.6249995,7.125 L95.6249995,3.075 C98.5749995,2.725 101.3,2.25 103.425,1.6 L102.025,0.125 C98.2749995,1.3 91.0249995,1.95 85.1249995,2.225 C85.2999995,2.65 85.5249995,3.375 85.5999995,3.875 C88.1749995,3.75 90.9999995,3.575 93.7499995,3.275 L93.7499995,7.125 L85.1499995,7.125 L85.1499995,8.9 L93.7499995,8.9 L93.7499995,12.95 L83.4749995,12.95 L83.4749995,14.775 L93.7499995,14.775 L93.7499995,20.3 C93.7499995,20.825 93.5249995,21 92.9749995,21 C92.3999995,21.025 90.4499995,21.05 88.3499995,20.975 C88.6499995,21.475 88.9999995,22.3 89.1499995,22.825 C91.7749995,22.85 93.3749995,22.8 94.2999995,22.5 C95.2249995,22.2 95.6249995,21.65 95.6249995,20.325 L95.6249995,14.775 L105.875,14.775 L105.875,12.95 L105.875,12.95 Z M111.266666,10.25 L111.266666,12.275 L133.966666,12.275 L133.966666,10.25 L111.266666,10.25 L111.266666,10.25 Z M161.633333,11.05 L161.633333,9.225 L150.983333,9.225 L150.983333,5.45 L158.933333,5.45 L158.933333,3.675 L150.983333,3.675 L150.983333,0.075 L149.033333,0.075 L149.033333,9.225 L139.383333,9.225 L139.383333,11.05 L149.033333,11.05 L149.033333,22.9 L150.983333,22.9 L150.983333,14.75 C153.733333,15.55 157.083333,16.825 158.858333,17.7 L159.808333,16.025 C157.858333,15.1 154.058333,13.85 151.333333,13.125 L150.983333,13.675 L150.983333,11.05 L161.633333,11.05 L161.633333,11.05 Z M214.241666,13.375 L217.616666,13.375 L217.616666,11.825 L214.241666,11.825 L214.241666,10.85 C215.291666,9.875 216.466666,8.5 217.266666,7.225 L216.241666,6.475 L215.916666,6.575 L210.091666,6.575 L210.091666,8 L214.841666,8 C214.416666,8.6 213.916666,9.225 213.416666,9.75 L212.616666,9.75 L212.616666,11.825 L209.266666,11.825 L209.266666,13.375 L212.616666,13.375 L212.616666,17.6 C212.616666,17.825 212.541666,17.9 212.241666,17.9 C211.966666,17.925 211.016666,17.925 209.991666,17.9 C210.216666,18.35 210.466666,19 210.541666,19.475 C211.941666,19.475 212.891666,19.45 213.466666,19.175 C214.091666,18.925 214.241666,18.45 214.241666,17.625 L214.241666,13.375 L214.241666,13.375 Z M206.941666,9.225 C206.816666,15.1 206.641666,17.175 206.266666,17.675 C206.116666,17.925 205.941666,17.95 205.666666,17.95 C205.341666,17.95 204.666666,17.95 203.916666,17.875 C204.141666,18.3 204.316666,18.975 204.341666,19.425 C205.116666,19.45 205.891666,19.45 206.391666,19.4 C206.941666,19.35 207.316666,19.15 207.691666,18.7 C208.216666,17.95 208.391666,15.55 208.566666,8.45 C208.566666,8.225 208.591666,7.7 208.591666,7.7 L204.566666,7.7 L204.566666,5.05 L209.041666,5.05 C208.791666,5.425 208.541666,5.775 208.266666,6.075 C208.641666,6.3 209.341666,6.8 209.591666,7.075 C210.191666,6.325 210.766666,5.4 211.241666,4.375 L217.491666,4.375 L217.491666,2.8 L211.891666,2.8 C212.191666,2 212.441666,1.175 212.641666,0.35 L211.016666,0 C210.666666,1.725 210.041666,3.4 209.216666,4.75 L209.216666,3.475 L205.816666,3.475 L205.816666,0.1 L204.116666,0.1 L204.116666,3.475 L200.716666,3.475 L200.716666,5.05 L203.016666,5.05 L203.016666,8.75 C203.016666,11.65 202.741666,15.45 200.391666,18.25 C200.791666,18.5 201.291666,19 201.591666,19.325 C204.091666,16.425 204.541666,12.45 204.566666,9.225 L206.941666,9.225 L206.941666,9.225 Z M200.041666,4.95 C199.441666,3.7 197.941666,1.925 196.566666,0.675 L195.091666,1.6 C196.466666,2.9 197.916666,4.7 198.491666,5.975 L200.041666,4.95 L200.041666,4.95 Z M199.641666,9.875 L195.016666,9.875 L195.016666,11.625 L197.916666,11.625 L197.916666,18.1 C196.866666,19.125 195.716666,20.2 194.741666,20.95 L195.716666,22.675 C196.866666,21.575 197.916666,20.525 198.916666,19.425 C200.491666,21.4 202.791666,22.3 206.091666,22.425 C208.966666,22.525 214.441666,22.475 217.291666,22.35 C217.391666,21.825 217.666666,21 217.891666,20.6 C214.816666,20.8 208.916666,20.875 206.066666,20.75 C203.116666,20.625 200.866666,19.775 199.641666,17.9 L199.641666,9.875 L199.641666,9.875 Z" id="南北攜手一卡共遊"></path>
                            <path d="M168.15,22.05 C170.025,20.675 171,18.475 171.65,16.35 L170.05,15.775 C169.475,17.75 168.375,19.825 166.65,21.025 L168.15,22.05 Z M172.375,0 C170.95,2.75 168.65,5.45 166.3,7.2 C166.65,7.55 167.275,8.3 167.5,8.65 C168.35,7.975 169.175,7.15 170,6.25 L170,14.15 L171.725,14.15 L171.725,4.175 C172.575,3 173.35,1.775 174,0.55 L172.375,0 Z M176.55,20.875 C175.25,20.875 175.025,20.775 175.025,20.125 L175.025,15.8 L173.2,15.8 L173.2,20.125 C173.2,22.025 173.825,22.55 176.4,22.55 L181.1,22.55 C183.225,22.55 183.775,21.8 184,18.775 C183.5,18.65 182.725,18.375 182.325,18.075 C182.25,20.55 182.05,20.875 181,20.875 L176.55,20.875 Z M180.575,16.775 C179.55,15.8 177.5,14.6 175.8,13.925 L174.65,15.125 C176.375,15.875 178.4,17.125 179.35,18.125 L180.575,16.775 Z M183.225,16.325 C185.1,17.9 187.075,20.175 187.875,21.8 L189.5,20.825 C188.65,19.15 186.625,16.95 184.75,15.4 L183.225,16.325 Z M185.225,4.575 C184.675,6.35 183.85,7.825 182.725,9.075 C181.6,7.775 180.725,6.25 180.1,4.575 L185.225,4.575 Z M189.175,4.575 L189.175,2.95 L180.85,2.95 C181.275,2.15 181.625,1.325 181.95,0.5 L180.15,0.025 C179.175,2.8 177.45,5.4 175.5,7.15 L175.5,3.075 L173.775,3.075 L173.775,12.875 L175.5,12.875 L175.5,7.225 C175.925,7.55 176.575,8.125 176.875,8.45 C177.6,7.775 178.3,6.95 178.975,6.025 C179.625,7.6 180.475,9.025 181.5,10.25 C180.075,11.4 178.35,12.275 176.3,12.9 C176.675,13.25 177.275,14.025 177.45,14.425 C179.45,13.675 181.225,12.725 182.7,11.525 C184.3,13.025 186.225,14.2 188.525,14.925 C188.775,14.4 189.3,13.7 189.7,13.325 C187.45,12.725 185.525,11.7 183.975,10.3 C185.375,8.775 186.45,6.9 187.1,4.575 L189.175,4.575 Z" id="悠"></path>
                        </g>
                    </g>
                </g>
            </g>
        </g>
    </g>
</svg>