<?xml version="1.0" encoding="UTF-8" standalone="no"?>
<svg width="84px" height="63px" viewBox="0 0 84 63" version="1.1" xmlns="http://www.w3.org/2000/svg" xmlns:xlink="http://www.w3.org/1999/xlink" xmlns:sketch="http://www.bohemiancoding.com/sketch/ns">
    <!-- Generator: Sketch 3.3.2 (12043) - http://www.bohemiancoding.com/sketch -->
    <title>LIGHT UP TAIWAN only</title>
    <desc>Created with Sketch.</desc>
    <defs></defs>
    <g id="Page-1" stroke="none" stroke-width="1" fill="none" fill-rule="evenodd" sketch:type="MSPage">
        <g id="LIGHT-UP-TAIWAN-only" sketch:type="MSLayerGroup" transform="translate(-20.000000, -21.000000)" fill="#1A1918">
            <g id="Group" transform="translate(20.000000, 21.000000)" sketch:type="MSShapeGroup">
                <path d="M1.64,11.236 L1.64,0.85 L3.668,0.85 L3.668,9.427 L8.379,9.427 L8.379,11.236 L1.64,11.236" id="Fill-1"></path>
                <path d="M15.891,0.85 L17.919,0.85 L17.919,11.236 L15.891,11.236 L15.891,0.85 Z" id="Fill-2"></path>
                <path d="M32.607,10.142 C31.775,11.003 30.783,11.324 29.675,11.324 C28.537,11.324 27.604,10.915 26.874,10.186 C25.824,9.136 25.853,7.837 25.853,6.044 C25.853,4.249 25.824,2.951 26.874,1.9 C27.604,1.171 28.508,0.763 29.675,0.763 C32.082,0.763 33.307,2.338 33.584,4.088 L31.542,4.088 C31.309,3.111 30.71,2.571 29.675,2.571 C29.121,2.571 28.668,2.79 28.376,3.126 C27.983,3.564 27.881,4.045 27.881,6.044 C27.881,8.041 27.983,8.538 28.376,8.975 C28.668,9.311 29.121,9.515 29.675,9.515 C30.288,9.515 30.783,9.297 31.119,8.931 C31.455,8.552 31.586,8.086 31.586,7.545 L31.586,7.152 L29.675,7.152 L29.675,5.46 L33.599,5.46 L33.599,6.977 C33.599,8.479 33.336,9.384 32.607,10.142" id="Fill-3"></path>
                <path d="M47.062,11.236 L47.062,6.889 L43.546,6.889 L43.546,11.236 L41.519,11.236 L41.519,0.85 L43.546,0.85 L43.546,5.095 L47.062,5.095 L47.062,0.85 L49.089,0.85 L49.089,11.236 L47.062,11.236" id="Fill-4"></path>
                <path d="M61.342,2.659 L61.342,11.236 L59.314,11.236 L59.314,2.659 L56.601,2.659 L56.601,0.85 L64.054,0.85 L64.054,2.659 L61.342,2.659" id="Fill-5"></path>
                <path d="M5.302,36.978 C3.172,36.978 1.479,35.534 1.479,33.331 L1.479,26.504 L3.507,26.504 L3.507,33.258 C3.507,34.454 4.208,35.169 5.302,35.169 C6.396,35.169 7.11,34.454 7.11,33.258 L7.11,26.504 L9.124,26.504 L9.124,33.331 C9.124,35.534 7.431,36.978 5.302,36.978" id="Fill-6"></path>
                <path d="M21.273,32.981 L19.275,32.981 L19.275,36.89 L17.247,36.89 L17.247,26.504 L21.273,26.504 C23.418,26.504 24.701,27.978 24.701,29.742 C24.701,31.507 23.418,32.981 21.273,32.981 L21.273,32.981 Z M21.171,28.313 L19.275,28.313 L19.275,31.157 L21.171,31.157 C22.09,31.157 22.674,30.588 22.674,29.742 C22.674,28.897 22.09,28.313 21.171,28.313 L21.171,28.313 Z" id="Fill-7"></path>
                <path d="M5.608,53.968 L5.608,62.545 L3.58,62.545 L3.58,53.968 L0.867,53.968 L0.867,52.159 L8.321,52.159 L8.321,53.968 L5.608,53.968" id="Fill-8"></path>
                <path d="M20.864,62.545 L20.252,60.707 L16.561,60.707 L15.934,62.545 L13.819,62.545 L17.597,52.159 L19.187,52.159 L22.98,62.545 L20.864,62.545 L20.864,62.545 Z M18.443,55.222 L17.13,59 L19.712,59 L18.443,55.222 L18.443,55.222 Z" id="Fill-9"></path>
                <path d="M30.855,52.159 L32.883,52.159 L32.883,62.545 L30.855,62.545 L30.855,52.159 Z" id="Fill-10"></path>
                <path d="M50.532,62.545 L48.84,62.545 L46.929,56.244 L45.019,62.545 L43.326,62.545 L40.554,52.159 L42.67,52.159 L44.274,58.708 L46.171,52.159 L47.688,52.159 L49.584,58.708 L51.203,52.159 L53.319,52.159 L50.532,62.545" id="Fill-11"></path>
                <path d="M66.152,62.545 L65.54,60.707 L61.849,60.707 L61.222,62.545 L59.107,62.545 L62.885,52.159 L64.475,52.159 L68.268,62.545 L66.152,62.545 L66.152,62.545 Z M63.731,55.222 L62.418,59 L65,59 L63.731,55.222 L63.731,55.222 Z" id="Fill-12"></path>
                <path d="M81.555,62.545 L77.442,56.17 L77.442,62.545 L75.414,62.545 L75.414,52.159 L77.223,52.159 L81.336,58.519 L81.336,52.159 L83.364,52.159 L83.364,62.545 L81.555,62.545" id="Fill-13"></path>
            </g>
        </g>
    </g>
</svg>