<?xml version="1.0" encoding="UTF-8" standalone="no"?>
<svg width="140px" height="64px" viewBox="0 0 140 64" version="1.1" xmlns="http://www.w3.org/2000/svg" xmlns:xlink="http://www.w3.org/1999/xlink" xmlns:sketch="http://www.bohemiancoding.com/sketch/ns">
    <!-- Generator: Sketch 3.3.2 (12043) - http://www.bohemiancoding.com/sketch -->
    <title>logo</title>
    <desc>Created with Sketch.</desc>
    <defs></defs>
    <g id="Page-1" stroke="none" stroke-width="1" fill="none" fill-rule="evenodd" sketch:type="MSPage">
        <g id="logo" sketch:type="MSLayerGroup">
            <g id="Page-1" sketch:type="MSShapeGroup">
                <g id="Imported-Layers">
                    <g id="Group" transform="translate(0.075294, 7.131828)" fill="#323232">
                        <path d="M1.3064859,7.73860243 L1.3064859,0.269515593 L2.76525415,0.269515593 L2.76525415,6.43815948 L6.15293221,6.43815948 L6.15293221,7.73860243 L1.3064859,7.73860243" id="Fill-13"></path>
                        <path d="M11.5541214,0.269515593 L13.0128896,0.269515593 L13.0128896,7.73860243 L11.5541214,7.73860243 L11.5541214,0.269515593 L11.5541214,0.269515593 Z" id="Fill-14"></path>
                        <path d="M23.5759671,6.95181027 C22.977715,7.5706084 22.2646469,7.80144911 21.4669774,7.80144911 C20.6487619,7.80144911 19.9779944,7.50776172 19.4534663,6.98323361 C18.6980975,6.2278648 18.7186435,5.29362465 18.7186435,4.00405901 C18.7186435,2.71328478 18.6980975,1.78025322 19.4534663,1.02488441 C19.9779944,0.500356303 20.6282159,0.206668908 21.4669774,0.206668908 C23.198887,0.206668908 24.0799492,1.33911783 24.2793666,2.59846872 L22.809721,2.59846872 C22.641727,1.89506928 22.2114689,1.50711186 21.4669774,1.50711186 C21.0681427,1.50711186 20.7430319,1.66422857 20.5339458,1.90594659 C20.2499272,2.22018002 20.1774118,2.56704538 20.1774118,4.00405901 C20.1774118,5.44107264 20.2499272,5.79760672 20.5339458,6.11184015 C20.7430319,6.35355817 21.0681427,6.50100616 21.4669774,6.50100616 C21.9081128,6.50100616 22.2646469,6.34388945 22.5063649,6.08041681 C22.7468743,5.80848403 22.8411444,5.47249599 22.8411444,5.08453856 L22.8411444,4.80172848 L21.4669774,4.80172848 L21.4669774,3.58467824 L24.2890353,3.58467824 L24.2890353,4.67603511 C24.2890353,5.75530607 24.1004952,6.40673613 23.5759671,6.95181027" id="Fill-15"></path>
                        <path d="M33.9710506,7.73860243 L33.9710506,4.61197983 L31.4426801,4.61197983 L31.4426801,7.73860243 L29.9851204,7.73860243 L29.9851204,0.269515593 L31.4426801,0.269515593 L31.4426801,3.32241419 L33.9710506,3.32241419 L33.9710506,0.269515593 L35.4298189,0.269515593 L35.4298189,7.73860243 L33.9710506,7.73860243" id="Fill-16"></path>
                        <path d="M44.2404407,1.56995854 L44.2404407,7.73860243 L42.782881,7.73860243 L42.782881,1.56995854 L40.831008,1.56995854 L40.831008,0.269515593 L46.1923137,0.269515593 L46.1923137,1.56995854 L44.2404407,1.56995854" id="Fill-17"></path>
                        <path d="M3.93879514,28.3511066 C2.40751148,28.3511066 1.19046125,27.3117191 1.19046125,25.7284661 L1.19046125,20.8179645 L2.64802092,20.8179645 L2.64802092,25.6764967 C2.64802092,26.5358043 3.15200299,27.0506637 3.93879514,27.0506637 C4.7255873,27.0506637 5.2392381,26.5358043 5.2392381,25.6764967 L5.2392381,20.8179645 L6.68712904,20.8179645 L6.68712904,25.7284661 C6.68712904,27.3117191 5.4700788,28.3511066 3.93879514,28.3511066" id="Fill-18"></path>
                        <path d="M15.4252355,25.4770794 L13.9882218,25.4770794 L13.9882218,28.2882599 L12.5294536,28.2882599 L12.5294536,20.8179645 L15.4252355,20.8179645 C16.9673965,20.8179645 17.8895507,21.877898 17.8895507,23.1469176 C17.8895507,24.4171458 16.9673965,25.4770794 15.4252355,25.4770794 M15.3515115,22.1196161 L13.9882218,22.1196161 L13.9882218,24.1645505 L15.3515115,24.1645505 C16.0126103,24.1645505 16.431991,23.7560471 16.431991,23.1469176 C16.431991,22.5389968 16.0126103,22.1196161 15.3515115,22.1196161" id="Fill-19"></path>
                        <path d="M4.15996713,42.6692736 L4.15996713,48.8379175 L2.70240747,48.8379175 L2.70240747,42.6692736 L0.750534454,42.6692736 L0.750534454,41.3688306 L6.11063156,41.3688306 L6.11063156,42.6692736 L4.15996713,42.6692736" id="Fill-20"></path>
                        <path d="M15.1315481,48.8379175 L14.6916213,47.5157199 L12.0363488,47.5157199 L11.5855447,48.8379175 L10.0651384,48.8379175 L12.7820489,41.3688306 L13.9253752,41.3688306 L16.653163,48.8379175 L15.1315481,48.8379175 L15.1315481,48.8379175 Z M13.3899697,43.5720904 L12.4460609,46.2890009 L14.3024553,46.2890009 L13.3899697,43.5720904 L13.3899697,43.5720904 Z" id="Fill-21"></path>
                        <path d="M22.3166162,41.3688306 L23.7753845,41.3688306 L23.7753845,48.8379175 L22.3166162,48.8379175 L22.3166162,41.3688306 L22.3166162,41.3688306 Z" id="Fill-22"></path>
                        <path d="M36.4667892,48.8379175 L35.2509475,48.8379175 L33.8767806,44.3057046 L32.5026136,48.8379175 L31.2855634,48.8379175 L29.2913897,41.3688306 L30.8130047,41.3688306 L31.9672082,46.0787063 L33.3304979,41.3688306 L34.4218547,41.3688306 L35.7851444,46.0787063 L36.9502252,41.3688306 L38.4706316,41.3688306 L36.4667892,48.8379175" id="Fill-23"></path>
                        <path d="M47.7006342,48.8379175 L47.2607074,47.5157199 L44.6054349,47.5157199 L44.1546308,48.8379175 L42.6342245,48.8379175 L45.351135,41.3688306 L46.4944613,41.3688306 L49.2222491,48.8379175 L47.7006342,48.8379175 L47.7006342,48.8379175 Z M45.9590558,43.5720904 L45.015147,46.2890009 L46.8715414,46.2890009 L45.9590558,43.5720904 L45.9590558,43.5720904 Z" id="Fill-24"></path>
                        <path d="M58.7773625,48.8379175 L55.8199425,44.2537352 L55.8199425,48.8379175 L54.3611742,48.8379175 L54.3611742,41.3688306 L55.6616172,41.3688306 L58.6202458,45.9421356 L58.6202458,41.3688306 L60.079014,41.3688306 L60.079014,48.8379175 L58.7773625,48.8379175" id="Fill-25"></path>
                    </g>
                    <g id="Group" transform="translate(76.122353, 0.000000)">
                        <path d="M4.96371135,14.9313709 C7.70383694,10.5797617 11.5509773,6.8412607 16.3502208,4.19015901 C15.8100418,4.57743814 15.631491,5.31578329 15.9589179,5.91380262 C16.2013446,6.3569103 16.6585352,6.60738434 17.1303116,6.60738434 C17.3470873,6.60738434 17.5663778,6.55457355 17.7700766,6.44341941 L17.7695736,6.44341941 C21.8832827,4.19116493 26.5829401,2.9206882 31.5461485,2.92018524 C32.2115645,2.92018524 32.8815071,2.94332139 33.5559763,2.98959371 C34.1640549,3.03184234 34.7676067,3.09219753 35.3636142,3.17065927 C35.328407,3.16915039 35.2926969,3.16562967 35.2569867,3.16110303 C34.0322794,3.0021677 32.794998,2.92169412 31.552184,2.92169412 C27.0325863,2.92219708 22.4511245,3.98746617 18.1689238,6.2402236 C14.33989,8.25558396 11.1571597,11.0057688 8.69617685,14.2292388 C9.08245006,13.6478172 8.9552012,12.8586731 8.39138314,12.4301512 C8.15046534,12.2470738 7.86679595,12.1585529 7.5851384,12.1585529 C7.18277048,12.1585529 6.78492919,12.3396184 6.52238411,12.6851519 C5.97164301,13.4094142 5.45158247,14.1588244 4.96371135,14.9313709 M6.51785747,17.5281529 C6.73362728,17.1474122 6.95744444,16.7727071 7.18981191,16.4030315 C6.96901251,16.7551035 6.75626047,17.1117021 6.55155579,17.4723243 C6.54049067,17.4914368 6.52942555,17.5100463 6.51785747,17.5281529" id="Fill-26" fill="#9ED1A7"></path>
                        <path d="M55.9563018,47.0604499 C56.2626044,46.5720758 56.5543212,46.0751514 56.8304462,45.5706827 C56.8480498,45.5379903 56.8671622,45.5063038 56.8872806,45.4761262 C56.5930491,46.0147963 56.2827228,46.5434071 55.9563018,47.0604499 M31.6065037,63.1938949 L31.6034859,63.1938949 C30.2555534,63.1938949 28.9131534,63.1073858 27.5848363,62.9363795 C27.5365521,62.9303439 27.4892739,62.9212907 27.4435045,62.9102256 C28.0938317,62.9957287 28.7506973,63.0621194 29.4135985,63.1073858 C30.1494288,63.1581848 30.8807326,63.1833328 31.6070067,63.1833328 L31.6085155,63.1833328 C37.2074653,63.1833328 42.5116805,61.699601 47.1072252,59.0857184 C47.7479961,58.7215754 47.9718133,57.9067804 47.6076703,57.2665124 C47.3617229,56.8344698 46.9105679,56.5915402 46.4468388,56.5915402 C46.2516904,56.5915402 46.0540271,56.6347948 45.8684349,56.7243216 C49.2966097,54.7673046 52.1740433,52.2057298 54.4403807,49.2437989 C54.0832791,49.8206939 54.2165635,50.5856959 54.7673046,51.0056674 C55.0092283,51.1892478 55.2928977,51.2782717 55.5750582,51.2782717 C55.9769232,51.2782717 56.3747645,51.0972061 56.6368066,50.7526786 C57.1880507,50.0294223 57.7081112,49.2815209 58.1964853,48.5099804 C55.3472174,53.0371225 51.299899,56.9013635 46.2290572,59.5690629 C41.5595774,62.026022 36.5445641,63.1938949 31.6065037,63.1938949" id="Fill-27" fill="#A0CF89"></path>
                        <path d="M49.8835639,9.46570551 C49.8247176,9.43100127 49.7678831,9.3917704 49.7135634,9.34750993 C45.7054759,6.09285635 40.7975931,3.88586827 35.3636142,3.17065927 C35.3862474,3.17216815 35.4083777,3.17267111 35.4305079,3.17267111 C36.0908943,3.17267111 36.6642686,2.6822852 36.7517836,2.0098278 C36.8463401,1.27953001 36.3313091,0.610090371 35.6005084,0.515533908 C34.262635,0.342012739 32.9101758,0.253491795 31.552184,0.253491795 L31.5496692,0.253491795 C26.6111059,0.253491795 21.5960926,1.42186767 16.9266128,3.87932979 C16.7329732,3.98092769 16.5408426,4.08453743 16.3502208,4.19015901 C16.3939783,4.15847254 16.4402506,4.12930086 16.4885347,4.10314695 C20.9809726,1.64266707 26.1247436,0.252485875 31.5446396,0.252485875 L31.5461485,0.252485875 C32.2724226,0.252485875 33.0042293,0.27713091 33.7395567,0.327929861 C38.5644511,0.659883402 43.0664453,2.06666227 47.0197102,4.29628355 C46.8502127,4.22285141 46.6711589,4.18764421 46.49462,4.18764421 C46.030388,4.18764421 45.579233,4.43057385 45.3337885,4.86311937 C44.9696456,5.50338734 45.1939657,6.31818239 45.8347366,6.68182241 L45.8342336,6.68182241 C47.2540895,7.4885701 48.6095664,8.41804001 49.8835639,9.46570551" id="Fill-28" fill="#9ED1A7"></path>
                        <path d="M17.1303116,6.60738434 C16.6585352,6.60738434 16.2013446,6.3569103 15.9589179,5.91380262 C15.631491,5.31578329 15.8100418,4.57743814 16.3502208,4.19015901 C16.5408426,4.08453743 16.7329732,3.98092769 16.9266128,3.87932979 C21.5960926,1.42186767 26.6111059,0.253491795 31.5496692,0.253491795 L31.552184,0.253491795 C32.9101758,0.253491795 34.262635,0.342012739 35.6005084,0.515533908 C36.3313091,0.610090371 36.8463401,1.27953001 36.7517836,2.0098278 C36.6642686,2.6822852 36.0908943,3.17267111 35.4305079,3.17267111 C35.4083777,3.17267111 35.3862474,3.17216815 35.3636142,3.17065927 C34.7676067,3.09219753 34.1640549,3.03184234 33.5559763,2.98959371 C32.8815071,2.94332139 32.2115645,2.92018524 31.5461485,2.92018524 C26.5829401,2.9206882 21.8832827,4.19116493 17.7695736,6.44341941 L17.7700766,6.44341941 C17.5663778,6.55457355 17.3470873,6.60738434 17.1303116,6.60738434" id="Fill-29" fill="#65BC81"></path>
                        <path d="M27.4435045,62.9102256 C21.5201457,62.1311407 16.1525575,59.7229686 11.78083,56.1776042 C11.7466287,56.1499414 11.7144393,56.1207697 11.6837587,56.0905921 C13.1810704,57.3122818 14.7799799,58.3845923 16.4558423,59.3014882 C16.6590381,59.4126423 16.8788316,59.4654531 17.0951044,59.4654531 C17.5668808,59.4654531 18.0240713,59.2144761 18.266498,58.7713685 C18.5873864,58.1844142 18.4214097,57.4621638 17.9038639,57.0693521 C21.4074827,58.9619903 25.3612505,60.1535023 29.5971789,60.445722 C30.2716481,60.4924973 30.9415907,60.5151305 31.6070067,60.5151305 C36.733677,60.5151305 41.5801987,59.1591505 45.7884643,56.7665703 C45.8151212,56.7514815 45.8412751,56.7373986 45.8684349,56.7243216 C45.57873,56.8897954 45.2844985,57.0512456 44.9867462,57.2076661 C40.7050485,59.4604235 36.1235867,60.5256926 31.6034859,60.5261956 C30.3702283,60.5261956 29.1414972,60.4467279 27.9253401,60.2903074 C27.8674997,60.282763 27.8101623,60.2792423 27.7533278,60.2792423 C27.0924385,60.2792423 26.5185613,60.7701311 26.4320522,61.4430915 C26.3440342,62.1256081 26.7886507,62.753805 27.4435045,62.9102256" id="Fill-30" fill="#9ED1A7"></path>
                        <path d="M31.6085155,63.1833328 L31.6070067,63.1833328 C30.8807326,63.1833328 30.1494288,63.1581848 29.4135985,63.1073858 C28.7506973,63.0621194 28.0938317,62.9957287 27.4435045,62.9102256 C26.7886507,62.753805 26.3440342,62.1256081 26.4320522,61.4430915 C26.5185613,60.7701311 27.0924385,60.2792423 27.7533278,60.2792423 C27.8101623,60.2792423 27.8674997,60.282763 27.9253401,60.2903074 C29.1414972,60.4467279 30.3702283,60.5261956 31.6034859,60.5261956 C36.1235867,60.5256926 40.7050485,59.4604235 44.9867462,57.2076661 C45.2844985,57.0512456 45.57873,56.8897954 45.8684349,56.7243216 C46.0540271,56.6347948 46.2516904,56.5915402 46.4468388,56.5915402 C46.9105679,56.5915402 47.3617229,56.8344698 47.6076703,57.2665124 C47.9718133,57.9067804 47.7479961,58.7215754 47.1072252,59.0857184 C42.5116805,61.699601 37.2074653,63.1833328 31.6085155,63.1833328" id="Fill-31" fill="#66BB74"></path>
                        <path d="M60.1353957,35.5029341 C60.1374076,35.4647092 60.1404253,35.4264842 60.1454549,35.3877563 C60.3043903,34.162546 60.3848638,32.9252646 60.3848638,31.6829536 C60.3843609,27.1628529 59.3190918,22.5813911 57.0663344,18.2996934 C55.2214774,14.7940628 52.7599916,11.8296171 49.8835639,9.46570551 C50.0917893,9.58691885 50.3231508,9.64626812 50.5535065,9.64626812 C50.9417915,9.64626812 51.3260529,9.47777655 51.5896039,9.1533674 C52.0543389,8.58150199 51.9673268,7.74105598 51.3954614,7.27682398 C50.0299252,6.16729442 48.5668148,5.168919 47.0197102,4.29628355 C47.0649765,4.31539603 47.1087341,4.33752626 47.1524916,4.3621713 C51.7606103,6.97957467 55.7616564,10.7940226 58.6325515,15.6345088 C58.3745331,15.293502 57.9761888,15.1058979 57.5677854,15.1058979 C57.3374297,15.1058979 57.1045593,15.1657502 56.8918073,15.2909872 C56.2570719,15.6646864 56.0458287,16.4824992 56.4195279,17.1172346 C58.9438837,21.4044649 60.3848638,26.3857798 60.3853668,31.6869773 C60.3853668,32.0521262 60.3783254,32.4192869 60.3647454,32.7879565 C60.3300412,33.7053554 60.2530883,34.6111862 60.1353957,35.5029341" id="Fill-32" fill="#A0CF89"></path>
                        <path d="M50.5535065,9.64626812 C50.3231508,9.64626812 50.0917893,9.58691885 49.8835639,9.46570551 C48.6095664,8.41804001 47.2540895,7.4885701 45.8342336,6.68182241 L45.8347366,6.68182241 C45.1939657,6.31818239 44.9696456,5.50338734 45.3337885,4.86311937 C45.579233,4.43057385 46.030388,4.18764421 46.49462,4.18764421 C46.6711589,4.18764421 46.8502127,4.22285141 47.0197102,4.29628355 C48.5668148,5.168919 50.0299252,6.16729442 51.3954614,7.27682398 C51.9673268,7.74105598 52.0543389,8.58150199 51.5896039,9.1533674 C51.3260529,9.47777655 50.9417915,9.64626812 50.5535065,9.64626812" id="Fill-33" fill="#68BB63"></path>
                        <path d="M17.9038639,57.0693521 C16.3265816,56.217338 14.8403351,55.2229863 13.4607161,54.1049064 C13.2137628,53.9047284 12.9170164,53.8071541 12.6217789,53.8071541 C12.2334939,53.8071541 11.8482266,53.9761487 11.5846756,54.3010608 C11.1481064,54.8392279 11.1999113,55.6142891 11.6837587,56.0905921 C8.49801064,53.4928042 5.77045905,50.2230618 3.73799805,46.3593238 C1.28003297,41.6888381 0.11216006,36.6728189 0.11266302,31.7337526 C0.11266302,30.38582 0.199172124,29.04342 0.370681454,27.7151029 C0.376214013,27.6718483 0.383758411,27.6290967 0.39331465,27.5873511 C0.266568752,28.5535371 0.184083327,29.5338059 0.146864294,30.5261458 C0.131775496,30.9280108 0.124231098,31.3283669 0.124231098,31.7272141 C0.123728138,37.6943305 1.80059648,43.3068601 4.7197758,48.0854822 C4.97075279,48.4969034 5.40983679,48.7242413 5.85948295,48.7242413 C6.09637707,48.7242413 6.33628895,48.6608683 6.55306467,48.5285899 C7.15460472,48.1614291 7.36232716,47.3939123 7.04345058,46.7777864 C9.74132754,51.1817034 13.461722,54.6214462 17.7363783,56.9607128 C17.7957275,56.9934052 17.8515561,57.0296183 17.9038639,57.0693521" id="Fill-34" fill="#ECED88"></path>
                        <path d="M17.0951044,59.4654531 C16.8788316,59.4654531 16.6590381,59.4126423 16.4558423,59.3014882 C14.7799799,58.3845923 13.1810704,57.3122818 11.6837587,56.0905921 C11.1999113,55.6142891 11.1481064,54.8392279 11.5846756,54.3010608 C11.8482266,53.9761487 12.2334939,53.8071541 12.6217789,53.8071541 C12.9170164,53.8071541 13.2137628,53.9047284 13.4607161,54.1049064 C14.8403351,55.2229863 16.3265816,56.217338 17.9038639,57.0693521 C18.4214097,57.4621638 18.5873864,58.1844142 18.266498,58.7713685 C18.0240713,59.2144761 17.5668808,59.4654531 17.0951044,59.4654531" id="Fill-35" fill="#C3DA5A"></path>
                        <path d="M58.1964853,48.5099804 C58.538498,47.9662807 58.8634101,47.4130248 59.1707186,46.8507156 C59.5242994,46.2044121 59.2874053,45.3941437 58.6411018,45.0405629 C58.437906,44.9294088 58.2181126,44.876598 58.0018398,44.876598 C57.5647676,44.876598 57.1402695,45.0918648 56.8872806,45.4761262 C58.539001,42.4473016 59.6636193,39.0855176 60.1353957,35.5029341 C60.1057211,36.1874626 60.6046573,36.7925233 61.2967302,36.8820502 C61.3550735,36.8895946 61.4129139,36.8936183 61.4697484,36.8936183 C62.1306377,36.8936183 62.704012,36.4032324 62.791527,35.730775 C62.9650482,34.3929016 63.0530662,33.0404424 63.0530662,31.6829536 C63.0535691,26.7433843 61.8856962,21.7273652 59.4277311,17.0568794 C59.1732334,16.573535 58.9081735,16.0992438 58.6325515,15.6345088 C58.6632321,15.6752486 58.6919008,15.7185031 58.7185577,15.7632665 C61.4762868,20.4458233 63.0535691,25.8999206 63.0530662,31.6869773 C63.0530662,32.0858245 63.0455218,32.4861806 63.030433,32.8880456 C62.8151661,38.6353685 61.0668775,43.972779 58.1964853,48.5099804 M54.4403807,49.2437989 C54.4630139,49.2070828 54.4876589,49.1708697 54.5148187,49.1356625 C55.0243171,48.4667258 55.5051468,47.77415 55.9563018,47.0604499 C55.4860343,47.8093572 54.9805596,48.5376432 54.4403807,49.2437989" id="Fill-36" fill="#A0CF89"></path>
                        <path d="M55.5750582,51.2782717 C55.2928977,51.2782717 55.0092283,51.1892478 54.7673046,51.0056674 C54.2165635,50.5856959 54.0832791,49.8206939 54.4403807,49.2437989 C54.9805596,48.5376432 55.4860343,47.8093572 55.9563018,47.0604499 C56.2827228,46.5434071 56.5930491,46.0147963 56.8872806,45.4761262 C57.1402695,45.0918648 57.5647676,44.876598 58.0018398,44.876598 C58.2181126,44.876598 58.437906,44.9294088 58.6411018,45.0405629 C59.2874053,45.3941437 59.5242994,46.2044121 59.1707186,46.8507156 C58.8634101,47.4130248 58.538498,47.9662807 58.1964853,48.5099804 C57.7081112,49.2815209 57.1880507,50.0294223 56.6368066,50.7526786 C56.3747645,51.0972061 55.9769232,51.2782717 55.5750582,51.2782717" id="Fill-37" fill="#69BA57"></path>
                        <path d="M61.4697484,36.8936183 C61.4129139,36.8936183 61.3550735,36.8895946 61.2967302,36.8820502 C60.6046573,36.7925233 60.1057211,36.1874626 60.1353957,35.5029341 C60.2530883,34.6111862 60.3300412,33.7053554 60.3647454,32.7879565 C60.3783254,32.4192869 60.3853668,32.0521262 60.3853668,31.6869773 C60.3848638,26.3857798 58.9438837,21.4044649 56.4195279,17.1172346 C56.0458287,16.4824992 56.2570719,15.6646864 56.8918073,15.2909872 C57.1045593,15.1657502 57.3374297,15.1058979 57.5677854,15.1058979 C57.9761888,15.1058979 58.3745331,15.293502 58.6325515,15.6345088 C58.9081735,16.0992438 59.1732334,16.573535 59.4277311,17.0568794 C61.8856962,21.7273652 63.0535691,26.7433843 63.0530662,31.6829536 C63.0530662,33.0404424 62.9650482,34.3929016 62.791527,35.730775 C62.704012,36.4032324 62.1306377,36.8936183 61.4697484,36.8936183" id="Fill-38" fill="#69BA57"></path>
                        <path d="M7.18981191,16.4030315 C7.65706167,15.6581479 8.15951862,14.9323768 8.69617685,14.2292388 C8.68058509,14.2533809 8.66398741,14.276517 8.64638381,14.2996532 C8.13084991,14.9776432 7.64499063,15.6797752 7.18981191,16.4030315 M7.04345058,46.7777864 C6.71300592,46.2386134 6.39765006,45.6848546 6.09889187,45.1170128 C3.84663739,40.8353151 2.78086534,36.2538533 2.78036238,31.7337526 C2.78036238,30.5004949 2.85983005,29.2717638 3.01675354,28.0561097 C3.11080704,27.325309 2.59477018,26.6563723 1.86396943,26.5623188 C1.80612904,26.5547744 1.74879161,26.5512537 1.69195714,26.5512537 C1.07331645,26.5512537 0.531628625,26.9807814 0.39331465,27.5873511 C0.997872462,22.9701791 2.59778794,18.6784222 4.96371135,14.9313709 C4.71021956,15.3337388 4.466284,15.7416393 4.23190468,16.1545694 C3.86776171,16.7948373 4.09208183,17.6091294 4.73234979,17.9732724 C4.9405752,18.091468 5.16690716,18.1477995 5.39022136,18.1477995 C5.83433496,18.1477995 6.26587456,17.9254912 6.51785747,17.5281529 C4.31891675,21.4084886 2.99210851,25.856666 2.81255182,30.6262348 C2.7989719,30.9944015 2.79193046,31.3615622 2.79193046,31.7272141 C2.79243342,37.1928794 4.32444931,42.3190468 6.99667531,46.6947981 C7.01327299,46.7219579 7.02886474,46.7496207 7.04345058,46.7777864" id="Fill-39" fill="#A0CF89"></path>
                        <path d="M5.39022136,18.1477995 C5.16690716,18.1477995 4.9405752,18.091468 4.73234979,17.9732724 C4.09208183,17.6091294 3.86776171,16.7948373 4.23190468,16.1545694 C4.466284,15.7416393 4.71021956,15.3337388 4.96371135,14.9313709 C5.45158247,14.1588244 5.97164301,13.4094142 6.52238411,12.6851519 C6.78492919,12.3396184 7.18277048,12.1585529 7.5851384,12.1585529 C7.86679595,12.1585529 8.15046534,12.2470738 8.39138314,12.4301512 C8.9552012,12.8586731 9.08245006,13.6478172 8.69617685,14.2292388 C8.15951862,14.9323768 7.65706167,15.6581479 7.18981191,16.4030315 C6.95744444,16.7727071 6.73362728,17.1474122 6.51785747,17.5281529 C6.26587456,17.9254912 5.83433496,18.1477995 5.39022136,18.1477995" id="Fill-40" fill="#68BB63"></path>
                        <path d="M5.85948295,48.7242413 C5.40983679,48.7242413 4.97075279,48.4969034 4.7197758,48.0854822 C1.80059648,43.3068601 0.123728138,37.6943305 0.124231098,31.7272141 C0.124231098,31.3283669 0.131775496,30.9280108 0.146864294,30.5261458 C0.184083327,29.5338059 0.266568752,28.5535371 0.39331465,27.5873511 C0.531628625,26.9807814 1.07331645,26.5512537 1.69195714,26.5512537 C1.74879161,26.5512537 1.80612904,26.5547744 1.86396943,26.5623188 C2.59477018,26.6563723 3.11080704,27.325309 3.01675354,28.0561097 C2.85983005,29.2717638 2.78036238,30.5004949 2.78036238,31.7337526 C2.78086534,36.2538533 3.84663739,40.8353151 6.09889187,45.1170128 C6.39765006,45.6848546 6.71300592,46.2386134 7.04345058,46.7777864 C7.36232716,47.3939123 7.15460472,48.1614291 6.55306467,48.5285899 C6.33628895,48.6608683 6.09637707,48.7242413 5.85948295,48.7242413" id="Fill-41" fill="#94C752"></path>
                    </g>
                </g>
            </g>
        </g>
    </g>
</svg>