<?xml version="1.0" encoding="UTF-8" standalone="no"?>
<svg width="280px" height="62px" viewBox="0 0 280 62" version="1.1" xmlns="http://www.w3.org/2000/svg" xmlns:xlink="http://www.w3.org/1999/xlink" xmlns:sketch="http://www.bohemiancoding.com/sketch/ns">
    <!-- Generator: Sketch 3.4.3 (16618) - http://www.bohemiancoding.com/sketch -->
    <title>office-donate</title>
    <desc>Created with Sketch.</desc>
    <defs></defs>
    <g id="Page-1" stroke="none" stroke-width="1" fill="none" fill-rule="evenodd" sketch:type="MSPage">
        <g id="Group-+-Group-+-蔡英文-陳建仁競選" sketch:type="MSLayerGroup" transform="translate(0.000000, 1.000000)" fill="#1A1918">
            <g id="Group" sketch:type="MSShapeGroup">
                <path d="M0.12966443,23.4421875 L0.12966443,21.3984375 L8.16134228,13.6715625 C9.50590604,12.3628125 10.3374497,10.9584375 10.3374497,9.39375 C10.3374497,7.254375 8.73825503,5.5940625 6.43436242,5.5940625 C4.28926174,5.5940625 2.49744966,7.0940625 2.49744966,9.4575 L0.193557047,9.4575 C0.193557047,6.0403125 2.84979866,3.5503125 6.43436242,3.5503125 C10.1777181,3.5503125 12.6422819,6.105 12.6422819,9.3609375 C12.6422819,11.6596875 11.393557,13.3528125 9.69758389,15.013125 L3.16926174,21.3984375 L13.2173154,21.3984375 L13.2173154,23.4421875 L0.12966443,23.4421875" id="Fill-1"></path>
                <path d="M27.9990604,21.845625 C26.9110067,22.963125 25.4067114,23.6334375 23.4871141,23.6334375 C21.5665772,23.6334375 20.0622819,22.963125 18.9742282,21.845625 C17.374094,20.2171875 17.0546309,18.0140625 17.0546309,15.5878125 C17.0546309,13.160625 17.374094,10.925625 18.9742282,9.3290625 C20.0622819,8.2125 21.5665772,7.54125 23.4871141,7.54125 C25.4067114,7.54125 26.9110067,8.2125 27.9990604,9.3290625 C29.598255,10.925625 29.9186577,13.160625 29.9186577,15.5878125 C29.9186577,18.0140625 29.598255,20.2171875 27.9990604,21.845625 L27.9990604,21.845625 L27.9990604,21.845625 L27.9990604,21.845625 Z M26.3660403,10.734375 C25.5983893,9.9684375 24.6061745,9.585 23.4871141,9.585 C22.3671141,9.585 21.4068456,9.9684375 20.638255,10.734375 C19.4863087,11.88375 19.3585235,13.8 19.3585235,15.5878125 C19.3585235,17.34375 19.4543624,19.26 20.638255,20.44125 C21.4068456,21.2071875 22.3671141,21.5896875 23.4871141,21.5896875 C24.6061745,21.5896875 25.5983893,21.2071875 26.3660403,20.44125 C27.5189262,19.26 27.6147651,17.34375 27.6147651,15.5878125 C27.6147651,13.8 27.5189262,11.88375 26.3660403,10.734375 L26.3660403,10.734375 L26.3660403,10.734375 L26.3660403,10.734375 Z" id="Fill-2"></path>
                <path d="M37.8516779,23.4421875 L37.8516779,6.9346875 L33.595302,10.670625 L33.595302,8.0521875 L37.8516779,4.3809375 L40.1555705,4.3809375 L40.1555705,23.4421875 L37.8516779,23.4421875" id="Fill-3"></path>
                <path d="M52.3449664,23.6334375 C48.1524832,23.6334375 45.5291275,20.82375 45.5291275,16.6096875 C45.5291275,14.7571875 46.0402685,12.905625 47.1931544,10.89375 L53.2732886,0.1978125 L55.7049664,0.1978125 L49.9452349,10.0640625 C50.873557,9.585 51.6412081,9.4575 52.7292617,9.4575 C56.6013423,9.4575 59.1288591,12.3628125 59.1288591,16.4184375 C59.1288591,20.56875 56.5055034,23.6334375 52.3449664,23.6334375 L52.3449664,23.6334375 L52.3449664,23.6334375 L52.3449664,23.6334375 Z M52.3130201,11.3728125 C49.5928859,11.3728125 47.8330201,13.415625 47.8330201,16.545 C47.8330201,19.6425 49.5928859,21.68625 52.3130201,21.68625 C55.0331544,21.68625 56.8249664,19.6425 56.8249664,16.545 C56.8249664,13.7353125 55.2567785,11.3728125 52.3130201,11.3728125 L52.3130201,11.3728125 L52.3130201,11.3728125 L52.3130201,11.3728125 Z" id="Fill-4"></path>
            </g>
            <g id="Group" transform="translate(178.523490, 36.562500)" sketch:type="MSShapeGroup">
                <path d="M0.702818792,16.7559375 C2.24375839,13.3228125 3.40697987,9.748125 4.19248322,6.0346875 L6.77543624,6.594375 C6.08013423,10.4015625 4.99302013,14.0521875 3.51221477,17.5490625 L0.702818792,16.7559375 L0.702818792,16.7559375 L0.702818792,16.7559375 Z M13.097047,0.8615625 L13.097047,20.3221875 C13.097047,21.9225 12.3265772,22.7221875 10.7856376,22.7221875 L6.43530201,22.7221875 L5.95986577,19.66875 L9.19959732,19.66875 C9.81879195,19.66875 10.1288591,19.351875 10.1288591,18.714375 L10.1288591,0.8615625 L13.097047,0.8615625 L13.097047,0.8615625 L13.097047,0.8615625 Z M19.5539597,17.2921875 C18.6021477,13.5328125 17.3787919,9.9890625 15.8838926,6.66375 L18.2855034,5.77875 C19.8104698,9.0571875 21.1324832,12.6309375 22.250604,16.5 L19.5539597,17.2921875 L19.5539597,17.2921875 L19.5539597,17.2921875 Z" id="Fill-10"></path>
                <path d="M36.2308725,15.6609375 L36.2308725,22.44375 L33.8057718,22.44375 L33.8057718,21.766875 L30.6562416,21.766875 L30.6562416,22.7221875 L28.2320805,22.7221875 L28.2320805,15.4978125 C27.9746309,15.6065625 27.734094,15.7078125 27.5067114,15.7996875 L26.5783893,13.516875 C28.0281879,13.035 29.3051007,12.47625 30.4072483,11.83875 C29.8932886,11.544375 29.3877852,11.2715625 28.8897987,11.023125 C28.6022819,11.349375 28.2922148,11.6596875 27.9605369,11.955 L26.6685906,9.9975 C28.1193289,8.956875 29.2365101,7.395 30.0220134,5.3128125 L32.2648322,5.54625 C32.1295302,5.8565625 31.9932886,6.1903125 31.857047,6.5475 L36.4112752,6.5475 L36.4112752,8.6925 C35.9884564,9.733125 35.3692617,10.6884375 34.5536913,11.5584375 C35.6708725,12.18 36.7589262,12.84 37.8169128,13.539375 L36.2308725,15.6609375 L36.2308725,15.6609375 L36.2308725,15.6609375 Z M34.9614765,4.730625 L29.2515436,4.730625 L29.2515436,6.43125 L26.9861745,6.43125 L26.9861745,2.51625 L30.8601342,2.51625 C30.7699329,2.0034375 30.6487248,1.483125 30.4974497,0.9553125 L33.102953,0.744375 C33.2391946,1.3359375 33.3604027,1.925625 33.4665772,2.51625 L37.2042953,2.51625 L37.2042953,5.9653125 L34.9614765,5.9653125 L34.9614765,4.730625 L34.9614765,4.730625 L34.9614765,4.730625 Z M29.5230872,14.9840625 L35.3467114,14.9840625 C34.5161074,14.3634375 33.6319463,13.7653125 32.6961074,13.1896875 C31.7743624,13.8271875 30.7163758,14.42625 29.5230872,14.9840625 L29.5230872,14.9840625 L29.5230872,14.9840625 L29.5230872,14.9840625 Z M33.8508725,8.6925 L30.7248322,8.6925 C30.573557,8.91 30.4297987,9.135 30.2944966,9.3675 C31.0038926,9.67875 31.6991946,10.0209375 32.3785235,10.3940625 C32.9526174,9.8653125 33.4430872,9.298125 33.8508725,8.6925 L33.8508725,8.6925 L33.8508725,8.6925 L33.8508725,8.6925 Z M30.6562416,19.53 L33.8057718,19.53 L33.8057718,17.221875 L30.6562416,17.221875 L30.6562416,19.53 L30.6562416,19.53 L30.6562416,19.53 Z M37.6581208,1.4671875 L48.1026846,1.4671875 L48.1026846,3.961875 L43.7297987,3.961875 L43.5033557,5.4759375 L47.4008054,5.4759375 L47.4008054,18.4340625 L44.6816107,18.4340625 C46.0562416,19.258125 47.2946309,20.128125 48.3977181,21.0440625 L46.6979866,22.9321875 C45.6710067,21.969375 44.4326174,21.0365625 42.9828188,20.135625 L44.4100671,18.4340625 L40.3763758,18.4340625 L42.2574497,19.74 C41.1242953,20.7965625 39.7571812,21.8371875 38.1561074,22.8628125 L36.4112752,21.114375 C37.785906,20.29125 39.0543624,19.3978125 40.2185235,18.4340625 L38.0433557,18.4340625 L38.0433557,5.4759375 L40.8518121,5.4759375 L41.101745,3.961875 L37.6581208,3.961875 L37.6581208,1.4671875 L37.6581208,1.4671875 L37.6581208,1.4671875 Z M40.4900671,9.1115625 L44.9531544,9.1115625 L44.9531544,7.783125 L40.4900671,7.783125 L40.4900671,9.1115625 L40.4900671,9.1115625 L40.4900671,9.1115625 Z M40.4900671,12.654375 L44.9531544,12.654375 L44.9531544,11.255625 L40.4900671,11.255625 L40.4900671,12.654375 L40.4900671,12.654375 L40.4900671,12.654375 Z M40.4900671,16.126875 L44.9531544,16.126875 L44.9531544,14.7984375 L40.4900671,14.7984375 L40.4900671,16.126875 L40.4900671,16.126875 L40.4900671,16.126875 Z" id="Fill-11"></path>
                <path d="M62.3544966,12.84 L73.8871141,12.84 L73.8871141,14.7984375 L69.6504698,14.7984375 C70.7986577,15.590625 72.4222819,16.351875 74.5222819,17.083125 L73.2303356,19.4596875 C72.1573154,18.9628125 71.2139597,18.465 70.3983893,17.968125 L70.3983893,19.925625 C70.3983893,21.7284375 69.521745,22.629375 67.769396,22.629375 L64.1218792,22.629375 L63.646443,20.29875 L66.7959732,20.29875 C67.5053691,20.29875 67.8605369,19.925625 67.8605369,19.1803125 L67.8605369,18.6675 L62.9661745,18.6675 C62.5283221,19.44375 62.0453691,20.0653125 61.5163758,20.53125 C60.4132886,21.51 58.6233557,22.35 56.1465772,23.0484375 L55.1271141,20.578125 C57.1510067,20.2059375 58.5932886,19.66875 59.4539597,18.9703125 C59.5601342,18.8775 59.6653691,18.77625 59.7715436,18.6675 L57.0758389,18.6675 L57.0758389,17.9446875 C56.0479195,18.5503125 54.9457718,19.063125 53.7675168,19.483125 L52.5441611,17.13 C54.401745,16.539375 56.0028188,15.76125 57.3473826,14.7984375 L53.0872483,14.7984375 L53.0872483,12.84 L59.4774497,12.84 C59.7038926,12.545625 59.9228188,12.2578125 60.1342282,11.9784375 L55.1722148,11.9784375 L55.1722148,5.2903125 L71.8481879,5.2903125 L71.8481879,11.9784375 L62.8985235,11.9784375 C62.7171812,12.2578125 62.5358389,12.545625 62.3544966,12.84 L62.3544966,12.84 L62.3544966,12.84 L62.3544966,12.84 Z M52.9068456,2.0034375 L58.4344966,2.0034375 L58.4344966,0.8615625 L61.0634899,0.8615625 L61.0634899,2.0034375 L66.138255,2.0034375 L66.138255,0.8615625 L68.744698,0.8615625 L68.744698,2.0034375 L74.0684564,2.0034375 L74.0684564,4.1475 L68.744698,4.1475 L68.744698,4.963125 L66.138255,4.963125 L66.138255,4.1475 L61.0634899,4.1475 L61.0634899,4.963125 L58.4344966,4.963125 L58.4344966,4.1475 L52.9068456,4.1475 L52.9068456,2.0034375 L52.9068456,2.0034375 L52.9068456,2.0034375 Z M57.7777181,7.9228125 L69.2426846,7.9228125 L69.2426846,7.0603125 L57.7777181,7.0603125 L57.7777181,7.9228125 L57.7777181,7.9228125 L57.7777181,7.9228125 Z M57.7777181,10.2075 L69.2426846,10.2075 L69.2426846,9.345 L57.7777181,9.345 L57.7777181,10.2075 L57.7777181,10.2075 L57.7777181,10.2075 Z M61.5840268,15.6140625 L64.0993289,15.6140625 C64.0081879,15.9871875 63.9104698,16.3209375 63.8052349,16.61625 L68.3585235,16.61625 C67.5730201,16.010625 66.9538255,15.405 66.5009396,14.7984375 L60.904698,14.7984375 C60.3155705,15.4509375 59.6728859,16.0565625 58.9785235,16.61625 L61.1762416,16.61625 C61.3124832,16.3059375 61.4477852,15.97125 61.5840268,15.6140625 L61.5840268,15.6140625 L61.5840268,15.6140625 L61.5840268,15.6140625 Z" id="Fill-12"></path>
                <path d="M78.8716779,13.3303125 L90.2004027,13.3303125 L90.2004027,15.568125 L86.0539597,15.568125 L86.0539597,20.6475 C86.0539597,22.03125 85.4347651,22.7221875 84.1963758,22.7221875 L81.5908725,22.7221875 L81.137047,20.135625 L80.7292617,21.2540625 L78.6001342,20.50875 L80.2087248,16.17375 L82.315302,17.05875 L81.1595973,20.0428125 L82.6554362,20.0428125 C83.1844295,20.0428125 83.4484564,19.7709375 83.4484564,19.2271875 L83.4484564,15.568125 L78.8716779,15.568125 L78.8716779,13.3303125 L78.8716779,13.3303125 L78.8716779,13.3303125 Z M89.5436242,8.435625 L79.4157047,8.435625 L79.4157047,6.2915625 L83.358255,6.2915625 L83.358255,4.730625 L78.9628188,4.730625 L78.9628188,2.51625 L83.358255,2.51625 L83.358255,0.8615625 L85.9637584,0.8615625 L85.9637584,2.51625 L90.2915436,2.51625 L90.2915436,4.730625 L85.9637584,4.730625 L85.9637584,6.2915625 L89.5887248,6.2915625 L89.5887248,8.341875 C90.7068456,6.043125 91.492349,3.526875 91.9452349,0.79125 L94.4830872,0.9084375 C94.3318121,1.8403125 94.1504698,2.7496875 93.9390604,3.6346875 L100.079329,3.6346875 L100.079329,6.3384375 L98.9010738,10.99875 L96.5445638,10.3940625 L97.6100671,6.3384375 L93.1685906,6.3384375 C92.6546309,7.798125 92.0279195,9.24375 91.2884564,10.6734375 L89.2946309,8.971875 C89.3697987,8.7853125 89.4534228,8.6071875 89.5436242,8.435625 L89.5436242,8.435625 L89.5436242,8.435625 L89.5436242,8.435625 Z M79.7548993,9.7875 L89.2260403,9.7875 L89.2260403,12.024375 L79.7548993,12.024375 L79.7548993,9.7875 L79.7548993,9.7875 L79.7548993,9.7875 Z M86.4391946,17.221875 L88.1840268,15.8240625 C88.9244295,16.725 89.5511409,17.58 90.0641611,18.3871875 L88.0477852,19.9725 C87.7151678,19.21125 87.1795973,18.294375 86.4391946,17.221875 L86.4391946,17.221875 L86.4391946,17.221875 L86.4391946,17.221875 Z M88.4104698,20.71875 C91.5224161,18.294375 93.0774497,14.5884375 93.0774497,9.6009375 L93.0774497,7.9696875 L95.706443,7.9696875 L95.706443,9.6009375 C95.706443,10.31625 95.6688591,11.015625 95.5927517,11.698125 C96.6206711,15.4584375 98.2518121,18.34875 100.487114,20.3690625 L98.8324832,22.9096875 C97.0961074,21.06 95.7139597,18.845625 94.6869799,16.2675 C93.7502013,19.0021875 92.201745,21.2315625 90.0425503,22.955625 L88.4104698,20.71875 L88.4104698,20.71875 L88.4104698,20.71875 Z" id="Fill-13"></path>
            </g>
            <path d="M75.8818792,6.8025 L74.258255,6.8025 L74.258255,5.34 L68.5304698,5.34 L68.5304698,3.9 L74.258255,3.9 L74.258255,2.5725 L75.8818792,2.5725 L75.8818792,3.9 L81.9253691,3.9 L81.9253691,2.5725 L83.5489933,2.5725 L83.5489933,3.9 L89.3218792,3.9 L89.3218792,5.34 L83.5489933,5.34 L83.5489933,6.8025 L81.9253691,6.8025 L81.9253691,5.34 L75.8818792,5.34 L75.8818792,6.8025 Z M82.3989262,19.9425 L83.1881879,18.7725 C85.353031,19.6425043 87.3148905,20.6099947 89.0738255,21.675 L88.1267114,23.0025 C86.5181128,21.9074945 84.6088701,20.8875047 82.3989262,19.9425 L82.3989262,19.9425 Z M72.0483221,16.455 L85.9844295,16.455 L85.9844295,17.9175 L80.0311409,17.9175 L80.0311409,21.63 C80.0311409,22.7550056 79.5124884,23.3175 78.4751678,23.3175 L75.4083221,23.3175 L75.0475168,21.9675 L77.7761074,21.9675 C78.1970491,21.9675 78.4075168,21.7575021 78.4075168,21.3375 L78.4075168,17.9175 L72.0483221,17.9175 L72.0483221,16.455 Z M68.6432215,21.585 C70.8230981,20.9399968 72.6571738,19.9950062 74.1455034,18.75 L75.1377181,19.8525 C73.4990522,21.2625071 71.552226,22.3274964 69.2971812,23.0475 L68.6432215,21.585 Z M75.0475168,14.25 C73.4389181,15.5850067 71.4094082,16.6424961 68.9589262,17.4225 L68.1245638,15.96 C69.3873889,15.5399979 70.5374445,15.0750025 71.5747651,14.565 C71.1538234,14.0399974 70.6953045,13.477503 70.1991946,12.8775 L71.2365101,12.1125 C71.8679226,12.8625038 72.364025,13.4774976 72.7248322,13.9575 C73.1908748,13.6874987 73.6268436,13.3950016 74.0327517,13.08 C73.5216082,12.4949971 72.942822,11.8800032 72.2963758,11.235 L73.1983893,10.425 C73.9500709,11.1900038 74.5363737,11.8124976 74.9573154,12.2925 C75.7991988,11.4824959 76.4381186,10.6050047 76.874094,9.66 L72.5218792,9.66 C71.4995922,10.9050062 70.3420199,11.9924954 69.0491275,12.9225 L68.2147651,11.7975 C70.2593391,10.4324932 71.8754303,8.66251088 73.0630872,6.4875 L74.258255,7.1175 C73.9876497,7.55250218 73.724565,7.97249798 73.4689933,8.3775 L78.4075168,8.3775 L78.4075168,9.66 C77.9565078,10.8750061 77.2574544,11.9999948 76.3103356,13.035 L82.3538255,13.035 C81.1511349,11.5799927 80.0311461,9.42001433 78.9938255,6.555 L80.2115436,6.15 C81.3240324,8.9700141 82.5267049,11.0399934 83.8195973,12.36 C83.8346309,12.3750001 83.8571811,12.3974998 83.8872483,12.4275 C84.9396026,11.4674952 85.8791905,10.4700052 86.7060403,9.435 L82.2636242,9.435 L82.2636242,8.0625 L88.5326174,8.0625 L88.5326174,9.435 C88.0365076,10.3050044 86.8639019,11.6324911 85.0147651,13.4175 C86.1873884,14.3025044 87.6982458,15.1124963 89.5473826,15.8475 L88.6002685,17.3325 C85.9543492,16.1474941 83.9774562,14.8350072 82.6695302,13.395 L82.6244295,13.35 L82.6244295,14.4975 L75.6563758,14.4975 L75.6563758,13.665 C75.4609386,13.860001 75.2579876,14.054999 75.0475168,14.25 L75.0475168,14.25 Z M105.257449,17.3775 C103.814221,20.5575159 100.521905,22.544996 95.3804025,23.34 L94.5685904,21.7425 C99.1237809,21.0674966 102.107912,19.5000123 103.521074,17.04 L94.9293957,17.04 L94.9293957,15.42 L97.3873823,15.42 L97.3873823,9.8175 L104.445637,9.8175 L104.445637,7.77 L106.069262,7.77 L106.069262,9.8175 L112.947114,9.8175 L112.947114,15.42 L115.540402,15.42 L115.540402,17.04 L106.790872,17.04 C108.715177,19.1550106 111.691792,20.707495 115.720805,21.6975 L114.773691,23.3175 C110.444005,22.1024939 107.271956,20.1225137 105.257449,17.3775 L105.257449,17.3775 Z M106.069262,13.305 C106.054228,14.0550038 105.986578,14.7599967 105.866309,15.42 L111.32349,15.42 L111.32349,11.37 L106.069262,11.37 L106.069262,13.305 Z M104.152483,15.42 C104.332887,14.7599967 104.430604,14.0550038 104.445637,13.305 L104.445637,11.37 L99.0335568,11.37 L99.0335568,15.42 L104.152483,15.42 Z M101.491543,4.5975 L108.752751,4.5975 L108.752751,2.5725 L110.398926,2.5725 L110.398926,4.5975 L115.540402,4.5975 L115.540402,6.2175 L110.398926,6.2175 L110.398926,8.3775 L108.752751,8.3775 L108.752751,6.2175 L101.491543,6.2175 L101.491543,8.3775 L99.8679192,8.3775 L99.8679192,6.2175 L94.7489931,6.2175 L94.7489931,4.5975 L99.8679192,4.5975 L99.8679192,2.5725 L101.491543,2.5725 L101.491543,4.5975 Z M131.94953,18.1425 C129.514081,20.0925098 126.124048,21.7949927 121.779328,23.25 L120.809664,21.675 C125.154384,20.2499929 128.4467,18.7125083 130.686711,17.0625 C130.521341,16.8974992 130.371007,16.7475007 130.235704,16.6125 C127.950592,14.2274881 126.1541,11.0850195 124.846174,7.185 L121.508724,7.185 L121.508724,5.565 L130.686711,5.565 C130.536375,4.6649955 130.31839,3.72000495 130.032751,2.73 L131.633825,2.5725 C131.919464,3.57750503 132.152482,4.57499505 132.332885,5.565 L141.578523,5.565 L141.578523,7.185 L137.970469,7.185 C136.97825,11.5500218 135.384709,14.834989 133.189798,17.04 C135.384709,18.7200084 138.316223,20.3174924 141.984429,21.8325 L140.789261,23.3625 C137.151122,21.7724921 134.204575,20.0325094 131.94953,18.1425 L131.94953,18.1425 Z M136.414496,7.185 L126.424698,7.185 C127.627388,10.6350172 129.296096,13.4099895 131.430872,15.51 C131.596242,15.6750008 131.761609,15.8399992 131.926979,16.005 C131.97208,15.9449997 132.017181,15.8925002 132.062281,15.8475 C134.031687,13.85249 135.482411,10.9650189 136.414496,7.185 L136.414496,7.185 Z M153.50765,23.4075 L153.50765,3.675 L159.55114,3.675 L159.55114,5.205 L157.927516,10.65 C159.055039,12.3150083 159.671408,14.0174913 159.776644,15.7575 C159.76161,17.1825071 159.483492,18.0824981 158.942281,18.4575 C158.386037,18.8475019 157.491549,19.0050004 156.258791,18.93 L155.695033,17.3325 C156.927791,17.3325 157.656911,17.2125012 157.882415,16.9725 C158.10792,16.7174987 158.22067,16.3125028 158.22067,15.7575 C158.100401,14.1224918 157.461482,12.4575085 156.303892,10.7625 L157.995167,5.205 L155.108724,5.205 L155.108724,23.4075 L153.50765,23.4075 Z M172.630335,7.95 L172.630335,16.3425 L168.93208,16.3425 C170.525645,18.2775097 172.22442,19.8524939 174.028456,21.0675 L173.239194,22.5975 C171.134485,20.9474918 169.30041,19.0425108 167.736912,16.8825 L167.736912,23.4075 L166.113288,23.4075 L166.113288,16.8375 C164.429521,19.2225119 162.354911,21.1724924 159.889395,22.6875 L158.987382,21.225 C161.287528,19.9649937 163.24187,18.33751 164.850469,16.3425 L161.129664,16.3425 L161.129664,7.95 L166.113288,7.95 L166.113288,5.88 L160.295301,5.88 L160.295301,4.4175 L166.113288,4.4175 L166.113288,2.5725 L167.736912,2.5725 L167.736912,4.4175 L173.599999,4.4175 L173.599999,5.88 L167.736912,5.88 L167.736912,7.95 L172.630335,7.95 Z M162.685637,11.505 L166.113288,11.505 L166.113288,9.39 L162.685637,9.39 L162.685637,11.505 Z M166.113288,12.855 L162.685637,12.855 L162.685637,14.88 L166.113288,14.88 L166.113288,12.855 Z M167.736912,11.505 L171.096912,11.505 L171.096912,9.39 L167.736912,9.39 L167.736912,11.505 Z M171.096912,12.855 L167.736912,12.855 L167.736912,14.88 L171.096912,14.88 L171.096912,12.855 Z M199.480268,18.75 L192.827919,18.75 L192.827919,20.595 L191.181744,20.595 L191.181744,18.75 L185.54416,18.75 L185.54416,17.3775 L191.181744,17.3775 L191.181744,15.4875 L186.333422,15.4875 L186.333422,14.1375 L191.181744,14.1375 L191.181744,12.2475 L186.87463,12.2475 L186.87463,10.875 L191.181744,10.875 L191.181744,8.895 L185.54416,8.895 L185.54416,7.545 L191.181744,7.545 L191.181744,5.655 L186.784429,5.655 L186.784429,4.2825 L191.181744,4.2825 L191.181744,2.5725 L192.827919,2.5725 L192.827919,4.2825 L198.104697,4.2825 L198.104697,7.545 L199.998925,7.545 L199.998925,8.895 L198.104697,8.895 L198.104697,12.2475 L192.827919,12.2475 L192.827919,14.1375 L198.758657,14.1375 L198.758657,15.4875 L192.827919,15.4875 L192.827919,17.3775 L199.480268,17.3775 L199.480268,18.75 Z M196.481073,5.655 L192.827919,5.655 L192.827919,7.545 L196.481073,7.545 L196.481073,5.655 Z M196.481073,8.895 L192.827919,8.895 L192.827919,10.875 L196.481073,10.875 L196.481073,8.895 Z M184.980402,10.7175 C184.950335,13.7925154 184.627116,16.1099922 184.010737,17.67 C183.830334,18.075002 183.612349,18.5099977 183.356778,18.975 C184.514367,20.2500064 185.769657,20.984999 187.122684,21.18 C187.979601,21.2850005 188.836505,21.3375 189.693422,21.3375 L200.089127,21.3375 L199.886174,22.89 L189.400268,22.89 C188.588451,22.89 187.784164,22.8525004 186.987382,22.7775 C185.333682,22.5224987 183.837858,21.6675073 182.499865,20.2125 C181.793284,21.1725048 180.89128,22.1999945 179.793825,23.295 L178.869261,21.945 C179.966716,20.8799947 180.853687,19.9050044 181.5302,19.02 C180.643216,17.8349941 179.823895,16.3650088 179.072214,14.61 L180.402684,14.0475 C181.019063,15.4875072 181.680532,16.709995 182.387113,17.715 C182.507382,17.4899989 182.612616,17.2725011 182.702818,17.0625 C183.153827,15.9674945 183.416911,14.3625106 183.49208,12.2475 L179.635972,12.2475 L179.635972,10.7175 L183.311677,5.475 L179.297717,5.475 L179.297717,3.945 L185.183355,3.945 L185.183355,5.475 L181.4851,10.7175 L184.980402,10.7175 Z M212.732348,5.925 L225.698791,5.925 L225.698791,7.545 L212.732348,7.545 L212.732348,5.925 Z M211.852885,20.145 L226.397851,20.145 L226.397851,21.7875 L211.852885,21.7875 L211.852885,20.145 Z M204.975032,12.8775 C207.03464,10.0424858 208.718382,6.57752048 210.026308,2.4825 L211.627381,2.865 C211.071137,4.38000758 210.484834,5.83499302 209.868455,7.23 L209.868455,23.3175 L208.244831,23.3175 L208.244831,10.5825 C207.508183,11.9475068 206.741479,13.2449939 205.944697,14.475 L204.975032,12.8775 Z M251.376106,11.325 L251.376106,17.085 L249.233824,17.085 L249.233824,21.3825 C249.233824,21.5925011 249.331541,21.6975 249.526979,21.6975 L251.037851,21.6975 C251.233288,21.6975 251.331005,21.5925011 251.331005,21.3825 L251.331005,19.2675 L252.706576,19.6275 L252.706576,21.765 C252.706576,22.7400049 252.210473,23.2275 251.218254,23.2275 L249.256374,23.2275 C248.264155,23.2275 247.768052,22.7400049 247.768052,21.765 L247.768052,17.085 L245.964026,17.085 L245.964026,17.6925 C245.964026,20.3325132 244.641086,22.2674938 241.995166,23.4975 L240.980401,22.26 C243.340682,21.254995 244.520804,19.7325102 244.520804,17.6925 L244.520804,17.085 L242.87463,17.085 L242.87463,11.325 L251.376106,11.325 Z M249.842683,12.675 L244.430603,12.675 L244.430603,15.7125 L249.842683,15.7125 L249.842683,12.675 Z M241.251005,9.705 L231.644562,9.705 L231.644562,8.3325 L233.989797,8.3325 L233.403489,5.745 L232.095569,5.745 L232.095569,4.3725 L235.861475,4.3725 C235.771273,3.78749707 235.620939,3.18000315 235.410468,2.55 L237.034093,2.3925 C237.199463,3.0525033 237.334763,3.7124967 237.439999,4.3725 L240.822549,4.3725 L240.822549,5.745 L239.649932,5.745 L238.928321,8.3325 L241.251005,8.3325 L241.251005,9.705 Z M238.139059,5.745 L234.914361,5.745 L235.433019,8.3325 L237.462549,8.3325 L238.139059,5.745 Z M252.616374,9.705 L242.130468,9.705 L242.130468,8.3325 L244.385502,8.3325 L243.866844,5.745 L242.491274,5.745 L242.491274,4.3725 L246.572885,4.3725 C246.452616,3.78749707 246.287248,3.18750308 246.076777,2.5725 L247.677851,2.37 C247.888322,3.04500338 248.053689,3.7124967 248.173958,4.3725 L252.165368,4.3725 L252.165368,5.745 L250.744697,5.745 L250.068187,8.3325 L252.616374,8.3325 L252.616374,9.705 Z M249.256374,5.745 L245.377717,5.745 L245.828723,8.3325 L248.602415,8.3325 L249.256374,5.745 Z M235.478119,17.8725 C235.478119,20.1525114 234.418264,22.0199927 232.298522,23.475 L231.351408,22.1025 C233.14041,21.0374947 234.034898,19.6275088 234.034898,17.8725 L234.034898,17.085 L232.478925,17.085 L232.478925,11.325 L240.461744,11.325 L240.461744,17.085 L238.747918,17.085 L238.747918,20.1225 L241.431408,18.705 L241.611811,20.235 C239.642405,21.2700052 238.236781,22.0724972 237.394898,22.6425 L236.740938,21.18 C237.086712,20.969999 237.267113,20.6325023 237.282146,20.1675 L237.282146,17.085 L235.478119,17.085 L235.478119,17.8725 Z M238.928321,12.675 L234.034898,12.675 L234.034898,15.7125 L238.928321,15.7125 L238.928321,12.675 Z M272.182549,18.39 L272.94926,17.1525 C274.963767,17.6925027 276.745226,18.3149965 278.29369,19.02 L277.436777,20.3925 C276.158918,19.7174966 274.407526,19.0500033 272.182549,18.39 L272.182549,18.39 Z M264.312482,20.1225 L263.54577,18.7725 C265.319739,18.3074977 267.00348,17.7450033 268.597045,17.085 L269.499059,18.12 C267.845359,18.9000039 266.116518,19.5674972 264.312482,20.1225 L264.312482,20.1225 Z M278.564294,16.815 L263.342817,16.815 L263.342817,15.465 L267.153824,15.465 L267.153824,13.575 L264.132079,13.575 L264.132079,12.2025 L267.153824,12.2025 L267.153824,10.5375 C265.9361,10.7175009 264.981478,10.904999 264.289931,11.1 L263.658522,9.5925 C264.019329,9.38249895 264.207247,9.04500233 264.22228,8.58 L264.22228,3.45 L270.153019,3.45 L270.153019,7.455 L265.665502,7.455 L265.665502,9.3225 L270.288321,8.8275 L270.468723,10.0875 C269.837311,10.1475003 269.251008,10.2149996 268.709797,10.29 L268.709797,12.2025 L273.062012,12.2025 L273.062012,10.3575 L272.836508,10.3575 C272.024692,10.3575 271.61879,9.94500413 271.61879,9.12 L271.61879,3.45 L277.63973,3.45 L277.63973,7.455 L273.062012,7.455 L273.062012,8.7825 C273.062012,8.97750097 273.167246,9.075 273.377717,9.075 L277.865233,9.075 L277.865233,10.3575 L274.617985,10.3575 L274.617985,12.2025 L277.775032,12.2025 L277.775032,13.575 L274.617985,13.575 L274.617985,15.465 L278.564294,15.465 L278.564294,16.815 Z M273.062012,6.1725 L276.196508,6.1725 L276.196508,4.7325 L273.062012,4.7325 L273.062012,6.1725 Z M265.665502,6.1725 L268.709797,6.1725 L268.709797,4.7325 L265.665502,4.7325 L265.665502,6.1725 Z M273.062012,13.575 L268.709797,13.575 L268.709797,15.465 L273.062012,15.465 L273.062012,13.575 Z M261.268186,7.3875 C260.561606,6.27749445 259.682151,5.04750675 258.629797,3.6975 L259.915166,2.8425 C261.253159,4.5825087 262.147647,5.81999632 262.598656,6.555 L261.268186,7.3875 Z M261.967247,10.4475 L261.967247,19.11 C262.072482,19.1550002 262.185233,19.2074997 262.305502,19.2675 C262.741477,19.5375013 263.335297,19.9087476 264.086978,20.38125 C264.83866,20.8537524 266.116499,21.09 267.920535,21.09 L279.128052,21.09 L278.677045,22.62 L267.920535,22.62 C266.041331,22.62 264.688325,22.3650025 263.861475,21.855 C263.034625,21.3449974 262.463356,20.9775011 262.147649,20.7525 C261.846977,20.5424989 261.538792,20.4300001 261.223086,20.415 C260.817178,20.5200005 260.057991,21.3449923 258.945502,22.89 L257.637582,21.6525 C258.193827,21.0974972 258.810196,20.4900033 259.48671,19.83 C259.772349,19.5299985 260.057984,19.2975008 260.343623,19.1325 L260.343623,11.9775 L258.13369,11.9775 L258.13369,10.4475 L261.967247,10.4475 Z" id="蔡英文-陳建仁競選" sketch:type="MSShapeGroup"></path>
        </g>
    </g>
</svg>