<?xml version="1.0" encoding="UTF-8" standalone="no"?>
<svg width="205px" height="66px" viewBox="0 0 205 66" version="1.1" xmlns="http://www.w3.org/2000/svg" xmlns:xlink="http://www.w3.org/1999/xlink" xmlns:sketch="http://www.bohemiancoding.com/sketch/ns">
    <!-- Generator: Sketch 3.3.2 (12043) - http://www.bohemiancoding.com/sketch -->
    <title>office-donate</title>
    <desc>Created with Sketch.</desc>
    <defs></defs>
    <g id="Page-1" stroke="none" stroke-width="1" fill="none" fill-rule="evenodd" sketch:type="MSPage">
        <g id="office-donate" sketch:type="MSLayerGroup" fill="#1A1918">
            <g id="Page-1" sketch:type="MSShapeGroup">
                <g id="office-donate">
                    <g id="Imported-Layers">
                        <path d="M0.138,25.005 L0.138,22.825 L8.686,14.583 C10.117,13.187 11.002,11.689 11.002,10.02 C11.002,7.738 9.3,5.967 6.848,5.967 C4.565,5.967 2.658,7.567 2.658,10.088 L0.206,10.088 C0.206,6.443 3.033,3.787 6.848,3.787 C10.832,3.787 13.455,6.512 13.455,9.985 C13.455,12.437 12.126,14.243 10.321,16.014 L3.373,22.825 L14.067,22.825 L14.067,25.005 L0.138,25.005" id="Fill-1"></path>
                        <path d="M29.799,23.302 C28.641,24.494 27.04,25.209 24.997,25.209 C22.953,25.209 21.352,24.494 20.194,23.302 C18.491,21.565 18.151,19.215 18.151,16.627 C18.151,14.038 18.491,11.654 20.194,9.951 C21.352,8.76 22.953,8.044 24.997,8.044 C27.04,8.044 28.641,8.76 29.799,9.951 C31.501,11.654 31.842,14.038 31.842,16.627 C31.842,19.215 31.501,21.565 29.799,23.302 L29.799,23.302 L29.799,23.302 Z M28.061,11.45 C27.244,10.633 26.188,10.224 24.997,10.224 C23.805,10.224 22.783,10.633 21.965,11.45 C20.739,12.676 20.603,14.72 20.603,16.627 C20.603,18.5 20.705,20.544 21.965,21.804 C22.783,22.621 23.805,23.029 24.997,23.029 C26.188,23.029 27.244,22.621 28.061,21.804 C29.288,20.544 29.39,18.5 29.39,16.627 C29.39,14.72 29.288,12.676 28.061,11.45 L28.061,11.45 L28.061,11.45 Z" id="Fill-2"></path>
                        <path d="M40.285,25.005 L40.285,7.397 L35.755,11.382 L35.755,8.589 L40.285,4.673 L42.737,4.673 L42.737,25.005 L40.285,25.005" id="Fill-3"></path>
                        <path d="M55.71,25.209 C51.248,25.209 48.456,22.212 48.456,17.717 C48.456,15.741 49,13.766 50.227,11.62 L56.698,0.211 L59.286,0.211 L53.156,10.735 C54.144,10.224 54.961,10.088 56.119,10.088 C60.24,10.088 62.93,13.187 62.93,17.513 C62.93,21.94 60.138,25.209 55.71,25.209 L55.71,25.209 L55.71,25.209 Z M55.676,12.131 C52.781,12.131 50.908,14.31 50.908,17.648 C50.908,20.952 52.781,23.132 55.676,23.132 C58.571,23.132 60.478,20.952 60.478,17.648 C60.478,14.651 58.809,12.131 55.676,12.131 L55.676,12.131 L55.676,12.131 Z" id="Fill-4"></path>
                        <path d="M77.68,15.226 C75.96,16.701 73.79,17.869 71.169,18.731 L70.277,17.115 C71.627,16.651 72.857,16.138 73.966,15.574 C73.516,14.994 73.026,14.373 72.496,13.71 L73.605,12.864 C74.28,13.693 74.81,14.373 75.196,14.903 C75.694,14.604 76.161,14.281 76.595,13.934 C76.048,13.287 75.429,12.607 74.738,11.895 L75.703,11 C76.506,11.846 77.133,12.533 77.583,13.064 C78.483,12.169 79.166,11.199 79.633,10.155 L74.979,10.155 C73.886,11.53 72.648,12.732 71.266,13.76 L70.374,12.517 C72.56,11.009 74.288,9.053 75.558,6.65 L76.836,7.346 C76.546,7.827 76.265,8.291 75.992,8.738 L81.272,8.738 L81.272,10.155 C80.79,11.497 80.043,12.74 79.03,13.884 L85.492,13.884 C84.206,12.276 83.009,9.89 81.899,6.725 L83.202,6.277 C84.391,9.393 85.677,11.68 87.06,13.138 C87.075,13.154 87.1,13.18 87.132,13.213 C88.257,12.152 89.262,11.05 90.146,9.906 L85.396,9.906 L85.396,8.39 L92.099,8.39 L92.099,9.906 C91.568,10.868 90.315,12.334 88.337,14.307 C89.591,15.284 91.207,16.18 93.184,16.991 L92.171,18.632 C89.342,17.322 87.228,15.872 85.83,14.281 L85.782,14.231 L85.782,15.499 L78.331,15.499 L78.331,14.58 C78.122,14.795 77.905,15.011 77.68,15.226 L77.68,15.226 L77.68,15.226 Z M78.572,6.998 L76.836,6.998 L76.836,5.382 L70.711,5.382 L70.711,3.791 L76.836,3.791 L76.836,2.325 L78.572,2.325 L78.572,3.791 L85.034,3.791 L85.034,2.325 L86.77,2.325 L86.77,3.791 L92.943,3.791 L92.943,5.382 L86.77,5.382 L86.77,6.998 L85.034,6.998 L85.034,5.382 L78.572,5.382 L78.572,6.998 L78.572,6.998 Z M70.832,23.33 C73.163,22.617 75.124,21.573 76.715,20.197 L77.776,21.416 C76.024,22.974 73.942,24.15 71.531,24.945 L70.832,23.33 L70.832,23.33 Z M74.473,17.662 L89.375,17.662 L89.375,19.278 L83.009,19.278 L83.009,23.38 C83.009,24.622 82.454,25.244 81.345,25.244 L78.065,25.244 L77.68,23.752 L80.598,23.752 C81.047,23.752 81.272,23.52 81.272,23.057 L81.272,19.278 L74.473,19.278 L74.473,17.662 L74.473,17.662 Z M85.54,21.516 L86.384,20.223 C88.699,21.184 90.797,22.253 92.678,23.43 L91.665,24.896 C89.945,23.685 87.903,22.56 85.54,21.516 L85.54,21.516 L85.54,21.516 Z" id="Fill-5"></path>
                        <path d="M109.58,18.682 C108.037,22.195 104.517,24.391 99.019,25.269 L98.151,23.504 C103.021,22.758 106.212,21.026 107.724,18.309 L98.537,18.309 L98.537,16.519 L101.165,16.519 L101.165,10.329 L108.712,10.329 L108.712,8.067 L110.448,8.067 L110.448,10.329 L117.803,10.329 L117.803,16.519 L120.576,16.519 L120.576,18.309 L111.22,18.309 C113.277,20.646 116.46,22.36 120.769,23.454 L119.756,25.244 C115.126,23.901 111.734,21.714 109.58,18.682 L109.58,18.682 L109.58,18.682 Z M105.554,4.561 L113.318,4.561 L113.318,2.325 L115.078,2.325 L115.078,4.561 L120.576,4.561 L120.576,6.352 L115.078,6.352 L115.078,8.738 L113.318,8.738 L113.318,6.352 L105.554,6.352 L105.554,8.738 L103.817,8.738 L103.817,6.352 L98.344,6.352 L98.344,4.561 L103.817,4.561 L103.817,2.325 L105.554,2.325 L105.554,4.561 L105.554,4.561 Z M108.399,16.519 C108.592,15.79 108.696,15.011 108.712,14.182 L108.712,12.044 L102.925,12.044 L102.925,16.519 L108.399,16.519 L108.399,16.519 Z M110.448,14.182 C110.432,15.011 110.36,15.79 110.231,16.519 L116.066,16.519 L116.066,12.044 L110.448,12.044 L110.448,14.182 L110.448,14.182 Z" id="Fill-6"></path>
                        <path d="M137.72,19.526 C135.115,21.681 131.49,23.561 126.845,25.169 L125.809,23.43 C130.453,21.855 133.974,20.156 136.369,18.333 C136.192,18.151 136.032,17.985 135.887,17.836 C133.443,15.201 131.522,11.729 130.124,7.421 L126.556,7.421 L126.556,5.631 L136.369,5.631 C136.209,4.637 135.976,3.593 135.67,2.499 L137.382,2.325 C137.688,3.435 137.936,4.537 138.13,5.631 L148.016,5.631 L148.016,7.421 L144.157,7.421 C143.097,12.243 141.393,15.872 139.046,18.309 C141.393,20.165 144.527,21.93 148.449,23.603 L147.172,25.294 C143.281,23.537 140.131,21.614 137.72,19.526 L137.72,19.526 L137.72,19.526 Z M142.494,7.421 L131.813,7.421 C133.098,11.232 134.883,14.298 137.165,16.618 C137.342,16.801 137.519,16.982 137.695,17.165 C137.744,17.099 137.792,17.041 137.84,16.991 C139.946,14.787 141.497,11.597 142.494,7.421 L142.494,7.421 L142.494,7.421 Z" id="Fill-7"></path>
                        <path d="M157.805,19.228 C157.805,21.747 156.671,23.81 154.404,25.418 L153.392,23.901 C155.305,22.725 156.262,21.167 156.262,19.228 L156.262,18.358 L154.598,18.358 L154.598,11.994 L163.134,11.994 L163.134,18.358 L161.301,18.358 L161.301,21.714 L164.17,20.148 L164.363,21.838 C162.257,22.981 160.754,23.868 159.854,24.498 L159.155,22.883 C159.524,22.65 159.718,22.277 159.733,21.764 L159.733,18.358 L157.805,18.358 L157.805,19.228 L157.805,19.228 Z M163.977,10.205 L153.705,10.205 L153.705,8.689 L156.213,8.689 L155.586,5.83 L154.188,5.83 L154.188,4.313 L158.215,4.313 C158.118,3.667 157.957,2.996 157.732,2.3 L159.469,2.126 C159.646,2.856 159.79,3.584 159.902,4.313 L163.519,4.313 L163.519,5.83 L162.266,5.83 L161.494,8.689 L163.977,8.689 L163.977,10.205 L163.977,10.205 Z M156.262,16.842 L161.494,16.842 L161.494,13.486 L156.262,13.486 L156.262,16.842 L156.262,16.842 Z M160.649,5.83 L157.202,5.83 L157.757,8.689 L159.927,8.689 L160.649,5.83 L160.649,5.83 Z M174.804,11.994 L174.804,18.358 L172.513,18.358 L172.513,23.106 C172.513,23.338 172.617,23.454 172.826,23.454 L174.442,23.454 C174.65,23.454 174.756,23.338 174.756,23.106 L174.756,20.769 L176.227,21.167 L176.227,23.528 C176.227,24.606 175.696,25.145 174.635,25.145 L172.537,25.145 C171.477,25.145 170.946,24.606 170.946,23.528 L170.946,18.358 L169.017,18.358 L169.017,19.029 C169.017,21.946 167.603,24.084 164.773,25.442 L163.689,24.075 C166.212,22.966 167.474,21.283 167.474,19.029 L167.474,18.358 L165.714,18.358 L165.714,11.994 L174.804,11.994 L174.804,11.994 Z M176.13,10.205 L164.918,10.205 L164.918,8.689 L167.329,8.689 L166.774,5.83 L165.304,5.83 L165.304,4.313 L169.668,4.313 C169.539,3.667 169.362,3.005 169.138,2.325 L170.85,2.101 C171.074,2.847 171.251,3.584 171.38,4.313 L175.647,4.313 L175.647,5.83 L174.129,5.83 L173.405,8.689 L176.13,8.689 L176.13,10.205 L176.13,10.205 Z M167.377,16.842 L173.164,16.842 L173.164,13.486 L167.377,13.486 L167.377,16.842 L167.377,16.842 Z M172.537,5.83 L168.39,5.83 L168.872,8.689 L171.838,8.689 L172.537,5.83 L172.537,5.83 Z" id="Fill-8"></path>
                        <path d="M185.727,11.025 L185.727,20.596 C185.839,20.646 185.96,20.703 186.089,20.769 C186.555,21.067 187.19,21.478 187.993,22 C188.797,22.522 190.164,22.783 192.093,22.783 L204.076,22.783 L203.594,24.474 L192.093,24.474 C190.083,24.474 188.637,24.191 187.752,23.628 C186.868,23.065 186.258,22.658 185.92,22.41 C185.598,22.178 185.269,22.054 184.932,22.037 C184.497,22.153 183.685,23.065 182.496,24.772 L181.098,23.404 C181.692,22.791 182.352,22.12 183.074,21.391 C183.38,21.06 183.685,20.803 183.991,20.62 L183.991,12.716 L181.628,12.716 L181.628,11.025 L185.727,11.025 L185.727,11.025 Z M184.979,7.644 C184.224,6.418 183.283,5.06 182.158,3.567 L183.533,2.623 C184.963,4.546 185.92,5.913 186.402,6.725 L184.979,7.644 L184.979,7.644 Z M203.474,18.06 L187.198,18.06 L187.198,16.568 L191.272,16.568 L191.272,14.481 L188.042,14.481 L188.042,12.964 L191.272,12.964 L191.272,11.124 C189.971,11.323 188.95,11.53 188.211,11.746 L187.535,10.08 C187.921,9.849 188.122,9.476 188.139,8.962 L188.139,3.294 L194.479,3.294 L194.479,7.719 L189.682,7.719 L189.682,9.782 L194.624,9.235 L194.817,10.627 C194.143,10.693 193.516,10.769 192.936,10.851 L192.936,12.964 L197.59,12.964 L197.59,10.926 L197.349,10.926 C196.481,10.926 196.047,10.47 196.047,9.559 L196.047,3.294 L202.485,3.294 L202.485,7.719 L197.59,7.719 L197.59,9.185 C197.59,9.401 197.702,9.509 197.928,9.509 L202.727,9.509 L202.727,10.926 L199.254,10.926 L199.254,12.964 L202.63,12.964 L202.63,14.481 L199.254,14.481 L199.254,16.568 L203.474,16.568 L203.474,18.06 L203.474,18.06 Z M188.234,21.714 L187.415,20.223 C189.311,19.709 191.112,19.088 192.816,18.358 L193.78,19.502 C192.012,20.363 190.164,21.102 188.234,21.714 L188.234,21.714 L188.234,21.714 Z M189.682,6.302 L192.937,6.302 L192.937,4.711 L189.682,4.711 L189.682,6.302 L189.682,6.302 Z M192.936,16.568 L197.589,16.568 L197.589,14.48 L192.936,14.48 L192.936,16.568 L192.936,16.568 Z M196.649,19.8 L197.47,18.433 C199.624,19.029 201.528,19.717 203.185,20.496 L202.268,22.013 C200.901,21.267 199.028,20.529 196.649,19.8 L196.649,19.8 L196.649,19.8 Z M197.59,6.302 L200.942,6.302 L200.942,4.711 L197.59,4.711 L197.59,6.302 L197.59,6.302 Z" id="Fill-9"></path>
                        <path d="M97.748,58.873 C99.388,55.211 100.626,51.398 101.462,47.437 L104.211,48.034 C103.471,52.095 102.314,55.989 100.738,59.719 L97.748,58.873 L97.748,58.873 Z M110.939,41.919 L110.939,62.677 C110.939,64.384 110.119,65.237 108.479,65.237 L103.849,65.237 L103.343,61.98 L106.791,61.98 C107.45,61.98 107.78,61.642 107.78,60.962 L107.78,41.919 L110.939,41.919 L110.939,41.919 Z M117.811,59.445 C116.798,55.435 115.496,51.655 113.905,48.108 L116.461,47.164 C118.084,50.661 119.491,54.473 120.681,58.6 L117.811,59.445 L117.811,59.445 Z" id="Fill-10"></path>
                        <path d="M135.56,57.705 L135.56,64.94 L132.979,64.94 L132.979,64.218 L129.627,64.218 L129.627,65.237 L127.047,65.237 L127.047,57.531 C126.773,57.647 126.517,57.755 126.275,57.853 L125.287,55.418 C126.83,54.904 128.189,54.308 129.362,53.628 C128.815,53.314 128.277,53.023 127.747,52.758 C127.441,53.106 127.111,53.437 126.758,53.752 L125.383,51.664 C126.927,50.554 128.116,48.888 128.952,46.667 L131.339,46.916 C131.195,47.247 131.05,47.603 130.905,47.984 L135.752,47.984 L135.752,50.272 C135.302,51.382 134.643,52.401 133.775,53.329 C134.964,53.992 136.122,54.696 137.248,55.442 L135.56,57.705 L135.56,57.705 Z M134.209,46.046 L128.132,46.046 L128.132,47.86 L125.721,47.86 L125.721,43.684 L129.844,43.684 C129.748,43.137 129.619,42.582 129.458,42.019 L132.231,41.794 C132.376,42.425 132.505,43.054 132.618,43.684 L136.596,43.684 L136.596,47.363 L134.209,47.363 L134.209,46.046 L134.209,46.046 Z M128.421,56.983 L134.619,56.983 C133.735,56.321 132.794,55.683 131.798,55.069 C130.817,55.749 129.691,56.388 128.421,56.983 L128.421,56.983 L128.421,56.983 Z M133.027,50.272 L129.7,50.272 C129.539,50.504 129.386,50.744 129.242,50.992 C129.997,51.324 130.737,51.689 131.46,52.087 C132.071,51.523 132.593,50.918 133.027,50.272 L133.027,50.272 L133.027,50.272 Z M129.627,61.832 L132.979,61.832 L132.979,59.37 L129.627,59.37 L129.627,61.832 L129.627,61.832 Z M137.079,42.565 L148.195,42.565 L148.195,45.226 L143.541,45.226 L143.3,46.841 L147.448,46.841 L147.448,60.663 L144.554,60.663 C146.017,61.542 147.335,62.47 148.509,63.447 L146.7,65.461 C145.607,64.434 144.289,63.439 142.746,62.478 L144.265,60.663 L139.972,60.663 L141.974,62.056 C140.768,63.183 139.313,64.293 137.609,65.387 L135.752,63.522 C137.215,62.644 138.565,61.691 139.804,60.663 L137.489,60.663 L137.489,46.841 L140.478,46.841 L140.744,45.226 L137.079,45.226 L137.079,42.565 L137.079,42.565 Z M140.093,50.719 L144.843,50.719 L144.843,49.302 L140.093,49.302 L140.093,50.719 L140.093,50.719 Z M140.093,54.498 L144.843,54.498 L144.843,53.006 L140.093,53.006 L140.093,54.498 L140.093,54.498 Z M140.093,58.202 L144.843,58.202 L144.843,56.785 L140.093,56.785 L140.093,58.202 L140.093,58.202 Z" id="Fill-11"></path>
                        <path d="M163.363,54.696 L175.637,54.696 L175.637,56.785 L171.128,56.785 C172.35,57.63 174.078,58.442 176.313,59.222 L174.938,61.757 C173.796,61.227 172.792,60.696 171.924,60.166 L171.924,62.254 C171.924,64.177 170.991,65.138 169.126,65.138 L165.244,65.138 L164.738,62.652 L168.09,62.652 C168.845,62.652 169.223,62.254 169.223,61.459 L169.223,60.912 L164.014,60.912 C163.548,61.74 163.034,62.403 162.471,62.9 C161.297,63.944 159.392,64.84 156.756,65.585 L155.671,62.95 C157.825,62.553 159.36,61.98 160.276,61.235 C160.389,61.136 160.501,61.028 160.614,60.912 L157.745,60.912 L157.745,60.141 C156.651,60.787 155.478,61.334 154.224,61.782 L152.922,59.272 C154.899,58.642 156.603,57.812 158.034,56.785 L153.5,56.785 L153.5,54.696 L160.301,54.696 C160.542,54.382 160.775,54.075 161,53.777 L155.719,53.777 L155.719,46.643 L173.467,46.643 L173.467,53.777 L163.942,53.777 C163.749,54.075 163.556,54.382 163.363,54.696 L163.363,54.696 L163.363,54.696 Z M153.308,43.137 L159.191,43.137 L159.191,41.919 L161.989,41.919 L161.989,43.137 L167.39,43.137 L167.39,41.919 L170.164,41.919 L170.164,43.137 L175.83,43.137 L175.83,45.424 L170.164,45.424 L170.164,46.294 L167.39,46.294 L167.39,45.424 L161.989,45.424 L161.989,46.294 L159.191,46.294 L159.191,45.424 L153.308,45.424 L153.308,43.137 L153.308,43.137 Z M158.492,49.451 L170.694,49.451 L170.694,48.531 L158.492,48.531 L158.492,49.451 L158.492,49.451 Z M158.492,51.888 L170.694,51.888 L170.694,50.968 L158.492,50.968 L158.492,51.888 L158.492,51.888 Z M162.543,57.655 L165.22,57.655 C165.123,58.053 165.019,58.409 164.907,58.724 L169.753,58.724 C168.917,58.078 168.258,57.432 167.776,56.785 L161.82,56.785 C161.193,57.481 160.509,58.127 159.77,58.724 L162.109,58.724 C162.254,58.393 162.398,58.036 162.543,57.655 L162.543,57.655 L162.543,57.655 Z" id="Fill-12"></path>
                        <path d="M180.942,55.219 L192.999,55.219 L192.999,57.606 L188.586,57.606 L188.586,63.024 C188.586,64.5 187.927,65.237 186.609,65.237 L183.836,65.237 L183.353,62.478 L182.919,63.671 L180.653,62.876 L182.365,58.252 L184.607,59.196 L183.377,62.379 L184.969,62.379 C185.532,62.379 185.813,62.089 185.813,61.509 L185.813,57.606 L180.942,57.606 L180.942,55.219 L180.942,55.219 Z M192.3,49.998 L181.521,49.998 L181.521,47.711 L185.717,47.711 L185.717,46.046 L181.039,46.046 L181.039,43.684 L185.717,43.684 L185.717,41.919 L188.49,41.919 L188.49,43.684 L193.096,43.684 L193.096,46.046 L188.49,46.046 L188.49,47.711 L192.348,47.711 L192.348,49.898 C193.538,47.446 194.374,44.762 194.856,41.844 L197.557,41.969 C197.396,42.963 197.203,43.933 196.978,44.877 L203.513,44.877 L203.513,47.761 L202.259,52.732 L199.751,52.087 L200.885,47.761 L196.158,47.761 C195.611,49.318 194.944,50.86 194.157,52.385 L192.035,50.57 C192.115,50.371 192.204,50.181 192.3,49.998 L192.3,49.998 L192.3,49.998 Z M181.882,51.44 L191.962,51.44 L191.962,53.826 L181.882,53.826 L181.882,51.44 L181.882,51.44 Z M188.996,59.37 L190.853,57.879 C191.641,58.84 192.308,59.752 192.854,60.613 L190.708,62.304 C190.354,61.492 189.784,60.514 188.996,59.37 L188.996,59.37 L188.996,59.37 Z M191.094,63.1 C194.406,60.514 196.061,56.561 196.061,51.241 L196.061,49.501 L198.859,49.501 L198.859,51.241 C198.859,52.004 198.819,52.75 198.738,53.478 C199.832,57.489 201.568,60.572 203.947,62.727 L202.186,65.437 C200.338,63.464 198.867,61.102 197.774,58.352 C196.777,61.269 195.129,63.647 192.831,65.486 L191.094,63.1 L191.094,63.1 Z" id="Fill-13"></path>
                    </g>
                </g>
            </g>
        </g>
    </g>
</svg>