<?xml version="1.0" encoding="UTF-8" standalone="no"?>
<svg width="1365px" height="400px" viewBox="0 0 1365 400" version="1.1" xmlns="http://www.w3.org/2000/svg" xmlns:xlink="http://www.w3.org/1999/xlink" xmlns:sketch="http://www.bohemiancoding.com/sketch/ns">
    <!-- Generator: Sketch 3.3.2 (12043) - http://www.bohemiancoding.com/sketch -->
    <title>right</title>
    <desc>Created with Sketch.</desc>
    <defs></defs>
    <g id="Page-1" stroke="none" stroke-width="1" fill="none" fill-rule="evenodd" sketch:type="MSPage">
        <g id="illustration-donate" sketch:type="MSArtboardGroup" transform="translate(-1365.000000, -105.000000)">
            <g id="sea" sketch:type="MSLayerGroup" transform="translate(1590.000000, 438.416510)">
                <path d="M572.110944,8.74765478 L1066.17114,8.74765478 C1068.49007,8.74765478 1070.36994,6.86775473 1070.36994,4.54878049 C1070.36994,2.22980625 1068.49007,0.349906191 1066.17114,0.349906191 L572.110944,0.349906191 C569.792013,0.349906191 567.912149,2.22980625 567.912149,4.54878049 C567.912149,6.86775473 569.792013,8.74765478 572.110944,8.74765478 L572.110944,8.74765478 Z" id="Shape" fill="#CFCFCF" sketch:type="MSShapeGroup"></path>
                <path d="M431.801205,35.6904315 C434.120135,35.6904315 436,33.8105315 436,31.4915572 C436,29.172583 434.120135,27.2926829 431.801205,27.2926829 L4.74100712,27.2926829 C2.42207657,27.2926829 0.542211939,29.172583 0.542211939,31.4915572 C0.542211939,33.8105315 3.42207657,35.6904315 5.74100712,35.6904315 L431.801205,35.6904315 Z" id="Shape" fill="#EAEAEA" sketch:type="MSShapeGroup"></path>
                <path d="M609.550201,8.74765478 L643.142527,8.74765478 C645.461458,8.74765478 647.341322,6.86775473 647.341322,4.54878049 C647.341322,2.22980625 645.461458,0.349906191 643.142527,0.349906191 L609.550201,0.349906191 C607.23127,0.349906191 605.351406,2.22980625 605.351406,4.54878049 C605.351406,6.86775473 607.23127,8.74765478 609.550201,8.74765478 L609.550201,8.74765478 Z" id="Shape" fill="#EAEAEA" sketch:type="MSShapeGroup"></path>
                <path d="M440.198795,8.74765478 L541.670661,8.74765478 C543.989592,8.74765478 545.869456,6.86775473 545.869456,4.54878049 C545.869456,2.22980625 543.989592,0.349906191 541.670661,0.349906191 L440.198795,0.349906191 C437.879865,0.349906191 436,2.22980625 436,4.54878049 C436,6.86775473 437.879865,8.74765478 440.198795,8.74765478 L440.198795,8.74765478 Z" id="Shape" fill="#CFCFCF" sketch:type="MSShapeGroup"></path>
                <path d="M21.1987952,8.74765478 L122.670661,8.74765478 C124.989592,8.74765478 126.869456,6.86775473 126.869456,4.54878049 C126.869456,2.22980625 124.989592,0.349906191 122.670661,0.349906191 L21.1987952,0.349906191 C18.8798646,0.349906191 17,2.22980625 17,4.54878049 C17,6.86775473 18.8798646,8.74765478 21.1987952,8.74765478 L21.1987952,8.74765478 Z" id="Shape" fill="#CFCFCF" sketch:type="MSShapeGroup"></path>
                <path d="M819.569026,33.5909944 L987.234612,33.5909944 C989.553543,33.5909944 991.433407,31.7110943 991.433407,29.3921201 C991.433407,27.0731458 989.553543,25.1932458 987.234612,25.1932458 L819.569026,25.1932458 C817.250096,25.1932458 815.370231,27.0731458 815.370231,29.3921201 C815.370231,31.7110943 817.250096,33.5909944 819.569026,33.5909944 L819.569026,33.5909944 Z" id="Shape" fill="#E0E0E0" sketch:type="MSShapeGroup"></path>
                <path d="M203.569026,61.2335835 L371.234612,61.2335835 C373.553543,61.2335835 375.433407,59.3536834 375.433407,57.0347092 C375.433407,54.715735 373.553543,52.8358349 371.234612,52.8358349 L203.569026,52.8358349 C201.250096,52.8358349 199.370231,54.715735 199.370231,57.0347092 C199.370231,59.3536834 201.250096,61.2335835 203.569026,61.2335835 L203.569026,61.2335835 Z" id="Shape" fill="#E0E0E0" sketch:type="MSShapeGroup"></path>
                <path d="M609.46776,35.6904315 L723.82659,35.6904315 C726.14552,35.6904315 728.025385,33.8105315 728.025385,31.4915572 C728.025385,29.172583 726.14552,27.2926829 723.82659,27.2926829 L609.46776,27.2926829 C607.14883,27.2926829 605.268965,29.172583 605.268965,31.4915572 C605.268965,33.8105315 607.14883,35.6904315 609.46776,35.6904315 L609.46776,35.6904315 Z" id="Shape" fill="#E0E0E0" sketch:type="MSShapeGroup"></path>
                <path d="M521.608073,35.6904315 L584.797361,35.6904315 C587.116291,35.6904315 588.996156,33.8105315 588.996156,31.4915572 C588.996156,29.172583 587.116291,27.2926829 584.797361,27.2926829 L521.608073,27.2926829 C519.289143,27.2926829 517.409278,29.172583 517.409278,31.4915572 C517.409278,33.8105315 519.289143,35.6904315 521.608073,35.6904315 L521.608073,35.6904315 Z" id="Shape" fill="#E0E0E0" sketch:type="MSShapeGroup"></path>
                <path d="M716.557764,61.2335835 L778.902589,61.2335835 C781.221519,61.2335835 783.101384,59.3536834 783.101384,57.0347092 C783.101384,54.715735 781.221519,52.8358349 778.902589,52.8358349 L716.557764,52.8358349 C714.238834,52.8358349 712.358969,54.715735 712.358969,57.0347092 C712.358969,59.3536834 714.238834,61.2335835 716.557764,61.2335835 L716.557764,61.2335835 Z" id="Shape" fill="#CACACA" sketch:type="MSShapeGroup"></path>
                <path d="M862.956577,33.5909944 L917.602627,33.5909944 C919.921558,33.5909944 921.801422,31.7110943 921.801422,29.3921201 C921.801422,27.0731458 919.921558,25.1932458 917.602627,25.1932458 L862.956577,25.1932458 C860.637646,25.1932458 858.757781,27.0731458 858.757781,29.3921201 C858.757781,31.7110943 860.637646,33.5909944 862.956577,33.5909944 L862.956577,33.5909944 Z" id="Shape" fill="#CFCFCF" sketch:type="MSShapeGroup"></path>
                <path d="M246.956577,61.2335835 L301.602627,61.2335835 C303.921558,61.2335835 305.801422,59.3536834 305.801422,57.0347092 C305.801422,54.715735 303.921558,52.8358349 301.602627,52.8358349 L246.956577,52.8358349 C244.637646,52.8358349 242.757781,54.715735 242.757781,57.0347092 C242.757781,59.3536834 244.637646,61.2335835 246.956577,61.2335835 L246.956577,61.2335835 Z" id="Shape" fill="#CFCFCF" sketch:type="MSShapeGroup"></path>
                <path d="M641.873399,35.6904315 L702.132815,35.6904315 C704.451746,35.6904315 706.331611,33.8105315 706.331611,31.4915572 C706.331611,29.172583 704.451746,27.2926829 702.132815,27.2926829 L641.873399,27.2926829 C639.554469,27.2926829 637.674604,29.172583 637.674604,31.4915572 C637.674604,33.8105315 639.554469,35.6904315 641.873399,35.6904315 L641.873399,35.6904315 Z" id="Shape" fill="#FFFFFF" sketch:type="MSShapeGroup"></path>
            </g>
            <g id="Group" sketch:type="MSLayerGroup" transform="translate(1956.000000, 162.000000)">
                <ellipse id="Oval-17" fill="#CACACA" sketch:type="MSShapeGroup" cx="244.282362" cy="220.001872" rx="14.3966501" ry="14.468227"></ellipse>
                <ellipse id="Oval-17" fill="#F2F2F2" sketch:type="MSShapeGroup" cx="76.3214449" cy="7.80120882" rx="7.19832503" ry="7.23411351"></ellipse>
                <ellipse id="Oval-17" fill="#F2F2F2" sketch:type="MSShapeGroup" cx="100.315862" cy="36.7376629" rx="7.19832503" ry="7.23411351"></ellipse>
                <ellipse id="Oval-17" fill="#F2F2F2" sketch:type="MSShapeGroup" cx="239.483479" cy="140.426623" rx="7.19832503" ry="7.23411351"></ellipse>
                <ellipse id="Oval-17" fill="#F2F2F2" sketch:type="MSShapeGroup" cx="301.868963" cy="181.419933" rx="5.99860419" ry="6.02842792"></ellipse>
                <ellipse id="Oval-17" fill="#CACACA" sketch:type="MSShapeGroup" cx="163.301206" cy="190.462575" rx="16.7960917" ry="16.8795982"></ellipse>
                <ellipse id="Oval-17" fill="#F2F2F2" sketch:type="MSShapeGroup" cx="148.304695" cy="47.5888331" rx="11.9972084" ry="12.0568558"></ellipse>
                <ellipse id="Oval-17" fill="#F2F2F2" sketch:type="MSShapeGroup" cx="402.645513" cy="109.078798" rx="7.19832503" ry="7.23411351"></ellipse>
                <ellipse id="Oval-17" fill="#EAEAEA" sketch:type="MSShapeGroup" cx="118.911535" cy="169.96592" rx="8.39804587" ry="8.43979909"></ellipse>
                <ellipse id="Oval-17" fill="#CACACA" sketch:type="MSShapeGroup" cx="107.514187" cy="109.078798" rx="15.5963709" ry="15.6739126"></ellipse>
                <ellipse id="Oval-17" fill="#CCCCCC" sketch:type="MSShapeGroup" cx="379.850817" cy="135.603881" rx="15.5963709" ry="15.6739126"></ellipse>
                <ellipse id="Oval-17" fill="#F2F2F2" sketch:type="MSShapeGroup" cx="328.862681" cy="184.434147" rx="8.99790629" ry="9.04264189"></ellipse>
                <ellipse id="Oval-17" fill="#CCCCCC" sketch:type="MSShapeGroup" cx="218.488364" cy="109.681641" rx="8.99790629" ry="9.04264189"></ellipse>
                <ellipse id="Oval-17" fill="#CACACA" sketch:type="MSShapeGroup" cx="15.1356821" cy="29.5035493" rx="14.3966501" ry="14.468227"></ellipse>
            </g>
            <g id="Group" sketch:type="MSLayerGroup" transform="translate(2419.000000, 162.000000)">
                <path d="M86.6591896,74.3447539 L45.1591896,32.3001982 C42.637381,29.7452989 38.5218961,29.7184735 35.9669967,32.2402822 C33.4120974,34.7620908 33.3852721,38.8775757 35.9070807,41.432475 L77.4070807,83.4770307 C79.9288893,86.03193 84.0443742,86.0587554 86.5992736,83.5369468 C89.1541729,81.0151382 89.1809982,76.8996532 86.6591896,74.3447539 L86.6591896,74.3447539 Z" id="Shape" fill="#CACACA" sketch:type="MSShapeGroup"></path>
                <path d="M205.741061,194.429215 L165.241061,151.884659 C162.765899,149.284543 158.651573,149.183249 156.051457,151.658411 C153.451342,154.133573 153.350047,158.247899 155.825209,160.848014 L196.325209,203.39257 C198.800372,205.992686 202.914697,206.09398 205.514813,203.618818 C208.114928,201.143656 208.216223,197.02933 205.741061,194.429215 L205.741061,194.429215 Z" id="Shape" fill="#CACACA" sketch:type="MSShapeGroup"></path>
                <path d="M235.360963,111.410891 L202.533135,111.410891 C198.943284,111.410891 196.033135,114.32104 196.033135,117.910891 C196.033135,121.500742 198.943284,124.410891 202.533135,124.410891 L235.360963,124.410891 C238.950813,124.410891 241.860963,121.500742 241.860963,117.910891 C241.860963,114.32104 238.950813,111.410891 235.360963,111.410891 L235.360963,111.410891 Z" id="Shape" fill="#CACACA" sketch:type="MSShapeGroup"></path>
                <path d="M127.533135,228.955445 L127.533135,199.910891 C127.533135,196.32104 124.622986,193.410891 121.033135,193.410891 C117.443284,193.410891 114.533135,196.32104 114.533135,199.910891 L114.533135,228.955445 C114.533135,232.545296 117.443284,235.455445 121.033135,235.455445 C124.622986,235.455445 127.533135,232.545296 127.533135,228.955445 L127.533135,228.955445 Z" id="Shape" fill="#CACACA" sketch:type="MSShapeGroup"></path>
                <path d="M127.533135,35.9554448 L127.533135,6.91089109 C127.533135,3.32104022 124.622986,0.410891089 121.033135,0.410891089 C117.443284,0.410891089 114.533135,3.32104022 114.533135,6.91089109 L114.533135,35.9554448 C114.533135,39.5452957 117.443284,42.4554448 121.033135,42.4554448 C124.622986,42.4554448 127.533135,39.5452957 127.533135,35.9554448 L127.533135,35.9554448 Z" id="Shape" fill="#CACACA" sketch:type="MSShapeGroup"></path>
                <path d="M39.3609626,111.410891 L6.53313515,111.410891 C2.94328427,111.410891 0.0331351474,114.32104 0.0331351474,117.910891 C0.0331351474,121.500742 2.94328427,124.410891 6.53313515,124.410891 L39.3609626,124.410891 C42.9508135,124.410891 45.8609626,121.500742 45.8609626,117.910891 C45.8609626,114.32104 42.9508135,111.410891 39.3609626,111.410891 L39.3609626,111.410891 Z" id="Shape" fill="#CACACA" sketch:type="MSShapeGroup"></path>
                <path d="M196.936941,33.2701426 L156.187708,74.0193758 C153.6493,76.5577837 153.6493,80.6733561 156.187708,83.211764 C158.726116,85.7501719 162.841688,85.7501719 165.380096,83.211764 L206.129329,42.4625307 C208.667737,39.9241228 208.667737,35.8085504 206.129329,33.2701425 C203.590921,30.7317347 199.475349,30.7317347 196.936941,33.2701426 L196.936941,33.2701426 Z" id="Shape" fill="#CACACA" sketch:type="MSShapeGroup"></path>
                <path d="M77.4926464,152.259659 L35.4926464,193.25966 C32.9238417,195.767303 32.8742602,199.882576 35.3819029,202.451381 C37.8895456,205.020186 42.0048193,205.069767 44.5736239,202.562125 L86.5736239,161.562123 C89.1424286,159.054481 89.1920101,154.939207 86.6843674,152.370402 C84.1767247,149.801598 80.061451,149.752016 77.4926464,152.259659 L77.4926464,152.259659 Z" id="Shape" fill="#CACACA" sketch:type="MSShapeGroup"></path>
                <ellipse id="Oval-13" fill="#EAEAEA" sketch:type="MSShapeGroup" cx="201.315965" cy="38.1301923" rx="6.7361443" ry="6.7361443"></ellipse>
                <ellipse id="Oval-13" fill="#EAEAEA" sketch:type="MSShapeGroup" cx="201.315965" cy="199.410891" rx="6.7361443" ry="6.7361443"></ellipse>
                <ellipse id="Oval-13" fill="#EAEAEA" sketch:type="MSShapeGroup" cx="40.0331351" cy="36.3663366" rx="6.7361443" ry="6.7361443"></ellipse>
                <ellipse id="Oval-13" fill="#EAEAEA" sketch:type="MSShapeGroup" cx="40.0331351" cy="198.366337" rx="6.7361443" ry="6.7361443"></ellipse>
                <circle id="Oval-52" fill="#EAEAEA" sketch:type="MSShapeGroup" cx="120.99368" cy="118.044554" r="15.5"></circle>
            </g>
        </g>
    </g>
</svg>