<?xml version="1.0" encoding="UTF-8" standalone="no"?>
<svg width="140px" height="138px" viewBox="0 0 140 138" version="1.1" xmlns="http://www.w3.org/2000/svg" xmlns:xlink="http://www.w3.org/1999/xlink" xmlns:sketch="http://www.bohemiancoding.com/sketch/ns">
    <!-- Generator: Sketch 3.3.3 (12072) - http://www.bohemiancoding.com/sketch -->
    <title>sticker</title>
    <desc>Created with Sketch.</desc>
    <defs></defs>
    <g id="Page-1" stroke="none" stroke-width="1" fill="none" fill-rule="evenodd" sketch:type="MSPage">
        <g id="sticker" sketch:type="MSLayerGroup" transform="translate(-12.000000, -11.000000)">
            <g id="Page-1" sketch:type="MSShapeGroup">
                <g id="sticker">
                    <g id="Page-1">
                        <g id="Group" transform="translate(81.985148, 81.620961) rotate(15.000000) translate(-81.985148, -81.620961) translate(14.985148, 15.120961)">
                            <g id="sticker" transform="translate(0.000076, 0.242511)" fill="#E93C63">
                                <path d="M66.2819279,2.2098 C70.2905,2.2098 78.3232207,-0.5292 82.2143694,0.4308 C86.1049189,1.3938 91.9449369,7.5558 95.4916036,9.42 C99.0412658,11.286 107.425658,12.5982 110.424149,15.2598 C113.425635,17.9208 115.735761,26.0946 118.010541,29.4006 C120.288315,32.7042 127.103068,37.7664 128.523532,41.5188 C129.943995,45.2736 128.197622,53.5872 128.678099,57.57 C129.161572,61.5558 132.848428,69.2118 132.364955,73.1958 C131.881482,77.1804 126.473414,83.73 125.054149,87.4812 C123.633685,91.2336 123.342523,99.726 121.065347,103.0296 C118.790568,106.332 110.963937,109.6164 107.96245,112.2768 C104.96336,114.936 100.76727,122.3232 97.2176081,124.1886 C93.6703423,126.0546 85.2152568,125.3172 81.3241081,126.2796 C77.4335586,127.239 70.2887027,131.8248 66.2819279,131.8248 C62.2787477,131.8248 55.1338919,127.239 51.2427432,126.2796 C47.3521937,125.3172 38.8971081,126.0546 35.3498423,124.1886 C31.8025766,122.3232 27.6028919,114.936 24.6044009,112.2768 C21.6035135,109.6164 13.7768829,106.332 11.5021036,103.0296 C9.22492793,99.726 8.93376577,91.2336 7.5133018,87.4812 C6.09283784,83.73 0.686567568,77.1804 0.202495495,73.1958 C-0.280977477,69.2118 3.40647748,61.5558 3.88875225,57.57 C4.37222523,53.5872 2.62285586,45.2736 4.04272072,41.5188 C5.46318468,37.7664 12.2779369,32.7042 14.5563108,29.4006 C16.8310901,26.0946 19.1418153,17.9208 22.1433018,15.2598 C25.1411937,12.5982 33.5249865,11.286 37.0752477,9.42 C40.6219144,7.5558 46.4625315,1.3926 50.3530811,0.4308 C54.2442297,-0.5292 62.2751532,2.2098 66.2819279,2.2098 L66.2819279,2.2098 Z M66.2819279,126.3126 L66.2453829,126.3102 C65.0334054,126.2352 62.1020135,124.911 59.4492027,123.6768 C56.9719279,122.5236 54.6462252,121.4406 52.558964,120.9276 C50.4705045,120.411 47.9069595,120.2856 45.1942387,120.1554 C42.2448739,120.0138 39.0079414,119.82 37.9145856,119.3118 C36.858973,118.6902 34.8621757,116.1324 33.0696712,113.7816 C31.4143604,111.6114 29.8608964,109.5744 28.2547117,108.1506 C26.6449324,106.722 24.4366532,105.4236 22.0995676,104.0466 C19.5504009,102.5466 16.769982,100.8648 16.0372838,99.9042 C15.3902568,98.8626 14.8067342,95.6664 14.3100811,92.7474 C13.8505721,90.057 13.4198198,87.534 12.6601622,85.5252 C11.8957117,83.5122 10.543545,81.33 9.1116982,79.0224 C7.55224324,76.5078 5.87057207,73.7268 5.66807658,72.5388 C5.57940991,71.3184 6.54575676,68.2212 7.45818468,65.4102 C8.29991892,62.8164 9.09312613,60.3744 9.35313514,58.2348 C9.61314414,56.097 9.42622523,53.5344 9.22852252,50.8224 C9.01404505,47.8716 8.81514414,44.628 9.18898198,43.4784 C9.67545045,42.3558 11.9711982,40.0614 14.0872162,37.995 C16.0282973,36.099 17.8621396,34.3074 19.0855,32.5332 C20.3076622,30.7578 21.3303243,28.407 22.4110991,25.9176 C23.5931216,23.199 24.9249189,20.2344 25.7870225,19.3914 C26.7419865,18.6216 29.8393288,17.6586 32.6700721,16.8132 C35.2707613,16.0368 37.7270676,15.303 39.6328018,14.3022 C41.5355405,13.3002 43.5353333,11.6922 45.6495541,9.9906 C47.9512928,8.139 50.5016577,6.1356 51.658518,5.7864 L51.7537748,5.7582 L51.8550225,5.763 C51.8622117,5.757 52.0389459,5.739 52.3438874,5.739 C54.0261577,5.739 56.6436216,6.2526 58.9519505,6.7062 C61.6197387,7.23 64.1347568,7.7232 66.2819279,7.7232 C68.4350901,7.7232 70.9507072,7.2288 73.6149009,6.7062 C75.9334144,6.2514 78.5466847,5.739 80.222964,5.739 C80.6752838,5.739 80.8687928,5.778 80.9035405,5.7852 C82.0586036,6.1296 84.6089685,8.1348 86.9125045,9.9876 C89.0393063,11.6982 91.0343063,13.3026 92.9334505,14.301 C94.8397838,15.303 97.2960901,16.0368 99.8967793,16.8132 C102.728721,17.6586 105.828459,18.6252 106.767248,19.3812 C107.645527,20.2356 108.97373,23.199 110.153356,25.9116 C111.237725,28.407 112.259788,30.7578 113.478356,32.5284 C114.704712,34.3074 116.538554,36.099 118.480833,37.995 C120.596252,40.0614 122.893198,42.3582 123.373676,43.4676 C123.752905,44.634 123.554005,47.8776 123.338928,50.8308 C123.142423,53.547 122.956104,56.0994 123.212518,58.2312 C123.473725,60.3744 124.267532,62.8164 125.106869,65.4054 C126.021694,68.2212 126.98864,71.3232 126.900572,72.5232 C126.69568,73.7292 125.015806,76.5078 123.455752,79.0224 C122.023905,81.33 120.67114,83.5122 119.906689,85.5276 C119.147032,87.534 118.716878,90.057 118.260964,92.7288 C117.760117,95.6664 117.174797,98.8644 116.539153,99.8898 C115.795671,100.866 113.01705,102.5466 110.467883,104.0466 C108.129599,105.4236 105.921919,106.722 104.314536,108.1482 C102.703559,109.578 101.147698,111.618 99.4989775,113.7792 C97.6992838,116.139 95.7018874,118.695 94.6666441,119.3034 C93.5565135,119.82 90.3225766,120.0138 87.3738108,120.1554 C84.6598919,120.2856 82.0969459,120.411 80.0048919,120.9276 C77.9194279,121.4406 75.592527,122.526 73.1284324,123.672 C70.4714279,124.9086 67.5352432,126.2352 66.3166757,126.3102 L66.2819279,126.3126 L66.2819279,126.3126 Z M52.3438874,6.8796 C52.0892703,6.8796 51.9454865,6.8946 51.899955,6.8994 C50.9461892,7.1922 47.8518423,9.6816 46.3648784,10.8792 C44.2033288,12.618 42.1639955,14.259 40.1624054,15.3126 C38.1584189,16.3644 35.6511892,17.1138 32.9947838,17.907 C31.3089189,18.4098 27.3572613,19.5906 26.539491,20.2446 C25.8073919,20.964 24.1604685,24.7518 23.4577252,26.3688 C22.3511892,28.914 21.3075586,31.314 20.0230901,33.18 C18.7368243,35.0454 16.8640405,36.876 14.8816216,38.8122 C13.6211171,40.0434 10.6693559,42.9252 10.2511847,43.884 C9.93545946,44.8638 10.2368063,48.9804 10.3650135,50.739 C10.5657117,53.5086 10.7556261,56.124 10.483036,58.3728 C10.2104459,60.6228 9.40046396,63.1152 8.54315315,65.7582 C7.99797297,67.4388 6.72368919,71.3622 6.79737838,72.4026 C6.97291441,73.4136 9.14944144,76.9224 10.0786441,78.42 C11.541045,80.778 12.9213694,83.0022 13.7247613,85.122 C14.5239595,87.2328 14.9636982,89.8086 15.4285991,92.5356 C15.7287477,94.2954 16.4237027,98.3676 16.9736757,99.2586 C17.6009324,100.0752 21.1577838,102.1692 22.6759009,103.0638 C25.0633108,104.4684 27.3171216,105.7962 29.0083784,107.2962 C30.6978378,108.7926 32.2854505,110.874 33.9647252,113.0748 C35.0431036,114.489 37.5455405,117.7716 38.442991,118.3038 C39.3757883,118.7328 43.4915991,118.932 45.2481577,119.016 C48.018991,119.151 50.636455,119.2764 52.8303559,119.82 C55.0260541,120.3606 57.4002838,121.4652 59.9147027,122.6364 C61.6269279,123.4332 65.1418423,125.0688 66.2819279,125.1684 C67.4262072,125.0688 70.9471126,123.4296 72.6485541,122.6388 C75.1641712,121.4664 77.5401982,120.3606 79.7317027,119.82 C81.9309955,119.2764 84.5484595,119.151 87.3192928,119.016 C89.0758514,118.932 93.1910631,118.7328 94.1394369,118.2942 C95.0201126,117.7728 97.4266937,114.6168 98.5841532,113.1018 C100.276009,110.8812 101.863622,108.7986 103.559671,107.2938 C105.250329,105.7962 107.50414,104.4684 109.89095,103.0638 C111.409667,102.1692 114.966518,100.0752 115.603959,99.2418 C116.143149,98.3676 116.838104,94.2954 117.135257,92.5566 C117.603153,89.8086 118.042892,87.2328 118.84209,85.122 C119.645482,83.0022 121.027005,80.778 122.488207,78.42 C123.418009,76.9224 125.595135,73.4136 125.771869,72.3852 C125.843761,71.3622 124.615608,67.5804 124.026095,65.763 C123.166387,63.1152 122.356405,60.6228 122.083216,58.368 C121.811824,56.1288 122.001739,53.52 122.202437,50.7606 C122.331243,48.9888 122.631392,44.8656 122.310275,43.8708 C121.897495,42.9252 118.945135,40.0434 117.685829,38.8122 C115.702811,36.876 113.830626,35.0454 112.541365,33.1764 C111.258694,31.3152 110.216261,28.914 109.111523,26.3748 C108.405784,24.7518 106.759459,20.964 106.012982,20.2344 C105.20959,19.5906 101.259131,18.4098 99.5702703,17.907 C96.9162613,17.1138 94.4084324,16.3644 92.4026486,15.3102 C90.4064505,14.2602 88.3701126,12.6228 86.2145541,10.8888 C84.8270405,9.7728 81.6122748,7.1868 80.6165721,6.8886 C80.6393378,6.8958 80.5021441,6.8796 80.222964,6.8796 C78.6557207,6.8796 76.1011622,7.38 73.8473514,7.8228 C71.1142613,8.3586 68.5459234,8.8638 66.2819279,8.8638 C64.0233243,8.8638 61.4561847,8.3598 58.7380721,7.8276 C56.4752748,7.3824 53.9159234,6.8796 52.3438874,6.8796 L52.3438874,6.8796 L52.3438874,6.8796 Z" id="Fill-1"></path>
                            </g>
                            <path d="M34.9178426,33.0418803 L45.1488426,33.0418803 L45.1488426,36.1618803 L40.7288426,36.1618803 L40.7288426,37.2538803 L45.4478426,37.2538803 L45.4478426,39.4898803 C45.4478426,40.4432184 44.975514,40.9198803 44.0308426,40.9198803 L42.1068426,40.9198803 L41.8338426,39.7758803 L43.7708426,39.7758803 C44.1261777,39.7758803 44.3038426,39.5982154 44.3038426,39.2428803 L44.3038426,38.2418803 L40.7288426,38.2418803 L40.7288426,41.8038803 L39.5848426,41.8038803 L39.5848426,38.5148803 C38.1288354,39.8842205 36.464852,40.9068769 34.5928426,41.5828803 L34.0078426,40.5298803 C35.6891844,40.0358778 37.1971693,39.2732188 38.5318426,38.2418803 L34.8658426,38.2418803 L35.3728426,35.1738803 L39.5848426,35.1738803 L39.5848426,34.0298803 L34.9178426,34.0298803 L34.9178426,33.0418803 L34.9178426,33.0418803 Z M39.5848426,36.1618803 L36.3478426,36.1618803 L36.1528426,37.2538803 L39.5848426,37.2538803 L39.5848426,36.1618803 L39.5848426,36.1618803 Z M44.0048426,34.0298803 L40.7288426,34.0298803 L40.7288426,35.1738803 L44.0048426,35.1738803 L44.0048426,34.0298803 L44.0048426,34.0298803 Z M36.8418426,30.5588803 L39.9358426,30.5588803 L39.9358426,31.5468803 L38.3108426,31.5468803 C38.5015103,31.9022154 38.661842,32.2488786 38.7918426,32.5868803 L37.7128426,32.8208803 C37.6088421,32.4568785 37.4311772,32.032216 37.1798426,31.5468803 L36.2308426,31.5468803 C35.8581741,32.0755496 35.4465116,32.5652114 34.9958426,33.0158803 L34.0078426,32.4958803 C34.9091805,31.6638761 35.6111735,30.7278855 36.1138426,29.6878803 L37.2578426,29.6878803 C37.127842,29.9825484 36.9891767,30.2728789 36.8418426,30.5588803 L36.8418426,30.5588803 L36.8418426,30.5588803 Z M42.3408426,30.5588803 L46.0848426,30.5588803 L46.0848426,31.5468803 L43.9658426,31.5468803 C44.1565103,31.8935487 44.3255086,32.2315453 44.4728426,32.5608803 L43.4198426,32.8468803 C43.2811753,32.4742118 43.0818439,32.0408828 42.8218426,31.5468803 L41.8208426,31.5468803 C41.5348412,32.0235493 41.2098445,32.4655449 40.8458426,32.8728803 L39.8448426,32.4308803 C40.5988464,31.6075428 41.1665074,30.6975519 41.5478426,29.7008803 L42.6788426,29.7008803 C42.5748421,29.9868817 42.4621766,30.2728789 42.3408426,30.5588803 L42.3408426,30.5588803 L42.3408426,30.5588803 Z M48.0608426,31.3648803 L58.2268426,31.3648803 L58.2268426,32.5608803 L48.0608426,32.5608803 L48.0608426,31.3648803 L48.0608426,31.3648803 Z M47.2028426,39.3338803 L59.0328426,39.3338803 L59.0328426,40.5298803 L47.2028426,40.5298803 L47.2028426,39.3338803 L47.2028426,39.3338803 Z M62.0098426,32.3528803 C61.5158402,31.8588778 60.9135129,31.3215499 60.2028426,30.7408803 L60.9958426,29.9088803 C61.9058472,30.6715508 62.5168411,31.2175453 62.8288426,31.5468803 L62.0098426,32.3528803 L62.0098426,32.3528803 Z M60.0858426,41.3878803 C60.6578455,40.0618737 61.2255065,38.5018893 61.7888426,36.7078803 L62.8678426,37.1368803 C62.1051722,39.4335584 61.5331779,41.0065427 61.1518426,41.8558803 L60.0858426,41.3878803 L60.0858426,41.3878803 Z M61.8538426,35.7198803 C61.33384,35.2085444 60.7011797,34.64955 59.9558426,34.0428803 L60.7358426,33.1978803 C61.6891807,33.9865509 62.3348409,34.5498786 62.6728426,34.8878803 L61.8538426,35.7198803 L61.8538426,35.7198803 Z M70.2258426,35.7588803 L64.8958426,35.7588803 C64.8698425,38.5148941 64.3975139,40.5255406 63.4788426,41.7908803 L62.4388426,41.2318803 C63.3141803,39.983874 63.7518426,38.0902263 63.7518426,35.5508803 L63.7518426,31.1438803 L67.3658426,31.1438803 L67.3658426,29.7138803 L68.5098426,29.7138803 L68.5098426,31.1438803 L71.7988426,31.1438803 L71.7988426,32.2748803 L71.1358426,34.2508803 L70.0828426,33.8998803 L70.6418426,32.2748803 L68.5098426,32.2748803 L68.5098426,34.6668803 L71.3698426,34.6668803 L71.3698426,35.7588803 C71.0145075,37.2235543 70.3255144,38.4282089 69.3028426,39.3728803 C70.0655131,39.858216 71.0665031,40.2438789 72.3058426,40.5298803 L71.7728426,41.7128803 C70.3168354,41.2968782 69.1815134,40.7725501 68.3668426,40.1398803 C67.4048378,40.8332171 66.3561816,41.3662118 65.2208426,41.7388803 L64.5708426,40.7378803 C65.7061816,40.3132115 66.6811719,39.8365496 67.4958426,39.3078803 C66.8891729,38.6232102 66.278179,37.7218859 65.6628426,36.6038803 L66.5598426,36.1488803 C67.1838458,37.2062189 67.7948396,38.0382106 68.3928426,38.6448803 C68.4188428,38.6188802 68.4491758,38.5928804 68.4838426,38.5668803 C69.28118,37.8562101 69.8618408,36.9202194 70.2258426,35.7588803 L70.2258426,35.7588803 L70.2258426,35.7588803 Z M64.8958426,34.6668803 L67.3658426,34.6668803 L67.3658426,32.2748803 L64.8958426,32.2748803 L64.8958426,34.6668803 L64.8958426,34.6668803 Z M76.7908426,30.5328803 C79.3821889,30.4462132 81.8738307,30.1862158 84.2658426,29.7528803 L84.7858426,30.7798803 C83.7025039,31.0052147 82.5671819,31.1872129 81.3798426,31.3258803 L81.3798426,33.3668803 L85.2408426,33.3668803 L85.2408426,34.5108803 L81.3798426,34.5108803 L81.3798426,36.3438803 L84.4998426,36.3438803 L84.4998426,41.8038803 L83.3558426,41.8038803 L83.3558426,41.0888803 L78.2598426,41.0888803 L78.2598426,41.7518803 L77.1158426,41.7518803 L77.1158426,36.3438803 L80.1838426,36.3438803 L80.1838426,34.5108803 L76.4008426,34.5108803 L76.4008426,33.3668803 L80.1838426,33.3668803 L80.1838426,31.4558803 C79.1958377,31.5425474 78.1731813,31.6032134 77.1158426,31.6378803 L76.7908426,30.5328803 L76.7908426,30.5328803 Z M83.3558426,37.4358803 L78.2598426,37.4358803 L78.2598426,39.9968803 L83.3558426,39.9968803 L83.3558426,37.4358803 L83.3558426,37.4358803 Z M75.5688426,32.5738803 C74.9881731,32.0105441 74.2861801,31.3995502 73.4628426,30.7408803 L74.2428426,29.8958803 C75.3001813,30.7538846 76.0151741,31.3648785 76.3878426,31.7288803 L75.5688426,32.5738803 L75.5688426,32.5738803 Z M73.2548426,41.3358803 C73.7835119,40.0358738 74.3035067,38.5105557 74.8148426,36.7598803 L75.9458426,37.1758803 C75.2611725,39.4205582 74.7411777,40.9588761 74.3858426,41.7908803 L73.2548426,41.3358803 L73.2548426,41.3358803 Z M75.0098426,35.9278803 C74.4551732,35.3732108 73.7878465,34.7795501 73.0078426,34.1468803 L73.8008426,33.3018803 C74.806181,34.1338844 75.4821742,34.7275452 75.8288426,35.0828803 L75.0098426,35.9278803 L75.0098426,35.9278803 Z M86.2288426,30.3638803 C88.3781867,30.3292134 90.445166,30.1472153 92.4298426,29.8178803 L92.8718426,30.7148803 C92.0051716,30.8708811 91.1038473,30.9965465 90.1678426,31.0918803 L90.1678426,32.0278803 L92.9108426,32.0278803 L92.9108426,32.9118803 L90.1678426,32.9118803 L90.1678426,33.6788803 L92.6248426,33.6788803 L92.6248426,37.7088803 L90.1678426,37.7088803 L90.1678426,38.5798803 L92.8068426,38.5798803 L92.8068426,39.4638803 L90.1678426,39.4638803 L90.1678426,40.3218803 C91.0431803,40.2525466 91.8968385,40.1745474 92.7288426,40.0878803 L92.7678426,40.4908803 C93.7905144,38.7835384 94.3018426,36.6125601 94.3018426,33.9778803 L94.3018426,33.1978803 L93.3138426,33.1978803 L93.3138426,32.0538803 L94.3018426,32.0538803 L94.3018426,29.7138803 L95.3938426,29.7138803 L95.3938426,32.0538803 L97.8378427,32.0538803 L97.8378427,39.0608803 C97.8378427,40.2395528 97.7251767,40.9783788 97.4998427,41.2773803 C97.2745082,41.5763818 96.8801788,41.7258803 96.3168426,41.7258803 L95.0818426,41.7258803 L94.7958426,40.5818803 L95.9138426,40.5818803 C96.2518443,40.5818803 96.4750088,40.473548 96.5833426,40.2568803 C96.6916765,40.0402125 96.7458426,39.3772192 96.7458426,38.2678803 L96.7458426,33.1978803 L95.3938426,33.1978803 L95.3938426,33.9778803 C95.3938426,37.184563 94.6961829,39.7975369 93.3008426,41.8168803 L92.4038426,41.0758803 C92.4125093,41.0498802 92.4211759,41.032547 92.4298426,41.0238803 C90.4798329,41.3185484 88.3608541,41.5048799 86.0728426,41.5828803 L86.0338426,40.5428803 C87.0651811,40.4995467 88.079171,40.4518805 89.0758426,40.3998803 L89.0758426,39.4638803 L86.3068426,39.4638803 L86.3068426,38.5798803 L89.0758426,38.5798803 L89.0758426,37.7088803 L86.5538426,37.7088803 L86.5538426,33.6788803 L89.0758426,33.6788803 L89.0758426,32.9118803 L86.0988426,32.9118803 L86.0988426,32.0278803 L89.0758426,32.0278803 L89.0758426,31.1958803 C88.2351718,31.2478805 87.3641805,31.2782136 86.4628426,31.2868803 L86.2288426,30.3638803 L86.2288426,30.3638803 Z M89.0758426,36.8768803 L89.0758426,36.0708803 L87.5938426,36.0708803 L87.5938426,36.8768803 L89.0758426,36.8768803 L89.0758426,36.8768803 Z M90.1678426,36.0708803 L90.1678426,36.8768803 L91.5848426,36.8768803 L91.5848426,36.0708803 L90.1678426,36.0708803 L90.1678426,36.0708803 Z M89.0758426,35.2778803 L89.0758426,34.5108803 L87.5938426,34.5108803 L87.5938426,35.2778803 L89.0758426,35.2778803 L89.0758426,35.2778803 Z M90.1678426,34.5108803 L90.1678426,35.2778803 L91.5848426,35.2778803 L91.5848426,34.5108803 L90.1678426,34.5108803 L90.1678426,34.5108803 Z" id="第二波活動" fill="#FFFFFF"></path>
                            <path d="M25.9739722,54.1553318 L47.5339722,54.1553318 L47.5339722,66.8953318 L30.2299722,66.8953318 L30.2299722,73.6713318 C30.2299722,74.511336 30.6686344,74.9313318 31.5459722,74.9313318 L45.5739722,74.9313318 C46.5446437,74.9313318 47.0299722,74.4553366 47.0299722,73.5033318 L47.0299722,70.4793318 L50.4739722,71.0953318 L50.4739722,75.2113318 C50.4739722,77.2646754 49.456649,78.2913318 47.4219722,78.2913318 L29.8659722,78.2913318 C27.8126286,78.2913318 26.7859722,77.2646754 26.7859722,75.2113318 L26.7859722,60.8193318 L30.2299722,60.8193318 L30.2299722,63.5633318 L44.0899722,63.5633318 L44.0899722,57.4873318 L25.9739722,57.4873318 L25.9739722,54.1553318 Z M77.4939722,67.6793318 L77.4939722,79.1033318 L74.2739722,79.1033318 L74.2739722,77.7873318 L67.4419722,77.7873318 L67.4419722,79.1033318 L64.1939722,79.1033318 L64.1939722,67.6793318 L77.4939722,67.6793318 Z M74.2739722,70.6753318 L67.4419722,70.6753318 L67.4419722,74.7913318 L74.2739722,74.7913318 L74.2739722,70.6753318 Z M78.1379722,65.3833318 L63.8299722,65.3833318 L63.8299722,62.2473318 L69.2339722,62.2473318 L69.2339722,58.9153318 L63.0459722,58.9153318 L63.0459722,57.8233318 C61.27263,61.1646819 59.2939831,64.3099838 57.1099722,67.2593318 C58.1739775,67.091331 59.2939663,66.9326659 60.4699722,66.7833318 C60.2273043,65.9806612 59.9473071,65.1220031 59.6299722,64.2073318 L61.9259722,63.3673318 C62.8593102,65.7566771 63.5406367,67.9779882 63.9699722,70.0313318 L61.4219722,70.9273318 C61.3473051,70.4419961 61.2539727,69.9753341 61.1419722,69.5273318 C58.3419582,69.9753341 55.7753172,70.479329 53.4419722,71.0393318 L52.2379722,68.0433318 C53.2459772,67.7259969 54.0579691,67.1100031 54.6739722,66.1953318 C55.2899752,65.2993274 55.8966358,64.3846698 56.4939722,63.4513318 C55.3926333,63.6379994 54.3659769,63.8433307 53.4139722,64.0673318 L52.2379722,61.0153318 C53.1713102,60.8099975 53.8153037,60.3526687 54.1699722,59.6433318 C55.1593104,57.6459885 56.0646347,55.3966777 56.8859722,52.8953318 L59.8539722,53.3153318 C58.9766344,55.7980109 57.9593113,58.1779871 56.8019722,60.4553318 C57.2873079,60.3806648 57.8006361,60.3153321 58.3419722,60.2593318 C59.0326423,59.0646592 59.723302,57.7860053 60.4139722,56.4233318 L63.0459722,57.3473318 L63.0459722,55.8073318 L69.2339722,55.8073318 L69.2339722,52.8393318 L72.4539722,52.8393318 L72.4539722,55.8073318 L78.9219722,55.8073318 L78.9219722,58.9153318 L72.4539722,58.9153318 L72.4539722,62.2473318 L78.1379722,62.2473318 L78.1379722,65.3833318 Z M52.0699722,77.9273318 C52.6113082,76.2286567 52.9753046,74.1660106 53.1619722,71.7393318 L55.7939722,71.9633318 C55.7753054,74.595345 55.4673085,76.8726556 54.8699722,78.7953318 L52.0699722,77.9273318 Z M56.8859722,77.6193318 C56.9046389,75.659322 56.7646403,73.7553411 56.4659722,71.9073318 L59.1259722,71.6553318 C59.5179741,73.6153416 59.7419719,75.575322 59.7979722,77.5353318 L56.8859722,77.6193318 Z M61.1419722,76.6113318 C60.8993043,74.8193229 60.5353079,73.1206732 60.0499722,71.5153318 L62.5139722,70.9273318 C63.1299752,72.626007 63.5966372,74.3526564 63.9139722,76.1073318 L61.1419722,76.6113318 Z M106.697972,58.4393318 L95.3299722,58.4393318 L95.3299722,60.8193318 L104.121972,60.8193318 L104.121972,69.9753318 L97.5979722,69.9753318 C100.771321,72.2340098 103.944623,73.9046598 107.117972,74.9873318 L105.269972,78.4313318 C101.629954,76.6393229 98.3166538,74.3713456 95.3299722,71.6273318 L95.3299722,79.1033318 L91.8859722,79.1033318 L91.8859722,72.1313318 C89.0486246,74.838012 85.8286568,76.9566575 82.2259722,78.4873318 L80.2659722,75.3233318 C83.9246571,74.1286592 87.1726246,72.3460104 90.0099722,69.9753318 L82.9539722,69.9753318 L82.9539722,60.8193318 L91.8859722,60.8193318 L91.8859722,58.4393318 L80.5459722,58.4393318 L80.5459722,55.1913318 L91.8859722,55.1913318 L91.8859722,52.8393318 L95.3299722,52.8393318 L95.3299722,55.1913318 L106.697972,55.1913318 L106.697972,58.4393318 Z M91.8859722,67.0633318 L91.8859722,63.7313318 L86.2859722,63.7313318 L86.2859722,67.0633318 L91.8859722,67.0633318 Z M95.3299722,63.7313318 L95.3299722,67.0633318 L100.789972,67.0633318 L100.789972,63.7313318 L95.3299722,63.7313318 Z" id="已結束" fill="#FFFFFF"></path>
                            <path d="M33.3084994,91.8150445 L37.6644994,91.8150445 L37.6644994,92.6310445 L33.3084994,92.6310445 L33.3084994,91.8150445 Z M37.4364994,93.3990445 L37.4364994,96.0510445 L33.4764994,96.0510445 L33.4764994,93.3990445 L37.4364994,93.3990445 Z M36.5244994,94.2270445 L34.3884994,94.2270445 L34.3884994,95.2350445 L36.5244994,95.2350445 L36.5244994,94.2270445 Z M38.3964994,91.0830445 L32.6964994,91.0830445 L32.6964994,92.7750445 C32.6964994,94.2150517 32.3405029,95.5550383 31.6284994,96.7950445 L30.7284994,96.1470445 C31.3685026,95.1950398 31.6884994,94.071051 31.6884994,92.7750445 L31.6884994,90.1710445 L38.3964994,90.1710445 L38.3964994,88.9710445 L39.4044994,88.9710445 L39.4044994,90.1710445 L40.6524994,90.1710445 C40.4604984,89.9230433 40.1925011,89.6430461 39.8484994,89.3310445 L40.5444994,88.8750445 C40.9045012,89.1790461 41.2084981,89.4750431 41.4564994,89.7630445 L40.7964994,90.1710445 L41.8404994,90.1710445 L41.8404994,91.0830445 L39.4044994,91.0830445 C39.4124994,92.3950511 39.4644989,93.5390397 39.5604994,94.5150445 C40.1685024,93.811041 40.6404977,93.0070491 40.9764994,92.1030445 L41.8524994,92.4870445 C41.4204972,93.7670509 40.7005044,94.8870397 39.6924994,95.8470445 C39.7404996,96.143046 39.796499,96.4150433 39.8604994,96.6630445 C40.1645009,98.0230513 40.448498,98.7110445 40.7124994,98.7270445 C40.9205004,98.7110445 41.1204984,98.1310503 41.3124994,96.9870445 L42.0564994,97.6950445 C41.792498,99.2630524 41.3445025,100.043045 40.7124994,100.035045 C39.9844957,100.035045 39.4165014,99.1270536 39.0084994,97.3110445 C38.944499,97.0630433 38.8924996,96.8110458 38.8524994,96.5550445 C38.6204982,96.7230454 38.3805006,96.8870437 38.1324994,97.0470445 L37.4484994,96.2070445 C37.8885016,95.9510433 38.2924975,95.6670461 38.6604994,95.3550445 C38.5004986,94.0910382 38.4124994,92.6670525 38.3964994,91.0830445 L38.3964994,91.0830445 Z M37.1484994,98.8470445 C37.1484994,99.5590481 36.8205026,99.9150445 36.1644994,99.9150445 L34.2204994,99.9150445 C33.5644961,99.9150445 33.2364994,99.5590481 33.2364994,98.8470445 L33.2364994,96.9870445 L34.2444994,96.9870445 L34.2444994,98.6310445 C34.2444994,98.8470456 34.3564982,98.9550445 34.5804994,98.9550445 L35.8284994,98.9550445 C36.1005007,98.9550445 36.2364994,98.8190459 36.2364994,98.5470445 L36.2364994,97.8030445 L37.1484994,98.0550445 L37.1484994,98.8470445 Z M34.4724994,96.6630445 L35.2284994,96.1830445 C35.6205013,96.5830465 35.9604979,96.9830425 36.2484994,97.3830445 L35.4204994,97.8870445 C35.1804982,97.4950426 34.8645013,97.0870467 34.4724994,96.6630445 L34.4724994,96.6630445 Z M37.2204994,97.2150445 L38.1084994,97.0350445 C38.4525011,97.8110484 38.7124985,98.5630409 38.8884994,99.2910445 L37.9404994,99.4590445 C37.7964986,98.7630411 37.556501,98.0150485 37.2204994,97.2150445 L37.2204994,97.2150445 Z M31.2204994,99.4590445 C31.5165008,98.7150408 31.7324987,97.9470485 31.8684994,97.1550445 L32.7804994,97.2990445 C32.6684988,98.1150486 32.4725008,98.9030407 32.1924994,99.6630445 L31.2204994,99.4590445 Z M53.2284994,92.2830445 L53.2284994,98.9910445 C53.2284994,99.7030481 52.9005026,100.059045 52.2444994,100.059045 L50.9724994,100.059045 L50.7084994,99.0030445 L51.8124994,99.0030445 C52.0845007,99.0030445 52.2204994,98.8670459 52.2204994,98.5950445 L52.2204994,92.2830445 L50.5164994,92.2830445 L50.5164994,91.2270445 L52.2204994,91.2270445 L52.2204994,88.9710445 L53.2284994,88.9710445 L53.2284994,91.2270445 L53.9844994,91.2270445 L53.9844994,92.2830445 L53.2284994,92.2830445 Z M50.5404994,93.7230445 L51.3324994,93.3870445 C51.6845011,94.3550494 51.9484985,95.2830401 52.1244994,96.1710445 L51.2364994,96.5070445 C51.1244988,95.6510403 50.8925011,94.7230495 50.5404994,93.7230445 L50.5404994,93.7230445 Z M42.9204994,92.1390445 L45.9684994,92.1390445 L45.9684994,93.0510445 L42.9204994,93.0510445 L42.9204994,92.1390445 Z M42.9204994,94.0110445 L45.9684994,94.0110445 L45.9684994,94.9230445 L42.9204994,94.9230445 L42.9204994,94.0110445 Z M50.0724994,90.0750445 L50.0724994,94.6710445 C50.0804994,94.6550445 50.0884993,94.6430446 50.0964994,94.6350445 L50.8044994,95.0670445 C50.5724982,95.4270463 50.3285006,95.7830428 50.0724994,96.1350445 L50.0724994,99.0990445 C50.0724994,99.7550478 49.7685024,100.083045 49.1604994,100.083045 L48.1524994,100.083045 L47.9004994,99.0750445 L48.7764994,99.0750445 C49.0005005,99.0750445 49.1124994,98.9670456 49.1124994,98.7510445 L49.1124994,97.2870445 C48.3604956,98.1030486 47.5045042,98.8590411 46.5444994,99.5550445 L45.8964994,98.8470445 L45.8964994,99.9390445 L45.0324994,99.9390445 L45.0324994,99.3510445 L43.7844994,99.3510445 L43.7844994,100.083045 L42.9204994,100.083045 L42.9204994,95.9070445 L45.8964994,95.9070445 L45.8964994,98.7510445 C47.0405051,97.9670406 48.0324952,97.1190491 48.8724994,96.2070445 C48.0244951,96.3750454 47.1205042,96.515044 46.1604994,96.6270445 L46.0644994,95.6190445 C46.2805004,95.5950444 46.4964983,95.5750446 46.7124994,95.5590445 L46.7124994,90.0750445 L47.6964994,90.0750445 L48.0564994,88.8630445 L49.0644994,88.9710445 L48.7284994,90.0750445 L50.0724994,90.0750445 Z M43.7844994,96.8670445 L43.7844994,98.3910445 L45.0324994,98.3910445 L45.0324994,96.8670445 L43.7844994,96.8670445 Z M49.1124994,94.4070445 L47.6724994,94.4070445 L47.6724994,95.4630445 C48.1605018,95.4070443 48.640497,95.3510448 49.1124994,95.2950445 L49.1124994,94.4070445 Z M49.1124994,92.7270445 L47.6724994,92.7270445 L47.6724994,93.5910445 L49.1124994,93.5910445 L49.1124994,92.7270445 Z M49.1124994,90.9870445 L47.6724994,90.9870445 L47.6724994,91.8990445 L49.1124994,91.8990445 L49.1124994,90.9870445 Z M46.1964994,91.1790445 L42.6804994,91.1790445 L42.6804994,90.1710445 L43.9524994,90.1710445 C43.880499,89.8030427 43.7805,89.4190465 43.6524994,89.0190445 L44.6964994,88.9110445 C44.8165,89.3430467 44.912499,89.7630425 44.9844994,90.1710445 L46.1964994,90.1710445 L46.1964994,91.1790445 Z M54.6084994,92.5590445 C55.7525051,91.3990387 56.5724969,90.171051 57.0684994,88.8750445 L58.0284994,89.2350445 C57.7724981,89.8350475 57.476501,90.4190417 57.1404994,90.9870445 L57.1404994,96.0030445 L56.0964994,96.0030445 L56.0964994,92.4750445 C55.824498,92.8030462 55.5405008,93.123043 55.2444994,93.4350445 L54.6084994,92.5590445 Z M60.1164994,89.7270445 L65.4444994,89.7270445 L65.4444994,90.6870445 L64.6644994,92.4390445 L63.7164994,92.0550445 L64.3404994,90.6870445 L59.6244994,90.6870445 C59.2724976,91.3270477 58.8565018,91.9510415 58.3764994,92.5590445 L57.5844994,91.8390445 C58.4005034,90.9190399 58.9884976,89.9630495 59.3484994,88.9710445 L60.4284994,88.9710445 C60.3244988,89.2190458 60.2204999,89.4710433 60.1164994,89.7270445 L60.1164994,89.7270445 Z M62.3484994,91.3590445 L62.3484994,94.6350445 C62.3484994,95.4510486 61.9365035,95.8590445 61.1124994,95.8590445 L59.8764994,95.8590445 L59.6124994,94.8510445 L60.8004994,94.8510445 C61.128501,94.8510445 61.2924994,94.6870462 61.2924994,94.3590445 L61.2924994,91.3590445 L62.3484994,91.3590445 Z M57.7764994,94.4910445 C58.4165026,93.787041 58.976497,93.0230487 59.4564994,92.1990445 L60.3084994,92.6790445 C59.8524971,93.5430489 59.3165024,94.3430409 58.7004994,95.0790445 L57.7764994,94.4910445 Z M64.5084994,95.0790445 C64.0684972,94.2310403 63.5765021,93.4510481 63.0324994,92.7390445 L63.8364994,92.2110445 C64.3965022,92.9150481 64.9244969,93.6990402 65.4204994,94.5630445 L64.5084994,95.0790445 Z M63.6204994,97.6350445 L63.6204994,98.6910445 C63.6204994,99.5070486 63.2365032,99.9150445 62.4684994,99.9150445 L58.6884994,99.9150445 C57.9284956,99.9150445 57.5484994,99.5350483 57.5484994,98.7750445 L57.5484994,96.4230445 L58.6044994,96.4230445 L58.6044994,98.4030445 C58.6044994,98.7070461 58.7564978,98.8590445 59.0604994,98.8590445 L62.0724994,98.8590445 C62.400501,98.8590445 62.5644994,98.6950462 62.5644994,98.3670445 L62.5644994,97.3710445 L63.6204994,97.6350445 Z M59.5764994,96.5790445 L60.3804994,95.9790445 C60.9245021,96.475047 61.4044973,96.9710421 61.8204994,97.4670445 L60.9444994,98.0910445 C60.5844976,97.5950421 60.1285021,97.0910471 59.5764994,96.5790445 L59.5764994,96.5790445 Z M63.7644994,96.6750445 L64.7124994,96.3510445 C65.2565021,97.2630491 65.7004976,98.1510402 66.0444994,99.0150445 L64.9764994,99.3510445 C64.704498,98.5110403 64.300502,97.6190493 63.7644994,96.6750445 L63.7644994,96.6750445 Z M54.7644994,99.2670445 C55.1965015,98.3950402 55.5324982,97.4830493 55.7724994,96.5310445 L56.7684994,96.7830445 C56.5524983,97.7590494 56.2325015,98.6910401 55.8084994,99.5790445 L54.7644994,99.2670445 Z M67.1724994,99.8910445 L67.1724994,90.7830445 L68.5524994,90.7830445 L69.0804994,89.0070445 L70.1244994,89.1150445 L69.6084994,90.7830445 L71.5644994,90.7830445 L71.5644994,99.6150445 L70.5564994,99.6150445 L70.5564994,98.7750445 L68.1804994,98.7750445 L68.1804994,99.8910445 L67.1724994,99.8910445 Z M68.1804994,95.2350445 L68.1804994,97.7670445 L70.5564994,97.7670445 L70.5564994,95.2350445 L68.1804994,95.2350445 Z M68.1804994,91.7910445 L68.1804994,94.2750445 L70.5564994,94.2750445 L70.5564994,91.7910445 L68.1804994,91.7910445 Z M71.6724994,93.0390445 C72.608504,91.7910383 73.2204979,90.419052 73.5084994,88.9230445 L74.5524994,89.1030445 C74.4244987,89.6710474 74.2685003,90.2230419 74.0844994,90.7590445 L77.5644994,90.7590445 L77.5644994,94.3410445 C77.5644994,96.0490531 77.5264997,97.2630409 77.4504994,97.9830445 C77.374499,98.7030481 77.1805009,99.213043 76.8684994,99.5130445 C76.5564978,99.813046 76.032503,99.9630445 75.2964994,99.9630445 L73.6524994,99.9630445 L73.4004994,98.9070445 L75.2964994,98.9070445 C75.6725012,98.9070445 75.9484985,98.763046 76.1244994,98.4750445 C76.2845002,98.1950431 76.3804992,97.7530476 76.4124994,97.1490445 C76.4444995,96.5450415 76.4604994,95.5590514 76.4604994,94.1910445 L76.4604994,91.8150445 L73.6404994,91.8150445 C73.3284978,92.4630478 72.9565015,93.0790416 72.5244994,93.6630445 L71.6724994,93.0390445 Z M74.2404994,96.9630445 C73.7444969,96.0350399 73.1925024,95.1790485 72.5844994,94.3950445 L73.4124994,93.8430445 C74.0845027,94.6510486 74.6764968,95.51104 75.1884994,96.4230445 L74.2404994,96.9630445 Z M87.1044994,94.2510445 L79.7124994,94.2510445 L79.7124994,93.1950445 L83.7684994,93.1950445 L83.7684994,91.4790445 L78.8244994,91.4790445 L78.8244994,90.4230445 L83.7684994,90.4230445 L83.7684994,88.9710445 L84.8724994,88.9710445 L84.8724994,90.4230445 L89.8404994,90.4230445 L89.8404994,91.4790445 L84.8724994,91.4790445 L84.8724994,93.1950445 L88.4004994,93.1950445 L88.4004994,94.2510445 C87.4244945,95.7870522 86.3485052,96.9790403 85.1724994,97.8270445 C85.1964995,97.8350446 85.2244992,97.8430445 85.2564994,97.8510445 C86.4165052,98.4670476 87.9484898,98.827044 89.8524994,98.9310445 L89.5644994,100.095045 C87.5324892,99.9110436 85.9125054,99.4790479 84.7044994,98.7990445 C84.5204984,98.687044 84.3365003,98.5710451 84.1524994,98.4510445 C82.8004926,99.2030483 81.1445092,99.7750426 79.1844994,100.167045 L78.7284994,99.0510445 C80.5765086,98.6590426 82.0604938,98.2070471 83.1804994,97.6950445 C82.3964954,97.0230412 81.5685037,96.1510499 80.6964994,95.0790445 L81.5004994,94.5030445 C82.428504,95.6310502 83.3124952,96.5150413 84.1524994,97.1550445 C84.2484998,97.0990443 84.3404989,97.0430448 84.4284994,96.9870445 C85.4285044,96.2670409 86.3204954,95.3550501 87.1044994,94.2510445 L87.1044994,94.2510445 Z M93.2364994,95.5710445 L93.2364994,98.9910445 C93.2364994,99.7030481 92.9085026,100.059045 92.2524994,100.059045 L90.9564994,100.059045 L90.6924994,99.0030445 L91.7724994,99.0030445 C92.0445007,99.0030445 92.1804994,98.8670459 92.1804994,98.5950445 L92.1804994,95.7750445 C91.708497,95.863045 91.2205019,95.9430442 90.7164994,96.0150445 L90.5604994,94.9230445 C91.1125021,94.8510442 91.6524967,94.771045 92.1804994,94.6830445 L92.1804994,92.1390445 L90.7764994,92.1390445 L90.7764994,91.0830445 L92.1804994,91.0830445 L92.1804994,88.9710445 L93.2364994,88.9710445 L93.2364994,91.0830445 L94.4364994,91.0830445 L94.4364994,92.1390445 L93.2364994,92.1390445 L93.2364994,94.5030445 C93.6205013,94.4310442 94.0004975,94.3630449 94.3764994,94.2990445 L94.4604994,95.3070445 C94.0604974,95.395045 93.6525014,95.4830441 93.2364994,95.5710445 L93.2364994,95.5710445 Z M95.2164994,96.8070445 L96.0804994,96.2310445 C96.6565022,96.7830473 97.1524973,97.3390417 97.5684994,97.8990445 L96.6324994,98.4990445 C96.2644975,97.9470418 95.7925022,97.3830474 95.2164994,96.8070445 L95.2164994,96.8070445 Z M94.6164994,94.9950445 L99.3324994,94.9950445 L99.3324994,93.6630445 L95.0004994,93.6630445 L95.0004994,92.6550445 L97.7124994,92.6550445 L97.7124994,91.2750445 L94.8564994,91.2750445 L94.8564994,90.2670445 L97.7124994,90.2670445 L97.7124994,88.9710445 L98.7684994,88.9710445 L98.7684994,90.2670445 L101.792499,90.2670445 L101.792499,91.2750445 L98.7684994,91.2750445 L98.7684994,92.6550445 L101.564499,92.6550445 L101.564499,93.6630445 L100.436499,93.6630445 L100.436499,94.9950445 L101.984499,94.9950445 L101.984499,96.0030445 L100.436499,96.0030445 L100.436499,98.8470445 C100.436499,99.6710487 100.024503,100.083045 99.2004994,100.083045 L97.4244994,100.083045 L97.1604994,98.9790445 L98.8404994,98.9790445 C99.168501,98.9790445 99.3324994,98.8150462 99.3324994,98.4870445 L99.3324994,96.0030445 L94.6164994,96.0030445 L94.6164994,94.9950445 Z" id="感謝您的支持" fill="#FFFFFF"></path>
                        </g>
                    </g>
                </g>
            </g>
        </g>
    </g>
</svg>