<?xml version="1.0" encoding="UTF-8" standalone="no"?>
<svg width="140px" height="138px" viewBox="0 0 140 138" version="1.1" xmlns="http://www.w3.org/2000/svg" xmlns:xlink="http://www.w3.org/1999/xlink" xmlns:sketch="http://www.bohemiancoding.com/sketch/ns">
    <!-- Generator: Sketch 3.3.2 (12043) - http://www.bohemiancoding.com/sketch -->
    <title>sticker</title>
    <desc>Created with Sketch.</desc>
    <defs></defs>
    <g id="Page-1" stroke="none" stroke-width="1" fill="none" fill-rule="evenodd" sketch:type="MSPage">
        <g id="Group" sketch:type="MSLayerGroup" transform="translate(70.500000, 70.500000) rotate(-345.000000) translate(-70.500000, -70.500000) translate(4.000000, 4.000000)">
            <g id="sticker" transform="translate(0.000000, 0.233785)" sketch:type="MSShapeGroup">
                <path d="M66.2819279,2.2098 C70.2905,2.2098 78.3232207,-0.5292 82.2143694,0.4308 C86.1049189,1.3938 91.9449369,7.5558 95.4916036,9.42 C99.0412658,11.286 107.425658,12.5982 110.424149,15.2598 C113.425635,17.9208 115.735761,26.0946 118.010541,29.4006 C120.288315,32.7042 127.103068,37.7664 128.523532,41.5188 C129.943995,45.2736 128.197622,53.5872 128.678099,57.57 C129.161572,61.5558 132.848428,69.2118 132.364955,73.1958 C131.881482,77.1804 126.473414,83.73 125.054149,87.4812 C123.633685,91.2336 123.342523,99.726 121.065347,103.0296 C118.790568,106.332 110.963937,109.6164 107.96245,112.2768 C104.96336,114.936 100.76727,122.3232 97.2176081,124.1886 C93.6703423,126.0546 85.2152568,125.3172 81.3241081,126.2796 C77.4335586,127.239 70.2887027,131.8248 66.2819279,131.8248 C62.2787477,131.8248 55.1338919,127.239 51.2427432,126.2796 C47.3521937,125.3172 38.8971081,126.0546 35.3498423,124.1886 C31.8025766,122.3232 27.6028919,114.936 24.6044009,112.2768 C21.6035135,109.6164 13.7768829,106.332 11.5021036,103.0296 C9.22492793,99.726 8.93376577,91.2336 7.5133018,87.4812 C6.09283784,83.73 0.686567568,77.1804 0.202495495,73.1958 C-0.280977477,69.2118 3.40647748,61.5558 3.88875225,57.57 C4.37222523,53.5872 2.62285586,45.2736 4.04272072,41.5188 C5.46318468,37.7664 12.2779369,32.7042 14.5563108,29.4006 C16.8310901,26.0946 19.1418153,17.9208 22.1433018,15.2598 C25.1411937,12.5982 33.5249865,11.286 37.0752477,9.42 C40.6219144,7.5558 46.4625315,1.3926 50.3530811,0.4308 C54.2442297,-0.5292 62.2751532,2.2098 66.2819279,2.2098" id="Fill-1" fill="#E93C63"></path>
                <path d="M66.2819279,126.3126 L66.2453829,126.3102 C65.0334054,126.2352 62.1020135,124.911 59.4492027,123.6768 C56.9719279,122.5236 54.6462252,121.4406 52.558964,120.9276 C50.4705045,120.411 47.9069595,120.2856 45.1942387,120.1554 C42.2448739,120.0138 39.0079414,119.82 37.9145856,119.3118 C36.858973,118.6902 34.8621757,116.1324 33.0696712,113.7816 C31.4143604,111.6114 29.8608964,109.5744 28.2547117,108.1506 C26.6449324,106.722 24.4366532,105.4236 22.0995676,104.0466 C19.5504009,102.5466 16.769982,100.8648 16.0372838,99.9042 C15.3902568,98.8626 14.8067342,95.6664 14.3100811,92.7474 C13.8505721,90.057 13.4198198,87.534 12.6601622,85.5252 C11.8957117,83.5122 10.543545,81.33 9.1116982,79.0224 C7.55224324,76.5078 5.87057207,73.7268 5.66807658,72.5388 C5.57940991,71.3184 6.54575676,68.2212 7.45818468,65.4102 C8.29991892,62.8164 9.09312613,60.3744 9.35313514,58.2348 C9.61314414,56.097 9.42622523,53.5344 9.22852252,50.8224 C9.01404505,47.8716 8.81514414,44.628 9.18898198,43.4784 C9.67545045,42.3558 11.9711982,40.0614 14.0872162,37.995 C16.0282973,36.099 17.8621396,34.3074 19.0855,32.5332 C20.3076622,30.7578 21.3303243,28.407 22.4110991,25.9176 C23.5931216,23.199 24.9249189,20.2344 25.7870225,19.3914 C26.7419865,18.6216 29.8393288,17.6586 32.6700721,16.8132 C35.2707613,16.0368 37.7270676,15.303 39.6328018,14.3022 C41.5355405,13.3002 43.5353333,11.6922 45.6495541,9.9906 C47.9512928,8.139 50.5016577,6.1356 51.658518,5.7864 L51.7537748,5.7582 L51.8550225,5.763 C51.8622117,5.757 52.0389459,5.739 52.3438874,5.739 C54.0261577,5.739 56.6436216,6.2526 58.9519505,6.7062 C61.6197387,7.23 64.1347568,7.7232 66.2819279,7.7232 C68.4350901,7.7232 70.9507072,7.2288 73.6149009,6.7062 C75.9334144,6.2514 78.5466847,5.739 80.222964,5.739 C80.6752838,5.739 80.8687928,5.778 80.9035405,5.7852 C82.0586036,6.1296 84.6089685,8.1348 86.9125045,9.9876 C89.0393063,11.6982 91.0343063,13.3026 92.9334505,14.301 C94.8397838,15.303 97.2960901,16.0368 99.8967793,16.8132 C102.728721,17.6586 105.828459,18.6252 106.767248,19.3812 C107.645527,20.2356 108.97373,23.199 110.153356,25.9116 C111.237725,28.407 112.259788,30.7578 113.478356,32.5284 C114.704712,34.3074 116.538554,36.099 118.480833,37.995 C120.596252,40.0614 122.893198,42.3582 123.373676,43.4676 C123.752905,44.634 123.554005,47.8776 123.338928,50.8308 C123.142423,53.547 122.956104,56.0994 123.212518,58.2312 C123.473725,60.3744 124.267532,62.8164 125.106869,65.4054 C126.021694,68.2212 126.98864,71.3232 126.900572,72.5232 C126.69568,73.7292 125.015806,76.5078 123.455752,79.0224 C122.023905,81.33 120.67114,83.5122 119.906689,85.5276 C119.147032,87.534 118.716878,90.057 118.260964,92.7288 C117.760117,95.6664 117.174797,98.8644 116.539153,99.8898 C115.795671,100.866 113.01705,102.5466 110.467883,104.0466 C108.129599,105.4236 105.921919,106.722 104.314536,108.1482 C102.703559,109.578 101.147698,111.618 99.4989775,113.7792 C97.6992838,116.139 95.7018874,118.695 94.6666441,119.3034 C93.5565135,119.82 90.3225766,120.0138 87.3738108,120.1554 C84.6598919,120.2856 82.0969459,120.411 80.0048919,120.9276 C77.9194279,121.4406 75.592527,122.526 73.1284324,123.672 C70.4714279,124.9086 67.5352432,126.2352 66.3166757,126.3102 L66.2819279,126.3126 L66.2819279,126.3126 Z M52.3438874,6.8796 C52.0892703,6.8796 51.9454865,6.8946 51.899955,6.8994 C50.9461892,7.1922 47.8518423,9.6816 46.3648784,10.8792 C44.2033288,12.618 42.1639955,14.259 40.1624054,15.3126 C38.1584189,16.3644 35.6511892,17.1138 32.9947838,17.907 C31.3089189,18.4098 27.3572613,19.5906 26.539491,20.2446 C25.8073919,20.964 24.1604685,24.7518 23.4577252,26.3688 C22.3511892,28.914 21.3075586,31.314 20.0230901,33.18 C18.7368243,35.0454 16.8640405,36.876 14.8816216,38.8122 C13.6211171,40.0434 10.6693559,42.9252 10.2511847,43.884 C9.93545946,44.8638 10.2368063,48.9804 10.3650135,50.739 C10.5657117,53.5086 10.7556261,56.124 10.483036,58.3728 C10.2104459,60.6228 9.40046396,63.1152 8.54315315,65.7582 C7.99797297,67.4388 6.72368919,71.3622 6.79737838,72.4026 C6.97291441,73.4136 9.14944144,76.9224 10.0786441,78.42 C11.541045,80.778 12.9213694,83.0022 13.7247613,85.122 C14.5239595,87.2328 14.9636982,89.8086 15.4285991,92.5356 C15.7287477,94.2954 16.4237027,98.3676 16.9736757,99.2586 C17.6009324,100.0752 21.1577838,102.1692 22.6759009,103.0638 C25.0633108,104.4684 27.3171216,105.7962 29.0083784,107.2962 C30.6978378,108.7926 32.2854505,110.874 33.9647252,113.0748 C35.0431036,114.489 37.5455405,117.7716 38.442991,118.3038 C39.3757883,118.7328 43.4915991,118.932 45.2481577,119.016 C48.018991,119.151 50.636455,119.2764 52.8303559,119.82 C55.0260541,120.3606 57.4002838,121.4652 59.9147027,122.6364 C61.6269279,123.4332 65.1418423,125.0688 66.2819279,125.1684 C67.4262072,125.0688 70.9471126,123.4296 72.6485541,122.6388 C75.1641712,121.4664 77.5401982,120.3606 79.7317027,119.82 C81.9309955,119.2764 84.5484595,119.151 87.3192928,119.016 C89.0758514,118.932 93.1910631,118.7328 94.1394369,118.2942 C95.0201126,117.7728 97.4266937,114.6168 98.5841532,113.1018 C100.276009,110.8812 101.863622,108.7986 103.559671,107.2938 C105.250329,105.7962 107.50414,104.4684 109.89095,103.0638 C111.409667,102.1692 114.966518,100.0752 115.603959,99.2418 C116.143149,98.3676 116.838104,94.2954 117.135257,92.5566 C117.603153,89.8086 118.042892,87.2328 118.84209,85.122 C119.645482,83.0022 121.027005,80.778 122.488207,78.42 C123.418009,76.9224 125.595135,73.4136 125.771869,72.3852 C125.843761,71.3622 124.615608,67.5804 124.026095,65.763 C123.166387,63.1152 122.356405,60.6228 122.083216,58.368 C121.811824,56.1288 122.001739,53.52 122.202437,50.7606 C122.331243,48.9888 122.631392,44.8656 122.310275,43.8708 C121.897495,42.9252 118.945135,40.0434 117.685829,38.8122 C115.702811,36.876 113.830626,35.0454 112.541365,33.1764 C111.258694,31.3152 110.216261,28.914 109.111523,26.3748 C108.405784,24.7518 106.759459,20.964 106.012982,20.2344 C105.20959,19.5906 101.259131,18.4098 99.5702703,17.907 C96.9162613,17.1138 94.4084324,16.3644 92.4026486,15.3102 C90.4064505,14.2602 88.3701126,12.6228 86.2145541,10.8888 C84.8270405,9.7728 81.6122748,7.1868 80.6165721,6.8886 C80.6393378,6.8958 80.5021441,6.8796 80.222964,6.8796 C78.6557207,6.8796 76.1011622,7.38 73.8473514,7.8228 C71.1142613,8.3586 68.5459234,8.8638 66.2819279,8.8638 C64.0233243,8.8638 61.4561847,8.3598 58.7380721,7.8276 C56.4752748,7.3824 53.9159234,6.8796 52.3438874,6.8796 L52.3438874,6.8796 Z" id="Fill-2" fill="#FFFFFF"></path>
            </g>
            <path d="M31.448,91.9857848 L35.852,91.9857848 L35.852,92.7177848 L31.448,92.7177848 L31.448,91.9857848 Z M35.552,93.4857848 L35.552,96.0897848 L31.736,96.0897848 L31.736,93.4857848 L35.552,93.4857848 Z M34.784,94.2177848 L32.504,94.2177848 L32.504,95.3697848 L34.784,95.3697848 L34.784,94.2177848 Z M38.012,89.4297848 L38.66,89.0577848 C38.9800016,89.3537863 39.2519989,89.6497833 39.476,89.9457848 L38.804,90.3297848 C38.6279991,90.0737835 38.3640018,89.7737865 38.012,89.4297848 L38.012,89.4297848 Z M36.608,91.1457848 L30.812,91.1457848 L30.812,92.9097848 C30.812,94.3257919 30.4440037,95.6457787 29.708,96.8697848 L28.952,96.3297848 C29.6160033,95.2497794 29.948,94.1097908 29.948,92.9097848 L29.948,90.3777848 L36.608,90.3777848 L36.608,89.1057848 L37.472,89.1057848 L37.472,90.3777848 L39.98,90.3777848 L39.98,91.1457848 L37.472,91.1457848 C37.4880001,92.5937921 37.5519994,93.8537795 37.664,94.9257848 C38.4000037,94.1737811 38.9439982,93.3057897 39.296,92.3217848 L40.004,92.6337848 C39.5639978,93.9057912 38.8320051,95.02178 37.808,95.9817848 C37.8560002,96.3097865 37.9159996,96.6217833 37.988,96.9177848 C38.3320017,98.3017917 38.6519985,98.9937848 38.948,98.9937848 C39.1720011,98.9937848 39.383999,98.3977908 39.584,97.2057848 L40.232,97.8177848 C39.9119984,99.3457925 39.4840027,100.113785 38.948,100.121785 C38.3079968,100.113785 37.7600023,99.2377935 37.304,97.4937848 C37.2159996,97.1897833 37.1400003,96.8817864 37.076,96.5697848 C36.8199987,96.7697858 36.5560014,96.9577839 36.284,97.1337848 L35.72,96.4497848 C36.1440021,96.1857835 36.5399982,95.9097863 36.908,95.6217848 C36.715999,94.3417784 36.616,92.8497933 36.608,91.1457848 L36.608,91.1457848 Z M35.276,99.0057848 C35.276,99.7177884 34.9480033,100.073785 34.292,100.073785 L32.48,100.073785 C31.8239967,100.073785 31.496,99.7177884 31.496,99.0057848 L31.496,97.1217848 L32.36,97.1217848 L32.36,98.9337848 C32.36,99.1497859 32.4719989,99.2577848 32.696,99.2577848 L34.088,99.2577848 C34.3600014,99.2577848 34.496,99.1217862 34.496,98.8497848 L34.496,98.0097848 L35.276,98.2017848 L35.276,99.0057848 Z M32.624,96.7137848 L33.272,96.3057848 C33.672002,96.7217869 34.0239985,97.1377827 34.328,97.5537848 L33.62,97.9857848 C33.3639987,97.5777828 33.032002,97.153787 32.624,96.7137848 L32.624,96.7137848 Z M35.48,97.3497848 L36.224,97.1697848 C36.5840018,97.9537887 36.859999,98.7057812 37.052,99.4257848 L36.248,99.5937848 C36.0879992,98.8897813 35.8320018,98.1417888 35.48,97.3497848 L35.48,97.3497848 Z M29.54,99.6537848 C29.8280014,98.893781 30.0359994,98.1097889 30.164,97.3017848 L30.944,97.4217848 C30.8399995,98.2457889 30.6400015,99.0497809 30.344,99.8337848 L29.54,99.6537848 Z M48.188,90.2097848 L48.188,95.0697848 C48.2520003,94.9817844 48.3159997,94.8897853 48.38,94.7937848 L48.98,95.1537848 C48.7319988,95.5377867 48.4680014,95.909783 48.188,96.2697848 L48.188,99.2097848 C48.188,99.8657881 47.888003,100.193785 47.288,100.193785 L46.304,100.193785 L46.124,99.3297848 L47.036,99.3297848 C47.2520011,99.3297848 47.36,99.2177859 47.36,98.9937848 L47.36,97.2297848 C46.5759961,98.0857891 45.6760051,98.8697813 44.66,99.5817848 L44.108,98.9457848 C45.3240061,98.1297807 46.3679956,97.2377897 47.24,96.2697848 C46.3519956,96.4457857 45.404005,96.5857843 44.396,96.6897848 L44.3,95.8377848 C44.508001,95.8137847 44.715999,95.7977849 44.924,95.7897848 L44.924,90.2097848 L45.968,90.2097848 L46.304,89.0457848 L47.18,89.1537848 L46.844,90.2097848 L48.188,90.2097848 Z M47.36,94.4577848 L45.752,94.4577848 L45.752,95.7057848 C46.3040028,95.6497845 46.8399974,95.5857852 47.36,95.5137848 L47.36,94.4577848 Z M47.36,92.7657848 L45.752,92.7657848 L45.752,93.7257848 L47.36,93.7257848 L47.36,92.7657848 Z M47.36,91.0257848 L45.752,91.0257848 L45.752,92.0337848 L47.36,92.0337848 L47.36,91.0257848 Z M51.32,92.3217848 L51.32,99.2937848 C51.32,99.8937878 51.0480027,100.193785 50.504,100.193785 L49.124,100.193785 L48.932,99.3297848 L50.18,99.3297848 C50.3960011,99.3297848 50.504,99.2177859 50.504,98.9937848 L50.504,92.3217848 L48.704,92.3217848 L48.704,91.4577848 L50.504,91.4577848 L50.504,89.1057848 L51.32,89.1057848 L51.32,91.4577848 L52.172,91.4577848 L52.172,92.3217848 L51.32,92.3217848 Z M48.824,93.8337848 L49.508,93.5457848 C49.8600018,94.5057896 50.1199992,95.4337803 50.288,96.3297848 L49.544,96.6177848 C49.4159994,95.7617805 49.1760018,94.8337898 48.824,93.8337848 L48.824,93.8337848 Z M41.156,92.2977848 L44.108,92.2977848 L44.108,93.0657848 L41.156,93.0657848 L41.156,92.2977848 Z M41.156,94.1697848 L44.108,94.1697848 L44.108,94.9497848 L41.156,94.9497848 L41.156,94.1697848 Z M44.012,96.0657848 L44.012,100.073785 L43.292,100.073785 L43.292,99.4017848 L41.852,99.4017848 L41.852,100.169785 L41.132,100.169785 L41.132,96.0657848 L44.012,96.0657848 Z M41.852,96.8937848 L41.852,98.6217848 L43.292,98.6217848 L43.292,96.8937848 L41.852,96.8937848 Z M44.384,91.1697848 L40.868,91.1697848 L40.868,90.3537848 L42.236,90.3537848 C42.1639996,89.9617829 42.0640006,89.5577869 41.936,89.1417848 L42.8,89.0577848 C42.9280006,89.489787 43.0319996,89.9217827 43.112,90.3537848 L44.384,90.3537848 L44.384,91.1697848 Z M52.844,92.8257848 C54.0120058,91.6177788 54.8399976,90.3537914 55.328,89.0337848 L56.132,89.3217848 C55.8999988,89.9057877 55.6200016,90.4737821 55.292,91.0257848 L55.292,96.1377848 L54.416,96.1377848 L54.416,92.3217848 C54.0959984,92.7377869 53.7480019,93.1417829 53.372,93.5337848 L52.844,92.8257848 Z M58.208,89.8857848 L63.572,89.8857848 L63.572,90.7017848 L62.768,92.5377848 L62,92.2257848 L62.636,90.7017848 L57.8,90.7017848 C57.4319982,91.3577881 56.9960025,91.9977817 56.492,92.6217848 L55.832,92.0217848 C56.6640042,91.1097803 57.2639982,90.1537898 57.632,89.1537848 L58.52,89.1537848 C58.4159995,89.393786 58.3120005,89.6377836 58.208,89.8857848 L58.208,89.8857848 Z M60.44,91.4937848 L60.44,94.9497848 C60.44,95.6057881 60.1120033,95.9337848 59.456,95.9337848 L58.028,95.9337848 L57.836,95.0577848 L59.168,95.0577848 C59.4400014,95.0577848 59.576,94.9217862 59.576,94.6497848 L59.576,91.4937848 L60.44,91.4937848 Z M56.048,94.6737848 C56.6880032,93.9537812 57.2479976,93.173789 57.728,92.3337848 L58.412,92.7177848 C57.9719978,93.5897892 57.4360032,94.4017811 56.804,95.1537848 L56.048,94.6737848 Z M62.804,95.2137848 C62.3479977,94.3577805 61.8400028,93.5657885 61.28,92.8377848 L61.952,92.3817848 C62.5360029,93.0937884 63.0839974,93.8897804 63.596,94.7697848 L62.804,95.2137848 Z M60.836,98.5977848 L60.836,97.5417848 L61.712,97.7337848 L61.712,98.7297848 C61.712,99.5537889 61.3280038,99.9657848 60.56,99.9657848 L56.972,99.9657848 C56.2039962,99.9657848 55.82,99.5817887 55.82,98.8137848 L55.82,96.5577848 L56.696,96.5577848 L56.696,98.6337848 C56.696,98.9377863 56.8479985,99.0897848 57.152,99.0897848 L60.344,99.0897848 C60.6720016,99.0897848 60.836,98.9257865 60.836,98.5977848 L60.836,98.5977848 Z M57.836,96.6537848 L58.484,96.1737848 C59.0360028,96.6697873 59.515998,97.1657823 59.924,97.6617848 L59.216,98.1657848 C58.8559982,97.6697823 58.3960028,97.1657874 57.836,96.6537848 L57.836,96.6537848 Z M62.024,96.7977848 L62.828,96.4977848 C63.3800028,97.4177894 63.8319982,98.3097805 64.184,99.1737848 L63.308,99.4737848 C63.0039985,98.6257806 62.5760028,97.7337895 62.024,96.7977848 L62.024,96.7977848 Z M53.024,99.4137848 C53.4560022,98.5577805 53.7919988,97.6617895 54.032,96.7257848 L54.884,96.9537848 C54.6679989,97.9137896 54.3480021,98.8297805 53.924,99.7017848 L53.024,99.4137848 Z M65.432,99.9897848 L65.432,90.9417848 L66.812,90.9417848 L67.352,89.1417848 L68.228,89.2497848 L67.7,90.9417848 L69.68,90.9417848 L69.68,99.7017848 L68.804,99.7017848 L68.804,98.8137848 L66.296,98.8137848 L66.296,99.9897848 L65.432,99.9897848 Z M66.296,95.2977848 L66.296,97.9857848 L68.804,97.9857848 L68.804,95.2977848 L66.296,95.2977848 Z M66.296,91.8057848 L66.296,94.4817848 L68.804,94.4817848 L68.804,91.8057848 L66.296,91.8057848 Z M69.884,93.2817848 C70.8280047,92.0417786 71.4479985,90.6497925 71.744,89.1057848 L72.596,89.2497848 C72.4679994,89.8497878 72.304001,90.4257821 72.104,90.9777848 L75.68,90.9777848 L75.68,94.5057848 C75.68,96.1937933 75.6440004,97.3597816 75.572,98.0037848 C75.4999996,98.647788 75.3120015,99.149783 75.008,99.5097848 C74.7039985,99.8697866 74.1960036,100.049785 73.484,100.049785 L71.804,100.049785 L71.624,99.1857848 L73.484,99.1857848 C73.9160022,99.1857848 74.227999,99.0417863 74.42,98.7537848 C74.612001,98.4657834 74.7239998,98.0217878 74.756,97.4217848 C74.7960002,96.8057817 74.816,95.8137917 74.816,94.4457848 L74.816,91.8537848 L71.744,91.8537848 C71.4239984,92.5337882 71.0360023,93.1777818 70.58,93.7857848 L69.884,93.2817848 Z M72.5,97.0377848 C72.0119976,96.1097802 71.4560031,95.2577887 70.832,94.4817848 L71.516,94.0137848 C72.1880034,94.8297889 72.7799974,95.6897803 73.292,96.5937848 L72.5,97.0377848 Z M85.46,94.2417848 L77.9,94.2417848 L77.9,93.3777848 L82.124,93.3777848 L82.124,91.4697848 L77.06,91.4697848 L77.06,90.6057848 L82.124,90.6057848 L82.124,89.1537848 L82.988,89.1537848 L82.988,90.6057848 L88.028,90.6057848 L88.028,91.4697848 L82.988,91.4697848 L82.988,93.3777848 L86.528,93.3777848 L86.528,94.2417848 C85.6959958,95.7457923 84.5680071,96.9937799 83.144,97.9857848 C83.2320004,98.025785 83.3159996,98.0697846 83.396,98.1177848 C84.5560058,98.7417879 86.0999904,99.1217841 88.028,99.2577848 L87.788,100.217785 C85.7559898,100.017784 84.140006,99.5857881 82.94,98.9217848 C82.731999,98.7937842 82.5200011,98.6537856 82.304,98.5017848 C80.895993,99.3177889 79.2360096,99.909783 77.324,100.277785 L76.964,99.4017848 C78.7160088,99.0737832 80.2359936,98.5737882 81.524,97.9017848 C80.715996,97.2057813 79.8600045,96.2937905 78.956,95.1657848 L79.616,94.6857848 C80.5680048,95.8537907 81.4679958,96.7697815 82.316,97.4337848 C83.6520067,96.5937806 84.6999962,95.5297913 85.46,94.2417848 L85.46,94.2417848 Z M91.328,95.6457848 L91.328,99.1977848 C91.328,99.7977878 91.0560027,100.097785 90.512,100.097785 L89.156,100.097785 L88.964,99.2337848 L90.14,99.2337848 C90.3560011,99.2337848 90.464,99.1257859 90.464,98.9097848 L90.464,95.8257848 C89.9599975,95.9297853 89.4400027,96.0217844 88.904,96.1017848 L88.772,95.2017848 C89.3480029,95.1057843 89.9119972,95.0137853 90.464,94.9257848 L90.464,92.1777848 L88.964,92.1777848 L88.964,91.3137848 L90.464,91.3137848 L90.464,89.1537848 L91.328,89.1537848 L91.328,91.3137848 L92.624,91.3137848 L92.624,92.1777848 L91.328,92.1777848 L91.328,94.7697848 C91.7440021,94.6817844 92.151998,94.5937853 92.552,94.5057848 L92.636,95.3337848 C92.2119979,95.4377853 91.7760022,95.5417843 91.328,95.6457848 L91.328,95.6457848 Z M93.476,96.8937848 L94.196,96.4137848 C94.7640028,96.9657876 95.2599979,97.521782 95.684,98.0817848 L94.892,98.5857848 C94.5239982,98.0337821 94.0520029,97.4697877 93.476,96.8937848 L93.476,96.8937848 Z M92.804,95.2017848 L97.64,95.2017848 L97.64,93.7257848 L93.236,93.7257848 L93.236,92.8617848 L95.996,92.8617848 L95.996,91.3377848 L93.044,91.3377848 L93.044,90.4737848 L95.996,90.4737848 L95.996,89.1057848 L96.86,89.1057848 L96.86,90.4737848 L99.932,90.4737848 L99.932,91.3377848 L96.86,91.3377848 L96.86,92.8617848 L99.704,92.8617848 L99.704,93.7257848 L98.504,93.7257848 L98.504,95.2017848 L100.172,95.2017848 L100.172,96.0657848 L98.504,96.0657848 L98.504,99.1617848 C98.504,99.8177881 98.1760033,100.145785 97.52,100.145785 L95.576,100.145785 L95.384,99.2817848 L97.232,99.2817848 C97.5040014,99.2817848 97.64,99.1457862 97.64,98.8737848 L97.64,96.0657848 L92.804,96.0657848 L92.804,95.2017848 Z M102.968,96.5577848 L102.02,96.5577848 L101.912,90.0537848 L103.076,90.0537848 L102.968,96.5577848 Z M103.076,99.2337848 L101.936,99.2337848 L101.936,98.1057848 L103.076,98.1057848 L103.076,99.2337848 Z" id="感謝您的支持!" fill="#FFFFFF" sketch:type="MSShapeGroup"></path>
            <path d="M44.8,37.2657848 L44.8,29.7177848 L47.752,29.7177848 L48.148,28.5417848 L43.468,28.5417848 L43.468,27.5337848 L46.504,27.5337848 L45.88,26.1897848 L46.984,26.0337848 L47.62,27.5337848 L50.296,27.5337848 L51.088,26.0457848 L52.192,26.1537848 L51.412,27.5337848 L54.484,27.5337848 L54.484,28.5417848 L49.264,28.5417848 L48.868,29.7177848 L53.224,29.7177848 L53.224,37.2657848 L52.12,37.2657848 L52.12,36.5817848 L45.904,36.5817848 L45.904,37.2657848 L44.8,37.2657848 Z M52.12,34.5897848 L45.904,34.5897848 L45.904,35.6217848 L52.12,35.6217848 L52.12,34.5897848 Z M45.904,33.6777848 L52.12,33.6777848 L52.12,32.6217848 L45.904,32.6217848 L45.904,33.6777848 Z M45.904,31.7097848 L52.12,31.7097848 L52.12,30.6777848 L45.904,30.6777848 L45.904,31.7097848 Z M57.184,28.5417848 C56.7279977,28.0857825 56.1720033,27.5897875 55.516,27.0537848 L56.248,26.2857848 C57.0880042,26.9897883 57.6519986,27.4937833 57.94,27.7977848 L57.184,28.5417848 Z M55.408,36.8817848 C55.9360026,35.6577787 56.4599974,34.2177931 56.98,32.5617848 L57.976,32.9577848 C57.2719965,35.0777954 56.7440018,36.5297809 56.392,37.3137848 L55.408,36.8817848 Z M57.04,31.6497848 C56.5599976,31.1777825 55.9760034,30.6617876 55.288,30.1017848 L56.008,29.3217848 C56.8880044,30.0497885 57.4839984,30.5697833 57.796,30.8817848 L57.04,31.6497848 Z M64.768,31.6857848 L59.848,31.6857848 C59.8239999,34.2297975 59.3880042,36.085779 58.54,37.2537848 L57.58,36.7377848 C58.388004,35.5857791 58.792,33.8377965 58.792,31.4937848 L58.792,27.4257848 L62.128,27.4257848 L62.128,26.1057848 L63.184,26.1057848 L63.184,27.4257848 L66.22,27.4257848 L66.22,28.4697848 L65.608,30.2937848 L64.636,29.9697848 L65.152,28.4697848 L63.184,28.4697848 L63.184,30.6777848 L65.824,30.6777848 L65.824,31.6857848 C65.4959984,33.0377916 64.8600047,34.1497805 63.916,35.0217848 C64.6200035,35.4697871 65.5439943,35.8257835 66.688,36.0897848 L66.196,37.1817848 C64.8519933,36.7977829 63.8040038,36.3137877 63.052,35.7297848 C62.1639956,36.369788 61.1960052,36.8617831 60.148,37.2057848 L59.548,36.2817848 C60.5960052,35.8897829 61.4959962,35.4497873 62.248,34.9617848 C61.6879972,34.3297817 61.1240028,33.49779 60.556,32.4657848 L61.384,32.0457848 C61.9600029,33.0217897 62.5239972,33.789782 63.076,34.3497848 C63.1000001,34.3257847 63.1279998,34.3017849 63.16,34.2777848 C63.8960037,33.6217815 64.4319983,32.7577902 64.768,31.6857848 L64.768,31.6857848 Z M59.848,30.6777848 L62.128,30.6777848 L62.128,28.4697848 L59.848,28.4697848 L59.848,30.6777848 Z M70.828,26.8617848 C73.220012,26.7817844 75.519989,26.5417868 77.728,26.1417848 L78.208,27.0897848 C77.207995,27.2977859 76.1600055,27.4657842 75.064,27.5937848 L75.064,29.4777848 L78.628,29.4777848 L78.628,30.5337848 L75.064,30.5337848 L75.064,32.2257848 L77.944,32.2257848 L77.944,37.2657848 L76.888,37.2657848 L76.888,36.6057848 L72.184,36.6057848 L72.184,37.2177848 L71.128,37.2177848 L71.128,32.2257848 L73.96,32.2257848 L73.96,30.5337848 L70.468,30.5337848 L70.468,29.4777848 L73.96,29.4777848 L73.96,27.7137848 C73.0479954,27.7937852 72.1040049,27.8497847 71.128,27.8817848 L70.828,26.8617848 Z M76.888,33.2337848 L72.184,33.2337848 L72.184,35.5977848 L76.888,35.5977848 L76.888,33.2337848 Z M69.7,28.7457848 C69.1639973,28.2257822 68.5160038,27.6617879 67.756,27.0537848 L68.476,26.2737848 C69.4520049,27.0657888 70.1119983,27.6297831 70.456,27.9657848 L69.7,28.7457848 Z M67.564,36.8337848 C68.0520024,35.6337788 68.5319976,34.2257929 69.004,32.6097848 L70.048,32.9937848 C69.4159968,35.0657952 68.9360016,36.485781 68.608,37.2537848 L67.564,36.8337848 Z M69.184,31.8417848 C68.6719974,31.3297823 68.0560036,30.7817877 67.336,30.1977848 L68.068,29.4177848 C68.9960046,30.1857887 69.6199984,30.7337832 69.94,31.0617848 L69.184,31.8417848 Z M79.54,26.7057848 C81.5240099,26.6737847 83.4319908,26.5057863 85.264,26.2017848 L85.672,27.0297848 C84.871996,27.1737855 84.0400043,27.2897844 83.176,27.3777848 L83.176,28.2417848 L85.708,28.2417848 L85.708,29.0577848 L83.176,29.0577848 L83.176,29.7657848 L85.444,29.7657848 L85.444,33.4857848 L83.176,33.4857848 L83.176,34.2897848 L85.612,34.2897848 L85.612,35.1057848 L83.176,35.1057848 L83.176,35.8977848 C83.984004,35.8337845 84.7719962,35.7617852 85.54,35.6817848 L85.576,36.0537848 C86.5200047,34.4777769 86.992,32.473797 86.992,30.0417848 L86.992,29.3217848 L86.08,29.3217848 L86.08,28.2657848 L86.992,28.2657848 L86.992,26.1057848 L88,26.1057848 L88,28.2657848 L90.256,28.2657848 L90.256,34.7337848 C90.256,35.8217903 90.152001,36.5037834 89.944,36.7797848 C89.735999,37.0557862 89.3720026,37.1937848 88.852,37.1937848 L87.712,37.1937848 L87.448,36.1377848 L88.48,36.1377848 C88.7920016,36.1377848 88.9979995,36.0377858 89.098,35.8377848 C89.1980005,35.6377838 89.248,35.0257899 89.248,34.0017848 L89.248,29.3217848 L88,29.3217848 L88,30.0417848 C88,33.0017996 87.3560064,35.4137755 86.068,37.2777848 L85.24,36.5937848 C85.248,36.5697847 85.256,36.5537849 85.264,36.5457848 C83.463991,36.8177862 81.5080106,36.9897845 79.396,37.0617848 L79.36,36.1017848 C80.3120048,36.0617846 81.2479954,36.0177851 82.168,35.9697848 L82.168,35.1057848 L79.612,35.1057848 L79.612,34.2897848 L82.168,34.2897848 L82.168,33.4857848 L79.84,33.4857848 L79.84,29.7657848 L82.168,29.7657848 L82.168,29.0577848 L79.42,29.0577848 L79.42,28.2417848 L82.168,28.2417848 L82.168,27.4737848 C81.3919961,27.5217851 80.5880042,27.5497848 79.756,27.5577848 L79.54,26.7057848 Z M82.168,32.7177848 L82.168,31.9737848 L80.8,31.9737848 L80.8,32.7177848 L82.168,32.7177848 Z M83.176,31.9737848 L83.176,32.7177848 L84.484,32.7177848 L84.484,31.9737848 L83.176,31.9737848 Z M82.168,31.2417848 L82.168,30.5337848 L80.8,30.5337848 L80.8,31.2417848 L82.168,31.2417848 Z M83.176,30.5337848 L83.176,31.2417848 L84.484,31.2417848 L84.484,30.5337848 L83.176,30.5337848 Z" id="首波活動" fill="#FFFFFF" sketch:type="MSShapeGroup"></path>
            <path d="M25.1648,52.0873848 L45.4928,52.0873848 L45.4928,64.0993848 L29.1776,64.0993848 L29.1776,70.4881848 C29.1776,71.2801888 29.5911959,71.6761848 30.4184,71.6761848 L43.6448,71.6761848 C44.5600046,71.6761848 45.0176,71.2273893 45.0176,70.3297848 L45.0176,67.4785848 L48.2648,68.0593848 L48.2648,71.9401848 C48.2648,73.8761945 47.3056096,74.8441848 45.3872,74.8441848 L28.8344,74.8441848 C26.8983903,74.8441848 25.9304,73.8761945 25.9304,71.9401848 L25.9304,58.3705848 L29.1776,58.3705848 L29.1776,60.9577848 L42.2456,60.9577848 L42.2456,55.2289848 L25.1648,55.2289848 L25.1648,52.0873848 Z M77.3408,64.8385848 L77.3408,75.6097848 L74.3048,75.6097848 L74.3048,74.3689848 L67.8632,74.3689848 L67.8632,75.6097848 L64.8008,75.6097848 L64.8008,64.8385848 L77.3408,64.8385848 Z M74.3048,67.6633848 L67.8632,67.6633848 L67.8632,71.5441848 L74.3048,71.5441848 L74.3048,67.6633848 Z M77.948,62.6737848 L64.4576,62.6737848 L64.4576,59.7169848 L69.5528,59.7169848 L69.5528,56.5753848 L63.7184,56.5753848 L63.7184,55.5457848 C62.0463916,58.6962006 60.1808103,61.6617709 58.1216,64.4425848 C59.124805,64.284184 60.1807945,64.1345855 61.2896,63.9937848 C61.0607989,63.236981 60.7968015,62.4273891 60.4976,61.5649848 L62.6624,60.7729848 C63.5424044,63.0257961 64.184798,65.1201751 64.5896,67.0561848 L62.1872,67.9009848 C62.1167996,67.4433825 62.0288005,67.0033869 61.9232,66.5809848 C59.2831868,67.0033869 56.863211,67.4785822 54.6632,68.0065848 L53.528,65.1817848 C54.4784048,64.8825833 55.2439971,64.3017891 55.8248,63.4393848 C56.4056029,62.5945806 56.9775972,61.7321892 57.5408,60.8521848 C56.5023948,61.0281857 55.5344045,61.2217838 54.6368,61.4329848 L53.528,58.5553848 C54.4080044,58.3617839 55.0151983,57.9305882 55.3496,57.2617848 C56.2824047,55.3785754 57.1359961,53.2577966 57.9104,50.8993848 L60.7088,51.2953848 C59.8815959,53.6361965 58.9224055,55.8801741 57.8312,58.0273848 C58.2888023,57.9569845 58.7727974,57.8953851 59.2832,57.8425848 C59.9344033,56.7161792 60.5855967,55.5105913 61.2368,54.2257848 L63.7184,55.0969848 L63.7184,53.6449848 L69.5528,53.6449848 L69.5528,50.8465848 L72.5888,50.8465848 L72.5888,53.6449848 L78.6872,53.6449848 L78.6872,56.5753848 L72.5888,56.5753848 L72.5888,59.7169848 L77.948,59.7169848 L77.948,62.6737848 Z M53.3696,74.5009848 C53.8800026,72.8993768 54.2231991,70.9545963 54.3992,68.6665848 L56.8808,68.8777848 C56.8631999,71.3593972 56.5728028,73.5065758 56.0096,75.3193848 L53.3696,74.5009848 Z M57.9104,74.2105848 C57.9280001,72.3625756 57.7960014,70.5673935 57.5144,68.8249848 L60.0224,68.5873848 C60.3920018,70.4353941 60.6031997,72.2833756 60.656,74.1313848 L57.9104,74.2105848 Z M61.9232,73.2601848 C61.6943989,71.5705764 61.3512023,69.9689924 60.8936,68.4553848 L63.2168,67.9009848 C63.7976029,69.5025928 64.2375985,71.1305766 64.5368,72.7849848 L61.9232,73.2601848 Z M108.476,56.1265848 L97.7576,56.1265848 L97.7576,58.3705848 L106.0472,58.3705848 L106.0472,67.0033848 L99.896,67.0033848 C102.888015,69.1329955 105.879985,70.7081797 108.872,71.7289848 L107.1296,74.9761848 C103.697583,73.2865764 100.573614,71.1481978 97.7576,68.5609848 L97.7576,75.6097848 L94.5104,75.6097848 L94.5104,69.0361848 C91.8351866,71.5881976 88.799217,73.5857776 85.4024,75.0289848 L83.5544,72.0457848 C87.0040172,70.9193792 90.0663866,69.238596 92.7416,67.0033848 L86.0888,67.0033848 L86.0888,58.3705848 L94.5104,58.3705848 L94.5104,56.1265848 L83.8184,56.1265848 L83.8184,53.0641848 L94.5104,53.0641848 L94.5104,50.8465848 L97.7576,50.8465848 L97.7576,53.0641848 L108.476,53.0641848 L108.476,56.1265848 Z M94.5104,64.2577848 L94.5104,61.1161848 L89.2304,61.1161848 L89.2304,64.2577848 L94.5104,64.2577848 Z M97.7576,61.1161848 L97.7576,64.2577848 L102.9056,64.2577848 L102.9056,61.1161848 L97.7576,61.1161848 Z" id="Type-something" fill="#FFFFFF" sketch:type="MSShapeGroup"></path>
        </g>
    </g>
</svg>