<?xml version="1.0" encoding="UTF-8" standalone="no"?>
<svg width="140px" height="138px" viewBox="0 0 140 138" version="1.1" xmlns="http://www.w3.org/2000/svg" xmlns:xlink="http://www.w3.org/1999/xlink" xmlns:sketch="http://www.bohemiancoding.com/sketch/ns">
    <!-- Generator: Sketch 3.3.3 (12072) - http://www.bohemiancoding.com/sketch -->
    <title>sticker</title>
    <desc>Created with Sketch.</desc>
    <defs></defs>
    <g id="Page-1" stroke="none" stroke-width="1" fill="none" fill-rule="evenodd" sketch:type="MSPage">
        <g id="sticker" sketch:type="MSLayerGroup" transform="translate(-12.000000, -13.000000)">
            <g id="Page-1" sketch:type="MSShapeGroup">
                <g id="Group" transform="translate(82.014852, 82.379039) rotate(15.000000) translate(-82.014852, -82.379039) translate(15.014852, 15.879039)">
                    <g id="sticker" transform="translate(0.999924, 0.225059)" fill="#D61038">
                        <path d="M66.2819279,2.2098 C70.2905,2.2098 78.3232207,-0.5292 82.2143694,0.4308 C86.1049189,1.3938 91.9449369,7.5558 95.4916036,9.42 C99.0412658,11.286 107.425658,12.5982 110.424149,15.2598 C113.425635,17.9208 115.735761,26.0946 118.010541,29.4006 C120.288315,32.7042 127.103068,37.7664 128.523532,41.5188 C129.943995,45.2736 128.197622,53.5872 128.678099,57.57 C129.161572,61.5558 132.848428,69.2118 132.364955,73.1958 C131.881482,77.1804 126.473414,83.73 125.054149,87.4812 C123.633685,91.2336 123.342523,99.726 121.065347,103.0296 C118.790568,106.332 110.963937,109.6164 107.96245,112.2768 C104.96336,114.936 100.76727,122.3232 97.2176081,124.1886 C93.6703423,126.0546 85.2152568,125.3172 81.3241081,126.2796 C77.4335586,127.239 70.2887027,131.8248 66.2819279,131.8248 C62.2787477,131.8248 55.1338919,127.239 51.2427432,126.2796 C47.3521937,125.3172 38.8971081,126.0546 35.3498423,124.1886 C31.8025766,122.3232 27.6028919,114.936 24.6044009,112.2768 C21.6035135,109.6164 13.7768829,106.332 11.5021036,103.0296 C9.22492793,99.726 8.93376577,91.2336 7.5133018,87.4812 C6.09283784,83.73 0.686567568,77.1804 0.202495495,73.1958 C-0.280977477,69.2118 3.40647748,61.5558 3.88875225,57.57 C4.37222523,53.5872 2.62285586,45.2736 4.04272072,41.5188 C5.46318468,37.7664 12.2779369,32.7042 14.5563108,29.4006 C16.8310901,26.0946 19.1418153,17.9208 22.1433018,15.2598 C25.1411937,12.5982 33.5249865,11.286 37.0752477,9.42 C40.6219144,7.5558 46.4625315,1.3926 50.3530811,0.4308 C54.2442297,-0.5292 62.2751532,2.2098 66.2819279,2.2098 Z M66.2819279,126.3126 L66.2453829,126.3102 C65.0334054,126.2352 62.1020135,124.911 59.4492027,123.6768 C56.9719279,122.5236 54.6462252,121.4406 52.558964,120.9276 C50.4705045,120.411 47.9069595,120.2856 45.1942387,120.1554 C42.2448739,120.0138 39.0079414,119.82 37.9145856,119.3118 C36.858973,118.6902 34.8621757,116.1324 33.0696712,113.7816 C31.4143604,111.6114 29.8608964,109.5744 28.2547117,108.1506 C26.6449324,106.722 24.4366532,105.4236 22.0995676,104.0466 C19.5504009,102.5466 16.769982,100.8648 16.0372838,99.9042 C15.3902568,98.8626 14.8067342,95.6664 14.3100811,92.7474 C13.8505721,90.057 13.4198198,87.534 12.6601622,85.5252 C11.8957117,83.5122 10.543545,81.33 9.1116982,79.0224 C7.55224324,76.5078 5.87057207,73.7268 5.66807658,72.5388 C5.57940991,71.3184 6.54575676,68.2212 7.45818468,65.4102 C8.29991892,62.8164 9.09312613,60.3744 9.35313514,58.2348 C9.61314414,56.097 9.42622523,53.5344 9.22852252,50.8224 C9.01404505,47.8716 8.81514414,44.628 9.18898198,43.4784 C9.67545045,42.3558 11.9711982,40.0614 14.0872162,37.995 C16.0282973,36.099 17.8621396,34.3074 19.0855,32.5332 C20.3076622,30.7578 21.3303243,28.407 22.4110991,25.9176 C23.5931216,23.199 24.9249189,20.2344 25.7870225,19.3914 C26.7419865,18.6216 29.8393288,17.6586 32.6700721,16.8132 C35.2707613,16.0368 37.7270676,15.303 39.6328018,14.3022 C41.5355405,13.3002 43.5353333,11.6922 45.6495541,9.9906 C47.9512928,8.139 50.5016577,6.1356 51.658518,5.7864 L51.7537748,5.7582 L51.8550225,5.763 C51.8622117,5.757 52.0389459,5.739 52.3438874,5.739 C54.0261577,5.739 56.6436216,6.2526 58.9519505,6.7062 C61.6197387,7.23 64.1347568,7.7232 66.2819279,7.7232 C68.4350901,7.7232 70.9507072,7.2288 73.6149009,6.7062 C75.9334144,6.2514 78.5466847,5.739 80.222964,5.739 C80.6752838,5.739 80.8687928,5.778 80.9035405,5.7852 C82.0586036,6.1296 84.6089685,8.1348 86.9125045,9.9876 C89.0393063,11.6982 91.0343063,13.3026 92.9334505,14.301 C94.8397838,15.303 97.2960901,16.0368 99.8967793,16.8132 C102.728721,17.6586 105.828459,18.6252 106.767248,19.3812 C107.645527,20.2356 108.97373,23.199 110.153356,25.9116 C111.237725,28.407 112.259788,30.7578 113.478356,32.5284 C114.704712,34.3074 116.538554,36.099 118.480833,37.995 C120.596252,40.0614 122.893198,42.3582 123.373676,43.4676 C123.752905,44.634 123.554005,47.8776 123.338928,50.8308 C123.142423,53.547 122.956104,56.0994 123.212518,58.2312 C123.473725,60.3744 124.267532,62.8164 125.106869,65.4054 C126.021694,68.2212 126.98864,71.3232 126.900572,72.5232 C126.69568,73.7292 125.015806,76.5078 123.455752,79.0224 C122.023905,81.33 120.67114,83.5122 119.906689,85.5276 C119.147032,87.534 118.716878,90.057 118.260964,92.7288 C117.760117,95.6664 117.174797,98.8644 116.539153,99.8898 C115.795671,100.866 113.01705,102.5466 110.467883,104.0466 C108.129599,105.4236 105.921919,106.722 104.314536,108.1482 C102.703559,109.578 101.147698,111.618 99.4989775,113.7792 C97.6992838,116.139 95.7018874,118.695 94.6666441,119.3034 C93.5565135,119.82 90.3225766,120.0138 87.3738108,120.1554 C84.6598919,120.2856 82.0969459,120.411 80.0048919,120.9276 C77.9194279,121.4406 75.592527,122.526 73.1284324,123.672 C70.4714279,124.9086 67.5352432,126.2352 66.3166757,126.3102 L66.2819279,126.3126 Z M52.3438874,6.8796 C52.0892703,6.8796 51.9454865,6.8946 51.899955,6.8994 C50.9461892,7.1922 47.8518423,9.6816 46.3648784,10.8792 C44.2033288,12.618 42.1639955,14.259 40.1624054,15.3126 C38.1584189,16.3644 35.6511892,17.1138 32.9947838,17.907 C31.3089189,18.4098 27.3572613,19.5906 26.539491,20.2446 C25.8073919,20.964 24.1604685,24.7518 23.4577252,26.3688 C22.3511892,28.914 21.3075586,31.314 20.0230901,33.18 C18.7368243,35.0454 16.8640405,36.876 14.8816216,38.8122 C13.6211171,40.0434 10.6693559,42.9252 10.2511847,43.884 C9.93545946,44.8638 10.2368063,48.9804 10.3650135,50.739 C10.5657117,53.5086 10.7556261,56.124 10.483036,58.3728 C10.2104459,60.6228 9.40046396,63.1152 8.54315315,65.7582 C7.99797297,67.4388 6.72368919,71.3622 6.79737838,72.4026 C6.97291441,73.4136 9.14944144,76.9224 10.0786441,78.42 C11.541045,80.778 12.9213694,83.0022 13.7247613,85.122 C14.5239595,87.2328 14.9636982,89.8086 15.4285991,92.5356 C15.7287477,94.2954 16.4237027,98.3676 16.9736757,99.2586 C17.6009324,100.0752 21.1577838,102.1692 22.6759009,103.0638 C25.0633108,104.4684 27.3171216,105.7962 29.0083784,107.2962 C30.6978378,108.7926 32.2854505,110.874 33.9647252,113.0748 C35.0431036,114.489 37.5455405,117.7716 38.442991,118.3038 C39.3757883,118.7328 43.4915991,118.932 45.2481577,119.016 C48.018991,119.151 50.636455,119.2764 52.8303559,119.82 C55.0260541,120.3606 57.4002838,121.4652 59.9147027,122.6364 C61.6269279,123.4332 65.1418423,125.0688 66.2819279,125.1684 C67.4262072,125.0688 70.9471126,123.4296 72.6485541,122.6388 C75.1641712,121.4664 77.5401982,120.3606 79.7317027,119.82 C81.9309955,119.2764 84.5484595,119.151 87.3192928,119.016 C89.0758514,118.932 93.1910631,118.7328 94.1394369,118.2942 C95.0201126,117.7728 97.4266937,114.6168 98.5841532,113.1018 C100.276009,110.8812 101.863622,108.7986 103.559671,107.2938 C105.250329,105.7962 107.50414,104.4684 109.89095,103.0638 C111.409667,102.1692 114.966518,100.0752 115.603959,99.2418 C116.143149,98.3676 116.838104,94.2954 117.135257,92.5566 C117.603153,89.8086 118.042892,87.2328 118.84209,85.122 C119.645482,83.0022 121.027005,80.778 122.488207,78.42 C123.418009,76.9224 125.595135,73.4136 125.771869,72.3852 C125.843761,71.3622 124.615608,67.5804 124.026095,65.763 C123.166387,63.1152 122.356405,60.6228 122.083216,58.368 C121.811824,56.1288 122.001739,53.52 122.202437,50.7606 C122.331243,48.9888 122.631392,44.8656 122.310275,43.8708 C121.897495,42.9252 118.945135,40.0434 117.685829,38.8122 C115.702811,36.876 113.830626,35.0454 112.541365,33.1764 C111.258694,31.3152 110.216261,28.914 109.111523,26.3748 C108.405784,24.7518 106.759459,20.964 106.012982,20.2344 C105.20959,19.5906 101.259131,18.4098 99.5702703,17.907 C96.9162613,17.1138 94.4084324,16.3644 92.4026486,15.3102 C90.4064505,14.2602 88.3701126,12.6228 86.2145541,10.8888 C84.8270405,9.7728 81.6122748,7.1868 80.6165721,6.8886 C80.6393378,6.8958 80.5021441,6.8796 80.222964,6.8796 C78.6557207,6.8796 76.1011622,7.38 73.8473514,7.8228 C71.1142613,8.3586 68.5459234,8.8638 66.2819279,8.8638 C64.0233243,8.8638 61.4561847,8.3598 58.7380721,7.8276 C56.4752748,7.3824 53.9159234,6.8796 52.3438874,6.8796 L52.3438874,6.8796 L52.3438874,6.8796 Z" id="Fill-1"></path>
                    </g>
                    <path d="M37.5399549,42.9425052 L47.7709549,42.9425052 L47.7709549,46.0625052 L43.3509549,46.0625052 L43.3509549,47.1545052 L48.0699549,47.1545052 L48.0699549,49.3905052 C48.0699549,50.3438433 47.5976263,50.8205052 46.6529549,50.8205052 L44.7289549,50.8205052 L44.4559549,49.6765052 L46.3929549,49.6765052 C46.74829,49.6765052 46.9259549,49.4988403 46.9259549,49.1435052 L46.9259549,48.1425052 L43.3509549,48.1425052 L43.3509549,51.7045052 L42.2069549,51.7045052 L42.2069549,48.4155052 C40.7509477,49.7848454 39.0869643,50.8075018 37.2149549,51.4835052 L36.6299549,50.4305052 C38.3112967,49.9365027 39.8192816,49.1738437 41.1539549,48.1425052 L37.4879549,48.1425052 L37.9949549,45.0745052 L42.2069549,45.0745052 L42.2069549,43.9305052 L37.5399549,43.9305052 L37.5399549,42.9425052 Z M42.2069549,46.0625052 L38.9699549,46.0625052 L38.7749549,47.1545052 L42.2069549,47.1545052 L42.2069549,46.0625052 Z M46.6269549,43.9305052 L43.3509549,43.9305052 L43.3509549,45.0745052 L46.6269549,45.0745052 L46.6269549,43.9305052 Z M39.4639549,40.4595052 L42.5579549,40.4595052 L42.5579549,41.4475052 L40.9329549,41.4475052 C41.1236226,41.8028403 41.2839543,42.1495035 41.4139549,42.4875052 L40.3349549,42.7215052 C40.2309544,42.3575034 40.0532895,41.9328409 39.8019549,41.4475052 L38.8529549,41.4475052 C38.4802864,41.9761745 38.0686239,42.4658363 37.6179549,42.9165052 L36.6299549,42.3965052 C37.5312928,41.564501 38.2332858,40.6285104 38.7359549,39.5885052 L39.8799549,39.5885052 C39.7499543,39.8831733 39.611289,40.1735038 39.4639549,40.4595052 L39.4639549,40.4595052 Z M44.9629549,40.4595052 L48.7069549,40.4595052 L48.7069549,41.4475052 L46.5879549,41.4475052 C46.7786226,41.7941736 46.9476209,42.1321702 47.0949549,42.4615052 L46.0419549,42.7475052 C45.9032876,42.3748367 45.7039562,41.9415077 45.4439549,41.4475052 L44.4429549,41.4475052 C44.1569535,41.9241742 43.8319568,42.3661698 43.4679549,42.7735052 L42.4669549,42.3315052 C43.2209587,41.5081677 43.7886197,40.5981768 44.1699549,39.6015052 L45.3009549,39.6015052 C45.1969544,39.8875066 45.0842889,40.1735038 44.9629549,40.4595052 L44.9629549,40.4595052 Z M50.6829549,41.2655052 L60.8489549,41.2655052 L60.8489549,42.4615052 L50.6829549,42.4615052 L50.6829549,41.2655052 Z M49.8249549,49.2345052 L61.6549549,49.2345052 L61.6549549,50.4305052 L49.8249549,50.4305052 L49.8249549,49.2345052 Z M64.6319549,42.2535052 C64.1379525,41.7595027 63.5356252,41.2221748 62.8249549,40.6415052 L63.6179549,39.8095052 C64.5279595,40.5721757 65.1389534,41.1181702 65.4509549,41.4475052 L64.6319549,42.2535052 Z M62.7079549,51.2885052 C63.2799578,49.9624986 63.8476188,48.4025142 64.4109549,46.6085052 L65.4899549,47.0375052 C64.7272845,49.3341833 64.1552902,50.9071676 63.7739549,51.7565052 L62.7079549,51.2885052 Z M64.4759549,45.6205052 C63.9559523,45.1091693 63.323292,44.5501749 62.5779549,43.9435052 L63.3579549,43.0985052 C64.311293,43.8871758 64.9569532,44.4505035 65.2949549,44.7885052 L64.4759549,45.6205052 Z M72.8479549,45.6595052 L67.5179549,45.6595052 C67.4919548,48.415519 67.0196262,50.4261655 66.1009549,51.6915052 L65.0609549,51.1325052 C65.9362926,49.8844989 66.3739549,47.9908512 66.3739549,45.4515052 L66.3739549,41.0445052 L69.9879549,41.0445052 L69.9879549,39.6145052 L71.1319549,39.6145052 L71.1319549,41.0445052 L74.4209549,41.0445052 L74.4209549,42.1755052 L73.7579549,44.1515052 L72.7049549,43.8005052 L73.2639549,42.1755052 L71.1319549,42.1755052 L71.1319549,44.5675052 L73.9919549,44.5675052 L73.9919549,45.6595052 C73.6366198,47.1241792 72.9476267,48.3288338 71.9249549,49.2735052 C72.6876254,49.7588409 73.6886154,50.1445038 74.9279549,50.4305052 L74.3949549,51.6135052 C72.9389477,51.1975031 71.8036257,50.673175 70.9889549,50.0405052 C70.0269501,50.733842 68.9782939,51.2668367 67.8429549,51.6395052 L67.1929549,50.6385052 C68.3282939,50.2138364 69.3032842,49.7371745 70.1179549,49.2085052 C69.5112852,48.5238351 68.9002913,47.6225108 68.2849549,46.5045052 L69.1819549,46.0495052 C69.8059581,47.1068438 70.4169519,47.9388355 71.0149549,48.5455052 C71.0409551,48.5195051 71.0712881,48.4935053 71.1059549,48.4675052 C71.9032923,47.756835 72.4839531,46.8208443 72.8479549,45.6595052 L72.8479549,45.6595052 Z M67.5179549,44.5675052 L69.9879549,44.5675052 L69.9879549,42.1755052 L67.5179549,42.1755052 L67.5179549,44.5675052 Z M79.4129549,40.4335052 C82.0043012,40.3468381 84.495943,40.0868407 86.8879549,39.6535052 L87.4079549,40.6805052 C86.3246162,40.9058396 85.1892942,41.0878378 84.0019549,41.2265052 L84.0019549,43.2675052 L87.8629549,43.2675052 L87.8629549,44.4115052 L84.0019549,44.4115052 L84.0019549,46.2445052 L87.1219549,46.2445052 L87.1219549,51.7045052 L85.9779549,51.7045052 L85.9779549,50.9895052 L80.8819549,50.9895052 L80.8819549,51.6525052 L79.7379549,51.6525052 L79.7379549,46.2445052 L82.8059549,46.2445052 L82.8059549,44.4115052 L79.0229549,44.4115052 L79.0229549,43.2675052 L82.8059549,43.2675052 L82.8059549,41.3565052 C81.81795,41.4431723 80.7952936,41.5038383 79.7379549,41.5385052 L79.4129549,40.4335052 Z M85.9779549,47.3365052 L80.8819549,47.3365052 L80.8819549,49.8975052 L85.9779549,49.8975052 L85.9779549,47.3365052 Z M78.1909549,42.4745052 C77.6102854,41.911169 76.9082924,41.3001751 76.0849549,40.6415052 L76.8649549,39.7965052 C77.9222936,40.6545095 78.6372864,41.2655034 79.0099549,41.6295052 L78.1909549,42.4745052 Z M75.8769549,51.2365052 C76.4056242,49.9364987 76.925619,48.4111806 77.4369549,46.6605052 L78.5679549,47.0765052 C77.8832848,49.3211831 77.36329,50.859501 77.0079549,51.6915052 L75.8769549,51.2365052 Z M77.6319549,45.8285052 C77.0772855,45.2738357 76.4099588,44.680175 75.6299549,44.0475052 L76.4229549,43.2025052 C77.4282933,44.0345093 78.1042865,44.6281701 78.4509549,44.9835052 L77.6319549,45.8285052 Z M88.8509549,40.2645052 C91.000299,40.2298383 93.0672783,40.0478402 95.0519549,39.7185052 L95.4939549,40.6155052 C94.6272839,40.771506 93.7259596,40.8971714 92.7899549,40.9925052 L92.7899549,41.9285052 L95.5329549,41.9285052 L95.5329549,42.8125052 L92.7899549,42.8125052 L92.7899549,43.5795052 L95.2469549,43.5795052 L95.2469549,47.6095052 L92.7899549,47.6095052 L92.7899549,48.4805052 L95.4289549,48.4805052 L95.4289549,49.3645052 L92.7899549,49.3645052 L92.7899549,50.2225052 C93.6652926,50.1531715 94.5189508,50.0751723 95.3509549,49.9885052 L95.3899549,50.3915052 C96.4126267,48.6841633 96.9239549,46.513185 96.9239549,43.8785052 L96.9239549,43.0985052 L95.9359549,43.0985052 L95.9359549,41.9545052 L96.9239549,41.9545052 L96.9239549,39.6145052 L98.0159549,39.6145052 L98.0159549,41.9545052 L100.459955,41.9545052 L100.459955,48.9615052 C100.459955,50.1401777 100.347289,50.8790037 100.121955,51.1780052 C99.8966205,51.4770067 99.5022911,51.6265052 98.9389549,51.6265052 L97.7039549,51.6265052 L97.4179549,50.4825052 L98.5359549,50.4825052 C98.8739566,50.4825052 99.0971211,50.3741729 99.2054549,50.1575052 C99.3137888,49.9408374 99.3679549,49.2778441 99.3679549,48.1685052 L99.3679549,43.0985052 L98.0159549,43.0985052 L98.0159549,43.8785052 C98.0159549,47.0851879 97.3182952,49.6981618 95.9229549,51.7175052 L95.0259549,50.9765052 C95.0346216,50.9505051 95.0432882,50.9331719 95.0519549,50.9245052 C93.1019452,51.2191733 90.9829664,51.4055048 88.6949549,51.4835052 L88.6559549,50.4435052 C89.6872934,50.4001716 90.7012833,50.3525054 91.6979549,50.3005052 L91.6979549,49.3645052 L88.9289549,49.3645052 L88.9289549,48.4805052 L91.6979549,48.4805052 L91.6979549,47.6095052 L89.1759549,47.6095052 L89.1759549,43.5795052 L91.6979549,43.5795052 L91.6979549,42.8125052 L88.7209549,42.8125052 L88.7209549,41.9285052 L91.6979549,41.9285052 L91.6979549,41.0965052 C90.8572841,41.1485054 89.9862928,41.1788385 89.0849549,41.1875052 L88.8509549,40.2645052 Z M91.6979549,46.7775052 L91.6979549,45.9715052 L90.2159549,45.9715052 L90.2159549,46.7775052 L91.6979549,46.7775052 Z M92.7899549,45.9715052 L92.7899549,46.7775052 L94.2069549,46.7775052 L94.2069549,45.9715052 L92.7899549,45.9715052 Z M91.6979549,45.1785052 L91.6979549,44.4115052 L90.2159549,44.4115052 L90.2159549,45.1785052 L91.6979549,45.1785052 Z M92.7899549,44.4115052 L92.7899549,45.1785052 L94.2069549,45.1785052 L94.2069549,44.4115052 L92.7899549,44.4115052 Z" id="第二波活動" fill="#FFFFFF"></path>
                    <path d="M32.9600421,71.5456202 C35.1067195,69.1936084 36.8707019,66.4683023 38.2520421,63.3696202 L41.2480421,64.2936202 C40.9120404,65.1149576 40.5293776,65.945616 40.1000421,66.7856202 L44.2720421,66.7856202 L43.6280421,64.2656202 L46.8760421,63.9016202 L47.5200421,66.7856202 L52.8680421,66.7856202 L52.8680421,69.6976202 L46.9320421,69.6976202 L46.9320421,71.7696202 L52.0000421,71.7696202 L52.0000421,74.3456202 L46.9320421,74.3456202 L46.9320421,76.2496202 L52.0000421,76.2496202 L52.0000421,78.8256202 L46.9320421,78.8256202 L46.9320421,80.9536202 L53.2040421,80.9536202 L53.2040421,83.9776202 L36.0960421,83.9776202 L36.0960421,72.8336202 C35.6853734,73.3189559 35.2840441,73.7856179 34.8920421,74.2336202 L32.9600421,71.5456202 Z M43.7960421,78.8256202 L39.3160421,78.8256202 L39.3160421,80.9536202 L43.7960421,80.9536202 L43.7960421,78.8256202 Z M43.7960421,69.6976202 L39.3160421,69.6976202 L39.3160421,71.7696202 L43.7960421,71.7696202 L43.7960421,69.6976202 Z M43.7960421,74.3456202 L39.3160421,74.3456202 L39.3160421,76.2496202 L43.7960421,76.2496202 L43.7960421,74.3456202 Z M31.1960421,70.0056202 C30.3187044,68.5682797 29.2173821,66.9909621 27.8920421,65.2736202 L30.6080421,63.4816202 C32.3067173,65.7402981 33.4360393,67.3362822 33.9960421,68.2696202 L31.1960421,70.0056202 Z M33.1280421,72.7496202 L33.1280421,83.6416202 C33.6507114,83.9776219 34.3787041,84.4349506 35.3120421,85.0136202 C36.2453801,85.5922897 37.7946979,85.8816202 39.9600421,85.8816202 L53.9040421,85.8816202 L53.2320421,89.1016202 L39.9600421,89.1016202 C37.6826974,89.1016202 36.0587136,88.78429 35.0880421,88.1496202 C34.0800371,87.5336171 33.3520443,87.0762883 32.9040421,86.7776202 C32.5120401,86.5536191 32.1667103,86.4229537 31.8680421,86.3856202 C31.3827063,86.5162875 30.4867153,87.5616104 29.1800421,89.5216202 L26.9680421,86.5536202 C27.9013801,85.2656137 28.8440373,84.341623 29.7960421,83.7816202 L29.7960421,75.9976202 L27.5000421,75.9976202 L27.5000421,72.7496202 L33.1280421,72.7496202 Z M77.1720421,76.1376202 L77.1720421,86.7776202 C77.1720421,88.7002965 76.2107184,89.6616202 74.2880421,89.6616202 L69.3600421,89.6616202 L68.7720421,86.2176202 L72.5800421,86.2176202 C73.3453793,86.2176202 73.7280421,85.8349573 73.7280421,85.0696202 L73.7280421,76.1376202 L65.4680421,76.1376202 L65.4680421,72.8056202 L81.7640421,72.8056202 L81.7640421,76.1376202 L77.1720421,76.1376202 Z M66.7840421,65.1056202 L80.8680421,65.1056202 L80.8680421,68.3256202 L66.7840421,68.3256202 L66.7840421,65.1056202 Z M55.3880421,69.2776202 C57.7400539,67.6349453 59.8306996,65.600299 61.6600421,63.1736202 L64.4320421,64.7136202 C62.3973653,67.6629683 59.8307243,70.2296093 56.7320421,72.4136202 L55.3880421,69.2776202 Z M62.4440421,75.7736202 L62.4440421,89.6616202 L59.1120421,89.6616202 L59.1120421,79.3016202 C58.2533711,80.0669573 57.3667133,80.8136165 56.4520421,81.5416202 L54.9960421,78.4896202 C57.8520564,76.2682757 60.3533647,73.5523029 62.5000421,70.3416202 L65.3280421,71.7416202 C64.4507044,73.1416272 63.4893807,74.4856137 62.4440421,75.7736202 L62.4440421,75.7736202 Z M108.448042,68.3256202 L108.448042,82.7736202 L105.004042,82.7736202 L105.004042,81.0656202 L98.2840421,81.0656202 L98.2840421,89.6616202 L94.8120421,89.6616202 L94.8120421,81.0656202 L87.8680421,81.0656202 L87.8680421,82.7736202 L84.4240421,82.7736202 L84.4240421,68.3256202 L94.8120421,68.3256202 L94.8120421,63.3976202 L98.2840421,63.3976202 L98.2840421,68.3256202 L108.448042,68.3256202 Z M94.8120421,71.6576202 L87.8680421,71.6576202 L87.8680421,77.7336202 L94.8120421,77.7336202 L94.8120421,71.6576202 Z M105.004042,71.6576202 L98.2840421,71.6576202 L98.2840421,77.7336202 L105.004042,77.7336202 L105.004042,71.6576202 Z" id="進行中" fill="#FFFFFF"></path>
                </g>
            </g>
        </g>
    </g>
</svg>