<?xml version="1.0" encoding="UTF-8" standalone="no"?>
<svg width="300px" height="93px" viewBox="0 0 300 93" version="1.1" xmlns="http://www.w3.org/2000/svg" xmlns:xlink="http://www.w3.org/1999/xlink" xmlns:sketch="http://www.bohemiancoding.com/sketch/ns">
    <!-- Generator: Sketch 3.3.2 (12043) - http://www.bohemiancoding.com/sketch -->
    <title>title</title>
    <desc>Created with Sketch.</desc>
    <defs></defs>
    <g id="Page-1" stroke="none" stroke-width="1" fill="none" fill-rule="evenodd" sketch:type="MSPage">
        <g id="title" sketch:type="MSLayerGroup">
            <g id="Page-1" sketch:type="MSShapeGroup">
                <g id="DONATE-TAIWAN-+-Group-Copy">
                    <g id="Group-Copy" transform="translate(0.000000, 34.000000)" fill="#313131">
                        <path d="M3.48335366,45.3644404 L5.61052163,45.605953 C5.55478797,49.0428619 4.31935854,53.1392858 1.92281122,57.8952247 L0.873160651,57.2357097 L0,56.5204611 C1.97854488,52.4797708 3.13037382,48.7549047 3.48335366,45.3644404 L3.48335366,45.3644404 L3.48335366,45.3644404 Z M14.3049724,23.7490698 L2.99103968,23.7490698 L2.99103968,4.97611585 L28.2012312,4.97611585 L28.2012312,23.6933362 L16.980188,23.6933362 L17.0452106,29.3038578 L28.7214121,29.3038578 L28.6563895,31.6725383 L16.980188,31.6725383 L16.980188,37.1623037 L28.6563895,35.6110502 L28.7214121,38.1097759 L0.798849106,41.67673 L0.185778862,39.2987606 C2.20147951,39.1965822 4.87669513,38.899336 8.22071464,38.3977331 C11.5647342,37.8961302 13.5897238,37.6174619 14.3049724,37.5617282 L14.2399498,31.7375609 L2.10859008,31.7375609 L2.10859008,29.3595915 L14.2399498,29.3595915 L14.3049724,23.7490698 L14.3049724,23.7490698 Z M5.79630049,21.3711004 L14.3049724,21.3711004 L14.3049724,7.26119585 L5.79630049,7.26119585 L5.79630049,21.3711004 L5.79630049,21.3711004 Z M7.17106407,10.6981048 L9.36325464,10.0293009 C10.7473072,12.620916 11.8248246,15.4633326 12.5958068,18.5658396 L10.4872168,19.2067767 C9.0102748,14.9431518 7.89560163,12.1100241 7.17106407,10.6981048 L7.17106407,10.6981048 L7.17106407,10.6981048 Z M14.4257286,56.1581923 L11.9270029,56.6412174 C11.7226462,52.0896352 11.1653096,48.5133921 10.2457042,45.9124881 L12.3542943,45.4851967 C13.3667891,48.374058 14.0541709,51.9317232 14.4257286,56.1581923 L14.4257286,56.1581923 L14.4257286,56.1581923 Z M17.0452106,21.3711004 L25.5167267,21.3711004 L25.5167267,7.26119585 L17.0452106,7.26119585 L17.0452106,21.3711004 L17.0452106,21.3711004 Z M19.5439363,44.5377245 C20.5378532,47.6495204 21.1973681,51.1700299 21.5224812,55.0899639 L20.3520743,55.3779211 L19.1445117,55.6658783 C19.0237555,51.968879 18.4292631,48.4205027 17.3517457,45.0300385 C18.3085068,44.8256817 19.0330444,44.7049255 19.5439363,44.6584808 L19.5439363,44.5377245 L19.5439363,44.5377245 Z M21.70826,10.1593461 L23.8447169,10.8838837 C23.1480462,13.4662098 21.9869283,16.3272043 20.3334964,19.4575781 C20.073406,19.308955 19.432469,18.9373973 18.4199742,18.3243271 C19.8226046,15.9092019 20.9186999,13.1782526 21.70826,10.1593461 L21.70826,10.1593461 L21.70826,10.1593461 Z M26.9472239,43.469496 C28.1547865,45.9775107 29.0743919,49.2472186 29.7246179,53.2879089 L27.2909148,53.8359565 C27.0029576,50.7055827 26.1669527,47.4265858 24.7921891,43.9896769 C25.8882844,43.645986 26.603533,43.469496 26.9472239,43.469496 L26.9472239,43.469496 L26.9472239,43.469496 Z M34.7592251,53.0463964 L34.8149587,57.9602473 L32.0747205,57.9602473 L32.0747205,29.3038578 L38.9671163,29.3595915 L38.9671163,1.58565161 L41.6423319,1.58565161 L41.6423319,14.2093253 L54.8140532,14.2093253 L54.8790758,16.5222721 L41.6423319,16.5222721 L41.6423319,29.3038578 L51.1820765,29.3038578 L51.1820765,56.9756193 L48.4418383,56.9756193 L48.4418383,53.0463964 L34.7592251,53.0463964 L34.7592251,53.0463964 Z M34.9078482,50.9099395 L48.6276171,50.9099395 L48.6276171,31.7375609 L34.9078482,31.7375609 L34.9078482,50.9099395 L34.9078482,50.9099395 Z" id="Fill-46"></path>
                        <path d="M102.463404,37.6824845 L104.96213,37.6824845 C105.268665,48.7363268 98.8128497,55.8516572 85.6039726,59.0191868 C85.1581033,58.6754959 84.5821889,57.9881141 83.8669402,56.9756193 C90.926537,55.3686322 95.8496768,52.8141728 98.6642266,49.2936634 C101.488065,45.7731539 102.751362,41.9089536 102.463404,37.6824845 L102.463404,37.6824845 L102.463404,37.6824845 Z M86.6722011,10.7631274 L86.6722011,8.47804739 L110.080338,8.47804739 L107.590901,2.53312381 C107.711657,2.44952332 108.482639,2.13369926 109.903848,1.58565161 L113.015644,8.47804739 L135.476308,8.47804739 L135.420574,10.7631274 L86.6722011,10.7631274 L86.6722011,10.7631274 Z M135.299818,31.4310258 L135.299818,41.0636598 L132.671047,41.0636598 L132.671047,33.7439726 L89.291683,33.7439726 L89.291683,41.0636598 L86.6722011,41.0636598 L86.6722011,31.4310258 L135.299818,31.4310258 L135.299818,31.4310258 Z M95.6081643,15.6398225 L126.122342,15.6398225 L126.122342,26.6472201 L95.6081643,26.6472201 L95.6081643,15.6398225 L95.6081643,15.6398225 Z M98.2276463,24.3249843 L123.50286,24.3249843 L123.50286,17.9620583 L98.2276463,17.9620583 L98.2276463,24.3249843 L98.2276463,24.3249843 Z M115.635126,37.6824845 L118.254608,37.6824845 L118.254608,52.461193 L118.895545,53.7895118 L120.326042,54.3561374 L132.73607,54.3561374 C133.488474,54.3096926 134.008655,53.7988008 134.287323,52.7955949 L136.238001,46.3026237 L138.374458,47.6216536 C137.417697,51.9410121 136.553825,54.5326273 135.782843,55.38721 C135.011861,56.2417928 133.971499,56.6690842 132.671047,56.6690842 L119.322836,56.6690842 C116.861266,56.6690842 115.635126,55.3779211 115.635126,52.7955949 L115.635126,37.6824845 L115.635126,37.6824845 Z" id="Fill-47"></path>
                        <path d="M196.343825,11.4568701 L197.904368,9.90561659 C204.100093,15.4696935 210.035727,21.9440868 215.701983,29.3287966 L213.751305,30.8800501 C212.265074,28.8922163 210.267951,26.3842016 207.750647,23.3745841 C187.816575,24.2291669 174.459075,25.0651717 167.696725,25.8825987 L167.362323,23.6253855 C174.672721,17.6061504 181.750896,9.82201611 188.606136,0.272982602 L190.705437,1.76850244 C182.298943,12.7015885 175.722372,19.8819415 170.985011,23.3188504 L171.105767,23.4396067 C172.04395,23.1330716 172.768488,22.9751595 173.297957,22.9565816 L205.88357,21.1823935 C202.883241,17.8755298 199.697134,14.6336886 196.343825,11.4568701 L196.343825,11.4568701 L196.343825,11.4568701 Z M206.951798,32.4963262 L206.951798,57.2142038 L204.332316,57.2142038 L204.332316,51.0927903 L175.155746,51.0927903 L175.155746,57.2142038 L172.536264,57.2142038 L172.536264,32.4963262 L206.951798,32.4963262 L206.951798,32.4963262 Z M175.155746,48.7148209 L204.332316,48.7148209 L204.332316,34.8742956 L175.155746,34.8742956 L175.155746,48.7148209 L175.155746,48.7148209 Z" id="Fill-48"></path>
                        <path d="M244.268519,18.1077533 L245.764038,16.5564999 L253.390261,23.5975187 L251.894741,25.4274405 C249.145214,22.3992451 246.609332,19.956253 244.268519,18.1077533 L244.268519,18.1077533 L244.268519,18.1077533 Z M252.87008,32.4034368 L255.006537,33.4159316 C252.767901,41.5809126 249.869751,49.6437152 246.312086,57.5857615 L244.454297,56.5175331 C247.324581,49.996695 250.120553,41.9524703 252.87008,32.4034368 L252.87008,32.4034368 L252.87008,32.4034368 Z M255.303783,9.38543578 L253.938308,11.1224681 C251.513894,8.4844083 249.08948,6.06928309 246.646488,3.86780358 L248.20703,2.07503756 C249.953352,3.66344683 252.322032,6.09714992 255.303783,9.38543578 L255.303783,9.38543578 L255.303783,9.38543578 Z M257.811798,32.4684594 L256.009743,32.0969017 C256.641391,30.5177813 257.198727,27.8797215 257.681752,24.1734332 L259.54883,24.6657472 C258.833581,28.4184802 258.248378,31.0286732 257.811798,32.4684594 L257.811798,32.4684594 L257.811798,32.4684594 Z M267.100741,18.5629116 L266.190424,16.1292085 L268.113235,15.3024925 L270.853474,21.7954638 L268.995685,22.3806672 L268.168969,20.2442103 C262.214757,21.3217277 258.805714,21.9626647 257.923265,22.1577325 L257.133705,20.8572805 C258.880026,19.2038486 261.248706,16.2778316 264.239746,12.0699403 C262.512003,12.3207418 260.403413,12.7573221 257.923265,13.3889703 L257.254461,11.9491841 C258.805714,9.55263676 260.69137,5.76274797 262.930005,0.579517724 L264.722771,1.49912309 C263.403741,4.60163009 261.871066,7.77844862 260.124744,11.0017119 C262.707071,10.5186868 264.47197,10.2400185 265.428731,10.1842849 C265.670243,9.89632765 266.441226,8.68876505 267.741678,6.55230814 L269.422976,7.49978033 C266.571271,12.2092745 263.663832,16.2964094 260.672792,19.7518963 C263.134362,19.3524717 265.270819,18.9530472 267.100741,18.5629116 L267.100741,18.5629116 L267.100741,18.5629116 Z M292.524578,40.7913524 L292.524578,36.3976823 L259.883232,36.3976823 L259.883232,34.2983812 L294.902547,34.2983812 L294.902547,42.8906535 L263.41303,42.8906535 L262.381958,47.2843236 L296.46309,47.2843236 C295.487751,52.1424409 294.679613,55.1613474 294.038676,56.3317542 C293.397739,57.51145 292.097287,58.0502087 290.146608,57.9480303 L280.486108,57.4650053 L279.482902,55.2077921 L290.694656,55.9416186 L292.162309,54.9755685 C292.589601,54.3346314 293.081914,52.4768428 293.657829,49.3836248 L259.483807,49.3836248 L261.555242,40.7913524 L292.524578,40.7913524 L292.524578,40.7913524 Z M262.196179,24.6007246 L264.174724,24.5449909 C264.462681,26.8765156 264.676326,29.2359072 264.815661,31.6138766 L262.744226,31.7996555 C262.827827,30.898628 262.642048,28.5020807 262.196179,24.6007246 L262.196179,24.6007246 L262.196179,24.6007246 Z M266.859228,24.2384558 L268.754173,23.7461418 C269.376532,25.5574857 269.998891,28.0097667 270.611961,31.0936958 L268.754173,31.4002309 C268.299014,29.2266182 267.676655,26.8393599 266.859228,24.2384558 L266.859228,24.2384558 L266.859228,24.2384558 Z M270.546939,5.45621285 L284.842622,5.45621285 L284.842622,7.56480293 L270.546939,7.56480293 L270.546939,5.45621285 L270.546939,5.45621285 Z M272.618373,10.49082 L282.83621,10.49082 L282.83621,12.6272769 L272.618373,12.6272769 L272.618373,10.49082 L272.618373,10.49082 Z M272.618373,15.3675151 L282.83621,15.3675151 L282.83621,17.4946831 L272.618373,17.4946831 L272.618373,15.3675151 L272.618373,15.3675151 Z M272.618373,21.2474161 L282.83621,21.2474161 L282.83621,30.731427 L272.618373,30.731427 L272.618373,21.2474161 L272.618373,21.2474161 Z M274.299672,1.00680911 L276.036704,0.272982602 C277.197822,1.84281399 278.126716,3.25473334 278.841965,4.50874065 L277.225689,5.37261236 C276.083149,3.39406748 275.10781,1.94499236 274.299672,1.00680911 L274.299672,1.00680911 L274.299672,1.00680911 Z M274.847719,28.5949701 L280.606864,28.5949701 L280.606864,23.3560062 L274.847719,23.3560062 L274.847719,28.5949701 L274.847719,28.5949701 Z M285.975873,32.041168 L284.080929,31.6138766 C284.693999,29.7003543 285.223469,27.136606 285.669338,23.9319207 L287.462104,24.4799683 C287.32277,25.7804203 286.830456,28.2977239 285.975873,32.041168 L285.975873,32.041168 L285.975873,32.041168 Z M290.518166,0.886052846 L292.348088,1.8892587 C291.289148,4.33225074 289.886518,6.97031057 288.140197,9.82201611 L293.592806,9.51548098 C294.688902,7.75987074 295.394861,6.58017496 295.692107,5.94852683 L297.522029,7.13751155 C294.317344,12.3021639 291.214837,16.3892989 288.233086,19.4174943 L288.353842,19.5382506 C291.456349,18.8508688 293.82503,18.3771327 295.450595,18.1077533 C295.246238,17.4761052 294.856103,16.6029446 294.26161,15.4882714 L296.091532,14.8752012 C297.33625,17.4575273 298.330167,19.640429 299.082572,21.433195 L297.25265,22.2227551 C297.113316,21.7954638 296.788203,21.0337704 296.277311,19.9376751 L285.855117,22.0369763 L285.149157,20.2442103 C286.8769,18.6000673 289.217714,15.7019171 292.162309,11.5590485 L285.725072,12.0699403 L285.21418,11.0667345 C287.239169,7.97351643 289.013357,4.5830522 290.518166,0.886052846 L290.518166,0.886052846 L290.518166,0.886052846 Z M289.970119,24.2941895 L291.948663,24.1176995 C292.255199,25.7246867 292.571023,28.130523 292.896136,31.3352083 L290.973324,31.4931204 C290.648211,28.2605682 290.313809,25.8640208 289.970119,24.2941895 L289.970119,24.2941895 L289.970119,24.2941895 Z M298.896793,30.7871607 L296.890381,31.3352083 C296.314467,28.5113696 295.654952,26.0683776 294.902547,23.9876543 L296.760336,23.5975187 C297.373406,25.1580612 298.088655,27.5546085 298.896793,30.7871607 L298.896793,30.7871607 L298.896793,30.7871607 Z" id="Fill-49"></path>
                    </g>
                    <path d="M12.16,8.58 C12.16,3.7 9.82,1.16 6.2,1.16 L1.7,1.16 L1.7,16 L6.2,16 C9.82,16 12.16,13.46 12.16,8.58 L12.16,8.58 L12.16,8.58 Z M10.66,8.58 C10.66,12.8 8.96,14.68 5.86,14.68 L3.14,14.68 L3.14,2.48 L5.86,2.48 C8.96,2.48 10.66,4.36 10.66,8.58 L10.66,8.58 L10.66,8.58 Z M38.24,8.58 C38.24,4.56 37.2,0.9 32.3,0.9 C27.4,0.9 26.36,4.56 26.36,8.58 C26.36,12.6 27.4,16.26 32.3,16.26 C37.2,16.26 38.24,12.6 38.24,8.58 L38.24,8.58 L38.24,8.58 Z M36.74,8.58 C36.74,13.6 35.04,14.94 32.3,14.94 C29.56,14.94 27.86,13.6 27.86,8.58 C27.86,3.56 29.56,2.22 32.3,2.22 C35.04,2.22 36.74,3.56 36.74,8.58 L36.74,8.58 L36.74,8.58 Z M64.5,1.16 L63.06,1.16 L63.06,13.98 L54.84,1.16 L53.04,1.16 L53.04,16 L54.48,16 L54.48,3.18 L62.7,16 L64.5,16 L64.5,1.16 L64.5,1.16 Z M85.16,1.16 L83.56,1.16 L78.4,16 L79.94,16 L81.34,12 L87.38,12 L88.78,16 L90.3,16 L85.16,1.16 L85.16,1.16 Z M81.78,10.68 L84.36,3.26 L86.94,10.68 L81.78,10.68 L81.78,10.68 Z M113.36,1.16 L102.7,1.16 L102.7,2.48 L107.32,2.48 L107.32,16 L108.76,16 L108.76,2.48 L113.36,2.48 L113.36,1.16 L113.36,1.16 Z M136.56,14.68 L128.7,14.68 L128.7,9.02 L135.3,9.02 L135.3,7.7 L128.7,7.7 L128.7,2.48 L136.56,2.48 L136.56,1.16 L127.26,1.16 L127.26,16 L136.56,16 L136.56,14.68 L136.56,14.68 Z M177.32,1.16 L166.66,1.16 L166.66,2.48 L171.28,2.48 L171.28,16 L172.72,16 L172.72,2.48 L177.32,2.48 L177.32,1.16 L177.32,1.16 Z M196.48,1.16 L194.88,1.16 L189.72,16 L191.26,16 L192.66,12 L198.7,12 L200.1,16 L201.62,16 L196.48,1.16 L196.48,1.16 Z M193.1,10.68 L195.68,3.26 L198.26,10.68 L193.1,10.68 L193.1,10.68 Z M217.06,1.16 L215.62,1.16 L215.62,16 L217.06,16 L217.06,1.16 L217.06,1.16 Z M248.24,1.16 L244.92,14.12 L241.32,1.16 L239.5,1.16 L235.92,14.12 L232.56,1.16 L231.06,1.16 L235,16 L236.76,16 L240.42,2.98 L244.06,16 L245.78,16 L249.72,1.16 L248.24,1.16 L248.24,1.16 Z M268.88,1.16 L267.28,1.16 L262.12,16 L263.66,16 L265.06,12 L271.1,12 L272.5,16 L274.02,16 L268.88,1.16 L268.88,1.16 Z M265.5,10.68 L268.08,3.26 L270.66,10.68 L265.5,10.68 L265.5,10.68 Z M299.38,1.16 L297.94,1.16 L297.94,13.98 L289.72,1.16 L287.92,1.16 L287.92,16 L289.36,16 L289.36,3.18 L297.58,16 L299.38,16 L299.38,1.16 L299.38,1.16 Z" id="DONATE-TAIWAN" fill="#323232"></path>
                </g>
            </g>
        </g>
    </g>
</svg>