<?xml version="1.0" encoding="UTF-8" standalone="no"?>
<svg width="270px" height="84px" viewBox="0 0 270 84" version="1.1" xmlns="http://www.w3.org/2000/svg" xmlns:xlink="http://www.w3.org/1999/xlink" xmlns:sketch="http://www.bohemiancoding.com/sketch/ns">
    <!-- Generator: Sketch 3.3.2 (12043) - http://www.bohemiancoding.com/sketch -->
    <title>title-mobile</title>
    <desc>Created with Sketch.</desc>
    <defs></defs>
    <g id="Page-1" stroke="none" stroke-width="1" fill="none" fill-rule="evenodd" sketch:type="MSPage">
        <g id="title-mobile" sketch:type="MSLayerGroup" fill="#323232">
            <g id="Page-1" sketch:type="MSShapeGroup">
                <g id="title">
                    <g id="Page-1">
                        <g id="DONATE-TAIWAN-+-Group-Copy">
                            <g id="Group-Copy" transform="translate(0.000000, 30.600000)">
                                <path d="M3.13501829,40.8279964 L5.04946947,41.0453577 C4.99930917,44.1385757 3.88742269,47.8253572 1.7305301,52.1057022 L0.785844586,51.5121387 L0,50.868415 C1.78069039,47.2317937 2.81733644,43.8794142 3.13501829,40.8279964 L3.13501829,40.8279964 L3.13501829,40.8279964 Z M12.8744752,21.3741628 L2.69193571,21.3741628 L2.69193571,4.47850427 L25.3811081,4.47850427 L25.3811081,21.3240026 L15.2821692,21.3240026 L15.3406895,26.373472 L25.8492709,26.373472 L25.7907506,28.5052845 L15.2821692,28.5052845 L15.2821692,33.4460733 L25.7907506,32.0499452 L25.8492709,34.2987983 L0.718964195,37.509057 L0.167200976,35.3688845 C1.98133156,35.276924 4.38902562,35.0094024 7.39864318,34.5579598 C10.4082608,34.1065172 12.2307514,33.8557157 12.8744752,33.8055554 L12.8159548,28.5638048 L1.89773107,28.5638048 L1.89773107,26.4236324 L12.8159548,26.4236324 L12.8744752,21.3741628 L12.8744752,21.3741628 Z M5.21667044,19.2339904 L12.8744752,19.2339904 L12.8744752,6.53507626 L5.21667044,6.53507626 L5.21667044,19.2339904 L5.21667044,19.2339904 Z M6.45395766,9.62829432 L8.42692918,9.02637081 C9.67257648,11.3588244 10.6423421,13.9169993 11.3362261,16.7092556 L9.43849512,17.286099 C8.10924732,13.4488366 7.10604147,10.8990217 6.45395766,9.62829432 L6.45395766,9.62829432 L6.45395766,9.62829432 Z M12.9831557,50.5423731 L10.7343026,50.9770957 C10.5503816,46.8806717 10.0487786,43.6620529 9.22113378,41.3212393 L11.1188649,40.936677 C12.0301102,43.5366522 12.6487538,46.7385509 12.9831557,50.5423731 L12.9831557,50.5423731 L12.9831557,50.5423731 Z M15.3406895,19.2339904 L22.965054,19.2339904 L22.965054,6.53507626 L15.3406895,6.53507626 L15.3406895,19.2339904 L15.3406895,19.2339904 Z M17.5895427,40.0839521 C18.4840679,42.8845684 19.0776313,46.0530269 19.3702331,49.5809675 L18.3168669,49.840129 L17.2300605,50.0992905 C17.12138,46.7719911 16.5863368,43.5784524 15.6165711,40.5270347 C16.4776561,40.3431135 17.12974,40.234433 17.5895427,40.1926327 L17.5895427,40.0839521 L17.5895427,40.0839521 Z M19.537434,9.14341149 L21.4602452,9.79549533 C20.8332416,12.1195888 19.7882355,14.6944839 18.3001468,17.5118203 C18.0660654,17.3780595 17.4892221,17.0436576 16.5779768,16.4918944 C17.8403441,14.3182817 18.8268299,11.8604273 19.537434,9.14341149 L19.537434,9.14341149 L19.537434,9.14341149 Z M24.2525015,39.1225464 C25.3393079,41.3797596 26.1669527,44.3224967 26.7521561,47.959118 L24.5618233,48.4523609 C24.3026618,45.6350244 23.5502574,42.6839272 22.3129702,39.5907092 C23.299456,39.2813874 23.9431797,39.1225464 24.2525015,39.1225464 L24.2525015,39.1225464 L24.2525015,39.1225464 Z M31.2833026,47.7417568 L31.3334628,52.1642226 L28.8672484,52.1642226 L28.8672484,26.373472 L35.0704047,26.4236324 L35.0704047,1.42708645 L37.4780987,1.42708645 L37.4780987,12.7883928 L49.3326479,12.7883928 L49.3911682,14.8700449 L37.4780987,14.8700449 L37.4780987,26.373472 L46.0638688,26.373472 L46.0638688,51.2780574 L43.5976545,51.2780574 L43.5976545,47.7417568 L31.2833026,47.7417568 L31.2833026,47.7417568 Z M31.4170634,45.8189456 L43.7648554,45.8189456 L43.7648554,28.5638048 L31.4170634,28.5638048 L31.4170634,45.8189456 L31.4170634,45.8189456 Z" id="Fill-46"></path>
                                <path d="M92.2170636,33.9142361 L94.465917,33.9142361 C94.7417985,43.8626941 88.9315647,50.2664915 77.0435753,53.1172681 C76.642293,52.8079463 76.12397,52.1893027 75.4802462,51.2780574 C81.8338833,49.831769 86.2647091,47.5327555 88.7978039,44.3642971 C91.3392585,41.1958385 92.4762258,37.7180582 92.2170636,33.9142361 L92.2170636,33.9142361 L92.2170636,33.9142361 Z M78.004981,9.68681466 L78.004981,7.63024265 L99.0723042,7.63024265 L96.8318109,2.27981143 C96.9404913,2.20457099 97.6343751,1.92032933 98.9134632,1.42708645 L101.71408,7.63024265 L121.928677,7.63024265 L121.878517,9.68681466 L78.004981,9.68681466 L78.004981,9.68681466 Z M121.769836,28.2879232 L121.769836,36.9572938 L119.403942,36.9572938 L119.403942,30.3695753 L80.3625147,30.3695753 L80.3625147,36.9572938 L78.004981,36.9572938 L78.004981,28.2879232 L121.769836,28.2879232 L121.769836,28.2879232 Z M86.0473479,14.0758402 L113.510108,14.0758402 L113.510108,23.9824981 L86.0473479,23.9824981 L86.0473479,14.0758402 L86.0473479,14.0758402 Z M88.4048817,21.8924859 L111.152574,21.8924859 L111.152574,16.1658525 L88.4048817,16.1658525 L88.4048817,21.8924859 L88.4048817,21.8924859 Z M104.071613,33.9142361 L106.429147,33.9142361 L106.429147,47.2150737 L107.00599,48.4105606 L108.293438,48.9205237 L119.462463,48.9205237 C120.139627,48.8787233 120.607789,48.4189207 120.858591,47.5160354 L122.614201,41.6723613 L124.537012,42.8594882 C123.675927,46.7469109 122.898442,49.0793646 122.204559,49.848489 C121.510675,50.6176135 120.574349,51.0021758 119.403942,51.0021758 L107.390552,51.0021758 C105.175139,51.0021758 104.071613,49.840129 104.071613,47.5160354 L104.071613,33.9142361 L104.071613,33.9142361 Z" id="Fill-47"></path>
                                <path d="M176.709443,10.3111831 L178.113931,8.91505493 C183.690084,13.9227242 189.032154,19.7496781 194.131785,26.3959169 L192.376175,27.7920451 C191.038567,26.0029947 189.241156,23.7457814 186.975582,21.0371257 C169.034918,21.8062502 157.013168,22.5586545 150.927053,23.2943388 L150.626091,21.262847 C157.205449,15.8455354 163.575806,8.8398145 169.745522,0.245684342 L171.634893,1.5916522 C164.069049,11.4314297 158.150135,17.8937474 153.88651,20.9869654 L153.99519,21.095646 C154.839555,20.8197644 155.491639,20.6776436 155.968161,20.6609234 L185.295213,19.0641542 C182.594917,16.0879768 179.727421,13.1703197 176.709443,10.3111831 L176.709443,10.3111831 L176.709443,10.3111831 Z M186.256618,29.2466936 L186.256618,51.4927834 L183.899084,51.4927834 L183.899084,45.9835113 L157.640171,45.9835113 L157.640171,51.4927834 L155.282638,51.4927834 L155.282638,29.2466936 L186.256618,29.2466936 L186.256618,29.2466936 Z M157.640171,43.8433388 L183.899084,43.8433388 L183.899084,31.386866 L157.640171,31.386866 L157.640171,43.8433388 L157.640171,43.8433388 Z" id="Fill-48"></path>
                                <path d="M219.841667,16.296978 L221.187634,14.9008499 L228.051235,21.2377668 L226.705267,22.8846965 C224.230693,20.1593206 221.948399,17.9606277 219.841667,16.296978 L219.841667,16.296978 L219.841667,16.296978 Z M227.583072,29.1630931 L229.505883,30.0743384 C227.491111,37.4228213 224.882776,44.6793437 221.680877,51.8271854 L220.008867,50.8657798 C222.592123,44.9970255 225.108498,37.7572233 227.583072,29.1630931 L227.583072,29.1630931 L227.583072,29.1630931 Z M229.773405,8.4468922 L228.544477,10.0102213 C226.362505,7.63596747 224.180532,5.46235478 221.981839,3.48102322 L223.386327,1.8675338 C224.958017,3.29710215 227.089829,5.48743493 229.773405,8.4468922 L229.773405,8.4468922 L229.773405,8.4468922 Z M232.030618,29.2216135 L230.408769,28.8872115 C230.977252,27.4660032 231.478854,25.0917494 231.913577,21.7560899 L233.593947,22.1991725 C232.950223,25.5766322 232.42354,27.9258059 232.030618,29.2216135 L232.030618,29.2216135 L232.030618,29.2216135 Z M240.390667,16.7066204 L239.571382,14.5162877 L241.301911,13.7722433 L243.768127,19.6159174 L242.096116,20.1426005 L241.352072,18.2197893 C235.993281,19.1895549 232.925143,19.7663982 232.130938,19.9419593 L231.420334,18.7715525 C232.992023,17.2834637 235.123835,14.6500484 237.815771,10.8629463 C236.260803,11.0886676 234.363072,11.4815899 232.130938,12.0500733 L231.529015,10.7542657 C232.925143,8.59737308 234.622233,5.18647317 236.637004,0.521565952 L238.250494,1.34921078 C237.063367,4.14146708 235.683959,7.00060376 234.11227,9.90154071 C236.436364,9.46681812 238.024773,9.21601665 238.885858,9.16585641 C239.103219,8.90669489 239.797103,7.81988855 240.96751,5.89707733 L242.480678,6.7498023 C239.914144,10.988347 237.297449,14.6667685 234.605513,17.7767067 C236.820926,17.4172245 238.743737,17.0577425 240.390667,16.7066204 L240.390667,16.7066204 L240.390667,16.7066204 Z M263.27212,36.7122172 L263.27212,32.7579141 L233.894909,32.7579141 L233.894909,30.8685431 L265.412292,30.8685431 L265.412292,38.6015882 L237.071727,38.6015882 L236.143762,42.5558912 L266.816781,42.5558912 C265.938976,46.9281968 265.211652,49.6452127 264.634808,50.6985788 C264.057965,51.760305 262.887558,52.2451878 261.131947,52.1532273 L252.437497,51.7185048 L251.534612,49.6870129 L261.62519,50.3474567 L262.946078,49.4780117 C263.330641,48.9011683 263.773723,47.2291585 264.292046,44.4452623 L233.535426,44.4452623 L235.399718,36.7122172 L263.27212,36.7122172 L263.27212,36.7122172 Z M235.976561,22.1406521 L237.757252,22.0904918 C238.016413,24.188864 238.208693,26.3123165 238.334095,28.4524889 L236.469803,28.61969 C236.545044,27.8087652 236.377843,25.6518726 235.976561,22.1406521 L235.976561,22.1406521 L235.976561,22.1406521 Z M240.173305,21.8146102 L241.878756,21.3715276 C242.438879,23.0017371 242.999002,25.20879 243.550765,27.9843262 L241.878756,28.2602078 C241.469113,26.3039564 240.908989,24.1554239 240.173305,21.8146102 L240.173305,21.8146102 L240.173305,21.8146102 Z M243.492245,4.91059156 L256.35836,4.91059156 L256.35836,6.80832264 L243.492245,6.80832264 L243.492245,4.91059156 L243.492245,4.91059156 Z M245.356536,9.441738 L254.552589,9.441738 L254.552589,11.3645492 L245.356536,11.3645492 L245.356536,9.441738 L245.356536,9.441738 Z M245.356536,13.8307636 L254.552589,13.8307636 L254.552589,15.7452148 L245.356536,15.7452148 L245.356536,13.8307636 L245.356536,13.8307636 Z M245.356536,19.1226745 L254.552589,19.1226745 L254.552589,27.6582843 L245.356536,27.6582843 L245.356536,19.1226745 L245.356536,19.1226745 Z M246.869705,0.906128199 L248.433034,0.245684342 C249.47804,1.65853259 250.314044,2.92926001 250.957769,4.05786658 L249.50312,4.83535112 C248.474834,3.05466073 247.597029,1.75049312 246.869705,0.906128199 L246.869705,0.906128199 L246.869705,0.906128199 Z M247.362947,25.7354731 L252.546178,25.7354731 L252.546178,21.0204056 L247.362947,21.0204056 L247.362947,25.7354731 L247.362947,25.7354731 Z M257.378286,28.8370512 L255.672836,28.4524889 C256.224599,26.7303189 256.701122,24.4229454 257.102404,21.5387286 L258.715894,22.0319715 C258.590493,23.2023783 258.14741,25.4679515 257.378286,28.8370512 L257.378286,28.8370512 L257.378286,28.8370512 Z M261.466349,0.797447561 L263.113279,1.70033283 C262.160233,3.89902567 260.897866,6.27327951 259.326177,8.8398145 L264.233525,8.56393288 C265.220012,6.98388367 265.855375,5.92215746 266.122896,5.35367415 L267.769826,6.4237604 C264.88561,11.0719475 262.093353,14.750369 259.409777,17.4757449 L259.518458,17.5844255 C262.310714,16.9657819 264.442527,16.5394194 265.905535,16.296978 C265.721614,15.7284947 265.370493,14.9426501 264.835449,13.9394443 L266.482379,13.3876811 C267.602625,15.7117746 268.49715,17.6763861 269.174315,19.2898755 L267.527385,20.0004796 C267.401984,19.6159174 267.109383,18.9303934 266.64958,17.9439076 L257.269605,19.8332787 L256.634241,18.2197893 C258.18921,16.7400606 260.295943,14.1317254 262.946078,10.4031437 L257.152565,10.8629463 L256.692762,9.96006105 C258.515252,7.17616479 260.112021,4.12474698 261.466349,0.797447561 L261.466349,0.797447561 L261.466349,0.797447561 Z M260.973107,21.8647706 L262.753797,21.7059296 C263.029679,23.152218 263.313921,25.3174707 263.606522,28.2016875 L261.875992,28.3438084 C261.58339,25.4345114 261.282428,23.2776187 260.973107,21.8647706 L260.973107,21.8647706 L260.973107,21.8647706 Z M269.007114,27.7084446 L267.201343,28.2016875 C266.68302,25.6602326 266.089457,23.4615398 265.412292,21.5888889 L267.084302,21.2377668 C267.636065,22.6422551 268.279789,24.7991477 269.007114,27.7084446 L269.007114,27.7084446 L269.007114,27.7084446 Z" id="Fill-49"></path>
                            </g>
                            <path d="M10.944,7.722 C10.944,3.33 8.838,1.044 5.58,1.044 L1.53,1.044 L1.53,14.4 L5.58,14.4 C8.838,14.4 10.944,12.114 10.944,7.722 L10.944,7.722 L10.944,7.722 Z M9.594,7.722 C9.594,11.52 8.064,13.212 5.274,13.212 L2.826,13.212 L2.826,2.232 L5.274,2.232 C8.064,2.232 9.594,3.924 9.594,7.722 L9.594,7.722 L9.594,7.722 Z M34.416,7.722 C34.416,4.104 33.48,0.81 29.07,0.81 C24.66,0.81 23.724,4.104 23.724,7.722 C23.724,11.34 24.66,14.634 29.07,14.634 C33.48,14.634 34.416,11.34 34.416,7.722 L34.416,7.722 L34.416,7.722 Z M33.066,7.722 C33.066,12.24 31.536,13.446 29.07,13.446 C26.604,13.446 25.074,12.24 25.074,7.722 C25.074,3.204 26.604,1.998 29.07,1.998 C31.536,1.998 33.066,3.204 33.066,7.722 L33.066,7.722 L33.066,7.722 Z M58.05,1.044 L56.754,1.044 L56.754,12.582 L49.356,1.044 L47.736,1.044 L47.736,14.4 L49.032,14.4 L49.032,2.862 L56.43,14.4 L58.05,14.4 L58.05,1.044 L58.05,1.044 Z M76.644,1.044 L75.204,1.044 L70.56,14.4 L71.946,14.4 L73.206,10.8 L78.642,10.8 L79.902,14.4 L81.27,14.4 L76.644,1.044 L76.644,1.044 Z M73.602,9.612 L75.924,2.934 L78.246,9.612 L73.602,9.612 L73.602,9.612 Z M102.024,1.044 L92.43,1.044 L92.43,2.232 L96.588,2.232 L96.588,14.4 L97.884,14.4 L97.884,2.232 L102.024,2.232 L102.024,1.044 L102.024,1.044 Z M122.904,13.212 L115.83,13.212 L115.83,8.118 L121.77,8.118 L121.77,6.93 L115.83,6.93 L115.83,2.232 L122.904,2.232 L122.904,1.044 L114.534,1.044 L114.534,14.4 L122.904,14.4 L122.904,13.212 L122.904,13.212 Z M159.588,1.044 L149.994,1.044 L149.994,2.232 L154.152,2.232 L154.152,14.4 L155.448,14.4 L155.448,2.232 L159.588,2.232 L159.588,1.044 L159.588,1.044 Z M176.832,1.044 L175.392,1.044 L170.748,14.4 L172.134,14.4 L173.394,10.8 L178.83,10.8 L180.09,14.4 L181.458,14.4 L176.832,1.044 L176.832,1.044 Z M173.79,9.612 L176.112,2.934 L178.434,9.612 L173.79,9.612 L173.79,9.612 Z M195.354,1.044 L194.058,1.044 L194.058,14.4 L195.354,14.4 L195.354,1.044 L195.354,1.044 Z M223.416,1.044 L220.428,12.708 L217.188,1.044 L215.55,1.044 L212.328,12.708 L209.304,1.044 L207.954,1.044 L211.5,14.4 L213.084,14.4 L216.378,2.682 L219.654,14.4 L221.202,14.4 L224.748,1.044 L223.416,1.044 L223.416,1.044 Z M241.992,1.044 L240.552,1.044 L235.908,14.4 L237.294,14.4 L238.554,10.8 L243.99,10.8 L245.25,14.4 L246.618,14.4 L241.992,1.044 L241.992,1.044 Z M238.95,9.612 L241.272,2.934 L243.594,9.612 L238.95,9.612 L238.95,9.612 Z M269.442,1.044 L268.146,1.044 L268.146,12.582 L260.748,1.044 L259.128,1.044 L259.128,14.4 L260.424,14.4 L260.424,2.862 L267.822,14.4 L269.442,14.4 L269.442,1.044 L269.442,1.044 Z" id="DONATE-TAIWAN"></path>
                        </g>
                    </g>
                </g>
            </g>
        </g>
    </g>
</svg>