<?xml version="1.0" encoding="UTF-8" standalone="no"?>
<svg width="300px" height="100px" viewBox="0 0 300 100" version="1.1" xmlns="http://www.w3.org/2000/svg" xmlns:xlink="http://www.w3.org/1999/xlink" xmlns:sketch="http://www.bohemiancoding.com/sketch/ns">
    <!-- Generator: Sketch 3.3.2 (12043) - http://www.bohemiancoding.com/sketch -->
    <title>vi-en-zh-align-center-onlight</title>
    <desc>Created with Sketch.</desc>
    <defs></defs>
    <g id="Page-1" stroke="none" stroke-width="1" fill="none" fill-rule="evenodd" sketch:type="MSPage">
        <g id="橫置-白底" sketch:type="MSLayerGroup" transform="translate(0.000000, -728.000000)">
            <g id="中英-中央對齊" transform="translate(0.000000, 728.000000)" sketch:type="MSShapeGroup">
                <g id="Logo-彩色" transform="translate(125.000000, 10.000000)">
                    <path d="M6.89880952,36.1214286 C6.98095238,36.2464286 7.05119048,36.375 7.13452381,36.497619 C7.59642857,37.177381 7.41904762,38.1035714 6.73928571,38.5642857 C6.48333333,38.7392857 6.19285714,38.8214286 5.9047619,38.8214286 C5.475,38.8214286 5.06071429,38.6285714 4.77142857,38.2809524 C6.5,40.8047619 8.66071429,42.9571429 11.1607143,44.6559524 C10.5214286,44.1845238 10.3547619,43.2940476 10.8047619,42.6297619 C11.0940476,42.2059524 11.5630952,41.977381 12.0392857,41.977381 C12.3261905,41.977381 12.6166667,42.0607143 12.872619,42.2357143 L13.0547619,42.3488095 C10.6071429,40.7297619 8.51666667,38.6214286 6.89880952,36.1214286" id="Fill-1" fill="#DDEF00"></path>
                    <path d="M27.2369048,1.58690476 C27.2059524,2.40714286 26.4940476,3.07142857 25.6940476,3.01785714 C25.5380952,3.01190476 25.3821429,3.01904762 25.2261905,3.01666667 C28.2119048,3.06071429 31.1154762,3.71666667 33.7928571,4.93690476 L33.5988095,4.84285714 C32.8464286,4.51071429 32.5059524,3.63214286 32.8380952,2.88095238 C33.1630952,2.14642857 34.0035714,1.81785714 34.7416667,2.10714286 C31.9595238,0.880952381 28.9702381,0.188095238 25.8952381,0.0654761905 C26.6702381,0.144047619 27.2666667,0.797619048 27.2369048,1.58690476" id="Fill-2" fill="#88C8AB"></path>
                    <path d="M22.5738095,47.3428571 C22.6035714,46.522619 23.2892857,45.847619 24.1166667,45.9119048 C24.2761905,45.9190476 24.4357143,45.9107143 24.5952381,45.9130952 C21.597619,45.8702381 18.6845238,45.2107143 16,43.9833333 L16.2119048,44.0869048 C16.9642857,44.4190476 17.3047619,45.2988095 16.972619,46.0488095 C16.7261905,46.6059524 16.1821429,46.9369048 15.6095238,46.9369048 C15.447619,46.9369048 15.2833333,46.9011905 15.1238095,46.8464286 C17.8904762,48.0583333 20.8607143,48.7428571 23.9154762,48.8642857 C23.1404762,48.7857143 22.5440476,48.1321429 22.5738095,47.3428571" id="Fill-3" fill="#88C8AB"></path>
                    <path d="M16.972619,46.0488095 C17.3047619,45.2988095 16.9642857,44.4190476 16.2119048,44.0869048 L16,43.9833333 C15.7190476,43.8547619 15.4428571,43.7190476 15.1678571,43.5785714 C14.9416667,43.4630952 14.7166667,43.3464286 14.4940476,43.2238095 C14.2880952,43.1095238 14.0857143,42.9892857 13.8833333,42.8678571 C13.6035714,42.7 13.3261905,42.5285714 13.0547619,42.3488095 L12.872619,42.2345238 C12.1940476,41.772619 11.2690476,41.95 10.8047619,42.6297619 C10.3547619,43.2940476 10.5202381,44.1845238 11.1607143,44.6559524 L11.4154762,44.8321429 C11.7214286,45.0357143 12.0333333,45.2261905 12.3464286,45.4142857 C12.5809524,45.5547619 12.8154762,45.6952381 13.0547619,45.827381 C13.3059524,45.9666667 13.5607143,46.097619 13.8142857,46.227381 C14.1285714,46.3869048 14.4440476,46.5440476 14.7666667,46.6916667 C14.8845238,46.7452381 15.0047619,46.7940476 15.1238095,46.8464286 C15.2833333,46.9011905 15.447619,46.9369048 15.6095238,46.9369048 C16.1821429,46.9369048 16.7261905,46.6059524 16.972619,46.0488095" id="Fill-4" fill="#B7DD0E"></path>
                    <path d="M6.73928571,10.3642857 C7.4202381,10.8261905 7.59642857,11.7511905 7.13452381,12.4309524 L7.01071429,12.6297619 C8.6297619,10.177381 10.7392857,8.08333333 13.2416667,6.46309524 C13.1190476,6.54166667 12.9928571,6.61190476 12.872619,6.69404762 C12.1940476,7.15714286 11.2666667,6.9797619 10.8047619,6.29880952 C10.3619048,5.6452381 10.5202381,4.775 11.1357143,4.29761905 C8.59285714,6.03095238 6.42619048,8.20238095 4.71666667,10.7166667 C5.18928571,10.0821429 6.0797619,9.91428571 6.73928571,10.3642857" id="Fill-5" fill="#88C8AB"></path>
                    <path d="M10.8047619,6.29880952 C11.2666667,6.9797619 12.1940476,7.15714286 12.872619,6.69404762 C12.9928571,6.61190476 13.1190476,6.54166667 13.2416667,6.46309524 L13.5333333,6.26428571 L13.8321429,6.09404762 C14.1035714,5.9297619 14.377381,5.77261905 14.6547619,5.6202381 C14.8428571,5.51785714 15.0321429,5.41904762 15.222619,5.32142857 C15.5011905,5.18095238 15.7821429,5.0452381 16.0654762,4.91666667 C16.2797619,4.8202381 16.4952381,4.72738095 16.7107143,4.63690476 C16.9666667,4.53095238 17.222619,4.4297619 17.4821429,4.33452381 C17.7440476,4.23809524 18.0071429,4.14642857 18.2714286,4.06071429 C18.4869048,3.99047619 18.702381,3.92380952 18.9190476,3.86071429 C19.2357143,3.76785714 19.5547619,3.68333333 19.875,3.60595238 C20.0464286,3.56547619 20.2190476,3.525 20.3928571,3.48809524 C20.7559524,3.41071429 21.1202381,3.34166667 21.4869048,3.28333333 C21.6309524,3.25952381 21.775,3.23809524 21.9202381,3.21785714 C22.3047619,3.16428571 22.6892857,3.12142857 23.077381,3.08928571 C23.225,3.07619048 23.3738095,3.06547619 23.522619,3.05595238 C23.8869048,3.03333333 24.252381,3.01904762 24.6190476,3.01547619 L24.9059524,3.0047619 C25.0130952,3.0047619 25.1190476,3.01547619 25.2261905,3.01666667 C25.3821429,3.01904762 25.5380952,3.01190476 25.6940476,3.01785714 C26.4940476,3.07142857 27.2059524,2.40714286 27.2369048,1.58690476 C27.2666667,0.797619048 26.6702381,0.144047619 25.8952381,0.0654761905 C25.7011905,0.0583333333 25.5071429,0.0476190476 25.3130952,0.044047619 C25.0428571,0.0392857143 24.772619,0.0392857143 24.502381,0.044047619 C24.1559524,0.0488095238 23.8095238,0.0619047619 23.4642857,0.0821428571 C23.2011905,0.0976190476 22.9392857,0.116666667 22.677381,0.14047619 C22.3428571,0.171428571 22.0095238,0.208333333 21.677381,0.252380952 C21.397619,0.289285714 21.1178571,0.330952381 20.8392857,0.378571429 C20.5369048,0.428571429 20.2357143,0.485714286 19.9369048,0.547619048 C19.6285714,0.611904762 19.322619,0.680952381 19.0178571,0.755952381 C18.7535714,0.821428571 18.4904762,0.892857143 18.227381,0.966666667 C17.8952381,1.06071429 17.5642857,1.16190476 17.2369048,1.27142857 C17.0047619,1.34761905 16.772619,1.42857143 16.5428571,1.51190476 C16.1988095,1.63809524 15.8559524,1.77142857 15.5154762,1.91309524 C15.302381,2.00238095 15.0892857,2.0952381 14.8785714,2.19047619 C14.5380952,2.34404762 14.2,2.50595238 13.8666667,2.675 C13.6559524,2.78214286 13.4464286,2.89166667 13.2380952,3.0047619 C12.9202381,3.17857143 12.6059524,3.35952381 12.2940476,3.54761905 C12.0690476,3.68333333 11.8464286,3.82261905 11.6261905,3.96547619 C11.4595238,4.07261905 11.2988095,4.18571429 11.1357143,4.29761905 C10.5202381,4.775 10.3619048,5.6452381 10.8047619,6.29880952" id="Fill-6" fill="#50B584"></path>
                    <path d="M43.9059524,38.8214286 C43.6178571,38.8214286 43.327381,38.7392857 43.0714286,38.5642857 C42.3916667,38.1035714 42.2142857,37.177381 42.6761905,36.497619 L42.7869048,36.3202381 C41.1678571,38.7654762 39.0607143,40.8535714 36.5619048,42.4702381 C36.6869048,42.3892857 36.8154762,42.3178571 36.9380952,42.2345238 C37.6190476,41.7761905 38.5428571,41.95 39.0059524,42.6297619 C39.4488095,43.2833333 39.2904762,44.1535714 38.675,44.6309524 C41.2095238,42.9035714 43.3714286,40.7404762 45.0785714,38.2380952 C44.7880952,38.6130952 44.3535714,38.8214286 43.9059524,38.8214286" id="Fill-7" fill="#89C693"></path>
                    <path d="M39.0059524,42.6297619 C38.5428571,41.95 37.6190476,41.7761905 36.9380952,42.2345238 C36.8154762,42.3178571 36.6869048,42.3892857 36.5619048,42.4702381 L36.2785714,42.6630952 L35.9880952,42.8297619 C35.7119048,42.9964286 35.4333333,43.1559524 35.152381,43.3107143 C34.9654762,43.4119048 34.777381,43.5107143 34.5892857,43.6071429 C34.3130952,43.7464286 34.0345238,43.8809524 33.7535714,44.0083333 C33.5321429,44.1095238 33.3095238,44.2059524 33.0845238,44.2988095 C32.8416667,44.3988095 32.597619,44.4952381 32.3511905,44.5869048 C32.0714286,44.6904762 31.7916667,44.7880952 31.5083333,44.8797619 C31.3154762,44.9428571 31.1214286,45.002381 30.9261905,45.0595238 C30.5845238,45.1607143 30.2416667,45.2511905 29.8952381,45.3345238 C29.75,45.3690476 29.6059524,45.402381 29.4607143,45.4333333 C29.0690476,45.5190476 28.6761905,45.5916667 28.2797619,45.6547619 C28.1654762,45.6738095 28.05,45.6904762 27.9345238,45.7071429 C27.525,45.7654762 27.1130952,45.8107143 26.6988095,45.8452381 C26.5738095,45.8547619 26.4488095,45.8642857 26.3238095,45.872619 C25.9416667,45.8964286 25.5595238,45.9107143 25.175,45.9154762 L24.9059524,45.925 L24.5952381,45.9130952 C24.4357143,45.9107143 24.2761905,45.9190476 24.1166667,45.9119048 C23.2892857,45.847619 22.6035714,46.522619 22.5738095,47.3428571 C22.5440476,48.1321429 23.1404762,48.7857143 23.9154762,48.8642857 C24.2464286,48.877381 24.575,48.9011905 24.9059524,48.9011905 C25.5202381,48.9011905 26.1321429,48.8785714 26.7392857,48.8333333 L26.7440476,48.8333333 C27.3285714,48.7892857 27.9083333,48.722619 28.4857143,48.6380952 C28.6369048,48.6166667 28.7857143,48.5833333 28.9357143,48.5583333 C29.3559524,48.4892857 29.7738095,48.4154762 30.1880952,48.3238095 C30.4214286,48.272619 30.652381,48.2083333 30.8845238,48.15 C31.2083333,48.0678571 31.5321429,47.9869048 31.8511905,47.8916667 C32.1333333,47.8083333 32.4119048,47.7130952 32.6916667,47.6190476 C32.9547619,47.5297619 33.2166667,47.4428571 33.4761905,47.3452381 C33.7845238,47.2297619 34.0880952,47.1035714 34.3904762,46.975 C34.6178571,46.8785714 34.8452381,46.7833333 35.0702381,46.6797619 C35.3821429,46.5369048 35.6904762,46.3833333 35.9964286,46.227381 C36.2107143,46.1178571 36.425,46.0071429 36.6369048,45.8904762 C36.9321429,45.7285714 37.222619,45.5595238 37.5119048,45.3845238 C37.7345238,45.25 37.9559524,45.1119048 38.1761905,44.9690476 C38.3452381,44.8595238 38.5095238,44.7440476 38.675,44.6309524 C39.2904762,44.1535714 39.4488095,43.2833333 39.0059524,42.6297619" id="Fill-8" fill="#53B475"></path>
                    <path d="M47.8416667,26.797619 L47.7845238,26.7964286 C46.9630952,26.7654762 46.3214286,26.0738095 46.3535714,25.2535714 C46.3595238,25.0940476 46.3511905,24.9345238 46.3535714,24.775 C46.3107143,27.7761905 45.65,30.6952381 44.4190476,33.3833333 L44.527381,33.1583333 C44.8619048,32.4059524 45.7392857,32.0666667 46.4904762,32.3988095 C47.2214286,32.7214286 47.5511905,33.5583333 47.2654762,34.2940476 C48.4892857,31.5154762 49.1809524,28.5321429 49.3047619,25.4619048 C49.2238095,26.2142857 48.6035714,26.797619 47.8416667,26.797619" id="Fill-9" fill="#89C693"></path>
                    <path d="M46.4904762,32.3988095 C45.7392857,32.0666667 44.8619048,32.4059524 44.527381,33.1583333 L44.4190476,33.3833333 C44.2940476,33.6547619 44.1619048,33.9214286 44.0261905,34.1880952 C43.9071429,34.422619 43.7869048,34.6559524 43.6595238,34.8845238 C43.5488095,35.0833333 43.4321429,35.2797619 43.3142857,35.4761905 C43.1440476,35.7619048 42.9702381,36.0440476 42.7869048,36.3202381 L42.6761905,36.497619 C42.2142857,37.177381 42.3916667,38.1035714 43.0714286,38.5642857 C43.327381,38.7392857 43.6178571,38.8214286 43.9059524,38.8214286 C44.3535714,38.8214286 44.7880952,38.6130952 45.0785714,38.2380952 L45.2690476,37.9595238 C45.477381,37.647619 45.672619,37.3285714 45.8654762,37.0083333 C45.9988095,36.7833333 46.1333333,36.5595238 46.2595238,36.3297619 C46.4071429,36.0654762 46.5452381,35.7964286 46.6821429,35.527381 C46.8321429,35.2309524 46.9809524,34.9333333 47.1202381,34.6297619 C47.1702381,34.5190476 47.2166667,34.4059524 47.2654762,34.2940476 C47.5511905,33.5583333 47.2214286,32.7214286 46.4904762,32.3988095" id="Fill-10" fill="#54B36C"></path>
                    <path d="M2.02619048,22.1333333 C2.84761905,22.1630952 3.48928571,22.8547619 3.45714286,23.675 C3.45119048,23.8345238 3.45952381,23.9928571 3.45714286,24.152381 C3.5,21.1619048 4.15714286,18.2547619 5.3797619,15.5738095 L5.28452381,15.7714286 C5.03809524,16.3285714 4.49404762,16.6583333 3.92142857,16.6583333 C3.7202381,16.6583333 3.51666667,16.6178571 3.32142857,16.5309524 C2.58928571,16.2071429 2.25833333,15.3654762 2.54880952,14.6285714 C1.32380952,17.4083333 0.630952381,20.3952381 0.507142857,23.4678571 C0.588095238,22.6964286 1.22857143,22.1011905 2.02619048,22.1333333" id="Fill-11" fill="#89C693"></path>
                    <path d="M5.9047619,38.8214286 C6.19285714,38.8214286 6.48333333,38.7392857 6.73928571,38.5642857 C7.4202381,38.1035714 7.59642857,37.177381 7.13452381,36.497619 C7.05119048,36.375 6.98095238,36.2452381 6.9,36.1214286 L6.70714286,35.8369048 L6.54047619,35.5488095 C6.37261905,35.2702381 6.21071429,34.9880952 6.05595238,34.7035714 C5.95833333,34.525 5.86428571,34.3452381 5.77261905,34.1654762 C5.62261905,33.8714286 5.48095238,33.575 5.3452381,33.275 C5.25952381,33.0845238 5.17738095,32.8940476 5.09642857,32.702381 C4.97738095,32.4142857 4.86309524,32.125 4.75595238,31.8321429 C4.67619048,31.6130952 4.6,31.3928571 4.52619048,31.172619 C4.43928571,30.9059524 4.35714286,30.6392857 4.2797619,30.3702381 C4.20595238,30.1119048 4.13690476,29.8535714 4.07380952,29.5940476 C4.01547619,29.3571429 3.96071429,29.1190476 3.91071429,28.8797619 C3.84880952,28.5833333 3.79285714,28.2845238 3.74285714,27.9857143 C3.70833333,27.7761905 3.67619048,27.5654762 3.64880952,27.3547619 C3.6047619,27.0285714 3.56785714,26.7011905 3.53928571,26.3738095 C3.52142857,26.1761905 3.50714286,25.9785714 3.49404762,25.7809524 C3.47380952,25.4464286 3.46190476,25.1119048 3.45714286,24.775 L3.44642857,24.4654762 L3.45714286,24.152381 C3.45952381,23.9928571 3.45119048,23.8345238 3.45714286,23.675 C3.48928571,22.8547619 2.84761905,22.1630952 2.02619048,22.1333333 C1.22857143,22.1011905 0.588095238,22.6964286 0.507142857,23.4678571 C0.498809524,23.6761905 0.486904762,23.8833333 0.483333333,24.0916667 C0.479761905,24.3392857 0.479761905,24.5857143 0.483333333,24.8309524 C0.489285714,25.2059524 0.502380952,25.5797619 0.525,25.952381 C0.539285714,26.1845238 0.555952381,26.4154762 0.576190476,26.6452381 C0.60952381,27.0154762 0.65,27.3845238 0.7,27.7511905 C0.732142857,27.9916667 0.767857143,28.2321429 0.808333333,28.472619 C0.86547619,28.8166667 0.929761905,29.1595238 1.00119048,29.5 C1.05714286,29.7642857 1.11666667,30.0285714 1.18095238,30.2916667 C1.25595238,30.597619 1.33690476,30.9011905 1.42380952,31.2035714 C1.50833333,31.4988095 1.59880952,31.7928571 1.6952381,32.0845238 C1.78095238,32.3488095 1.87261905,32.6107143 1.96904762,32.8714286 C2.08690476,33.1916667 2.21071429,33.5095238 2.34166667,33.8261905 C2.43809524,34.0571429 2.53809524,34.2857143 2.64166667,34.5142857 C2.79047619,34.8452381 2.94761905,35.172619 3.11190476,35.4964286 C3.22142857,35.7107143 3.33214286,35.922619 3.44761905,36.1345238 C3.62142857,36.4535714 3.80357143,36.7690476 3.99285714,37.0821429 C4.12619048,37.302381 4.26190476,37.5202381 4.40238095,37.7369048 C4.52142857,37.9214286 4.64761905,38.1 4.77142857,38.2809524 C5.06071429,38.6285714 5.47619048,38.8214286 5.9047619,38.8214286" id="Fill-12" fill="#81C063"></path>
                    <path d="M3.32142857,16.5309524 C3.51666667,16.6178571 3.7202381,16.6583333 3.92142857,16.6583333 C4.49404762,16.6583333 5.03809524,16.3285714 5.28452381,15.7714286 L5.3797619,15.5738095 C5.51428571,15.2809524 5.65714286,14.9916667 5.80357143,14.7035714 C5.91190476,14.4904762 6.02142857,14.2785714 6.13690476,14.0702381 C6.25952381,13.8511905 6.38690476,13.6345238 6.51666667,13.4190476 C6.67738095,13.152381 6.84047619,12.8880952 7.01071429,12.6297619 L7.13452381,12.4309524 C7.59642857,11.7511905 7.4202381,10.8261905 6.73928571,10.3642857 C6.0797619,9.91428571 5.18928571,10.0821429 4.71666667,10.7166667 L4.52738095,10.9916667 C4.33214286,11.2857143 4.14880952,11.5857143 3.96785714,11.8857143 C3.82142857,12.1309524 3.675,12.375 3.53690476,12.625 C3.40238095,12.8678571 3.27619048,13.1142857 3.15,13.3607143 C2.98690476,13.6809524 2.82738095,14.002381 2.67738095,14.3309524 L2.54880952,14.6285714 C2.25833333,15.3654762 2.58928571,16.2071429 3.32142857,16.5309524" id="Fill-13" fill="#53B475"></path>
                    <path d="M39.0059524,6.29880952 C38.7190476,6.72142857 38.25,6.95119048 37.7738095,6.95119048 C37.4845238,6.95119048 37.1940476,6.86785714 36.9380952,6.69404762 L36.7404762,6.5702381 C39.1928571,8.18809524 41.2857143,10.2988095 42.9071429,12.8 C42.827381,12.6785714 42.7583333,12.5511905 42.6761905,12.4309524 C42.2142857,11.7511905 42.3916667,10.8261905 43.0714286,10.3642857 C43.725,9.9202381 44.5964286,10.0797619 45.072619,10.6952381 C43.3380952,8.15238095 41.1678571,5.98571429 38.6535714,4.27619048 C39.2904762,4.74880952 39.4547619,5.63690476 39.0059524,6.29880952" id="Fill-14" fill="#89C693"></path>
                    <path d="M32.8380952,2.88095238 C32.5059524,3.63214286 32.8464286,4.51071429 33.5988095,4.84285714 L33.7928571,4.93690476 C34.0880952,5.07261905 34.3797619,5.21547619 34.6690476,5.36428571 C34.8809524,5.47261905 35.0916667,5.58095238 35.2988095,5.6952381 C35.5190476,5.81785714 35.7345238,5.94642857 35.9511905,6.07619048 C36.2178571,6.23571429 36.4821429,6.39880952 36.7404762,6.5702381 L36.9380952,6.69404762 C37.1940476,6.86785714 37.4845238,6.95119048 37.7738095,6.95119048 C38.25,6.95119048 38.7190476,6.72142857 39.0059524,6.29880952 C39.4547619,5.63690476 39.2904762,4.74880952 38.6535714,4.27619048 L38.3785714,4.08571429 C38.0845238,3.89166667 37.7845238,3.70833333 37.4833333,3.52619048 C37.2392857,3.3797619 36.9940476,3.23333333 36.7440476,3.0952381 C36.5011905,2.96071429 36.2559524,2.83452381 36.0095238,2.70952381 C35.6892857,2.5452381 35.3666667,2.38571429 35.0380952,2.23690476 L34.7416667,2.10714286 C34.0035714,1.81785714 33.1630952,2.14642857 32.8380952,2.88095238" id="Fill-15" fill="#53B475"></path>
                    <path d="M43.0714286,10.3642857 C42.3916667,10.8261905 42.2142857,11.7511905 42.6761905,12.4309524 C42.7583333,12.5511905 42.827381,12.6785714 42.9071429,12.8 L43.1047619,13.0928571 L43.275,13.3892857 C43.4404762,13.6630952 43.6,13.9404762 43.752381,14.2202381 C43.8511905,14.402381 43.947619,14.5857143 44.0416667,14.7702381 C44.1892857,15.0595238 44.3297619,15.352381 44.4630952,15.647619 C44.5511905,15.8428571 44.6357143,16.0392857 44.7178571,16.2369048 C44.8357143,16.5178571 44.9464286,16.8011905 45.0511905,17.0869048 C45.1345238,17.3130952 45.2130952,17.5404762 45.2880952,17.7702381 C45.372619,18.027381 45.452381,18.2857143 45.527381,18.5452381 C45.6047619,18.8130952 45.675,19.0821429 45.7416667,19.352381 C45.797619,19.5785714 45.8488095,19.8047619 45.8964286,20.0333333 C45.9619048,20.3404762 46.0190476,20.65 46.0714286,20.9595238 C46.1035714,21.1595238 46.1333333,21.3595238 46.1607143,21.5607143 C46.2059524,21.8952381 46.2440476,22.2321429 46.2738095,22.5702381 C46.2904762,22.7583333 46.3035714,22.9464286 46.3154762,23.1357143 C46.3369048,23.477381 46.3488095,23.8178571 46.3535714,24.1607143 L46.3642857,24.4654762 L46.3535714,24.775 C46.3511905,24.9345238 46.3595238,25.0940476 46.3535714,25.2535714 C46.3214286,26.0738095 46.9630952,26.7654762 47.7845238,26.7964286 L47.8416667,26.797619 C48.6035714,26.797619 49.2238095,26.2142857 49.3047619,25.4619048 C49.3130952,25.2535714 49.3238095,25.0464286 49.327381,24.8380952 C49.3309524,24.5904762 49.3309524,24.3440476 49.327381,24.0988095 C49.3214286,23.722619 49.3083333,23.347619 49.2857143,22.9738095 C49.272619,22.7452381 49.2547619,22.5166667 49.2345238,22.2880952 C49.202381,21.9142857 49.1607143,21.5428571 49.1107143,21.172619 C49.0785714,20.9345238 49.0428571,20.6988095 49.0035714,20.4630952 C48.9464286,20.1142857 48.8809524,19.7678571 48.8083333,19.422619 C48.7535714,19.1619048 48.6952381,18.902381 48.6321429,18.6440476 C48.5559524,18.3345238 48.472619,18.025 48.3845238,17.7178571 C48.3011905,17.4285714 48.2130952,17.1392857 48.1190476,16.852381 C48.0309524,16.5833333 47.9369048,16.3154762 47.8392857,16.0488095 C47.7238095,15.7345238 47.6011905,15.4214286 47.472619,15.1119048 C47.3738095,14.875 47.272619,14.6404762 47.1666667,14.4059524 C47.0190476,14.0821429 46.8654762,13.7607143 46.7035714,13.4416667 C46.5916667,13.2214286 46.477381,13.0035714 46.3583333,12.7857143 C46.1880952,12.472619 46.0095238,12.1630952 45.8238095,11.8559524 C45.6880952,11.6297619 45.547619,11.4059524 45.4047619,11.1845238 C45.2964286,11.0190476 45.1833333,10.8571429 45.072619,10.6952381 C44.5964286,10.0797619 43.725,9.9202381 43.0714286,10.3642857" id="Fill-16" fill="#54B36C"></path>
                </g>
                <g id="點亮台灣-+-LIGHT-UP-TAIWAN-+-點亮台灣-copy-2" transform="translate(17.000000, 76.000000)">
                    <g id="點亮台灣-+-LIGHT-UP-TAIWAN" transform="translate(0.000000, 3.000000)" fill="#000000">
                        <g id="LIGHT-UP-TAIWAN">
                            <path d="M6.085,10 L6.085,8.388 L1.886,8.388 L1.886,0.744 L0.079,0.744 L0.079,10 L6.085,10 Z M14.0038576,10 L14.0038576,0.744 L12.1968576,0.744 L12.1968576,10 L14.0038576,10 Z M27.3957151,6.204 L27.3957151,4.852 L23.8987151,4.852 L23.8987151,6.373 L25.6017151,6.373 L25.6017151,6.711 C25.6017151,7.192 25.4847151,7.608 25.1857151,7.946 C24.8997151,8.271 24.4577151,8.466 23.8987151,8.466 C23.4047151,8.466 23.0147151,8.284 22.7417151,7.985 C22.4037151,7.595 22.2997151,7.14 22.2997151,5.372 C22.2997151,3.604 22.4037151,3.162 22.7417151,2.772 C23.0147151,2.473 23.4047151,2.278 23.8987151,2.278 C24.8217151,2.278 25.3547151,2.746 25.5627151,3.63 L27.3827151,3.63 C27.1357151,2.07 26.0567151,0.666 23.8987151,0.666 C22.8457151,0.666 22.0657151,1.017 21.4287151,1.641 C20.5057151,2.564 20.4927151,3.604 20.4927151,5.372 C20.4927151,7.14 20.5057151,8.18 21.4287151,9.103 C22.0657151,9.727 22.8457151,10.078 23.8987151,10.078 C24.8867151,10.078 25.7447151,9.831 26.5117151,9.025 C27.1877151,8.323 27.3957151,7.543 27.3957151,6.204 L27.3957151,6.204 Z M40.6315727,10 L40.6315727,0.744 L38.8245727,0.744 L38.8245727,4.527 L35.6915727,4.527 L35.6915727,0.744 L33.8845727,0.744 L33.8845727,10 L35.6915727,10 L35.6915727,6.126 L38.8245727,6.126 L38.8245727,10 L40.6315727,10 Z M53.3864302,2.356 L53.3864302,0.744 L46.7434302,0.744 L46.7434302,2.356 L49.1614302,2.356 L49.1614302,10 L50.9684302,10 L50.9684302,2.356 L53.3864302,2.356 Z M73.8261453,6.828 L73.8261453,0.744 L72.0321453,0.744 L72.0321453,6.763 C72.0321453,7.829 71.3951453,8.466 70.4201453,8.466 C69.4451453,8.466 68.8211453,7.829 68.8211453,6.763 L68.8211453,0.744 L67.0141453,0.744 L67.0141453,6.828 C67.0141453,8.791 68.5221453,10.078 70.4201453,10.078 C72.3181453,10.078 73.8261453,8.791 73.8261453,6.828 L73.8261453,6.828 Z M87.1270029,3.63 C87.1270029,2.057 85.9960029,0.744 84.0720029,0.744 L80.4840029,0.744 L80.4840029,10 L82.2910029,10 L82.2910029,6.516 L84.0720029,6.516 C85.9960029,6.516 87.1270029,5.203 87.1270029,3.63 L87.1270029,3.63 Z M85.3200029,3.63 C85.3200029,4.384 84.8000029,4.891 83.9810029,4.891 L82.2910029,4.891 L82.2910029,2.356 L83.9810029,2.356 C84.8000029,2.356 85.3200029,2.876 85.3200029,3.63 L85.3200029,3.63 Z M106.903718,2.356 L106.903718,0.744 L100.260718,0.744 L100.260718,2.356 L102.678718,2.356 L102.678718,10 L104.485718,10 L104.485718,2.356 L106.903718,2.356 Z M119.255576,10 L115.875576,0.744 L114.458576,0.744 L111.091576,10 L112.976576,10 L113.535576,8.362 L116.824576,8.362 L117.370576,10 L119.255576,10 Z M116.343576,6.841 L114.042576,6.841 L115.212576,3.474 L116.343576,6.841 Z M126.849433,10 L126.849433,0.744 L125.042433,0.744 L125.042433,10 L126.849433,10 Z M144.024291,0.744 L142.139291,0.744 L140.696291,6.581 L139.006291,0.744 L137.654291,0.744 L135.964291,6.581 L134.534291,0.744 L132.649291,0.744 L135.119291,10 L136.627291,10 L138.330291,4.384 L140.033291,10 L141.541291,10 L144.024291,0.744 Z M156.714148,10 L153.334148,0.744 L151.917148,0.744 L148.550148,10 L150.435148,10 L150.994148,8.362 L154.283148,8.362 L154.829148,10 L156.714148,10 Z M153.802148,6.841 L151.501148,6.841 L152.671148,3.474 L153.802148,6.841 Z M169.586006,10 L169.586006,0.744 L167.779006,0.744 L167.779006,6.412 L164.113006,0.744 L162.501006,0.744 L162.501006,10 L164.308006,10 L164.308006,4.319 L167.974006,10 L169.586006,10 Z"></path>
                        </g>
                    </g>
                    <g id="點亮台灣-copy-2" transform="translate(184.000000, 0.000000)" stroke-width="0.3" stroke="#000000" fill="#1A1918">
                        <g id="Group">
                            <path d="M1.059,11.12 L1.161,11.912 L9.473,10.84 L9.371,10.048 L5.937,10.491 L5.937,9.016 L9.279,9.016 L9.279,8.217 L5.937,8.217 L5.937,6.621 L9.13,6.621 L9.13,0.983 L1.945,0.983 L1.945,6.621 L5.138,6.621 L5.138,8.217 L1.796,8.217 L1.796,9.016 L5.138,9.016 L5.138,10.594 L1.059,11.12 L1.059,11.12 Z M5.937,1.781 L8.332,1.781 L8.332,5.822 L5.937,5.822 L5.937,1.781 Z M2.744,1.781 L5.139,1.781 L5.139,5.822 L2.744,5.822 L2.744,1.781 Z" id="Fill-14"></path>
                            <path d="M3.909,2.672 L3.165,2.96 L3.93,4.933 L4.675,4.644 L3.909,2.672" id="Fill-15"></path>
                            <path d="M7.144,4.933 L7.909,2.96 L7.165,2.672 L6.4,4.644 L7.144,4.933" id="Fill-16"></path>
                            <path d="M0.873,16.247 L1.561,16.65 C2.575,14.921 2.749,13.045 2.75,13.027 L1.954,12.964 C1.953,12.98 1.782,14.696 0.873,16.247" id="Fill-17"></path>
                            <path d="M3.985,13.156 C4.209,13.918 4.377,15.039 4.448,16.231 L5.245,16.183 C5.171,14.934 4.991,13.749 4.752,12.932 L3.985,13.156" id="Fill-18"></path>
                            <path d="M6.077,12.922 C6.337,13.701 6.568,14.858 6.678,15.941 L7.472,15.86 C7.354,14.706 7.115,13.513 6.834,12.669 L6.077,12.922" id="Fill-19"></path>
                            <path d="M8.231,12.583 C8.462,13.246 8.759,14.167 9.003,15.428 L9.787,15.276 C9.532,13.965 9.225,13.008 8.985,12.32 L8.231,12.583" id="Fill-20"></path>
                            <path d="M16.267,4.5 L16.267,3.702 L13.274,3.702 L13.274,0.933 L12.476,0.933 L12.476,8.991 L10.663,8.991 L10.663,15.052 L15.893,15.052 L15.893,8.991 L13.274,8.991 L13.274,4.5 L16.267,4.5 L16.267,4.5 Z M11.461,9.789 L15.095,9.789 L15.095,14.254 L11.461,14.254 L11.461,9.789 Z" id="Fill-21"></path>
                        </g>
                        <g id="Group" transform="translate(23.000000, 0.000000)">
                            <path d="M14.57,1.873 L8.607,1.873 L8.607,0.035 L7.809,0.035 L7.809,1.873 L1.846,1.873 L1.846,2.672 L14.57,2.672 L14.57,1.873" id="Fill-22"></path>
                            <path d="M4.814,7.195 L11.683,7.195 L11.683,3.819 L4.814,3.819 L4.814,7.195 Z M5.612,4.617 L10.884,4.617 L10.884,6.396 L5.612,6.396 L5.612,4.617 Z" id="Fill-23"></path>
                            <path d="M2.115,9.286 L14.478,9.286 L14.478,10.913 L15.277,10.913 L15.277,8.488 L1.317,8.488 L1.317,10.913 L2.115,10.913 L2.115,9.286" id="Fill-24"></path>
                            <path d="M0.802,15.745 L0.979,16.523 C6.028,15.374 6.648,11.827 6.681,10.354 L5.882,10.337 C5.847,11.933 5.141,14.758 0.802,15.745" id="Fill-25"></path>
                            <path d="M15.151,13.709 L14.765,14.753 C14.711,14.896 14.572,14.993 14.419,14.993 L10.844,14.993 C10.604,14.993 10.408,14.796 10.408,14.555 L10.408,10.297 L9.61,10.297 L9.61,14.555 C9.61,15.236 10.164,15.791 10.844,15.791 L14.419,15.791 C14.902,15.791 15.341,15.487 15.512,15.032 L15.899,13.986 L15.151,13.709" id="Fill-26"></path>
                        </g>
                        <g id="Fill-27-+-Fill-28" transform="translate(46.000000, 0.000000)">
                            <path d="M13.895,7.8085 C12.671,5.9215 11.219,4.0395 10.523,3.3095 L9.945,3.8615 C10.247,4.1775 10.702,4.7285 11.216,5.3995 L3.321,6.3965 L6.363,0.6455 L5.657,0.2725 L2.353,6.5185 L0.14,6.7975 L0.24,7.5895 L11.767,6.1345 C12.248,6.7905 12.753,7.5135 13.225,8.2425 L13.895,7.8085" id="Fill-27"></path>
                            <path d="M2.385,16.6485 L3.183,16.6485 L3.183,15.5675 L10.75,15.5675 L10.75,16.6485 L11.548,16.6485 L11.548,10.1295 L2.385,10.1295 L2.385,16.6485 L2.385,16.6485 Z M3.183,10.9275 L10.75,10.9275 L10.75,14.7695 L3.183,14.7695 L3.183,10.9275 Z" id="Fill-28"></path>
                        </g>
                        <g id="Group" transform="translate(67.000000, 0.000000)">
                            <path d="M1.087,1.1865 L3.139,3.2715 L3.7,2.7195 L1.648,0.6345 L1.087,1.1865" id="Fill-29"></path>
                            <path d="M3.125,6.8725 L1.074,4.7875 L0.512,5.3405 L2.564,7.4255 L3.125,6.8725" id="Fill-30"></path>
                            <path d="M2.407,10.2775 C2.093,11.4945 1.566,13.5315 0.409,16.5105 L1.143,16.7955 C2.317,13.7735 2.872,11.6275 3.17,10.4745 C3.236,10.2195 3.291,10.0065 3.339,9.8365 L2.581,9.6225 C2.531,9.7975 2.475,10.0155 2.407,10.2775" id="Fill-31"></path>
                            <path d="M3.853,9.3345 L4.43,9.4615 C4.676,8.3475 4.843,7.2195 4.844,7.2075 L4.26,7.1225 C4.258,7.1335 4.094,8.2405 3.853,9.3345" id="Fill-32"></path>
                            <path d="M5.617,7.2555 L5.637,7.4195 C5.68,7.7505 5.77,8.4385 5.8,9.2645 L6.39,9.2435 C6.359,8.3905 6.267,7.6835 6.224,7.3435 L6.204,7.1895 L5.617,7.2555" id="Fill-33"></path>
                            <path d="M6.979,7.1495 C7.087,7.4145 7.419,8.5675 7.488,9.1645 L8.076,9.0965 C7.999,8.4305 7.65,7.2295 7.526,6.9255 L6.979,7.1495" id="Fill-34"></path>
                            <path d="M12.449,7.1275 C12.228,8.4105 12.064,8.9645 11.966,9.2025 L12.511,9.4285 C12.673,9.0355 12.843,8.3155 13.031,7.2275 L13.046,7.1455 L12.466,7.0295 L12.449,7.1275" id="Fill-35"></path>
                            <path d="M13.987,9.2035 L14.578,9.1815 C14.56,8.7055 14.476,7.9895 14.328,7.0535 L13.745,7.1455 C13.889,8.0585 13.971,8.7505 13.987,9.2035" id="Fill-36"></path>
                            <path d="M15.708,6.8825 L15.147,7.0695 C15.279,7.4645 15.499,8.1235 15.731,9.1235 L16.306,8.9905 C16.068,7.9635 15.843,7.2865 15.708,6.8825" id="Fill-37"></path>
                            <path d="M4.325,6.5745 L7.248,5.9245 L7.512,6.5715 L8.059,6.3475 L7.321,4.5415 L6.774,4.7655 L7.021,5.3695 L5.183,5.7785 C6.605,4.0865 7.644,2.3205 7.692,2.2375 L7.182,1.9395 C7.177,1.9485 6.951,2.3315 6.576,2.9005 L4.989,3.2245 C5.679,1.8665 6.308,0.4905 6.315,0.4745 L5.777,0.2295 C5.77,0.2465 5.008,1.9145 4.245,3.3795 L4.253,3.3845 L4.369,3.9535 L6.102,3.6005 C5.591,4.3315 4.935,5.2005 4.215,5.9895 L4.219,5.9935 L4.196,5.9985 L4.325,6.5745" id="Fill-38"></path>
                            <path d="M12.5,6.5745 L15.423,5.9245 L15.687,6.5715 L16.234,6.3475 L15.496,4.5415 L14.949,4.7655 L15.196,5.3695 L13.358,5.7785 C14.78,4.0865 15.819,2.3205 15.867,2.2375 L15.357,1.9395 C15.352,1.9485 15.126,2.3315 14.751,2.9005 L13.164,3.2245 C13.854,1.8665 14.483,0.4905 14.49,0.4745 L13.952,0.2295 C13.944,0.2465 13.183,1.9145 12.42,3.3795 L12.428,3.3835 L12.544,3.9535 L14.276,3.6005 C13.766,4.3315 13.11,5.2005 12.39,5.9895 L12.394,5.9935 L12.372,5.9985 L12.5,6.5745" id="Fill-39"></path>
                            <path d="M12.202,1.6825 L10.417,1.6825 L10.417,0.1805 L9.826,0.1805 L9.826,1.6825 L8.065,1.6825 L8.065,2.2735 L12.202,2.2735 L12.202,1.6825" id="Fill-40"></path>
                            <path d="M8.668,3.1105 L11.586,3.1105 L11.586,3.7015 L8.668,3.7015 L8.668,3.1105 Z" id="Fill-41"></path>
                            <path d="M8.668,4.5015 L11.586,4.5015 L11.586,5.0925 L8.668,5.0925 L8.668,4.5015 Z" id="Fill-42"></path>
                            <path d="M8.767,8.9585 L11.5,8.9585 L11.5,6.2745 L8.767,6.2745 L8.767,8.9585 Z M9.358,6.8655 L10.909,6.8655 L10.909,8.3675 L9.358,8.3675 L9.358,6.8655 Z" id="Fill-43"></path>
                            <path d="M15.013,13.5975 L6.001,13.5975 L6.245,12.5645 C6.255,12.5235 6.292,12.4945 6.334,12.4945 L14.717,12.4945 L14.717,9.9655 L5.049,9.9655 L5.049,10.6355 L14.046,10.6355 L14.046,11.8245 L5.804,11.8245 C5.762,11.8245 5.725,11.8535 5.715,11.8945 L5.178,14.1695 C5.166,14.2195 5.204,14.2675 5.255,14.2675 L14.584,14.2675 L14.155,16.0665 C14.128,16.0865 14.111,16.1005 14.084,16.1215 L10.897,16.1215 L10.897,16.7915 L14.084,16.7915 C14.428,16.7915 14.727,16.5555 14.806,16.2215 L15.316,14.0875 C15.346,13.9685 15.362,13.8295 15.287,13.7335 C15.287,13.7335 15.225,13.5975 15.013,13.5975" id="Fill-44"></path>
                        </g>
                    </g>
                </g>
            </g>
        </g>
    </g>
</svg>